<svg version="1.1" xmlns="http://www.w3.org/2000/svg" xmlns:xlink="http://www.w3.org/1999/xlink" width="693" height="279"><defs><clipPath id="VARWlXosUExL"><path fill="none" stroke="none" d=" M 0 0 L 693 0 L 693 279 L 0 279 L 0 0 Z"/></clipPath></defs><g transform="scale(1,1)" clip-path="url(#VARWlXosUExL)"><g><path fill="rgb(0,100,0)" stroke="none" paint-order="stroke fill markers" fill-rule="evenodd" d=" M 430.99999999999955 168 L 445.14213562372953 168 L 445.1421356237305 153.85786437626905 L 430.99999999999955 153.85786437627 L 430.99999999999955 168" fill-opacity="0.09803921568627451"/><path fill="none" stroke="rgb(0,100,0)" paint-order="fill stroke markers" d=" M 430.99999999999955 168 L 445.14213562372953 168 L 445.1421356237305 153.85786437626905 L 430.99999999999955 153.85786437627 L 430.99999999999955 168" stroke-opacity="0.6980392156862745" stroke-linecap="round" stroke-linejoin="round" stroke-miterlimit="10" stroke-width="2.5"/><path fill="none" stroke="rgb(0,0,0)" paint-order="fill stroke markers" d=" M 105.99999999999994 178 L 100.7908466818617 180.75419488331713 L 98.83765529451301 182.15961893250005 L 97.30325229593103 183.58239065111061 L 96.17603634183041 185.02135748745735 L 95.76149808637149 185.74655390237822 L 95.44440608792593 186.47536688984883 L 95.22331017845801 187.20765238090775 L 95.09676018993218 187.94326630659353 L 95.06330595431274 188.68206459794476 L 95.12149730356407 189.42390318600002 L 95.2698840696504 190.16863800179786 L 95.50701608453625 190.91612497637686 L 96.24171518856338 192.41877912603255 L 97.31399327136029 193.93071308327566 L 98.7122489886417 195.45077429641472 L 102.4402879495168 198.51066828361485 L 107.33302131690652 201.58924067410123 L 113.29763833652868 204.6772710543422 L 120.24132825410112 207.76553901080607 L 128.0712803153417 210.84482412996113 L 136.6946837659682 213.9059059982757 L 146.0187278516985 216.9395642022181 L 155.95060181825033 219.93657832825667 L 161.11547164612114 221.41846248283335 L 166.3974949113416 222.88772796285969 L 171.78507026962632 224.34322221664422 L 177.26659637669013 225.78379269249547 L 182.83047188824764 227.20828683872202 L 188.46509546001369 228.61555210363235 L 194.15886574770298 230.00443593553504 L 199.90018140703023 231.37378578273862 L 205.67744109371006 232.72244909355163 L 211.47904346345746 234.0492733162826 L 217.29338717198692 235.35310589924012 L 223.10887087501322 236.63279429073265 L 228.91389322825114 237.88718593906876 L 234.69685288741533 239.115128292557 L 240.4461485082207 240.31546879950588 L 246.1501787463818 241.48705490822402 L 251.79734225761337 242.62873406701985 L 257.3760376976302 243.73935372420198 L 262.874663722147 244.81776132807892 L 268.28161898687847 245.86280432695924 L 273.5853021475394 246.87333016915142 L 278.7741118598444 247.84818630296408 L 288.7620370060529 249.68632668338927 L 298.2112240480992 251.37009464746427 L 307.1653283702566 252.89513261969677 L 315.6735610029016 254.25728099463635 L 323.7851329764104 255.4523801668326 L 331.54925532115993 256.47627053083517 L 339.0151390675261 257.32479248119364 L 346.23199524588557 257.9937864124576 L 353.24903488661505 258.4790927191768 L 360.11546902009053 258.7765517959007 L 366.88050867668875 258.882004037179 L 373.59336488678616 258.7912898375613 L 380.3032486807591 258.5002495915972 L 387.05937108898365 258.00472369383635 L 393.9109431418371 257.30055253882836 L 400.9071758696954 256.38357652112285 L 408.097280302935 255.2496360352694 L 415.5304674719319 253.89457147581766 L 423.2546703981198 252.3144332159971 L 431.27264788014566 250.5126938178421 L 439.5309583928336 248.50205963621238 L 447.97264415729484 246.29581475143442 L 456.54074739464164 243.90724324383487 L 465.1783103259857 241.34962919373993 L 473.8283751724401 238.63625668147643 L 482.4339841551159 235.78040978737081 L 490.93817949512487 232.7953725917494 L 499.28400341358076 229.6944291749389 L 507.4144981315937 226.49086361726543 L 515.272705870277 223.19795999905614 L 522.8016688507421 219.82900240063668 L 529.9444292941008 216.39727490233423 L 536.6440294214656 212.91606158447502 L 542.8435114539498 209.39864652738544 L 548.4859176126623 205.8583138113921 L 553.5142901187182 202.30834751682124 L 557.8716711932274 198.76203172399994 L 561.5011030573033 195.23265051325416 L 564.3456279320571 191.73348796491078 L 566.3484256757508 188.27781238192205 L 567.0214271454663 186.56985464343865 L 567.4783870095846 184.8759448260198 L 567.7232974571946 183.19646967913397 L 567.7601506773864 181.5318159522495 L 567.5929388592531 179.88237039483488 L 567.22565419188 178.24851975635852 L 565.9068350657842 175.02915023409415 L 564.9632849852419 173.44440484924294 L 563.835630811822 171.8768013812037 L 561.0439789427135 168.79456719343457 L 557.5638169711804 165.78554166653413 L 553.4270824099425 162.85281879624966 L 548.6657127717247 159.99949257832847 L 543.3116455692451 157.22865700851804 L 537.3968183152281 154.54340608256558 L 530.9531685223919 151.9468337962185 L 524.0126337034592 149.44203414522406 L 516.6071513711511 147.03210112532963 L 508.7686590381902 144.72012873228257 L 500.52909421729584 142.50921096183032 L 491.92039442119113 140.40244180972002 L 482.97449716259666 138.40291527169913 L 473.7233399542329 136.51372534351495 L 464.19886030882327 134.73796602091488 L 454.4329957390882 133.0787312996462 L 444.45768375774685 131.53911517545626 L 439.4014654604501 130.81513096093693 L 434.3048618775239 130.1222116440925 L 429.1718651980556 129.46074397439142 L 424.0064676111384 128.8311147013021 L 418.81266130586107 128.23371057429296 L 413.5944384713124 127.66891834283243 L 408.3557912965869 127.13712475638897 L 403.10071197076917 126.63871656443098 L 397.83319268295224 126.17408051642673 L 392.55722562222786 125.74360336184486 L 387.2768029776847 125.34767185015366 L 381.9959169384103 124.98667273082167 L 376.71855969349764 124.66099275331709 L 371.4487234320356 124.37101866710849 L 366.19040034311865 124.1171372216642 L 360.94758261582854 123.89973516645281 L 355.72426243926543 123.71919925094255 L 350.5244320025082 123.57591622460195 L 345.3520834946571 123.4702728368994 L 340.2112091048008 123.40265583730323 L 335.1058010220254 123.37345197528205 L 330.0398514354197 123.38304800030397 L 320.0422965070925 123.52018670935169 L 310.25048183253836 123.81716596019348 L 300.6951531155356 124.27681697969426 L 291.3859152214497 124.89730988309411 L 282.3142214364806 125.67281274300797 L 273.4709354487419 126.59736363803056 L 264.8469209463426 127.66500064675874 L 256.43304161739576 128.86976184778652 L 248.22016115001145 130.2056853197115 L 240.19914323229926 131.66680914112766 L 232.36085155237004 133.24717139063117 L 224.69614979833477 134.94081014681817 L 217.19590165830584 136.74176348828374 L 209.85097082039334 138.6440694936244 L 202.65222097270754 140.64176624143377 L 195.59051580335864 142.7288918103091 L 188.65671900045902 144.89948427884548 L 181.8416942521181 147.14758172563867 L 175.13630524644827 149.4672222292845 L 168.53141567155905 151.8524438683787 L 162.01788921556061 154.29728472151643 L 155.5865895665661 156.79578286729344 L 149.22838041268557 159.34197638430481 L 142.9341254420279 161.92990335114706 L 136.69468834270612 164.55360184641668 L 130.50093280282903 167.20710994870734 L 124.34372251050968 169.88446573661554 L 118.21392115385828 172.57970728873636 L 112.10239242098504 175.2868726836663 L 106.00000000000017 178.00000000000045 Z" stroke-opacity="0.6980392156862745" stroke-linecap="round" stroke-linejoin="round" stroke-miterlimit="10" stroke-width="1.5"/><path fill="rgb(0,0,0)" stroke="none" paint-order="stroke fill markers" fill-rule="evenodd" d=" M 105.99999999999994 178 L 100.7908466818617 180.75419488331713 L 98.83765529451301 182.15961893250005 L 97.30325229593103 183.58239065111061 L 96.17603634183041 185.02135748745735 L 95.76149808637149 185.74655390237822 L 95.44440608792593 186.47536688984883 L 95.22331017845801 187.20765238090775 L 95.09676018993218 187.94326630659353 L 95.06330595431274 188.68206459794476 L 95.12149730356407 189.42390318600002 L 95.2698840696504 190.16863800179786 L 95.50701608453625 190.91612497637686 L 96.24171518856338 192.41877912603255 L 97.31399327136029 193.93071308327566 L 98.7122489886417 195.45077429641472 L 102.4402879495168 198.51066828361485 L 107.33302131690652 201.58924067410123 L 113.29763833652868 204.6772710543422 L 120.24132825410112 207.76553901080607 L 128.0712803153417 210.84482412996113 L 136.6946837659682 213.9059059982757 L 146.0187278516985 216.9395642022181 L 155.95060181825033 219.93657832825667 L 161.11547164612114 221.41846248283335 L 166.3974949113416 222.88772796285969 L 171.78507026962632 224.34322221664422 L 177.26659637669013 225.78379269249547 L 182.83047188824764 227.20828683872202 L 188.46509546001369 228.61555210363235 L 194.15886574770298 230.00443593553504 L 199.90018140703023 231.37378578273862 L 205.67744109371006 232.72244909355163 L 211.47904346345746 234.0492733162826 L 217.29338717198692 235.35310589924012 L 223.10887087501322 236.63279429073265 L 228.91389322825114 237.88718593906876 L 234.69685288741533 239.115128292557 L 240.4461485082207 240.31546879950588 L 246.1501787463818 241.48705490822402 L 251.79734225761337 242.62873406701985 L 257.3760376976302 243.73935372420198 L 262.874663722147 244.81776132807892 L 268.28161898687847 245.86280432695924 L 273.5853021475394 246.87333016915142 L 278.7741118598444 247.84818630296408 L 288.7620370060529 249.68632668338927 L 298.2112240480992 251.37009464746427 L 307.1653283702566 252.89513261969677 L 315.6735610029016 254.25728099463635 L 323.7851329764104 255.4523801668326 L 331.54925532115993 256.47627053083517 L 339.0151390675261 257.32479248119364 L 346.23199524588557 257.9937864124576 L 353.24903488661505 258.4790927191768 L 360.11546902009053 258.7765517959007 L 366.88050867668875 258.882004037179 L 373.59336488678616 258.7912898375613 L 380.3032486807591 258.5002495915972 L 387.05937108898365 258.00472369383635 L 393.9109431418371 257.30055253882836 L 400.9071758696954 256.38357652112285 L 408.097280302935 255.2496360352694 L 415.5304674719319 253.89457147581766 L 423.2546703981198 252.3144332159971 L 431.27264788014566 250.5126938178421 L 439.5309583928336 248.50205963621238 L 447.97264415729484 246.29581475143442 L 456.54074739464164 243.90724324383487 L 465.1783103259857 241.34962919373993 L 473.8283751724401 238.63625668147643 L 482.4339841551159 235.78040978737081 L 490.93817949512487 232.7953725917494 L 499.28400341358076 229.6944291749389 L 507.4144981315937 226.49086361726543 L 515.272705870277 223.19795999905614 L 522.8016688507421 219.82900240063668 L 529.9444292941008 216.39727490233423 L 536.6440294214656 212.91606158447502 L 542.8435114539498 209.39864652738544 L 548.4859176126623 205.8583138113921 L 553.5142901187182 202.30834751682124 L 557.8716711932274 198.76203172399994 L 561.5011030573033 195.23265051325416 L 564.3456279320571 191.73348796491078 L 566.3484256757508 188.27781238192205 L 567.0214271454663 186.56985464343865 L 567.4783870095846 184.8759448260198 L 567.7232974571946 183.19646967913397 L 567.7601506773864 181.5318159522495 L 567.5929388592531 179.88237039483488 L 567.22565419188 178.24851975635852 L 565.9068350657842 175.02915023409415 L 564.9632849852419 173.44440484924294 L 563.835630811822 171.8768013812037 L 561.0439789427135 168.79456719343457 L 557.5638169711804 165.78554166653413 L 553.4270824099425 162.85281879624966 L 548.6657127717247 159.99949257832847 L 543.3116455692451 157.22865700851804 L 537.3968183152281 154.54340608256558 L 530.9531685223919 151.9468337962185 L 524.0126337034592 149.44203414522406 L 516.6071513711511 147.03210112532963 L 508.7686590381902 144.72012873228257 L 500.52909421729584 142.50921096183032 L 491.92039442119113 140.40244180972002 L 482.97449716259666 138.40291527169913 L 473.7233399542329 136.51372534351495 L 464.19886030882327 134.73796602091488 L 454.4329957390882 133.0787312996462 L 444.45768375774685 131.53911517545626 L 439.4014654604501 130.81513096093693 L 434.3048618775239 130.1222116440925 L 429.1718651980556 129.46074397439142 L 424.0064676111384 128.8311147013021 L 418.81266130586107 128.23371057429296 L 413.5944384713124 127.66891834283243 L 408.3557912965869 127.13712475638897 L 403.10071197076917 126.63871656443098 L 397.83319268295224 126.17408051642673 L 392.55722562222786 125.74360336184486 L 387.2768029776847 125.34767185015366 L 381.9959169384103 124.98667273082167 L 376.71855969349764 124.66099275331709 L 371.4487234320356 124.37101866710849 L 366.19040034311865 124.1171372216642 L 360.94758261582854 123.89973516645281 L 355.72426243926543 123.71919925094255 L 350.5244320025082 123.57591622460195 L 345.3520834946571 123.4702728368994 L 340.2112091048008 123.40265583730323 L 335.1058010220254 123.37345197528205 L 330.0398514354197 123.38304800030397 L 320.0422965070925 123.52018670935169 L 310.25048183253836 123.81716596019348 L 300.6951531155356 124.27681697969426 L 291.3859152214497 124.89730988309411 L 282.3142214364806 125.67281274300797 L 273.4709354487419 126.59736363803056 L 264.8469209463426 127.66500064675874 L 256.43304161739576 128.86976184778652 L 248.22016115001145 130.2056853197115 L 240.19914323229926 131.66680914112766 L 232.36085155237004 133.24717139063117 L 224.69614979833477 134.94081014681817 L 217.19590165830584 136.74176348828374 L 209.85097082039334 138.6440694936244 L 202.65222097270754 140.64176624143377 L 195.59051580335864 142.7288918103091 L 188.65671900045902 144.89948427884548 L 181.8416942521181 147.14758172563867 L 175.13630524644827 149.4672222292845 L 168.53141567155905 151.8524438683787 L 162.01788921556061 154.29728472151643 L 155.5865895665661 156.79578286729344 L 149.22838041268557 159.34197638430481 L 142.9341254420279 161.92990335114706 L 136.69468834270612 164.55360184641668 L 130.50093280282903 167.20710994870734 L 124.34372251050968 169.88446573661554 L 118.21392115385828 172.57970728873636 L 112.10239242098504 175.2868726836663 L 106.00000000000017 178.00000000000045 Z" fill-opacity="0.09803921568627451"/><g transform="scale(21,21)"><g transform="translate(6.095238095238095,9.254760571428571)"><path fill="rgb(0,0,0)" stroke="none" paint-order="stroke fill markers" d=" M 0.308 -0.34800000000000003 L 0.308 -0.34800000000000003 L 0.27 -0.223 Q 0.23900000000000002 -0.123 0.199 -0.022 Q 0.19 -0.003 0.153 0.015 Q 0.136 0.022 0.126 0.022 Q 0.115 0.022 0.115 0.015 Q 0.115 0.012 0.125 -0.015 Q 0.242 -0.317 0.27 -0.532 Q 0.274 -0.5650000000000001 0.274 -0.584 Q 0.274 -0.615 0.246 -0.625 Q 0.23700000000000002 -0.628 0.226 -0.628 Q 0.151 -0.628 0.123 -0.581 L 0.123 -0.58 Q 0.114 -0.5640000000000001 0.106 -0.54 Q 0.096 -0.51 0.049 -0.493 Q 0.037 -0.489 0.03 -0.489 Q 0.028 -0.489 0.02 -0.492 Q 0.036000000000000004 -0.58 0.134 -0.638 Q 0.211 -0.683 0.292 -0.683 Q 0.356 -0.678 0.359 -0.626 Q 0.359 -0.597 0.34600000000000003 -0.516 Q 0.332 -0.44 0.319 -0.393 Q 0.335 -0.403 0.364 -0.403 L 0.63 -0.403 Q 0.681 -0.544 0.729 -0.627 Q 0.742 -0.65 0.749 -0.656 Q 0.784 -0.683 0.807 -0.683 Q 0.8180000000000001 -0.683 0.8180000000000001 -0.675 Q 0.8180000000000001 -0.671 0.811 -0.661 Q 0.707 -0.461 0.662 -0.272 Q 0.64 -0.177 0.64 -0.10300000000000001 Q 0.64 -0.036000000000000004 0.657 -0.019 L 0.657 -0.019 Q 0.668 -0.008 0.686 -0.008 Q 0.6940000000000001 -0.008 0.711 -0.013000000000000001 Q 0.715 -0.035 0.742 -0.053 Q 0.772 -0.074 0.791 -0.074 Q 0.801 -0.074 0.801 -0.066 Q 0.801 -0.034 0.743 0.005 Q 0.68 0.047 0.62 0.047 Q 0.5660000000000001 0.047 0.558 -0.006 Q 0.555 -0.022 0.555 -0.06 Q 0.555 -0.182 0.614 -0.358 Q 0.598 -0.34800000000000003 0.5690000000000001 -0.34800000000000003 L 0.308 -0.34800000000000003 Z"/></g></g><path fill="none" stroke="rgb(0,0,0)" paint-order="fill stroke markers" d=" M 430.99999999999955 168 L 430.99999999999955 18.000000000000057" stroke-opacity="0.6980392156862745" stroke-linejoin="round" stroke-miterlimit="10" stroke-width="1.5" stroke-dasharray="9.5,8"/><g transform="scale(21,21)"><g transform="translate(21.238095238095237,4.6468259523809525)"><path fill="rgb(0,0,0)" stroke="none" paint-order="stroke fill markers" d=" M 0.17200000000000001 -0.377 L 0.17200000000000001 -0.377 Q 0.23 -0.442 0.309 -0.442 Q 0.401 -0.442 0.465 -0.369 Q 0.521 -0.304 0.521 -0.216 Q 0.521 -0.112 0.444 -0.044 Q 0.38 0.011 0.298 0.011 Q 0.218 0.011 0.17 -0.058 Q 0.168 -0.06 0.167 -0.062 L 0.131 0 L 0.106 0 L 0.106 -0.596 Q 0.106 -0.635 0.092 -0.644 L 0.091 -0.644 Q 0.08 -0.65 0.053 -0.652 L 0.028 -0.652 L 0.028 -0.683 L 0.17200000000000001 -0.6940000000000001 L 0.17200000000000001 -0.377 M 0.17500000000000002 -0.114 L 0.17500000000000002 -0.114 Q 0.17500000000000002 -0.094 0.185 -0.079 L 0.185 -0.078 L 0.189 -0.07200000000000001 Q 0.229 -0.011 0.294 -0.011 Q 0.364 -0.011 0.40700000000000003 -0.075 Q 0.438 -0.123 0.438 -0.217 Q 0.438 -0.31 0.40900000000000003 -0.356 Q 0.369 -0.42 0.304 -0.42 Q 0.234 -0.42 0.19 -0.362 L 0.186 -0.356 Q 0.17500000000000002 -0.334 0.17500000000000002 -0.32 L 0.17500000000000002 -0.114 Z"/></g><g transform="translate(21.793652238095238,4.6468259523809525)"><path fill="rgb(0,0,0)" stroke="none" paint-order="stroke fill markers" d=" M 0.177 -0.442 L 0.177 -0.442 L 0.177 -0.075 Q 0.177 -0.044 0.189 -0.037 L 0.189 -0.037 Q 0.201 -0.031 0.247 -0.031 L 0.247 0 Q 0.145 -0.003 0.14300000000000002 -0.003 Q 0.129 -0.003 0.033 0 L 0.033 -0.031 Q 0.092 -0.031 0.10200000000000001 -0.04 L 0.10400000000000001 -0.042 Q 0.111 -0.05 0.111 -0.076 L 0.111 -0.34500000000000003 Q 0.111 -0.385 0.095 -0.393 L 0.094 -0.393 L 0.094 -0.393 L 0.093 -0.394 L 0.093 -0.394 Q 0.08 -0.4 0.037 -0.4 L 0.037 -0.431 L 0.177 -0.442 M 0.181 -0.616 Q 0.181 -0.579 0.148 -0.5670000000000001 Q 0.138 -0.5630000000000001 0.128 -0.5630000000000001 Q 0.093 -0.5630000000000001 0.079 -0.595 L 0.079 -0.596 Q 0.075 -0.606 0.075 -0.616 Q 0.075 -0.647 0.10300000000000001 -0.662 Q 0.114 -0.669 0.128 -0.669 Q 0.162 -0.669 0.176 -0.639 Q 0.181 -0.628 0.181 -0.616 Z"/></g><g transform="translate(22.071431238095236,4.6468259523809525)"><path fill="rgb(0,0,0)" stroke="none" paint-order="stroke fill markers" d=" M 0.333 -0.076 Q 0.308 -0.014 0.245 0.005 Q 0.225 0.011 0.202 0.011 Q 0.117 0.011 0.07100000000000001 -0.03 Q 0.042 -0.056 0.042 -0.095 Q 0.042 -0.17200000000000001 0.127 -0.218 Q 0.134 -0.222 0.14200000000000002 -0.225 Q 0.203 -0.254 0.321 -0.261 L 0.326 -0.261 L 0.326 -0.298 Q 0.326 -0.383 0.265 -0.41500000000000004 Q 0.244 -0.426 0.22 -0.426 Q 0.154 -0.426 0.11800000000000001 -0.387 Q 0.115 -0.383 0.112 -0.38 Q 0.159 -0.374 0.163 -0.334 Q 0.163 -0.3 0.132 -0.29 Q 0.125 -0.28800000000000003 0.117 -0.28800000000000003 Q 0.081 -0.28800000000000003 0.073 -0.321 Q 0.07100000000000001 -0.326 0.07100000000000001 -0.335 Q 0.07100000000000001 -0.395 0.134 -0.427 Q 0.17300000000000001 -0.448 0.222 -0.448 Q 0.304 -0.448 0.359 -0.393 Q 0.394 -0.357 0.395 -0.293 L 0.395 -0.292 L 0.395 -0.275 L 0.395 -0.075 Q 0.395 -0.046 0.41300000000000003 -0.032 Q 0.421 -0.025 0.432 -0.025 Q 0.467 -0.025 0.468 -0.089 L 0.468 -0.145 L 0.493 -0.145 L 0.493 -0.089 Q 0.493 -0.016 0.433 0.002 Q 0.421 0.006 0.41100000000000003 0.006 Q 0.362 0.006 0.341 -0.046 Q 0.335 -0.06 0.333 -0.076 M 0.326 -0.24 Q 0.17200000000000001 -0.234 0.13 -0.146 Q 0.11900000000000001 -0.122 0.11900000000000001 -0.096 Q 0.11900000000000001 -0.045 0.165 -0.021 Q 0.185 -0.011 0.209 -0.011 Q 0.261 -0.011 0.296 -0.052000000000000005 Q 0.326 -0.08600000000000001 0.326 -0.14 L 0.326 -0.24 Z"/></g><g transform="translate(22.571433238095235,4.6468259523809525)"><path fill="rgb(0,0,0)" stroke="none" paint-order="stroke fill markers" d=" M 0.20800000000000002 -0.194 L 0.20800000000000002 -0.194 Q 0.122 -0.211 0.095 -0.227 Q 0.085 -0.232 0.076 -0.24 Q 0.033 -0.275 0.033 -0.325 Q 0.033 -0.395 0.095 -0.427 Q 0.134 -0.448 0.193 -0.448 Q 0.249 -0.448 0.28700000000000003 -0.42 Q 0.298 -0.429 0.304 -0.436 Q 0.317 -0.448 0.324 -0.448 Q 0.334 -0.439 0.335 -0.424 L 0.335 -0.323 Q 0.335 -0.302 0.329 -0.3 L 0.328 -0.3 L 0.327 -0.299 L 0.322 -0.299 Q 0.311 -0.299 0.31 -0.308 Q 0.303 -0.40900000000000003 0.227 -0.426 Q 0.211 -0.429 0.193 -0.429 Q 0.099 -0.429 0.083 -0.371 Q 0.081 -0.362 0.081 -0.353 Q 0.081 -0.302 0.158 -0.281 Q 0.17300000000000001 -0.277 0.20400000000000001 -0.271 Q 0.276 -0.257 0.307 -0.232 Q 0.313 -0.228 0.318 -0.223 Q 0.36 -0.181 0.36 -0.128 Q 0.36 -0.043000000000000003 0.29 -0.008 Q 0.252 0.011 0.199 0.011 Q 0.134 0.011 0.089 -0.032 L 0.069 -0.009000000000000001 Q 0.049 0.011 0.044 0.011 Q 0.034 0.002 0.033 -0.013000000000000001 L 0.033 -0.145 Q 0.033 -0.167 0.04 -0.169 L 0.04 -0.169 L 0.041 -0.17 L 0.046 -0.17 Q 0.056 -0.17 0.059000000000000004 -0.159 Q 0.059000000000000004 -0.157 0.06 -0.153 Q 0.08600000000000001 -0.037 0.159 -0.016 Q 0.177 -0.011 0.199 -0.011 Q 0.289 -0.011 0.308 -0.074 Q 0.312 -0.08700000000000001 0.312 -0.10200000000000001 Q 0.312 -0.17500000000000002 0.20800000000000002 -0.194 Z"/></g></g><path fill="none" stroke="rgb(0,0,0)" paint-order="fill stroke markers" d=" M 430.99999999999955 168 L 480.9999999999995 168" stroke-opacity="0.6980392156862745" stroke-linecap="round" stroke-linejoin="round" stroke-miterlimit="10" stroke-width="1.5"/><path fill="rgb(0,153,255)" stroke="none" paint-order="stroke fill markers" d=" M 434.99999999999955 18.000000000000057 C 434.99999999999955 20.20913899932323 433.2091389993227 22.000000000000057 430.99999999999955 22.000000000000057 C 428.7908610006764 22.000000000000057 426.99999999999955 20.20913899932323 426.99999999999955 18.000000000000057 C 426.99999999999955 15.790861000676884 428.7908610006764 14.000000000000057 430.99999999999955 14.000000000000057 C 433.2091389993227 14.000000000000057 434.99999999999955 15.790861000676884 434.99999999999955 18.000000000000057 Z" fill-opacity="1"/><path fill="none" stroke="rgb(0,0,0)" paint-order="fill stroke markers" d=" M 434.99999999999955 18.000000000000057 C 434.99999999999955 20.20913899932323 433.2091389993227 22.000000000000057 430.99999999999955 22.000000000000057 C 428.7908610006764 22.000000000000057 426.99999999999955 20.20913899932323 426.99999999999955 18.000000000000057 C 426.99999999999955 15.790861000676884 428.7908610006764 14.000000000000057 430.99999999999955 14.000000000000057 C 433.2091389993227 14.000000000000057 434.99999999999955 15.790861000676884 434.99999999999955 18.000000000000057 Z" stroke-opacity="1" stroke-linecap="round" stroke-linejoin="round" stroke-miterlimit="10"/><g transform="scale(21,21)"><g transform="translate(21.523809523809526,1.2182545238095237)"><path fill="rgb(0,153,255)" stroke="none" paint-order="stroke fill markers" d=" M 0.367 -0.4 L 0.367 -0.4 L 0.307 -0.083 Q 0.298 -0.021 0.271 0.059000000000000004 Q 0.261 0.088 0.251 0.108 Q 0.216 0.182 0.164 0.2 Q 0.151 0.20500000000000002 0.138 0.20500000000000002 Q 0.088 0.20500000000000002 0.064 0.171 Q 0.053 0.156 0.053 0.136 Q 0.053 0.096 0.08700000000000001 0.081 Q 0.097 0.076 0.108 0.076 Q 0.137 0.076 0.14400000000000002 0.101 Q 0.145 0.106 0.145 0.111 Q 0.145 0.145 0.115 0.159 Q 0.10400000000000001 0.164 0.09 0.165 Q 0.109 0.183 0.138 0.183 Q 0.182 0.183 0.20700000000000002 0.085 Q 0.212 0.062 0.219 0.025 L 0.225 -0.005 L 0.3 -0.4 L 0.234 -0.4 Q 0.209 -0.4 0.20700000000000002 -0.40800000000000003 L 0.20600000000000002 -0.40800000000000003 L 0.20600000000000002 -0.41200000000000003 Q 0.20600000000000002 -0.429 0.223 -0.431 L 0.223 -0.431 L 0.23600000000000002 -0.431 L 0.305 -0.431 Q 0.329 -0.556 0.338 -0.588 Q 0.368 -0.6880000000000001 0.444 -0.7030000000000001 Q 0.455 -0.705 0.465 -0.705 Q 0.517 -0.705 0.541 -0.671 L 0.541 -0.671 Q 0.552 -0.656 0.552 -0.636 Q 0.552 -0.596 0.518 -0.581 Q 0.508 -0.5760000000000001 0.497 -0.5760000000000001 Q 0.468 -0.5760000000000001 0.461 -0.601 Q 0.46 -0.606 0.46 -0.611 Q 0.46 -0.642 0.488 -0.657 Q 0.499 -0.664 0.514 -0.665 Q 0.495 -0.683 0.465 -0.683 Q 0.434 -0.683 0.418 -0.649 Q 0.41100000000000003 -0.635 0.394 -0.545 L 0.373 -0.431 L 0.456 -0.431 Q 0.481 -0.431 0.483 -0.42 Q 0.483 -0.402 0.467 -0.4 L 0.466 -0.4 L 0.453 -0.4 L 0.367 -0.4 Z"/></g></g><path fill="rgb(255,51,102)" stroke="none" paint-order="stroke fill markers" d=" M 435.99999999999955 168 C 435.99999999999955 170.76142374915398 433.7614237491535 173 430.99999999999955 173 C 428.2385762508456 173 425.99999999999955 170.76142374915398 425.99999999999955 168 C 425.99999999999955 165.23857625084602 428.2385762508456 163 430.99999999999955 163 C 433.7614237491535 163 435.99999999999955 165.23857625084602 435.99999999999955 168 Z" fill-opacity="1"/><path fill="none" stroke="rgb(0,0,0)" paint-order="fill stroke markers" d=" M 435.99999999999955 168 C 435.99999999999955 170.76142374915398 433.7614237491535 173 430.99999999999955 173 C 428.2385762508456 173 425.99999999999955 170.76142374915398 425.99999999999955 168 C 425.99999999999955 165.23857625084602 428.2385762508456 163 430.99999999999955 163 C 433.7614237491535 163 435.99999999999955 165.23857625084602 435.99999999999955 168 Z" stroke-opacity="1" stroke-linecap="round" stroke-linejoin="round" stroke-miterlimit="10"/><g transform="scale(21,21)"><g transform="translate(18.952380952380953,8.262396823809524)"><path fill="rgb(255,51,102)" stroke="none" paint-order="stroke fill markers" d=" M 0.28700000000000003 -0.683 L 0.209 -0.365 Q 0.271 -0.442 0.357 -0.442 Q 0.446 -0.442 0.467 -0.373 L 0.467 -0.372 Q 0.47200000000000003 -0.355 0.47200000000000003 -0.335 Q 0.47200000000000003 -0.279 0.41100000000000003 -0.115 Q 0.393 -0.07100000000000001 0.393 -0.044 Q 0.393 -0.011 0.417 -0.011 Q 0.47900000000000004 -0.011 0.515 -0.121 L 0.519 -0.135 Q 0.524 -0.151 0.529 -0.152 L 0.529 -0.153 L 0.534 -0.153 Q 0.546 -0.153 0.546 -0.14300000000000002 Q 0.546 -0.126 0.525 -0.08 Q 0.482 0.011 0.41500000000000004 0.011 Q 0.364 0.011 0.342 -0.032 Q 0.333 -0.05 0.333 -0.07100000000000001 Q 0.333 -0.089 0.34600000000000003 -0.126 Q 0.40800000000000003 -0.28400000000000003 0.40800000000000003 -0.35000000000000003 Q 0.40800000000000003 -0.42 0.354 -0.42 Q 0.306 -0.42 0.258 -0.385 Q 0.221 -0.356 0.193 -0.299 L 0.19 -0.293 Q 0.186 -0.269 0.179 -0.248 Q 0.17400000000000002 -0.225 0.162 -0.181 L 0.14 -0.091 L 0.121 -0.015 Q 0.114 0.006 0.09 0.01 Q 0.08700000000000001 0.011 0.084 0.011 Q 0.06 0.011 0.056 -0.01 Q 0.055 -0.014 0.055 -0.017 Q 0.055 -0.025 0.059000000000000004 -0.039 L 0.20400000000000001 -0.615 L 0.20700000000000002 -0.635 Q 0.20700000000000002 -0.646 0.193 -0.649 L 0.193 -0.649 Q 0.181 -0.652 0.157 -0.652 Q 0.135 -0.652 0.133 -0.664 Q 0.133 -0.681 0.152 -0.684 L 0.274 -0.6940000000000001 Q 0.28700000000000003 -0.6940000000000001 0.28700000000000003 -0.683 Z"/></g><g transform="translate(19.528540452380952,7.849504823809524) scale(0.7,0.7)"><path fill="rgb(255,51,102)" stroke="none" paint-order="stroke fill markers" d=" M 0.261 -0.229 L 0.261 -0.229 L 0.275 -0.07100000000000001 Q 0.278 -0.034 0.249 -0.034 Q 0.231 -0.034 0.225 -0.05 Q 0.223 -0.055 0.224 -0.061 L 0.224 -0.066 L 0.23800000000000002 -0.23 L 0.112 -0.137 Q 0.1 -0.128 0.092 -0.128 Q 0.074 -0.128 0.067 -0.146 Q 0.065 -0.151 0.065 -0.156 Q 0.065 -0.17300000000000001 0.08600000000000001 -0.182 L 0.227 -0.25 L 0.08600000000000001 -0.317 Q 0.065 -0.326 0.065 -0.343 Q 0.065 -0.362 0.084 -0.369 Q 0.088 -0.371 0.092 -0.371 Q 0.098 -0.371 0.112 -0.361 L 0.23800000000000002 -0.269 L 0.224 -0.428 L 0.224 -0.439 Q 0.22 -0.455 0.23800000000000002 -0.462 L 0.23900000000000002 -0.463 L 0.24 -0.463 Q 0.245 -0.465 0.25 -0.465 Q 0.278 -0.465 0.275 -0.429 L 0.261 -0.269 L 0.387 -0.362 Q 0.399 -0.371 0.40700000000000003 -0.371 Q 0.425 -0.371 0.432 -0.353 Q 0.434 -0.34800000000000003 0.434 -0.343 Q 0.434 -0.326 0.41300000000000003 -0.317 L 0.271 -0.249 L 0.41600000000000004 -0.181 Q 0.434 -0.17200000000000001 0.434 -0.156 Q 0.434 -0.137 0.41500000000000004 -0.13 Q 0.41100000000000003 -0.128 0.40700000000000003 -0.128 Q 0.399 -0.128 0.37 -0.15 L 0.261 -0.229 Z"/></g></g></g></g></svg>