<?xml version="1.0" encoding="UTF-8"?>
<!DOCTYPE svg  PUBLIC '-//W3C//DTD SVG 1.1//EN'  'http://www.w3.org/Graphics/SVG/1.1/DTD/svg11.dtd'>
<!-- Created with matplotlib (https://matplotlib.org/) -->
<svg width="432pt" height="216pt" version="1.1" viewBox="0 0 432 216" xmlns="http://www.w3.org/2000/svg" xmlns:xlink="http://www.w3.org/1999/xlink">
 <defs>
  <style type="text/css">*{stroke-linecap:butt;stroke-linejoin:round;}</style>
 </defs>
 <g id="figure_1">
  <g id="patch_1">
   <path d="m0 216h432v-216h-432z" fill="#fff"/>
  </g>
  <g id="axes_1">
   <g id="patch_2">
    <path d="m0.432 194.4h195.97v-194.18h-195.97z" fill="#fff"/>
   </g>
   <g id="PathCollection_1">
    <defs>
     <path id="m37c2d035e2" d="m-2 2 4-4m-4 0 4 4" stroke="#00f" stroke-opacity=".8" stroke-width="1.5"/>
    </defs>
    <g clip-path="url(#pbb57ce222b)" fill="#0000ff" fill-opacity=".8" stroke="#0000ff" stroke-opacity=".8" stroke-width="1.5">
     <use x="135.36279" y="156.722507" xlink:href="#m37c2d035e2"/>
     <use x="71.110033" y="156.722507" xlink:href="#m37c2d035e2"/>
     <use x="167.489168" y="185.705194" xlink:href="#m37c2d035e2"/>
     <use x="145.000703" y="148.027701" xlink:href="#m37c2d035e2"/>
     <use x="74.322671" y="142.231164" xlink:href="#m37c2d035e2"/>
     <use x="189.977633" y="171.213851" xlink:href="#m37c2d035e2"/>
     <use x="183.552358" y="72.672716" xlink:href="#m37c2d035e2"/>
     <use x="13.282551" y="188.603463" xlink:href="#m37c2d035e2"/>
    </g>
   </g>
   <g id="PathCollection_2">
    <defs>
     <path id="mc54bff7a85" d="m0 2c0.53041 0 1.0392-0.21073 1.4142-0.58579 0.37505-0.37505 0.58579-0.88381 0.58579-1.4142s-0.21073-1.0392-0.58579-1.4142c-0.37505-0.37505-0.88381-0.58579-1.4142-0.58579s-1.0392 0.21073-1.4142 0.58579c-0.37505 0.37505-0.58579 0.88381-0.58579 1.4142s0.21073 1.0392 0.58579 1.4142c0.37505 0.37505 0.88381 0.58579 1.4142 0.58579z" stroke="#000" stroke-opacity=".8"/>
    </defs>
    <g clip-path="url(#pbb57ce222b)" fill="#ff0000" fill-opacity=".8" stroke="#000000" stroke-opacity=".8">
     <use x="38.983654" y="11.809075" xlink:href="#mc54bff7a85"/>
     <use x="6.857276" y="98.757134" xlink:href="#mc54bff7a85"/>
     <use x="103.236411" y="69.774448" xlink:href="#mc54bff7a85"/>
     <use x="48.621568" y="6.012537" xlink:href="#mc54bff7a85"/>
     <use x="6.857276" y="142.231164" xlink:href="#mc54bff7a85"/>
     <use x="170.701806" y="14.707343" xlink:href="#mc54bff7a85"/>
     <use x="112.874325" y="29.198687" xlink:href="#mc54bff7a85"/>
    </g>
   </g>
   <g id="matplotlib.axis_1">
    <g id="text_1">
     <!-- 上帝函数 $f$ -->
     <defs>
      <path id="SimHei-19978" d="m41.797 77.344h8.9844q-0.39062-6.25-0.39062-12.109v-14.453h20.703q7.4219 0 14.453 0.39062v-7.8125q-7.8125 0.39062-14.062 0.39062h-21.094v-41.016h30.469q5.4688 0 13.281 0.39062v-7.8125q-7.4219 0.39062-13.281 0.39062h-60.938q-5.8594 0-13.672-0.39062v7.8125q7.4219-0.39062 13.672-0.39062h22.266v62.109q0 5.8594-0.39062 12.5z"/>
      <path id="SimHei-24093" d="m75 70.312q8.5938 0 14.453 0.39062v-7.0312q-5.8594 0.39062-14.453 0.39062h-52.344q-6.25 0-11.328-0.39062v7.0312q5.8594-0.39062 12.109-0.39062h24.219q-1.1719 5.0781-2.3438 8.5938 7.0312 1.1719 9.375 1.9531 1.1719-5.0781 2.3438-10.547zm-45.703-11.328q6.6406 2.3438 8.5938 3.125 3.5156-7.0312 4.6875-9.7656-2.3438-0.78125-8.5938-2.7344-0.78125 1.5625-4.6875 9.375zm27.344-10.156q4.2969 8.5938 5.8594 14.844 1.5625-1.1719 8.5938-4.2969-4.6875-6.6406-6.6406-10.547h27.734q-0.39062-3.125-0.39062-7.625 0-4.4844 0.39062-8.7812h-7.8125v10.156h-66.797v-10.156h-8.2031q0.39062 5.4688 0.39062 8.2031t-0.39062 8.2031zm-10.156-18.75q0 3.9062-0.39062 8.9844h8.2031q-0.39062-4.6875-0.39062-8.9844h28.125q-0.39062-5.0781-0.39062-10.547v-10.547q0-7.0312-3.7188-8.5938-3.7031-1.5625-11.125-3.125-1.1719 4.6875-3.125 8.9844 6.25 0 8.3906 0.57812 2.1562 0.59375 2.1562 5.2812v11.719h-20.312v-19.922q0-6.6406 0.39062-13.281h-8.2031q0.39062 6.25 0.39062 13.281v19.922h-17.969v-23.438h-8.2031q0.39062 4.6875 0.39062 14.453t-0.39062 15.234z"/>
      <path id="SimHei-20989" d="m16.016 72.656q7.0312-0.39062 13.672-0.39062h53.906v-7.8125q-6.25-1.5625-15.625-5.4688t-14.453-6.6406v-36.328q0-7.0312-4.2969-8.2031t-10.547-2.3438q-0.78125 4.2969-2.7344 8.9844 6.25-0.39062 8.2031 0.39062t1.9531 5.0781v25.781q0 7.0312-0.78125 11.328 5.4688 1.5625 12.297 4.2969 6.8438 2.7344 9.9688 4.6875h-37.891q-7.8125 0-13.672-0.39062zm24.219-29.297q-2.3438-2.7344-4.6875-5.4688-2.7344 3.125-5.6719 5.8594-2.9219 2.7344-6.8281 5.8594 2.3438 2.7344 4.2969 5.4688 3.5156-3.125 6.8281-6.25 3.3281-3.125 6.0625-5.4688zm-1.1719-10.547q0.78125-3.125 2.3438-6.6406-3.5156-2.3438-7.625-5.0781-4.0938-2.7344-9.1719-7.0312-1.9531 3.125-4.6875 7.0312 5.4688 2.7344 10.156 5.4688t8.9844 6.25zm31.641 20.312q2.7344-3.125 5.8594-5.8594-2.7344-1.1719-6.6406-3.9062t-8.2031-5.8594q-2.3438 2.7344-4.6875 5.0781 4.2969 2.7344 7.2188 4.875 2.9375 2.1562 6.4531 5.6719zm-14.844-26.172q2.7344 2.7344 5.0781 5.0781 3.125-2.3438 7.0312-5.4688t8.2031-7.0312q-2.7344-2.7344-5.4688-6.25-3.5156 3.9062-6.4531 6.6406-2.9219 2.7344-8.3906 7.0312zm-36.719 18.75q-0.78125-4.2969-0.78125-8.9844v-33.984h61.719v30.078q0 5.8594-0.78125 11.328h8.2031q-0.39062-7.0312-0.39062-11.328v-32.422q0-5.0781 0.39062-10.156h-7.4219v5.8594h-69.922q0.78125 4.2969 0.78125 24.219t-0.39062 25.391z"/>
      <path id="SimHei-25968" d="m10.938 75.781q3.9062 1.1719 6.25 2.7344 3.125-5.0781 5.8594-10.156-3.5156-1.5625-6.25-3.125-2.3438 5.8594-5.8594 10.547zm33.984 2.7344q4.2969-1.9531 8.2031-3.5156-2.3438-1.5625-3.9062-4.2969t-3.5156-6.25q-3.125 1.5625-6.25 2.3438 3.125 5.0781 5.4688 11.719zm-6.6406-28.906q3.5156 1.5625 5.8594 3.9062 4.6875-6.6406 7.8125-12.109-3.5156-1.5625-6.6406-3.9062-3.125 7.4219-7.0312 12.109zm-30.078 12.109q6.25-0.39062 19.922-0.39062 0 11.328-0.39062 19.531h7.8125q-0.39062-8.2031-0.39062-19.531 12.891 0 18.75 0.39062v-7.0312q-5.8594 0.39062-18.75 0.39062 0-8.9844 0.39062-15.625h-7.8125q0.39062 5.8594 0.39062 12.5-1.9531-3.9062-6.4531-8.4062-4.4844-4.4844-9.9531-7.6094-1.5625 3.5156-5.0781 5.8594 3.5156 1.1719 8.7812 5.0781 5.2812 3.9062 7.625 8.2031-8.2031 0-14.844-0.39062zm18.75-37.5q-1.9531-3.9062-4.2969-7.8125 4.6875-1.1719 12.5-3.125 2.7344 3.5156 5.0781 10.938zm-2.7344 14.062q4.2969-1.5625 8.5938-2.7344-1.5625-1.5625-3.5156-5.0781h15.234 4.2969q-2.3438-10.156-6.6406-19.141 6.6406-1.9531 10.547-3.125-3.125-4.2969-4.6875-7.8125-3.5156 2.3438-10.547 5.0781-9.375-9.375-28.125-15.625-1.5625 3.9062-4.6875 6.25 16.797 3.9062 26.562 12.109-10.938 2.7344-17.969 4.6875 2.3438 3.125 6.25 11.328-6.25 0-14.844-0.39062v7.0312q7.4219-0.39062 17.188-0.39062 1.1719 3.125 2.3438 7.8125zm39.453 42.188q4.6875-1.9531 9.7656-2.7344-1.9531-2.3438-2.9375-5.4688-0.96875-3.125-2.5312-8.9844h17.578q3.5156 0 8.9844 0.39062v-7.0312q-4.2969 0.39062-7.0312 0.39062-0.39062-8.2031-1.9531-21.688-1.5625-13.469-7.4219-23.625 3.9062-5.4688 8.9844-8.9844t8.9844-5.0781q-5.4688-3.5156-7.0312-7.0312-6.6406 4.6875-9.7656 8.0156-3.125 3.3125-5.8594 7.2188-4.6875-4.6875-8.7969-7.8125-4.0938-3.125-13.078-8.2031-1.9531 3.5156-6.25 6.25 7.4219 2.7344 13.672 7.0312t10.547 8.9844q-4.2969 8.5938-6.6406 16.984-2.3438 8.4062-2.7344 11.922-0.78125-2.7344-1.9531-6.25-3.5156 1.5625-7.8125 3.125 4.6875 8.5938 8.5938 20.703t4.6875 21.875zm2.7344-23.438q-1.5625-3.9062-2.3438-6.4531-0.78125-2.5312 2.9219-13.859 3.7188-11.328 7.2344-17.578 3.5156 9.375 4.875 19.531 1.375 10.156 1.375 18.359z"/>
      <path id="STIXGeneral-Italic-102" d="m4.0938 42.797h9.3125q3.8906 12.609 7.1875 17.297 5.4062 7.7031 13.203 7.7031 3.7031 0 6.1562-1.75t2.4531-4.4531q0-1.6875-1.25-3-1.25-1.2969-2.9531-1.2969-1.4062 0-2.5625 1.0938-1.1406 1.1094-1.1406 2.8125 0 1 0.5 1.8906 0.5 0.90625 0.5 1.2031 0 1.2969-2.2031 1.2969-4.2031 0-7.1094-5.4531-2.8906-5.4375-5.0938-17.344h10.703l-0.59375-3.2031h-10.797l-7.2031-32q-6.4062-28.297-20-28.297-3.4062 0-5.6562 1.75t-2.25 4.3594q0 1.6875 1.1094 2.9375 1.0938 1.25 2.6875 1.25 1.7031 0 2.7656-1.0469 1.0469-1.0469 1.0469-2.6406 0-0.70312-0.45312-1.5469-0.45312-0.85938-0.45312-1.3594 0-1.5938 2-1.5938 6.2031 0 9.7031 16.188l8.7969 42h-9.0938z"/>
     </defs>
     <g transform="translate(69.737 208.12) scale(.12 -.12)">
      <use transform="translate(0 .14062)" xlink:href="#SimHei-19978"/>
      <use transform="translate(100 .14062)" xlink:href="#SimHei-24093"/>
      <use transform="translate(200 .14062)" xlink:href="#SimHei-20989"/>
      <use transform="translate(300 .14062)" xlink:href="#SimHei-25968"/>
      <use transform="translate(400 .14062)" xlink:href="#SimHei-32"/>
      <use transform="translate(450 .14062)" xlink:href="#STIXGeneral-Italic-102"/>
     </g>
    </g>
   </g>
   <g id="LineCollection_1">
    <path d="m196.08 27.221-2.5701-0.95025-2.5701-0.72392-2.5701-0.50382-2.5701-0.28995-2.5701-0.082313-2.5701 0.11909-2.8914 0.36696-2.8914 0.6051-2.8914 0.83436-3.1335 1.153-2.9705 1.3214-3.2126 1.6686-3.2628 1.9371-3.4838 2.3232-3.8552 2.8599-3.9476 3.2219-4.084 3.6212-4.4977 4.298-4.819 4.9285-5.2481 5.7011-5.6749 6.4962-6.7465 8.081-8.3529 10.383-28.606 35.903-6.4214 7.5355-5.7731 6.435-5.1881 5.4479-4.7711 4.6847-4.4977 4.0936-4.1764 3.4911-3.8552 2.9338-3.6096 2.4763-3.4582 2.1111-3.2126 1.7181-3.2126 1.4716-3.2126 1.213-2.8914 0.86048-2.8914 0.63224-2.9289 0.39851-2.8538 0.14578-2.5701-0.081096-2.5701-0.2887-2.5701-0.50253-2.5701-0.72259-2.5701-0.94889-2.5701-1.1814-1.2851-0.67986" clip-path="url(#pbb57ce222b)" fill="none" stroke="#000" stroke-dasharray="5.55,2.4" stroke-width="1.5"/>
   </g>
   <g id="patch_3">
    <path d="m0.432 194.4v-194.18" fill="none" stroke="#000" stroke-linecap="square" stroke-width=".8"/>
   </g>
   <g id="patch_4">
    <path d="m196.4 194.4v-194.18" fill="none" stroke="#000" stroke-linecap="square" stroke-width=".8"/>
   </g>
   <g id="patch_5">
    <path d="m0.432 194.4h195.97" fill="none" stroke="#000" stroke-linecap="square" stroke-width=".8"/>
   </g>
   <g id="patch_6">
    <path d="m0.432 0.216h195.97" fill="none" stroke="#000" stroke-linecap="square" stroke-width=".8"/>
   </g>
  </g>
  <g id="axes_2">
   <g id="patch_7">
    <path d="m235.6 194.4h195.97v-194.18h-195.97z" fill="#fff"/>
   </g>
   <g id="PathCollection_3">
    <g clip-path="url(#pa485aeeab1)" fill="#0000ff" fill-opacity=".8" stroke="#0000ff" stroke-opacity=".8" stroke-width="1.5">
     <use x="370.527881" y="156.722507" xlink:href="#m37c2d035e2"/>
     <use x="306.275124" y="156.722507" xlink:href="#m37c2d035e2"/>
     <use x="402.654259" y="185.705194" xlink:href="#m37c2d035e2"/>
    </g>
   </g>
   <g id="PathCollection_4">
    <g clip-path="url(#pa485aeeab1)" fill="#ff0000" fill-opacity=".8" stroke="#000000" stroke-opacity=".8">
     <use x="274.148745" y="11.809075" xlink:href="#mc54bff7a85"/>
     <use x="242.022367" y="98.757134" xlink:href="#mc54bff7a85"/>
     <use x="338.401502" y="69.774448" xlink:href="#mc54bff7a85"/>
    </g>
   </g>
   <g id="matplotlib.axis_3">
    <g id="text_2">
     <!-- 感知机模型挑选出来的$g$ -->
     <defs>
      <path id="SimHei-24863" d="m26.172 44.141h26.953v-20.703h-26.953zm55.859 31.641q-2.3438-2.3438-4.6875-5.4688-2.3438 1.9531-7.8125 6.6406 1.5625 2.7344 3.9062 5.0781 1.9531-1.1719 8.5938-6.25zm5.8594-43.75q3.5156-3.125 7.4219-4.6875-3.5156-10.156-8.5938-11.531-5.0781-1.3594-16.797 9.1875-4.6875-5.0781-9.7656-8.9844-2.7344 3.5156-6.25 5.4688 7.4219 3.9062 11.719 9.7656-3.9062 7.0312-5.8594 14.844t-3.125 17.578h-34.375q0-18.75-0.59375-25.203-0.57812-6.4375-2.5312-12.109-1.9531-5.6562-5.8594-12.297-4.2969 3.5156-7.8125 4.6875 5.0781 5.4688 7.0312 11.328t2.3438 13.672 0 25.781h41.016q0 3.5156-0.39062 11.719 3.9062-0.78125 8.2031-1.1719-0.78125-4.6875-0.39062-10.547h17.188q5.4688 0 12.5 0.39062v-6.6406q-7.0312 0.39062-12.109 0.39062h-17.188q1.5625-17.578 6.6406-25.781 2.3438 3.9062 4.2969 9.7656t2.7344 10.938q4.2969-1.5625 8.9844-2.7344-1.9531-1.5625-4.2969-8.4062-2.3438-6.8281-7.4219-16.594 8.5938-8.5938 10.344-6.4531 1.7656 2.1562 2.9375 7.625zm-61.328 24.609h26.172v-5.4688h-26.172zm6.25-17.969v-9.7656h13.672v9.7656zm-14.844-45.312q-3.5156 1.9531-6.6406 3.125 2.7344 4.2969 7.4219 17.188 2.7344-1.1719 6.6406-2.7344-4.6875-11.719-7.4219-17.578zm48.438 13.672q3.125-1.5625 7.4219-3.5156-3.125-7.8125-4.8906-9.1719-1.75-1.375-4.0938-1.375h-27.344q-5.8594 0-6.4531 3.3281-0.57812 3.3125-0.57812 8.1875 0 4.8906-0.39062 9.1875h7.8125q-0.39062-5.0781-0.39062-7.625 0-2.5312 0.1875-4.875 0.20312-2.3438 4.8906-2.3438h18.359q2.3438 0 3.3125 1.3594 0.98438 1.375 2.1562 6.8438zm-15.625-3.5156q-1.1719 3.125-4.6875 11.328 2.7344 1.1719 6.6406 2.3438 3.5156-8.2031 4.6875-10.938-3.5156-0.78125-6.6406-2.7344zm24.219 6.25q2.3438 1.9531 5.0781 4.2969 8.2031-10.156 10.938-13.672-3.125-1.9531-5.8594-4.2969-3.9062 6.6406-10.156 13.672z"/>
      <path id="SimHei-30693" d="m16.016-10.156q-2.7344 3.9062-8.2031 5.4688 5.4688 3.9062 9.5625 9.9531 4.1094 6.0625 6.8438 12.5 2.7344 6.4531 3.5156 12.703-13.672 0-19.531-0.39062v7.4219q5.4688-0.39062 20.703-0.39062 0.78125 8.2031 0.78125 20.312h-7.8125q-1.9531-5.8594-5.8594-13.281-4.2969 1.9531-8.5938 3.125 2.7344 3.5156 5.6562 9.7656 2.9375 6.25 4.5 12.297 1.5625 6.0625 1.9531 10.359 5.0781-1.1719 10.156-1.9531-1.9531-2.3438-3.125-6.0625-1.1719-3.7031-2.3438-8 20.703 0 26.172 0.39062v-7.0312q-6.6406 0.39062-12.891 0.39062 0-8.9844-0.78125-20.312 8.9844 0 15.625 0.39062v-7.4219q-6.6406 0.39062-16.406 0.39062-0.78125-3.9062-1.5625-7.4219 3.5156-2.7344 7.6094-6.0625 4.1094-3.3125 11.531-10.734-3.9062-2.3438-7.0312-6.6406-3.5156 5.8594-7.2344 9.5625-3.7031 3.7188-7.2188 6.8438-2.7344-7.0312-6.8438-13.672-4.0938-6.6406-9.1719-12.5zm39.844 77.734h35.547q-0.39062-7.4219-0.39062-14.062v-40.625q0-7.4219 0.39062-15.234h-8.2031v10.547h-19.141v-13.281h-8.2031q0.39062 8.5938 0.39062 16.797v41.797q0 6.6406-0.39062 14.062zm8.2031-6.25v-46.875h19.141v46.875z"/>
      <path id="SimHei-26426" d="m28.125 37.891q2.3438 1.9531 5.4688 4.2969 6.25-8.5938 9.375-13.281-2.7344-2.3438-6.6406-5.0781-2.3438 5.0781-8.2031 13.672v-28.516q0-7.8125 0.39062-17.578h-8.2031q0.39062 9.7656 0.39062 17.578v25q-1.9531-5.8594-4.2969-11.141-2.3438-5.2656-6.6406-11.906-3.5156 3.9062-6.25 6.25 3.125 3.5156 8.2031 13.672t7.8125 22.656h-2.3438q-5.4688 0-10.938-0.78125v7.4219q5.4688-0.39062 10.547-0.39062h3.9062v7.8125q0 6.25-0.39062 11.719h8.5938q-0.78125-3.9062-0.78125-11.719v-7.8125h4.2969q4.2969 0 9.7656 0.39062v-7.0312q-8.5938 0.39062-14.062 0.39062zm21.484 36.328h30.469q-0.39062-10.938-0.39062-18.75v-50.781q0-5.0781 1.5625-5.4688t3.3125-0.1875q1.7656 0.1875 2.3438 2.7188 0.59375 2.5469 0.59375 7.625 3.125-1.9531 7.8125-3.125-1.5625-8.2031-3.5156-10.938t-5.0781-2.9219q-3.125-0.20312-7.0312 0-3.9062 0.1875-5.8594 2.3438-1.9531 2.1406-1.5625 8.7812v64.062h-14.844q0-22.266-0.59375-34.578-0.57812-12.297-3.5156-22.266-2.9219-9.9531-11.516-20.109-1.9531 2.3438-7.0312 6.25 5.4688 4.2969 8.7812 10.547 3.3281 6.25 4.5 12.891t1.5625 14.062 0.39062 18.938q0 11.531-0.39062 20.906z"/>
      <path id="SimHei-27169" d="m39.844 29.297q-3.5156-1.9531-5.8594-3.9062-2.3438 5.0781-7.8125 13.672v-34.766q0-9.375 0.39062-13.281h-7.8125q0.39062 4.2969 0.39062 12.5v30.859q-1.1719-3.5156-3.7188-8.0156-2.5312-4.4844-5.6562-10.344-2.3438 3.5156-6.25 5.8594 6.25 6.25 10.156 15.625t5.0781 15.625h-3.5156q-3.9062 0-8.5938-0.39062v6.6406q4.2969-0.39062 6.6406-0.39062t5.8594 0v8.5938q0 6.6406-0.39062 12.5h7.8125q-0.39062-5.0781-0.39062-11.328v-9.7656q6.25 0 10.938 0.39062v-6.6406q-5.0781 0.39062-10.938 0.39062v-13.281q2.7344 1.5625 5.0781 3.5156 2.7344-3.9062 4.875-7.625 2.1562-3.7031 3.7188-6.4375zm-1.1719-39.844q-1.9531 3.9062-5.4688 6.6406 10.156 1.9531 16.797 5.6562 6.6406 3.7188 8.9844 9.5781h-7.0312q-8.2031 0-14.453-0.39062v6.25q6.25-0.39062 14.844-0.39062h8.2031q0.78125 4.2969 0.78125 8.2031h-18.359q0.39062 5.4688 0.39062 15.422 0 9.9688-0.39062 15.047h10.156v8.9844h-3.125q-7.4219 0-11.719-0.39062v6.25q4.2969-0.39062 11.328-0.39062h3.5156q0 6.25-0.39062 9.7656h7.4219q-0.39062-3.5156-0.39062-9.7656h11.719q0 6.25-0.39062 9.7656h7.4219q-0.39062-4.2969-0.39062-9.7656h5.8594q4.2969 0 8.9844 0.39062v-6.25q-4.6875 0.39062-8.9844 0.39062h-5.8594v-8.9844h10.547q-0.39062-4.2969-0.39062-14.844t0.39062-15.625h-20.312q-0.39062-4.2969-0.78125-8.2031h13.672q8.2031 0 12.5 0.39062v-6.25q-4.6875 0.39062-12.5 0.39062h-7.8125q5.4688-7.4219 10.938-10.156t11.719-4.2969q-3.5156-2.7344-5.4688-6.6406-8.9844 3.5156-15.047 9.1875-6.0469 5.6562-8.3906 10.734h-1.1719q-3.5156-7.8125-10.75-12.5-7.2188-4.6875-16.594-8.2031zm21.094 75v-8.9844h11.719v8.9844zm-9.7656-14.453v-7.0312h32.031v7.0312zm0-12.5v-7.0312h32.031v7.0312z"/>
      <path id="SimHei-22411" d="m17.578 18.75q6.6406-0.39062 14.453-0.39062h15.234q0 3.5156-0.39062 8.5938h7.8125q-0.39062-5.0781-0.39062-8.5938h16.797q6.6406 0 12.5 0.39062v-6.6406q-5.8594 0.39062-12.5 0.39062h-16.797v-12.5h27.734q7.0312 0 12.891 0.39062v-6.6406q-5.4688 0.39062-12.5 0.39062h-62.109q-7.4219 0-13.281-0.39062v6.6406q5.8594-0.39062 13.281-0.39062h26.953v12.5h-15.234q-7.8125 0-14.453-0.39062zm29.297 22.266q0-6.6406 0.39062-11.719h-7.4219q0.39062 6.6406 0.39062 12.109v4.6875h-12.891q-1.5625-9.375-6.0625-14.656-4.4844-5.2656-9.9531-9.1719-2.7344 3.125-6.6406 5.4688 7.4219 4.2969 10.734 8.2031 3.3281 3.9062 4.5 10.156-7.4219 0-14.062-0.39062v6.6406q7.0312-0.39062 14.844-0.39062 0.39062 8.2031 0.39062 16.016-5.4688 0-11.328-0.39062v6.6406q5.8594-0.39062 12.891-0.39062h22.656q4.2969 0 10.156 0.39062v-6.6406q-5.0781 0.39062-8.5938 0.39062v-16.016q5.4688 0 10.938 0.39062v-6.6406q-5.4688 0.39062-10.938 0.39062zm-18.75 26.953q-0.39062-10.938-0.39062-16.016h12.5v16.016zm34.375 4.2969h7.4219q-0.39062-4.6875-0.39062-11.719v-11.719q0-5.4688 0.39062-11.328h-7.4219q0.39062 5.8594 0.39062 11.328v11.719q0 7.0312-0.39062 11.719zm17.969 6.6406h7.4219q-0.39062-6.25-0.39062-13.281v-28.516q0.39062-6.6406-2.1562-9.375-2.5312-2.7344-10.734-3.9062-1.5625 3.9062-3.5156 7.8125 7.8125-0.39062 8.7812 1.1719 0.98438 1.5625 0.98438 6.25v26.562q0 7.0312-0.39062 13.281z"/>
      <path id="SimHei-25361" d="m7.0312 58.984q5.0781-0.39062 10.938-0.39062 0 15.234-0.39062 20.703h8.2031q-0.78125-5.0781-0.78125-20.703 3.9062 0 8.5938 0.39062v-7.0312q-4.6875 0.39062-8.5938 0.39062v-17.188q6.25 2.3438 10.156 3.9062-0.39062-3.5156 0.39062-6.6406-3.5156-0.78125-10.547-3.9062v-29.297q0.39062-3.9062-3.125-5.6562-3.5156-1.7656-10.156-2.9375-0.39062 4.6875-2.7344 8.9844 8.5938-0.78125 8.9844 1.9531v24.609q-7.0312-2.7344-10.547-5.0781-1.1719 4.6875-3.125 8.2031 5.0781 0.78125 13.672 3.9062v19.141q-6.25 0-10.938-0.39062zm27.734 3.125q3.5156 1.1719 7.0312 2.7344 3.5156-8.9844 7.0312-19.531-3.5156-1.1719-7.4219-3.125-1.5625 8.5938-6.6406 19.922zm49.609 4.6875q4.2969-1.9531 7.8125-2.7344-3.5156-4.6875-6.0625-9.9688-2.5312-5.2656-4.0938-9.1719-3.9062 1.9531-7.0312 2.7344 3.5156 4.6875 5.8594 9.9531 2.3438 5.2812 3.5156 9.1875zm-33.984 12.109q5.0781-0.78125 8.2031-1.1719-1.1719-7.4219-0.98438-28.328 0.20312-20.891-0.57812-29.094t-5.4688-16.016-14.844-14.453q-1.9531 3.5156-6.25 5.8594 9.7656 4.6875 15.031 12.688 5.2812 8.0156 5.2812 18.953-10.547-6.25-12.891-9.375-2.7344 4.6875-5.8594 7.0312 5.4688 1.5625 18.75 8.9844v30.078q0 10.156-0.39062 14.844zm15.625 0h7.8125q-0.39062-5.0781-0.39062-13.672v-27.734q11.328-7.4219 17.578-13.281-3.5156-2.7344-5.4688-5.8594-2.7344 3.9062-12.109 11.328v-25q0-3.9062 2.3438-4.2969t4.6875-0.39062 3.7031 0.39062q1.375 0.39062 2.1562 2.9219 0.78125 2.5469 1.1719 7.2344 4.6875-3.125 7.8125-3.9062-2.3438-9.375-5.8594-11.125-3.5156-1.7656-10.359-1.9531-6.8281-0.20312-9.9531 1.3594t-2.7344 7.4219v63.281q0 8.5938-0.39062 13.281z"/>
      <path id="SimHei-36873" d="m41.406 77.734q4.2969-1.1719 9.375-2.3438-2.7344-4.2969-4.6875-10.156h13.281q0 8.5938-0.39062 15.234h8.5938q-0.78125-5.4688-0.78125-15.234 13.281 0.39062 19.141 0.39062v-7.0312q-5.8594 0.39062-19.141 0.39062v-13.672h13.672q5.0781 0 10.938 0.39062v-6.6406q-5.8594 0.39062-18.359 0.39062v-22.266q0-4.2969 4.6875-4.2969h4.6875q2.7344 1.5625 3.125 9.375 3.5156-1.5625 8.2031-2.7344-2.3438-13.672-8.2031-13.672h-10.938q-8.9844 0-8.9844 7.8125v25.781h-7.8125q-1.5625-12.109-5.4688-20.312t-11.328-15.625q-3.5156 2.7344-8.2031 5.0781 8.9844 5.8594 12.891 13.469 3.9062 7.625 4.6875 17.391-12.109 0-17.578-0.39062v7.0312q5.8594-0.78125 10.938-0.78125h15.625v13.672h-15.234q-1.9531-4.2969-3.5156-8.5938-3.9062 1.5625-7.4219 2.7344 5.4688 10.156 8.2031 24.609zm-28.906-5.0781q3.125 1.5625 7.4219 2.7344 5.0781-12.109 7.4219-17.969-3.9062-1.1719-7.4219-2.7344-1.5625 4.6875-7.4219 17.969zm-7.0312-28.125q7.4219-0.78125 20.312-0.78125-0.39062-8.2031-0.39062-14.844v-22.266q10.547-8.5938 33.594-8.5938t37.109 2.3438q-1.9531-2.3438-3.9062-9.375-25 0.39062-35.547 0.39062t-17.781 2.3438q-7.2188 2.3438-11.906 5.2812-4.6875 2.9219-7.8125-0.39062-3.125-3.3281-6.6406-8.4062-2.7344 3.125-6.25 5.4688 3.5156 4.2969 11.328 10.938l0.39062 30.859q-5.4688 0-12.5-0.39062z"/>
      <path id="SimHei-20986" d="m16.797 71.484h8.2031q-0.39062-5.0781-0.39062-9.375v-16.406h21.094v23.828q-0.39062 5.4688-0.78125 10.938h8.5938q-0.39062-4.6875-0.39062-10.938v-23.828h22.656v15.234q0 6.25-0.39062 10.156h8.5938q-0.78125-3.9062-0.78125-10.547v-10.547q0-6.25 0.39062-10.938h-30.469v-35.156h24.609v16.406q0 5.8594-0.39062 10.156h8.5938q-0.78125-4.2969-0.78125-9.7656v-17.578q0-7.8125 0.78125-12.891h-8.2031v7.0312h-64.453q0.39062 4.6875 0.39062 11.328v11.719q0 6.6406-0.39062 10.547h8.2031q-0.39062-3.9062-0.39062-10.547v-16.406h24.609v35.156h-28.906q0.39062 4.6875 0.39062 10.547v12.109q0 5.0781-0.39062 9.7656z"/>
      <path id="SimHei-26469" d="m45.703 72.656q-0.78125 4.6875-0.78125 8.2031h8.9844q-0.39062-3.9062-0.39062-8.5938v-4.6875h23.438q4.2969 0 9.7656 0.39062v-7.8125q-5.4688 0.78125-9.7656 0.78125h-23.438v-23.438h26.953q5.4688 0 12.891 0.39062v-7.4219q-7.0312 0.39062-12.891 0.39062h-20.312q2.7344-3.9062 6.4375-7.625 3.7188-3.7031 8.4062-7.0312 4.6875-3.3125 9.9531-5.8594 5.2812-2.5312 10.359-3.7031-3.5156-3.5156-4.8906-5.4688-1.3594-1.9531-1.75-3.5156-7.8125 3.5156-13.281 7.4219t-9.7656 8.2031-7.4219 8.3906q-3.125 4.1094-4.6875 7.625v-23.047q0-6.25 0.39062-14.844h-8.9844q0.78125 8.5938 0.78125 14.844v23.828q-8.2031-13.281-17.188-21.484t-16.016-12.5q-2.3438 3.5156-7.0312 7.0312 13.672 6.6406 22.266 15.625t10.156 12.109h-19.922q-4.6875 0-11.328-0.78125v7.8125q6.6406-0.39062 11.328-0.39062h27.734v23.438h-22.266q-6.25 0-10.938-0.78125v7.8125q4.6875-0.39062 10.547-0.39062h22.656zm-25.781-20.703q2.7344 1.9531 5.8594 4.2969 2.3438-3.125 4.0938-5.8594 1.7656-2.7344 4.5-6.25-3.5156-1.9531-6.25-4.2969-2.3438 3.5156-4.5 6.4375-2.1406 2.9375-3.7031 5.6719zm50.391 6.25q3.5156-1.5625 7.4219-3.9062-2.3438-2.3438-4.2969-6.0625-1.9531-3.7031-4.2969-8-3.9062 1.1719-7.0312 2.3438 2.3438 3.5156 4.6875 8 2.3438 4.5 3.5156 7.625z"/>
      <path id="SimHei-30340" d="m23.828 79.688q5.0781-1.1719 10.547-2.7344-1.5625-2.3438-2.7344-6.8438-1.1719-4.4844-1.9531-8h16.797q-0.39062-7.0312-0.39062-16.797v-34.375q0-6.25 0.39062-14.453h-7.4219v8.2031h-20.312v-8.9844h-7.4219q0.39062 9.7656 0.39062 14.453v34.766q0 10.156-0.39062 17.188h10.938q0.39062 3.9062 0.78125 7.6094 0.39062 3.7188 0.78125 9.9688zm-5.0781-24.609v-17.188h20.312v17.188zm0-24.609v-18.359h20.312v18.359zm72.656 30.859q-0.78125-7.4219-1.1719-14.453l-2.7344-44.141q-1.1719-7.0312-7.0312-8.9844t-12.5-2.3438q0 4.2969-2.7344 8.9844 6.6406-0.39062 10.547 0.1875 3.9062 0.59375 4.6875 4.8906l3.125 48.828h-20.703q-3.125-6.6406-7.4219-14.844-3.125 2.3438-6.6406 3.9062 2.3438 3.5156 5.2656 9.7656 2.9375 6.25 5.0781 13.469 2.1562 7.2344 2.9375 11.922 5.0781-2.3438 9.7656-3.5156-1.9531-3.125-3.5156-6.4531-1.5625-3.3125-2.7344-7.2188zm-34.375-25.391q2.7344 1.5625 6.6406 3.9062 1.9531-3.5156 3.9062-7.8125t4.2969-10.547q-3.125-1.1719-7.0312-3.5156-1.1719 4.2969-3.3281 9.375-2.1406 5.0781-4.4844 8.5938z"/>
      <path id="STIXGeneral-Italic-103" d="m47.094 36.594h-4.8906q0.89062-1.7969 0.89062-5.0938 0-6.2969-5.75-11.359-5.75-5.0469-12.75-5.0469-1.7969 0-3.0938 0.3125-0.29688 0.09375-0.70312 0.09375-1.2969 0-2.4531-1.2969-1.1406-1.2969-1.1406-2.7969 0-2.4062 7.0938-4.2031 14.203-3.4062 14.203-12.703 0-6.7031-5.6094-10.891-5.5938-4.2031-15.391-4.2031-7.7969 0-12.25 2.75t-4.4531 8.0469q0 3.8906 2.25 6.6406t9.4531 7.0625q-2.7031 1.5938-2.7031 3.8906 0 4.7969 7.7031 8.4062-7.9062 2.7969-7.9062 10.797 0 7.4062 6.0938 12.25 6.1094 4.8438 14.016 4.8438 5.7969 0 9.7969-2.7969 1.0938-0.79688 1.5938-0.79688h6zm-11.891-1.7969q0 3.9062-1.3594 5.5-1.3438 1.6094-4.25 1.6094-4.7969 0-8.5-5-3.6875-5-3.6875-12.203 0-3.5 1.5938-5.5t4.4062-2q5 0 8.5 5.8906 3.2969 5.6094 3.2969 11.703zm-2.7031-43.797q0 3.5-3.1562 5.8594-3.1406 2.3438-11.141 4.8438-2.4062 0.70312-3.4062 1.0938-0.70312 0-3.0469-1.9062-2.3438-1.8906-3.4531-3.2969-2-2.5-2-5.7969 0-10.203 12.703-10.203 5.9062 0 9.7031 2.75t3.7969 6.6562z"/>
     </defs>
     <g transform="translate(270.58 208.36) scale(.12 -.12)">
      <use transform="translate(0 .96875)" xlink:href="#SimHei-24863"/>
      <use transform="translate(100 .96875)" xlink:href="#SimHei-30693"/>
      <use transform="translate(200 .96875)" xlink:href="#SimHei-26426"/>
      <use transform="translate(300 .96875)" xlink:href="#SimHei-27169"/>
      <use transform="translate(400 .96875)" xlink:href="#SimHei-22411"/>
      <use transform="translate(500 .96875)" xlink:href="#SimHei-25361"/>
      <use transform="translate(600 .96875)" xlink:href="#SimHei-36873"/>
      <use transform="translate(700 .96875)" xlink:href="#SimHei-20986"/>
      <use transform="translate(800 .96875)" xlink:href="#SimHei-26469"/>
      <use transform="translate(900 .96875)" xlink:href="#SimHei-30340"/>
      <use transform="translate(1e3 .96875)" xlink:href="#STIXGeneral-Italic-103"/>
     </g>
    </g>
   </g>
   <g id="LineCollection_2">
    <path d="m235.6 166.69 195.65-147.45" clip-path="url(#pa485aeeab1)" fill="none" stroke="#000" stroke-dasharray="5.55,2.4" stroke-width="1.5"/>
   </g>
   <g id="patch_8">
    <path d="m235.6 194.4v-194.18" fill="none" stroke="#000" stroke-linecap="square" stroke-width=".8"/>
   </g>
   <g id="patch_9">
    <path d="m431.57 194.4v-194.18" fill="none" stroke="#000" stroke-linecap="square" stroke-width=".8"/>
   </g>
   <g id="patch_10">
    <path d="m235.6 194.4h195.97" fill="none" stroke="#000" stroke-linecap="square" stroke-width=".8"/>
   </g>
   <g id="patch_11">
    <path d="m235.6 0.216h195.97" fill="none" stroke="#000" stroke-linecap="square" stroke-width=".8"/>
   </g>
  </g>
 </g>
 <defs>
  <clipPath id="pbb57ce222b">
   <rect x=".432" y=".216" width="195.97" height="194.18"/>
  </clipPath>
  <clipPath id="pa485aeeab1">
   <rect x="235.6" y=".216" width="195.97" height="194.18"/>
  </clipPath>
 </defs>
</svg>
