<?xml version="1.0" encoding="UTF-8"?>
<!DOCTYPE svg  PUBLIC '-//W3C//DTD SVG 1.1//EN'  'http://www.w3.org/Graphics/SVG/1.1/DTD/svg11.dtd'>
<!-- Created with matplotlib (https://matplotlib.org/) -->
<svg width="648pt" height="216pt" version="1.1" viewBox="0 0 648 216" xmlns="http://www.w3.org/2000/svg" xmlns:xlink="http://www.w3.org/1999/xlink">
 <defs>
  <style type="text/css">*{stroke-linecap:butt;stroke-linejoin:round;}</style>
 </defs>
 <g id="figure_1">
  <g id="patch_1">
   <path d="m0 216h648v-216h-648z" fill="#fff"/>
  </g>
  <g id="axes_1">
   <g id="patch_2">
    <path d="m0.648 194.4h209.97v-194.18h-209.97z" fill="#fff"/>
   </g>
   <g id="PathCollection_1" fill="#00f" stroke="#00f" stroke-width="1.5">
    <path d="m80.608 129.73 6-6m-6 0 6 6" clip-path="url(#pd17f287fa1)"/>
    <path d="m75.713 141.5 6-6m-6 0 6 6" clip-path="url(#pd17f287fa1)"/>
    <path d="m85.502 153.27 6-6m-6 0 6 6" clip-path="url(#pd17f287fa1)"/>
    <path d="m75.713 153.27 6-6m-6 0 6 6" clip-path="url(#pd17f287fa1)"/>
    <path d="m7.192 176.8 6-6m-6 0 6 6" clip-path="url(#pd17f287fa1)"/>
    <path d="m80.608 129.73 6-6m-6 0 6 6" clip-path="url(#pd17f287fa1)"/>
    <path d="m56.136 153.27 6-6m-6 0 6 6" clip-path="url(#pd17f287fa1)"/>
    <path d="m51.241 176.8 6-6m-6 0 6 6" clip-path="url(#pd17f287fa1)"/>
    <path d="m80.608 129.73 6-6m-6 0 6 6" clip-path="url(#pd17f287fa1)"/>
    <path d="m56.136 165.04 6-6m-6 0 6 6" clip-path="url(#pd17f287fa1)"/>
    <path d="m90.396 129.73 6-6m-6 0 6 6" clip-path="url(#pd17f287fa1)"/>
    <path d="m51.241 141.5 6-6m-6 0 6 6" clip-path="url(#pd17f287fa1)"/>
    <path d="m75.713 165.04 6-6m-6 0 6 6" clip-path="url(#pd17f287fa1)"/>
    <path d="m90.396 117.96 6-6m-6 0 6 6" clip-path="url(#pd17f287fa1)"/>
    <path d="m65.925 153.27 6-6m-6 0 6 6" clip-path="url(#pd17f287fa1)"/>
    <path d="m80.608 153.27 6-6m-6 0 6 6" clip-path="url(#pd17f287fa1)"/>
    <path d="m75.713 141.5 6-6m-6 0 6 6" clip-path="url(#pd17f287fa1)"/>
    <path d="m105.08 106.19 6-6m-6 0 6 6" clip-path="url(#pd17f287fa1)"/>
    <path d="m21.875 188.57 6-6m-6 0 6 6" clip-path="url(#pd17f287fa1)"/>
    <path d="m36.558 153.27 6-6m-6 0 6 6" clip-path="url(#pd17f287fa1)"/>
    <path d="m51.241 165.04 6-6m-6 0 6 6" clip-path="url(#pd17f287fa1)"/>
    <path d="m70.819 153.27 6-6m-6 0 6 6" clip-path="url(#pd17f287fa1)"/>
    <path d="m61.03 188.57 6-6m-6 0 6 6" clip-path="url(#pd17f287fa1)"/>
    <path d="m31.664 188.57 6-6m-6 0 6 6" clip-path="url(#pd17f287fa1)"/>
    <path d="m90.396 141.5 6-6m-6 0 6 6" clip-path="url(#pd17f287fa1)"/>
    <path d="m80.608 129.73 6-6m-6 0 6 6" clip-path="url(#pd17f287fa1)"/>
    <path d="m95.291 141.5 6-6m-6 0 6 6" clip-path="url(#pd17f287fa1)"/>
    <path d="m95.291 94.424 6-6m-6 0 6 6" clip-path="url(#pd17f287fa1)"/>
    <path d="m61.03 153.27 6-6m-6 0 6 6" clip-path="url(#pd17f287fa1)"/>
    <path d="m85.502 141.5 6-6m-6 0 6 6" clip-path="url(#pd17f287fa1)"/>
   </g>
   <g id="PathCollection_2">
    <defs>
     <path id="C0_0_1c8ca00f19" d="m0 3c0.79561 0 1.5587-0.3161 2.1213-0.87868 0.56258-0.56258 0.87868-1.3257 0.87868-2.1213s-0.3161-1.5587-0.87868-2.1213c-0.56258-0.56258-1.3257-0.87868-2.1213-0.87868s-1.5587 0.3161-2.1213 0.87868c-0.56258 0.56258-0.87868 1.3257-0.87868 2.1213s0.3161 1.5587 0.87868 2.1213c0.56258 0.56258 1.3257 0.87868 2.1213 0.87868z"/>
    </defs>
    <g clip-path="url(#pd17f287fa1)">
     <use x="191.284037" y="67.886182" fill="#ff0000" stroke="#000000" xlink:href="#C0_0_1c8ca00f19"/>
    </g>
    <g clip-path="url(#pd17f287fa1)">
     <use x="201.072793" y="32.58" fill="#ff0000" stroke="#000000" xlink:href="#C0_0_1c8ca00f19"/>
    </g>
    <g clip-path="url(#pd17f287fa1)">
     <use x="147.234632" y="44.348727" fill="#ff0000" stroke="#000000" xlink:href="#C0_0_1c8ca00f19"/>
    </g>
    <g clip-path="url(#pd17f287fa1)">
     <use x="127.657118" y="32.58" fill="#ff0000" stroke="#000000" xlink:href="#C0_0_1c8ca00f19"/>
    </g>
    <g clip-path="url(#pd17f287fa1)">
     <use x="132.551497" y="91.423636" fill="#ff0000" stroke="#000000" xlink:href="#C0_0_1c8ca00f19"/>
    </g>
    <g clip-path="url(#pd17f287fa1)">
     <use x="127.657118" y="56.117455" fill="#ff0000" stroke="#000000" xlink:href="#C0_0_1c8ca00f19"/>
    </g>
    <g clip-path="url(#pd17f287fa1)">
     <use x="157.023388" y="91.423636" fill="#ff0000" stroke="#000000" xlink:href="#C0_0_1c8ca00f19"/>
    </g>
    <g clip-path="url(#pd17f287fa1)">
     <use x="112.973983" y="79.654909" fill="#ff0000" stroke="#000000" xlink:href="#C0_0_1c8ca00f19"/>
    </g>
    <g clip-path="url(#pd17f287fa1)">
     <use x="108.079605" y="79.654909" fill="#ff0000" stroke="#000000" xlink:href="#C0_0_1c8ca00f19"/>
    </g>
    <g clip-path="url(#pd17f287fa1)">
     <use x="147.234632" y="114.961091" fill="#ff0000" stroke="#000000" xlink:href="#C0_0_1c8ca00f19"/>
    </g>
    <g clip-path="url(#pd17f287fa1)">
     <use x="157.023388" y="9.042545" fill="#ff0000" stroke="#000000" xlink:href="#C0_0_1c8ca00f19"/>
    </g>
    <g clip-path="url(#pd17f287fa1)">
     <use x="103.185226" y="67.886182" fill="#ff0000" stroke="#000000" xlink:href="#C0_0_1c8ca00f19"/>
    </g>
    <g clip-path="url(#pd17f287fa1)">
     <use x="122.76274" y="32.58" fill="#ff0000" stroke="#000000" xlink:href="#C0_0_1c8ca00f19"/>
    </g>
    <g clip-path="url(#pd17f287fa1)">
     <use x="152.12901" y="56.117455" fill="#ff0000" stroke="#000000" xlink:href="#C0_0_1c8ca00f19"/>
    </g>
    <g clip-path="url(#pd17f287fa1)">
     <use x="137.445875" y="20.811273" fill="#ff0000" stroke="#000000" xlink:href="#C0_0_1c8ca00f19"/>
    </g>
    <g clip-path="url(#pd17f287fa1)">
     <use x="142.340253" y="9.042545" fill="#ff0000" stroke="#000000" xlink:href="#C0_0_1c8ca00f19"/>
    </g>
    <g clip-path="url(#pd17f287fa1)">
     <use x="112.973983" y="79.654909" fill="#ff0000" stroke="#000000" xlink:href="#C0_0_1c8ca00f19"/>
    </g>
    <g clip-path="url(#pd17f287fa1)">
     <use x="112.973983" y="91.423636" fill="#ff0000" stroke="#000000" xlink:href="#C0_0_1c8ca00f19"/>
    </g>
    <g clip-path="url(#pd17f287fa1)">
     <use x="176.600902" y="67.886182" fill="#ff0000" stroke="#000000" xlink:href="#C0_0_1c8ca00f19"/>
    </g>
    <g clip-path="url(#pd17f287fa1)">
     <use x="122.76274" y="79.654909" fill="#ff0000" stroke="#000000" xlink:href="#C0_0_1c8ca00f19"/>
    </g>
    <g clip-path="url(#pd17f287fa1)">
     <use x="112.973983" y="67.886182" fill="#ff0000" stroke="#000000" xlink:href="#C0_0_1c8ca00f19"/>
    </g>
    <g clip-path="url(#pd17f287fa1)">
     <use x="161.917767" y="9.042545" fill="#ff0000" stroke="#000000" xlink:href="#C0_0_1c8ca00f19"/>
    </g>
    <g clip-path="url(#pd17f287fa1)">
     <use x="132.551497" y="91.423636" fill="#ff0000" stroke="#000000" xlink:href="#C0_0_1c8ca00f19"/>
    </g>
    <g clip-path="url(#pd17f287fa1)">
     <use x="112.973983" y="20.811273" fill="#ff0000" stroke="#000000" xlink:href="#C0_0_1c8ca00f19"/>
    </g>
    <g clip-path="url(#pd17f287fa1)">
     <use x="98.290848" y="91.423636" fill="#ff0000" stroke="#000000" xlink:href="#C0_0_1c8ca00f19"/>
    </g>
    <g clip-path="url(#pd17f287fa1)">
     <use x="147.234632" y="91.423636" fill="#ff0000" stroke="#000000" xlink:href="#C0_0_1c8ca00f19"/>
    </g>
    <g clip-path="url(#pd17f287fa1)">
     <use x="117.868361" y="32.58" fill="#ff0000" stroke="#000000" xlink:href="#C0_0_1c8ca00f19"/>
    </g>
    <g clip-path="url(#pd17f287fa1)">
     <use x="108.079605" y="67.886182" fill="#ff0000" stroke="#000000" xlink:href="#C0_0_1c8ca00f19"/>
    </g>
    <g clip-path="url(#pd17f287fa1)">
     <use x="142.340253" y="56.117455" fill="#ff0000" stroke="#000000" xlink:href="#C0_0_1c8ca00f19"/>
    </g>
    <g clip-path="url(#pd17f287fa1)">
     <use x="152.12901" y="32.58" fill="#ff0000" stroke="#000000" xlink:href="#C0_0_1c8ca00f19"/>
    </g>
   </g>
   <g id="matplotlib.axis_1">
    <g id="text_1">
     <!-- 训练集 -->
     <defs>
      <path id="SimHei-35757" d="m42.188 77.344q5.0781-0.39062 9.375-0.78125-1.1719-4.6875-1.375-10.75-0.1875-6.0469-0.1875-18.547t-0.78125-20.703-2.1562-14.453q-1.3594-6.25-3.7031-11.141-2.3438-4.875-5.4688-9.5625-3.9062 2.3438-8.5938 4.2969 4.6875 4.2969 7.4219 9.7656t4.2969 13.672 1.75 19.719q0.20312 11.531 0 19.531-0.1875 8.0156-0.57812 18.953zm17.578-5.0781h7.8125q-0.39062-7.0312-0.39062-14.453v-39.453q0-10.938 0.39062-17.969h-7.8125q0.39062 7.0312 0.39062 17.969v39.453q0 8.9844-0.39062 14.453zm19.531 4.6875h7.8125q-0.39062-6.6406-0.39062-15.234v-46.875q0-10.938 0.39062-22.656h-7.8125q0.39062 11.719 0.39062 22.656v46.875q0 8.5938-0.39062 15.234zm-66.016-1.9531q2.7344 1.9531 6.6406 4.2969 6.6406-10.156 9.7656-15.234-3.9062-1.9531-6.6406-4.2969-5.8594 10.547-9.7656 15.234zm-7.8125-23.438q4.6875-0.39062 9.7656-0.39062h10.156q-0.39062-8.9844-0.39062-16.406v-23.047q5.0781 6.6406 6.6406 8.9844 1.9531-2.3438 4.6875-5.8594-5.0781-5.4688-8.5938-9.7656t-7.0312-9.375q-2.7344 3.125-5.8594 5.4688 3.125 3.9062 3.125 9.7656v33.203h-2.7344q-5.0781 0-9.7656-0.39062z"/>
      <path id="SimHei-32451" d="m14.062 49.609q7.8125 0.78125 11.328 0.78125 4.2969 6.6406 6.6406 12.891 3.125-2.7344 7.8125-5.4688-3.9062-3.5156-8.2031-10.547t-13.281-19.531q2.3438 0.39062 7.0312 1.1719t10.547 1.5625q-0.39062-3.9062-0.78125-7.0312-2.3438 0-9.9688-0.78125-7.6094-0.78125-13.469-2.7344-1.9531 3.9062-3.9062 7.8125 4.2969 2.7344 7.6094 6.8281 3.3281 4.1094 6.8438 10.359-2.3438 0-6.4531-0.78125-4.0938-0.78125-7.6094-1.9531-1.5625 3.9062-3.125 7.8125 3.9062 3.5156 7.8125 11.719t7.0312 17.578q3.9062-3.125 8.5938-5.4688-3.125-1.9531-5.8594-8.0156-2.7344-6.0469-8.5938-16.203zm-7.8125-41.406q10.156 1.5625 13.859 2.3438 3.7188 0.78125 18.562 3.9062-0.78125-3.9062-0.78125-7.0312-6.25-1.1719-14.453-3.125t-14.453-4.6875q-1.1719 4.6875-2.7344 8.5938zm48.828 35.547q-4.6875-8.2031-5.8594-10.938h15.625v10.938zm-3.9062-23.047q3.125-2.3438 8.2031-4.6875-3.5156-2.7344-8.5938-9.7656t-9.7656-12.891q-3.9062 2.3438-7.8125 4.2969 3.9062 3.125 9.1719 9.5625 5.2812 6.4531 8.7969 13.484zm25.391-4.6875q3.125 2.3438 6.6406 3.9062 2.3438-4.2969 6.0469-9.5781 3.7188-5.2656 6.4531-9.9531-3.9062-1.5625-7.4219-3.9062-3.125 5.8594-5.6719 10.156-2.5312 4.2969-6.0469 9.375zm-26.953 33.594q2.7344 5.4688 4.6875 10.547h-1.9531q-5.8594 0-12.891-0.39062v6.6406q7.0312-0.39062 13.281-0.39062h3.125q1.1719 2.7344 2.3438 6.4375 1.1719 3.7188 1.5625 8.4062 5.8594-3.125 9.375-4.2969-1.9531-2.3438-3.3281-5.0781-1.3594-2.7344-2.5312-5.4688h14.844q6.6406 0 12.5 0.39062v-6.6406q-5.8594 0.39062-12.5 0.39062h-16.406q-2.3438-5.4688-4.6875-10.547h15.625q-0.39062-4.6875-0.39062-10.547v-6.25h5.0781q6.25 0 12.109 0.39062v-6.6406q-5.8594 0.39062-12.109 0.39062h-5.0781v-24.219q0-8.2031-3.7188-10.344-3.7031-2.1562-9.9531-2.5469-1.1719 5.0781-3.9062 9.7656 8.2031-0.78125 9.1719 0.78125 0.98438 1.5625 0.98438 5.4688v21.094h-12.109q-3.125 0-5.6719-0.59375-2.5312-0.57812-4.875-1.75-1.5625 3.9062-3.9062 7.0312 3.9062 1.5625 9.375 12.109-3.125 0-7.0312-0.39062v6.6406q5.4688-0.39062 8.9844-0.39062z"/>
      <path id="SimHei-38598" d="m26.562 50.391v-6.6406h21.875v6.6406zm0-12.109v-5.8594h21.875v5.8594zm0 23.828v-6.25h21.875v6.25zm22.266 15.234q2.3438 1.9531 6.25 4.2969 0.78125-1.1719 3.125-3.9062t4.2969-5.0781q-3.125-1.5625-6.6406-3.9062-2.3438 2.3438-3.7188 4.4844-1.3594 2.1562-3.3125 4.1094zm-21.094 4.2969q3.5156-1.9531 9.375-4.6875-2.3438-1.9531-3.9062-4.1094-1.5625-2.1406-3.5156-5.2656h46.875q5.4688 0 12.5 0.39062v-6.25q-7.4219 0.39062-12.5 0.39062h-20.703v-6.25h15.625q5.0781 0 10.938 0.39062v-6.25q-5.8594 0.39062-10.938 0.39062h-15.625v-6.6406h16.406q5.4688 0 11.719 0.39062v-6.25q-6.25 0.39062-11.719 0.39062h-16.406v-5.8594h19.922q5.8594 0 12.109 0.39062v-6.25q-5.8594 0.39062-11.719 0.39062h-49.609v-3.9062h-7.8125q0.39062 7.0312 0.39062 12.891v17.578q-1.9531-2.7344-3.7188-4.6875-1.75-1.9531-3.7031-4.2969-2.7344 2.3438-6.6406 4.6875 3.125 2.7344 6.25 6.25t6.0469 7.6094q2.9375 4.1094 5.4688 8.7969 2.5469 4.6875 4.8906 9.7656zm-19.141-65.234q4.6875-0.39062 13.672-0.39062h24.219q0 3.5156-0.39062 8.5938h8.2031q-0.39062-5.4688-0.39062-8.5938h24.609q6.6406 0 13.281 0.39062v-6.25q-6.6406 0.39062-13.281 0.39062h-14.062q4.6875-4.6875 11.516-7.2344 6.8438-2.5312 17.391-4.875-3.125-3.9062-4.6875-7.8125-7.0312 2.7344-12.109 4.8906-5.0781 2.1406-8.7969 4.4844-3.7031 2.3438-6.4375 4.875-2.7344 2.5469-5.4688 5.6719h-1.9531v-8.9844q0-5.8594 0.78125-11.719h-8.5938q0.39062 5.4688 0.39062 11.719v8.9844h-1.5625q-3.125-3.9062-6.4531-7.0312-3.3125-3.125-7.2188-5.4688t-8.5938-4.0938q-4.6875-1.7656-9.7656-4.1094-1.5625 3.5156-5.4688 7.4219 7.8125 1.1719 16.203 4.4844 8.4062 3.3281 12.703 8.7969h-14.062q-6.6406 0-13.672-0.39062z"/>
     </defs>
     <g transform="translate(78.632 212.6) scale(.18 -.18)">
      <use xlink:href="#SimHei-35757"/>
      <use x="100" xlink:href="#SimHei-32451"/>
      <use x="200" xlink:href="#SimHei-38598"/>
     </g>
    </g>
   </g>
   <g id="patch_3">
    <path d="m0.648 194.4v-194.18" fill="none" stroke="#000" stroke-linecap="square" stroke-width=".8"/>
   </g>
   <g id="patch_4">
    <path d="m210.62 194.4v-194.18" fill="none" stroke="#000" stroke-linecap="square" stroke-width=".8"/>
   </g>
   <g id="patch_5">
    <path d="m0.648 194.4h209.97" fill="none" stroke="#000" stroke-linecap="square" stroke-width=".8"/>
   </g>
   <g id="patch_6">
    <path d="m0.648 0.216h209.97" fill="none" stroke="#000" stroke-linecap="square" stroke-width=".8"/>
   </g>
  </g>
  <g id="axes_2">
   <g id="patch_7">
    <path d="m219.02 194.4h209.97v-194.18h-209.97z" fill="#fff"/>
   </g>
   <g id="PathCollection_3" fill="#1e90ff" stroke="#1e90ff" stroke-width="1.5">
    <path d="m281.7 147.84 6-6m-6 0 6 6" clip-path="url(#pa4731c0f30)"/>
    <path d="m225.56 188.57 6-6m-6 0 6 6" clip-path="url(#pa4731c0f30)"/>
    <path d="m264.86 147.84 6-6m-6 0 6 6" clip-path="url(#pa4731c0f30)"/>
    <path d="m292.93 107.1 6-6m-6 0 6 6" clip-path="url(#pa4731c0f30)"/>
    <path d="m276.09 120.68 6-6m-6 0 6 6" clip-path="url(#pa4731c0f30)"/>
    <path d="m270.47 147.84 6-6m-6 0 6 6" clip-path="url(#pa4731c0f30)"/>
    <path d="m315.39 120.68 6-6m-6 0 6 6" clip-path="url(#pa4731c0f30)"/>
    <path d="m304.16 161.41 6-6m-6 0 6 6" clip-path="url(#pa4731c0f30)"/>
   </g>
   <g id="PathCollection_4">
    <defs>
     <path id="C1_0_53e86a77c3" d="m0 3c0.79561 0 1.5587-0.3161 2.1213-0.87868 0.56258-0.56258 0.87868-1.3257 0.87868-2.1213s-0.3161-1.5587-0.87868-2.1213c-0.56258-0.56258-1.3257-0.87868-2.1213-0.87868s-1.5587 0.3161-2.1213 0.87868c-0.56258 0.56258-0.87868 1.3257-0.87868 2.1213s0.3161 1.5587 0.87868 2.1213c0.56258 0.56258 1.3257 0.87868 2.1213 0.87868z"/>
    </defs>
    <g clip-path="url(#pa4731c0f30)">
     <use x="413.826238" y="36.201147" fill="#ffe4c4" stroke="#000000" xlink:href="#C1_0_53e86a77c3"/>
    </g>
    <g clip-path="url(#pa4731c0f30)">
     <use x="352.070699" y="36.201147" fill="#ffe4c4" stroke="#000000" xlink:href="#C1_0_53e86a77c3"/>
    </g>
    <g clip-path="url(#pa4731c0f30)">
     <use x="329.61414" y="9.042545" fill="#ffe4c4" stroke="#000000" xlink:href="#C1_0_53e86a77c3"/>
    </g>
    <g clip-path="url(#pa4731c0f30)">
     <use x="324" y="117.676951" fill="#ffe4c4" stroke="#000000" xlink:href="#C1_0_53e86a77c3"/>
    </g>
    <g clip-path="url(#pa4731c0f30)">
     <use x="385.755539" y="9.042545" fill="#ffe4c4" stroke="#000000" xlink:href="#C1_0_53e86a77c3"/>
    </g>
    <g clip-path="url(#pa4731c0f30)">
     <use x="335.22828" y="49.780448" fill="#ffe4c4" stroke="#000000" xlink:href="#C1_0_53e86a77c3"/>
    </g>
    <g clip-path="url(#pa4731c0f30)">
     <use x="357.684839" y="36.201147" fill="#ffe4c4" stroke="#000000" xlink:href="#C1_0_53e86a77c3"/>
    </g>
    <g clip-path="url(#pa4731c0f30)">
     <use x="419.440378" y="22.621846" fill="#ffe4c4" stroke="#000000" xlink:href="#C1_0_53e86a77c3"/>
    </g>
    <g clip-path="url(#pa4731c0f30)">
     <use x="357.684839" y="22.621846" fill="#ffe4c4" stroke="#000000" xlink:href="#C1_0_53e86a77c3"/>
    </g>
    <g clip-path="url(#pa4731c0f30)">
     <use x="357.684839" y="131.256252" fill="#ffe4c4" stroke="#000000" xlink:href="#C1_0_53e86a77c3"/>
    </g>
    <g clip-path="url(#pa4731c0f30)">
     <use x="396.983818" y="76.939049" fill="#ffe4c4" stroke="#000000" xlink:href="#C1_0_53e86a77c3"/>
    </g>
    <g clip-path="url(#pa4731c0f30)">
     <use x="295.929301" y="90.51835" fill="#ffe4c4" stroke="#000000" xlink:href="#C1_0_53e86a77c3"/>
    </g>
   </g>
   <g id="matplotlib.axis_3">
    <g id="text_2">
     <!-- 验证集 -->
     <defs>
      <path id="SimHei-39564" d="m6.25 73.047q5.8594-0.39062 11.719-0.39062h18.359q-0.78125-3.5156-1.1719-10.156l-2.7344-29.688h7.0312q-0.39062-3.125-0.78125-10.156l-1.1719-21.094q0-7.8125-4.6875-8.9844t-12.891-2.3438q-1.1719 5.0781-3.125 8.5938 8.2031 0 10.734 0.20312 2.5469 0.1875 3.3281 3.7031l1.1719 23.828h-22.656q0.39062 7.0312 0.57812 15.625 0.20312 8.5938 0.20312 16.406h7.4219q-0.78125-4.2969-1.1719-10.938t-0.39062-14.844h9.7656l2.7344 33.594h-10.547q-5.8594 0-11.719-0.39062zm-2.3438-58.594q5.4688 0.39062 11.125 1.1719 5.6719 0.78125 13.094 1.9531-0.39062-2.7344-0.78125-6.6406-5.8594-0.78125-9.5781-1.5625-3.7031-0.78125-11.125-3.125-1.1719 4.2969-2.7344 8.2031zm55.078 65.625q4.6875-1.1719 10.156-2.3438l-1.9531-2.7344q6.25-11.719 12.891-17 6.6406-5.2656 15.234-8.3906-3.5156-3.125-5.4688-7.4219-5.0781 2.7344-10.156 7.0312v-6.25q-5.0781 0.39062-14.266 0.39062-9.1719 0-15.031-0.39062v5.8594q-2.3438-3.125-6.6406-7.8125-3.5156 3.125-7.0312 5.0781 5.8594 4.2969 9.1719 8.5938 3.3281 4.2969 5.8594 8.7812 2.5469 4.5 4.2969 8.4062 1.7656 3.9062 2.9375 8.2031zm3.9062-9.375q-2.7344-6.25-5.2812-10.547-2.5312-4.2969-6.8281-10.547h28.516q-4.6875 3.5156-8.5938 8.3906-3.9062 4.8906-7.8125 12.703zm-18.359-39.062q3.125 1.1719 6.25 1.9531 1.5625-5.4688 3.3125-12.312 1.7656-6.8281 3.3281-12.297-3.5156-0.39062-6.6406-1.9531-1.1719 7.0312-2.5469 12.109-1.3594 5.0781-3.7031 12.5zm14.062 2.7344q3.5156 0.78125 6.6406 1.1719 0.78125-5.0781 1.5625-9.9688 0.78125-4.875 1.9531-12.688-3.125-0.78125-6.25-1.5625-1.1719 8.5938-1.9531 12.891t-1.9531 10.156zm19.922 1.1719q3.125-1.1719 8.5938-2.3438-1.9531-2.3438-3.125-6.25t-3.7188-12.5q-2.5312-8.5938-4.0938-13.672h5.4688q2.7344 0 8.2031 0.39062v-7.0312q-4.6875 0.39062-8.2031 0.39062h-29.688q-7.0312 0-10.156-0.39062v7.0312q4.6875-0.39062 10.547-0.39062h17.188q3.125 8.5938 5.0781 17.375 1.9531 8.7969 3.9062 17.391z"/>
      <path id="SimHei-35777" d="m30.859 64.453q-3.5156-2.7344-5.8594-5.4688-6.25 8.5938-10.938 13.281 3.125 2.3438 5.8594 5.0781 7.4219-8.5938 10.938-12.891zm-10.156-70.312q-2.7344 3.5156-6.25 5.8594 4.6875 4.6875 4.6875 9.375v32.812h-3.125q-5.0781 0-10.547-0.39062v7.0312q5.0781-0.39062 10.547-0.39062h10.938q-0.39062-7.0312-0.39062-14.844v-19.922q3.125 3.9062 5.8594 7.8125 1.9531-4.2969 4.6875-7.4219-4.2969-4.6875-7.8125-8.9844t-8.5938-10.938zm17.969 78.516q7.8125-0.39062 16.406-0.39062h23.828q7.4219 0 13.672 0.39062v-7.0312q-6.25 0.39062-13.672 0.39062h-9.375v-25.781h8.5938q6.25 0 12.109 0.39062v-7.0312q-5.4688 0.39062-12.109 0.39062h-8.5938v-30.078h10.156q6.6406 0 14.844 0.39062v-7.0312q-8.2031 0.39062-14.844 0.39062h-32.812q-8.9844 0-14.844-0.39062v7.0312q5.8594-0.39062 11.719-0.39062v28.516q0 7.4219-0.39062 12.5h8.2031q-0.39062-4.6875-0.39062-12.5v-28.516h10.938v62.109h-7.0312q-8.5938 0-16.406-0.39062z"/>
     </defs>
     <g transform="translate(297 212.6) scale(.18 -.18)">
      <use xlink:href="#SimHei-39564"/>
      <use x="100" xlink:href="#SimHei-35777"/>
      <use x="200" xlink:href="#SimHei-38598"/>
     </g>
    </g>
   </g>
   <g id="patch_8">
    <path d="m219.02 194.4v-194.18" fill="none" stroke="#000" stroke-linecap="square" stroke-width=".8"/>
   </g>
   <g id="patch_9">
    <path d="m428.98 194.4v-194.18" fill="none" stroke="#000" stroke-linecap="square" stroke-width=".8"/>
   </g>
   <g id="patch_10">
    <path d="m219.02 194.4h209.97" fill="none" stroke="#000" stroke-linecap="square" stroke-width=".8"/>
   </g>
   <g id="patch_11">
    <path d="m219.02 0.216h209.97" fill="none" stroke="#000" stroke-linecap="square" stroke-width=".8"/>
   </g>
  </g>
  <g id="axes_3">
   <g id="patch_12">
    <path d="m437.38 194.4h209.97v-194.18h-209.97z" fill="#fff"/>
   </g>
   <g id="PathCollection_5" fill="#228b22" stroke="#228b22" stroke-width="1.5">
    <path d="m495.32 163.35 6-6m-6 0 6 6" clip-path="url(#pab44c032c8)"/>
    <path d="m495.32 150.75 6-6m-6 0 6 6" clip-path="url(#pab44c032c8)"/>
    <path d="m480.64 150.75 6-6m-6 0 6 6" clip-path="url(#pab44c032c8)"/>
    <path d="m546.71 125.53 6-6m-6 0 6 6" clip-path="url(#pab44c032c8)"/>
    <path d="m443.93 188.57 6-6m-6 0 6 6" clip-path="url(#pab44c032c8)"/>
    <path d="m532.03 138.14 6-6m-6 0 6 6" clip-path="url(#pab44c032c8)"/>
    <path d="m517.34 125.53 6-6m-6 0 6 6" clip-path="url(#pab44c032c8)"/>
    <path d="m465.95 175.96 6-6m-6 0 6 6" clip-path="url(#pab44c032c8)"/>
    <path d="m561.39 112.92 6-6m-6 0 6 6" clip-path="url(#pab44c032c8)"/>
    <path d="m524.68 125.53 6-6m-6 0 6 6" clip-path="url(#pab44c032c8)"/>
    <path d="m480.64 188.57 6-6m-6 0 6 6" clip-path="url(#pab44c032c8)"/>
    <path d="m458.61 188.57 6-6m-6 0 6 6" clip-path="url(#pab44c032c8)"/>
   </g>
   <g id="PathCollection_6">
    <defs>
     <path id="C2_0_dbe7579e26" d="m0 3c0.79561 0 1.5587-0.3161 2.1213-0.87868 0.56258-0.56258 0.87868-1.3257 0.87868-2.1213s-0.3161-1.5587-0.87868-2.1213c-0.56258-0.56258-1.3257-0.87868-2.1213-0.87868s-1.5587 0.3161-2.1213 0.87868c-0.56258 0.56258-0.87868 1.3257-0.87868 2.1213s0.3161 1.5587 0.87868 2.1213c0.56258 0.56258 1.3257 0.87868 2.1213 0.87868z"/>
    </defs>
    <g clip-path="url(#pab44c032c8)">
     <use x="564.392287" y="122.526701" fill="#cd853f" stroke="#000000" xlink:href="#C2_0_dbe7579e26"/>
    </g>
    <g clip-path="url(#pab44c032c8)">
     <use x="601.100125" y="84.698649" fill="#cd853f" stroke="#000000" xlink:href="#C2_0_dbe7579e26"/>
    </g>
    <g clip-path="url(#pab44c032c8)">
     <use x="608.441692" y="21.651896" fill="#cd853f" stroke="#000000" xlink:href="#C2_0_dbe7579e26"/>
    </g>
    <g clip-path="url(#pab44c032c8)">
     <use x="637.807962" y="72.089299" fill="#cd853f" stroke="#000000" xlink:href="#C2_0_dbe7579e26"/>
    </g>
    <g clip-path="url(#pab44c032c8)">
     <use x="549.709152" y="84.698649" fill="#cd853f" stroke="#000000" xlink:href="#C2_0_dbe7579e26"/>
    </g>
    <g clip-path="url(#pab44c032c8)">
     <use x="601.100125" y="9.042545" fill="#cd853f" stroke="#000000" xlink:href="#C2_0_dbe7579e26"/>
    </g>
    <g clip-path="url(#pab44c032c8)">
     <use x="542.367584" y="84.698649" fill="#cd853f" stroke="#000000" xlink:href="#C2_0_dbe7579e26"/>
    </g>
    <g clip-path="url(#pab44c032c8)">
     <use x="549.709152" y="84.698649" fill="#cd853f" stroke="#000000" xlink:href="#C2_0_dbe7579e26"/>
    </g>
   </g>
   <g id="matplotlib.axis_5">
    <g id="text_3">
     <!-- 测试集 -->
     <defs>
      <path id="SimHei-27979" d="m25.391 67.969q-2.3438-1.9531-4.6875-5.4688-5.8594 5.4688-12.891 9.7656 2.3438 1.9531 4.6875 5.0781 7.4219-4.6875 12.891-9.375zm-20.703-22.656q1.9531 3.125 3.5156 6.25 8.2031-3.5156 15.234-7.4219-2.3438-3.5156-3.5156-6.6406-6.25 4.6875-15.234 7.8125zm13.281-17.969q3.125-2.7344 6.6406-4.6875-3.5156-8.9844-6.0625-17.781-2.5312-8.7812-3.7031-13.469-4.2969 3.125-8.9844 4.6875 3.5156 4.6875 7.0312 13.859 3.5156 9.1875 5.0781 17.391zm10.547 44.922h32.031q-0.39062-6.6406-0.39062-11.719v-27.734q0-7.0312 0.39062-13.672h-6.6406v46.875h-18.75v-47.266h-6.6406q0.39062 8.5938 0.39062 14.844v26.172q0 6.25-0.39062 12.5zm12.891-12.891q3.5156-0.78125 8.2031-1.1719-1.1719-3.9062-1.5625-18.359t-2.1562-21.688q-1.75-7.2188-5.8594-13.859-4.0938-6.6406-9.5625-12.5-2.7344 3.9062-7.0312 5.8594 7.8125 5.4688 11.719 11.906 3.9062 6.4531 5.2656 14.656 1.375 8.2031 1.375 17.578t-0.39062 17.578zm7.0312-48.828q2.7344 1.9531 5.4688 4.2969 8.2031-8.5938 11.719-13.672-3.125-1.9531-5.8594-4.2969-5.0781 7.4219-11.328 13.672zm19.922 56.641h7.0312q-0.39062-4.2969-0.39062-10.547v-29.297q0-5.4688 0.39062-12.891h-7.0312q0.39062 7.8125 0.39062 12.891v28.906q0 6.6406-0.39062 10.938zm14.844 10.156h7.0312q-0.39062-6.25-0.39062-10.547v-64.453q0-7.0312-2.5469-8.3906-2.5312-1.375-9.1719-2.9375-0.78125 4.2969-3.9062 8.2031 5.8594 0 7.6094 0.39062 1.7656 0.39062 1.7656 4.2969v62.891q0 4.2969-0.39062 10.547z"/>
      <path id="SimHei-35797" d="m10.547 70.703q3.125 1.9531 6.25 4.6875 5.0781-5.4688 10.156-14.062-3.5156-2.3438-7.0312-5.0781-1.5625 4.6875-9.375 14.453zm-5.4688-22.656q5.0781-0.39062 8.2031-0.39062h10.547q-0.39062-7.0312-0.39062-14.844v-22.266q4.2969 5.4688 7.4219 9.375 1.1719-4.2969 3.125-8.2031-4.6875-4.6875-8.2031-8.7969-3.5156-4.0938-5.4688-8-2.7344 3.9062-6.6406 5.8594 2.7344 2.7344 2.7344 7.8125v32.812q-6.25 0-11.328-0.39062zm25.781 10.156q6.25-0.39062 12.891-0.39062h18.359q-0.39062 7.0312-0.59375 11.125-0.1875 4.1094-0.96875 10.359 5.4688-1.1719 9.375-1.5625-0.39062-4.2969-0.39062-8.2031t0-11.719h11.328q5.4688 0 11.328 0.39062v-7.0312q-5.4688 0.39062-11.719 0.39062h-10.547q0.78125-9.7656 2.1406-17.781 1.375-8 3.9062-16.406 2.5469-8.3906 5.8594-13.281 3.3281-4.875 4.5-0.39062 1.1719 4.5 1.5625 9.1875 3.5156-3.9062 7.8125-5.4688-1.9531-10.938-5.4688-13.859-3.5156-2.9375-7.8125-0.78125-4.2969 2.1406-8.0156 8.7812-3.7031 6.6406-6.0469 15.031-2.3438 8.4062-3.7188 17.578-1.3594 9.1875-2.1406 17.391h-18.359q-6.6406 0-13.281-0.39062zm4.2969-17.969q5.8594-0.39062 12.297-0.39062 6.4531 0 11.922 0.39062v-7.4219q-4.2969 0.39062-8.2031 0.39062v-23.828q6.6406 1.5625 11.719 3.5156 0-3.9062 0.78125-7.0312-5.8594-1.1719-12.703-3.3281-6.8281-2.1406-13.859-4.875-1.1719 4.6875-3.9062 8.2031 5.0781 0.39062 10.938 1.9531v25.391q-4.2969 0-8.9844-0.39062zm40.625 32.422q2.7344 1.5625 6.25 3.5156 1.9531-2.7344 7.0312-10.156-3.9062-1.5625-6.25-3.5156-2.3438 4.6875-7.0312 10.156z"/>
     </defs>
     <g transform="translate(515.37 212.6) scale(.18 -.18)">
      <use xlink:href="#SimHei-27979"/>
      <use x="100" xlink:href="#SimHei-35797"/>
      <use x="200" xlink:href="#SimHei-38598"/>
     </g>
    </g>
   </g>
   <g id="patch_13">
    <path d="m437.38 194.4v-194.18" fill="none" stroke="#000" stroke-linecap="square" stroke-width=".8"/>
   </g>
   <g id="patch_14">
    <path d="m647.35 194.4v-194.18" fill="none" stroke="#000" stroke-linecap="square" stroke-width=".8"/>
   </g>
   <g id="patch_15">
    <path d="m437.38 194.4h209.97" fill="none" stroke="#000" stroke-linecap="square" stroke-width=".8"/>
   </g>
   <g id="patch_16">
    <path d="m437.38 0.216h209.97" fill="none" stroke="#000" stroke-linecap="square" stroke-width=".8"/>
   </g>
  </g>
 </g>
 <defs>
  <clipPath id="pd17f287fa1">
   <rect x=".648" y=".216" width="209.97" height="194.18"/>
  </clipPath>
  <clipPath id="pa4731c0f30">
   <rect x="219.02" y=".216" width="209.97" height="194.18"/>
  </clipPath>
  <clipPath id="pab44c032c8">
   <rect x="437.38" y=".216" width="209.97" height="194.18"/>
  </clipPath>
 </defs>
</svg>
