<?xml version="1.0" encoding="UTF-8"?>
<!DOCTYPE svg  PUBLIC '-//W3C//DTD SVG 1.1//EN'  'http://www.w3.org/Graphics/SVG/1.1/DTD/svg11.dtd'>
<!-- Created with matplotlib (https://matplotlib.org/) -->
<svg width="432pt" height="216pt" version="1.1" viewBox="0 0 432 216" xmlns="http://www.w3.org/2000/svg" xmlns:xlink="http://www.w3.org/1999/xlink">
 <defs>
  <style type="text/css">*{stroke-linecap:butt;stroke-linejoin:round;}</style>
 </defs>
 <g id="figure_1">
  <g id="patch_1">
   <path d="m0 216h432v-216h-432z" fill="#fff"/>
  </g>
  <g id="axes_1">
   <g id="patch_2">
    <path d="m64.8 214.92h302.4v-214.7h-302.4z" fill="#fff"/>
   </g>
   <g id="PathCollection_1">
    <defs>
     <path id="m2c5a56daa4" d="m-3 3h6v-6h-6z" stroke="#000"/>
    </defs>
    <g clip-path="url(#p157e2c31b8)" fill="#8fbc8f" stroke="#000000">
     <use x="97.183359" y="197.028" xlink:href="#m2c5a56daa4"/>
     <use x="97.183359" y="197.028" xlink:href="#m2c5a56daa4"/>
     <use x="92.523883" y="197.028" xlink:href="#m2c5a56daa4"/>
     <use x="101.842835" y="197.028" xlink:href="#m2c5a56daa4"/>
     <use x="97.183359" y="197.028" xlink:href="#m2c5a56daa4"/>
     <use x="111.161787" y="180.762545" xlink:href="#m2c5a56daa4"/>
     <use x="97.183359" y="188.895273" xlink:href="#m2c5a56daa4"/>
     <use x="101.842835" y="197.028" xlink:href="#m2c5a56daa4"/>
     <use x="97.183359" y="197.028" xlink:href="#m2c5a56daa4"/>
     <use x="101.842835" y="205.160727" xlink:href="#m2c5a56daa4"/>
     <use x="101.842835" y="197.028" xlink:href="#m2c5a56daa4"/>
     <use x="106.502311" y="197.028" xlink:href="#m2c5a56daa4"/>
     <use x="97.183359" y="205.160727" xlink:href="#m2c5a56daa4"/>
     <use x="83.204931" y="205.160727" xlink:href="#m2c5a56daa4"/>
     <use x="87.864407" y="197.028" xlink:href="#m2c5a56daa4"/>
     <use x="101.842835" y="180.762545" xlink:href="#m2c5a56daa4"/>
     <use x="92.523883" y="180.762545" xlink:href="#m2c5a56daa4"/>
     <use x="97.183359" y="188.895273" xlink:href="#m2c5a56daa4"/>
     <use x="111.161787" y="188.895273" xlink:href="#m2c5a56daa4"/>
     <use x="101.842835" y="188.895273" xlink:href="#m2c5a56daa4"/>
     <use x="111.161787" y="197.028" xlink:href="#m2c5a56daa4"/>
     <use x="101.842835" y="180.762545" xlink:href="#m2c5a56daa4"/>
     <use x="78.545455" y="197.028" xlink:href="#m2c5a56daa4"/>
     <use x="111.161787" y="172.629818" xlink:href="#m2c5a56daa4"/>
     <use x="120.48074" y="197.028" xlink:href="#m2c5a56daa4"/>
     <use x="106.502311" y="197.028" xlink:href="#m2c5a56daa4"/>
     <use x="106.502311" y="180.762545" xlink:href="#m2c5a56daa4"/>
     <use x="101.842835" y="197.028" xlink:href="#m2c5a56daa4"/>
     <use x="97.183359" y="197.028" xlink:href="#m2c5a56daa4"/>
     <use x="106.502311" y="197.028" xlink:href="#m2c5a56daa4"/>
     <use x="106.502311" y="197.028" xlink:href="#m2c5a56daa4"/>
     <use x="101.842835" y="180.762545" xlink:href="#m2c5a56daa4"/>
     <use x="101.842835" y="205.160727" xlink:href="#m2c5a56daa4"/>
     <use x="97.183359" y="197.028" xlink:href="#m2c5a56daa4"/>
     <use x="101.842835" y="197.028" xlink:href="#m2c5a56daa4"/>
     <use x="87.864407" y="197.028" xlink:href="#m2c5a56daa4"/>
     <use x="92.523883" y="197.028" xlink:href="#m2c5a56daa4"/>
     <use x="97.183359" y="205.160727" xlink:href="#m2c5a56daa4"/>
     <use x="92.523883" y="197.028" xlink:href="#m2c5a56daa4"/>
     <use x="101.842835" y="197.028" xlink:href="#m2c5a56daa4"/>
     <use x="92.523883" y="188.895273" xlink:href="#m2c5a56daa4"/>
     <use x="92.523883" y="188.895273" xlink:href="#m2c5a56daa4"/>
     <use x="92.523883" y="197.028" xlink:href="#m2c5a56daa4"/>
     <use x="106.502311" y="164.497091" xlink:href="#m2c5a56daa4"/>
     <use x="120.48074" y="180.762545" xlink:href="#m2c5a56daa4"/>
     <use x="97.183359" y="188.895273" xlink:href="#m2c5a56daa4"/>
     <use x="106.502311" y="197.028" xlink:href="#m2c5a56daa4"/>
     <use x="97.183359" y="197.028" xlink:href="#m2c5a56daa4"/>
     <use x="101.842835" y="197.028" xlink:href="#m2c5a56daa4"/>
     <use x="97.183359" y="197.028" xlink:href="#m2c5a56daa4"/>
    </g>
   </g>
   <g id="PathCollection_2">
    <defs>
     <path id="m60f57b1587" d="m-3 3 6-6m-6 0 6 6" stroke="#00f" stroke-width="1.5"/>
    </defs>
    <g clip-path="url(#p157e2c31b8)" fill="#0000ff" stroke="#0000ff" stroke-width="1.5">
     <use x="250.946071" y="99.435273" xlink:href="#m60f57b1587"/>
     <use x="241.627119" y="91.302545" xlink:href="#m60f57b1587"/>
     <use x="260.265023" y="91.302545" xlink:href="#m60f57b1587"/>
     <use x="218.329738" y="107.568" xlink:href="#m60f57b1587"/>
     <use x="246.286595" y="91.302545" xlink:href="#m60f57b1587"/>
     <use x="241.627119" y="107.568" xlink:href="#m60f57b1587"/>
     <use x="250.946071" y="83.169818" xlink:href="#m60f57b1587"/>
     <use x="185.713405" y="131.966182" xlink:href="#m60f57b1587"/>
     <use x="246.286595" y="107.568" xlink:href="#m60f57b1587"/>
     <use x="213.670262" y="99.435273" xlink:href="#m60f57b1587"/>
     <use x="195.032357" y="131.966182" xlink:href="#m60f57b1587"/>
     <use x="227.64869" y="91.302545" xlink:href="#m60f57b1587"/>
     <use x="218.329738" y="131.966182" xlink:href="#m60f57b1587"/>
     <use x="250.946071" y="99.435273" xlink:href="#m60f57b1587"/>
     <use x="199.691834" y="107.568" xlink:href="#m60f57b1587"/>
     <use x="236.967643" y="99.435273" xlink:href="#m60f57b1587"/>
     <use x="241.627119" y="91.302545" xlink:href="#m60f57b1587"/>
     <use x="222.989214" y="131.966182" xlink:href="#m60f57b1587"/>
     <use x="241.627119" y="91.302545" xlink:href="#m60f57b1587"/>
     <use x="213.670262" y="123.833455" xlink:href="#m60f57b1587"/>
     <use x="255.605547" y="66.904364" xlink:href="#m60f57b1587"/>
     <use x="218.329738" y="107.568" xlink:href="#m60f57b1587"/>
     <use x="260.265023" y="91.302545" xlink:href="#m60f57b1587"/>
     <use x="250.946071" y="115.700727" xlink:href="#m60f57b1587"/>
     <use x="232.308166" y="107.568" xlink:href="#m60f57b1587"/>
     <use x="236.967643" y="99.435273" xlink:href="#m60f57b1587"/>
     <use x="255.605547" y="99.435273" xlink:href="#m60f57b1587"/>
     <use x="264.924499" y="75.037091" xlink:href="#m60f57b1587"/>
     <use x="241.627119" y="91.302545" xlink:href="#m60f57b1587"/>
     <use x="195.032357" y="131.966182" xlink:href="#m60f57b1587"/>
     <use x="209.010786" y="123.833455" xlink:href="#m60f57b1587"/>
     <use x="204.35131" y="131.966182" xlink:href="#m60f57b1587"/>
     <use x="213.670262" y="115.700727" xlink:href="#m60f57b1587"/>
     <use x="269.583975" y="83.169818" xlink:href="#m60f57b1587"/>
     <use x="241.627119" y="91.302545" xlink:href="#m60f57b1587"/>
     <use x="241.627119" y="83.169818" xlink:href="#m60f57b1587"/>
     <use x="250.946071" y="91.302545" xlink:href="#m60f57b1587"/>
     <use x="236.967643" y="107.568" xlink:href="#m60f57b1587"/>
     <use x="222.989214" y="107.568" xlink:href="#m60f57b1587"/>
     <use x="218.329738" y="107.568" xlink:href="#m60f57b1587"/>
     <use x="236.967643" y="115.700727" xlink:href="#m60f57b1587"/>
     <use x="246.286595" y="99.435273" xlink:href="#m60f57b1587"/>
     <use x="218.329738" y="115.700727" xlink:href="#m60f57b1587"/>
     <use x="185.713405" y="131.966182" xlink:href="#m60f57b1587"/>
     <use x="227.64869" y="107.568" xlink:href="#m60f57b1587"/>
     <use x="227.64869" y="115.700727" xlink:href="#m60f57b1587"/>
     <use x="227.64869" y="107.568" xlink:href="#m60f57b1587"/>
     <use x="232.308166" y="107.568" xlink:href="#m60f57b1587"/>
     <use x="171.734977" y="123.833455" xlink:href="#m60f57b1587"/>
     <use x="222.989214" y="107.568" xlink:href="#m60f57b1587"/>
    </g>
   </g>
   <g id="PathCollection_3">
    <defs>
     <path id="m828330980d" d="m0 3c0.79561 0 1.5587-0.3161 2.1213-0.87868 0.56258-0.56258 0.87868-1.3257 0.87868-2.1213s-0.3161-1.5587-0.87868-2.1213c-0.56258-0.56258-1.3257-0.87868-2.1213-0.87868s-1.5587 0.3161-2.1213 0.87868c-0.56258 0.56258-0.87868 1.3257-0.87868 2.1213s0.3161 1.5587 0.87868 2.1213c0.56258 0.56258 1.3257 0.87868 2.1213 0.87868z" stroke="#000"/>
    </defs>
    <g clip-path="url(#p157e2c31b8)" fill="#ff0000" stroke="#000000">
     <use x="311.51926" y="9.975273" xlink:href="#m828330980d"/>
     <use x="269.583975" y="58.771636" xlink:href="#m828330980d"/>
     <use x="306.859784" y="42.506182" xlink:href="#m828330980d"/>
     <use x="292.881356" y="66.904364" xlink:href="#m828330980d"/>
     <use x="302.200308" y="34.373455" xlink:href="#m828330980d"/>
     <use x="339.476117" y="42.506182" xlink:href="#m828330980d"/>
     <use x="241.627119" y="75.037091" xlink:href="#m828330980d"/>
     <use x="325.497689" y="66.904364" xlink:href="#m828330980d"/>
     <use x="302.200308" y="66.904364" xlink:href="#m828330980d"/>
     <use x="316.178737" y="9.975273" xlink:href="#m828330980d"/>
     <use x="269.583975" y="50.638909" xlink:href="#m828330980d"/>
     <use x="278.902928" y="58.771636" xlink:href="#m828330980d"/>
     <use x="288.22188" y="42.506182" xlink:href="#m828330980d"/>
     <use x="264.924499" y="50.638909" xlink:href="#m828330980d"/>
     <use x="269.583975" y="18.108" xlink:href="#m828330980d"/>
     <use x="278.902928" y="26.240727" xlink:href="#m828330980d"/>
     <use x="288.22188" y="66.904364" xlink:href="#m828330980d"/>
     <use x="344.135593" y="34.373455" xlink:href="#m828330980d"/>
     <use x="353.454545" y="26.240727" xlink:href="#m828330980d"/>
     <use x="264.924499" y="91.302545" xlink:href="#m828330980d"/>
     <use x="297.540832" y="26.240727" xlink:href="#m828330980d"/>
     <use x="260.265023" y="50.638909" xlink:href="#m828330980d"/>
     <use x="344.135593" y="50.638909" xlink:href="#m828330980d"/>
     <use x="260.265023" y="66.904364" xlink:href="#m828330980d"/>
     <use x="297.540832" y="42.506182" xlink:href="#m828330980d"/>
     <use x="311.51926" y="66.904364" xlink:href="#m828330980d"/>
     <use x="255.605547" y="66.904364" xlink:href="#m828330980d"/>
     <use x="260.265023" y="66.904364" xlink:href="#m828330980d"/>
     <use x="292.881356" y="42.506182" xlink:href="#m828330980d"/>
     <use x="302.200308" y="83.169818" xlink:href="#m828330980d"/>
     <use x="316.178737" y="58.771636" xlink:href="#m828330980d"/>
     <use x="330.157165" y="50.638909" xlink:href="#m828330980d"/>
     <use x="292.881356" y="34.373455" xlink:href="#m828330980d"/>
     <use x="269.583975" y="91.302545" xlink:href="#m828330980d"/>
     <use x="292.881356" y="99.435273" xlink:href="#m828330980d"/>
     <use x="316.178737" y="26.240727" xlink:href="#m828330980d"/>
     <use x="292.881356" y="18.108" xlink:href="#m828330980d"/>
     <use x="288.22188" y="66.904364" xlink:href="#m828330980d"/>
     <use x="255.605547" y="66.904364" xlink:href="#m828330980d"/>
     <use x="283.562404" y="42.506182" xlink:href="#m828330980d"/>
     <use x="292.881356" y="18.108" xlink:href="#m828330980d"/>
     <use x="269.583975" y="26.240727" xlink:href="#m828330980d"/>
     <use x="269.583975" y="58.771636" xlink:href="#m828330980d"/>
     <use x="306.859784" y="26.240727" xlink:href="#m828330980d"/>
     <use x="297.540832" y="9.975273" xlink:href="#m828330980d"/>
     <use x="274.243451" y="26.240727" xlink:href="#m828330980d"/>
     <use x="264.924499" y="58.771636" xlink:href="#m828330980d"/>
     <use x="274.243451" y="50.638909" xlink:href="#m828330980d"/>
     <use x="283.562404" y="26.240727" xlink:href="#m828330980d"/>
     <use x="269.583975" y="66.904364" xlink:href="#m828330980d"/>
    </g>
   </g>
   <g id="patch_3">
    <path d="m64.8 214.92v-214.7" fill="none" stroke="#000" stroke-linecap="square" stroke-width=".8"/>
   </g>
   <g id="patch_4">
    <path d="m367.2 214.92v-214.7" fill="none" stroke="#000" stroke-linecap="square" stroke-width=".8"/>
   </g>
   <g id="patch_5">
    <path d="m64.8 214.92h302.4" fill="none" stroke="#000" stroke-linecap="square" stroke-width=".8"/>
   </g>
   <g id="patch_6">
    <path d="m64.8 0.216h302.4" fill="none" stroke="#000" stroke-linecap="square" stroke-width=".8"/>
   </g>
   <g id="legend_1">
    <g id="patch_7">
     <path d="m73.2 60.863h110.4q2.4 0 2.4-2.4v-49.847q0-2.4-2.4-2.4h-110.4q-2.4 0-2.4 2.4v49.847q0 2.4 2.4 2.4z" fill="#fff" opacity=".8" stroke="#ccc"/>
    </g>
    <g id="PathCollection_4">
     <use x="87.6" y="17.33475" fill="#8fbc8f" stroke="#000000" xlink:href="#m2c5a56daa4"/>
    </g>
    <g id="text_1">
     <!-- 山鸢尾 -->
     <defs>
      <path id="SimHei-23665" d="m12.109 57.812h8.5938q-0.39062-8.9844-0.39062-15.234v-36.719h25.391v58.594q0 7.0312-0.39062 14.062h8.9844q-0.39062-5.4688-0.39062-14.062v-58.594h25.781v39.062q0 6.6406-0.39062 12.5h8.5938q-0.39062-4.6875-0.39062-14.062v-32.812q0-8.9844 0.39062-19.531h-8.2031v8.2031h-67.578q0.39062 8.5938 0.39062 16.016v26.953q0 8.5938-0.39062 15.625z"/>
      <path id="SimHei-40482" d="m35.938 32.031q2.3438 2.7344 3.9062 5.4688 5.4688-2.7344 12.5-7.0312-2.7344-2.3438-4.2969-5.4688-4.2969 3.5156-12.109 7.0312zm-26.953-24.219q7.0312-0.39062 14.844-0.39062h29.297q7.8125 0 16.016 0.39062v-6.25q-8.2031 0.39062-16.016 0.39062h-29.297q-7.8125 0-14.844-0.39062zm22.656 68.359q3.125 1.1719 7.8125 2.7344 1.1719-2.7344 2.9219-5.6719 1.7656-2.9219 5.6719-6.8281 6.25 0.78125 15.031 1.9531 8.7969 1.1719 27.156 4.2969 0.78125-3.5156 1.5625-6.6406-5.4688-0.39062-19.344-2.1562-13.859-1.75-19.719-2.5312 4.6875-3.5156 11.328-6.25t9.9531-3.9062q3.3281-1.1719 5.8594-1.375 2.5469-0.1875 3.125 1.375 0.59375 1.5625 2.1562 7.0312 3.5156-3.125 7.8125-5.0781-3.5156-7.0312-6.0625-9.375-2.5312-2.3438-13.078 0.78125 0-7.4219-0.39062-12.703-0.39062-5.2656-4.2969-6.8281t-9.7656-1.9531q-0.78125 3.5156-3.125 7.8125 8.2031 0 9.375 0.39062t1.1719 8.5938h-39.453v-19.141h60.156q-0.78125-7.4219-1.375-13.672-0.57812-6.25-1.75-9.9531-1.1719-3.7188-4.5-4.8906-3.3125-1.1719-9.5625-2.3438-1.5625 5.0781-3.9062 8.2031 10.156 0 11.125 1.5625 0.98438 1.5625 1.7656 15.625h-59.375q0.39062 5.4688 0.39062 14.844t-0.39062 15.234h14.844q1.1719 4.2969 1.9531 8.9844 3.9062-0.78125 9.375-1.9531-2.3438-3.5156-3.9062-7.0312h29.688q-8.2031 2.3438-15.047 6.0469-6.8281 3.7188-13.469 8.7969-5.4688-0.78125-14.656-1.7656-9.1719-0.96875-21.281-2.5312l-1.5625 6.6406q8.2031 0.39062 15.812 0.96875 7.625 0.59375 17.781 1.7656-2.3438 2.7344-4.1094 5.2656-1.75 2.5469-3.7031 5.6719zm27.344 5.4688q4.6875-3.125 9.7656-7.0312-3.125-2.3438-5.4688-4.6875-4.6875 4.2969-9.7656 7.4219 3.125 2.3438 5.4688 4.2969z"/>
      <path id="SimHei-23614" d="m76.562 50.391q1.5625-3.5156 5.0781-7.8125-4.6875 0-10.156-0.59375-5.4688-0.57812-13.672-1.75v-8.9844q17.188 1.1719 25.781 2.3438v-6.25q-17.578-1.1719-25.781-1.9531v-7.8125q19.531 1.5625 30.469 2.7344v-6.6406q-18.75-1.1719-30.469-2.3438v-6.25q-0.39062-6.25 4.2969-5.8594h17.969q5.4688-0.78125 5.8594 8.5938 3.125-1.5625 8.2031-2.7344-1.5625-11.328-11.328-11.328h-24.219q-8.2031-0.39062-8.2031 5.4688v11.328q-18.359-1.5625-26.172-2.7344l-0.78125 7.0312q9.7656 0.78125 26.953 1.9531v7.8125q-6.25-0.39062-22.656-1.9531l-0.78125 6.6406q6.25 0.39062 23.438 1.5625v8.5938q-14.844-1.1719-23.047-2.3438-0.78125 3.5156-1.9531 6.6406 16.797 0.78125 30.859 2.7344t20.312 3.9062zm-63.672 25h71.484q-0.39062-5.0781-0.39062-10.547t0.39062-10.938h-63.281q0.39062-29.688-2.9375-43.172-3.3125-13.469-6.4375-19.719-3.5156 3.5156-8.2031 4.6875 6.25 8.5938 8 22.266 1.7656 13.672 1.9531 30.469 0.20312 16.797-0.57812 26.953zm8.2031-5.4688v-10.547h55.469v10.547z"/>
     </defs>
     <g transform="translate(109.2 20.485) scale(.12 -.12)">
      <use xlink:href="#SimHei-23665"/>
      <use x="100" xlink:href="#SimHei-40482"/>
      <use x="200" xlink:href="#SimHei-23614"/>
     </g>
    </g>
    <g id="PathCollection_5">
     <use x="87.6" y="34.350375" fill="#0000ff" stroke="#0000ff" stroke-width="1.5" xlink:href="#m60f57b1587"/>
    </g>
    <g id="text_2">
     <!-- 变色鸢尾 -->
     <defs>
      <path id="SimHei-21464" d="m44.141 79.297q4.6875 0.78125 9.375 1.5625 1.1719-7.8125 1.5625-10.938h17.188q10.938 0 19.531 0.39062v-7.4219q-8.9844 0.39062-19.531 0.39062h-9.375v-16.797q0-7.8125 0.39062-12.5h-8.2031q0.39062 4.6875 0.39062 12.5v16.797h-12.109v-16.797q0-7.4219 0.39062-12.5h-8.2031q0.39062 5.0781 0.39062 12.5v16.797h-8.2031q-10.938 0-19.141-0.39062v7.4219q7.8125-0.39062 19.141-0.39062h18.75q-0.78125 4.6875-2.3438 9.375zm-22.656-21.484q3.5156-2.7344 8.2031-5.0781-2.3438-1.9531-6.4531-7.4219-4.0938-5.4688-8.7812-11.328-3.9062 2.7344-7.0312 4.6875 8.5938 8.2031 14.062 19.141zm48.047-5.8594q3.5156 2.7344 6.25 5.4688 7.8125-7.4219 16.406-16.797-3.5156-2.3438-7.0312-5.4688-6.25 7.8125-15.625 16.797zm-51.953-23.438q7.0312-0.39062 16.406-0.39062h45.703q-5.0781-7.8125-10.156-14.062t-10.938-10.547q8.9844-2.7344 15.812-3.7031 6.8438-0.98438 17.781-0.59375-3.125-3.5156-4.2969-8.9844-12.891 1.5625-21.875 3.9062t-14.844 4.6875q-9.7656-3.9062-18.359-5.6562-8.5938-1.7656-20.703-3.3281-1.5625 4.2969-4.2969 8.2031 10.156 0 18.547 1.1719 8.4062 1.1719 17.781 3.9062-7.8125 4.2969-16.797 18.359h8.5938q6.25-9.7656 15.625-14.453 7.8125 4.6875 14.844 14.453h-32.812q-9.7656 0-16.016-0.39062z"/>
      <path id="SimHei-33394" d="m35.547 80.469 10.547-3.5156q-3.125-1.5625-7.8125-8.2031h35.938q-1.9531-1.9531-5.8594-7.625-3.9062-5.6562-7.4219-10.734h21.484q-0.39062-4.6875-0.39062-15.438 0-10.734 0.39062-16.594h-7.8125v5.0781h-46.875v-17.188q0.39062-5.4688 6.25-5.8594h41.406q8.2031-0.78125 8.2031 9.375 4.2969-3.5156 8.5938-3.9062-3.5156-12.109-16.406-11.719h-44.141q-10.938-0.39062-11.328 9.7656v44.531q-3.5156-2.7344-7.4219-5.8594-2.3438 3.5156-7.0312 5.8594 6.25 3.5156 11.719 7.6094 5.4688 4.1094 10.938 11.531t7.0312 12.891zm-1.5625-17.969q-5.4688-6.6406-11.328-12.109h29.688q6.25 8.5938 7.8125 12.109zm-6.25-18.359v-14.453h19.531v14.453zm26.953 0v-14.453h19.922v14.453z"/>
     </defs>
     <g transform="translate(109.2 37.5) scale(.12 -.12)">
      <use xlink:href="#SimHei-21464"/>
      <use x="100" xlink:href="#SimHei-33394"/>
      <use x="200" xlink:href="#SimHei-40482"/>
      <use x="300" xlink:href="#SimHei-23614"/>
     </g>
    </g>
    <g id="PathCollection_6">
     <use x="87.6" y="51.366" fill="#ff0000" stroke="#000000" xlink:href="#m828330980d"/>
    </g>
    <g id="text_3">
     <!-- 维吉尼亚鸢尾 -->
     <defs>
      <path id="SimHei-32500" d="m17.969 79.297q4.2969-1.5625 9.375-2.3438-3.5156-3.5156-7.0312-11.922-3.5156-8.3906-7.4219-16.594 5.4688 0.78125 10.938 1.1719 3.9062 8.5938 4.6875 13.281 4.2969-1.5625 8.5938-2.7344-2.3438-2.7344-6.6406-10.75-4.2969-8-12.891-24.797 11.719 1.5625 17.578 2.3438-1.5625-4.6875-1.9531-7.4219-5.0781 0-11.531-0.98438-6.4375-0.96875-12.688-2.9219-1.5625 4.6875-2.3438 8.2031 3.5156 1.5625 7.0312 7.0312t7.0312 12.5q-4.2969-0.39062-8.0156-0.98438-3.7031-0.57812-6.4375-1.75-1.1719 3.125-3.125 7.4219 3.5156 2.3438 7.6094 11.516 4.1094 9.1875 7.2344 19.734zm-14.062-74.219q7.8125 0.78125 14.641 1.75 6.8438 0.98438 20.125 3.7188-0.39062-3.9062-0.39062-7.0312-7.0312-1.1719-15.625-2.9375-8.5938-1.75-15.625-4.4844-1.5625 4.2969-3.125 8.9844zm44.531 75.391q4.2969-1.5625 9.375-2.7344-1.9531-2.3438-3.5156-6.4531-1.5625-4.0938-2.7344-7.6094h25q7.8125 0 14.062 0.39062v-6.6406q-6.6406 0.39062-14.062 0.39062h-3.9062v-13.281q9.375 0 15.234 0.39062v-6.6406q-5.8594 0.39062-15.234 0.39062v-13.672q9.7656 0 15.625 0.39062v-6.6406q-5.8594 0.39062-15.625 0.39062v-13.672h6.25q7.8125 0 15.625 0.39062v-6.6406q-7.8125 0.39062-15.625 0.39062h-28.125v-8.5938h-7.4219q0.39062 7.0312 0.39062 19.531v36.719q-2.3438-5.4688-5.0781-10.547-3.9062 2.7344-6.6406 4.2969 3.5156 4.6875 6.25 9.9531 2.7344 5.2812 6.0469 14.453 3.3281 9.1875 4.1094 15.047zm15.625-3.9062q3.125 1.5625 6.25 3.5156 1.5625-2.3438 6.25-11.328-3.125-1.1719-6.6406-3.125-1.9531 4.6875-5.8594 10.938zm-13.281-18.75v-13.281h14.844v13.281zm0-19.141v-13.672h14.844v13.672zm0-19.531v-13.672h14.844v13.672z"/>
      <path id="SimHei-21513" d="m7.0312 65.234q8.2031-0.39062 16.016-0.39062h23.047q0 10.547-0.39062 14.844h8.2031q-0.39062-4.2969-0.39062-14.844h25.391q6.6406 0 13.672 0.39062v-7.0312q-6.6406 0.39062-13.672 0.39062h-25.391v-14.453h17.969q8.5938 0 14.453 0.39062v-7.0312q-5.8594 0.39062-14.453 0.39062h-39.844q-9.7656 0-17.969-0.39062v7.0312q8.2031-0.39062 17.969-0.39062h14.453v14.453h-22.656q-8.2031 0-16.406-0.39062zm11.719-39.062h62.5q-0.39062-5.8594-0.39062-11.719v-11.328q0-6.25 0.39062-12.109h-7.8125v5.8594h-46.875v-7.0312h-7.8125q0.39062 5.8594 0.39062 11.719v12.891q0 5.8594-0.39062 11.719zm7.8125-6.25v-16.797h46.875v16.797z"/>
      <path id="SimHei-23612" d="m81.641 11.719q3.9062-2.3438 8.9844-3.5156-0.78125-14.062-10.156-14.062h-31.641q-8.5938 0-8.5938 8.9844v21.484q0 8.9844-0.39062 16.016h8.2031q-0.39062-6.25-0.39062-13.281v-7.4219q6.25 1.9531 12.891 5.0781t19.141 11.719q3.9062-5.8594 6.6406-8.2031-10.156-3.9062-19.922-8.4062-9.7656-4.4844-18.359-7.2188v-6.6406q0-6.25 5.4688-6.25h22.266q5.8594 0 5.8594 11.719zm-67.969-19.922q-5.4688 3.5156-8.5938 4.6875 5.8594 5.8594 8.7812 11.719 2.9375 5.8594 4.5 12.688 1.5625 6.8438 1.9531 15.047t0.39062 15.625-0.78125 22.266h63.672q-0.39062-6.6406-0.59375-13.281-0.1875-6.6406 0.59375-13.281h-55.469q-0.39062-9.375-1.1719-19.344-0.78125-9.9531-4.1094-18.547-3.3125-8.5938-9.1719-17.578zm14.453 76.172v-14.844h48.047v14.844z"/>
      <path id="SimHei-20122" d="m9.7656 74.219q7.8125-0.39062 16.406-0.39062h46.484q8.2031 0 15.625 0.39062v-7.4219q-7.0312 0.39062-15.625 0.39062h-10.938v-65.234h12.891q9.7656 0 19.922 0.39062v-7.4219q-9.7656 0.39062-19.531 0.39062h-51.953q-8.9844 0-17.578-0.39062v7.4219q8.5938-0.39062 17.578-0.39062h12.109v65.234h-8.9844q-8.5938 0-16.406-0.39062zm32.812-7.0312v-65.234h11.719v65.234zm-32.422-16.406q3.9062 1.1719 7.8125 2.7344 2.3438-5.8594 4.6875-13.094 2.3438-7.2188 5.0781-18.938-3.9062-1.1719-8.5938-2.7344-1.1719 10.156-8.9844 32.031zm68.359 4.6875q4.2969-1.9531 9.7656-3.9062-3.9062-6.6406-7.0312-13.875-3.125-7.2188-7.0312-18.938-4.2969 2.7344-7.8125 3.9062 10.547 21.875 12.109 32.812z"/>
     </defs>
     <g transform="translate(109.2 54.516) scale(.12 -.12)">
      <use xlink:href="#SimHei-32500"/>
      <use x="100" xlink:href="#SimHei-21513"/>
      <use x="200" xlink:href="#SimHei-23612"/>
      <use x="300" xlink:href="#SimHei-20122"/>
      <use x="400" xlink:href="#SimHei-40482"/>
      <use x="500" xlink:href="#SimHei-23614"/>
     </g>
    </g>
   </g>
  </g>
 </g>
 <defs>
  <clipPath id="p157e2c31b8">
   <rect x="64.8" y=".216" width="302.4" height="214.7"/>
  </clipPath>
 </defs>
</svg>
