<?xml version="1.0" encoding="UTF-8"?>
<!DOCTYPE svg  PUBLIC '-//W3C//DTD SVG 1.1//EN'  'http://www.w3.org/Graphics/SVG/1.1/DTD/svg11.dtd'>
<!-- Created with matplotlib (https://matplotlib.org/) -->
<svg width="288pt" height="288pt" version="1.1" viewBox="0 0 288 288" xmlns="http://www.w3.org/2000/svg" xmlns:xlink="http://www.w3.org/1999/xlink">
 <defs>
  <style type="text/css">*{stroke-linecap:butt;stroke-linejoin:round;}</style>
 </defs>
 <g id="figure_1">
  <g id="patch_1">
   <path d="m0 288h288v-288h-288z" fill="#fff"/>
  </g>
  <g id="axes_1">
   <g id="patch_2">
    <path d="m0.288 55.659h70.794v-55.371h-70.794z" fill="#fff"/>
   </g>
   <g id="PathCollection_1">
    <defs>
     <path id="m3fb7adbfdb" d="m-2 2 4-4m-4 0 4 4" stroke="#00f" stroke-opacity=".8" stroke-width="1.5"/>
    </defs>
    <g clip-path="url(#p079e2953c0)" fill="#0000ff" fill-opacity=".8" stroke="#0000ff" stroke-opacity=".8" stroke-width="1.5">
     <use x="46.304158" y="19.667749" xlink:href="#m3fb7adbfdb"/>
     <use x="25.065931" y="19.667749" xlink:href="#m3fb7adbfdb"/>
     <use x="25.065931" y="36.278962" xlink:href="#m3fb7adbfdb"/>
     <use x="46.304158" y="36.278962" xlink:href="#m3fb7adbfdb"/>
    </g>
   </g>
   <g id="matplotlib.axis_1">
    <g id="text_1">
     <!-- 1 -->
     <defs>
      <path id="SimHei-49" d="m30.469 1.5625h-8.9844v51.953h-11.719v4.6875q7.0312 0 10.938 2.7344t5.0781 8.2031h4.6875z"/>
     </defs>
     <g transform="translate(32.685 67.862) scale(.12 -.12)">
      <use xlink:href="#SimHei-49"/>
     </g>
    </g>
   </g>
   <g id="patch_3">
    <path d="m0.288 55.659v-55.371" fill="none" stroke="#000" stroke-linecap="square" stroke-width=".8"/>
   </g>
   <g id="patch_4">
    <path d="m71.082 55.659v-55.371" fill="none" stroke="#000" stroke-linecap="square" stroke-width=".8"/>
   </g>
   <g id="patch_5">
    <path d="m0.288 55.659h70.794" fill="none" stroke="#000" stroke-linecap="square" stroke-width=".8"/>
   </g>
   <g id="patch_6">
    <path d="m0.288 0.288h70.794" fill="none" stroke="#000" stroke-linecap="square" stroke-width=".8"/>
   </g>
  </g>
  <g id="axes_2">
   <g id="patch_7">
    <path d="m72.498 55.659h70.794v-55.371h-70.794z" fill="#fff"/>
   </g>
   <g id="PathCollection_2">
    <g clip-path="url(#p1db15ecb66)">
     <use x="97.275901" y="19.667749" fill="#0000ff" fill-opacity=".8" stroke="#0000ff" stroke-opacity=".8" stroke-width="1.5" xlink:href="#m3fb7adbfdb"/>
    </g>
   </g>
   <g id="PathCollection_3">
    <defs>
     <path id="mb79794caff" d="m0 2c0.53041 0 1.0392-0.21073 1.4142-0.58579 0.37505-0.37505 0.58579-0.88381 0.58579-1.4142s-0.21073-1.0392-0.58579-1.4142c-0.37505-0.37505-0.88381-0.58579-1.4142-0.58579s-1.0392 0.21073-1.4142 0.58579c-0.37505 0.37505-0.58579 0.88381-0.58579 1.4142s0.21073 1.0392 0.58579 1.4142c0.37505 0.37505 0.88381 0.58579 1.4142 0.58579z" stroke="#000" stroke-opacity=".8"/>
    </defs>
    <g clip-path="url(#p1db15ecb66)" fill="#ff0000" fill-opacity=".8" stroke="#000000" stroke-opacity=".8">
     <use x="118.514128" y="19.667749" xlink:href="#mb79794caff"/>
     <use x="97.275901" y="36.278962" xlink:href="#mb79794caff"/>
     <use x="118.514128" y="36.278962" xlink:href="#mb79794caff"/>
    </g>
   </g>
   <g id="matplotlib.axis_3">
    <g id="text_2">
     <!-- 2 -->
     <defs>
      <path id="SimHei-50" d="m44.531 1.5625h-39.844v6.25q2.3438 6.25 6.4375 11.516 4.1094 5.2812 11.922 11.922 5.8594 5.0781 8.3906 9.375 2.5469 4.2969 2.5469 9.375t-2.1562 8.3906q-2.1406 3.3281-6.8281 3.3281-3.9062 0-6.8438-3.5156-2.9219-3.5156-2.9219-12.5h-8.9844q0.39062 11.328 5.2656 17.375 4.8906 6.0625 13.875 6.0625 8.5938 0 13.281-5.2812 4.6875-5.2656 4.6875-14.25 0-7.4219-4.2969-12.891t-10.547-10.938q-7.0312-6.25-9.7656-9.375t-5.0781-7.4219h30.859z"/>
     </defs>
     <g transform="translate(104.9 67.862) scale(.12 -.12)">
      <use xlink:href="#SimHei-50"/>
     </g>
    </g>
   </g>
   <g id="patch_8">
    <path d="m72.498 55.659v-55.371" fill="none" stroke="#000" stroke-linecap="square" stroke-width=".8"/>
   </g>
   <g id="patch_9">
    <path d="m143.29 55.659v-55.371" fill="none" stroke="#000" stroke-linecap="square" stroke-width=".8"/>
   </g>
   <g id="patch_10">
    <path d="m72.498 55.659h70.794" fill="none" stroke="#000" stroke-linecap="square" stroke-width=".8"/>
   </g>
   <g id="patch_11">
    <path d="m72.498 0.288h70.794" fill="none" stroke="#000" stroke-linecap="square" stroke-width=".8"/>
   </g>
  </g>
  <g id="axes_3">
   <g id="patch_12">
    <path d="m144.71 55.659h70.794v-55.371h-70.794z" fill="#fff"/>
   </g>
   <g id="PathCollection_4">
    <g clip-path="url(#p8ed4f28574)">
     <use x="190.724099" y="19.667749" fill="#0000ff" fill-opacity=".8" stroke="#0000ff" stroke-opacity=".8" stroke-width="1.5" xlink:href="#m3fb7adbfdb"/>
    </g>
   </g>
   <g id="PathCollection_5">
    <g clip-path="url(#p8ed4f28574)" fill="#ff0000" fill-opacity=".8" stroke="#000000" stroke-opacity=".8">
     <use x="169.485872" y="19.667749" xlink:href="#mb79794caff"/>
     <use x="169.485872" y="36.278962" xlink:href="#mb79794caff"/>
     <use x="190.724099" y="36.278962" xlink:href="#mb79794caff"/>
    </g>
   </g>
   <g id="matplotlib.axis_5">
    <g id="text_3">
     <!-- 3 -->
     <defs>
      <path id="SimHei-51" d="m44.141 20.312q0-8.9844-5.6719-14.266-5.6562-5.2656-14.25-5.2656t-14.266 5.2656q-5.6562 5.2812-5.6562 16.219h8.9844q0-7.4219 2.9219-10.75 2.9375-3.3125 8.0156-3.3125t7.8125 3.125 2.7344 9.7656q0 5.4688-2.9375 8.5938-2.9219 3.125-10.344 3.125v6.6406q6.25 0 9.1719 3.125 2.9375 3.125 2.9375 9.375 0 4.6875-2.1562 7.4219-2.1406 2.7344-6.8281 2.7344t-7.2344-3.3281q-2.5312-3.3125-2.9219-9.5625h-8.5938q0.78125 8.9844 5.6562 14.453 4.8906 5.4688 13.094 5.4688 8.5938 0 13.281-4.8906 4.6875-4.875 4.6875-11.906 0-6.6406-2.3438-10.359-2.3438-3.7031-7.8125-5.6562 5.4688-1.1719 8.5938-5.4688t3.125-10.547z"/>
     </defs>
     <g transform="translate(177.1 67.862) scale(.12 -.12)">
      <use xlink:href="#SimHei-51"/>
     </g>
    </g>
   </g>
   <g id="patch_13">
    <path d="m144.71 55.659v-55.371" fill="none" stroke="#000" stroke-linecap="square" stroke-width=".8"/>
   </g>
   <g id="patch_14">
    <path d="m215.5 55.659v-55.371" fill="none" stroke="#000" stroke-linecap="square" stroke-width=".8"/>
   </g>
   <g id="patch_15">
    <path d="m144.71 55.659h70.794" fill="none" stroke="#000" stroke-linecap="square" stroke-width=".8"/>
   </g>
   <g id="patch_16">
    <path d="m144.71 0.288h70.794" fill="none" stroke="#000" stroke-linecap="square" stroke-width=".8"/>
   </g>
  </g>
  <g id="axes_4">
   <g id="patch_17">
    <path d="m216.92 55.659h70.794v-55.371h-70.794z" fill="#fff"/>
   </g>
   <g id="PathCollection_6">
    <g clip-path="url(#p17d44a670f)" fill="#0000ff" fill-opacity=".8" stroke="#0000ff" stroke-opacity=".8" stroke-width="1.5">
     <use x="262.934069" y="19.667749" xlink:href="#m3fb7adbfdb"/>
     <use x="241.695842" y="19.667749" xlink:href="#m3fb7adbfdb"/>
    </g>
   </g>
   <g id="PathCollection_7">
    <g clip-path="url(#p17d44a670f)" fill="#ff0000" fill-opacity=".8" stroke="#000000" stroke-opacity=".8">
     <use x="241.695842" y="36.278962" xlink:href="#mb79794caff"/>
     <use x="262.934069" y="36.278962" xlink:href="#mb79794caff"/>
    </g>
   </g>
   <g id="matplotlib.axis_7">
    <g id="text_4">
     <!-- 4 -->
     <defs>
      <path id="SimHei-52" d="m46.484 18.75h-8.2031v-17.188h-8.9844v17.188h-26.172v7.4219l26.172 42.969h8.9844v-42.969h8.2031zm-17.188 7.4219v28.906l-17.578-28.906z"/>
     </defs>
     <g transform="translate(249.31 67.862) scale(.12 -.12)">
      <use xlink:href="#SimHei-52"/>
     </g>
    </g>
   </g>
   <g id="patch_18">
    <path d="m216.92 55.659v-55.371" fill="none" stroke="#000" stroke-linecap="square" stroke-width=".8"/>
   </g>
   <g id="patch_19">
    <path d="m287.71 55.659v-55.371" fill="none" stroke="#000" stroke-linecap="square" stroke-width=".8"/>
   </g>
   <g id="patch_20">
    <path d="m216.92 55.659h70.794" fill="none" stroke="#000" stroke-linecap="square" stroke-width=".8"/>
   </g>
   <g id="patch_21">
    <path d="m216.92 0.288h70.794" fill="none" stroke="#000" stroke-linecap="square" stroke-width=".8"/>
   </g>
  </g>
  <g id="axes_5">
   <g id="patch_22">
    <path d="m0.288 125.43h70.794v-55.371h-70.794z" fill="#fff"/>
   </g>
   <g id="PathCollection_8">
    <g clip-path="url(#p579897a68e)">
     <use x="25.065931" y="106.046059" fill="#0000ff" fill-opacity=".8" stroke="#0000ff" stroke-opacity=".8" stroke-width="1.5" xlink:href="#m3fb7adbfdb"/>
    </g>
   </g>
   <g id="PathCollection_9">
    <g clip-path="url(#p579897a68e)" fill="#ff0000" fill-opacity=".8" stroke="#000000" stroke-opacity=".8">
     <use x="46.304158" y="89.434845" xlink:href="#mb79794caff"/>
     <use x="25.065931" y="89.434845" xlink:href="#mb79794caff"/>
     <use x="46.304158" y="106.046059" xlink:href="#mb79794caff"/>
    </g>
   </g>
   <g id="matplotlib.axis_9">
    <g id="text_5">
     <!-- 5 -->
     <defs>
      <path id="SimHei-53" d="m44.141 25.781q0-11.719-5.6719-18.359-5.6562-6.6406-15.031-6.6406-8.2031 0-13.484 5.4688-5.2656 5.4688-5.6562 14.844h8.9844q0-5.8594 2.7344-9.375t7.8125-3.5156 8 4.2969q2.9375 4.2969 2.9375 13.281 0 7.8125-2.5469 11.516-2.5312 3.7188-6.8281 3.7188-3.5156 0-6.0625-1.5625-2.5312-1.5625-4.875-5.4688h-7.8125l2.3438 34.375h33.594v-7.4219h-26.172l-1.5625-17.969q2.3438 2.3438 5.0781 3.5156t7.4219 1.1719q7.4219 0 12.109-5.6719 4.6875-5.6562 4.6875-16.203z"/>
     </defs>
     <g transform="translate(32.685 137.63) scale(.12 -.12)">
      <use xlink:href="#SimHei-53"/>
     </g>
    </g>
   </g>
   <g id="patch_23">
    <path d="m0.288 125.43v-55.371" fill="none" stroke="#000" stroke-linecap="square" stroke-width=".8"/>
   </g>
   <g id="patch_24">
    <path d="m71.082 125.43v-55.371" fill="none" stroke="#000" stroke-linecap="square" stroke-width=".8"/>
   </g>
   <g id="patch_25">
    <path d="m0.288 125.43h70.794" fill="none" stroke="#000" stroke-linecap="square" stroke-width=".8"/>
   </g>
   <g id="patch_26">
    <path d="m0.288 70.055h70.794" fill="none" stroke="#000" stroke-linecap="square" stroke-width=".8"/>
   </g>
  </g>
  <g id="axes_6">
   <g id="patch_27">
    <path d="m72.498 125.43h70.794v-55.371h-70.794z" fill="#fff"/>
   </g>
   <g id="PathCollection_10">
    <g clip-path="url(#pa66f3168b5)" fill="#0000ff" fill-opacity=".8" stroke="#0000ff" stroke-opacity=".8" stroke-width="1.5">
     <use x="97.275901" y="89.434845" xlink:href="#m3fb7adbfdb"/>
     <use x="97.275901" y="106.046059" xlink:href="#m3fb7adbfdb"/>
    </g>
   </g>
   <g id="PathCollection_11">
    <g clip-path="url(#pa66f3168b5)" fill="#ff0000" fill-opacity=".8" stroke="#000000" stroke-opacity=".8">
     <use x="118.514128" y="89.434845" xlink:href="#mb79794caff"/>
     <use x="118.514128" y="106.046059" xlink:href="#mb79794caff"/>
    </g>
   </g>
   <g id="matplotlib.axis_11">
    <g id="text_6">
     <!-- 6 -->
     <defs>
      <path id="SimHei-54" d="m44.531 24.219q0-10.938-4.6875-17.188t-14.062-6.25-14.844 7.8125-5.4688 25.391q0 16.016 5.6562 25.578 5.6719 9.5781 16.219 9.5781 7.4219 0 11.906-5.4688 4.5-5.4688 4.5-12.109h-8.9844q0 3.9062-2.1562 7.0312-2.1406 3.125-5.6562 3.125-5.8594 0-8.9844-6.0625-3.125-6.0469-3.5156-18.547 2.7344 5.0781 5.8594 7.0312t7.4219 1.9531q7.4219 0 12.109-5.8594t4.6875-16.016zm-9.375 0q0 7.0312-2.3438 10.938t-6.6406 3.9062q-5.0781 0-8.0156-3.9062-2.9219-3.9062-2.9219-9.375 0-8.5938 2.9219-13.281 2.9375-4.6875 8.0156-4.6875 3.5156 0 6.25 3.5156t2.7344 12.891z"/>
     </defs>
     <g transform="translate(104.9 137.63) scale(.12 -.12)">
      <use xlink:href="#SimHei-54"/>
     </g>
    </g>
   </g>
   <g id="patch_28">
    <path d="m72.498 125.43v-55.371" fill="none" stroke="#000" stroke-linecap="square" stroke-width=".8"/>
   </g>
   <g id="patch_29">
    <path d="m143.29 125.43v-55.371" fill="none" stroke="#000" stroke-linecap="square" stroke-width=".8"/>
   </g>
   <g id="patch_30">
    <path d="m72.498 125.43h70.794" fill="none" stroke="#000" stroke-linecap="square" stroke-width=".8"/>
   </g>
   <g id="patch_31">
    <path d="m72.498 70.055h70.794" fill="none" stroke="#000" stroke-linecap="square" stroke-width=".8"/>
   </g>
  </g>
  <g id="axes_7">
   <g id="patch_32">
    <path d="m144.71 125.43h70.794v-55.371h-70.794z" fill="#fff"/>
   </g>
   <g id="PathCollection_12">
    <g clip-path="url(#p3fd4772853)" fill="#0000ff" fill-opacity=".8" stroke="#0000ff" stroke-opacity=".8" stroke-width="1.5">
     <use x="190.724099" y="89.434845" xlink:href="#m3fb7adbfdb"/>
     <use x="169.485872" y="106.046059" xlink:href="#m3fb7adbfdb"/>
    </g>
   </g>
   <g id="PathCollection_13">
    <g clip-path="url(#p3fd4772853)" fill="#ff0000" fill-opacity=".8" stroke="#000000" stroke-opacity=".8">
     <use x="169.485872" y="89.434845" xlink:href="#mb79794caff"/>
     <use x="190.724099" y="106.046059" xlink:href="#mb79794caff"/>
    </g>
   </g>
   <g id="matplotlib.axis_13">
    <g id="text_7">
     <!-- 7 -->
     <defs>
      <path id="SimHei-55" d="m43.359 60.156-18.359-58.594h-8.9844l18.75 59.375h-28.516v7.4219h37.109z"/>
     </defs>
     <g transform="translate(177.1 137.63) scale(.12 -.12)">
      <use xlink:href="#SimHei-55"/>
     </g>
    </g>
   </g>
   <g id="patch_33">
    <path d="m144.71 125.43v-55.371" fill="none" stroke="#000" stroke-linecap="square" stroke-width=".8"/>
   </g>
   <g id="patch_34">
    <path d="m215.5 125.43v-55.371" fill="none" stroke="#000" stroke-linecap="square" stroke-width=".8"/>
   </g>
   <g id="patch_35">
    <path d="m144.71 125.43h70.794" fill="none" stroke="#000" stroke-linecap="square" stroke-width=".8"/>
   </g>
   <g id="patch_36">
    <path d="m144.71 70.055h70.794" fill="none" stroke="#000" stroke-linecap="square" stroke-width=".8"/>
   </g>
  </g>
  <g id="axes_8">
   <g id="patch_37">
    <path d="m216.92 125.43h70.794v-55.371h-70.794z" fill="#fff"/>
   </g>
   <g id="PathCollection_14">
    <g clip-path="url(#pef202c3a16)" fill="#0000ff" fill-opacity=".8" stroke="#0000ff" stroke-opacity=".8" stroke-width="1.5">
     <use x="262.934069" y="89.434845" xlink:href="#m3fb7adbfdb"/>
     <use x="241.695842" y="89.434845" xlink:href="#m3fb7adbfdb"/>
     <use x="241.695842" y="106.046059" xlink:href="#m3fb7adbfdb"/>
    </g>
   </g>
   <g id="PathCollection_15">
    <g clip-path="url(#pef202c3a16)">
     <use x="262.934069" y="106.046059" fill="#ff0000" fill-opacity=".8" stroke="#000000" stroke-opacity=".8" xlink:href="#mb79794caff"/>
    </g>
   </g>
   <g id="matplotlib.axis_15">
    <g id="text_8">
     <!-- 8 -->
     <defs>
      <path id="SimHei-56" d="m44.922 20.703q0-9.7656-5.4688-14.844t-14.844-5.0781-14.844 5.0781-5.4688 14.844q0 5.0781 3.125 9.1719 3.125 4.1094 8.5938 6.0625-4.6875 1.9531-7.2344 5.4688-2.5312 3.5156-2.5312 8.9844 0 8.5938 5.4688 13.672t12.891 5.0781 12.891-5.0781 5.4688-13.672q0-5.4688-2.5469-8.9844-2.5312-3.5156-7.2188-5.4688 5.4688-1.9531 8.5938-6.0625 3.125-4.0938 3.125-9.1719zm-10.547 29.688q0 6.25-2.7344 8.9844t-7.0312 2.7344-7.0312-2.7344-2.7344-8.9844 2.9219-8.7969q2.9375-2.5312 6.8438-2.5312t6.8281 2.5312q2.9375 2.5469 2.9375 8.7969zm1.5625-29.688q0 5.4688-2.9375 8.5938-2.9219 3.125-8.3906 3.125t-8.4062-3.125q-2.9219-3.125-2.9219-8.5938 0-6.25 3.125-9.5781 3.125-3.3125 8.2031-3.3125t8.2031 3.3125q3.125 3.3281 3.125 9.5781z"/>
     </defs>
     <g transform="translate(249.31 137.63) scale(.12 -.12)">
      <use xlink:href="#SimHei-56"/>
     </g>
    </g>
   </g>
   <g id="patch_38">
    <path d="m216.92 125.43v-55.371" fill="none" stroke="#000" stroke-linecap="square" stroke-width=".8"/>
   </g>
   <g id="patch_39">
    <path d="m287.71 125.43v-55.371" fill="none" stroke="#000" stroke-linecap="square" stroke-width=".8"/>
   </g>
   <g id="patch_40">
    <path d="m216.92 125.43h70.794" fill="none" stroke="#000" stroke-linecap="square" stroke-width=".8"/>
   </g>
   <g id="patch_41">
    <path d="m216.92 70.055h70.794" fill="none" stroke="#000" stroke-linecap="square" stroke-width=".8"/>
   </g>
  </g>
  <g id="axes_9">
   <g id="patch_42">
    <path d="m0.288 195.19h70.794v-55.371h-70.794z" fill="#fff"/>
   </g>
   <g id="PathCollection_16">
    <g clip-path="url(#p15afe1bc68)">
     <use x="46.304158" y="175.813155" fill="#0000ff" fill-opacity=".8" stroke="#0000ff" stroke-opacity=".8" stroke-width="1.5" xlink:href="#m3fb7adbfdb"/>
    </g>
   </g>
   <g id="PathCollection_17">
    <g clip-path="url(#p15afe1bc68)" fill="#ff0000" fill-opacity=".8" stroke="#000000" stroke-opacity=".8">
     <use x="46.304158" y="159.201941" xlink:href="#mb79794caff"/>
     <use x="25.065931" y="159.201941" xlink:href="#mb79794caff"/>
     <use x="25.065931" y="175.813155" xlink:href="#mb79794caff"/>
    </g>
   </g>
   <g id="matplotlib.axis_17">
    <g id="text_9">
     <!-- 9 -->
     <defs>
      <path id="SimHei-57" d="m44.141 35.938q0-16.016-5.6719-25.594-5.6562-9.5625-16.203-9.5625-7.4219 0-11.922 5.4688-4.4844 5.4688-4.4844 12.109h8.9844q0-3.9062 2.1406-7.0312 2.1562-3.125 5.6719-3.125 5.8594 0 8.7812 6.6406 2.9375 6.6406 3.7188 19.531-1.9531-4.2969-5.4688-6.6406t-7.8125-2.3438q-7.4219 0-12.109 5.4688t-4.6875 15.625 4.6875 16.406 14.062 6.25 14.844-7.8125 5.4688-25.391zm-9.7656 8.9844q0 8.5938-2.9375 12.891-2.9219 4.2969-8 4.2969-3.5156 0-6.25-3.3281-2.7344-3.3125-2.7344-12.297 0-6.6406 2.1406-10.359 2.1562-3.7031 6.8438-3.7031 5.0781 0 8 3.5156 2.9375 3.5156 2.9375 8.9844z"/>
     </defs>
     <g transform="translate(32.685 207.4) scale(.12 -.12)">
      <use xlink:href="#SimHei-57"/>
     </g>
    </g>
   </g>
   <g id="patch_43">
    <path d="m0.288 195.19v-55.371" fill="none" stroke="#000" stroke-linecap="square" stroke-width=".8"/>
   </g>
   <g id="patch_44">
    <path d="m71.082 195.19v-55.371" fill="none" stroke="#000" stroke-linecap="square" stroke-width=".8"/>
   </g>
   <g id="patch_45">
    <path d="m0.288 195.19h70.794" fill="none" stroke="#000" stroke-linecap="square" stroke-width=".8"/>
   </g>
   <g id="patch_46">
    <path d="m0.288 139.82h70.794" fill="none" stroke="#000" stroke-linecap="square" stroke-width=".8"/>
   </g>
  </g>
  <g id="axes_10">
   <g id="patch_47">
    <path d="m72.498 195.19h70.794v-55.371h-70.794z" fill="#fff"/>
   </g>
   <g id="PathCollection_18">
    <g clip-path="url(#p8094fc05fb)" fill="#0000ff" fill-opacity=".8" stroke="#0000ff" stroke-opacity=".8" stroke-width="1.5">
     <use x="97.275901" y="159.201941" xlink:href="#m3fb7adbfdb"/>
     <use x="118.514128" y="175.813155" xlink:href="#m3fb7adbfdb"/>
    </g>
   </g>
   <g id="PathCollection_19">
    <g clip-path="url(#p8094fc05fb)" fill="#ff0000" fill-opacity=".8" stroke="#000000" stroke-opacity=".8">
     <use x="118.514128" y="159.201941" xlink:href="#mb79794caff"/>
     <use x="97.275901" y="175.813155" xlink:href="#mb79794caff"/>
    </g>
   </g>
   <g id="matplotlib.axis_19">
    <g id="text_10">
     <!-- 10 -->
     <defs>
      <path id="SimHei-48" d="m46.484 35.156q0-14.062-5.0781-24.219t-16.406-10.156-16.609 10.156q-5.2656 10.156-5.2656 24.219t5.2656 24.016q5.2812 9.9688 16.609 9.9688t16.406-9.9688q5.0781-9.9531 5.0781-24.016zm-9.375 0q0 12.5-2.9375 19.531-2.9219 7.0312-9.1719 7.0312t-9.375-7.0312-3.125-19.531 3.125-19.734q3.125-7.2188 9.375-7.2188t9.1719 7.2188q2.9375 7.2344 2.9375 19.734z"/>
     </defs>
     <g transform="translate(101.9 207.4) scale(.12 -.12)">
      <use xlink:href="#SimHei-49"/>
      <use x="50" xlink:href="#SimHei-48"/>
     </g>
    </g>
   </g>
   <g id="patch_48">
    <path d="m72.498 195.19v-55.371" fill="none" stroke="#000" stroke-linecap="square" stroke-width=".8"/>
   </g>
   <g id="patch_49">
    <path d="m143.29 195.19v-55.371" fill="none" stroke="#000" stroke-linecap="square" stroke-width=".8"/>
   </g>
   <g id="patch_50">
    <path d="m72.498 195.19h70.794" fill="none" stroke="#000" stroke-linecap="square" stroke-width=".8"/>
   </g>
   <g id="patch_51">
    <path d="m72.498 139.82h70.794" fill="none" stroke="#000" stroke-linecap="square" stroke-width=".8"/>
   </g>
  </g>
  <g id="axes_11">
   <g id="patch_52">
    <path d="m144.71 195.19h70.794v-55.371h-70.794z" fill="#fff"/>
   </g>
   <g id="PathCollection_20">
    <g clip-path="url(#pb5c9163402)" fill="#0000ff" fill-opacity=".8" stroke="#0000ff" stroke-opacity=".8" stroke-width="1.5">
     <use x="190.724099" y="159.201941" xlink:href="#m3fb7adbfdb"/>
     <use x="190.724099" y="175.813155" xlink:href="#m3fb7adbfdb"/>
    </g>
   </g>
   <g id="PathCollection_21">
    <g clip-path="url(#pb5c9163402)" fill="#ff0000" fill-opacity=".8" stroke="#000000" stroke-opacity=".8">
     <use x="169.485872" y="159.201941" xlink:href="#mb79794caff"/>
     <use x="169.485872" y="175.813155" xlink:href="#mb79794caff"/>
    </g>
   </g>
   <g id="matplotlib.axis_21">
    <g id="text_11">
     <!-- 11 -->
     <g transform="translate(174.1 207.4) scale(.12 -.12)">
      <use xlink:href="#SimHei-49"/>
      <use x="50" xlink:href="#SimHei-49"/>
     </g>
    </g>
   </g>
   <g id="patch_53">
    <path d="m144.71 195.19v-55.371" fill="none" stroke="#000" stroke-linecap="square" stroke-width=".8"/>
   </g>
   <g id="patch_54">
    <path d="m215.5 195.19v-55.371" fill="none" stroke="#000" stroke-linecap="square" stroke-width=".8"/>
   </g>
   <g id="patch_55">
    <path d="m144.71 195.19h70.794" fill="none" stroke="#000" stroke-linecap="square" stroke-width=".8"/>
   </g>
   <g id="patch_56">
    <path d="m144.71 139.82h70.794" fill="none" stroke="#000" stroke-linecap="square" stroke-width=".8"/>
   </g>
  </g>
  <g id="axes_12">
   <g id="patch_57">
    <path d="m216.92 195.19h70.794v-55.371h-70.794z" fill="#fff"/>
   </g>
   <g id="PathCollection_22">
    <g clip-path="url(#peed81bd06b)" fill="#0000ff" fill-opacity=".8" stroke="#0000ff" stroke-opacity=".8" stroke-width="1.5">
     <use x="262.934069" y="159.201941" xlink:href="#m3fb7adbfdb"/>
     <use x="241.695842" y="159.201941" xlink:href="#m3fb7adbfdb"/>
     <use x="262.934069" y="175.813155" xlink:href="#m3fb7adbfdb"/>
    </g>
   </g>
   <g id="PathCollection_23">
    <g clip-path="url(#peed81bd06b)">
     <use x="241.695842" y="175.813155" fill="#ff0000" fill-opacity=".8" stroke="#000000" stroke-opacity=".8" xlink:href="#mb79794caff"/>
    </g>
   </g>
   <g id="matplotlib.axis_23">
    <g id="text_12">
     <!-- 12 -->
     <g transform="translate(246.31 207.4) scale(.12 -.12)">
      <use xlink:href="#SimHei-49"/>
      <use x="50" xlink:href="#SimHei-50"/>
     </g>
    </g>
   </g>
   <g id="patch_58">
    <path d="m216.92 195.19v-55.371" fill="none" stroke="#000" stroke-linecap="square" stroke-width=".8"/>
   </g>
   <g id="patch_59">
    <path d="m287.71 195.19v-55.371" fill="none" stroke="#000" stroke-linecap="square" stroke-width=".8"/>
   </g>
   <g id="patch_60">
    <path d="m216.92 195.19h70.794" fill="none" stroke="#000" stroke-linecap="square" stroke-width=".8"/>
   </g>
   <g id="patch_61">
    <path d="m216.92 139.82h70.794" fill="none" stroke="#000" stroke-linecap="square" stroke-width=".8"/>
   </g>
  </g>
  <g id="axes_13">
   <g id="patch_62">
    <path d="m0.288 264.96h70.794v-55.371h-70.794z" fill="#fff"/>
   </g>
   <g id="PathCollection_24">
    <g clip-path="url(#p880b74e031)" fill="#0000ff" fill-opacity=".8" stroke="#0000ff" stroke-opacity=".8" stroke-width="1.5">
     <use x="25.065931" y="245.580251" xlink:href="#m3fb7adbfdb"/>
     <use x="46.304158" y="245.580251" xlink:href="#m3fb7adbfdb"/>
    </g>
   </g>
   <g id="PathCollection_25">
    <g clip-path="url(#p880b74e031)" fill="#ff0000" fill-opacity=".8" stroke="#000000" stroke-opacity=".8">
     <use x="46.304158" y="228.969038" xlink:href="#mb79794caff"/>
     <use x="25.065931" y="228.969038" xlink:href="#mb79794caff"/>
    </g>
   </g>
   <g id="matplotlib.axis_25">
    <g id="text_13">
     <!-- 13 -->
     <g transform="translate(29.685 277.16) scale(.12 -.12)">
      <use xlink:href="#SimHei-49"/>
      <use x="50" xlink:href="#SimHei-51"/>
     </g>
    </g>
   </g>
   <g id="patch_63">
    <path d="m0.288 264.96v-55.371" fill="none" stroke="#000" stroke-linecap="square" stroke-width=".8"/>
   </g>
   <g id="patch_64">
    <path d="m71.082 264.96v-55.371" fill="none" stroke="#000" stroke-linecap="square" stroke-width=".8"/>
   </g>
   <g id="patch_65">
    <path d="m0.288 264.96h70.794" fill="none" stroke="#000" stroke-linecap="square" stroke-width=".8"/>
   </g>
   <g id="patch_66">
    <path d="m0.288 209.59h70.794" fill="none" stroke="#000" stroke-linecap="square" stroke-width=".8"/>
   </g>
  </g>
  <g id="axes_14">
   <g id="patch_67">
    <path d="m72.498 264.96h70.794v-55.371h-70.794z" fill="#fff"/>
   </g>
   <g id="PathCollection_26">
    <g clip-path="url(#pe405abfe4c)" fill="#0000ff" fill-opacity=".8" stroke="#0000ff" stroke-opacity=".8" stroke-width="1.5">
     <use x="97.275901" y="228.969038" xlink:href="#m3fb7adbfdb"/>
     <use x="97.275901" y="245.580251" xlink:href="#m3fb7adbfdb"/>
     <use x="118.514128" y="245.580251" xlink:href="#m3fb7adbfdb"/>
    </g>
   </g>
   <g id="PathCollection_27">
    <g clip-path="url(#pe405abfe4c)">
     <use x="118.514128" y="228.969038" fill="#ff0000" fill-opacity=".8" stroke="#000000" stroke-opacity=".8" xlink:href="#mb79794caff"/>
    </g>
   </g>
   <g id="matplotlib.axis_27">
    <g id="text_14">
     <!-- 14 -->
     <g transform="translate(101.9 277.16) scale(.12 -.12)">
      <use xlink:href="#SimHei-49"/>
      <use x="50" xlink:href="#SimHei-52"/>
     </g>
    </g>
   </g>
   <g id="patch_68">
    <path d="m72.498 264.96v-55.371" fill="none" stroke="#000" stroke-linecap="square" stroke-width=".8"/>
   </g>
   <g id="patch_69">
    <path d="m143.29 264.96v-55.371" fill="none" stroke="#000" stroke-linecap="square" stroke-width=".8"/>
   </g>
   <g id="patch_70">
    <path d="m72.498 264.96h70.794" fill="none" stroke="#000" stroke-linecap="square" stroke-width=".8"/>
   </g>
   <g id="patch_71">
    <path d="m72.498 209.59h70.794" fill="none" stroke="#000" stroke-linecap="square" stroke-width=".8"/>
   </g>
  </g>
  <g id="axes_15">
   <g id="patch_72">
    <path d="m144.71 264.96h70.794v-55.371h-70.794z" fill="#fff"/>
   </g>
   <g id="PathCollection_28">
    <g clip-path="url(#pc563d30015)" fill="#0000ff" fill-opacity=".8" stroke="#0000ff" stroke-opacity=".8" stroke-width="1.5">
     <use x="190.724099" y="228.969038" xlink:href="#m3fb7adbfdb"/>
     <use x="169.485872" y="245.580251" xlink:href="#m3fb7adbfdb"/>
     <use x="190.724099" y="245.580251" xlink:href="#m3fb7adbfdb"/>
    </g>
   </g>
   <g id="PathCollection_29">
    <g clip-path="url(#pc563d30015)">
     <use x="169.485872" y="228.969038" fill="#ff0000" fill-opacity=".8" stroke="#000000" stroke-opacity=".8" xlink:href="#mb79794caff"/>
    </g>
   </g>
   <g id="matplotlib.axis_29">
    <g id="text_15">
     <!-- 15 -->
     <g transform="translate(174.1 277.16) scale(.12 -.12)">
      <use xlink:href="#SimHei-49"/>
      <use x="50" xlink:href="#SimHei-53"/>
     </g>
    </g>
   </g>
   <g id="patch_73">
    <path d="m144.71 264.96v-55.371" fill="none" stroke="#000" stroke-linecap="square" stroke-width=".8"/>
   </g>
   <g id="patch_74">
    <path d="m215.5 264.96v-55.371" fill="none" stroke="#000" stroke-linecap="square" stroke-width=".8"/>
   </g>
   <g id="patch_75">
    <path d="m144.71 264.96h70.794" fill="none" stroke="#000" stroke-linecap="square" stroke-width=".8"/>
   </g>
   <g id="patch_76">
    <path d="m144.71 209.59h70.794" fill="none" stroke="#000" stroke-linecap="square" stroke-width=".8"/>
   </g>
  </g>
  <g id="axes_16">
   <g id="patch_77">
    <path d="m216.92 264.96h70.794v-55.371h-70.794z" fill="#fff"/>
   </g>
   <g id="PathCollection_30">
    <g clip-path="url(#pcffd797c6c)" fill="#0000ff" fill-opacity=".8" stroke="#0000ff" stroke-opacity=".8" stroke-width="1.5">
     <use x="262.934069" y="228.969038" xlink:href="#m3fb7adbfdb"/>
     <use x="241.695842" y="228.969038" xlink:href="#m3fb7adbfdb"/>
     <use x="241.695842" y="245.580251" xlink:href="#m3fb7adbfdb"/>
     <use x="262.934069" y="245.580251" xlink:href="#m3fb7adbfdb"/>
    </g>
   </g>
   <g id="matplotlib.axis_31">
    <g id="text_16">
     <!-- 16 -->
     <g transform="translate(246.31 277.16) scale(.12 -.12)">
      <use xlink:href="#SimHei-49"/>
      <use x="50" xlink:href="#SimHei-54"/>
     </g>
    </g>
   </g>
   <g id="patch_78">
    <path d="m216.92 264.96v-55.371" fill="none" stroke="#000" stroke-linecap="square" stroke-width=".8"/>
   </g>
   <g id="patch_79">
    <path d="m287.71 264.96v-55.371" fill="none" stroke="#000" stroke-linecap="square" stroke-width=".8"/>
   </g>
   <g id="patch_80">
    <path d="m216.92 264.96h70.794" fill="none" stroke="#000" stroke-linecap="square" stroke-width=".8"/>
   </g>
   <g id="patch_81">
    <path d="m216.92 209.59h70.794" fill="none" stroke="#000" stroke-linecap="square" stroke-width=".8"/>
   </g>
  </g>
 </g>
 <defs>
  <clipPath id="p079e2953c0">
   <rect x=".288" y=".288" width="70.794" height="55.371"/>
  </clipPath>
  <clipPath id="p1db15ecb66">
   <rect x="72.498" y=".288" width="70.794" height="55.371"/>
  </clipPath>
  <clipPath id="p8ed4f28574">
   <rect x="144.71" y=".288" width="70.794" height="55.371"/>
  </clipPath>
  <clipPath id="p17d44a670f">
   <rect x="216.92" y=".288" width="70.794" height="55.371"/>
  </clipPath>
  <clipPath id="p579897a68e">
   <rect x=".288" y="70.055" width="70.794" height="55.371"/>
  </clipPath>
  <clipPath id="pa66f3168b5">
   <rect x="72.498" y="70.055" width="70.794" height="55.371"/>
  </clipPath>
  <clipPath id="p3fd4772853">
   <rect x="144.71" y="70.055" width="70.794" height="55.371"/>
  </clipPath>
  <clipPath id="pef202c3a16">
   <rect x="216.92" y="70.055" width="70.794" height="55.371"/>
  </clipPath>
  <clipPath id="p15afe1bc68">
   <rect x=".288" y="139.82" width="70.794" height="55.371"/>
  </clipPath>
  <clipPath id="p8094fc05fb">
   <rect x="72.498" y="139.82" width="70.794" height="55.371"/>
  </clipPath>
  <clipPath id="pb5c9163402">
   <rect x="144.71" y="139.82" width="70.794" height="55.371"/>
  </clipPath>
  <clipPath id="peed81bd06b">
   <rect x="216.92" y="139.82" width="70.794" height="55.371"/>
  </clipPath>
  <clipPath id="p880b74e031">
   <rect x=".288" y="209.59" width="70.794" height="55.371"/>
  </clipPath>
  <clipPath id="pe405abfe4c">
   <rect x="72.498" y="209.59" width="70.794" height="55.371"/>
  </clipPath>
  <clipPath id="pc563d30015">
   <rect x="144.71" y="209.59" width="70.794" height="55.371"/>
  </clipPath>
  <clipPath id="pcffd797c6c">
   <rect x="216.92" y="209.59" width="70.794" height="55.371"/>
  </clipPath>
 </defs>
</svg>
