<svg version="1.1" xmlns="http://www.w3.org/2000/svg" xmlns:xlink="http://www.w3.org/1999/xlink" width="518" height="178"><defs><clipPath id="hCTxTfOnSsRB"><path fill="none" stroke="none" d=" M 0 0 L 518 0 L 518 178 L 0 178 L 0 0 Z"/></clipPath></defs><g transform="scale(1,1)" clip-path="url(#hCTxTfOnSsRB)"><g><path fill="none" stroke="rgb(0,0,0)" paint-order="fill stroke markers" d=" M 0.5 111.5 L 516.5 111.5" stroke-opacity="1" stroke-miterlimit="10"/><path fill="none" stroke="rgb(0,0,0)" paint-order="fill stroke markers" d=" M 517.5 111.5 L 513.5 107.5" stroke-opacity="1" stroke-miterlimit="10"/><path fill="none" stroke="rgb(0,0,0)" paint-order="fill stroke markers" d=" M 517.5 111.5 L 513.5 115.5" stroke-opacity="1" stroke-miterlimit="10"/><path fill="none" stroke="rgb(0,0,0)" paint-order="fill stroke markers" d=" M 2.5 111.5 L 2.5 114.5" stroke-opacity="1" stroke-miterlimit="10"/><path fill="none" stroke="rgb(0,0,0)" paint-order="fill stroke markers" d=" M 52.5 111.5 L 52.5 114.5" stroke-opacity="1" stroke-miterlimit="10"/><path fill="none" stroke="rgb(0,0,0)" paint-order="fill stroke markers" d=" M 102.5 111.5 L 102.5 114.5" stroke-opacity="1" stroke-miterlimit="10"/><path fill="none" stroke="rgb(0,0,0)" paint-order="fill stroke markers" d=" M 151.5 111.5 L 151.5 114.5" stroke-opacity="1" stroke-miterlimit="10"/><path fill="none" stroke="rgb(0,0,0)" paint-order="fill stroke markers" d=" M 201.5 111.5 L 201.5 114.5" stroke-opacity="1" stroke-miterlimit="10"/><path fill="none" stroke="rgb(0,0,0)" paint-order="fill stroke markers" d=" M 251.5 111.5 L 251.5 114.5" stroke-opacity="1" stroke-miterlimit="10"/><path fill="none" stroke="rgb(0,0,0)" paint-order="fill stroke markers" d=" M 301.5 111.5 L 301.5 114.5" stroke-opacity="1" stroke-miterlimit="10"/><path fill="none" stroke="rgb(0,0,0)" paint-order="fill stroke markers" d=" M 351.5 111.5 L 351.5 114.5" stroke-opacity="1" stroke-miterlimit="10"/><path fill="none" stroke="rgb(0,0,0)" paint-order="fill stroke markers" d=" M 401.5 111.5 L 401.5 114.5" stroke-opacity="1" stroke-miterlimit="10"/><path fill="none" stroke="rgb(0,0,0)" paint-order="fill stroke markers" d=" M 451.5 111.5 L 451.5 114.5" stroke-opacity="1" stroke-miterlimit="10"/><path fill="none" stroke="rgb(0,0,0)" paint-order="fill stroke markers" d=" M 501.5 111.5 L 501.5 114.5" stroke-opacity="1" stroke-miterlimit="10"/><path fill="none" stroke="rgb(0,0,0)" paint-order="fill stroke markers" d=" M 251.99999999999986 183 L 251.99999999999986 -5" stroke-opacity="0.6980392156862745" stroke-linecap="round" stroke-linejoin="round" stroke-miterlimit="10" stroke-width="2"/><path fill="none" stroke="rgb(102,153,0)" paint-order="fill stroke markers" d=" M 251.99999999999986 44.00000000000006 L 335.9999999999998 44.00000000000006" stroke-opacity="0.6980392156862745" stroke-linecap="round" stroke-linejoin="round" stroke-miterlimit="10" stroke-width="2"/><path fill="rgb(102,153,0)" stroke="none" paint-order="stroke fill markers" fill-rule="evenodd" d=" M 351.9999999999998 44.00000000000006 L 335.9999999999998 48.00000000000006 L 335.9999999999998 40.00000000000006 Z" fill-opacity="0.6980392156862745"/><path fill="none" stroke="rgb(0,0,255)" paint-order="fill stroke markers" d=" M 48.000000000000085 107.00000000000003 L 56.000000000000085 115.00000000000003" stroke-opacity="1" stroke-linecap="square" stroke-miterlimit="10" stroke-width="2"/><path fill="none" stroke="rgb(0,0,255)" paint-order="fill stroke markers" d=" M 48.000000000000085 115.00000000000003 L 56.000000000000085 107.00000000000003" stroke-opacity="1" stroke-linecap="square" stroke-miterlimit="10" stroke-width="2"/><path fill="none" stroke="rgb(0,0,255)" paint-order="fill stroke markers" d=" M 119 107.00000000000003 L 127 115.00000000000003" stroke-opacity="1" stroke-linecap="square" stroke-miterlimit="10" stroke-width="2"/><path fill="none" stroke="rgb(0,0,255)" paint-order="fill stroke markers" d=" M 119 115.00000000000003 L 127 107.00000000000003" stroke-opacity="1" stroke-linecap="square" stroke-miterlimit="10" stroke-width="2"/><path fill="none" stroke="rgb(0,0,255)" paint-order="fill stroke markers" d=" M 197.99999999999991 107.00000000000003 L 205.99999999999991 115.00000000000003" stroke-opacity="1" stroke-linecap="square" stroke-miterlimit="10" stroke-width="2"/><path fill="none" stroke="rgb(0,0,255)" paint-order="fill stroke markers" d=" M 197.99999999999991 115.00000000000003 L 205.99999999999991 107.00000000000003" stroke-opacity="1" stroke-linecap="square" stroke-miterlimit="10" stroke-width="2"/><path fill="rgb(255,0,0)" stroke="none" paint-order="stroke fill markers" d=" M 318.9999999999998 111.00000000000003 C 318.9999999999998 113.2091389993232 317.20913899932293 115.00000000000003 314.9999999999998 115.00000000000003 C 312.7908610006766 115.00000000000003 310.9999999999998 113.2091389993232 310.9999999999998 111.00000000000003 C 310.9999999999998 108.79086100067686 312.7908610006766 107.00000000000003 314.9999999999998 107.00000000000003 C 317.20913899932293 107.00000000000003 318.9999999999998 108.79086100067686 318.9999999999998 111.00000000000003 Z" fill-opacity="1"/><path fill="none" stroke="rgb(0,0,0)" paint-order="fill stroke markers" d=" M 318.9999999999998 111.00000000000003 C 318.9999999999998 113.2091389993232 317.20913899932293 115.00000000000003 314.9999999999998 115.00000000000003 C 312.7908610006766 115.00000000000003 310.9999999999998 113.2091389993232 310.9999999999998 111.00000000000003 C 310.9999999999998 108.79086100067686 312.7908610006766 107.00000000000003 314.9999999999998 107.00000000000003 C 317.20913899932293 107.00000000000003 318.9999999999998 108.79086100067686 318.9999999999998 111.00000000000003 Z" stroke-opacity="1" stroke-linecap="round" stroke-linejoin="round" stroke-miterlimit="10"/><path fill="rgb(255,0,0)" stroke="none" paint-order="stroke fill markers" d=" M 393.99999999999966 111.00000000000003 C 393.99999999999966 113.2091389993232 392.2091389993228 115.00000000000003 389.99999999999966 115.00000000000003 C 387.7908610006765 115.00000000000003 385.99999999999966 113.2091389993232 385.99999999999966 111.00000000000003 C 385.99999999999966 108.79086100067686 387.7908610006765 107.00000000000003 389.99999999999966 107.00000000000003 C 392.2091389993228 107.00000000000003 393.99999999999966 108.79086100067686 393.99999999999966 111.00000000000003 Z" fill-opacity="1"/><path fill="none" stroke="rgb(0,0,0)" paint-order="fill stroke markers" d=" M 393.99999999999966 111.00000000000003 C 393.99999999999966 113.2091389993232 392.2091389993228 115.00000000000003 389.99999999999966 115.00000000000003 C 387.7908610006765 115.00000000000003 385.99999999999966 113.2091389993232 385.99999999999966 111.00000000000003 C 385.99999999999966 108.79086100067686 387.7908610006765 107.00000000000003 389.99999999999966 107.00000000000003 C 392.2091389993228 107.00000000000003 393.99999999999966 108.79086100067686 393.99999999999966 111.00000000000003 Z" stroke-opacity="1" stroke-linecap="round" stroke-linejoin="round" stroke-miterlimit="10"/><path fill="rgb(153,204,0)" stroke="none" paint-order="stroke fill markers" d=" M 255.99999999999986 44.00000000000006 C 255.99999999999986 46.20913899932323 254.20913899932305 48.00000000000006 251.99999999999986 48.00000000000006 C 249.79086100067667 48.00000000000006 247.99999999999986 46.20913899932323 247.99999999999986 44.00000000000006 C 247.99999999999986 41.790861000676884 249.79086100067667 40.00000000000006 251.99999999999986 40.00000000000006 C 254.20913899932305 40.00000000000006 255.99999999999986 41.790861000676884 255.99999999999986 44.00000000000006 Z" fill-opacity="1"/><path fill="none" stroke="rgb(0,0,0)" paint-order="fill stroke markers" d=" M 255.99999999999986 44.00000000000006 C 255.99999999999986 46.20913899932323 254.20913899932305 48.00000000000006 251.99999999999986 48.00000000000006 C 249.79086100067667 48.00000000000006 247.99999999999986 46.20913899932323 247.99999999999986 44.00000000000006 C 247.99999999999986 41.790861000676884 249.79086100067667 40.00000000000006 251.99999999999986 40.00000000000006 C 254.20913899932305 40.00000000000006 255.99999999999986 41.790861000676884 255.99999999999986 44.00000000000006 Z" stroke-opacity="1" stroke-linecap="round" stroke-linejoin="round" stroke-miterlimit="10"/></g></g></svg>