<?xml version="1.0" encoding="UTF-8"?>
<!DOCTYPE svg  PUBLIC '-//W3C//DTD SVG 1.1//EN'  'http://www.w3.org/Graphics/SVG/1.1/DTD/svg11.dtd'>
<!-- Created with matplotlib (https://matplotlib.org/) -->
<svg width="432pt" height="216pt" version="1.1" viewBox="0 0 432 216" xmlns="http://www.w3.org/2000/svg" xmlns:xlink="http://www.w3.org/1999/xlink">
 <defs>
  <style type="text/css">*{stroke-linecap:butt;stroke-linejoin:round;}</style>
 </defs>
 <g id="figure_1">
  <g id="patch_1">
   <path d="m0 216h432v-216h-432z" fill="#fff"/>
  </g>
  <g id="axes_1">
   <g id="patch_2">
    <path d="m0.432 194.4h195.97v-194.18h-195.97z" fill="#fff"/>
   </g>
   <g id="PathCollection_1">
    <defs>
     <path id="m0203f51cb2" d="m-2 2 4-4m-4 0 4 4" stroke="#00f" stroke-opacity=".8" stroke-width="1.5"/>
    </defs>
    <g clip-path="url(#p51c40f3073)" fill="#0000ff" fill-opacity=".8" stroke="#0000ff" stroke-opacity=".8" stroke-width="1.5">
     <use x="142.956298" y="148.409053" xlink:href="#m0203f51cb2"/>
     <use x="83.571174" y="148.409053" xlink:href="#m0203f51cb2"/>
     <use x="172.64886" y="173.959579" xlink:href="#m0203f51cb2"/>
    </g>
   </g>
   <g id="PathCollection_2">
    <defs>
     <path id="mc96bdb5401" d="m0 2c0.53041 0 1.0392-0.21073 1.4142-0.58579 0.37505-0.37505 0.58579-0.88381 0.58579-1.4142s-0.21073-1.0392-0.58579-1.4142c-0.37505-0.37505-0.88381-0.58579-1.4142-0.58579s-1.0392 0.21073-1.4142 0.58579c-0.37505 0.37505-0.58579 0.88381-0.58579 1.4142s0.21073 1.0392 0.58579 1.4142c0.37505 0.37505 0.88381 0.58579 1.4142 0.58579z" stroke="#000" stroke-opacity=".8"/>
    </defs>
    <g clip-path="url(#p51c40f3073)" fill="#ff0000" fill-opacity=".8" stroke="#000000" stroke-opacity=".8">
     <use x="53.878612" y="20.656421" xlink:href="#mc96bdb5401"/>
     <use x="24.18605" y="97.308" xlink:href="#mc96bdb5401"/>
     <use x="113.263736" y="71.757474" xlink:href="#mc96bdb5401"/>
    </g>
   </g>
   <g id="matplotlib.axis_1">
    <g id="text_1">
     <!-- $d_{vc}={m+M \choose m}$ -->
     <defs>
      <path id="CMMI12-100" d="m50.297 66.516c0.10938 0.39062 0.29688 0.98438 0.29688 1.4844 0 1-1 1-1.1875 1-0.10938 0-5-0.4375-5.5-0.5625-1.7031-0.10938-3.2031-0.34375-5-0.34375-2.5-0.20312-3.2031-0.29688-3.2031-2.0938 0-1 0.79688-1 2.2031-1 4.8906 0 5-0.89062 5-1.875 0-0.59375-0.20312-1.375-0.3125-1.6719l-6.0938-24.031c-1.0938 2.5938-3.7969 6.5781-9 6.5781-11.297 0-23.5-14.562-23.5-29.328 0-9.875 5.7969-15.672 12.594-15.672 5.5 0 10.203 4.2969 13 7.5938 1-5.8906 5.7031-7.5938 8.7031-7.5938s5.4062 1.7969 7.2031 5.3906c1.5938 3.3906 3 9.4844 3 9.875 0 0.5-0.40625 0.90625-1 0.90625-0.90625 0-1-0.5-1.4062-2-1.5-5.8906-3.3906-12.172-7.5-12.172-2.8906 0-3.0938 2.5781-3.0938 4.5781 0 0.39062 0 2.4688 0.70312 5.2656zm-20.203-54.641c-0.5-1.7031-0.5-1.8906-1.8906-3.7969-2.2031-2.7969-6.6094-7.0781-11.297-7.0781-4.1094 0-6.4062 3.6875-6.4062 9.5781 0 5.4844 3.0938 16.656 5 20.859 3.4062 6.9844 8.0938 10.578 12 10.578 6.5938 0 7.9062-8.1875 7.9062-8.9844 0-0.09375-0.3125-1.4062-0.40625-1.5938z"/>
      <path id="CMMI12-118" d="m45.703 37.328c0 6.2812-3.2031 6.6719-4 6.6719-2.4062 0-4.6094-2.3906-4.6094-4.3906 0-1.1875 0.70312-1.8906 1.1094-2.2812 1-0.90625 3.5938-3.5938 3.5938-8.7812 0-4.2031-6-27.547-18-27.547-6.0938 0-7.2969 5.0938-7.2969 8.7812 0 4.9844 2.2969 11.969 5 19.156 1.5938 4.0938 2 5.0938 2 7.0781 0 4.2031-3 7.9844-7.9062 7.9844-9.1875 0-12.891-14.469-12.891-15.266 0-0.39062 0.39062-0.89062 1.0938-0.89062 0.90625 0 1 0.39062 1.4062 1.7969 2.3906 8.5781 6.2969 12.375 10.094 12.375 0.90625 0 2.6094 0 2.6094-3.2969 0-2.5938-1.1094-5.4844-2.6094-9.2812-4.7969-12.766-4.7969-15.859-4.7969-18.266 0-2.1875 0.29688-6.2812 3.4062-9.0781 3.5938-3.0938 8.5938-3.0938 9.5-3.0938 16.594 0 22.297 32.625 22.297 38.328z"/>
      <path id="CMMI12-99" d="m39.094 37.984c-1.8906 0-2.7969 0-4.1875-1.1875-0.60938-0.5-1.7031-2-1.7031-3.5938 0-2 1.5-3.2031 3.3906-3.2031 2.4062 0 5.1094 1.9375 5.1094 5.8125 0 4.625-4.6094 8.1875-11.5 8.1875-13.109 0-26.203-14.266-26.203-28.438 0-8.6719 5.4062-16.562 15.594-16.562 13.609 0 22.203 10.719 22.203 12.031 0 0.59375-0.59375 1.0938-1 1.0938-0.29688 0-0.39062-0.09375-1.2969-0.98438-6.4062-8.6094-15.906-10.141-19.703-10.141-6.8906 0-9.0938 5.9688-9.0938 10.938 0 3.5 1.7031 13.141 5.2969 19.922 2.5938 4.6719 8 10.047 14.297 10.047 1.2969 0 6.7969 0 8.7969-3.9219z"/>
      <path id="CMR17-61" d="m64.297 31.516c1.5 0 3 0 3 1.6875 0 1.7969-1.7031 1.7969-3.3906 1.7969h-55.906c-1.7031 0-3.4062 0-3.4062-1.7969 0-1.6875 1.5-1.6875 3-1.6875zm-0.39062-17.516c1.6875 0 3.3906 0 3.3906 1.7969 0 1.6875-1.5 1.6875-3 1.6875h-56.703c-1.5 0-3 0-3-1.6875 0-1.7969 1.7031-1.7969 3.4062-1.7969z"/>
      <path id="CMEX10-0" d="m41.297-114.91c0 0.40625-0.20312 0.60938-0.39062 0.90625-4.6094 4.9062-11.406 13-15.609 29.297-2.2969 9.1094-3.2031 19.406-3.2031 28.703 0 26.297 6.3125 44.703 18.312 57.703 0.89062 0.89062 0.89062 1.0938 0.89062 1.2969 0 1-0.79688 1-1.2031 1-1.5 0-6.8906-6-8.1875-7.5-10.203-12.094-16.703-30.094-16.703-52.406 0-14.188 2.5-34.297 15.594-51.188 1-1.2031 7.5-8.8125 9.2969-8.8125 0.40625 0 1.2031 0 1.2031 1z"/>
      <path id="CMMI12-109" d="m20.594 29.234c0.20312 0.60938 2.7031 5.5938 6.4062 8.7812 2.5938 2.3906 6 4 9.9062 4 4 0 5.3906-3 5.3906-6.9844 0-0.60938 0-2.5938-1.2031-7.2969l-2.5-10.266c-0.79688-3-2.6875-10.391-2.8906-11.484-0.40625-1.5-1-4.0938-1-4.4844 0-1.4062 1.0938-2.5 2.5938-2.5 3 0 3.5 2.2969 4.4062 5.8906l6 23.844c0.20312 0.79688 5.3906 13.281 16.391 13.281 4 0 5.4062-3 5.4062-6.9844 0-5.5938-3.9062-16.469-6.0938-22.453-0.90625-2.4062-1.4062-3.7031-1.4062-5.5 0-4.4844 3.0938-8.0781 7.9062-8.0781 9.2969 0 12.797 14.672 12.797 15.266 0 0.5-0.40625 0.90625-1 0.90625-0.90625 0-1-0.29688-1.5-2-2.2969-7.9844-6-12.172-10-12.172-1 0-2.6094 0-2.6094 3.2031 0 2.6094 1.2031 5.7969 1.6094 6.8906 1.7969 4.8125 6.2969 16.609 6.2969 22.422 0 5.9844-3.5 10.484-11.094 10.484-6.7031 0-12.109-3.7812-16.109-9.6719-0.29688 5.3906-3.5938 9.6719-11.094 9.6719-8.9062 0-13.609-6.2656-15.406-8.7656-0.29688 5.6719-4.3906 8.7656-8.7969 8.7656-2.9062 0-5.2031-1.3906-7.0938-5.1875-1.8125-3.5938-3.2031-9.6719-3.2031-10.078 0-0.39062 0.39062-0.89062 1.0938-0.89062 0.79688 0 0.90625 0.09375 1.5 2.3906 1.5 5.8906 3.4062 11.781 7.4062 11.781 2.2969 0 3.0938-1.6094 3.0938-4.5938 0-2.2031-1-6.0938-1.7031-9.1875l-2.7969-10.766c-0.39062-1.9062-1.5-6.3906-2-8.1875-0.70312-2.5938-1.7969-7.2812-1.7969-7.7812 0-1.4062 1.0938-2.5 2.5938-2.5 1.2031 0 2.6094 0.59375 3.4062 2.0938 0.20312 0.5 1.0938 4 1.5938 5.9844l2.2031 8.9844z"/>
      <path id="CMR17-43" d="m37.703 23h26.5c1.3906 0 3.0938 0 3.0938 1.6875 0 1.7969-1.5938 1.7969-3.0938 1.7969h-26.5v26.422c0 1.3906 0 3.0938-1.7031 3.0938-1.7969 0-1.7969-1.5938-1.7969-3.0938v-26.422h-26.5c-1.4062 0-3.1094 0-3.1094-1.6875 0-1.7969 1.6094-1.7969 3.1094-1.7969h26.5v-26.406c0-1.3906 0-3.0938 1.7031-3.0938 1.7969 0 1.7969 1.5938 1.7969 3.0938z"/>
      <path id="CMMI12-77" d="m90.797 60.719c0.90625 3.3906 1.1094 4.3906 8.2031 4.3906 1.9062 0 2.7969 0 2.7969 1.8906 0 1-0.70312 1-2.5938 1h-12c-2.5 0-2.6094-0.09375-3.7031-1.7031l-36.5-57.516-7.5 57.016c-0.29688 2.2031-0.40625 2.2031-3 2.2031h-12.406c-1.8906 0-2.7969 0-2.7969-1.8906 0-1 0.90625-1 2.4062-1 6.0938 0 6.0938-0.79688 6.0938-1.8906 0-0.1875 0-0.79688-0.39062-2.2969l-12.812-51.016c-1.1875-4.7969-3.5-7-10.188-7-0.3125 0-1.5 0-1.5-1.7656 0-1.1406 0.89062-1.1406 1.2969-1.1406h9.0938 4.7969 4.5c0.70312 0 1.8125 0 1.8125 1.9062 0 0.90625-1 1-1.4062 1-3.2969 0-6.5 0.59375-6.5 4.1875 0 1 0 1.0938 0.40625 2.4844l13.797 54.938h0.09375l8.2969-61.828c0.3125-2.3906 0.40625-2.6875 1.3125-2.6875 1.0938 0 1.5938 0.79688 2.0938 1.7031l40.203 63.312h0.09375l-14.5-57.625c-0.89062-3.4844-1.0938-4.4844-8.0938-4.4844-1.9062 0-2.9062 0-2.9062-1.8125 0-1.0938 0.90625-1.0938 1.5-1.0938h5.4062 11.797 5.5c0.79688 0 1.9062 0 1.9062 1.9062 0 1-0.90625 1-2.4062 1-6.0938 0-6.0938 0.75-6.0938 1.6875 0 0.10938 0 0.79688 0.1875 1.5938z"/>
      <path id="CMEX10-1" d="m30.5-56c0 14.203-2.5 34.297-15.594 51.203-1 1.2031-7.5 8.7969-9.3125 8.7969-0.5 0-1.1875-0.20312-1.1875-1 0-0.40625 0.1875-0.70312 0.59375-1 4.7969-5.2031 11.297-13.297 15.406-29.203 2.2969-9.0938 3.1875-19.391 3.1875-28.703 0-10.094-0.89062-20.297-3.5-30.094-3.7969-14-9.6875-22-14.797-27.594-0.89062-0.90625-0.89062-1.1094-0.89062-1.3125 0-0.79688 0.6875-1 1.1875-1 1.5 0 7 6.1094 8.2031 7.5 10.203 12.109 16.703 30.109 16.703 52.406z"/>
     </defs>
     <g transform="translate(60.561 213.43) scale(.14 -.14)">
      <use transform="translate(0 34.355) scale(.99626)" xlink:href="#CMMI12-100"/>
      <use transform="translate(50.689 19.411) scale(.69738)" xlink:href="#CMMI12-118"/>
      <use transform="translate(86.204 19.411) scale(.69738)" xlink:href="#CMMI12-99"/>
      <use transform="translate(143.76 34.355) scale(.99626)" xlink:href="#CMR17-61"/>
      <use transform="translate(243.15 115.05) scale(.99626)" xlink:href="#CMEX10-0"/>
      <use transform="translate(288.81 78.563) scale(.69738)" xlink:href="#CMMI12-109"/>
      <use transform="translate(348.54 78.563) scale(.69738)" xlink:href="#CMR17-43"/>
      <use transform="translate(398.74 78.563) scale(.69738)" xlink:href="#CMMI12-77"/>
      <use transform="translate(350.59) scale(.69738)" xlink:href="#CMMI12-109"/>
      <use transform="translate(472.09 115.05) scale(.99626)" xlink:href="#CMEX10-1"/>
     </g>
    </g>
   </g>
   <g id="LineCollection_1">
    <path d="m196.11 58.192-8.017 6.9318-8.017 6.6337-7.7534 6.1321-7.785 5.8766-7.6218 5.4813-7.7201 5.2773-7.7201 5.001-7.6465 4.6809-7.1998 4.1596-7.4231 4.037-7.4855 3.8121-7.3608 3.4953-7.1339 3.1478-7.1185 2.9058-7.2427 2.7153-7.0097 2.3964-7.1262 2.2027-7.1262 1.9672-7.1262 1.7317-7.1262 1.4962-7.1262 1.2608-6.8293 0.98727-6.8293 0.77101-6.8293 0.55475-6.8293 0.33849-6.8293 0.12223-5.6416-0.062139" clip-path="url(#p51c40f3073)" fill="none" stroke="#000" stroke-dasharray="5.55,2.4" stroke-width="1.5"/>
   </g>
   <g id="patch_3">
    <path d="m0.432 194.4v-194.18" fill="none" stroke="#000" stroke-linecap="square" stroke-width=".8"/>
   </g>
   <g id="patch_4">
    <path d="m196.4 194.4v-194.18" fill="none" stroke="#000" stroke-linecap="square" stroke-width=".8"/>
   </g>
   <g id="patch_5">
    <path d="m0.432 194.4h195.97" fill="none" stroke="#000" stroke-linecap="square" stroke-width=".8"/>
   </g>
   <g id="patch_6">
    <path d="m0.432 0.216h195.97" fill="none" stroke="#000" stroke-linecap="square" stroke-width=".8"/>
   </g>
  </g>
  <g id="axes_2">
   <g id="patch_7">
    <path d="m235.6 194.4h195.97v-194.18h-195.97z" fill="#fff"/>
   </g>
   <g id="PathCollection_3">
    <g clip-path="url(#p86e2eb9fa2)" fill="#0000ff" fill-opacity=".8" stroke="#0000ff" stroke-opacity=".8" stroke-width="1.5">
     <use x="378.121388" y="148.409053" xlink:href="#m0203f51cb2"/>
     <use x="318.736264" y="148.409053" xlink:href="#m0203f51cb2"/>
     <use x="407.81395" y="173.959579" xlink:href="#m0203f51cb2"/>
    </g>
   </g>
   <g id="PathCollection_4">
    <g clip-path="url(#p86e2eb9fa2)" fill="#ff0000" fill-opacity=".8" stroke="#000000" stroke-opacity=".8">
     <use x="289.043702" y="20.656421" xlink:href="#mc96bdb5401"/>
     <use x="259.35114" y="97.308" xlink:href="#mc96bdb5401"/>
     <use x="348.428826" y="71.757474" xlink:href="#mc96bdb5401"/>
    </g>
   </g>
   <g id="matplotlib.axis_3">
    <g id="text_2">
     <!-- $d_{vc}=\infty$ -->
     <defs>
      <path id="CMSY10-49" d="m50.797 27.031c-5.3906 6.8125-6.5938 8.3125-9.7031 10.812-5.5938 4.5-11.188 6.2969-16.297 6.2969-11.703 0-19.297-10.984-19.297-22.672 0-11.484 7.4062-22.562 18.906-22.562s19.797 9.0781 24.688 17.062c5.4062-6.7812 6.6094-8.2812 9.7031-10.781 5.6094-4.4844 11.203-6.2812 16.297-6.2812 11.703 0 19.312 10.984 19.312 22.656 0 11.484-7.4062 22.578-18.906 22.578s-19.797-9.1094-24.703-17.109zm2.6094-3.375c4.0938 7.2031 11.5 17.281 22.797 17.281 10.594 0 16-10.391 16-19.375 0-9.7969-6.7031-17.875-15.5-17.875-5.7969 0-10.297 4.2031-12.406 6.2812-2.5 2.7031-4.7969 5.7969-10.891 13.688zm-6.9062-4.2812c-4.0938-7.1875-11.5-17.281-22.797-17.281-10.609 0-16 10.391-16 19.375 0 9.7812 6.7031 17.875 15.5 17.875 5.7969 0 10.297-4.2031 12.391-6.2969 2.5-2.6875 4.8125-5.7969 10.906-13.672z"/>
     </defs>
     <g transform="translate(308.84 208.09) scale(.14 -.14)">
      <use transform="translate(0 14.944) scale(.99626)" xlink:href="#CMMI12-100"/>
      <use transform="translate(50.689) scale(.69738)" xlink:href="#CMMI12-118"/>
      <use transform="translate(86.204) scale(.69738)" xlink:href="#CMMI12-99"/>
      <use transform="translate(143.76 14.944) scale(.99626)" xlink:href="#CMR17-61"/>
      <use transform="translate(243.15 14.944) scale(.99626)" xlink:href="#CMSY10-49"/>
     </g>
    </g>
   </g>
   <g id="line2d_1">
    <path d="m285.18 124.39-41.57-24.273 28.208-95.303 108.08 27.595 20.191 52.89-114.91 39.092" clip-path="url(#p86e2eb9fa2)" fill="none" stroke="#000" stroke-dasharray="5.55,2.4" stroke-width="1.5"/>
   </g>
   <g id="patch_8">
    <path d="m235.6 194.4v-194.18" fill="none" stroke="#000" stroke-linecap="square" stroke-width=".8"/>
   </g>
   <g id="patch_9">
    <path d="m431.57 194.4v-194.18" fill="none" stroke="#000" stroke-linecap="square" stroke-width=".8"/>
   </g>
   <g id="patch_10">
    <path d="m235.6 194.4h195.97" fill="none" stroke="#000" stroke-linecap="square" stroke-width=".8"/>
   </g>
   <g id="patch_11">
    <path d="m235.6 0.216h195.97" fill="none" stroke="#000" stroke-linecap="square" stroke-width=".8"/>
   </g>
  </g>
 </g>
 <defs>
  <clipPath id="p51c40f3073">
   <rect x=".432" y=".216" width="195.97" height="194.18"/>
  </clipPath>
  <clipPath id="p86e2eb9fa2">
   <rect x="235.6" y=".216" width="195.97" height="194.18"/>
  </clipPath>
 </defs>
</svg>
