<svg version="1.1" xmlns="http://www.w3.org/2000/svg" xmlns:xlink="http://www.w3.org/1999/xlink" width="645" height="371"><defs><clipPath id="AuzEeHxEouNM"><path fill="none" stroke="none" d=" M 0 0 L 645 0 L 645 371 L 0 371 L 0 0 Z"/></clipPath></defs><g transform="scale(1,1)" clip-path="url(#AuzEeHxEouNM)"><g><path fill="none" stroke="rgb(0,0,0)" paint-order="fill stroke markers" d=" M 8.5 2.5 L 8.5 371.5" stroke-opacity="1" stroke-miterlimit="10"/><path fill="none" stroke="rgb(0,0,0)" paint-order="fill stroke markers" d=" M 8.5 1.5 L 2.5 7.5" stroke-opacity="1" stroke-miterlimit="10"/><path fill="none" stroke="rgb(0,0,0)" paint-order="fill stroke markers" d=" M 8.5 1.5 L 14.5 7.5" stroke-opacity="1" stroke-miterlimit="10"/><g><g transform="scale(27,27)"><g transform="translate(23.185185185185187,12.842593148148149)"><path fill="rgb(0,0,0)" stroke="none" paint-order="stroke fill markers" d=" M 0.367 -0.4 L 0.367 -0.4 L 0.307 -0.083 Q 0.298 -0.021 0.271 0.059000000000000004 Q 0.261 0.088 0.251 0.108 Q 0.216 0.182 0.164 0.2 Q 0.151 0.20500000000000002 0.138 0.20500000000000002 Q 0.088 0.20500000000000002 0.064 0.171 Q 0.053 0.156 0.053 0.136 Q 0.053 0.096 0.08700000000000001 0.081 Q 0.097 0.076 0.108 0.076 Q 0.137 0.076 0.14400000000000002 0.101 Q 0.145 0.106 0.145 0.111 Q 0.145 0.145 0.115 0.159 Q 0.10400000000000001 0.164 0.09 0.165 Q 0.109 0.183 0.138 0.183 Q 0.182 0.183 0.20700000000000002 0.085 Q 0.212 0.062 0.219 0.025 L 0.225 -0.005 L 0.3 -0.4 L 0.234 -0.4 Q 0.209 -0.4 0.20700000000000002 -0.40800000000000003 L 0.20600000000000002 -0.40800000000000003 L 0.20600000000000002 -0.41200000000000003 Q 0.20600000000000002 -0.429 0.223 -0.431 L 0.223 -0.431 L 0.23600000000000002 -0.431 L 0.305 -0.431 Q 0.329 -0.556 0.338 -0.588 Q 0.368 -0.6880000000000001 0.444 -0.7030000000000001 Q 0.455 -0.705 0.465 -0.705 Q 0.517 -0.705 0.541 -0.671 L 0.541 -0.671 Q 0.552 -0.656 0.552 -0.636 Q 0.552 -0.596 0.518 -0.581 Q 0.508 -0.5760000000000001 0.497 -0.5760000000000001 Q 0.468 -0.5760000000000001 0.461 -0.601 Q 0.46 -0.606 0.46 -0.611 Q 0.46 -0.642 0.488 -0.657 Q 0.499 -0.664 0.514 -0.665 Q 0.495 -0.683 0.465 -0.683 Q 0.434 -0.683 0.418 -0.649 Q 0.41100000000000003 -0.635 0.394 -0.545 L 0.373 -0.431 L 0.456 -0.431 Q 0.481 -0.431 0.483 -0.42 Q 0.483 -0.402 0.467 -0.4 L 0.466 -0.4 L 0.453 -0.4 L 0.367 -0.4 Z"/></g></g></g><path fill="none" stroke="rgb(0,0,0)" paint-order="fill stroke markers" d=" M 0.5 352.5 L 643.5 352.5" stroke-opacity="1" stroke-miterlimit="10"/><path fill="none" stroke="rgb(0,0,0)" paint-order="fill stroke markers" d=" M 644.5 352.5 L 638.5 346.5" stroke-opacity="1" stroke-miterlimit="10"/><path fill="none" stroke="rgb(0,0,0)" paint-order="fill stroke markers" d=" M 644.5 352.5 L 638.5 358.5" stroke-opacity="1" stroke-miterlimit="10"/><path fill="none" stroke="rgb(0,0,0)" paint-order="fill stroke markers" d=" M 8.5 352.5 L 8.5 355.5" stroke-opacity="1" stroke-miterlimit="10"/><path fill="none" stroke="rgb(0,0,0)" paint-order="fill stroke markers" d=" M 64.5 352.5 L 64.5 355.5" stroke-opacity="1" stroke-miterlimit="10"/><path fill="none" stroke="rgb(0,0,0)" paint-order="fill stroke markers" d=" M 120.5 352.5 L 120.5 355.5" stroke-opacity="1" stroke-miterlimit="10"/><path fill="none" stroke="rgb(0,0,0)" paint-order="fill stroke markers" d=" M 176.5 352.5 L 176.5 355.5" stroke-opacity="1" stroke-miterlimit="10"/><path fill="none" stroke="rgb(0,0,0)" paint-order="fill stroke markers" d=" M 233.5 352.5 L 233.5 355.5" stroke-opacity="1" stroke-miterlimit="10"/><path fill="none" stroke="rgb(0,0,0)" paint-order="fill stroke markers" d=" M 289.5 352.5 L 289.5 355.5" stroke-opacity="1" stroke-miterlimit="10"/><path fill="none" stroke="rgb(0,0,0)" paint-order="fill stroke markers" d=" M 345.5 352.5 L 345.5 355.5" stroke-opacity="1" stroke-miterlimit="10"/><path fill="none" stroke="rgb(0,0,0)" paint-order="fill stroke markers" d=" M 401.5 352.5 L 401.5 355.5" stroke-opacity="1" stroke-miterlimit="10"/><path fill="none" stroke="rgb(0,0,0)" paint-order="fill stroke markers" d=" M 458.5 352.5 L 458.5 355.5" stroke-opacity="1" stroke-miterlimit="10"/><path fill="none" stroke="rgb(0,0,0)" paint-order="fill stroke markers" d=" M 514.5 352.5 L 514.5 355.5" stroke-opacity="1" stroke-miterlimit="10"/><path fill="none" stroke="rgb(0,0,0)" paint-order="fill stroke markers" d=" M 570.5 352.5 L 570.5 355.5" stroke-opacity="1" stroke-miterlimit="10"/><path fill="none" stroke="rgb(0,0,0)" paint-order="fill stroke markers" d=" M 626.5 352.5 L 626.5 355.5" stroke-opacity="1" stroke-miterlimit="10"/><text fill="rgb(0,0,0)" stroke="none" font-family="geogebra-sans-serif, sans-serif" font-size="24px" font-style="normal" font-weight="normal" text-decoration="normal" x="13" y="23" text-anchor="start" dominant-baseline="alphabetic" fill-opacity="1">accuracy</text><path fill="none" stroke="rgb(0,0,0)" paint-order="fill stroke markers" d=" M 5.5 295.5 L 8.5 295.5" stroke-opacity="1" stroke-miterlimit="10"/><path fill="none" stroke="rgb(0,0,0)" paint-order="fill stroke markers" d=" M 5.5 239.5 L 8.5 239.5" stroke-opacity="1" stroke-miterlimit="10"/><path fill="none" stroke="rgb(0,0,0)" paint-order="fill stroke markers" d=" M 5.5 183.5 L 8.5 183.5" stroke-opacity="1" stroke-miterlimit="10"/><path fill="none" stroke="rgb(0,0,0)" paint-order="fill stroke markers" d=" M 5.5 127.5 L 8.5 127.5" stroke-opacity="1" stroke-miterlimit="10"/><path fill="none" stroke="rgb(0,0,0)" paint-order="fill stroke markers" d=" M 5.5 70.5 L 8.5 70.5" stroke-opacity="1" stroke-miterlimit="10"/><path fill="none" stroke="rgb(0,0,0)" paint-order="fill stroke markers" d=" M 5.5 14.5 L 8.5 14.5" stroke-opacity="1" stroke-miterlimit="10"/><path fill="none" stroke="rgb(0,153,255)" paint-order="fill stroke markers" d=" M 0 351.9999999965598 L 5.0390625 351.999999982306 L 10.078125 351.9999999139213 L 15.1171875 351.9999996038828 L 20.15625 351.9999982756956 L 25.1953125 351.9999928998482 L 30.234375 351.9999723442835 L 35.2734375 351.9998981019587 L 40.3125 351.99964485115515 L 45.3515625 351.99882910317547 L 50.390625 351.99634833859017 L 55.4296875 351.98922726372933 L 60.46874999999999 351.96993749221986 L 65.5078125 351.92064248926414 L 70.546875 351.8018406727303 L 75.58593750000001 351.5319366311417 L 80.625 350.95417639183705 L 85.6640625 349.78957450713074 L 88.18359375000001 348.85273385596 L 90.70312500000001 347.58066450583624 L 93.22265625000001 345.8800709437244 L 95.7421875 343.64201252085854 L 98.26171875 340.7429924402507 L 100.78125 337.04762734484683 L 103.30078125 332.4132139258917 L 105.82031250000001 326.6964089079929 L 108.33984375000001 319.76207693520735 L 110.85937500000001 311.49413962338474 L 113.37890625000001 301.8079907634432 L 114.63867187500001 296.41851336761687 L 115.89843750000003 290.6637508677963 L 117.158203125 284.5478576098502 L 118.41796875 278.0793528586665 L 119.677734375 271.2714316555958 L 120.9375 264.14222119276104 L 122.197265625 256.71497191497474 L 123.45703125000001 249.01817320120085 L 124.71679687500001 241.08558447092236 L 125.97656250000001 232.95617390585255 L 127.23632812500001 224.67395866087105 L 128.49609375 216.28774243330162 L 129.755859375 207.85074852676559 L 131.015625 199.42014903213203 L 132.275390625 191.056493389129 L 133.53515625000003 182.82304231358643 L 134.794921875 174.78501579488778 L 136.0546875 167.00876649884455 L 137.314453125 159.5608923637676 L 138.57421875 152.50730436432642 L 139.833984375 145.91226725615704 L 141.09375 139.83743252975296 L 142.353515625 134.34088373229685 L 143.61328125 129.47621471267414 L 146.1328125 121.82930519587762 L 147.392578125 119.1243709941956 L 148.65234375 117.20462849025014 L 149.2822265625 116.54572445362587 L 149.912109375 116.08991871021843 L 150.5419921875 115.83839647205943 L 151.171875 115.79181241617542 L 151.8017578125 115.95028784535577 L 152.43164062499997 116.31341016186016 L 153.06152343749997 116.8802346572611 L 153.69140624999997 117.64928860755472 L 154.951171875 119.78559439392723 L 156.2109375 122.70028330263096 L 158.73046875 130.73808177783772 L 159.990234375 135.78019662314804 L 161.25 141.44006335904996 L 162.509765625 147.6627742768951 L 163.76953125 154.3891790480605 L 165.029296875 161.55681750267826 L 166.2890625 169.10087971519627 L 167.548828125 176.95517289470914 L 168.80859375 185.05307512400358 L 170.068359375 193.3284570592861 L 171.32812499999997 201.71655424026466 L 172.587890625 210.1547746014941 L 173.84765625 218.58342804370227 L 175.107421875 226.94636743378965 L 176.3671875 235.19153306592165 L 177.626953125 243.2713953447244 L 178.88671875 251.1432931589418 L 180.146484375 258.76966801972316 L 181.40625 266.1181964701172 L 182.666015625 273.16182546998317 L 183.92578125 279.87871737409046 L 185.185546875 286.25211271436285 L 186.4453125 292.2701202471154 L 187.705078125 297.925444622984 L 188.96484374999997 303.2150625838076 L 191.484375 312.70423236849814 L 194.00390625 320.7843979946842 L 196.5234375 327.545230943385 L 199.04296875 333.10611229422074 L 201.5625 337.60389495622326 L 206.60156249999997 343.98340210732954 L 207.86132812499997 345.1347703542529 L 209.12109375 346.1411616389139 L 211.640625 347.77721620983687 L 214.16015625 348.9984050353206 L 216.6796875 349.8958764188217 L 221.71875 351.00823838904324 L 226.7578125 351.55781195588935 L 231.79687500000003 351.81350364397935 L 236.83593749999997 351.92559581613875 L 241.87499999999997 351.9719205875377 L 246.9140625 351.98997597069615 L 251.953125 351.9966149873884 L 256.9921875 351.99891871069667 L 262.03125 351.999673271383 L 267.0703125 351.9999066109208 L 272.109375 351.99997474957684 L 277.1484375 351.9999935418985 L 282.1875 351.9999984375553 L 287.2265625 351.9999996424244 L 292.265625 351.9999999225907 L 297.3046875 351.9999999841483 L 302.34375 351.99999999692966 L 307.3828125 351.9999999994377 L 312.421875 351.99999999990285 L 317.4609375 351.9999999999844 L 322.5 351.9999999999979 L 327.5390625 352.00000000000006 L 332.578125 352.00000000000034 L 337.6171875 352.0000000000004 L 342.65624999999994 352.0000000000004 L 347.6953125 352.0000000000004 L 352.734375 352.0000000000004 L 357.7734375 352.0000000000004 L 362.8125 352.0000000000004 L 367.8515625 352.0000000000004 L 372.890625 352.0000000000004 L 377.92968749999994 352.0000000000004 L 382.96875 352.0000000000004 L 388.0078125 352.0000000000004 L 393.046875 352.0000000000004 L 398.0859375 352.0000000000004 L 403.125 352.0000000000004 L 408.1640625 352.0000000000004 L 413.20312499999994 352.0000000000004 L 418.2421875 352.0000000000004 L 423.28125 352.0000000000004 L 428.3203125 352.0000000000004 L 433.359375 352.0000000000004 L 438.3984375 352.0000000000004 L 443.4375 352.0000000000004 L 448.47656249999994 352.0000000000004 L 453.515625 352.0000000000004 L 458.55468750000006 352.0000000000004 L 463.59375000000006 352.0000000000004 L 468.63281249999994 352.0000000000004 L 473.67187499999994 352.0000000000004 L 478.71093749999994 352.0000000000004 L 483.74999999999994 352.0000000000004 L 488.7890625 352.0000000000004 L 493.828125 352.0000000000004 L 498.8671875 352.0000000000004 L 503.90625 352.0000000000004 L 508.9453125 352.0000000000004 L 513.984375 352.0000000000004 L 519.0234375 352.0000000000004 L 524.0625 352.0000000000004 L 529.1015625 352.0000000000004 L 534.140625 352.0000000000004 L 539.1796874999999 352.0000000000004 L 544.21875 352.0000000000004 L 549.2578125 352.0000000000004 L 554.296875 352.0000000000004 L 559.3359375 352.0000000000004 L 564.375 352.0000000000004 L 569.4140625 352.0000000000004 L 574.453125 352.0000000000004 L 579.4921875 352.0000000000004 L 584.53125 352.0000000000004 L 589.5703125 352.0000000000004 L 594.609375 352.0000000000004 L 599.6484375 352.0000000000004 L 604.6875 352.0000000000004 L 609.7265624999999 352.0000000000004 L 614.765625 352.0000000000004 L 619.8046875 352.0000000000004 L 624.84375 352.0000000000004 L 629.8828125 352.0000000000004 L 634.921875 352.0000000000004 L 639.9609375 352.0000000000004 L 645 352.0000000000004" stroke-opacity="0.6980392156862745" stroke-linecap="round" stroke-linejoin="round" stroke-miterlimit="10" stroke-width="1.5"/><path fill="none" stroke="rgb(255,102,153)" paint-order="fill stroke markers" d=" M 0 352.0000000000004 L 5.0390625 352.0000000000004 L 10.078125 352.0000000000004 L 15.1171875 352.0000000000004 L 20.15625 352.0000000000004 L 25.1953125 352.0000000000004 L 30.234375 352.0000000000004 L 35.2734375 352.00000000000034 L 40.3125 352.0000000000002 L 45.3515625 352.00000000000006 L 50.390625 351.99999999999955 L 55.4296875 351.9999999999984 L 60.46874999999999 351.99999999999574 L 65.5078125 351.99999999998977 L 70.546875 351.99999999997624 L 75.58593750000001 351.9999999999462 L 80.625 351.9999999998802 L 85.6640625 351.99999999973676 L 90.70312500000001 351.99999999942867 L 95.7421875 351.99999999877457 L 100.78125 351.9999999974019 L 105.82031250000001 351.99999999455457 L 110.85937500000001 351.9999999887162 L 115.89843750000003 351.9999999768831 L 120.9375 351.99999995317694 L 125.97656250000001 351.99999990623326 L 131.015625 351.99999981434905 L 136.0546875 351.9999996365825 L 141.09375 351.9999992966448 L 146.1328125 351.9999986541272 L 151.171875 351.99999745379245 L 156.2109375 351.9999952374001 L 161.25 351.99999119245433 L 166.2890625 351.99998389627905 L 171.32812499999997 351.9999708889348 L 176.3671875 351.9999479704 L 181.40625 351.9999080602309 L 186.4453125 351.9998393736239 L 191.484375 351.99972254609236 L 196.5234375 351.99952616693656 L 201.5625 351.99919994395674 L 206.60156249999997 351.9986644012926 L 211.640625 351.9977955913725 L 216.6796875 351.99640276553214 L 221.71875 351.9941962870788 L 226.7578125 351.9907422887685 L 231.79687500000003 351.98539969695764 L 236.83593749999997 351.97723431921156 L 241.87499999999997 351.96490381214045 L 246.9140625 351.94650665174936 L 251.953125 351.91938791575564 L 256.9921875 351.87989501035787 L 262.03125 351.82307773847504 L 267.0703125 351.7423296507075 L 272.109375 351.62897178051685 L 277.1484375 351.47178592393385 L 282.1875 351.25651274126494 L 287.2265625 350.9653400885164 L 292.265625 350.57641879190237 L 297.3046875 350.0634558502509 L 302.34375 349.3954476515612 L 307.3828125 348.53662665038803 L 312.421875 347.44670212235087 L 317.4609375 346.08147690029216 L 322.5 344.3939151988827 L 327.5390625 342.3357198420222 L 332.578125 339.85944917656826 L 337.6171875 336.92116449538406 L 342.65624999999994 333.4835491096592 L 347.6953125 329.5193831467672 L 352.734375 325.0151982370635 L 357.7734375 319.97487952785883 L 362.8125 314.42293601141915 L 367.8515625 308.4071313905238 L 372.890625 302.0001634404047 L 377.92968749999994 295.3001052263484 L 382.96875 288.4293791185711 L 388.0078125 281.53212337045215 L 393.046875 274.7699262512024 L 398.0859375 268.3160356503772 L 403.125 262.3482907440969 L 408.1640625 257.0411526635042 L 413.20312499999994 252.5573185327072 L 418.2421875 249.03947443240142 L 423.28125 246.60276758675673 L 425.80078125 245.81672045904986 L 428.3203125 245.32855079421012 L 430.83984375 245.14240660082586 L 433.359375 245.25987289895082 L 435.87890625 245.67994924727856 L 438.3984375 246.39906393069666 L 443.4375 248.70760385011664 L 448.47656249999994 252.108285212282 L 453.515625 256.4895003977501 L 458.55468750000006 261.7113213844027 L 463.59375000000006 267.61291029247116 L 468.63281249999994 274.0207141017118 L 473.67187499999994 280.75686366910986 L 478.71093749999994 287.647216210441 L 483.74999999999994 294.5285467790264 L 488.7890625 301.2544982261415 L 493.828125 307.7000276089947 L 498.8671875 313.76422547390746 L 503.90625 319.3715186702286 L 508.9453125 324.47138508350235 L 513.984375 329.03680080605767 L 519.0234375 333.06170149897633 L 524.0625 336.5577686741954 L 529.1015625 339.55085049990413 L 534.140625 342.0773004213288 L 539.1796874999999 344.18047206987177 L 544.21875 345.9075530021943 L 549.2578125 347.306859931221 L 554.296875 348.4256604668463 L 559.3359375 349.30853569136303 L 564.375 349.99625718762815 L 569.4140625 350.5251227998862 L 574.453125 350.926677388967 L 579.4921875 351.2277370014672 L 584.53125 351.4506353537194 L 589.5703125 351.6136181478496 L 594.609375 351.7313212837944 L 599.6484375 351.81528152221546 L 604.6875 351.87444097068527 L 609.7265624999999 351.9156187236771 L 614.765625 351.94393332999084 L 619.8046875 351.96316811319963 L 624.84375 351.9760776575116 L 629.8828125 351.9846381340063 L 634.921875 351.9902468529349 L 639.9609375 351.9938778198424 L 645 351.9962004866917" stroke-opacity="0.6980392156862745" stroke-linecap="round" stroke-linejoin="round" stroke-miterlimit="10" stroke-width="1.5"/><g transform="scale(27,27)"><g transform="translate(3.185185185185185,5.461109777777778)"><path fill="rgb(0,0,0)" stroke="none" paint-order="stroke fill markers" d=" M 0.385 -0.557 L 0.385 -0.557 L 0.353 -0.428 Q 0.325 -0.315 0.254 -0.14200000000000002 Q 0.181 0.03 0.127 0.048 Q 0.12 0.05 0.114 0.05 Q 0.088 0.05 0.059000000000000004 0.035 Q 0.028 0.019 0.027 -0.002 Q 0.027 -0.034 0.048 -0.064 Q 0.057 -0.075 0.063 -0.075 Q 0.066 -0.075 0.07200000000000001 -0.07 Q 0.10300000000000001 -0.045 0.14400000000000002 -0.042 Q 0.186 -0.042 0.254 -0.225 L 0.276 -0.28600000000000003 Q 0.338 -0.459 0.365 -0.651 Q 0.369 -0.673 0.381 -0.683 L 0.382 -0.684 Q 0.383 -0.685 0.385 -0.686 Q 0.41200000000000003 -0.705 0.429 -0.705 Q 0.44 -0.705 0.442 -0.6950000000000001 L 0.442 -0.6940000000000001 L 0.442 -0.6940000000000001 Q 0.442 -0.6910000000000001 0.443 -0.685 Q 0.515 -0.273 0.591 -0.13 Q 0.686 -0.222 0.791 -0.34400000000000003 L 1.074 -0.68 Q 1.095 -0.704 1.099 -0.704 Q 1.107 -0.704 1.107 -0.6890000000000001 Q 1.107 -0.686 1.105 -0.672 Q 1.067 -0.512 1.041 -0.266 Q 1.032 -0.179 1.032 -0.134 Q 1.032 -0.054 1.043 -0.038 Q 1.05 -0.027 1.063 -0.026000000000000002 Q 1.088 -0.042 1.107 -0.042 Q 1.116 -0.042 1.116 -0.035 Q 1.116 -0.018000000000000002 1.069 0.007 Q 1.049 0.017 1.03 0.023 Q 1.012 0.029 0.998 0.029 Q 0.96 0.029 0.9520000000000001 -0.006 Q 0.9470000000000001 -0.025 0.9470000000000001 -0.092 Q 0.9470000000000001 -0.217 0.99 -0.47500000000000003 L 0.997 -0.517 L 0.778 -0.26 Q 0.67 -0.135 0.5750000000000001 -0.043000000000000003 Q 0.5650000000000001 -0.034 0.558 -0.034 Q 0.55 -0.034 0.546 -0.039 Q 0.501 -0.115 0.47600000000000003 -0.193 Q 0.442 -0.294 0.41000000000000003 -0.442 L 0.386 -0.557 L 0.385 -0.557 Z"/></g><g transform="translate(4.386085185185185,5.611109777777778) scale(0.7,0.7)"><path fill="rgb(0,0,0)" stroke="none" paint-order="stroke fill markers" d=" M 0.373 -0.378 Q 0.378 -0.41200000000000003 0.404 -0.42 Q 0.40900000000000003 -0.422 0.41500000000000004 -0.422 Q 0.441 -0.422 0.444 -0.395 Q 0.444 -0.389 0.437 -0.361 L 0.401 -0.221 Q 0.386 -0.158 0.379 -0.131 Q 0.366 -0.079 0.366 -0.057 Q 0.366 -0.011 0.396 -0.011 Q 0.434 -0.011 0.46 -0.091 Q 0.465 -0.108 0.47200000000000003 -0.135 Q 0.48 -0.152 0.486 -0.153 Q 0.498 -0.153 0.498 -0.14300000000000002 Q 0.498 -0.128 0.48 -0.073 Q 0.47400000000000003 -0.056 0.468 -0.044 Q 0.44 0.011 0.394 0.011 Q 0.338 0.011 0.313 -0.037 Q 0.306 -0.049 0.303 -0.064 Q 0.24 0.011 0.17300000000000001 0.011 Q 0.098 0.011 0.062 -0.057 Q 0.04 -0.097 0.04 -0.149 Q 0.04 -0.257 0.115 -0.34900000000000003 Q 0.185 -0.433 0.267 -0.441 Q 0.274 -0.442 0.281 -0.442 Q 0.342 -0.442 0.373 -0.378 M 0.308 -0.11900000000000001 L 0.308 -0.11900000000000001 L 0.358 -0.315 Q 0.361 -0.33 0.361 -0.332 Q 0.361 -0.353 0.343 -0.383 Q 0.321 -0.42 0.28200000000000003 -0.42 Q 0.23 -0.42 0.183 -0.352 Q 0.17400000000000002 -0.339 0.166 -0.324 Q 0.137 -0.266 0.117 -0.159 Q 0.111 -0.125 0.111 -0.105 Q 0.111 -0.037 0.149 -0.017 Q 0.16 -0.011 0.17500000000000002 -0.011 Q 0.231 -0.011 0.28800000000000003 -0.082 Q 0.302 -0.098 0.307 -0.115 L 0.307 -0.116 Q 0.308 -0.11800000000000001 0.308 -0.11900000000000001 Z"/></g></g><g transform="scale(27,27)"><g transform="translate(13.444444444444445,9.238887555555555)"><path fill="rgb(0,0,0)" stroke="none" paint-order="stroke fill markers" d=" M 0.385 -0.557 L 0.385 -0.557 L 0.353 -0.428 Q 0.325 -0.315 0.254 -0.14200000000000002 Q 0.181 0.03 0.127 0.048 Q 0.12 0.05 0.114 0.05 Q 0.088 0.05 0.059000000000000004 0.035 Q 0.028 0.019 0.027 -0.002 Q 0.027 -0.034 0.048 -0.064 Q 0.057 -0.075 0.063 -0.075 Q 0.066 -0.075 0.07200000000000001 -0.07 Q 0.10300000000000001 -0.045 0.14400000000000002 -0.042 Q 0.186 -0.042 0.254 -0.225 L 0.276 -0.28600000000000003 Q 0.338 -0.459 0.365 -0.651 Q 0.369 -0.673 0.381 -0.683 L 0.382 -0.684 Q 0.383 -0.685 0.385 -0.686 Q 0.41200000000000003 -0.705 0.429 -0.705 Q 0.44 -0.705 0.442 -0.6950000000000001 L 0.442 -0.6940000000000001 L 0.442 -0.6940000000000001 Q 0.442 -0.6910000000000001 0.443 -0.685 Q 0.515 -0.273 0.591 -0.13 Q 0.686 -0.222 0.791 -0.34400000000000003 L 1.074 -0.68 Q 1.095 -0.704 1.099 -0.704 Q 1.107 -0.704 1.107 -0.6890000000000001 Q 1.107 -0.686 1.105 -0.672 Q 1.067 -0.512 1.041 -0.266 Q 1.032 -0.179 1.032 -0.134 Q 1.032 -0.054 1.043 -0.038 Q 1.05 -0.027 1.063 -0.026000000000000002 Q 1.088 -0.042 1.107 -0.042 Q 1.116 -0.042 1.116 -0.035 Q 1.116 -0.018000000000000002 1.069 0.007 Q 1.049 0.017 1.03 0.023 Q 1.012 0.029 0.998 0.029 Q 0.96 0.029 0.9520000000000001 -0.006 Q 0.9470000000000001 -0.025 0.9470000000000001 -0.092 Q 0.9470000000000001 -0.217 0.99 -0.47500000000000003 L 0.997 -0.517 L 0.778 -0.26 Q 0.67 -0.135 0.5750000000000001 -0.043000000000000003 Q 0.5650000000000001 -0.034 0.558 -0.034 Q 0.55 -0.034 0.546 -0.039 Q 0.501 -0.115 0.47600000000000003 -0.193 Q 0.442 -0.294 0.41000000000000003 -0.442 L 0.386 -0.557 L 0.385 -0.557 Z"/></g><g transform="translate(14.645344444444445,9.388887555555556) scale(0.7,0.7)"><path fill="rgb(0,0,0)" stroke="none" paint-order="stroke fill markers" d=" M 0.23900000000000002 -0.683 L 0.165 -0.382 Q 0.223 -0.442 0.28200000000000003 -0.442 Q 0.357 -0.442 0.394 -0.373 Q 0.41500000000000004 -0.333 0.41500000000000004 -0.28200000000000003 Q 0.41500000000000004 -0.176 0.341 -0.084 Q 0.272 0.001 0.189 0.01 Q 0.181 0.011 0.17400000000000002 0.011 Q 0.10200000000000001 0.011 0.067 -0.056 Q 0.047 -0.094 0.047 -0.146 Q 0.047 -0.18 0.063 -0.247 L 0.145 -0.5730000000000001 Q 0.159 -0.632 0.159 -0.635 Q 0.159 -0.646 0.145 -0.649 L 0.145 -0.649 Q 0.133 -0.652 0.109 -0.652 Q 0.08700000000000001 -0.652 0.085 -0.664 Q 0.085 -0.681 0.10400000000000001 -0.684 L 0.226 -0.6940000000000001 Q 0.23900000000000002 -0.6940000000000001 0.23900000000000002 -0.683 M 0.145 -0.305 L 0.123 -0.213 Q 0.107 -0.15 0.107 -0.112 Q 0.107 -0.026000000000000002 0.159 -0.013000000000000001 Q 0.166 -0.011 0.17400000000000002 -0.011 Q 0.227 -0.011 0.273 -0.081 Q 0.28300000000000003 -0.096 0.292 -0.114 Q 0.319 -0.171 0.337 -0.268 Q 0.343 -0.303 0.343 -0.326 Q 0.343 -0.406 0.294 -0.418 L 0.293 -0.419 Q 0.28700000000000003 -0.42 0.28 -0.42 Q 0.22 -0.42 0.16 -0.34 Q 0.152 -0.33 0.145 -0.305 Z"/></g></g><g transform="scale(27,27)"><rect fill="rgb(0,0,0)" stroke="none" x="9" y="1.7807397407407408" width="1.340153" height="0.039999"/><g transform="translate(9,2.624067740740741)"><path fill="rgb(0,0,0)" stroke="none" paint-order="stroke fill markers" d=" M 0.926 -0.606 L 0.793 -0.073 Q 0.788 -0.055 0.788 -0.049 Q 0.788 -0.032 0.835 -0.031 L 0.836 -0.031 L 0.853 -0.031 Q 0.879 -0.031 0.881 -0.02 Q 0.881 0 0.862 0 L 0.738 -0.003 L 0.737 -0.003 L 0.614 0 L 0.613 0 Q 0.598 0 0.598 -0.012 Q 0.598 -0.029 0.614 -0.031 L 0.626 -0.031 Q 0.6910000000000001 -0.031 0.704 -0.045 Q 0.71 -0.052000000000000005 0.716 -0.073 Q 0.716 -0.074 0.717 -0.078 L 0.86 -0.651 L 0.859 -0.651 L 0.455 -0.018000000000000002 Q 0.443 -0.001 0.433 0 Q 0.422 0 0.418 -0.023 L 0.332 -0.643 L 0.331 -0.643 L 0.195 -0.098 Q 0.191 -0.083 0.191 -0.075 Q 0.191 -0.038 0.23900000000000002 -0.032 Q 0.248 -0.031 0.259 -0.031 Q 0.277 -0.031 0.277 -0.02 Q 0.277 0 0.259 0 L 0.159 -0.003 L 0.156 -0.003 L 0.057 0 L 0.056 0 Q 0.042 0 0.042 -0.012 Q 0.042 -0.031 0.06 -0.031 Q 0.139 -0.034 0.16 -0.081 Q 0.164 -0.091 0.168 -0.106 L 0.295 -0.615 Q 0.299 -0.631 0.299 -0.634 Q 0.299 -0.646 0.28300000000000003 -0.649 L 0.28200000000000003 -0.649 L 0.28200000000000003 -0.649 Q 0.28 -0.65 0.277 -0.65 Q 0.253 -0.652 0.234 -0.652 Q 0.20800000000000002 -0.652 0.20600000000000002 -0.66 Q 0.20500000000000002 -0.662 0.20500000000000002 -0.664 Q 0.20500000000000002 -0.681 0.222 -0.683 L 0.222 -0.683 L 0.23500000000000001 -0.683 L 0.372 -0.683 Q 0.395 -0.683 0.399 -0.678 L 0.399 -0.677 Q 0.401 -0.673 0.403 -0.66 L 0.481 -0.094 L 0.846 -0.664 Q 0.857 -0.681 0.866 -0.682 Q 0.87 -0.683 0.885 -0.683 L 1.0170000000000001 -0.683 Q 1.042 -0.683 1.044 -0.672 Q 1.044 -0.655 1.03 -0.653 Q 1.025 -0.652 1.012 -0.652 Q 0.9490000000000001 -0.652 0.937 -0.636 L 0.936 -0.635 L 0.936 -0.634 Q 0.931 -0.627 0.926 -0.606 Z"/></g><g transform="translate(9.97014,2.774067740740741) scale(0.7,0.7)"><path fill="rgb(0,0,0)" stroke="none" paint-order="stroke fill markers" d=" M 0.373 -0.378 Q 0.378 -0.41200000000000003 0.404 -0.42 Q 0.40900000000000003 -0.422 0.41500000000000004 -0.422 Q 0.441 -0.422 0.444 -0.395 Q 0.444 -0.389 0.437 -0.361 L 0.401 -0.221 Q 0.386 -0.158 0.379 -0.131 Q 0.366 -0.079 0.366 -0.057 Q 0.366 -0.011 0.396 -0.011 Q 0.434 -0.011 0.46 -0.091 Q 0.465 -0.108 0.47200000000000003 -0.135 Q 0.48 -0.152 0.486 -0.153 Q 0.498 -0.153 0.498 -0.14300000000000002 Q 0.498 -0.128 0.48 -0.073 Q 0.47400000000000003 -0.056 0.468 -0.044 Q 0.44 0.011 0.394 0.011 Q 0.338 0.011 0.313 -0.037 Q 0.306 -0.049 0.303 -0.064 Q 0.24 0.011 0.17300000000000001 0.011 Q 0.098 0.011 0.062 -0.057 Q 0.04 -0.097 0.04 -0.149 Q 0.04 -0.257 0.115 -0.34900000000000003 Q 0.185 -0.433 0.267 -0.441 Q 0.274 -0.442 0.281 -0.442 Q 0.342 -0.442 0.373 -0.378 M 0.308 -0.11900000000000001 L 0.308 -0.11900000000000001 L 0.358 -0.315 Q 0.361 -0.33 0.361 -0.332 Q 0.361 -0.353 0.343 -0.383 Q 0.321 -0.42 0.28200000000000003 -0.42 Q 0.23 -0.42 0.183 -0.352 Q 0.17400000000000002 -0.339 0.166 -0.324 Q 0.137 -0.266 0.117 -0.159 Q 0.111 -0.125 0.111 -0.105 Q 0.111 -0.037 0.149 -0.017 Q 0.16 -0.011 0.17500000000000002 -0.011 Q 0.231 -0.011 0.28800000000000003 -0.082 Q 0.302 -0.098 0.307 -0.115 L 0.307 -0.116 Q 0.308 -0.11800000000000001 0.308 -0.11900000000000001 Z"/></g><g transform="translate(10.617931611111112,2.624067740740741)"><path fill="rgb(0,0,0)" stroke="none" paint-order="stroke fill markers" d=" M 0.687 -0.327 L 0.09 -0.327 Q 0.058 -0.327 0.056 -0.34700000000000003 Q 0.056 -0.367 0.089 -0.367 L 0.6880000000000001 -0.367 Q 0.72 -0.367 0.721 -0.34700000000000003 Q 0.721 -0.327 0.687 -0.327 M 0.6880000000000001 -0.133 L 0.089 -0.133 Q 0.057 -0.133 0.056 -0.153 Q 0.056 -0.17300000000000001 0.09 -0.17300000000000001 L 0.687 -0.17300000000000001 Q 0.719 -0.17300000000000001 0.721 -0.153 Q 0.721 -0.133 0.6880000000000001 -0.133 Z"/></g><rect fill="rgb(0,0,0)" stroke="none" x="11.673491222222223" y="1.7807397407407408" width="1.2705568999999999" height="0.039999"/><g transform="translate(11.673491222222223,2.624067740740741)"><path fill="rgb(0,0,0)" stroke="none" paint-order="stroke fill markers" d=" M 0.926 -0.606 L 0.793 -0.073 Q 0.788 -0.055 0.788 -0.049 Q 0.788 -0.032 0.835 -0.031 L 0.836 -0.031 L 0.853 -0.031 Q 0.879 -0.031 0.881 -0.02 Q 0.881 0 0.862 0 L 0.738 -0.003 L 0.737 -0.003 L 0.614 0 L 0.613 0 Q 0.598 0 0.598 -0.012 Q 0.598 -0.029 0.614 -0.031 L 0.626 -0.031 Q 0.6910000000000001 -0.031 0.704 -0.045 Q 0.71 -0.052000000000000005 0.716 -0.073 Q 0.716 -0.074 0.717 -0.078 L 0.86 -0.651 L 0.859 -0.651 L 0.455 -0.018000000000000002 Q 0.443 -0.001 0.433 0 Q 0.422 0 0.418 -0.023 L 0.332 -0.643 L 0.331 -0.643 L 0.195 -0.098 Q 0.191 -0.083 0.191 -0.075 Q 0.191 -0.038 0.23900000000000002 -0.032 Q 0.248 -0.031 0.259 -0.031 Q 0.277 -0.031 0.277 -0.02 Q 0.277 0 0.259 0 L 0.159 -0.003 L 0.156 -0.003 L 0.057 0 L 0.056 0 Q 0.042 0 0.042 -0.012 Q 0.042 -0.031 0.06 -0.031 Q 0.139 -0.034 0.16 -0.081 Q 0.164 -0.091 0.168 -0.106 L 0.295 -0.615 Q 0.299 -0.631 0.299 -0.634 Q 0.299 -0.646 0.28300000000000003 -0.649 L 0.28200000000000003 -0.649 L 0.28200000000000003 -0.649 Q 0.28 -0.65 0.277 -0.65 Q 0.253 -0.652 0.234 -0.652 Q 0.20800000000000002 -0.652 0.20600000000000002 -0.66 Q 0.20500000000000002 -0.662 0.20500000000000002 -0.664 Q 0.20500000000000002 -0.681 0.222 -0.683 L 0.222 -0.683 L 0.23500000000000001 -0.683 L 0.372 -0.683 Q 0.395 -0.683 0.399 -0.678 L 0.399 -0.677 Q 0.401 -0.673 0.403 -0.66 L 0.481 -0.094 L 0.846 -0.664 Q 0.857 -0.681 0.866 -0.682 Q 0.87 -0.683 0.885 -0.683 L 1.0170000000000001 -0.683 Q 1.042 -0.683 1.044 -0.672 Q 1.044 -0.655 1.03 -0.653 Q 1.025 -0.652 1.012 -0.652 Q 0.9490000000000001 -0.652 0.937 -0.636 L 0.936 -0.635 L 0.936 -0.634 Q 0.931 -0.627 0.926 -0.606 Z"/></g><g transform="translate(12.643631222222224,2.774067740740741) scale(0.7,0.7)"><path fill="rgb(0,0,0)" stroke="none" paint-order="stroke fill markers" d=" M 0.23900000000000002 -0.683 L 0.165 -0.382 Q 0.223 -0.442 0.28200000000000003 -0.442 Q 0.357 -0.442 0.394 -0.373 Q 0.41500000000000004 -0.333 0.41500000000000004 -0.28200000000000003 Q 0.41500000000000004 -0.176 0.341 -0.084 Q 0.272 0.001 0.189 0.01 Q 0.181 0.011 0.17400000000000002 0.011 Q 0.10200000000000001 0.011 0.067 -0.056 Q 0.047 -0.094 0.047 -0.146 Q 0.047 -0.18 0.063 -0.247 L 0.145 -0.5730000000000001 Q 0.159 -0.632 0.159 -0.635 Q 0.159 -0.646 0.145 -0.649 L 0.145 -0.649 Q 0.133 -0.652 0.109 -0.652 Q 0.08700000000000001 -0.652 0.085 -0.664 Q 0.085 -0.681 0.10400000000000001 -0.684 L 0.226 -0.6940000000000001 Q 0.23900000000000002 -0.6940000000000001 0.23900000000000002 -0.683 M 0.145 -0.305 L 0.123 -0.213 Q 0.107 -0.15 0.107 -0.112 Q 0.107 -0.026000000000000002 0.159 -0.013000000000000001 Q 0.166 -0.011 0.17400000000000002 -0.011 Q 0.227 -0.011 0.273 -0.081 Q 0.28300000000000003 -0.096 0.292 -0.114 Q 0.319 -0.171 0.337 -0.268 Q 0.343 -0.303 0.343 -0.326 Q 0.343 -0.406 0.294 -0.418 L 0.293 -0.419 Q 0.28700000000000003 -0.42 0.28 -0.42 Q 0.22 -0.42 0.16 -0.34 Q 0.152 -0.33 0.145 -0.305 Z"/></g></g></g></g></svg>