<?xml version="1.0" encoding="UTF-8"?>
<!DOCTYPE svg  PUBLIC '-//W3C//DTD SVG 1.1//EN'  'http://www.w3.org/Graphics/SVG/1.1/DTD/svg11.dtd'>
<!-- Created with matplotlib (https://matplotlib.org/) -->
<svg width="432pt" height="216pt" version="1.1" viewBox="0 0 432 216" xmlns="http://www.w3.org/2000/svg" xmlns:xlink="http://www.w3.org/1999/xlink">
 <defs>
  <style type="text/css">*{stroke-linecap:butt;stroke-linejoin:round;}</style>
 </defs>
 <g id="figure_1">
  <g id="patch_1">
   <path d="m0 216h432v-216h-432z" fill="#fff"/>
  </g>
  <g id="axes_1">
   <g id="patch_2">
    <path d="m0.432 194.4h195.97v-194.18h-195.97z" fill="#fff"/>
   </g>
   <g id="PathCollection_1">
    <path d="m1.0986 194.4h0.66657 0.66657 0.66657 0.66657 0.66657 0.66657 0.66657 0.66657 0.66657 0.66657 0.66657 0.66657 0.66657 0.66657 0.66657 0.66657 0.66657 0.66657 0.66657 0.66657 0.66657 0.66657 0.66657 0.66657 0.66657 0.66657 0.66657 0.66657 0.66657 0.66657 0.66657 0.66657 0.66657 0.66657 0.66657 0.66657 0.66657 0.66657 0.66657 0.66657 0.66657 0.66657 0.66657 0.66657 0.66657 0.66657 0.66657 0.66657 0.66657 0.66657 0.66657 0.66657 0.66657 0.66657 0.66657 0.66657 0.66657 0.66657 0.66657 0.66657 0.66657 0.66657 0.66657 0.66657 0.66657 0.66657 0.66657 0.66657 0.66657 0.66657 0.66657 0.66657 0.66657 0.66657 0.66657 0.66657 0.66657 0.66657 0.66657 0.66657 0.66657 0.66657 0.66657 0.66657 0.66657 0.66657 0.66657 0.66657 0.66657 0.66657 0.66657 0.66657 0.66657 0.66657 0.66657 0.66657 0.66657 0.66657 0.66657 0.66657 0.66657 0.66657 0.66657 0.66657 0.66657 0.66657 0.66657 0.66657 0.66657 0.66657 0.66657 0.66657 0.66657 0.66657 0.66657 0.66657 0.66657 0.66657 0.66657 0.66657 0.66657 0.66657 0.66657 0.66657 0.66657 0.66657 0.66657 0.66657 0.66657 0.66657 0.66657 0.66657 0.66657 0.66657 0.66657 0.66657 0.66657 0.66657 0.66657 0.66657 0.66657 0.66657 0.66657 0.66657 0.66657 0.66657 0.66657 0.66657 0.66657 0.66657 0.66657 0.66657 0.66657 0.66657 0.66657 0.66657 0.66657 0.66657 0.66657 0.66657 0.66657 0.66657 0.66657 0.66657 0.66657 0.66657 0.66657 0.66657 0.66657 0.66657 0.66657 0.66657 0.66657 0.66657 0.66657 0.66657 0.66657 0.66657 0.66657 0.66657 0.66657 0.66657 0.66657 0.66657 0.66657 0.66657 0.66657 0.66657 0.66657 0.66657 0.66657 0.66657 0.66657 0.66657 0.66657 0.66657 0.66657 0.66657 0.66657 0.66657 0.66657 0.66657 0.66657 0.66657 0.66657 0.66657 0.66657 0.66657 0.66657 0.66657 0.66657 0.66657 0.083321l-0.66657-1.116v-1.116l-1.3331-2.232v-1.116l-1.9997-3.348v-1.116l-1.3331-2.232v-1.116l-1.9997-3.348v-1.116l-1.3331-2.232v-1.116l-1.3331-2.232v-1.116l-1.9997-3.348v-1.116l-1.3331-2.232v-1.116l-1.9997-3.348v-1.116l-1.3331-2.232v-1.116l-1.9997-3.348v-1.116l-1.3331-2.232v-1.116l-1.3331-2.232v-1.116l-1.3331-2.232-0.66657-1.116v-1.116l-1.3331-2.232v-1.116l-1.9997-3.348v-1.116l-1.3331-2.232v-1.116l-1.9997-3.348v-1.116l-1.3331-2.232v-1.116l-1.9997-3.348v-1.116l-1.3331-2.232v-1.116l-1.3331-2.232v-1.116l-1.9997-3.348v-1.116l-1.3331-2.232v-1.116l-1.9997-3.348v-1.116l-1.3331-2.232v-1.116l-1.9997-3.348v-1.116l-1.3331-2.232v-1.116l-1.3331-2.232v-1.116l-1.3331-2.232-0.66657-1.116v-1.116l-1.3331-2.232v-1.116l-1.9997-3.348v-1.116l-1.3331-2.232v-1.116l-1.9997-3.348v-1.116l-1.3331-2.232v-1.116l-1.9997-3.348v-1.116l-1.3331-2.232v-1.116l-1.3331-2.232v-1.116l-1.9997-3.348v-1.116l-1.3331-2.232v-1.116l-1.9997-3.348v-1.116l-1.3331-2.232v-1.116l-1.9997-3.348v-1.116l-1.3331-2.232v-1.116l-1.3331-2.232v-1.116l-1.3331-2.232-0.66657-1.116v-1.116l-1.3331-2.232v-1.116l-1.9997-3.348v-1.116l-1.3331-2.232v-1.116l-1.9997-3.348v-1.116h-0.083321-0.66657-0.66657-0.66657-0.66657-0.66657-0.66657-0.66657-0.66657-0.66657-0.66657-0.66657-0.66657-0.66657-0.66657-0.66657-0.66657-0.66657-0.66657-0.66657-0.66657-0.66657-0.66657-0.66657-0.66657-0.66657-0.66657-0.66657-0.66657-0.66657-0.66657-0.66657-0.66657-0.66657-0.66657-0.66657-0.66657-0.66657-0.66657-0.66657-0.66657-0.66657-0.66657-0.66657-0.66657-0.66657-0.66657-0.66657-0.66657-0.66657-0.66657-0.66657-0.66657-0.66657-0.66657-0.66657-0.66657-0.66657-0.66657-0.66657-0.66657-0.66657-0.66657-0.66657-0.66657-0.66657-0.66657-0.66657-0.66657-0.66657-0.66657-0.66657-0.66657-0.66657-0.66657-0.66657-0.66657-0.66657-0.66657-0.66657-0.66657-0.66657-0.66657-0.66657-0.66657-0.66657-0.66657-0.66657-0.66657-0.66657-0.66657v1.116 1.116 1.116 1.116 1.116 1.116 1.116 1.116 1.116 1.116 1.116 1.116 1.116 1.116 1.116 1.116 1.116 1.116 1.116 1.116 1.116 1.116 1.116 1.116 1.116 1.116 1.116 1.116 1.116 1.116 1.116 1.116 1.116 1.116 1.116 1.116 1.116 1.116 1.116 1.116 1.116 1.116 1.116 1.116 1.116 1.116 1.116 1.116 1.116 1.116 1.116 1.116 1.116 1.116 1.116 1.116 1.116 1.116 1.116 1.116 1.116 1.116 1.116 1.116 1.116 1.116 1.116 1.116 1.116 1.116 1.116 1.116 1.116 1.116 1.116 1.116 1.116 1.116 1.116 1.116 1.116 1.116 1.116 1.116 1.116 1.116 1.116 1.116 1.116 1.116 1.116 1.116 1.116 1.116 1.116 1.116 1.116 1.116 1.116 1.116 1.116 1.116 1.116 1.116 1.116 1.116 1.116 1.116 1.116 1.116 1.116 1.116 1.116 1.116 1.116 1.116 1.116 1.116 1.116 1.116 1.116 1.116 1.116 1.116 1.116 1.116 1.116 1.116 1.116 1.116 1.116 1.116 1.116 1.116 1.116 1.116 1.116 1.116 1.116 1.116 1.116 1.116 1.116 1.116 1.116 1.116 1.116 1.116 1.116 1.116 1.116 1.116 1.116 1.116 1.116 1.116 1.116 1.116 1.116 1.116 1.116 1.116 1.116 1.116 1.116 1.116 1.116 1.116 1.116 1.116 1.116 1.116 1.116 1.116z" clip-path="url(#pa826fead19)" fill="#00f" fill-opacity=".4"/>
   </g>
   <g id="PathCollection_2">
    <path d="m142.41 194.26 0.083321 0.1395h0.083321l-0.66657-1.116v-1.116l-1.3331-2.232v-1.116l-1.9997-3.348v-1.116l-1.3331-2.232v-1.116l-1.9997-3.348v-1.116l-1.3331-2.232v-1.116l-1.3331-2.232v-1.116l-1.9997-3.348v-1.116l-1.3331-2.232v-1.116l-1.9997-3.348v-1.116l-1.3331-2.232v-1.116l-1.3331-2.232-0.66657-1.116v-1.116l-1.3331-2.232v-1.116l-1.3331-2.232v-1.116l-1.3331-2.232-0.66657-1.116v-1.116l-1.3331-2.232v-1.116l-1.9997-3.348v-1.116l-1.3331-2.232v-1.116l-1.9997-3.348v-1.116l-1.3331-2.232v-1.116l-1.9997-3.348v-1.116l-1.3331-2.232v-1.116l-1.3331-2.232v-1.116l-1.9997-3.348v-1.116l-1.3331-2.232v-1.116l-1.9997-3.348v-1.116l-1.3331-2.232v-1.116l-1.3331-2.232-0.66657-1.116v-1.116l-1.3331-2.232v-1.116l-1.3331-2.232v-1.116l-1.3331-2.232-0.66657-1.116v-1.116l-1.3331-2.232v-1.116l-1.9997-3.348v-1.116l-1.3331-2.232v-1.116l-1.9997-3.348v-1.116l-1.3331-2.232v-1.116l-1.9997-3.348v-1.116l-1.3331-2.232v-1.116l-1.3331-2.232v-1.116l-1.9997-3.348v-1.116l-1.3331-2.232v-1.116l-1.9997-3.348v-1.116l-1.3331-2.232v-1.116l-1.3331-2.232-0.66657-1.116v-1.116l-1.3331-2.232v-1.116l-1.3331-2.232v-1.116l-1.3331-2.232-0.66657-1.116v-1.116l-1.3331-2.232v-1.116l-1.9997-3.348v-1.116l-1.3331-2.232v-1.116l-1.9997-3.348v-1.116h-0.083321v1.116l1.9997 3.348v1.116l1.3331 2.232v1.116l1.9997 3.348v1.116l1.3331 2.232v1.116l0.58325 0.9765 1.4165 2.3715v1.116l1.3331 2.232v1.116l1.3331 2.232v1.116l1.9997 3.348v1.116l1.3331 2.232v1.116l1.9997 3.348v1.116l1.3331 2.232v1.116l1.9997 3.348v1.116l1.3331 2.232v1.116l1.3331 2.232v1.116l1.9997 3.348v1.116l1.3331 2.232v1.116l1.9997 3.348v1.116l1.3331 2.232v1.116l1.9997 3.348v1.116l1.3331 2.232v1.116l0.58325 0.9765 1.4165 2.3715v1.116l1.3331 2.232v1.116l1.3331 2.232v1.116l1.9997 3.348v1.116l1.3331 2.232v1.116l1.9997 3.348v1.116l1.3331 2.232v1.116l1.9997 3.348v1.116l1.3331 2.232v1.116l1.3331 2.232v1.116l1.9997 3.348v1.116l1.3331 2.232v1.116l1.9997 3.348v1.116l1.3331 2.232v1.116l1.9997 3.348v1.116l1.3331 2.232v1.116l0.58325 0.9765 1.4165 2.3715v1.116l1.3331 2.232v1.116l1.3331 2.232v1.116l1.9997 3.348v1.116l1.3331 2.232v1.116l1.9997 3.348v1.116l1.3331 2.232v1.116l1.9997 3.348v1.116l1.3331 2.232v1.116l1.3331 2.232v1.116l1.9997 3.348v1.116l1.3331 2.232v1.116l1.9997 3.348v1.116l1.3331 2.232v1.116z" clip-path="url(#pa826fead19)" fill="#00f" fill-opacity=".4"/>
   </g>
   <g id="PathCollection_3">
    <path d="m142.41 194.12 0.16664 0.279h0.083321l-0.66657-1.116v-1.116l-1.3331-2.232v-1.116l-1.9997-3.348v-1.116l-1.3331-2.232v-1.116l-1.9997-3.348v-1.116l-1.3331-2.232v-1.116l-1.3331-2.232v-1.116l-1.9997-3.348v-1.116l-1.3331-2.232v-1.116l-1.9997-3.348v-1.116l-1.3331-2.232v-1.116l-1.3331-2.232-0.66657-1.116v-1.116l-1.3331-2.232v-1.116l-1.3331-2.232v-1.116l-1.3331-2.232-0.66657-1.116v-1.116l-1.3331-2.232v-1.116l-1.9997-3.348v-1.116l-1.3331-2.232v-1.116l-1.9997-3.348v-1.116l-1.3331-2.232v-1.116l-1.9997-3.348v-1.116l-1.3331-2.232v-1.116l-1.3331-2.232v-1.116l-1.9997-3.348v-1.116l-1.3331-2.232v-1.116l-1.9997-3.348v-1.116l-1.3331-2.232v-1.116l-1.3331-2.232-0.66657-1.116v-1.116l-1.3331-2.232v-1.116l-1.3331-2.232v-1.116l-1.3331-2.232-0.66657-1.116v-1.116l-1.3331-2.232v-1.116l-1.9997-3.348v-1.116l-1.3331-2.232v-1.116l-1.9997-3.348v-1.116l-1.3331-2.232v-1.116l-1.9997-3.348v-1.116l-1.3331-2.232v-1.116l-1.3331-2.232v-1.116l-1.9997-3.348v-1.116l-1.3331-2.232v-1.116l-1.9997-3.348v-1.116l-1.3331-2.232v-1.116l-1.3331-2.232-0.66657-1.116v-1.116l-1.3331-2.232v-1.116l-1.3331-2.232v-1.116l-1.3331-2.232-0.66657-1.116v-1.116l-1.3331-2.232v-1.116l-1.9997-3.348v-1.116l-1.3331-2.232v-1.116l-1.9997-3.348v-1.116h-0.083321v1.116l1.9997 3.348v1.116l1.3331 2.232v1.116l1.9997 3.348v1.116l1.3331 2.232v1.116l0.49993 0.837 1.4998 2.511v1.116l1.3331 2.232v1.116l1.3331 2.232v1.116l0.49993 0.837 1.4998 2.511v1.116l1.3331 2.232v1.116l1.8331 3.069 0.16664 0.279v1.116l1.3331 2.232v1.116l1.9997 3.348v1.116l1.3331 2.232v1.116l1.3331 2.232v1.116l1.9997 3.348v1.116l1.3331 2.232v1.116l1.9997 3.348v1.116l1.3331 2.232v1.116l1.9997 3.348v1.116l1.3331 2.232v1.116l0.49993 0.837 1.4998 2.511v1.116l1.3331 2.232v1.116l1.3331 2.232v1.116l0.49993 0.837 1.4998 2.511v1.116l1.3331 2.232v1.116l1.9997 3.348v1.116l1.3331 2.232v1.116l1.9997 3.348v1.116l1.3331 2.232v1.116l1.3331 2.232v1.116l1.9997 3.348v1.116l1.3331 2.232v1.116l1.9997 3.348v1.116l1.3331 2.232v1.116l1.9997 3.348v1.116l1.3331 2.232v1.116l0.49993 0.837 1.4998 2.511v1.116l1.3331 2.232v1.116l1.3331 2.232v1.116l0.49993 0.837 1.4998 2.511v1.116l1.3331 2.232v1.116l1.9997 3.348v1.116l1.3331 2.232v1.116l1.9997 3.348v1.116l1.3331 2.232v1.116l1.3331 2.232v1.116l1.9997 3.348v1.116l1.3331 2.232v1.116l1.9997 3.348v1.116l1.3331 2.232v1.116z" clip-path="url(#pa826fead19)" fill="#00f" fill-opacity=".4"/>
   </g>
   <g id="PathCollection_4">
    <path d="m142.41 193.98 0.24996 0.4185h0.083321l-0.66657-1.116v-1.116l-0.99985-1.674-0.33328-0.558v-1.116l-1.9997-3.348v-1.116l-1.3331-2.232v-1.116l-0.99985-1.674-0.99985-1.674v-1.116l-1.3331-2.232v-1.116l-1.3331-2.232v-1.116l-0.99985-1.674-0.99985-1.674v-1.116l-1.3331-2.232v-1.116l-1.9997-3.348v-1.116l-0.33328-0.558-0.99985-1.674v-1.116l-1.3331-2.232-0.66657-1.116v-1.116l-1.3331-2.232v-1.116l-0.33328-0.558-0.99985-1.674v-1.116l-1.3331-2.232-0.66657-1.116v-1.116l-1.3331-2.232v-1.116l-0.33328-0.558-1.6664-2.79v-1.116l-0.99985-1.674-0.33328-0.558v-1.116l-1.9997-3.348v-1.116l-1.3331-2.232v-1.116l-0.99985-1.674-0.99985-1.674v-1.116l-1.3331-2.232v-1.116l-1.3331-2.232v-1.116l-0.99985-1.674-0.99985-1.674v-1.116l-1.3331-2.232v-1.116l-1.9997-3.348v-1.116l-0.33328-0.558-0.99985-1.674v-1.116l-1.3331-2.232-0.66657-1.116v-1.116l-1.3331-2.232v-1.116l-0.33328-0.558-0.99985-1.674v-1.116l-1.3331-2.232-0.66657-1.116v-1.116l-1.3331-2.232v-1.116l-0.33328-0.558-1.6664-2.79v-1.116l-0.99985-1.674-0.33328-0.558v-1.116l-1.9997-3.348v-1.116l-1.3331-2.232v-1.116l-0.99985-1.674-0.99985-1.674v-1.116l-1.3331-2.232v-1.116l-1.3331-2.232v-1.116l-0.99985-1.674-0.99985-1.674v-1.116l-1.3331-2.232v-1.116l-1.9997-3.348v-1.116l-0.33328-0.558-0.99985-1.674v-1.116l-1.3331-2.232-0.66657-1.116v-1.116l-1.3331-2.232v-1.116l-0.33328-0.558-0.99985-1.674v-1.116l-1.3331-2.232-0.66657-1.116v-1.116l-1.3331-2.232v-1.116l-0.33328-0.558-1.6664-2.79v-1.116l-0.99985-1.674-0.33328-0.558v-1.116l-1.9997-3.348v-1.116h-0.08332v1.116l1.9997 3.348v1.116l1.3331 2.232v1.116l1.9997 3.348v1.116l1.3331 2.232v1.116l0.4166 0.6975 1.5831 2.6505v1.116l1.3331 2.232v1.116l1.3331 2.232v1.116l0.4166 0.6975 1.5831 2.6505v1.116l1.3331 2.232v1.116l1.7497 2.9295 0.24996 0.4185v1.116l1.3331 2.232v1.116l1.9997 3.348v1.116l1.0832 1.8135 0.24996 0.4185v1.116l1.3331 2.232v1.116l1.9997 3.348v1.116l1.3331 2.232v1.116l1.9997 3.348v1.116l1.3331 2.232v1.116l1.9997 3.348v1.116l1.3331 2.232v1.116l0.4166 0.6975 1.5831 2.6505v1.116l1.3331 2.232v1.116l1.3331 2.232v1.116l0.4166 0.6975 1.5831 2.6505v1.116l1.3331 2.232v1.116l1.7497 2.9295 0.24996 0.4185v1.116l1.3331 2.232v1.116l1.9997 3.348v1.116l1.0832 1.8135 0.24996 0.4185v1.116l1.3331 2.232v1.116l1.9997 3.348v1.116l1.3331 2.232v1.116l1.9997 3.348v1.116l1.3331 2.232v1.116l1.9997 3.348v1.116l1.3331 2.232v1.116l0.4166 0.6975 1.5831 2.6505v1.116l1.3331 2.232v1.116l1.3331 2.232v1.116l0.4166 0.6975 1.5831 2.6505v1.116l1.3331 2.232v1.116l1.7497 2.9295 0.24996 0.4185v1.116l1.3331 2.232v1.116l1.9997 3.348v1.116l1.0832 1.8135 0.24996 0.4185v1.116l1.3331 2.232v1.116l1.9997 3.348v1.116l1.3331 2.232v1.116l1.9997 3.348v1.116l1.3331 2.232v1.116z" clip-path="url(#pa826fead19)" fill="#00f" fill-opacity=".4"/>
   </g>
   <g id="PathCollection_5">
    <path d="m142.41 193.84 0.33328 0.558h0.083321l-0.66657-1.116v-1.116l-1.0832-1.8135-0.24996-0.4185v-1.116l-1.9997-3.348v-1.116l-1.3331-2.232v-1.116l-1.0832-1.8135-0.91653-1.5345v-1.116l-1.3331-2.232v-1.116l-1.3331-2.232v-1.116l-1.0832-1.8135-0.91653-1.5345v-1.116l-1.3331-2.232v-1.116l-1.9997-3.348v-1.116l-0.4166-0.6975-0.91653-1.5345v-1.116l-1.9997-3.348v-1.116l-1.3331-2.232v-1.116l-1.3331-2.232v-1.116l-1.9997-3.348v-1.116l-1.3331-2.232v-1.116l-1.9997-3.348v-1.116l-1.0832-1.8135-0.24996-0.4185v-1.116l-1.9997-3.348v-1.116l-1.3331-2.232v-1.116l-1.0832-1.8135-0.91653-1.5345v-1.116l-1.3331-2.232v-1.116l-1.3331-2.232v-1.116l-1.0832-1.8135-0.91653-1.5345v-1.116l-1.3331-2.232v-1.116l-1.9997-3.348v-1.116l-0.4166-0.6975-0.91653-1.5345v-1.116l-1.9997-3.348v-1.116l-1.3331-2.232v-1.116l-1.3331-2.232v-1.116l-1.9997-3.348v-1.116l-1.3331-2.232v-1.116l-1.9997-3.348v-1.116l-1.0832-1.8135-0.24996-0.4185v-1.116l-1.9997-3.348v-1.116l-1.3331-2.232v-1.116l-1.0832-1.8135-0.91653-1.5345v-1.116l-1.3331-2.232v-1.116l-1.3331-2.232v-1.116l-1.0832-1.8135-0.91653-1.5345v-1.116l-1.3331-2.232v-1.116l-1.9997-3.348v-1.116l-0.4166-0.6975-0.91653-1.5345v-1.116l-1.9997-3.348v-1.116l-1.3331-2.232v-1.116l-1.3331-2.232v-1.116l-1.9997-3.348v-1.116l-1.3331-2.232v-1.116l-1.9997-3.348v-1.116l-1.0832-1.8135-0.24996-0.4185v-1.116l-1.9997-3.348v-1.116h-0.083321v1.116l1.9997 3.348v1.116l1.3331 2.232v1.116l1.3331 2.232 0.66657 1.116v1.116l1.3331 2.232v1.116l0.33328 0.558 1.6664 2.79v1.116l0.66657 1.116 0.66657 1.116v1.116l1.3331 2.232v1.116l0.33328 0.558 1.6664 2.79v1.116l0.66657 1.116 0.66657 1.116v1.116l1.6664 2.79 0.33328 0.558v1.116l1.3331 2.232v1.116l0.66657 1.116 1.3331 2.232v1.116l0.99985 1.674 0.33328 0.558v1.116l1.3331 2.232v1.116l0.66657 1.116 1.3331 2.232v1.116l0.99985 1.674 0.33328 0.558v1.116l1.9997 3.348v1.116l1.3331 2.232v1.116l1.3331 2.232 0.66657 1.116v1.116l1.3331 2.232v1.116l0.33328 0.558 1.6664 2.79v1.116l0.66657 1.116 0.66657 1.116v1.116l1.3331 2.232v1.116l0.33328 0.558 1.6664 2.79v1.116l0.66657 1.116 0.66657 1.116v1.116l1.6664 2.79 0.33328 0.558v1.116l1.3331 2.232v1.116l0.66657 1.116 1.3331 2.232v1.116l0.99985 1.674 0.33328 0.558v1.116l1.3331 2.232v1.116l0.66657 1.116 1.3331 2.232v1.116l0.99985 1.674 0.33328 0.558v1.116l1.9997 3.348v1.116l1.3331 2.232v1.116l1.3331 2.232 0.66657 1.116v1.116l1.3331 2.232v1.116l0.33328 0.558 1.6664 2.79v1.116l0.66657 1.116 0.66657 1.116v1.116l1.3331 2.232v1.116l0.33328 0.558 1.6664 2.79v1.116l0.66657 1.116 0.66657 1.116v1.116l1.6664 2.79 0.33328 0.558v1.116l1.3331 2.232v1.116l0.66657 1.116 1.3331 2.232v1.116l0.99985 1.674 0.33328 0.558v1.116l1.3331 2.232v1.116l0.66657 1.116 1.3331 2.232v1.116l0.99985 1.674 0.33328 0.558v1.116l1.9997 3.348v1.116l1.3331 2.232v1.116z" clip-path="url(#pa826fead19)" fill="#f00" fill-opacity=".4"/>
   </g>
   <g id="PathCollection_6">
    <path d="m142.41 193.7 0.4166 0.6975h0.083321l-0.66657-1.116v-1.116l-1.1665-1.953-0.16664-0.279v-1.116l-1.9997-3.348v-1.116l-1.3331-2.232v-1.116l-1.1665-1.953-0.83321-1.395v-1.116l-1.3331-2.232v-1.116l-1.3331-2.232v-1.116l-1.1665-1.953-0.83321-1.395v-1.116l-1.3331-2.232v-1.116l-1.9997-3.348v-1.116l-1.3331-2.232v-1.116l-1.9997-3.348v-1.116l-1.3331-2.232v-1.116l-1.3331-2.232v-1.116l-1.9997-3.348v-1.116l-1.3331-2.232v-1.116l-1.9997-3.348v-1.116l-1.1665-1.953-0.16664-0.279v-1.116l-1.9997-3.348v-1.116l-1.3331-2.232v-1.116l-1.1665-1.953-0.83321-1.395v-1.116l-1.3331-2.232v-1.116l-1.3331-2.232v-1.116l-1.1665-1.953-0.83321-1.395v-1.116l-1.3331-2.232v-1.116l-1.9997-3.348v-1.116l-1.3331-2.232v-1.116l-1.9997-3.348v-1.116l-1.3331-2.232v-1.116l-1.3331-2.232v-1.116l-1.9997-3.348v-1.116l-1.3331-2.232v-1.116l-1.9997-3.348v-1.116l-1.1665-1.953-0.16664-0.279v-1.116l-1.9997-3.348v-1.116l-1.3331-2.232v-1.116l-1.1665-1.953-0.83321-1.395v-1.116l-1.3331-2.232v-1.116l-1.3331-2.232v-1.116l-1.1665-1.953-0.83321-1.395v-1.116l-1.3331-2.232v-1.116l-1.9997-3.348v-1.116l-1.3331-2.232v-1.116l-1.9997-3.348v-1.116l-1.3331-2.232v-1.116l-1.3331-2.232v-1.116l-1.9997-3.348v-1.116l-1.3331-2.232v-1.116l-1.9997-3.348v-1.116l-1.1665-1.953-0.16664-0.279v-1.116l-1.9997-3.348v-1.116h-0.083321v1.116l1.9997 3.348v1.116l1.3331 2.232v1.116l1.9997 3.348v1.116l1.3331 2.232v1.116l1.9997 3.348v1.116l1.3331 2.232v1.116l1.3331 2.232v1.116l1.9997 3.348v1.116l0.66657 1.116 0.66657 1.116v1.116l1.9997 3.348v1.116l1.3331 2.232v1.116l0.66657 1.116 1.3331 2.232v1.116l1.3331 2.232v1.116l1.3331 2.232v1.116l0.66657 1.116 1.3331 2.232v1.116l1.3331 2.232v1.116l1.9997 3.348v1.116l1.3331 2.232v1.116l1.9997 3.348v1.116l1.3331 2.232v1.116l1.9997 3.348v1.116l1.3331 2.232v1.116l1.3331 2.232v1.116l1.9997 3.348v1.116l0.66657 1.116 0.66657 1.116v1.116l1.9997 3.348v1.116l1.3331 2.232v1.116l0.66657 1.116 1.3331 2.232v1.116l1.3331 2.232v1.116l1.3331 2.232v1.116l0.66657 1.116 1.3331 2.232v1.116l1.3331 2.232v1.116l1.9997 3.348v1.116l1.3331 2.232v1.116l1.9997 3.348v1.116l1.3331 2.232v1.116l1.9997 3.348v1.116l1.3331 2.232v1.116l1.3331 2.232v1.116l1.9997 3.348v1.116l0.66657 1.116 0.66657 1.116v1.116l1.9997 3.348v1.116l1.3331 2.232v1.116l0.66657 1.116 1.3331 2.232v1.116l1.3331 2.232v1.116l1.3331 2.232v1.116l0.66657 1.116 1.3331 2.232v1.116l1.3331 2.232v1.116l1.9997 3.348v1.116l1.3331 2.232v1.116z" clip-path="url(#pa826fead19)" fill="#f00" fill-opacity=".4"/>
   </g>
   <g id="PathCollection_7">
    <path d="m142.41 193.56 0.49993 0.837h0.083321l-0.66657-1.116v-1.116l-1.2498-2.0925-0.08332-0.1395v-1.116l-1.9997-3.348v-1.116l-1.3331-2.232v-1.116l-1.2498-2.0925-0.74989-1.2555v-1.116l-1.3331-2.232v-1.116l-1.3331-2.232v-1.116l-1.9997-3.348v-1.116l-1.3331-2.232v-1.116l-1.9997-3.348v-1.116l-1.3331-2.232v-1.116l-1.9997-3.348v-1.116l-1.3331-2.232v-1.116l-1.3331-2.232v-1.116l-1.9997-3.348v-1.116l-1.3331-2.232v-1.116l-1.9997-3.348v-1.116l-1.2498-2.0925-0.08332-0.1395v-1.116l-1.9997-3.348v-1.116l-1.3331-2.232v-1.116l-1.2498-2.0925-0.74989-1.2555v-1.116l-1.3331-2.232v-1.116l-1.3331-2.232v-1.116l-1.9997-3.348v-1.116l-1.3331-2.232v-1.116l-1.9997-3.348v-1.116l-1.3331-2.232v-1.116l-1.9997-3.348v-1.116l-1.3331-2.232v-1.116l-1.3331-2.232v-1.116l-1.9997-3.348v-1.116l-1.3331-2.232v-1.116l-1.9997-3.348v-1.116l-1.2498-2.0925-0.08332-0.1395v-1.116l-1.9997-3.348v-1.116l-1.3331-2.232v-1.116l-1.2498-2.0925-0.74989-1.2555v-1.116l-1.3331-2.232v-1.116l-1.3331-2.232v-1.116l-1.9997-3.348v-1.116l-1.3331-2.232v-1.116l-1.9997-3.348v-1.116l-1.3331-2.232v-1.116l-1.9997-3.348v-1.116l-1.3331-2.232v-1.116l-1.3331-2.232v-1.116l-1.9997-3.348v-1.116l-1.3331-2.232v-1.116l-1.9997-3.348v-1.116l-1.2498-2.0925-0.08332-0.1395v-1.116l-1.9997-3.348v-1.116h-0.083321v1.116l1.9997 3.348v1.116l1.3331 2.232v1.116l1.9997 3.348v1.116l1.3331 2.232v1.116l1.9997 3.348v1.116l1.3331 2.232v1.116l1.3331 2.232v1.116l1.9997 3.348v1.116l1.3331 2.232v1.116l1.9997 3.348v1.116l1.3331 2.232v1.116l0.66657 1.116 1.3331 2.232v1.116l1.3331 2.232v1.116l1.3331 2.232v1.116l0.66657 1.116 1.3331 2.232v1.116l1.3331 2.232v1.116l1.9997 3.348v1.116l1.3331 2.232v1.116l1.9997 3.348v1.116l1.3331 2.232v1.116l1.9997 3.348v1.116l1.3331 2.232v1.116l1.3331 2.232v1.116l1.9997 3.348v1.116l1.3331 2.232v1.116l1.9997 3.348v1.116l1.3331 2.232v1.116l0.66657 1.116 1.3331 2.232v1.116l1.3331 2.232v1.116l1.3331 2.232v1.116l0.66657 1.116 1.3331 2.232v1.116l1.3331 2.232v1.116l1.9997 3.348v1.116l1.3331 2.232v1.116l1.9997 3.348v1.116l1.3331 2.232v1.116l1.9997 3.348v1.116l1.3331 2.232v1.116l1.3331 2.232v1.116l1.9997 3.348v1.116l1.3331 2.232v1.116l1.9997 3.348v1.116l1.3331 2.232v1.116l0.66657 1.116 1.3331 2.232v1.116l1.3331 2.232v1.116l1.3331 2.232v1.116l0.66657 1.116 1.3331 2.232v1.116l1.3331 2.232v1.116l1.9997 3.348v1.116l1.3331 2.232v1.116z" clip-path="url(#pa826fead19)" fill="#f00" fill-opacity=".4"/>
   </g>
   <g id="PathCollection_8">
    <path d="m142.41 193.42 0.58325 0.9765h0.083321 0.66657 0.66657 0.66657 0.66657 0.66657 0.66657 0.66657 0.66657 0.66657 0.66657 0.66657 0.66657 0.66657 0.66657 0.66657 0.66657 0.66657 0.66657 0.66657 0.66657 0.66657 0.66657 0.66657 0.66657 0.66657 0.66657 0.66657 0.66657 0.66657 0.66657 0.66657 0.66657 0.66657 0.66657 0.66657 0.66657 0.66657 0.66657 0.66657 0.66657 0.66657 0.66657 0.66657 0.66657 0.66657 0.66657 0.66657 0.66657 0.66657 0.66657 0.66657 0.66657 0.66657 0.66657 0.66657 0.66657 0.66657 0.66657 0.66657 0.66657 0.66657 0.66657 0.66657 0.66657 0.66657 0.66657 0.66657 0.66657 0.66657 0.66657 0.66657 0.66657 0.66657 0.66657 0.66657 0.66657 0.66657 0.66657 0.66657 0.66657v-1.116-1.116-1.116-1.116-1.116-1.116-1.116-1.116-1.116-1.116-1.116-1.116-1.116-1.116-1.116-1.116-1.116-1.116-1.116-1.116-1.116-1.116-1.116-1.116-1.116-1.116-1.116-1.116-1.116-1.116-1.116-1.116-1.116-1.116-1.116-1.116-1.116-1.116-1.116-1.116-1.116-1.116-1.116-1.116-1.116-1.116-1.116-1.116-1.116-1.116-1.116-1.116-1.116-1.116-1.116-1.116-1.116-1.116-1.116-1.116-1.116-1.116-1.116-1.116-1.116-1.116-1.116-1.116-1.116-1.116-1.116-1.116-1.116-1.116-1.116-1.116-1.116-1.116-1.116-1.116-1.116-1.116-1.116-1.116-1.116-1.116-1.116-1.116-1.116-1.116-1.116-1.116-1.116-1.116-1.116-1.116-1.116-1.116-1.116-1.116-1.116-1.116-1.116-1.116-1.116-1.116-1.116-1.116-1.116-1.116-1.116-1.116-1.116-1.116-1.116-1.116-1.116-1.116-1.116-1.116-1.116-1.116-1.116-1.116-1.116-1.116-1.116-1.116-1.116-1.116-1.116-1.116-1.116-1.116-1.116-1.116-1.116-1.116-1.116-1.116-1.116-1.116-1.116-1.116-1.116-1.116-1.116-1.116-1.116-1.116-1.116-1.116-1.116-1.116-1.116-1.116-1.116-1.116-1.116-1.116-1.116-1.116-1.116-1.116-1.116-1.116-1.116-1.116-1.116-1.116-1.116-1.116-1.116-1.116h-0.66657-0.66657-0.66657-0.66657-0.66657-0.66657-0.66657-0.66657-0.66657-0.66657-0.66657-0.66657-0.66657-0.66657-0.66657-0.66657-0.66657-0.66657-0.66657-0.66657-0.66657-0.66657-0.66657-0.66657-0.66657-0.66657-0.66657-0.66657-0.66657-0.66657-0.66657-0.66657-0.66657-0.66657-0.66657-0.66657-0.66657-0.66657-0.66657-0.66657-0.66657-0.66657-0.66657-0.66657-0.66657-0.66657-0.66657-0.66657-0.66657-0.66657-0.66657-0.66657-0.66657-0.66657-0.66657-0.66657-0.66657-0.66657-0.66657-0.66657-0.66657-0.66657-0.66657-0.66657-0.66657-0.66657-0.66657-0.66657-0.66657-0.66657-0.66657-0.66657-0.66657-0.66657-0.66657-0.66657-0.66657-0.66657-0.66657-0.66657-0.66657-0.66657-0.66657-0.66657-0.66657-0.66657-0.66657-0.66657-0.66657-0.66657-0.66657-0.66657-0.66657-0.66657-0.66657-0.66657-0.66657-0.66657-0.66657-0.66657-0.66657-0.66657-0.66657-0.66657-0.66657-0.66657-0.66657-0.66657-0.66657-0.66657-0.66657-0.66657-0.66657-0.66657-0.66657-0.66657-0.66657-0.66657-0.66657-0.66657-0.66657-0.66657-0.66657-0.66657-0.66657-0.66657-0.66657-0.66657-0.66657-0.66657-0.66657-0.66657-0.66657-0.66657-0.66657-0.66657-0.66657-0.66657-0.66657-0.66657-0.66657-0.66657-0.66657-0.66657-0.66657-0.66657-0.66657-0.66657-0.66657-0.66657-0.66657-0.66657-0.66657-0.66657-0.66657-0.66657-0.66657-0.66657-0.66657-0.66657-0.66657-0.66657-0.66657-0.66657-0.66657-0.66657-0.66657-0.66657-0.66657-0.66657-0.66657-0.66657-0.66657-0.66657-0.66657-0.66657-0.66657-0.66657-0.66657-0.66657-0.66657-0.66657-0.66657-0.66657-0.66657-0.66657-0.66657-0.66657-0.66657-0.66657-0.66657-0.66657-0.66657-0.66657-0.66657-0.66657-0.66657-0.66657-0.66657-0.66657-0.66657-0.66657-0.66657-0.083321v1.116l1.9997 3.348v1.116l1.3331 2.232v1.116l1.9997 3.348v1.116l1.3331 2.232v1.116l1.9997 3.348v1.116l1.3331 2.232v1.116l1.3331 2.232v1.116l1.9997 3.348v1.116l1.3331 2.232v1.116l1.9997 3.348v1.116l1.3331 2.232v1.116l1.9997 3.348v1.116l1.3331 2.232v1.116l1.3331 2.232v1.116l0.66657 1.116 1.3331 2.232v1.116l1.3331 2.232v1.116l1.9997 3.348v1.116l1.3331 2.232v1.116l1.9997 3.348v1.116l1.3331 2.232v1.116l1.9997 3.348v1.116l1.3331 2.232v1.116l1.3331 2.232v1.116l1.9997 3.348v1.116l1.3331 2.232v1.116l1.9997 3.348v1.116l1.3331 2.232v1.116l1.9997 3.348v1.116l1.3331 2.232v1.116l1.3331 2.232v1.116l0.66657 1.116 1.3331 2.232v1.116l1.3331 2.232v1.116l1.9997 3.348v1.116l1.3331 2.232v1.116l1.9997 3.348v1.116l1.3331 2.232v1.116l1.9997 3.348v1.116l1.3331 2.232v1.116l1.3331 2.232v1.116l1.9997 3.348v1.116l1.3331 2.232v1.116l1.9997 3.348v1.116l1.3331 2.232v1.116l1.9997 3.348v1.116l1.3331 2.232v1.116l1.3331 2.232v1.116l0.66657 1.116 1.3331 2.232v1.116l1.3331 2.232v1.116l1.9997 3.348v1.116l1.3331 2.232v1.116z" clip-path="url(#pa826fead19)" fill="#f00" fill-opacity=".4"/>
   </g>
   <g id="PathCollection_9" fill="#00f" stroke="#00f" stroke-width="1.5">
    <path d="m80.753 113.7 6-6m-6 0 6 6" clip-path="url(#pa826fead19)"/>
    <path d="m77.42 119.28 6-6m-6 0 6 6" clip-path="url(#pa826fead19)"/>
    <path d="m84.086 124.86 6-6m-6 0 6 6" clip-path="url(#pa826fead19)"/>
    <path d="m77.42 124.86 6-6m-6 0 6 6" clip-path="url(#pa826fead19)"/>
    <path d="m30.76 136.02 6-6m-6 0 6 6" clip-path="url(#pa826fead19)"/>
    <path d="m80.753 113.7 6-6m-6 0 6 6" clip-path="url(#pa826fead19)"/>
    <path d="m64.089 124.86 6-6m-6 0 6 6" clip-path="url(#pa826fead19)"/>
    <path d="m60.756 136.02 6-6m-6 0 6 6" clip-path="url(#pa826fead19)"/>
    <path d="m80.753 113.7 6-6m-6 0 6 6" clip-path="url(#pa826fead19)"/>
    <path d="m64.089 130.44 6-6m-6 0 6 6" clip-path="url(#pa826fead19)"/>
    <path d="m87.419 113.7 6-6m-6 0 6 6" clip-path="url(#pa826fead19)"/>
    <path d="m60.756 119.28 6-6m-6 0 6 6" clip-path="url(#pa826fead19)"/>
    <path d="m77.42 130.44 6-6m-6 0 6 6" clip-path="url(#pa826fead19)"/>
    <path d="m87.419 108.12 6-6m-6 0 6 6" clip-path="url(#pa826fead19)"/>
    <path d="m70.754 124.86 6-6m-6 0 6 6" clip-path="url(#pa826fead19)"/>
    <path d="m80.753 124.86 6-6m-6 0 6 6" clip-path="url(#pa826fead19)"/>
    <path d="m77.42 119.28 6-6m-6 0 6 6" clip-path="url(#pa826fead19)"/>
    <path d="m97.417 102.54 6-6m-6 0 6 6" clip-path="url(#pa826fead19)"/>
    <path d="m40.759 141.6 6-6m-6 0 6 6" clip-path="url(#pa826fead19)"/>
    <path d="m50.757 124.86 6-6m-6 0 6 6" clip-path="url(#pa826fead19)"/>
    <path d="m60.756 130.44 6-6m-6 0 6 6" clip-path="url(#pa826fead19)"/>
    <path d="m74.087 124.86 6-6m-6 0 6 6" clip-path="url(#pa826fead19)"/>
    <path d="m67.422 141.6 6-6m-6 0 6 6" clip-path="url(#pa826fead19)"/>
    <path d="m47.425 141.6 6-6m-6 0 6 6" clip-path="url(#pa826fead19)"/>
    <path d="m87.419 119.28 6-6m-6 0 6 6" clip-path="url(#pa826fead19)"/>
    <path d="m80.753 113.7 6-6m-6 0 6 6" clip-path="url(#pa826fead19)"/>
    <path d="m90.751 119.28 6-6m-6 0 6 6" clip-path="url(#pa826fead19)"/>
    <path d="m90.751 96.96 6-6m-6 0 6 6" clip-path="url(#pa826fead19)"/>
    <path d="m67.422 124.86 6-6m-6 0 6 6" clip-path="url(#pa826fead19)"/>
    <path d="m84.086 119.28 6-6m-6 0 6 6" clip-path="url(#pa826fead19)"/>
   </g>
   <g id="PathCollection_10">
    <defs>
     <path id="C0_0_6a155f358d" d="m0 3c0.79561 0 1.5587-0.3161 2.1213-0.87868 0.56258-0.56258 0.87868-1.3257 0.87868-2.1213s-0.3161-1.5587-0.87868-2.1213c-0.56258-0.56258-1.3257-0.87868-2.1213-0.87868s-1.5587 0.3161-2.1213 0.87868c-0.56258 0.56258-0.87868 1.3257-0.87868 2.1213s0.3161 1.5587 0.87868 2.1213c0.56258 0.56258 1.3257 0.87868 2.1213 0.87868z"/>
    </defs>
    <g clip-path="url(#pa826fead19)">
     <use x="157.075414" y="82.8" fill="#ff0000" stroke="#000000" xlink:href="#C0_0_6a155f358d"/>
    </g>
    <g clip-path="url(#pa826fead19)">
     <use x="163.741091" y="66.06" fill="#ff0000" stroke="#000000" xlink:href="#C0_0_6a155f358d"/>
    </g>
    <g clip-path="url(#pa826fead19)">
     <use x="127.079866" y="71.64" fill="#ff0000" stroke="#000000" xlink:href="#C0_0_6a155f358d"/>
    </g>
    <g clip-path="url(#pa826fead19)">
     <use x="113.748512" y="66.06" fill="#ff0000" stroke="#000000" xlink:href="#C0_0_6a155f358d"/>
    </g>
    <g clip-path="url(#pa826fead19)">
     <use x="117.081351" y="93.96" fill="#ff0000" stroke="#000000" xlink:href="#C0_0_6a155f358d"/>
    </g>
    <g clip-path="url(#pa826fead19)">
     <use x="113.748512" y="77.22" fill="#ff0000" stroke="#000000" xlink:href="#C0_0_6a155f358d"/>
    </g>
    <g clip-path="url(#pa826fead19)">
     <use x="133.745544" y="93.96" fill="#ff0000" stroke="#000000" xlink:href="#C0_0_6a155f358d"/>
    </g>
    <g clip-path="url(#pa826fead19)">
     <use x="103.749996" y="88.38" fill="#ff0000" stroke="#000000" xlink:href="#C0_0_6a155f358d"/>
    </g>
    <g clip-path="url(#pa826fead19)">
     <use x="100.417158" y="88.38" fill="#ff0000" stroke="#000000" xlink:href="#C0_0_6a155f358d"/>
    </g>
    <g clip-path="url(#pa826fead19)">
     <use x="127.079866" y="105.12" fill="#ff0000" stroke="#000000" xlink:href="#C0_0_6a155f358d"/>
    </g>
    <g clip-path="url(#pa826fead19)">
     <use x="133.745544" y="54.9" fill="#ff0000" stroke="#000000" xlink:href="#C0_0_6a155f358d"/>
    </g>
    <g clip-path="url(#pa826fead19)">
     <use x="97.084319" y="82.8" fill="#ff0000" stroke="#000000" xlink:href="#C0_0_6a155f358d"/>
    </g>
    <g clip-path="url(#pa826fead19)">
     <use x="110.415673" y="66.06" fill="#ff0000" stroke="#000000" xlink:href="#C0_0_6a155f358d"/>
    </g>
    <g clip-path="url(#pa826fead19)">
     <use x="130.412705" y="77.22" fill="#ff0000" stroke="#000000" xlink:href="#C0_0_6a155f358d"/>
    </g>
    <g clip-path="url(#pa826fead19)">
     <use x="120.414189" y="60.48" fill="#ff0000" stroke="#000000" xlink:href="#C0_0_6a155f358d"/>
    </g>
    <g clip-path="url(#pa826fead19)">
     <use x="123.747028" y="54.9" fill="#ff0000" stroke="#000000" xlink:href="#C0_0_6a155f358d"/>
    </g>
    <g clip-path="url(#pa826fead19)">
     <use x="103.749996" y="88.38" fill="#ff0000" stroke="#000000" xlink:href="#C0_0_6a155f358d"/>
    </g>
    <g clip-path="url(#pa826fead19)">
     <use x="103.749996" y="93.96" fill="#ff0000" stroke="#000000" xlink:href="#C0_0_6a155f358d"/>
    </g>
    <g clip-path="url(#pa826fead19)">
     <use x="147.076898" y="82.8" fill="#ff0000" stroke="#000000" xlink:href="#C0_0_6a155f358d"/>
    </g>
    <g clip-path="url(#pa826fead19)">
     <use x="110.415673" y="88.38" fill="#ff0000" stroke="#000000" xlink:href="#C0_0_6a155f358d"/>
    </g>
    <g clip-path="url(#pa826fead19)">
     <use x="103.749996" y="82.8" fill="#ff0000" stroke="#000000" xlink:href="#C0_0_6a155f358d"/>
    </g>
    <g clip-path="url(#pa826fead19)">
     <use x="137.078382" y="54.9" fill="#ff0000" stroke="#000000" xlink:href="#C0_0_6a155f358d"/>
    </g>
    <g clip-path="url(#pa826fead19)">
     <use x="117.081351" y="93.96" fill="#ff0000" stroke="#000000" xlink:href="#C0_0_6a155f358d"/>
    </g>
    <g clip-path="url(#pa826fead19)">
     <use x="103.749996" y="60.48" fill="#ff0000" stroke="#000000" xlink:href="#C0_0_6a155f358d"/>
    </g>
    <g clip-path="url(#pa826fead19)">
     <use x="93.751481" y="93.96" fill="#ff0000" stroke="#000000" xlink:href="#C0_0_6a155f358d"/>
    </g>
    <g clip-path="url(#pa826fead19)">
     <use x="127.079866" y="93.96" fill="#ff0000" stroke="#000000" xlink:href="#C0_0_6a155f358d"/>
    </g>
    <g clip-path="url(#pa826fead19)">
     <use x="107.082835" y="66.06" fill="#ff0000" stroke="#000000" xlink:href="#C0_0_6a155f358d"/>
    </g>
    <g clip-path="url(#pa826fead19)">
     <use x="100.417158" y="82.8" fill="#ff0000" stroke="#000000" xlink:href="#C0_0_6a155f358d"/>
    </g>
    <g clip-path="url(#pa826fead19)">
     <use x="123.747028" y="77.22" fill="#ff0000" stroke="#000000" xlink:href="#C0_0_6a155f358d"/>
    </g>
    <g clip-path="url(#pa826fead19)">
     <use x="130.412705" y="66.06" fill="#ff0000" stroke="#000000" xlink:href="#C0_0_6a155f358d"/>
    </g>
   </g>
   <g id="matplotlib.axis_1">
    <g id="text_1">
     <!-- epochsï¼š500 -->
     <defs>
      <path id="SimHei-101" d="m44.922 16.406q-0.78125-7.0312-6.25-11.328t-12.891-4.2969q-9.375 0-15.438 6.0469-6.0469 6.0625-6.0469 16.609t6.0469 16.594q6.0625 6.0625 15.438 6.0625 8.2031 0 13.469-5.2812 5.2812-5.2656 5.2812-17.375h-31.641q0-8.5938 3.7031-12.109 3.7188-3.5156 9.1875-3.5156 4.2969 0 7.0312 2.1406 2.7344 2.1562 3.5156 6.4531zm-9.375 13.281q-0.78125 5.4688-3.5156 7.6094-2.7344 2.1562-7.0312 2.1562-3.9062 0-7.0312-2.1562-3.125-2.1406-4.6875-7.6094z"/>
      <path id="SimHei-112" d="m44.531 23.438q0-11.328-5.4688-17.188t-13.281-5.8594q-4.2969 0-7.4219 1.75-3.125 1.7656-5.4688 5.2812v-20.312h-7.8125v58.203h7.8125v-5.8594q2.3438 3.5156 5.4688 5.0781t7.4219 1.5625q7.8125 0 13.281-5.6719 5.4688-5.6562 5.4688-16.984zm-8.5938 0q0 7.4219-2.9375 11.516-2.9219 4.1094-8.7812 4.1094-4.6875 0-8.0156-4.1094-3.3125-4.0938-3.3125-11.516t3.3125-11.719q3.3281-4.2969 8.0156-4.2969 5.8594 0 8.7812 4.2969 2.9375 4.2969 2.9375 11.719z"/>
      <path id="SimHei-111" d="m46.094 23.438q0-10.156-6.25-16.406t-14.844-6.25-14.844 6.25-6.25 16.406 6.25 16.406 14.844 6.25 14.844-6.25 6.25-16.406zm-8.5938 0q0 7.8125-3.9062 11.719t-8.5938 3.9062-8.5938-3.9062-3.9062-11.719 3.9062-11.719 8.5938-3.9062 8.5938 3.9062 3.9062 11.719z"/>
      <path id="SimHei-99" d="m44.922 19.141q0-8.2031-5.6719-13.281-5.6562-5.0781-14.25-5.0781t-14.844 6.0469q-6.25 6.0625-6.25 16.609t6.25 16.594q6.25 6.0625 14.844 6.0625t13.672-4.5q5.0781-4.4844 5.0781-10.734h-8.5938q-0.39062 4.6875-3.3281 6.4375-2.9219 1.7656-6.8281 1.7656-4.6875 0-8.5938-3.7188-3.9062-3.7031-3.9062-11.906t3.9062-11.922q3.9062-3.7031 8.5938-3.7031 5.0781 0 8.2031 2.7344t3.125 8.5938z"/>
      <path id="SimHei-104" d="m44.141 1.5625h-7.8125v28.125q0 4.6875-2.3438 7.4219t-6.25 2.7344q-5.0781 0-9.5781-5.2812-4.4844-5.2656-4.4844-13.078v-19.922h-7.8125v66.797h7.8125v-31.25q3.125 4.2969 6.8281 6.6406 3.7188 2.3438 9.5781 2.3438 7.0312 0 10.547-3.9062t3.5156-9.7656z"/>
      <path id="SimHei-115" d="m43.359 13.672q0-6.25-4.8906-9.5781-4.875-3.3125-12.297-3.3125-9.375 0-14.453 3.7031-5.0781 3.7188-5.0781 10.75h7.8125q0-4.6875 3.3125-6.25 3.3281-1.5625 8.0156-1.5625t7.0312 1.75q2.3438 1.7656 2.3438 4.5 0 1.9531-1.9531 3.9062t-9.7656 3.125q-8.9844 1.1719-12.312 4.4844-3.3125 3.3281-3.3125 8.7969 0 4.6875 4.4844 8.3906 4.5 3.7188 13.094 3.7188 7.8125 0 12.297-3.5156 4.5-3.5156 4.5-9.375h-7.8125q0 3.5156-2.5469 4.875-2.5312 1.375-6.4375 1.375-5.0781 0-7.2344-1.7656-2.1406-1.75-2.1406-4.0938 0-2.7344 1.9531-4.2969t8.2031-2.3438q10.156-1.5625 13.672-4.8906 3.5156-3.3125 3.5156-8.3906z"/>
      <path id="SimHei-65306" d="m19.531-2.7344q6.6406 3.9062 6.8281 7.6094 0.20312 3.7188-3.125 5.8594-3.3125 2.1562-7.0312 0.20312-3.7031-1.9531-3.5156-5.8594 0.20312-3.9062 3.5156-5.8594 3.3281-1.9531 9.9688 1.9531zm-0.78125 23.438q8.2031 3.5156 8.2031 7.6094 0 4.1094-3.5156 5.8594-3.5156 1.7656-7.0312 0-3.5156-1.75-3.7188-5.4688-0.1875-3.7031 2.9375-5.8594 3.125-2.1406 11.328 1.375z"/>
      <path id="SimHei-53" d="m44.141 25.781q0-11.719-5.6719-18.359-5.6562-6.6406-15.031-6.6406-8.2031 0-13.484 5.4688-5.2656 5.4688-5.6562 14.844h8.9844q0-5.8594 2.7344-9.375t7.8125-3.5156 8 4.2969q2.9375 4.2969 2.9375 13.281 0 7.8125-2.5469 11.516-2.5312 3.7188-6.8281 3.7188-3.5156 0-6.0625-1.5625-2.5312-1.5625-4.875-5.4688h-7.8125l2.3438 34.375h33.594v-7.4219h-26.172l-1.5625-17.969q2.3438 2.3438 5.0781 3.5156t7.4219 1.1719q7.4219 0 12.109-5.6719 4.6875-5.6562 4.6875-16.203z"/>
      <path id="SimHei-48" d="m46.484 35.156q0-14.062-5.0781-24.219t-16.406-10.156-16.609 10.156q-5.2656 10.156-5.2656 24.219t5.2656 24.016q5.2812 9.9688 16.609 9.9688t16.406-9.9688q5.0781-9.9531 5.0781-24.016zm-9.375 0q0 12.5-2.9375 19.531-2.9219 7.0312-9.1719 7.0312t-9.375-7.0312-3.125-19.531 3.125-19.734q3.125-7.2188 9.375-7.2188t9.1719 7.2188q2.9375 7.2344 2.9375 19.734z"/>
     </defs>
     <g transform="translate(62.667 207.39) scale(.13 -.13)">
      <use xlink:href="#SimHei-101"/>
      <use x="50" xlink:href="#SimHei-112"/>
      <use x="100" xlink:href="#SimHei-111"/>
      <use x="150" xlink:href="#SimHei-99"/>
      <use x="200" xlink:href="#SimHei-104"/>
      <use x="250" xlink:href="#SimHei-115"/>
      <use x="300" xlink:href="#SimHei-65306"/>
      <use x="400" xlink:href="#SimHei-53"/>
      <use x="450" xlink:href="#SimHei-48"/>
      <use x="500" xlink:href="#SimHei-48"/>
     </g>
    </g>
   </g>
   <g id="line2d_1">
    <path d="m60.078-1 92.329 218" clip-path="url(#pa826fead19)" fill="none" stroke="#000" stroke-linecap="square" stroke-width="1.5"/>
   </g>
   <g id="patch_3">
    <path d="m0.432 194.4v-194.18" fill="none" stroke="#000" stroke-linecap="square" stroke-width=".8"/>
   </g>
   <g id="patch_4">
    <path d="m196.4 194.4v-194.18" fill="none" stroke="#000" stroke-linecap="square" stroke-width=".8"/>
   </g>
   <g id="patch_5">
    <path d="m0.432 194.4h195.97" fill="none" stroke="#000" stroke-linecap="square" stroke-width=".8"/>
   </g>
   <g id="patch_6">
    <path d="m0.432 0.216h195.97" fill="none" stroke="#000" stroke-linecap="square" stroke-width=".8"/>
   </g>
  </g>
  <g id="axes_2">
   <g id="patch_7">
    <path d="m235.6 194.4h195.97v-194.18h-195.97z" fill="#fff"/>
   </g>
   <g id="PathCollection_11">
    <path d="m236.33 194.4h0.72852 0.72852 0.72852 0.72852 0.72852 0.72852 0.72852 0.72852 0.72852 0.72852 0.72852 0.72852 0.72852 0.72852 0.72852 0.72852 0.72852 0.72852 0.72852 0.72852 0.72852 0.72852 0.72852 0.72852 0.72852 0.72852 0.72852 0.72852 0.72852 0.72852 0.72852 0.72852 0.72852 0.72852 0.72852 0.72852 0.72852 0.72852 0.72852 0.72852 0.72852 0.72852 0.72852 0.72852 0.72852 0.72852 0.72852 0.72852 0.72852 0.72852 0.72852 0.72852 0.72852 0.72852 0.72852 0.72852 0.72852 0.72852 0.72852 0.72852 0.72852 0.72852 0.72852 0.72852 0.72852 0.72852 0.72852 0.72852 0.72852 0.72852 0.72852 0.72852 0.72852 0.72852 0.72852 0.72852 0.72852 0.72852 0.72852 0.72852 0.72852 0.72852 0.72852 0.72852 0.72852 0.72852 0.72852 0.72852 0.72852 0.72852 0.72852 0.72852 0.72852 0.72852 0.72852 0.72852 0.72852 0.72852 0.72852 0.72852 0.72852 0.72852 0.72852 0.72852 0.72852 0.72852 0.72852 0.72852 0.72852 0.72852 0.72852 0.72852 0.72852 0.72852 0.72852 0.72852 0.72852 0.72852 0.72852 0.72852 0.72852 0.72852 0.72852 0.72852 0.72852 0.72852 0.72852 0.72852 0.72852 0.72852 0.72852 0.72852 0.72852 0.72852 0.72852 0.72852 0.72852 0.72852 0.72852 0.72852 0.72852 0.72852 0.72852 0.72852 0.72852 0.72852 0.72852 0.72852 0.72852 0.72852 0.72852 0.72852 0.72852 0.72852 0.72852 0.72852 0.72852 0.72852 0.72852 0.72852 0.72852 0.72852 0.72852 0.72852 0.72852 0.72852 0.72852 0.72852 0.72852 0.72852 0.72852 0.72852 0.72852 0.72852 0.72852 0.72852 0.72852 0.72852 0.72852 0.72852 0.72852 0.72852 0.72852 0.72852 0.72852 0.72852 0.72852 0.72852 0.72852 0.72852 0.72852 0.72852 0.72852 0.72852 0.72852 0.72852 0.72852 0.091065l-0.091065-0.14801-0.63745-1.036v-1.184l-1.457-2.3681v-1.184l-0.091065-0.14801-0.63745-1.036-1.457-2.3681v-1.184l-0.72852-1.184-0.72852-1.184v-1.184l-0.091065-0.14801-0.63745-1.036-1.457-2.3681v-1.184l-0.72852-1.184-0.72852-1.184v-1.184l-0.091065-0.14801-0.63745-1.036-0.72852-1.184v-1.184l-0.091065-0.14801-1.366-2.2201-0.72852-1.184v-1.184l-0.091065-0.14801-0.63745-1.036-0.72852-1.184v-1.184l-0.091065-0.14801-1.366-2.2201-0.72852-1.184v-1.184l-0.091065-0.14801-0.63745-1.036-0.72852-1.184v-1.184l-0.091065-0.14801-1.366-2.2201-0.72852-1.184v-1.184l-0.091065-0.14801-0.63745-1.036-0.72852-1.184v-1.184l-1.457-2.3681v-1.184l-2.1855-3.5521v-1.184l-1.457-2.3681v-1.184l-2.1855-3.5521v-1.184l-1.457-2.3681v-1.184l-2.1855-3.5521v-1.184l-1.457-2.3681v-1.184l-0.72852-1.184-1.457-2.3681v-1.184l-1.457-2.3681v-1.184l-0.72852-1.184-0.72852-1.184v-1.184l-0.091065-0.14801-0.63745-1.036-1.457-2.3681v-1.184l-0.091065-0.14801-0.63745-1.036-0.72852-1.184v-1.184l-0.091065-0.14801-0.63745-1.036-1.457-2.3681v-1.184l-0.091065-0.14801-0.63745-1.036-0.72852-1.184v-1.184l-0.091065-0.14801-0.63745-1.036-1.457-2.3681v-1.184l-0.091065-0.14801-0.63745-1.036-0.72852-1.184v-1.184l-0.72852-1.184-0.72852-1.184v-1.184l-1.457-2.3681-0.72852-1.184v-1.184l-0.091065-0.14801-1.366-2.2201v-1.184l-1.457-2.3681-0.72852-1.184v-1.184l-1.457-2.3681v-1.184l-1.457-2.3681-0.72852-1.184v-1.184l-0.091065-0.14801-1.366-2.2201v-1.184l-1.457-2.3681-0.72852-1.184v-1.184l-0.091065-0.14801-1.366-2.2201v-1.184l-1.457-2.3681v-1.184l-0.72852-1.184-1.457-2.3681v-1.184l-1.457-2.3681v-1.184l-0.72852-1.184-1.457-2.3681v-1.184l-1.457-2.3681v-1.184l-0.091065-0.14801-0.63745-1.036-1.457-2.3681v-1.184l-1.457-2.3681v-1.184l-0.72852-1.184-0.72852-1.184v-1.184l-0.091065-0.14801-0.63745-1.036-0.72852-1.184-0.72852-1.184v-1.184l-0.091065-0.14801-0.63745-1.036-0.72852-1.184v-1.184l-0.091065-0.14801-0.63745-1.036h-0.091064-0.72852-0.72852-0.72852-0.72852-0.72852-0.72852-0.72852-0.72852-0.72852-0.72852-0.72852-0.72852-0.72852-0.72852-0.72852-0.72852-0.72852-0.72852-0.72852-0.72852-0.72852-0.72852-0.72852-0.72852-0.72852-0.72852-0.72852-0.72852-0.72852-0.72852-0.72852-0.72852-0.72852-0.72852-0.72852-0.72852-0.72852-0.72852-0.72852-0.72852-0.72852-0.72852-0.72852-0.72852-0.72852-0.72852-0.72852-0.72852-0.72852-0.72852-0.72852-0.72852-0.72852-0.72852-0.72852-0.72852-0.72852-0.72852-0.72852-0.72852-0.72852-0.72852-0.72852-0.72852-0.72852-0.72852-0.72852-0.72852-0.72852-0.72852-0.72852-0.72852-0.72852-0.72852-0.72852-0.72852-0.72852-0.72852-0.72852-0.72852-0.72852-0.72852v1.184 1.184 1.184 1.184 1.184 1.184 1.184 1.184 1.184 1.184 1.184 1.184 1.184 1.184 1.184 1.184 1.184 1.184 1.184 1.184 1.184 1.184 1.184 1.184 1.184 1.184 1.184 1.184 1.184 1.184 1.184 1.184 1.184 1.184 1.184 1.184 1.184 1.184 1.184 1.184 1.184 1.184 1.184 1.184 1.184 1.184 1.184 1.184 1.184 1.184 1.184 1.184 1.184 1.184 1.184 1.184 1.184 1.184 1.184 1.184 1.184 1.184 1.184 1.184 1.184 1.184 1.184 1.184 1.184 1.184 1.184 1.184 1.184 1.184 1.184 1.184 1.184 1.184 1.184 1.184 1.184 1.184 1.184 1.184 1.184 1.184 1.184 1.184 1.184 1.184 1.184 1.184 1.184 1.184 1.184 1.184 1.184 1.184 1.184 1.184 1.184 1.184 1.184 1.184 1.184 1.184 1.184 1.184 1.184 1.184 1.184 1.184 1.184 1.184 1.184 1.184 1.184 1.184 1.184 1.184 1.184 1.184 1.184 1.184 1.184 1.184 1.184 1.184 1.184 1.184 1.184 1.184 1.184 1.184 1.184 1.184 1.184 1.184 1.184 1.184 1.184 1.184 1.184 1.184 1.184 1.184 1.184 1.184 1.184 1.184 1.184 1.184 1.184 1.184 1.184 1.184 1.184 1.184 1.184 1.184 1.184 1.184 1.184 1.184z" clip-path="url(#pffb6b66e7b)" fill="#1e90ff" fill-opacity=".4"/>
   </g>
   <g id="PathCollection_12">
    <path d="m379.84 194.25 0.091065 0.14801h0.091064l-0.72852-1.184v-1.184l-1.457-2.3681v-1.184l-1.457-2.3681-0.72852-1.184v-1.184l-1.457-2.3681v-1.184l-2.1855-3.5521v-1.184l-1.457-2.3681v-1.184l-1.457-2.3681v-1.184l-2.1855-3.5521v-1.184l-1.457-2.3681v-1.184l-0.18213-0.29601-0.54639-0.88804-1.457-2.3681v-1.184l-1.457-2.3681v-1.184l-0.18213-0.29601-2.0034-3.2561v-1.184l-1.457-2.3681v-1.184l-0.72852-1.184-0.72852-1.184v-1.184l-1.457-2.3681-0.72852-1.184v-1.184l-1.457-2.3681v-1.184l-2.1855-3.5521v-1.184l-1.457-2.3681v-1.184l-1.457-2.3681-0.72852-1.184v-1.184l-1.457-2.3681v-1.184l-2.1855-3.5521v-1.184l-1.457-2.3681v-1.184l-1.457-2.3681v-1.184l-2.1855-3.5521v-1.184l-1.457-2.3681v-1.184l-0.72852-1.184-1.457-2.3681v-1.184l-0.72852-1.184-0.72852-1.184v-1.184l-2.1855-3.5521v-1.184l-1.457-2.3681v-1.184l-1.457-2.3681v-1.184l-1.457-2.3681-0.72852-1.184v-1.184l-1.457-2.3681v-1.184l-2.1856-3.5521v-1.184l-1.457-2.3681v-1.184l-1.457-2.3681-0.72852-1.184v-1.184l-0.18213-0.29601-1.2749-2.0721v-1.184l-2.1855-3.5521v-1.184l-1.457-2.3681v-1.184l-0.72852-1.184-0.72852-1.184v-1.184l-2.1855-3.5521v-1.184l-1.457-2.3681v-1.184l-2.1855-3.5521v-1.184l-1.457-2.3681v-1.184l-2.1855-3.5521v-1.184l-1.457-2.3681v-1.184l-1.457-2.3681v-1.184l-2.1855-3.5521v-1.184l-1.457-2.3681v-1.184l-0.72852-1.184h-0.091065l0.72852 1.184v1.184l0.63745 1.036 0.81958 1.3321v1.184l0.63745 1.036 0.72852 1.184 0.81958 1.3321v1.184l0.63745 1.036 0.81958 1.3321v1.184l1.366 2.2201 0.091064 0.14801v1.184l1.366 2.2201 0.81958 1.3321v1.184l1.366 2.2201 0.091064 0.14801v1.184l1.366 2.2201 0.81958 1.3321v1.184l1.366 2.2201 0.091064 0.14801v1.184l1.366 2.2201 0.72852 1.184 0.091064 0.14801v1.184l1.366 2.2201 0.091064 0.14801v1.184l1.457 2.3681v1.184l0.63745 1.036 1.457 2.3681 0.091064 0.14801v1.184l0.72852 1.184 0.72852 1.184v1.184l0.63745 1.036 1.457 2.3681 0.091064 0.14801v1.184l1.457 2.3681v1.184l0.63745 1.036 1.457 2.3681 0.091064 0.14801v1.184l1.457 2.3681v1.184l0.63745 1.036 1.457 2.3681 0.091064 0.14801v1.184l0.63745 1.036 0.81958 1.3321v1.184l0.63745 1.036 0.81958 1.3321v1.184l1.366 2.2201 0.81958 1.3321v1.184l0.63745 1.036 0.81958 1.3321v1.184l1.366 2.2201 0.81958 1.3321v1.184l0.63745 1.036 0.81958 1.3321v1.184l1.366 2.2201 0.81958 1.3321v1.184l0.63745 1.036 0.72852 1.184 0.091064 0.14801v1.184l1.366 2.2201 0.091064 0.14801v1.184l1.366 2.2201 0.72852 1.184 0.091064 0.14801v1.184l1.366 2.2201 0.091064 0.14801v1.184l2.0945 3.4041 0.091064 0.14801v1.184l1.366 2.2201 0.091064 0.14801v1.184l2.0945 3.4041 0.091064 0.14801v1.184l1.366 2.2201 0.091064 0.14801v1.184l2.0945 3.4041 0.091064 0.14801v1.184l1.366 2.2201 0.091064 0.14801v1.184l0.63745 1.036 0.81958 1.3321v1.184l0.63745 1.036 1.5481 2.5161v1.184l0.63745 1.036 0.81958 1.3321v1.184l0.63745 1.036 1.5481 2.5161v1.184l0.63745 1.036 0.81958 1.3321v1.184l0.63745 1.036 1.5481 2.5161v1.184l0.63745 1.036 0.81958 1.3321v1.184l0.63745 1.036 0.81958 1.3321v1.184l1.366 2.2201 0.81958 1.3321v1.184l0.63745 1.036 0.72852 1.184 0.091064 0.14801v1.184l1.366 2.2201 0.81958 1.3321v1.184l1.366 2.2201 0.091064 0.14801v1.184z" clip-path="url(#pffb6b66e7b)" fill="#1e90ff" fill-opacity=".4"/>
   </g>
   <g id="PathCollection_13">
    <path d="m379.84 194.1 0.18213 0.29601h0.091065l-0.27319-0.44402-0.45532-0.74003v-1.184l-1.457-2.3681v-1.184l-2.1855-3.5521v-1.184l-1.457-2.3681v-1.184l-2.1855-3.5521v-1.184l-0.72852-1.184-0.72852-1.184v-1.184l-1.457-2.3681v-1.184l-0.27319-0.44402-1.9124-3.1081v-1.184l-1.457-2.3681v-1.184l-2.1855-3.5521v-1.184l-0.27319-0.44402-1.1838-1.9241v-1.184l-0.27319-0.44402-1.9124-3.1081v-1.184l-1.457-2.3681v-1.184l-1.457-2.3681v-1.184l-2.1855-3.5521v-1.184l-1.457-2.3681v-1.184l-2.1855-3.5521v-1.184l-1.457-2.3681v-1.184l-2.1856-3.5521v-1.184l-1.457-2.3681v-1.184l-2.1856-3.5521v-1.184l-1.457-2.3681v-1.184l-1.457-2.3681v-1.184l-2.1855-3.5521v-1.184l-1.457-2.3681v-1.184l-0.72852-1.184-1.457-2.3681v-1.184l-0.72852-1.184-0.72852-1.184v-1.184l-0.27319-0.44402-1.9124-3.1081v-1.184l-1.457-2.3681v-1.184l-1.457-2.3681v-1.184l-1.457-2.3681-0.72852-1.184v-1.184l-0.27319-0.44402-1.1838-1.9241v-1.184l-2.1855-3.5521v-1.184l-1.457-2.3681v-1.184l-1.457-2.3681-0.72852-1.184v-1.184l-0.27319-0.44402-1.1838-1.9241v-1.184l-2.1855-3.5521v-1.184l-1.457-2.3681v-1.184l-1.457-2.3681v-1.184l-2.1856-3.5521v-1.184l-1.457-2.3681v-1.184l-0.72852-1.184-1.457-2.3681v-1.184l-1.457-2.3681v-1.184l-2.1856-3.5521v-1.184l-1.457-2.3681v-1.184l-1.457-2.3681v-1.184l-0.27319-0.44402-1.1838-1.9241-0.72852-1.184v-1.184l-1.457-2.3681v-1.184l-0.72852-1.184h-0.091065l0.72852 1.184v1.184l1.457 2.3681v1.184l0.54639 0.88804 1.6392 2.6641v1.184l1.2749 2.0721 0.18213 0.29601v1.184l1.457 2.3681v1.184l2.1855 3.5521v1.184l1.457 2.3681v1.184l2.0034 3.2561 0.18213 0.29601v1.184l1.457 2.3681v1.184l2.1855 3.5521v1.184l0.54639 0.88804 0.91065 1.4801v1.184l1.457 2.3681v1.184l2.1855 3.5521v1.184l1.457 2.3681v1.184l0.54639 0.88804 1.6392 2.6641v1.184l1.457 2.3681v1.184l2.1856 3.5521v1.184l1.457 2.3681v1.184l0.54639 0.88804 1.6392 2.6641v1.184l1.457 2.3681v1.184l1.457 2.3681v1.184l2.1855 3.5521v1.184l0.54639 0.88804 0.91064 1.4801v1.184l1.2749 2.0721 0.91064 1.4801v1.184l1.457 2.3681v1.184l2.1855 3.5521v1.184l1.457 2.3681v1.184l1.2749 2.0721 0.18213 0.29601v1.184l2.1855 3.5521v1.184l1.457 2.3681v1.184l0.54639 0.88804 1.6392 2.6641v1.184l1.2749 2.0721 0.18213 0.29601v1.184l2.0034 3.2561 0.18213 0.29601v1.184l1.457 2.3681v1.184l0.54639 0.88804 1.6392 2.6641v1.184l0.54639 0.88804 0.91065 1.4801v1.184l1.457 2.3681v1.184l2.1856 3.5521v1.184l1.457 2.3681v1.184l1.2749 2.0721 0.91065 1.4801v1.184l1.457 2.3681v1.184l2.1855 3.5521v1.184l1.457 2.3681v1.184l1.2749 2.0721 0.18213 0.29601v1.184l2.0034 3.2561 0.18213 0.29601v1.184l1.457 2.3681v1.184l0.54639 0.88804 1.6392 2.6641v1.184l1.457 2.3681v1.184z" clip-path="url(#pffb6b66e7b)" fill="#1e90ff" fill-opacity=".4"/>
   </g>
   <g id="PathCollection_14">
    <path d="m379.84 193.96 0.27319 0.44402h0.091064l-0.72852-1.184v-1.184l-1.457-2.3681v-1.184l-2.1855-3.5521v-1.184l-1.457-2.3681v-1.184l-2.1855-3.5521v-1.184l-1.457-2.3681v-1.184l-1.457-2.3681v-1.184l-2.1856-3.5521v-1.184l-1.457-2.3681v-1.184l-2.1856-3.5521v-1.184l-1.457-2.3681v-1.184l-0.36426-0.59202-1.8213-2.9601v-1.184l-1.457-2.3681v-1.184l-1.457-2.3681v-1.184l-2.1855-3.5521v-1.184l-1.457-2.3681v-1.184l-2.1855-3.5521v-1.184l-1.457-2.3681v-1.184l-2.1855-3.5521v-1.184l-1.457-2.3681v-1.184l-2.1855-3.5521v-1.184l-1.457-2.3681v-1.184l-1.457-2.3681v-1.184l-2.1855-3.5521v-1.184l-1.457-2.3681v-1.184l-2.1855-3.5521v-1.184l-1.457-2.3681v-1.184l-2.1855-3.5521v-1.184l-1.457-2.3681v-1.184l-1.457-2.3681v-1.184l-2.1855-3.5521v-1.184l-0.36426-0.59202-1.0928-1.7761v-1.184l-2.1855-3.5521v-1.184l-1.457-2.3681v-1.184l-2.1855-3.5521v-1.184l-0.36426-0.59202-1.0928-1.7761v-1.184l-2.1855-3.5521v-1.184l-1.457-2.3681v-1.184l-1.457-2.3681v-1.184l-2.1855-3.5521v-1.184l-1.457-2.3681v-1.184l-2.1855-3.5521v-1.184l-1.457-2.3681v-1.184l-2.1855-3.5521v-1.184l-1.457-2.3681v-1.184l-1.457-2.3681v-1.184l-2.1855-3.5521v-1.184l-1.457-2.3681v-1.184l-0.72852-1.184h-0.091064l0.72852 1.184v1.184l1.457 2.3681v1.184l0.45532 0.74003 1.7302 2.8121v1.184l1.457 2.3681v1.184l1.457 2.3681v1.184l2.1856 3.5521v1.184l1.457 2.3681v1.184l1.1838 1.9241 1.0017 1.6281v1.184l1.457 2.3681v1.184l2.1856 3.5521v1.184l1.457 2.3681v1.184l1.457 2.3681v1.184l1.9124 3.1081 0.27319 0.44402v1.184l0.72852 1.184 0.72852 1.184v1.184l0.45532 0.74003 1.7302 2.8121v1.184l1.457 2.3681v1.184l1.9124 3.1081 0.27319 0.44402v1.184l1.457 2.3681v1.184l0.45532 0.74003 1.7302 2.8121v1.184l1.457 2.3681v1.184l1.457 2.3681v1.184l2.1855 3.5521v1.184l0.45532 0.74003 1.0017 1.6281v1.184l1.1838 1.9241 1.0017 1.6281v1.184l1.457 2.3681v1.184l2.1855 3.5521v1.184l1.457 2.3681v1.184l1.1838 1.9241 0.27319 0.44402v1.184l2.1856 3.5521v1.184l1.457 2.3681v1.184l2.1856 3.5521v1.184l1.1838 1.9241 0.27319 0.44402v1.184l1.9124 3.1081 0.27319 0.44402v1.184l1.457 2.3681v1.184l2.1855 3.5521v1.184l1.457 2.3681v1.184l1.457 2.3681v1.184l2.1855 3.5521v1.184l0.72852 1.184 0.72852 1.184v1.184l2.1855 3.5521v1.184l1.457 2.3681v1.184l2.1855 3.5521v1.184l1.457 2.3681v1.184l0.45532 0.74003 1.0017 1.6281v1.184l2.1855 3.5521v1.184l1.457 2.3681v1.184l2.1855 3.5521v1.184l1.457 2.3681v1.184z" clip-path="url(#pffb6b66e7b)" fill="#1e90ff" fill-opacity=".4"/>
   </g>
   <g id="PathCollection_15">
    <path d="m379.84 193.81 0.36426 0.59202h0.091065l-0.45532-0.74003-0.27319-0.44402v-1.184l-1.457-2.3681v-1.184l-2.1855-3.5521v-1.184l-1.457-2.3681v-1.184l-1.9124-3.1081-0.27319-0.44402v-1.184l-1.457-2.3681v-1.184l-0.45532-0.74003-1.0017-1.6281v-1.184l-2.1855-3.5521v-1.184l-1.457-2.3681v-1.184l-2.1855-3.5521v-1.184l-0.45532-0.74003-1.0017-1.6281v-1.184l-2.1855-3.5521v-1.184l-1.457-2.3681v-1.184l-1.457-2.3681v-1.184l-2.1856-3.5521v-1.184l-1.1838-1.9241-0.27319-0.44402v-1.184l-2.1856-3.5521v-1.184l-1.457-2.3681v-1.184l-2.1856-3.5521v-1.184l-1.1838-1.9241-0.27319-0.44402v-1.184l-2.1856-3.5521v-1.184l-1.457-2.3681v-1.184l-1.457-2.3681v-1.184l-2.1855-3.5521v-1.184l-1.457-2.3681v-1.184l-2.1855-3.5521v-1.184l-0.72852-1.184-0.72852-1.184v-1.184l-2.1855-3.5521v-1.184l-1.457-2.3681v-1.184l-1.457-2.3681v-1.184l-2.1855-3.5521v-1.184l-0.45532-0.74003-1.0017-1.6281v-1.184l-2.1855-3.5521v-1.184l-1.457-2.3681v-1.184l-2.1855-3.5521v-1.184l-0.45532-0.74003-1.0017-1.6281v-1.184l-1.1838-1.9241-1.0017-1.6281v-1.184l-1.457-2.3681v-1.184l-1.457-2.3681v-1.184l-2.1855-3.5521v-1.184l-1.1838-1.9241-0.27319-0.44402v-1.184l-2.1855-3.5521v-1.184l-1.457-2.3681v-1.184l-2.1855-3.5521v-1.184l-1.1838-1.9241-0.27319-0.44402v-1.184l-1.457-2.3681v-1.184l-0.45532-0.74003-1.7302-2.8121v-1.184l-1.457-2.3681v-1.184l-0.72852-1.184h-0.091065l0.72852 1.184v1.184l1.457 2.3681v1.184l0.36426 0.59202 1.8213 2.9601v1.184l0.36426 0.59202 1.0928 1.7761v1.184l1.457 2.3681v1.184l2.1855 3.5521v1.184l1.457 2.3681v1.184l2.1855 3.5521v1.184l1.457 2.3681v1.184l2.1855 3.5521v1.184l1.457 2.3681v1.184l1.457 2.3681v1.184l2.1855 3.5521v1.184l1.457 2.3681v1.184l2.1855 3.5521v1.184l1.457 2.3681v1.184l2.1855 3.5521v1.184l1.457 2.3681v1.184l2.1855 3.5521v1.184l1.457 2.3681v1.184l1.457 2.3681v1.184l2.1855 3.5521v1.184l0.36426 0.59202 1.0928 1.7761v1.184l2.1855 3.5521v1.184l1.457 2.3681v1.184l2.1855 3.5521v1.184l1.457 2.3681v1.184l1.457 2.3681v1.184l2.1855 3.5521v1.184l1.457 2.3681v1.184l2.1855 3.5521v1.184l1.457 2.3681v1.184l2.1855 3.5521v1.184l1.457 2.3681v1.184l2.1855 3.5521v1.184l1.457 2.3681v1.184l1.457 2.3681v1.184l2.1855 3.5521v1.184l1.457 2.3681v1.184l0.36426 0.59202 1.8213 2.9601v1.184l1.457 2.3681v1.184l2.1856 3.5521v1.184l1.457 2.3681v1.184l0.36426 0.59202 1.0928 1.7761v1.184l2.1855 3.5521v1.184l1.457 2.3681v1.184l2.1855 3.5521v1.184l1.457 2.3681v1.184z" clip-path="url(#pffb6b66e7b)" fill="#ffe4c4" fill-opacity=".4"/>
   </g>
   <g id="PathCollection_16">
    <path d="m379.84 193.66 0.45532 0.74003h0.091065l-0.72852-1.184v-1.184l-1.457-2.3681v-1.184l-0.54639-0.88804-1.6392-2.6641v-1.184l-1.457-2.3681v-1.184l-2.1855-3.5521v-1.184l-1.457-2.3681v-1.184l-0.54639-0.88804-0.91064-1.4801v-1.184l-2.0034-3.2561-0.18213-0.29601v-1.184l-1.457-2.3681v-1.184l-2.1855-3.5521v-1.184l-0.54639-0.88804-0.91064-1.4801v-1.184l-1.2749-2.0721-0.91064-1.4801v-1.184l-1.457-2.3681v-1.184l-1.457-2.3681v-1.184l-0.54639-0.88804-1.6392-2.6641v-1.184l-1.2749-2.0721-0.18213-0.29601v-1.184l-2.1855-3.5521v-1.184l-1.457-2.3681v-1.184l-0.54639-0.88804-1.6392-2.6641v-1.184l-1.2749-2.0721-0.18213-0.29601v-1.184l-2.0034-3.2561-0.18213-0.29601v-1.184l-1.457-2.3681v-1.184l-0.54639-0.88804-0.91065-1.4801v-1.184l-2.1855-3.5521v-1.184l-1.457-2.3681v-1.184l-2.1856-3.5521v-1.184l-1.457-2.3681v-1.184l-1.2749-2.0721-0.91065-1.4801v-1.184l-1.457-2.3681v-1.184l-1.457-2.3681v-1.184l-2.1855-3.5521v-1.184l-1.2749-2.0721-0.18213-0.29601v-1.184l-2.0034-3.2561-0.18213-0.29601v-1.184l-1.457-2.3681v-1.184l-0.54639-0.88804-1.6392-2.6641v-1.184l-0.54639-0.88804-0.91064-1.4801v-1.184l-2.0034-3.2561-0.18213-0.29601v-1.184l-1.457-2.3681v-1.184l-1.457-2.3681v-1.184l-2.1855-3.5521v-1.184l-1.457-2.3681v-1.184l-2.1855-3.5521v-1.184l-1.457-2.3681v-1.184l-2.1855-3.5521v-1.184l-1.2749-2.0721-0.18213-0.29601v-1.184l-1.457-2.3681v-1.184l-0.54639-0.88804-1.6392-2.6641v-1.184l-0.54639-0.88804-0.91064-1.4801v-1.184l-0.72852-1.184h-0.091064l0.72852 1.184v1.184l1.457 2.3681v1.184l0.27319 0.44402 1.1838 1.9241 0.72852 1.184v1.184l0.27319 0.44402 1.1838 1.9241v1.184l1.457 2.3681v1.184l2.1855 3.5521v1.184l1.457 2.3681v1.184l2.1855 3.5521v1.184l1.457 2.3681v1.184l2.1855 3.5521v1.184l1.457 2.3681v1.184l1.457 2.3681v1.184l0.72852 1.184 1.457 2.3681v1.184l0.72852 1.184 0.72852 1.184v1.184l2.1855 3.5521v1.184l1.457 2.3681v1.184l2.1855 3.5521v1.184l0.72852 1.184 0.72852 1.184v1.184l0.27319 0.44402 1.9124 3.1081v1.184l1.457 2.3681v1.184l1.457 2.3681v1.184l2.1855 3.5521v1.184l0.27319 0.44402 1.1838 1.9241v1.184l2.1855 3.5521v1.184l1.457 2.3681v1.184l2.1855 3.5521v1.184l1.457 2.3681v1.184l1.457 2.3681v1.184l1.0017 1.6281 1.1838 1.9241v1.184l1.457 2.3681v1.184l2.1856 3.5521v1.184l1.457 2.3681v1.184l2.1856 3.5521v1.184l1.457 2.3681v1.184l2.1856 3.5521v1.184l1.457 2.3681v1.184l1.457 2.3681v1.184l2.1855 3.5521v1.184l0.72852 1.184 0.72852 1.184v1.184l0.27319 0.44402 1.9124 3.1081v1.184l1.457 2.3681v1.184l2.1855 3.5521v1.184l0.72852 1.184 0.72852 1.184v1.184l0.27319 0.44402 1.1838 1.9241v1.184l2.1855 3.5521v1.184l1.457 2.3681v1.184l2.1855 3.5521v1.184l1.457 2.3681v1.184z" clip-path="url(#pffb6b66e7b)" fill="#ffe4c4" fill-opacity=".4"/>
   </g>
   <g id="PathCollection_17">
    <path d="m379.84 193.51 0.54639 0.88804h0.091064l-0.63745-1.036-0.091064-0.14801v-1.184l-1.366-2.2201-0.091064-0.14801v-1.184l-0.63745-1.036-1.457-2.3681-0.091064-0.14801v-1.184l-1.457-2.3681v-1.184l-0.63745-1.036-1.457-2.3681-0.091064-0.14801v-1.184l-1.457-2.3681v-1.184l-0.63745-1.036-0.81958-1.3321v-1.184l-0.63745-1.036-1.5481-2.5161v-1.184l-0.63745-1.036-0.81958-1.3321v-1.184l-0.63745-1.036-0.72852-1.184-0.81958-1.3321v-1.184l-0.63745-1.036-0.81958-1.3321v-1.184l-0.63745-1.036-0.72852-1.184-0.81958-1.3321v-1.184l-0.63745-1.036-0.81958-1.3321v-1.184l-1.366-2.2201-0.091064-0.14801v-1.184l-1.366-2.2201-0.81958-1.3321v-1.184l-1.366-2.2201-0.091064-0.14801v-1.184l-1.366-2.2201-0.81958-1.3321v-1.184l-1.366-2.2201-0.091064-0.14801v-1.184l-1.366-2.2201-0.72852-1.184-0.091064-0.14801v-1.184l-1.366-2.2201-0.091064-0.14801v-1.184l-2.0945-3.4041-0.091064-0.14801v-1.184l-1.366-2.2201-0.091064-0.14801v-1.184l-1.457-2.3681v-1.184l-0.63745-1.036-1.457-2.3681-0.091064-0.14801v-1.184l-1.457-2.3681v-1.184l-0.63745-1.036-1.457-2.3681-0.091064-0.14801v-1.184l-0.72852-1.184-0.72852-1.184v-1.184l-0.63745-1.036-1.457-2.3681-0.091064-0.14801v-1.184l-0.63745-1.036-0.81958-1.3321v-1.184l-0.63745-1.036-0.81958-1.3321v-1.184l-1.366-2.2201-0.81958-1.3321v-1.184l-0.63745-1.036-0.81958-1.3321v-1.184l-1.366-2.2201-0.81958-1.3321v-1.184l-0.63745-1.036-0.81958-1.3321v-1.184l-1.366-2.2201-0.81958-1.3321v-1.184l-0.63745-1.036-0.72852-1.184-0.091064-0.14801v-1.184l-1.366-2.2201-0.81958-1.3321v-1.184l-0.63745-1.036-0.72852-1.184-0.091064-0.14801v-1.184l-1.366-2.2201-0.091064-0.14801v-1.184l-2.0945-3.4041-0.091064-0.14801v-1.184l-1.366-2.2201-0.091064-0.14801v-1.184l-2.0945-3.4041-0.091064-0.14801v-1.184l-1.366-2.2201-0.091064-0.14801v-1.184l-2.0945-3.4041-0.091064-0.14801v-1.184l-1.366-2.2201-0.091064-0.14801v-1.184l-0.63745-1.036-0.81958-1.3321v-1.184l-0.63745-1.036-1.5481-2.5161v-1.184l-0.63745-1.036-0.81958-1.3321v-1.184l-0.63745-1.036-0.091064-0.14801h-0.091065l0.72852 1.184v1.184l0.72852 1.184 0.72852 1.184v1.184l0.18213 0.29601 2.0034 3.2561v1.184l1.457 2.3681v1.184l1.457 2.3681v1.184l0.72852 1.184 1.457 2.3681v1.184l1.457 2.3681v1.184l2.1855 3.5521v1.184l1.457 2.3681v1.184l2.1855 3.5521v1.184l1.457 2.3681v1.184l1.457 2.3681v1.184l2.1855 3.5521v1.184l0.72852 1.184 0.72852 1.184v1.184l1.457 2.3681 0.72852 1.184v1.184l1.457 2.3681v1.184l2.1855 3.5521v1.184l1.457 2.3681v1.184l2.1855 3.5521v1.184l1.457 2.3681v1.184l1.457 2.3681v1.184l0.72852 1.184 1.457 2.3681v1.184l1.457 2.3681v1.184l2.1856 3.5521v1.184l1.457 2.3681v1.184l0.72852 1.184 1.457 2.3681v1.184l0.18213 0.29601 0.54639 0.88804 0.72852 1.184v1.184l1.457 2.3681v1.184l2.1855 3.5521v1.184l1.457 2.3681v1.184l1.457 2.3681 0.72852 1.184v1.184l1.457 2.3681v1.184l2.1855 3.5521v1.184l1.457 2.3681v1.184l1.457 2.3681 0.72852 1.184v1.184l1.457 2.3681v1.184l1.457 2.3681v1.184l0.72852 1.184 1.457 2.3681v1.184l0.72852 1.184 0.72852 1.184v1.184l2.1855 3.5521v1.184l1.457 2.3681v1.184l2.1855 3.5521v1.184l0.72852 1.184 0.72852 1.184v1.184l0.18213 0.29601 1.2749 2.0721v1.184l2.1855 3.5521v1.184l1.457 2.3681v1.184l1.457 2.3681 0.72852 1.184v1.184l1.457 2.3681v1.184z" clip-path="url(#pffb6b66e7b)" fill="#ffe4c4" fill-opacity=".4"/>
   </g>
   <g id="PathCollection_18">
    <path d="m379.84 193.36 0.63745 1.036h0.091065 0.72852 0.72852 0.72852 0.72852 0.72852 0.72852 0.72852 0.72852 0.72852 0.72852 0.72852 0.72852 0.72852 0.72852 0.72852 0.72852 0.72852 0.72852 0.72852 0.72852 0.72852 0.72852 0.72852 0.72852 0.72852 0.72852 0.72852 0.72852 0.72852 0.72852 0.72852 0.72852 0.72852 0.72852 0.72852 0.72852 0.72852 0.72852 0.72852 0.72852 0.72852 0.72852 0.72852 0.72852 0.72852 0.72852 0.72852 0.72852 0.72852 0.72852 0.72852 0.72852 0.72852 0.72852 0.72852 0.72852 0.72852 0.72852 0.72852 0.72852 0.72852 0.72852 0.72852 0.72852 0.72852 0.72852 0.72852 0.72852 0.72852 0.72852v-1.184-1.184-1.184-1.184-1.184-1.184-1.184-1.184-1.184-1.184-1.184-1.184-1.184-1.184-1.184-1.184-1.184-1.184-1.184-1.184-1.184-1.184-1.184-1.184-1.184-1.184-1.184-1.184-1.184-1.184-1.184-1.184-1.184-1.184-1.184-1.184-1.184-1.184-1.184-1.184-1.184-1.184-1.184-1.184-1.184-1.184-1.184-1.184-1.184-1.184-1.184-1.184-1.184-1.184-1.184-1.184-1.184-1.184-1.184-1.184-1.184-1.184-1.184-1.184-1.184-1.184-1.184-1.184-1.184-1.184-1.184-1.184-1.184-1.184-1.184-1.184-1.184-1.184-1.184-1.184-1.184-1.184-1.184-1.184-1.184-1.184-1.184-1.184-1.184-1.184-1.184-1.184-1.184-1.184-1.184-1.184-1.184-1.184-1.184-1.184-1.184-1.184-1.184-1.184-1.184-1.184-1.184-1.184-1.184-1.184-1.184-1.184-1.184-1.184-1.184-1.184-1.184-1.184-1.184-1.184-1.184-1.184-1.184-1.184-1.184-1.184-1.184-1.184-1.184-1.184-1.184-1.184-1.184-1.184-1.184-1.184-1.184-1.184-1.184-1.184-1.184-1.184-1.184-1.184-1.184-1.184-1.184-1.184-1.184-1.184-1.184-1.184-1.184-1.184-1.184-1.184-1.184-1.184-1.184-1.184-1.184-1.184-1.184-1.184h-0.72852-0.72852-0.72852-0.72852-0.72852-0.72852-0.72852-0.72852-0.72852-0.72852-0.72852-0.72852-0.72852-0.72852-0.72852-0.72852-0.72852-0.72852-0.72852-0.72852-0.72852-0.72852-0.72852-0.72852-0.72852-0.72852-0.72852-0.72852-0.72852-0.72852-0.72852-0.72852-0.72852-0.72852-0.72852-0.72852-0.72852-0.72852-0.72852-0.72852-0.72852-0.72852-0.72852-0.72852-0.72852-0.72852-0.72852-0.72852-0.72852-0.72852-0.72852-0.72852-0.72852-0.72852-0.72852-0.72852-0.72852-0.72852-0.72852-0.72852-0.72852-0.72852-0.72852-0.72852-0.72852-0.72852-0.72852-0.72852-0.72852-0.72852-0.72852-0.72852-0.72852-0.72852-0.72852-0.72852-0.72852-0.72852-0.72852-0.72852-0.72852-0.72852-0.72852-0.72852-0.72852-0.72852-0.72852-0.72852-0.72852-0.72852-0.72852-0.72852-0.72852-0.72852-0.72852-0.72852-0.72852-0.72852-0.72852-0.72852-0.72852-0.72852-0.72852-0.72852-0.72852-0.72852-0.72852-0.72852-0.72852-0.72852-0.72852-0.72852-0.72852-0.72852-0.72852-0.72852-0.72852-0.72852-0.72852-0.72852-0.72852-0.72852-0.72852-0.72852-0.72852-0.72852-0.72852-0.72852-0.72852-0.72852-0.72852-0.72852-0.72852-0.72852-0.72852-0.72852-0.72852-0.72852-0.72852-0.72852-0.72852-0.72852-0.72852-0.72852-0.72852-0.72852-0.72852-0.72852-0.72852-0.72852-0.72852-0.72852-0.72852-0.72852-0.72852-0.72852-0.72852-0.72852-0.72852-0.72852-0.72852-0.72852-0.72852-0.72852-0.72852-0.72852-0.72852-0.72852-0.72852-0.72852-0.72852-0.72852-0.72852-0.72852-0.72852-0.72852-0.72852-0.72852-0.72852-0.72852-0.72852-0.72852-0.72852-0.72852-0.72852-0.72852-0.091064l0.72852 1.184v1.184l0.091065 0.14801 0.63745 1.036 0.72852 1.184v1.184l0.091065 0.14801 1.366 2.2201 0.72852 1.184v1.184l0.091065 0.14801 0.63745 1.036 0.72852 1.184v1.184l1.457 2.3681v1.184l2.1855 3.5521v1.184l1.457 2.3681v1.184l2.1855 3.5521v1.184l1.457 2.3681v1.184l2.1855 3.5521v1.184l1.457 2.3681v1.184l0.72852 1.184 0.72852 1.184v1.184l0.72852 1.184 1.457 2.3681v1.184l0.72852 1.184 0.72852 1.184v1.184l0.091065 0.14801 0.63745 1.036 1.457 2.3681v1.184l0.091065 0.14801 0.63745 1.036 0.72852 1.184v1.184l0.091065 0.14801 0.63745 1.036 1.457 2.3681v1.184l0.72852 1.184 0.72852 1.184v1.184l0.091065 0.14801 0.63745 1.036 1.457 2.3681v1.184l0.091065 0.14801 0.63745 1.036 0.72852 1.184v1.184l0.091065 0.14801 0.63745 1.036 0.72852 1.184v1.184l1.457 2.3681 0.72852 1.184v1.184l0.091065 0.14801 1.366 2.2201v1.184l1.457 2.3681 0.72852 1.184v1.184l0.091065 0.14801 1.366 2.2201v1.184l1.457 2.3681 0.72852 1.184v1.184l0.091065 0.14801 1.366 2.2201v1.184l1.457 2.3681v1.184l2.1855 3.5521v1.184l1.457 2.3681v1.184l0.72852 1.184 1.457 2.3681v1.184l1.457 2.3681v1.184l0.091065 0.14801 0.63745 1.036 1.457 2.3681v1.184l1.457 2.3681v1.184l0.091065 0.14801 0.63745 1.036 1.457 2.3681v1.184l1.457 2.3681v1.184l0.091065 0.14801 0.63745 1.036 0.72852 1.184v1.184l0.091065 0.14801 0.63745 1.036 0.72852 1.184 0.72852 1.184v1.184l0.091065 0.14801 0.63745 1.036 0.72852 1.184v1.184l0.091065 0.14801 0.63745 1.036 0.72852 1.184 0.72852 1.184v1.184l0.091065 0.14801 0.63745 1.036 0.72852 1.184v1.184l1.457 2.3681 0.72852 1.184v1.184l0.091065 0.14801 0.63745 1.036 0.72852 1.184v1.184l0.091065 0.14801 1.366 2.2201v1.184l1.457 2.3681 0.72852 1.184v1.184l1.457 2.3681v1.184l1.457 2.3681 0.72852 1.184v1.184l1.457 2.3681v1.184z" clip-path="url(#pffb6b66e7b)" fill="#ffe4c4" fill-opacity=".4"/>
   </g>
   <g id="PathCollection_19" fill="#1e90ff" stroke="#1e90ff" stroke-width="1.5">
    <path d="m305.45 120.44 6-6m-6 0 6 6" clip-path="url(#pffb6b66e7b)"/>
    <path d="m269.02 138.2 6-6m-6 0 6 6" clip-path="url(#pffb6b66e7b)"/>
    <path d="m294.52 120.44 6-6m-6 0 6 6" clip-path="url(#pffb6b66e7b)"/>
    <path d="m312.73 102.68 6-6m-6 0 6 6" clip-path="url(#pffb6b66e7b)"/>
    <path d="m301.81 108.6 6-6m-6 0 6 6" clip-path="url(#pffb6b66e7b)"/>
    <path d="m298.16 120.44 6-6m-6 0 6 6" clip-path="url(#pffb6b66e7b)"/>
    <path d="m327.3 108.6 6-6m-6 0 6 6" clip-path="url(#pffb6b66e7b)"/>
    <path d="m320.02 126.36 6-6m-6 0 6 6" clip-path="url(#pffb6b66e7b)"/>
   </g>
   <g id="PathCollection_20">
    <defs>
     <path id="C1_0_c268793d4d" d="m0 3c0.79561 0 1.5587-0.3161 2.1213-0.87868 0.56258-0.56258 0.87868-1.3257 0.87868-2.1213s-0.3161-1.5587-0.87868-2.1213c-0.56258-0.56258-1.3257-0.87868-2.1213-0.87868s-1.5587 0.3161-2.1213 0.87868c-0.56258 0.56258-0.87868 1.3257-0.87868 2.1213s0.3161 1.5587 0.87868 2.1213c0.56258 0.56258 1.3257 0.87868 2.1213 0.87868z"/>
    </defs>
    <g clip-path="url(#pffb6b66e7b)">
     <use x="392.228115" y="70.074878" fill="#ffe4c4" stroke="#000000" xlink:href="#C1_0_c268793d4d"/>
    </g>
    <g clip-path="url(#pffb6b66e7b)">
     <use x="352.159713" y="70.074878" fill="#ffe4c4" stroke="#000000" xlink:href="#C1_0_c268793d4d"/>
    </g>
    <g clip-path="url(#pffb6b66e7b)">
     <use x="337.589386" y="58.23439" fill="#ffe4c4" stroke="#000000" xlink:href="#C1_0_c268793d4d"/>
    </g>
    <g clip-path="url(#pffb6b66e7b)">
     <use x="333.946804" y="105.596341" fill="#ffe4c4" stroke="#000000" xlink:href="#C1_0_c268793d4d"/>
    </g>
    <g clip-path="url(#pffb6b66e7b)">
     <use x="374.015205" y="58.23439" fill="#ffe4c4" stroke="#000000" xlink:href="#C1_0_c268793d4d"/>
    </g>
    <g clip-path="url(#pffb6b66e7b)">
     <use x="341.231968" y="75.995122" fill="#ffe4c4" stroke="#000000" xlink:href="#C1_0_c268793d4d"/>
    </g>
    <g clip-path="url(#pffb6b66e7b)">
     <use x="355.802295" y="70.074878" fill="#ffe4c4" stroke="#000000" xlink:href="#C1_0_c268793d4d"/>
    </g>
    <g clip-path="url(#pffb6b66e7b)">
     <use x="395.870697" y="64.154634" fill="#ffe4c4" stroke="#000000" xlink:href="#C1_0_c268793d4d"/>
    </g>
    <g clip-path="url(#pffb6b66e7b)">
     <use x="355.802295" y="64.154634" fill="#ffe4c4" stroke="#000000" xlink:href="#C1_0_c268793d4d"/>
    </g>
    <g clip-path="url(#pffb6b66e7b)">
     <use x="355.802295" y="111.516585" fill="#ffe4c4" stroke="#000000" xlink:href="#C1_0_c268793d4d"/>
    </g>
    <g clip-path="url(#pffb6b66e7b)">
     <use x="381.300369" y="87.83561" fill="#ffe4c4" stroke="#000000" xlink:href="#C1_0_c268793d4d"/>
    </g>
    <g clip-path="url(#pffb6b66e7b)">
     <use x="315.733894" y="93.755854" fill="#ffe4c4" stroke="#000000" xlink:href="#C1_0_c268793d4d"/>
    </g>
   </g>
   <g id="matplotlib.axis_3">
    <g id="text_2">
     <!-- éªŒè¯é›†å‡†ç¡®çŽ‡ï¼š90.00% -->
     <defs>
      <path id="SimHei-39564" d="m6.25 73.047q5.8594-0.39062 11.719-0.39062h18.359q-0.78125-3.5156-1.1719-10.156l-2.7344-29.688h7.0312q-0.39062-3.125-0.78125-10.156l-1.1719-21.094q0-7.8125-4.6875-8.9844t-12.891-2.3438q-1.1719 5.0781-3.125 8.5938 8.2031 0 10.734 0.20312 2.5469 0.1875 3.3281 3.7031l1.1719 23.828h-22.656q0.39062 7.0312 0.57812 15.625 0.20312 8.5938 0.20312 16.406h7.4219q-0.78125-4.2969-1.1719-10.938t-0.39062-14.844h9.7656l2.7344 33.594h-10.547q-5.8594 0-11.719-0.39062zm-2.3438-58.594q5.4688 0.39062 11.125 1.1719 5.6719 0.78125 13.094 1.9531-0.39062-2.7344-0.78125-6.6406-5.8594-0.78125-9.5781-1.5625-3.7031-0.78125-11.125-3.125-1.1719 4.2969-2.7344 8.2031zm55.078 65.625q4.6875-1.1719 10.156-2.3438l-1.9531-2.7344q6.25-11.719 12.891-17 6.6406-5.2656 15.234-8.3906-3.5156-3.125-5.4688-7.4219-5.0781 2.7344-10.156 7.0312v-6.25q-5.0781 0.39062-14.266 0.39062-9.1719 0-15.031-0.39062v5.8594q-2.3438-3.125-6.6406-7.8125-3.5156 3.125-7.0312 5.0781 5.8594 4.2969 9.1719 8.5938 3.3281 4.2969 5.8594 8.7812 2.5469 4.5 4.2969 8.4062 1.7656 3.9062 2.9375 8.2031zm3.9062-9.375q-2.7344-6.25-5.2812-10.547-2.5312-4.2969-6.8281-10.547h28.516q-4.6875 3.5156-8.5938 8.3906-3.9062 4.8906-7.8125 12.703zm-18.359-39.062q3.125 1.1719 6.25 1.9531 1.5625-5.4688 3.3125-12.312 1.7656-6.8281 3.3281-12.297-3.5156-0.39062-6.6406-1.9531-1.1719 7.0312-2.5469 12.109-1.3594 5.0781-3.7031 12.5zm14.062 2.7344q3.5156 0.78125 6.6406 1.1719 0.78125-5.0781 1.5625-9.9688 0.78125-4.875 1.9531-12.688-3.125-0.78125-6.25-1.5625-1.1719 8.5938-1.9531 12.891t-1.9531 10.156zm19.922 1.1719q3.125-1.1719 8.5938-2.3438-1.9531-2.3438-3.125-6.25t-3.7188-12.5q-2.5312-8.5938-4.0938-13.672h5.4688q2.7344 0 8.2031 0.39062v-7.0312q-4.6875 0.39062-8.2031 0.39062h-29.688q-7.0312 0-10.156-0.39062v7.0312q4.6875-0.39062 10.547-0.39062h17.188q3.125 8.5938 5.0781 17.375 1.9531 8.7969 3.9062 17.391z"/>
      <path id="SimHei-35777" d="m30.859 64.453q-3.5156-2.7344-5.8594-5.4688-6.25 8.5938-10.938 13.281 3.125 2.3438 5.8594 5.0781 7.4219-8.5938 10.938-12.891zm-10.156-70.312q-2.7344 3.5156-6.25 5.8594 4.6875 4.6875 4.6875 9.375v32.812h-3.125q-5.0781 0-10.547-0.39062v7.0312q5.0781-0.39062 10.547-0.39062h10.938q-0.39062-7.0312-0.39062-14.844v-19.922q3.125 3.9062 5.8594 7.8125 1.9531-4.2969 4.6875-7.4219-4.2969-4.6875-7.8125-8.9844t-8.5938-10.938zm17.969 78.516q7.8125-0.39062 16.406-0.39062h23.828q7.4219 0 13.672 0.39062v-7.0312q-6.25 0.39062-13.672 0.39062h-9.375v-25.781h8.5938q6.25 0 12.109 0.39062v-7.0312q-5.4688 0.39062-12.109 0.39062h-8.5938v-30.078h10.156q6.6406 0 14.844 0.39062v-7.0312q-8.2031 0.39062-14.844 0.39062h-32.812q-8.9844 0-14.844-0.39062v7.0312q5.8594-0.39062 11.719-0.39062v28.516q0 7.4219-0.39062 12.5h8.2031q-0.39062-4.6875-0.39062-12.5v-28.516h10.938v62.109h-7.0312q-8.5938 0-16.406-0.39062z"/>
      <path id="SimHei-38598" d="m26.562 50.391v-6.6406h21.875v6.6406zm0-12.109v-5.8594h21.875v5.8594zm0 23.828v-6.25h21.875v6.25zm22.266 15.234q2.3438 1.9531 6.25 4.2969 0.78125-1.1719 3.125-3.9062t4.2969-5.0781q-3.125-1.5625-6.6406-3.9062-2.3438 2.3438-3.7188 4.4844-1.3594 2.1562-3.3125 4.1094zm-21.094 4.2969q3.5156-1.9531 9.375-4.6875-2.3438-1.9531-3.9062-4.1094-1.5625-2.1406-3.5156-5.2656h46.875q5.4688 0 12.5 0.39062v-6.25q-7.4219 0.39062-12.5 0.39062h-20.703v-6.25h15.625q5.0781 0 10.938 0.39062v-6.25q-5.8594 0.39062-10.938 0.39062h-15.625v-6.6406h16.406q5.4688 0 11.719 0.39062v-6.25q-6.25 0.39062-11.719 0.39062h-16.406v-5.8594h19.922q5.8594 0 12.109 0.39062v-6.25q-5.8594 0.39062-11.719 0.39062h-49.609v-3.9062h-7.8125q0.39062 7.0312 0.39062 12.891v17.578q-1.9531-2.7344-3.7188-4.6875-1.75-1.9531-3.7031-4.2969-2.7344 2.3438-6.6406 4.6875 3.125 2.7344 6.25 6.25t6.0469 7.6094q2.9375 4.1094 5.4688 8.7969 2.5469 4.6875 4.8906 9.7656zm-19.141-65.234q4.6875-0.39062 13.672-0.39062h24.219q0 3.5156-0.39062 8.5938h8.2031q-0.39062-5.4688-0.39062-8.5938h24.609q6.6406 0 13.281 0.39062v-6.25q-6.6406 0.39062-13.281 0.39062h-14.062q4.6875-4.6875 11.516-7.2344 6.8438-2.5312 17.391-4.875-3.125-3.9062-4.6875-7.8125-7.0312 2.7344-12.109 4.8906-5.0781 2.1406-8.7969 4.4844-3.7031 2.3438-6.4375 4.875-2.7344 2.5469-5.4688 5.6719h-1.9531v-8.9844q0-5.8594 0.78125-11.719h-8.5938q0.39062 5.4688 0.39062 11.719v8.9844h-1.5625q-3.125-3.9062-6.4531-7.0312-3.3125-3.125-7.2188-5.4688t-8.5938-4.0938q-4.6875-1.7656-9.7656-4.1094-1.5625 3.5156-5.4688 7.4219 7.8125 1.1719 16.203 4.4844 8.4062 3.3281 12.703 8.7969h-14.062q-6.6406 0-13.672-0.39062z"/>
      <path id="SimHei-20934" d="m8.2031 70.703q3.5156 1.9531 7.4219 4.6875 1.9531-2.3438 6.0469-7.8125 4.1094-5.4688 7.625-10.547-4.6875-3.5156-7.4219-5.8594-3.125 6.6406-13.672 19.531zm14.062-32.031q3.125-3.5156 6.6406-6.6406-4.2969-7.8125-8.9844-17.781-4.6875-9.9531-7.4219-16.203-4.2969 4.6875-7.8125 7.8125 5.8594 7.0312 9.7656 14.453t7.8125 18.359zm12.109-1.5625q-3.5156 2.7344-7.8125 5.4688 4.6875 4.6875 10.344 16.203 5.6719 11.531 7.625 21.688 5.0781-1.9531 10.156-3.5156-2.3438-2.7344-6.25-13.281h27.734q8.5938 0 16.016 0.39062v-7.0312q-7.8125 0.39062-16.016 0.39062h-4.6875v-13.281q10.938 0 17.969 0.39062v-7.0312q-7.0312 0.39062-17.969 0.39062v-13.281q11.328 0 17.969 0.39062v-7.0312q-6.6406 0.39062-17.969 0.39062v-13.281q16.016 0 23.047 0.39062v-7.4219q-7.0312 0.39062-16.016 0.39062h-30.859v-8.2031h-7.8125q0.39062 7.0312 0.39062 19.922v37.109q-2.3438-4.6875-5.8594-10.156zm29.297 40.625q3.9062 1.1719 7.8125 3.125 2.7344-6.6406 4.2969-11.719-4.2969-1.1719-8.2031-3.125-1.1719 5.0781-3.9062 11.719zm-16.016-20.312v-13.281h16.406v13.281zm0-19.531v-13.281h16.406v13.281zm0-19.531v-13.281h16.406v13.281z"/>
      <path id="SimHei-30830" d="m21.484 39.844v-25h10.547v25zm-11.328-14.844q-2.3438 3.125-6.6406 5.4688 5.4688 5.0781 10.156 13.469 4.6875 8.4062 7.0312 21.297-7.4219 0-12.109-0.39062v6.25q5.4688-0.39062 10.547-0.39062h10.156q6.6406 0 11.328 0.39062v-6.25q-4.6875 0.39062-12.891 0.39062-2.3438-10.547-5.4688-19.922h16.406q-0.39062-6.6406-0.39062-12.5v-16.406q0-6.25 0.39062-14.453h-6.6406v7.4219h-10.547v-14.062h-6.6406q0.39062 8.2031 0.39062 14.062v23.828q-2.3438-3.9062-5.0781-8.2031zm60.156 5.8594v-10.547h12.891v10.547zm8.2031-41.406q-0.39062 3.9062-3.125 7.4219 4.6875 0 6.25 0.59375 1.5625 0.57812 1.5625 4.4844v12.891h-12.891v-21.094h-6.25v21.094h-10.547q-0.39062-5.0781-2.7344-11.141-2.3438-6.0469-8.2031-13.078-2.7344 3.9062-7.0312 4.6875 4.6875 4.2969 7.2188 9.1719 2.5469 4.8906 3.3281 11.141t0.96875 18.156q0.20312 11.922-0.1875 19.344h17.969q3.5156 6.25 5.8594 12.109h-15.234q-3.125-5.0781-10.547-14.844-3.125 2.7344-6.6406 3.9062 7.4219 7.4219 10.938 13.859 3.5156 6.4531 6.25 13.875 4.2969-1.9531 8.5938-3.125-1.9531-1.1719-5.4688-8.2031h22.656q-6.6406-12.109-8.5938-17.578h17.188q-0.39062-7.0312-0.39062-15.234v-38.672q0.39062-4.6875-1.9531-6.4375-2.3438-1.7656-8.9844-3.3281zm-25 58.203v-11.328h10.547v11.328zm0-16.797v-10.547h10.547v10.547zm16.797 16.797v-11.328h12.891v11.328z"/>
      <path id="SimHei-29575" d="m44.141 79.688q3.125 0.78125 7.4219 1.9531 1.1719-3.9062 2.7344-9.375h18.75q10.156 0 18.359 0.39062v-7.0312q-8.2031 0.78125-18.75 0.78125h-28.906q2.7344-1.9531 7.4219-4.2969-3.5156-2.7344-6.4531-6.0625-2.9219-3.3125-6.0469-6.8281h12.109q4.2969 5.0781 7.8125 10.547 3.125-2.7344 7.4219-5.4688-5.0781-2.7344-10.547-8.5938t-15.234-14.062l18.359 1.1719q-1.9531 2.7344-3.9062 5.4688 2.3438 1.1719 5.4688 3.125 3.125-4.2969 10.156-14.844-2.7344-1.1719-6.25-3.5156-1.1719 1.9531-2.7344 5.0781-4.2969-0.39062-8.5938-0.78125v-11.719h25.781q7.8125 0 14.062 0.39062v-6.6406q-5.8594 0.39062-14.453 0.39062h-25.391v-7.4219q0-7.0312 0.39062-12.5h-7.8125q0.39062 5.4688 0.39062 12.5v7.4219h-23.828q-7.4219 0-14.844-0.78125v7.0312q7.4219-0.39062 15.234-0.39062h23.438v10.938q-3.5156-0.39062-6.8438-0.98438-3.3125-0.57812-6.4375-1.75-1.1719 4.2969-2.7344 7.8125 3.125 0.39062 6.8281 3.125 3.7188 2.7344 9.9688 9.7656-10.156-1.1719-14.062-2.7344-0.78125 3.9062-2.7344 8.5938 3.125 0 6.8281 4.875 3.7188 4.8906 6.4531 11.141h-17.969q-8.5938 0-16.406-0.78125v7.0312q7.8125-0.39062 16.406-0.39062h21.484q-1.1719 4.2969-2.3438 7.4219zm-31.25-23.438q2.3438 2.3438 4.6875 5.0781 5.0781-4.2969 9.7656-8.9844-2.7344-3.125-5.0781-5.4688-4.2969 5.4688-9.375 9.375zm-3.125-26.562q4.2969 2.3438 8.5938 5.2656 4.2969 2.9375 7.8125 6.0625 1.5625-3.125 3.125-6.25-3.9062-2.3438-7.625-5.4688-3.7031-3.125-6.8281-6.6406-2.3438 3.5156-5.0781 7.0312zm71.094 32.812q3.125-3.9062 5.8594-6.6406-2.7344-0.78125-6.25-3.9062t-7.8125-6.6406q-1.9531 2.7344-4.2969 5.0781 3.5156 2.3438 6.25 4.875 2.7344 2.5469 6.25 7.2344zm-10.938-25.781q2.3438 2.7344 4.2969 5.4688 3.9062-2.7344 7.0312-5.0781t8.2031-6.25q-3.125-2.3438-5.8594-5.8594-2.7344 3.125-6.25 6.25t-7.4219 5.4688z"/>
      <path id="SimHei-57" d="m44.141 35.938q0-16.016-5.6719-25.594-5.6562-9.5625-16.203-9.5625-7.4219 0-11.922 5.4688-4.4844 5.4688-4.4844 12.109h8.9844q0-3.9062 2.1406-7.0312 2.1562-3.125 5.6719-3.125 5.8594 0 8.7812 6.6406 2.9375 6.6406 3.7188 19.531-1.9531-4.2969-5.4688-6.6406t-7.8125-2.3438q-7.4219 0-12.109 5.4688t-4.6875 15.625 4.6875 16.406 14.062 6.25 14.844-7.8125 5.4688-25.391zm-9.7656 8.9844q0 8.5938-2.9375 12.891-2.9219 4.2969-8 4.2969-3.5156 0-6.25-3.3281-2.7344-3.3125-2.7344-12.297 0-6.6406 2.1406-10.359 2.1562-3.7031 6.8438-3.7031 5.0781 0 8 3.5156 2.9375 3.5156 2.9375 8.9844z"/>
      <path id="SimHei-46" d="m17.188 1.5625h-8.9844v8.5938h8.9844z"/>
      <path id="SimHei-37" d="m22.266 51.562q0-11.328-3.3281-14.453-3.3125-3.125-6.4375-3.125t-6.4531 3.125q-3.3125 3.125-3.3125 14.453t3.3125 14.453q3.3281 3.125 6.4531 3.125t6.4375-3.125q3.3281-3.125 3.3281-14.453zm19.141 16.406-30.078-67.188-3.125 1.1719 30.078 67.188zm5.4688-49.609q0-11.328-3.3281-14.453-3.3125-3.125-6.4375-3.125t-6.4531 3.125q-3.3125 3.125-3.3125 14.453t3.3125 14.453q3.3281 3.125 6.4531 3.125t6.4375-3.125q3.3281-3.125 3.3281-14.453zm-30.859 33.203q0 7.0312-0.78125 9.375t-2.7344 2.3438-2.7344-2.3438-0.78125-9.375 0.78125-9.375 2.7344-2.3438 2.7344 2.3438 0.78125 9.375zm24.609-33.203q0 7.0312-0.78125 9.375t-2.7344 2.3438-2.7344-2.3438-0.78125-9.375 0.78125-9.375 2.7344-2.3438 2.7344 2.3438 0.78125 9.375z"/>
     </defs>
     <g transform="translate(268.58 208.76) scale(.13 -.13)">
      <use xlink:href="#SimHei-39564"/>
      <use x="100" xlink:href="#SimHei-35777"/>
      <use x="200" xlink:href="#SimHei-38598"/>
      <use x="300" xlink:href="#SimHei-20934"/>
      <use x="400" xlink:href="#SimHei-30830"/>
      <use x="500" xlink:href="#SimHei-29575"/>
      <use x="600" xlink:href="#SimHei-65306"/>
      <use x="700" xlink:href="#SimHei-57"/>
      <use x="750" xlink:href="#SimHei-48"/>
      <use x="800" xlink:href="#SimHei-46"/>
      <use x="850" xlink:href="#SimHei-48"/>
      <use x="900" xlink:href="#SimHei-48"/>
      <use x="950" xlink:href="#SimHei-37"/>
     </g>
    </g>
   </g>
   <g id="line2d_2">
    <path d="m295.06-1 95.11 218" clip-path="url(#pffb6b66e7b)" fill="none" stroke="#000" stroke-linecap="square" stroke-width="1.5"/>
   </g>
   <g id="patch_8">
    <path d="m235.6 194.4v-194.18" fill="none" stroke="#000" stroke-linecap="square" stroke-width=".8"/>
   </g>
   <g id="patch_9">
    <path d="m431.57 194.4v-194.18" fill="none" stroke="#000" stroke-linecap="square" stroke-width=".8"/>
   </g>
   <g id="patch_10">
    <path d="m235.6 194.4h195.97" fill="none" stroke="#000" stroke-linecap="square" stroke-width=".8"/>
   </g>
   <g id="patch_11">
    <path d="m235.6 0.216h195.97" fill="none" stroke="#000" stroke-linecap="square" stroke-width=".8"/>
   </g>
  </g>
 </g>
 <defs>
  <clipPath id="pa826fead19">
   <rect x=".432" y=".216" width="195.97" height="194.18"/>
  </clipPath>
  <clipPath id="pffb6b66e7b">
   <rect x="235.6" y=".216" width="195.97" height="194.18"/>
  </clipPath>
 </defs>
</svg>
