<svg version="1.1" xmlns="http://www.w3.org/2000/svg" xmlns:xlink="http://www.w3.org/1999/xlink" width="557" height="274"><defs><clipPath id="HJGhMEXNaEsz"><path fill="none" stroke="none" d=" M 0 0 L 557 0 L 557 274 L 0 274 L 0 0 Z"/></clipPath></defs><g transform="scale(1,1)" clip-path="url(#HJGhMEXNaEsz)"><g><path fill="none" stroke="rgb(0,0,0)" paint-order="fill stroke markers" d=" M 449.8010746038917 112.03315423268458 C 439.6003220171109 50.82863871199933 356.2038780778844 13.73375899545708 263.52990356893565 29.17942141361526 C 170.85592905998683 44.62508383177344 103.99817280932686 106.76233024663017 114.19892539610771 167.96684576731542 C 124.39967798288856 229.1713612880007 207.79612192211502 266.2662410045429 300.4700964310638 250.82057858638473 C 393.1440709400126 235.37491616822655 460.00182719067254 173.23766975336986 449.8010746038917 112.03315423268458 Z" stroke-opacity="0.6980392156862745" stroke-linecap="round" stroke-linejoin="round" stroke-miterlimit="10" stroke-width="2.5"/><g transform="scale(27,27)"><g transform="translate(9.37037037037037,4.387035703703704)"><path fill="rgb(0,0,0)" stroke="none" paint-order="stroke fill markers" d=" M 0.308 -0.34800000000000003 L 0.308 -0.34800000000000003 L 0.27 -0.223 Q 0.23900000000000002 -0.123 0.199 -0.022 Q 0.19 -0.003 0.153 0.015 Q 0.136 0.022 0.126 0.022 Q 0.115 0.022 0.115 0.015 Q 0.115 0.012 0.125 -0.015 Q 0.242 -0.317 0.27 -0.532 Q 0.274 -0.5650000000000001 0.274 -0.584 Q 0.274 -0.615 0.246 -0.625 Q 0.23700000000000002 -0.628 0.226 -0.628 Q 0.151 -0.628 0.123 -0.581 L 0.123 -0.58 Q 0.114 -0.5640000000000001 0.106 -0.54 Q 0.096 -0.51 0.049 -0.493 Q 0.037 -0.489 0.03 -0.489 Q 0.028 -0.489 0.02 -0.492 Q 0.036000000000000004 -0.58 0.134 -0.638 Q 0.211 -0.683 0.292 -0.683 Q 0.356 -0.678 0.359 -0.626 Q 0.359 -0.597 0.34600000000000003 -0.516 Q 0.332 -0.44 0.319 -0.393 Q 0.335 -0.403 0.364 -0.403 L 0.63 -0.403 Q 0.681 -0.544 0.729 -0.627 Q 0.742 -0.65 0.749 -0.656 Q 0.784 -0.683 0.807 -0.683 Q 0.8180000000000001 -0.683 0.8180000000000001 -0.675 Q 0.8180000000000001 -0.671 0.811 -0.661 Q 0.707 -0.461 0.662 -0.272 Q 0.64 -0.177 0.64 -0.10300000000000001 Q 0.64 -0.036000000000000004 0.657 -0.019 L 0.657 -0.019 Q 0.668 -0.008 0.686 -0.008 Q 0.6940000000000001 -0.008 0.711 -0.013000000000000001 Q 0.715 -0.035 0.742 -0.053 Q 0.772 -0.074 0.791 -0.074 Q 0.801 -0.074 0.801 -0.066 Q 0.801 -0.034 0.743 0.005 Q 0.68 0.047 0.62 0.047 Q 0.5660000000000001 0.047 0.558 -0.006 Q 0.555 -0.022 0.555 -0.06 Q 0.555 -0.182 0.614 -0.358 Q 0.598 -0.34800000000000003 0.5690000000000001 -0.34800000000000003 L 0.308 -0.34800000000000003 Z"/></g><g transform="translate(10.214888370370371,4.537035703703705) scale(0.7,0.7)"><path fill="rgb(0,0,0)" stroke="none" paint-order="stroke fill markers" d=" M 0.756 -0.578 L 0.616 -0.021 Q 0.611 -0.002 0.606 -0.001 L 0.605 0 L 0.6 0 Q 0.59 0 0.584 -0.012 Q 0.583 -0.015 0.581 -0.019 L 0.332 -0.608 L 0.323 -0.626 L 0.191 -0.098 Q 0.187 -0.083 0.187 -0.075 Q 0.187 -0.041 0.23 -0.033 Q 0.24 -0.031 0.253 -0.031 Q 0.273 -0.031 0.273 -0.02 Q 0.273 0 0.255 0 L 0.155 -0.003 L 0.152 -0.003 L 0.053 0 L 0.052000000000000005 0 Q 0.039 0 0.039 -0.011 Q 0.039 -0.031 0.056 -0.031 Q 0.135 -0.034 0.156 -0.081 Q 0.16 -0.091 0.164 -0.106 L 0.298 -0.643 Q 0.298 -0.652 0.23 -0.652 Q 0.20400000000000001 -0.652 0.202 -0.663 Q 0.202 -0.681 0.217 -0.683 L 0.231 -0.683 L 0.365 -0.683 Q 0.386 -0.683 0.391 -0.676 Q 0.393 -0.673 0.397 -0.664 L 0.618 -0.14200000000000002 L 0.73 -0.587 Q 0.733 -0.596 0.733 -0.608 Q 0.733 -0.651 0.665 -0.652 Q 0.647 -0.652 0.647 -0.663 Q 0.647 -0.683 0.665 -0.683 L 0.766 -0.68 L 0.767 -0.68 L 0.867 -0.683 L 0.868 -0.683 Q 0.881 -0.683 0.881 -0.672 Q 0.881 -0.652 0.864 -0.652 Q 0.786 -0.649 0.764 -0.603 L 0.764 -0.603 Q 0.76 -0.593 0.756 -0.578 Z"/></g></g><path fill="none" stroke="rgb(128,128,128)" paint-order="fill stroke markers" d=" M 108.00000000000006 8.999999999999915 L 108.00000000000006 259.00000000000006" stroke-opacity="0.6980392156862745" stroke-linecap="round" stroke-linejoin="round" stroke-miterlimit="10" stroke-width="2.5"/><path fill="none" stroke="rgb(128,128,128)" paint-order="fill stroke markers" d=" M 108.00000000000006 259.00000000000006 L 457.9999999999994 259.00000000000006" stroke-opacity="0.6980392156862745" stroke-linecap="round" stroke-linejoin="round" stroke-miterlimit="10" stroke-width="2.5"/><path fill="none" stroke="rgb(128,128,128)" paint-order="fill stroke markers" d=" M 457.9999999999994 259.00000000000006 L 457.9999999999994 8.999999999999915" stroke-opacity="0.6980392156862745" stroke-linecap="round" stroke-linejoin="round" stroke-miterlimit="10" stroke-width="2.5"/><path fill="none" stroke="rgb(128,128,128)" paint-order="fill stroke markers" d=" M 457.9999999999994 8.999999999999915 L 108.00000000000006 8.999999999999915" stroke-opacity="0.6980392156862745" stroke-linecap="round" stroke-linejoin="round" stroke-miterlimit="10" stroke-width="2.5"/><g transform="scale(36,36)"><g transform="translate(11.61111111111111,1.3527776666666667)"><path fill="rgb(0,0,0)" stroke="none" paint-order="stroke fill markers" d=" M 0.468 -0.421 L 0.708 -0.421 Q 0.734 -0.485 0.77 -0.554 Q 0.806 -0.623 0.8160000000000001 -0.635 Q 0.837 -0.658 0.867 -0.672 Q 0.897 -0.686 0.915 -0.686 Q 0.934 -0.686 0.934 -0.674 Q 0.934 -0.67 0.929 -0.66 Q 0.847 -0.517 0.8015 -0.3815 Q 0.756 -0.246 0.756 -0.149 Q 0.756 -0.088 0.768 -0.064 Q 0.78 -0.04 0.8170000000000001 -0.04 Q 0.833 -0.069 0.869 -0.088 Q 0.905 -0.107 0.927 -0.107 Q 0.9450000000000001 -0.107 0.9450000000000001 -0.094 Q 0.9450000000000001 -0.089 0.9415 -0.078 Q 0.9380000000000001 -0.067 0.916 -0.041 Q 0.894 -0.015 0.857 0.006 Q 0.787 0.047 0.716 0.047 Q 0.6900000000000001 0.047 0.672 0.038 Q 0.654 0.029 0.645 0.0175 Q 0.636 0.006 0.6315000000000001 -0.0155 Q 0.627 -0.037 0.6265000000000001 -0.05 Q 0.626 -0.063 0.626 -0.08700000000000001 Q 0.626 -0.183 0.679 -0.34700000000000003 Q 0.653 -0.334 0.619 -0.334 L 0.387 -0.334 Q 0.357 -0.231 0.3225 -0.14150000000000001 Q 0.28800000000000003 -0.052000000000000005 0.28 -0.04 Q 0.264 -0.019 0.231 -0.001 Q 0.198 0.017 0.177 0.017 Q 0.158 0.017 0.158 0.004 Q 0.158 -0.001 0.165 -0.015 Q 0.23500000000000001 -0.185 0.2725 -0.331 Q 0.31 -0.47700000000000004 0.31 -0.552 Q 0.31 -0.561 0.308 -0.5695 Q 0.306 -0.578 0.2935 -0.5885 Q 0.281 -0.599 0.259 -0.599 Q 0.214 -0.599 0.184 -0.588 Q 0.165 -0.58 0.153 -0.538 Q 0.14200000000000002 -0.506 0.10400000000000001 -0.484 Q 0.066 -0.46 0.04 -0.46 Q 0.022 -0.46 0.022 -0.47300000000000003 Q 0.022 -0.47600000000000003 0.0245 -0.486 Q 0.027 -0.496 0.038 -0.5185 Q 0.049 -0.541 0.067 -0.562 Q 0.106 -0.609 0.1835 -0.6475 Q 0.261 -0.686 0.354 -0.686 Q 0.401 -0.686 0.4205 -0.6645 Q 0.44 -0.643 0.44 -0.614 Q 0.44 -0.528 0.40700000000000003 -0.40800000000000003 Q 0.434 -0.421 0.468 -0.421 Z"/></g></g></g></g></svg>