<svg version="1.1" xmlns="http://www.w3.org/2000/svg" xmlns:xlink="http://www.w3.org/1999/xlink" width="750" height="262"><defs><clipPath id="XznfmeEUASDD"><path fill="none" stroke="none" d=" M 0 0 L 750 0 L 750 262 L 0 262 L 0 0 Z"/></clipPath></defs><g transform="scale(1,1)" clip-path="url(#XznfmeEUASDD)"><g><path fill="none" stroke="rgb(0,0,0)" paint-order="fill stroke markers" d=" M 13.5 2.5 L 13.5 262.5" stroke-opacity="1" stroke-miterlimit="10"/><path fill="none" stroke="rgb(0,0,0)" paint-order="fill stroke markers" d=" M 13.5 1.5 L 9.5 5.5" stroke-opacity="1" stroke-miterlimit="10"/><path fill="none" stroke="rgb(0,0,0)" paint-order="fill stroke markers" d=" M 13.5 1.5 L 17.5 5.5" stroke-opacity="1" stroke-miterlimit="10"/><path fill="none" stroke="rgb(0,0,0)" paint-order="fill stroke markers" d=" M 0.5 138.5 L 748.5 138.5" stroke-opacity="1" stroke-miterlimit="10"/><path fill="none" stroke="rgb(0,0,0)" paint-order="fill stroke markers" d=" M 749.5 138.5 L 745.5 134.5" stroke-opacity="1" stroke-miterlimit="10"/><path fill="none" stroke="rgb(0,0,0)" paint-order="fill stroke markers" d=" M 749.5 138.5 L 745.5 142.5" stroke-opacity="1" stroke-miterlimit="10"/><path fill="none" stroke="rgb(0,0,0)" paint-order="fill stroke markers" d=" M 13.5 138.5 L 13.5 141.5" stroke-opacity="1" stroke-miterlimit="10"/><path fill="none" stroke="rgb(0,0,0)" paint-order="fill stroke markers" d=" M 69.5 138.5 L 69.5 141.5" stroke-opacity="1" stroke-miterlimit="10"/><path fill="none" stroke="rgb(0,0,0)" paint-order="fill stroke markers" d=" M 125.5 138.5 L 125.5 141.5" stroke-opacity="1" stroke-miterlimit="10"/><path fill="none" stroke="rgb(0,0,0)" paint-order="fill stroke markers" d=" M 181.5 138.5 L 181.5 141.5" stroke-opacity="1" stroke-miterlimit="10"/><path fill="none" stroke="rgb(0,0,0)" paint-order="fill stroke markers" d=" M 238.5 138.5 L 238.5 141.5" stroke-opacity="1" stroke-miterlimit="10"/><path fill="none" stroke="rgb(0,0,0)" paint-order="fill stroke markers" d=" M 294.5 138.5 L 294.5 141.5" stroke-opacity="1" stroke-miterlimit="10"/><path fill="none" stroke="rgb(0,0,0)" paint-order="fill stroke markers" d=" M 350.5 138.5 L 350.5 141.5" stroke-opacity="1" stroke-miterlimit="10"/><path fill="none" stroke="rgb(0,0,0)" paint-order="fill stroke markers" d=" M 406.5 138.5 L 406.5 141.5" stroke-opacity="1" stroke-miterlimit="10"/><path fill="none" stroke="rgb(0,0,0)" paint-order="fill stroke markers" d=" M 463.5 138.5 L 463.5 141.5" stroke-opacity="1" stroke-miterlimit="10"/><path fill="none" stroke="rgb(0,0,0)" paint-order="fill stroke markers" d=" M 519.5 138.5 L 519.5 141.5" stroke-opacity="1" stroke-miterlimit="10"/><path fill="none" stroke="rgb(0,0,0)" paint-order="fill stroke markers" d=" M 575.5 138.5 L 575.5 141.5" stroke-opacity="1" stroke-miterlimit="10"/><path fill="none" stroke="rgb(0,0,0)" paint-order="fill stroke markers" d=" M 631.5 138.5 L 631.5 141.5" stroke-opacity="1" stroke-miterlimit="10"/><path fill="none" stroke="rgb(0,0,0)" paint-order="fill stroke markers" d=" M 688.5 138.5 L 688.5 141.5" stroke-opacity="1" stroke-miterlimit="10"/><path fill="none" stroke="rgb(0,0,0)" paint-order="fill stroke markers" d=" M 10.5 251.5 L 13.5 251.5" stroke-opacity="1" stroke-miterlimit="10"/><path fill="none" stroke="rgb(0,0,0)" paint-order="fill stroke markers" d=" M 10.5 195.5 L 13.5 195.5" stroke-opacity="1" stroke-miterlimit="10"/><path fill="none" stroke="rgb(0,0,0)" paint-order="fill stroke markers" d=" M 10.5 82.5 L 13.5 82.5" stroke-opacity="1" stroke-miterlimit="10"/><path fill="none" stroke="rgb(0,0,0)" paint-order="fill stroke markers" d=" M 10.5 26.5 L 13.5 26.5" stroke-opacity="1" stroke-miterlimit="10"/><path fill="none" stroke="rgb(102,102,102)" paint-order="fill stroke markers" d=" M 0 170.89087686455898 L 2.9296875000000018 163.92302657947258 L 5.859375 156.85190142226062 L 8.7890625 149.70651139472363 L 11.718750000000002 142.5161711777583 L 14.6484375 135.31037986493217 L 17.578125 128.11869993948682 L 20.5078125 120.9706359912785 L 23.4375 113.89551367123228 L 26.367187500000004 106.92235937991101 L 29.296875 100.07978118378912 L 32.2265625 93.39585144778397 L 35.15625 86.89799166555675 L 38.0859375 80.61285996007811 L 41.015625 74.56624171599884 L 43.9453125 68.7829437925171 L 46.875 63.286692750744905 L 49.8046875 58.100037513105875 L 52.734375 53.2442568541143 L 58.59375 44.60356540977406 L 64.453125 37.50627020449821 L 70.3125 32.068721249575304 L 73.2421875 30.001314111068922 L 76.171875 28.380059388663284 L 79.1015625 27.2116084428379 L 82.03125 26.500754961059542 L 84.9609375 26.250415291197598 L 87.890625 26.461616476913676 L 90.8203125 27.133492044111875 L 93.75 28.263285555735706 L 96.6796875 29.846361920328363 L 99.609375 31.87622640796127 L 105.46875 37.241210032008354 L 111.328125 44.27028518910684 L 117.1875 52.84822023815654 L 123.046875 62.834392193791444 L 125.9765625 68.30523875920191 L 128.90625 74.06509203924362 L 131.8359375 80.09032165681108 L 134.765625 86.35620850169659 L 137.6953125 92.83704614322457 L 140.625 99.50624629346774 L 143.5546875 106.33644788837131 L 146.484375 113.2996293392685 L 149.4140625 120.3672234942654 L 152.34375 127.51023483785296 L 155.2734375 134.69935844792448 L 158.203125 141.90510022216463 L 161.1328125 149.09789788056872 L 164.0625 156.24824224766877 L 166.9921875 163.32679831689194 L 169.921875 170.30452560037412 L 172.8515625 177.15279727048096 L 175.78125 183.84351760424562 L 178.7109375 190.349237248897 L 181.640625 196.64326583558875 L 184.57031250000003 202.69978147932045 L 187.50000000000003 208.49393671581694 L 190.42968750000003 214.00196044074815 L 193.35937500000003 219.2012554330742 L 199.21875000000003 228.58969080011371 L 205.07812500000003 236.50533283723996 L 210.93750000000003 242.81841590645442 L 216.79687500000003 247.425446033627 L 219.72656250000003 249.06445986958641 L 222.65625000000003 250.25089754428598 L 225.58593750000003 250.9798915778955 L 228.515625 251.24845119910813 L 231.44531250000003 251.0554746150802 L 234.375 250.4017535316471 L 237.30468750000003 249.28996990527065 L 240.23437499999997 247.724684940043 L 246.09374999999997 243.26113213773306 L 251.95312499999997 237.0842686935087 L 257.8125 229.29535545543615 L 263.671875 220.0220805239769 L 266.6015625 214.8754293693721 L 269.53125 209.41646598807492 L 272.4609375 203.66758632613318 L 275.390625 197.6523757402813 L 278.3203125 191.39551223664193 L 281.25 184.92266522672625 L 284.1796875 178.26039021609182 L 287.109375 171.4360198577124 L 290.0390625 164.4775518170204 L 292.96875 157.41353390867076 L 295.8984375 150.272946976261 L 298.828125 143.08508599550737 L 301.7578125 135.8794398886613 L 304.6875 128.6855705432426 L 307.6171875 121.53299153142284 L 310.546875 114.45104702762958 L 313.4765625 107.46879142112003 L 316.40625 100.61487011742952 L 319.3359375 93.91740201771408 L 322.265625 87.40386415813343 L 325.1953125 81.10097898254635 L 328.125 75.03460471099962 L 331.0546875 69.22962925377986 L 333.984375 63.70986810626077 L 336.9140625 58.49796664343798 L 339.84375 53.6153072150026 L 345.703125 44.91640793568098 L 351.5625 37.7557762893325 L 357.421875 32.25080059767545 L 360.3515625 30.148489526430026 L 363.28125 28.491727069348727 L 366.2109375 27.287310260961945 L 369.140625 26.54018034230323 L 372.0703125 26.25340248897102 L 375 26.4281532359377 L 377.9296875 27.063715650696537 L 380.859375 28.157482274549494 L 383.7890625 29.704965819968436 L 386.71875 31.699817580143645 L 392.578125 36.99708762816421 L 398.4375 43.962451247142326 L 404.296875 52.48172125558757 L 410.15625 62.41523639762927 L 413.0859375 67.86228164831066 L 416.015625 73.60015088970012 L 418.9453125 79.6053039364206 L 421.875 85.85310404441499 L 424.8046875 92.3179189856634 L 427.734375 98.97322620697767 L 430.6640625 105.79172164144035 L 433.59375 112.74543172608475 L 436.5234375 119.805828166249 L 439.453125 126.94394497577285 L 442.3828125 134.13049731286765 L 445.3125 141.33600162412378 L 448.2421875 148.53089660375227 L 451.171875 155.6856644718145 L 454.10156250000006 162.77095207387964 L 457.03124999999994 169.75769130529352 L 459.9609375 176.61721836599966 L 462.890625 183.32139135665975 L 465.82031250000006 189.84270573362537 L 468.74999999999994 196.1544071490929 L 471.6796875 202.2306012135059 L 474.609375 208.04635972988962 L 477.53906250000006 213.57782296428655 L 480.46874999999994 218.802297532713 L 486.328125 228.24589232989626 L 492.1875 236.22232988172152 L 498.046875 242.60084789461703 L 503.90625 247.27687968207192 L 506.8359375 248.95138015422242 L 509.765625 250.17376838601294 L 512.6953125000001 250.93902940683884 L 515.625 251.24402365643238 L 518.5546875 251.08749986522423 L 521.4843750000001 250.47010018780284 L 524.4140625000001 249.3943575684105 L 527.34375 247.86468534928508 L 533.203125 243.47049119344337 L 539.0625 237.35955425318923 L 544.921875 229.63205460577979 L 550.78125 220.4146735636312 L 553.7109375 215.29360916511556 L 556.640625 209.8585169152568 L 559.5703125000001 204.13169482638656 L 562.5 198.13663776182818 L 565.4296875 191.89794104585718 L 568.359375 185.44119955891188 L 571.2890625 178.79290273202355 L 574.21875 171.98032587126107 L 577.1484375 165.03141825804775 L 580.078125 157.97468848442358 L 583.0078125 150.83908749368103 L 585.9375 143.6538898062088 L 588.8671875 136.4485734178303 L 591.796875 129.25269886336216 L 594.7265625 122.09578794154788 L 597.65625 115.00720259891074 L 600.5859375 108.01602446941736 L 603.515625 101.15093556415016 L 606.4453125 94.4401006004739 L 609.375 87.91105145345045 L 612.3046875 81.59057420355552 L 615.234375 75.50459924408884 L 618.1640625 69.67809489913006 L 621.09375 64.13496498847842 L 624.0234375 58.89795075982988 L 626.953125 53.9885375905217 L 632.8125 45.231653225923736 L 638.671875 38.00786849832042 L 644.53125 32.43560703393764 L 647.4609375 30.29844586310564 L 650.390625 28.606218095491798 L 653.3203125 27.365866265628284 L 656.25 26.582479041586595 L 659.1796875 26.259270348205433 L 662.109375 26.39756618164074 L 665.0390625 26.996799169333343 L 667.96875 28.054510897711793 L 670.8984375 29.566361998081206 L 673.8281250000001 31.526149949319617 L 679.6875 36.755570775951725 L 685.5468750000001 43.65704449715278 L 691.40625 52.11743131499307 L 697.2656250000001 61.99803527935522 L 700.1953125 67.4211397347037 L 703.125 73.13687800980792 L 706.0546875 79.12180071380494 L 708.9843750000001 85.35135409965159 L 711.9140625 91.79998079834047 L 714.84375 98.4412246705758 L 717.7734375 105.24783934574346 L 720.7031250000001 112.19190000288629 L 723.6328125 119.24491793508821 L 726.5625 126.37795742726018 L 729.4921875 133.56175446781825 L 732.4218750000001 140.7668368072338 L 735.3515625 147.96364487089977 L 738.28125 155.12265303025774 L 741.2109375 162.21449073465618 L 744.1406250000001 169.2100630069872 L 747.0703125 176.0806698087555 L 750 182.7981237848723" stroke-opacity="0.6980392156862745" stroke-linejoin="round" stroke-miterlimit="10" stroke-width="1.5" stroke-dasharray="9.5,8"/><path fill="rgb(255,0,0)" stroke="none" paint-order="stroke fill markers" d=" M 69.99999999999919 138.75000000000009 C 69.99999999999919 141.51142374915406 67.76142374915315 143.75000000000009 64.99999999999919 143.75000000000009 C 62.23857625084522 143.75000000000009 59.99999999999919 141.51142374915406 59.99999999999919 138.75000000000009 C 59.99999999999919 135.9885762508461 62.23857625084522 133.75000000000009 64.99999999999919 133.75000000000009 C 67.76142374915315 133.75000000000009 69.99999999999919 135.9885762508461 69.99999999999919 138.75000000000009 Z" fill-opacity="1"/><path fill="none" stroke="rgb(0,0,0)" paint-order="fill stroke markers" d=" M 69.99999999999919 138.75000000000009 C 69.99999999999919 141.51142374915406 67.76142374915315 143.75000000000009 64.99999999999919 143.75000000000009 C 62.23857625084522 143.75000000000009 59.99999999999919 141.51142374915406 59.99999999999919 138.75000000000009 C 59.99999999999919 135.9885762508461 62.23857625084522 133.75000000000009 64.99999999999919 133.75000000000009 C 67.76142374915315 133.75000000000009 69.99999999999919 135.9885762508461 69.99999999999919 138.75000000000009 Z" stroke-opacity="1" stroke-linecap="round" stroke-linejoin="round" stroke-miterlimit="10"/><path fill="rgb(255,0,0)" stroke="none" paint-order="stroke fill markers" d=" M 355.7499999999984 138.75000000000009 C 355.7499999999984 141.51142374915406 353.51142374915236 143.75000000000009 350.7499999999984 143.75000000000009 C 347.98857625084446 143.75000000000009 345.7499999999984 141.51142374915406 345.7499999999984 138.75000000000009 C 345.7499999999984 135.9885762508461 347.98857625084446 133.75000000000009 350.7499999999984 133.75000000000009 C 353.51142374915236 133.75000000000009 355.7499999999984 135.9885762508461 355.7499999999984 138.75000000000009 Z" fill-opacity="1"/><path fill="none" stroke="rgb(0,0,0)" paint-order="fill stroke markers" d=" M 355.7499999999984 138.75000000000009 C 355.7499999999984 141.51142374915406 353.51142374915236 143.75000000000009 350.7499999999984 143.75000000000009 C 347.98857625084446 143.75000000000009 345.7499999999984 141.51142374915406 345.7499999999984 138.75000000000009 C 345.7499999999984 135.9885762508461 347.98857625084446 133.75000000000009 350.7499999999984 133.75000000000009 C 353.51142374915236 133.75000000000009 355.7499999999984 135.9885762508461 355.7499999999984 138.75000000000009 Z" stroke-opacity="1" stroke-linecap="round" stroke-linejoin="round" stroke-miterlimit="10"/><path fill="rgb(255,0,0)" stroke="none" paint-order="stroke fill markers" d=" M 83.49999999999915 138.75000000000009 C 83.49999999999915 141.51142374915406 81.26142374915311 143.75000000000009 78.49999999999915 143.75000000000009 C 75.73857625084518 143.75000000000009 73.49999999999915 141.51142374915406 73.49999999999915 138.75000000000009 C 73.49999999999915 135.9885762508461 75.73857625084518 133.75000000000009 78.49999999999915 133.75000000000009 C 81.26142374915311 133.75000000000009 83.49999999999915 135.9885762508461 83.49999999999915 138.75000000000009 Z" fill-opacity="1"/><path fill="none" stroke="rgb(0,0,0)" paint-order="fill stroke markers" d=" M 83.49999999999915 138.75000000000009 C 83.49999999999915 141.51142374915406 81.26142374915311 143.75000000000009 78.49999999999915 143.75000000000009 C 75.73857625084518 143.75000000000009 73.49999999999915 141.51142374915406 73.49999999999915 138.75000000000009 C 73.49999999999915 135.9885762508461 75.73857625084518 133.75000000000009 78.49999999999915 133.75000000000009 C 81.26142374915311 133.75000000000009 83.49999999999915 135.9885762508461 83.49999999999915 138.75000000000009 Z" stroke-opacity="1" stroke-linecap="round" stroke-linejoin="round" stroke-miterlimit="10"/><path fill="none" stroke="rgb(125,125,255)" paint-order="fill stroke markers" d=" M 192.7499999999988 133.75000000000009 L 202.7499999999988 143.75000000000009" stroke-opacity="1" stroke-linecap="square" stroke-miterlimit="10" stroke-width="2.5"/><path fill="none" stroke="rgb(125,125,255)" paint-order="fill stroke markers" d=" M 192.7499999999988 143.75000000000009 L 202.7499999999988 133.75000000000009" stroke-opacity="1" stroke-linecap="square" stroke-miterlimit="10" stroke-width="2.5"/><path fill="none" stroke="rgb(125,125,255)" paint-order="fill stroke markers" d=" M 176.99999999999886 133.75000000000009 L 186.99999999999886 143.75000000000009" stroke-opacity="1" stroke-linecap="square" stroke-miterlimit="10" stroke-width="2.5"/><path fill="none" stroke="rgb(125,125,255)" paint-order="fill stroke markers" d=" M 176.99999999999886 143.75000000000009 L 186.99999999999886 133.75000000000009" stroke-opacity="1" stroke-linecap="square" stroke-miterlimit="10" stroke-width="2.5"/><path fill="rgb(255,0,0)" stroke="none" paint-order="stroke fill markers" d=" M 609.9999999999977 138.75000000000009 C 609.9999999999977 141.51142374915406 607.7614237491517 143.75000000000009 604.9999999999977 143.75000000000009 C 602.2385762508437 143.75000000000009 599.9999999999977 141.51142374915406 599.9999999999977 138.75000000000009 C 599.9999999999977 135.9885762508461 602.2385762508437 133.75000000000009 604.9999999999977 133.75000000000009 C 607.7614237491517 133.75000000000009 609.9999999999977 135.9885762508461 609.9999999999977 138.75000000000009 Z" fill-opacity="1"/><path fill="none" stroke="rgb(0,0,0)" paint-order="fill stroke markers" d=" M 609.9999999999977 138.75000000000009 C 609.9999999999977 141.51142374915406 607.7614237491517 143.75000000000009 604.9999999999977 143.75000000000009 C 602.2385762508437 143.75000000000009 599.9999999999977 141.51142374915406 599.9999999999977 138.75000000000009 C 599.9999999999977 135.9885762508461 602.2385762508437 133.75000000000009 604.9999999999977 133.75000000000009 C 607.7614237491517 133.75000000000009 609.9999999999977 135.9885762508461 609.9999999999977 138.75000000000009 Z" stroke-opacity="1" stroke-linecap="round" stroke-linejoin="round" stroke-miterlimit="10"/><path fill="rgb(255,0,0)" stroke="none" paint-order="stroke fill markers" d=" M 636.9999999999977 138.75000000000009 C 636.9999999999977 141.51142374915406 634.7614237491517 143.75000000000009 631.9999999999977 143.75000000000009 C 629.2385762508437 143.75000000000009 626.9999999999977 141.51142374915406 626.9999999999977 138.75000000000009 C 626.9999999999977 135.9885762508461 629.2385762508437 133.75000000000009 631.9999999999977 133.75000000000009 C 634.7614237491517 133.75000000000009 636.9999999999977 135.9885762508461 636.9999999999977 138.75000000000009 Z" fill-opacity="1"/><path fill="none" stroke="rgb(0,0,0)" paint-order="fill stroke markers" d=" M 636.9999999999977 138.75000000000009 C 636.9999999999977 141.51142374915406 634.7614237491517 143.75000000000009 631.9999999999977 143.75000000000009 C 629.2385762508437 143.75000000000009 626.9999999999977 141.51142374915406 626.9999999999977 138.75000000000009 C 626.9999999999977 135.9885762508461 629.2385762508437 133.75000000000009 631.9999999999977 133.75000000000009 C 634.7614237491517 133.75000000000009 636.9999999999977 135.9885762508461 636.9999999999977 138.75000000000009 Z" stroke-opacity="1" stroke-linecap="round" stroke-linejoin="round" stroke-miterlimit="10"/><path fill="none" stroke="rgb(125,125,255)" paint-order="fill stroke markers" d=" M 548.2499999999978 133.75000000000009 L 558.2499999999978 143.75000000000009" stroke-opacity="1" stroke-linecap="square" stroke-miterlimit="10" stroke-width="2.5"/><path fill="none" stroke="rgb(125,125,255)" paint-order="fill stroke markers" d=" M 548.2499999999978 143.75000000000009 L 558.2499999999978 133.75000000000009" stroke-opacity="1" stroke-linecap="square" stroke-miterlimit="10" stroke-width="2.5"/></g></g></svg>