<?xml version="1.0" encoding="UTF-8"?>
<!DOCTYPE svg  PUBLIC '-//W3C//DTD SVG 1.1//EN'  'http://www.w3.org/Graphics/SVG/1.1/DTD/svg11.dtd'>
<!-- Created with matplotlib (https://matplotlib.org/) -->
<svg width="432pt" height="216pt" version="1.1" viewBox="0 0 432 216" xmlns="http://www.w3.org/2000/svg" xmlns:xlink="http://www.w3.org/1999/xlink">
 <defs>
  <style type="text/css">*{stroke-linecap:butt;stroke-linejoin:round;}</style>
 </defs>
 <g id="figure_1">
  <g id="patch_1">
   <path d="m0 216h432v-216h-432z" fill="#fff"/>
  </g>
  <g id="axes_1">
   <g id="patch_2">
    <path d="m0.432 196.56h195.97v-196.34h-195.97z" fill="#fff"/>
   </g>
   <g id="PathCollection_1">
    <defs>
     <path id="mec7ed85d2e" d="m-2 2 4-4m-4 0 4 4" stroke="#00f" stroke-opacity=".8" stroke-width="1.5"/>
    </defs>
    <g clip-path="url(#p33b8180e77)" fill="#0000ff" fill-opacity=".8" stroke="#0000ff" stroke-opacity=".8" stroke-width="1.5">
     <use x="109.195855" y="151.40088" xlink:href="#mec7ed85d2e"/>
     <use x="156.228873" y="70.89984" xlink:href="#mec7ed85d2e"/>
    </g>
   </g>
   <g id="PathCollection_2">
    <defs>
     <path id="m7fe76baba8" d="m0 2c0.53041 0 1.0392-0.21073 1.4142-0.58579 0.37505-0.37505 0.58579-0.88381 0.58579-1.4142s-0.21073-1.0392-0.58579-1.4142c-0.37505-0.37505-0.88381-0.58579-1.4142-0.58579s-1.0392 0.21073-1.4142 0.58579c-0.37505 0.37505-0.58579 0.88381-0.58579 1.4142s0.21073 1.0392 0.58579 1.4142c0.37505 0.37505 0.88381 0.58579 1.4142 0.58579z" stroke="#000" stroke-opacity=".8"/>
    </defs>
    <g clip-path="url(#p33b8180e77)" fill="#ff0000" fill-opacity=".8" stroke="#000000" stroke-opacity=".8">
     <use x="89.598764" y="54.2106" xlink:href="#m7fe76baba8"/>
     <use x="49.424727" y="111.15036" xlink:href="#m7fe76baba8"/>
    </g>
   </g>
   <g id="matplotlib.axis_1">
    <g id="text_1">
     <!-- 直线决策边界：$k=4$ -->
     <defs>
      <path id="SimHei-30452" d="m29.688 8.2031v-7.8125h40.625v7.8125zm15.234 71.875q5.8594-0.78125 10.156-0.78125-1.1719-2.7344-1.5625-4.8906-0.39062-2.1406-0.39062-4.0938h21.484q5.8594 0 14.062 0.39062v-6.6406q-7.8125 0.39062-14.062 0.39062h-22.266q-0.78125-5.0781-1.1719-9.7656h26.953q-0.39062-6.6406-0.39062-15.625v-38.672h3.5156q5.4688 0 12.5 0.39062v-7.0312q-6.6406 0.39062-12.109 0.39062h-62.109q-6.25 0-13.672-0.39062v7.0312q7.8125-0.39062 14.062-0.39062h2.3438v38.672q0 10.547-0.39062 15.625h21.484q0.78125 5.4688 1.1719 9.7656h-19.922q-7.0312 0-14.453-0.39062v6.6406q7.4219-0.39062 14.062-0.39062h20.703q0.39062 5.4688 0 9.7656zm-15.234-31.25v-7.8125h40.625v7.8125zm0-13.672v-7.4219h40.625v7.4219zm0-13.281v-7.8125h40.625v7.8125z"/>
      <path id="SimHei-32447" d="m22.266 80.078q3.9062-2.7344 8.9844-4.2969-3.9062-3.5156-7.625-9.9688-3.7031-6.4375-9.5625-15.812 8.9844 0.39062 12.5 0.39062 3.5156 5.8594 5.8594 12.891 3.9062-2.7344 8.5938-4.2969-3.9062-3.9062-7.8125-10.547t-14.062-22.656q10.547 0.78125 18.359 1.5625-1.1719-3.9062-1.1719-6.6406-2.7344 0-11.719-0.98438-8.9844-0.96875-14.844-2.5312-0.39062 3.9062-2.3438 8.2031 4.6875 1.1719 8.3906 6.25 3.7188 5.0781 8.0156 12.891-12.5-0.78125-16.016-3.125-1.1719 4.2969-3.125 8.5938 4.6875 3.5156 9.375 11.516 4.6875 8.0156 8.2031 18.562zm-16.797-73.047q10.547 1.1719 16.203 2.1406 5.6719 0.98438 18.953 4.1094-0.39062-4.2969 0-6.6406-9.375-1.9531-17-3.9062-7.6094-1.9531-14.25-4.2969-1.1719 4.2969-3.9062 8.5938zm75.781 59.375q-3.5156-1.5625-6.25-3.9062-2.7344 4.2969-7.0312 10.156 2.7344 1.5625 5.8594 3.125 1.5625-1.9531 7.4219-9.375zm-42.188-14.453q3.9062 0 14.844 2.3438 0 7.0312 0 12.688 0 5.6719-1.1719 12.703 4.6875-0.39062 10.156-1.1719-1.1719-2.3438-1.5625-7.625-0.39062-5.2656 0-15.031l12.891 2.3438q6.6406 1.5625 12.891 3.5156l1.5625-7.4219q-6.6406-0.78125-13.281-1.9531l-13.672-2.7344q0-6.25 0.78125-10.938l14.844 2.7344q7.4219 1.5625 14.453 3.9062l1.1719-7.4219q-7.0312-1.1719-14.453-2.7344l-14.844-2.7344q0.78125-7.8125 3.9062-14.453 3.125 2.7344 6.4375 6.25 3.3281 3.5156 6.0625 7.8125 5.4688-4.6875 8.5938-6.25-5.0781-2.3438-7.8125-5.2812-2.7344-2.9219-9.375-9.1719 4.6875-7.8125 8.2031-9.9688 3.5156-2.1406 5.0781-0.1875t2.7344 8.2031q3.5156-2.7344 7.8125-4.2969-6.25-17.188-13.875-13.859-7.6094 3.3125-15.812 15.422-5.4688-4.2969-10.547-8-5.0781-3.7188-12.5-7.625-1.9531 3.9062-5.8594 7.0312 7.4219 2.7344 12.891 5.8594t12.109 8.9844q-3.5156 7.8125-5.0781 18.359-11.328-1.9531-15.625-3.5156l-1.1719 7.4219q4.2969 0 15.625 2.3438-0.78125 6.25-0.78125 10.547-10.547-2.3438-14.062-3.5156z"/>
      <path id="SimHei-20915" d="m7.0312 66.797q3.125 2.7344 6.25 5.8594 4.2969-4.6875 8-9.375 3.7188-4.6875 8.0156-9.7656-3.125-2.3438-6.6406-6.25-3.5156 5.4688-15.625 19.531zm15.234-28.125q2.7344-3.125 7.0312-5.4688-4.2969-7.4219-8.7969-16.797-4.4844-9.375-6.8281-14.844-3.5156 3.125-8.2031 5.8594 3.9062 5.0781 8.7812 13.859 4.8906 8.7969 8.0156 17.391zm38.281 19.141q-0.39062-13.672-0.78125-22.266h15.234v22.266zm-8.2031-22.266q0.78125 12.891 0.78125 22.266-10.938 0-17.969-0.39062v7.4219q7.0312-0.39062 17.969-0.39062 0 10.938-0.39062 16.797 3.9062-0.39062 8.5938-0.78125-0.78125-5.4688-0.78125-16.016h22.266q-0.39062-6.25-0.39062-28.906 6.25 0 10.938 0.39062v-7.4219q-5.8594 0.39062-11.719 0.39062h-19.141q10.938-24.609 32.812-28.906-3.9062-3.125-5.4688-8.9844-23.438 8.2031-32.422 32.031-8.2031-21.484-28.516-33.984-2.3438 3.9062-6.6406 6.25 22.266 11.719 29.297 33.594h-6.25q-6.6406 0-13.672-0.39062v7.4219q7.0312-0.39062 13.672-0.39062z"/>
      <path id="SimHei-31574" d="m22.656 81.25q3.9062-1.9531 8.5938-3.5156-3.9062-3.5156-6.25-6.6406h10.547q5.4688 0 12.891 0.39062v-7.0312q-7.4219 0.39062-14.062 0.39062 1.1719-4.2969 2.7344-9.7656-3.5156-0.78125-7.0312-2.3438-1.1719 5.4688-2.7344 12.109h-6.6406q-4.2969-5.0781-10.156-10.547-2.3438 2.3438-6.25 4.6875 5.8594 4.2969 10.734 10.547 4.8906 6.25 7.625 11.719zm39.062 0.39062q3.5156-2.3438 8.9844-3.9062-3.5156-3.125-5.8594-6.6406h14.844q6.6406 0 13.672 0.39062v-7.0312q-7.0312 0.39062-18.359 0.39062 1.1719-3.9062 2.7344-9.375-3.9062-0.78125-7.4219-1.9531-0.78125 6.6406-2.3438 11.328h-7.0312q-2.7344-4.2969-6.25-8.9844-3.5156 2.3438-7.0312 3.5156 4.6875 4.6875 8.2031 10.344 3.5156 5.6719 5.8594 11.922zm21.484-51.562q0-6.6406-0.39062-10.156t-3.5156-4.6875-8.9844-1.9531q-0.78125 3.9062-2.7344 7.8125 4.2969-0.39062 6.4375-0.20312 2.1562 0.20312 2.1562 3.3281v4.2969h-23.047v-3.9062q3.125-4.6875 8-8.7969 4.8906-4.0938 10.156-7.0312 5.2812-2.9219 10.75-4.6875 5.4688-1.75 12.5-2.9219-4.2969-3.5156-6.25-8.5938-5.4688 1.9531-10.359 4.2969-4.875 2.3438-9.375 5.0781-4.4844 2.7344-8.3906 6.0469-3.9062 3.3281-7.0312 7.2344v-10.547q0-5.4688 0.39062-14.453h-7.8125q0.39062 8.9844 0.39062 14.453v12.891q-8.5938-10.156-12.891-13.672t-9.1875-6.8281q-4.875-3.3281-10.734-6.4531-1.5625 2.7344-7.0312 6.6406 4.6875 1.5625 9.7656 4.2969t10.547 6.6406 10.344 8.9844q4.8906 5.0781 8.4062 11.328h-21.484v-14.844h-7.8125q0.39062 5.8594 0.39062 11.125 0 5.2812-0.39062 9.9688h30.078v7.4219h-23.438q-6.6406 0-13.672-0.39062v7.0312q7.0312-0.39062 13.281-0.39062h23.828q0 3.9062-0.39062 6.6406h7.8125q-0.39062-3.125-0.39062-6.6406h26.562q5.0781 0 11.719 0.39062v-7.0312q-6.25 0.39062-11.328 0.39062h-26.953v-7.4219h30.469q-0.39062-4.6875-0.39062-11.328z"/>
      <path id="SimHei-36793" d="m35.938 60.938q6.6406-0.39062 17.969-0.39062 0 12.109-0.39062 19.531 5.4688-1.1719 9.375-1.1719-1.1719-5.0781-1.5625-18.359h26.953q-1.1719-6.6406-1.5625-12.891l-1.9531-29.688q-0.39062-6.6406-5.6719-8.4062-5.2656-1.75-10.734-3.3125-0.39062 5.0781-3.9062 10.156 9.375 0.39062 11.328 1.3594 1.9531 0.98438 2.3438 4.5l1.9531 31.25h-19.141q-1.5625-15.625-6.4531-26.172-4.875-10.547-13.469-21.094-3.5156 3.5156-8.5938 5.8594 8.2031 5.8594 14.062 16.594 5.8594 10.75 7.0312 24.812-9.375 0-17.578-0.78125zm-23.047 12.5q3.9062 1.5625 7.8125 2.7344 5.4688-13.672 7.8125-17.578-3.9062-1.1719-8.2031-3.5156-1.1719 3.9062-7.4219 18.359zm-8.2031-28.125q7.4219-0.39062 14.062-0.39062h7.0312q-0.39062-6.6406-0.39062-11.719v-22.656q9.375-8.9844 33.203-9.375t37.109 1.5625q-3.5156-4.6875-3.5156-10.547-12.5 0-24.422 0.39062-11.906 0.39062-21.875 2.1562-9.9531 1.75-16.984 7.2188t-9.9688 0.78125q-2.9219-4.6875-6.4375-10.547-3.5156 3.5156-7.4219 6.25 9.375 7.8125 12.891 11.719v27.734q-7.0312 0-13.281-0.78125z"/>
      <path id="SimHei-30028" d="m25.391 70.312v-10.547h21.094v10.547zm0-16.797v-10.547h21.094v10.547zm28.516 16.797v-10.547h21.484v10.547zm0-16.797v-10.547h21.484v10.547zm-36.328 23.047h65.625q-0.39062-5.0781-0.39062-15.234v-10.547q0-5.8594 0.39062-14.062h-18.359q7.0312-6.6406 13.281-8.7969 6.25-2.1406 16.406-3.3125-2.7344-4.2969-4.2969-8.5938-7.0312 1.9531-11.719 3.7031-4.6875 1.7656-8.9844 4.5-0.39062-3.5156-0.39062-8.9844v-10.547q0-3.9062 0.39062-12.5h-8.2031q0.39062 8.5938 0.39062 13.672v10.547q0 6.25-0.39062 10.156h5.0781q-5.4688 3.9062-10.156 10.156h-12.5q-3.9062-5.4688-9.375-9.7656 3.5156-0.39062 9.375-1.1719-1.9531-3.125-2.5469-8.4062-0.57812-5.2656-2.5312-9.9531t-6.4531-9.1719q-4.4844-4.5-13.469-8.4062-1.5625 3.9062-5.8594 7.4219 9.375 2.3438 13.672 6.4375 4.2969 4.1094 6.0469 9.1875 1.7656 5.0781 1.7656 14.062-10.547-7.4219-24.219-12.891-1.5625 3.5156-5.0781 7.0312 8.2031 2.3438 16.203 5.8594 8.0156 3.5156 13.484 9.7656h-17.188q0.39062 8.2031 0.39062 14.453v10.156q0 8.2031-0.39062 15.234z"/>
      <path id="SimHei-65306" d="m19.531-2.7344q6.6406 3.9062 6.8281 7.6094 0.20312 3.7188-3.125 5.8594-3.3125 2.1562-7.0312 0.20312-3.7031-1.9531-3.5156-5.8594 0.20312-3.9062 3.5156-5.8594 3.3281-1.9531 9.9688 1.9531zm-0.78125 23.438q8.2031 3.5156 8.2031 7.6094 0 4.1094-3.5156 5.8594-3.5156 1.7656-7.0312 0-3.5156-1.75-3.7188-5.4688-0.1875-3.7031 2.9375-5.8594 3.125-2.1406 11.328 1.375z"/>
      <path id="STIXGeneral-Italic-107" d="m46.094 42.797v-1.5938q-3.5938-0.20312-7.5938-2.9531t-14.906-12.453l3.7031-8.7969q5.5-12.906 8.1094-12.906 2.0938 0 4.5 4.2031 0.5 0.79688 1.5 2.6094l1.5-1.1094q-3.5-6.2969-5.8125-8.5938-2.2969-2.2969-5.2969-2.2969-2.2031 0-3.9531 1.75t-4.1406 6.4375q-3 5.8125-6 14.109l-4-3.2031-4.7969-18h-7.5l14.094 52.797q1.4062 5 1.7969 8.7969-0.29688 2.4062-5.0938 2.4062h-1.7969v1.5938q7.5 0.90625 15.688 2.7031l0.60938-0.59375-12-45.609 4.2969 3.3125q14.297 11 14.297 14 0 1.7969-3.7031 1.7969h-1.3906v1.5938z"/>
      <path id="STIXGeneral-Regular-61" d="m63.703 32h-58.906v6.5938h58.906zm0-20h-58.906v6.5938h58.906z"/>
      <path id="STIXGeneral-Regular-52" d="m47.297 16.703h-10.297v-16.703h-7.7969v16.703h-28v6.3906l31.391 44.5h4.4062v-44.5h10.297zm-18.094 6.3906v34.312l-24-34.312z"/>
     </defs>
     <g transform="translate(35.977 212.04) scale(.14 -.14)">
      <use transform="translate(0 .35938)" xlink:href="#SimHei-30452"/>
      <use transform="translate(100 .35938)" xlink:href="#SimHei-32447"/>
      <use transform="translate(200 .35938)" xlink:href="#SimHei-20915"/>
      <use transform="translate(300 .35938)" xlink:href="#SimHei-31574"/>
      <use transform="translate(400 .35938)" xlink:href="#SimHei-36793"/>
      <use transform="translate(500 .35938)" xlink:href="#SimHei-30028"/>
      <use transform="translate(600 .35938)" xlink:href="#SimHei-65306"/>
      <use transform="translate(700 .35938)" xlink:href="#STIXGeneral-Italic-107"/>
      <use transform="translate(758.84 .35938)" xlink:href="#STIXGeneral-Regular-61"/>
      <use transform="translate(841.78 .35938)" xlink:href="#STIXGeneral-Regular-52"/>
     </g>
    </g>
   </g>
   <g id="LineCollection_1">
    <path d="m0.432 148 194.99-111.34" clip-path="url(#p33b8180e77)" fill="none" stroke="#000" stroke-dasharray="5.55,2.4" stroke-width="1.5"/>
   </g>
   <g id="patch_3">
    <path d="m0.432 196.56v-196.34" fill="none" stroke="#000" stroke-linecap="square" stroke-width=".8"/>
   </g>
   <g id="patch_4">
    <path d="m196.4 196.56v-196.34" fill="none" stroke="#000" stroke-linecap="square" stroke-width=".8"/>
   </g>
   <g id="patch_5">
    <path d="m0.432 196.56h195.97" fill="none" stroke="#000" stroke-linecap="square" stroke-width=".8"/>
   </g>
   <g id="patch_6">
    <path d="m0.432 0.216h195.97" fill="none" stroke="#000" stroke-linecap="square" stroke-width=".8"/>
   </g>
  </g>
  <g id="axes_2">
   <g id="patch_7">
    <path d="m235.6 196.56h195.97v-196.34h-195.97z" fill="#fff"/>
   </g>
   <g id="PathCollection_3">
    <g clip-path="url(#pcc55e21882)" fill="#0000ff" fill-opacity=".8" stroke="#0000ff" stroke-opacity=".8" stroke-width="1.5">
     <use x="391.393964" y="70.89984" xlink:href="#mec7ed85d2e"/>
     <use x="284.589818" y="111.15036" xlink:href="#mec7ed85d2e"/>
    </g>
   </g>
   <g id="PathCollection_4">
    <g clip-path="url(#pcc55e21882)" fill="#ff0000" fill-opacity=".8" stroke="#000000" stroke-opacity=".8">
     <use x="344.360945" y="151.40088" xlink:href="#m7fe76baba8"/>
     <use x="324.763855" y="54.2106" xlink:href="#m7fe76baba8"/>
    </g>
   </g>
   <g id="matplotlib.axis_3">
    <g id="text_2">
     <!-- 二次曲线决策边界：$4 &lt; k \leq 7$ -->
     <defs>
      <path id="SimHei-20108" d="m16.406 66.016q7.0312-0.39062 15.625-0.39062h35.547q8.2031 0.39062 15.234 0.78125v-9.375q-7.0312 0.78125-14.844 0.78125h-35.547q-8.9844 0-16.016-0.39062zm-9.7656-54.297q7.0312-0.39062 16.016-0.39062h55.469q8.9844 0 14.844 0.78125v-8.9844q-6.25 0.39062-14.844 0.39062h-55.078q-9.7656 0-16.406-0.39062z"/>
      <path id="SimHei-27425" d="m8.2031 67.188q3.125 1.9531 7.4219 3.9062 2.3438-3.9062 5.4688-9.375t6.25-10.938q-4.2969-1.9531-7.8125-4.2969-2.3438 4.6875-4.8906 10.156-2.5312 5.4688-6.4375 10.547zm14.844-32.422q2.7344-2.3438 7.4219-4.6875-2.3438-3.5156-6.8438-12.109-4.4844-8.5938-9.5625-18.75-3.5156 2.7344-7.8125 5.4688 5.8594 6.25 9.9531 14.641 4.1094 8.4062 6.8438 15.438zm23.828 44.531q4.2969-1.5625 10.156-3.9062-2.3438-1.5625-4.1094-5.8594-1.75-4.2969-3.7031-8.5938h41.406q-1.1719-3.125-3.125-8.7969-1.9531-5.6562-4.2969-13.859-4.2969 1.1719-8.5938 1.9531 1.5625 3.5156 2.7344 7.0312t2.3438 7.4219h-33.203q-1.9531-3.125-4.1094-7.8125-2.1406-4.6875-4.875-9.375-2.7344 2.3438-7.0312 3.9062 2.7344 3.5156 5.2656 8.2031 2.5469 4.6875 4.6875 9.7656 2.1562 5.0781 3.7188 10.156t2.7344 9.7656zm7.8125-31.641q4.6875-0.39062 9.375-1.1719-1.1719-3.9062-1.375-11.328-0.1875-7.4219 3.125-13.672 3.3281-6.25 8.0156-10.547t10.156-6.8438q5.4688-2.5312 9.7656-3.7031-2.3438-1.5625-3.5156-3.7031-1.1719-2.1562-2.3438-5.2812-8.5938 4.6875-13.672 8.7812-5.0781 4.1094-8.0156 8.0156-2.9219 3.9062-4.4844 7.6094-1.5625 3.7188-2.7344 7.2344-1.9531-5.8594-4.1094-10.359-2.1406-4.4844-5.4688-8-3.3125-3.5156-7.6094-6.8281-4.2969-3.3281-10.156-7.2344-2.7344 4.2969-6.6406 7.0312 9.7656 3.5156 15.625 8.7812 5.8594 5.2812 8.9844 10.75t4.0938 10.734q0.98438 5.2812 1.1719 8.9844 0.20312 3.7188-0.1875 10.75z"/>
      <path id="SimHei-26354" d="m85.938 59.766q-0.39062-5.8594-0.39062-17.969v-35.547q0-10.938 0.78125-16.406h-7.8125v7.8125h-56.641v-7.8125h-7.4219q0.39062 10.547 0.39062 17.188v35.156q0 10.156-0.39062 17.578h21.484v8.5938q-0.39062 6.6406-0.78125 11.328h7.8125q-0.39062-5.4688-0.39062-10.938v-8.9844h14.453v9.7656q0 5.0781-0.39062 10.547h7.8125q-0.78125-4.6875-0.78125-10.156v-10.156zm-64.062-5.8594v-19.922h14.062v19.922zm0-25.781v-24.609h14.062v24.609zm20.703 25.781v-19.922h14.453v19.922zm0-25.781v-24.609h14.453v24.609zm21.094 25.781v-19.922h14.844v19.922zm0-25.781v-24.609h14.844v24.609z"/>
      <path id="STIXGeneral-Regular-60" d="m62.094-2.4062-56.5 27.312v1l56.5 27.5v-6.5l-43.188-21.5 43.188-21.5z"/>
      <path id="STIXGeneral-Regular-8804" d="m62.906 5.0938-56.5 27.312v1l56.5 27.5v-6.5l-43.203-21.5 43.203-21.5zm0-15.391h-56.5v6.5938h56.5z"/>
      <path id="STIXGeneral-Regular-55" d="m44.906 64.594-21.203-65.391h-6.5l19.797 59.594h-21.5q-4.2969 0-6.4062-1.5-2.0938-1.5-5.2969-6.7031l-1.7969 0.90625 6 14.703h36.906z"/>
     </defs>
     <g transform="translate(246.78 212.04) scale(.14 -.14)">
      <use transform="translate(0 .35938)" xlink:href="#SimHei-20108"/>
      <use transform="translate(100 .35938)" xlink:href="#SimHei-27425"/>
      <use transform="translate(200 .35938)" xlink:href="#SimHei-26354"/>
      <use transform="translate(300 .35938)" xlink:href="#SimHei-32447"/>
      <use transform="translate(400 .35938)" xlink:href="#SimHei-20915"/>
      <use transform="translate(500 .35938)" xlink:href="#SimHei-31574"/>
      <use transform="translate(600 .35938)" xlink:href="#SimHei-36793"/>
      <use transform="translate(700 .35938)" xlink:href="#SimHei-30028"/>
      <use transform="translate(800 .35938)" xlink:href="#SimHei-65306"/>
      <use transform="translate(900 .35938)" xlink:href="#STIXGeneral-Regular-52"/>
      <use transform="translate(964.44 .35938)" xlink:href="#STIXGeneral-Regular-60"/>
      <use transform="translate(1047.4 .35938)" xlink:href="#STIXGeneral-Italic-107"/>
      <use transform="translate(1106.2 .35938)" xlink:href="#STIXGeneral-Regular-8804"/>
      <use transform="translate(1189.2 .35938)" xlink:href="#STIXGeneral-Regular-55"/>
     </g>
    </g>
   </g>
   <g id="LineCollection_2">
    <path d="m282.63 122.04-2.9396-0.3789-2.9396-0.63739-1.9597-0.6602-0.97986-0.41113-1.9597-1.1624-0.97985-0.82709-0.97986-1.2354-0.37776-0.67033-0.35762-0.98172-0.1819-0.98172-0.030512-0.98172 0.10083-0.98172 0.53178-1.9634 0.90397-1.9634 1.3709-2.1706 1.3441-1.7563 1.7421-1.9634 2.7929-2.7192 1.9597-1.7092 3.0456-2.4436 4.0759-2.9452 4.6368-3.0343 4.8993-2.9312 5.8791-3.2172 5.8791-2.9553 5.8791-2.7296 6.859-2.9251 7.8388-3.0309 6.859-2.3937 5.8791-1.8634 5.8791-1.6877 6.859-1.737 6.859-1.4545 5.8791-1.0055 4.8993-0.63946 4.8993-0.41698 3.9194-0.14562 3.9194 0.073094 2.9396 0.23877 2.9407 0.44039 2.9384 0.76501 1.9597 0.77551 0.97985 0.49907 1.3365 0.90557 1.0263 0.98172 0.71264 0.98172 0.46541 0.98172 0.27402 0.98172 0.10451 1.1388-0.026716 0.82464-0.41909 1.9634-0.80867 1.9634-1.1391 1.9634-1.5258 2.0876-1.9597 2.242-1.9597 1.9674-1.9597 1.7848-3.3007 2.7172-4.5381 3.3143-3.9194 2.6032-5.8791 3.5409-4.1777 2.3223-6.6007 3.3753-5.8791 2.7632-6.859 2.9612-6.859 2.7084-8.2086 2.9177-7.469 2.3552-6.859 1.9136-6.859 1.6608-6.859 1.3688-5.8791 0.92064-5.5646 0.61635-4.234 0.25482-3.9194 0.040185-3.9194-0.20246" clip-path="url(#pcc55e21882)" fill="none" stroke="#000" stroke-dasharray="5.55,2.4" stroke-width="1.5"/>
   </g>
   <g id="patch_8">
    <path d="m235.6 196.56v-196.34" fill="none" stroke="#000" stroke-linecap="square" stroke-width=".8"/>
   </g>
   <g id="patch_9">
    <path d="m431.57 196.56v-196.34" fill="none" stroke="#000" stroke-linecap="square" stroke-width=".8"/>
   </g>
   <g id="patch_10">
    <path d="m235.6 196.56h195.97" fill="none" stroke="#000" stroke-linecap="square" stroke-width=".8"/>
   </g>
   <g id="patch_11">
    <path d="m235.6 0.216h195.97" fill="none" stroke="#000" stroke-linecap="square" stroke-width=".8"/>
   </g>
  </g>
 </g>
 <defs>
  <clipPath id="p33b8180e77">
   <rect x=".432" y=".216" width="195.97" height="196.34"/>
  </clipPath>
  <clipPath id="pcc55e21882">
   <rect x="235.6" y=".216" width="195.97" height="196.34"/>
  </clipPath>
 </defs>
</svg>
