<svg version="1.1" xmlns="http://www.w3.org/2000/svg" xmlns:xlink="http://www.w3.org/1999/xlink" width="527" height="356"><defs><clipPath id="ZPTZyEFNRfrJ"><path fill="none" stroke="none" d=" M 0 0 L 527 0 L 527 356 L 0 356 L 0 0 Z"/></clipPath></defs><g transform="scale(1,1)" clip-path="url(#ZPTZyEFNRfrJ)"><g><path fill="none" stroke="rgb(0,0,0)" paint-order="fill stroke markers" d=" M 10.5 2.5 L 10.5 356.5" stroke-opacity="1" stroke-miterlimit="10"/><path fill="none" stroke="rgb(0,0,0)" paint-order="fill stroke markers" d=" M 10.5 1.5 L 3.5 8.5" stroke-opacity="1" stroke-miterlimit="10"/><path fill="none" stroke="rgb(0,0,0)" paint-order="fill stroke markers" d=" M 10.5 1.5 L 17.5 8.5" stroke-opacity="1" stroke-miterlimit="10"/><path fill="none" stroke="rgb(0,0,0)" paint-order="fill stroke markers" d=" M 0.5 301.5 L 525.5 301.5" stroke-opacity="1" stroke-miterlimit="10"/><path fill="none" stroke="rgb(0,0,0)" paint-order="fill stroke markers" d=" M 526.5 301.5 L 519.5 294.5" stroke-opacity="1" stroke-miterlimit="10"/><path fill="none" stroke="rgb(0,0,0)" paint-order="fill stroke markers" d=" M 526.5 301.5 L 519.5 308.5" stroke-opacity="1" stroke-miterlimit="10"/><path fill="none" stroke="rgb(0,0,0)" paint-order="fill stroke markers" d=" M 49.5 301.5 L 49.5 304.5" stroke-opacity="1" stroke-miterlimit="10"/><path fill="none" stroke="rgb(0,0,0)" paint-order="fill stroke markers" d=" M 99.5 301.5 L 99.5 304.5" stroke-opacity="1" stroke-miterlimit="10"/><path fill="none" stroke="rgb(0,0,0)" paint-order="fill stroke markers" d=" M 149.5 301.5 L 149.5 304.5" stroke-opacity="1" stroke-miterlimit="10"/><path fill="none" stroke="rgb(0,0,0)" paint-order="fill stroke markers" d=" M 199.5 301.5 L 199.5 304.5" stroke-opacity="1" stroke-miterlimit="10"/><path fill="none" stroke="rgb(0,0,0)" paint-order="fill stroke markers" d=" M 249.5 301.5 L 249.5 304.5" stroke-opacity="1" stroke-miterlimit="10"/><path fill="none" stroke="rgb(0,0,0)" paint-order="fill stroke markers" d=" M 299.5 301.5 L 299.5 304.5" stroke-opacity="1" stroke-miterlimit="10"/><path fill="none" stroke="rgb(0,0,0)" paint-order="fill stroke markers" d=" M 349.5 301.5 L 349.5 304.5" stroke-opacity="1" stroke-miterlimit="10"/><path fill="none" stroke="rgb(0,0,0)" paint-order="fill stroke markers" d=" M 399.5 301.5 L 399.5 304.5" stroke-opacity="1" stroke-miterlimit="10"/><path fill="none" stroke="rgb(0,0,0)" paint-order="fill stroke markers" d=" M 449.5 301.5 L 449.5 304.5" stroke-opacity="1" stroke-miterlimit="10"/><path fill="none" stroke="rgb(0,0,0)" paint-order="fill stroke markers" d=" M 499.5 301.5 L 499.5 304.5" stroke-opacity="1" stroke-miterlimit="10"/><path fill="none" stroke="rgb(0,0,0)" paint-order="fill stroke markers" d=" M 7.5 351.5 L 10.5 351.5" stroke-opacity="1" stroke-miterlimit="10"/><path fill="none" stroke="rgb(0,0,0)" paint-order="fill stroke markers" d=" M 7.5 251.5 L 10.5 251.5" stroke-opacity="1" stroke-miterlimit="10"/><path fill="none" stroke="rgb(0,0,0)" paint-order="fill stroke markers" d=" M 7.5 201.5 L 10.5 201.5" stroke-opacity="1" stroke-miterlimit="10"/><path fill="none" stroke="rgb(0,0,0)" paint-order="fill stroke markers" d=" M 7.5 151.5 L 10.5 151.5" stroke-opacity="1" stroke-miterlimit="10"/><path fill="none" stroke="rgb(0,0,0)" paint-order="fill stroke markers" d=" M 7.5 101.5 L 10.5 101.5" stroke-opacity="1" stroke-miterlimit="10"/><path fill="none" stroke="rgb(0,0,0)" paint-order="fill stroke markers" d=" M 7.5 51.5 L 10.5 51.5" stroke-opacity="1" stroke-miterlimit="10"/><path fill="none" stroke="rgb(0,153,255)" paint-order="fill stroke markers" d=" M 0 298.3532639060729 L 4.1171875 298.1684352346017 L 8.234375 297.9727503499693 L 12.3515625 297.76557159480757 L 16.46874999999997 297.5462238579039 L 20.5859375 297.3139923742887 L 24.70312499999997 297.06812039610736 L 28.8203125 296.807806726687 L 32.93749999999997 296.5322031097627 L 37.0546875 296.24041146535586 L 41.171875 295.9314809632971 L 45.2890625 295.6044049248577 L 49.40625 295.25811754239385 L 53.52343749999997 294.891490406313 L 57.640625 294.50332882804685 L 61.7578125 294.0923679470475 L 65.875 293.65726860912173 L 69.99218749999997 293.19661300267325 L 74.10937499999999 292.70890003863127 L 78.2265625 292.1925404590129 L 82.34374999999999 291.6458516581781 L 86.4609375 291.0670521999033 L 90.57812499999999 290.4542560124055 L 94.69531249999999 289.8054662424029 L 98.8125 289.1185687481824 L 102.92968749999999 288.39132521047304 L 107.046875 287.6213658386744 L 111.16406249999999 286.8061816486742 L 115.28125 285.9431162870903 L 119.39843749999999 285.0293573752965 L 123.515625 284.0619273450262 L 127.63281249999999 283.0376737356889 L 131.75 281.95325892178516 M 131.75 281.95325892178516 L 135.8671875 280.80514923694375 L 139.984375 279.58960345914176 L 144.1015625 278.3026606195852 L 148.21875 276.94012709552425 L 152.3359375 275.4975629449442 L 156.453125 273.9702674386022 L 160.5703125 272.35326374226423 L 164.6875 270.6412826992289 L 168.8046875 268.82874566029074 L 172.921875 266.90974630519406 L 177.0390625 264.87803139633957 L 181.15625 262.72698040202926 L 185.2734375 260.44958392284894 L 189.390625 258.0384208508894 L 193.5078125 255.48563418737712 L 197.625 252.78290543991412 M 197.625 252.78290543991412 L 201.7421875 249.9214275158981 L 205.859375 246.89187602379334 L 209.9765625 243.68437888873493 L 214.09375 240.2884841834562 L 218.2109375 236.69312606971306 L 222.328125 232.8865887392225 L 226.4453125 228.85646823661347 L 230.5625 224.5896320399862 M 230.5625 224.5896320399862 L 234.6796875 220.07217626737048 L 238.796875 215.28938036963467 L 242.9140625 210.22565916220975 L 247.03125 204.86451203931802 M 247.03125 204.86451203931802 L 249.50000049999866 201.49999930685306" stroke-opacity="0.6980392156862745" stroke-linecap="round" stroke-linejoin="round" stroke-miterlimit="10" stroke-width="1.5"/><path fill="none" stroke="rgb(0,153,255)" paint-order="fill stroke markers" d=" M 339.49999949999824 146.31710944560922 L 341.7265625 143.60012560079295 M 341.7265625 143.60012560079295 L 345.84375 138.56492045350603 M 345.84375 138.56492045350603 L 349.9609375 133.5155276972575 L 354.078125 128.45229730383954 L 358.1953125 123.37556150400707 L 362.3125 118.28563612464376 M 362.3125 118.28563612464376 L 366.4296875 113.18282179381012 L 370.546875 108.06740502966986 L 374.6640625 102.93965922701688 L 378.78125 97.79984555321721 L 382.8984375 92.64821376377691 L 387.015625 87.48500294639177 L 391.1328125 82.31044220118682 L 395.25 77.12475126387233 M 395.25 77.12475126387233 L 399.36718750000006 71.92814107771008 L 403.48437500000006 66.72081431946324 L 407.6015625 61.50296588388855 L 411.71875 56.27478333079455 L 415.8359375 51.03644729823097 L 419.95312500000006 45.78813188496994 L 424.07031250000006 40.53000500509455 L 428.1875 35.26222871720256 L 432.3046875 29.984959530468302 L 436.42187500000006 24.69834868957048 L 440.53906250000006 19.40254244028671 L 444.65625 14.097682277376123 L 448.7734375 8.783905176208293 L 452.890625 3.4613438094562525 L 457.00781250000006 -1.869873249957152 L 461.125 -7.209621338579893" stroke-opacity="0.6980392156862745" stroke-linecap="round" stroke-linejoin="round" stroke-miterlimit="10" stroke-width="1.5"/><path fill="none" stroke="rgb(192,192,192)" paint-order="fill stroke markers" d=" M 249.4999994999987 201.50000069314737 L 251.1484375 199.18846920521682 M 251.1484375 199.18846920521682 L 255.265625 193.17903474724696 M 255.265625 193.17903474724696 L 259.3828125 186.81662636518377 L 263.5 180.08051156049316 M 263.5 180.08051156049316 L 267.6171875 172.94874007756027 L 271.734375 165.39807237674296 L 275.8515625 157.4039039061738 L 279.96875 148.94018492554326 L 284.0859375 139.9793356206016 L 288.203125 130.4921562317733 L 290.26171875 125.54160157457974 L 292.3203125 120.44773190402876 L 294.37890625 115.20639835307904 L 296.4375 109.81333194795849 L 298.49609375 104.26414013116025 L 300.5546875 98.55430318378225 L 302.61328125 92.67917054429569 L 304.671875 86.63395702074487 L 306.73046875 80.41373889329216 L 308.7890625 74.01344990393599 L 310.84765625 67.42787713013195 L 312.90625 60.65165673895993 L 314.96484375 53.67926961837671 L 317.0234375 46.50503688199606 L 319.08203125 39.123115243736834 L 321.140625 31.527492258568202 L 323.19921875 23.71198142548036 L 325.2578125 15.670217148687755 L 327.31640625 7.395649552963732 L 329.375 -1.1184608511169927 L 331.43359375 -9.879048656374152" stroke-opacity="0.6980392156862745" stroke-linejoin="round" stroke-miterlimit="10" stroke-width="1.5" stroke-dasharray="9.5,8"/><path fill="none" stroke="rgb(0,0,0)" paint-order="fill stroke markers" d=" M 339.4999999999982 146.31710883596216 L 339.4999999999982 301.50000000000017" stroke-opacity="0.6980392156862745" stroke-linejoin="round" stroke-miterlimit="10" stroke-width="1.5" stroke-dasharray="9.5,8"/><path fill="none" stroke="rgb(0,0,0)" paint-order="fill stroke markers" d=" M 249.49999999999866 201.50000000000023 L 249.49999999999866 301.50000000000017" stroke-opacity="0.6980392156862745" stroke-linejoin="round" stroke-miterlimit="10" stroke-width="1.5" stroke-dasharray="9.5,8"/><path fill="rgb(102,204,255)" stroke="none" paint-order="stroke fill markers" d=" M 343.4999999999982 301.50000000000017 C 343.4999999999982 303.70913899932333 341.70913899932134 305.50000000000017 339.4999999999982 305.50000000000017 C 337.290861000675 305.50000000000017 335.4999999999982 303.70913899932333 335.4999999999982 301.50000000000017 C 335.4999999999982 299.290861000677 337.290861000675 297.50000000000017 339.4999999999982 297.50000000000017 C 341.70913899932134 297.50000000000017 343.4999999999982 299.290861000677 343.4999999999982 301.50000000000017 Z" fill-opacity="1"/><path fill="none" stroke="rgb(0,0,0)" paint-order="fill stroke markers" d=" M 343.4999999999982 301.50000000000017 C 343.4999999999982 303.70913899932333 341.70913899932134 305.50000000000017 339.4999999999982 305.50000000000017 C 337.290861000675 305.50000000000017 335.4999999999982 303.70913899932333 335.4999999999982 301.50000000000017 C 335.4999999999982 299.290861000677 337.290861000675 297.50000000000017 339.4999999999982 297.50000000000017 C 341.70913899932134 297.50000000000017 343.4999999999982 299.290861000677 343.4999999999982 301.50000000000017 Z" stroke-opacity="1" stroke-linecap="round" stroke-linejoin="round" stroke-miterlimit="10"/><g transform="scale(31,31)"><g transform="translate(10.03225806451613,10.887993387096774)"><path fill="rgb(102,204,255)" stroke="none" paint-order="stroke fill markers" d=" M 0.28700000000000003 -0.683 L 0.183 -0.261 Q 0.226 -0.278 0.294 -0.354 Q 0.373 -0.442 0.44 -0.442 Q 0.488 -0.442 0.504 -0.402 Q 0.508 -0.391 0.508 -0.379 Q 0.508 -0.338 0.47400000000000003 -0.322 Q 0.463 -0.318 0.453 -0.318 Q 0.422 -0.318 0.41600000000000004 -0.34500000000000003 Q 0.41500000000000004 -0.34900000000000003 0.41500000000000004 -0.353 Q 0.41500000000000004 -0.381 0.44 -0.397 L 0.441 -0.398 L 0.441 -0.398 Q 0.454 -0.406 0.47200000000000003 -0.40700000000000003 L 0.468 -0.41100000000000003 Q 0.46 -0.417 0.447 -0.419 Q 0.445 -0.42 0.438 -0.42 Q 0.385 -0.42 0.309 -0.339 Q 0.305 -0.335 0.301 -0.33 L 0.295 -0.324 Q 0.243 -0.27 0.209 -0.25 Q 0.357 -0.231 0.357 -0.145 Q 0.357 -0.131 0.353 -0.114 Q 0.34500000000000003 -0.082 0.34500000000000003 -0.058 Q 0.34500000000000003 -0.011 0.377 -0.011 Q 0.423 -0.011 0.451 -0.094 Q 0.458 -0.111 0.464 -0.135 Q 0.47200000000000003 -0.152 0.47800000000000004 -0.153 Q 0.49 -0.153 0.49 -0.14300000000000002 Q 0.49 -0.127 0.47100000000000003 -0.078 Q 0.463 -0.058 0.454 -0.042 Q 0.422 0.011 0.375 0.011 Q 0.32 0.011 0.295 -0.037 Q 0.28300000000000003 -0.06 0.28300000000000003 -0.088 Q 0.28300000000000003 -0.099 0.28700000000000003 -0.123 Q 0.29 -0.133 0.29 -0.14400000000000002 Q 0.29 -0.20700000000000002 0.2 -0.225 Q 0.187 -0.228 0.17400000000000002 -0.229 Q 0.124 -0.021 0.11800000000000001 -0.01 Q 0.108 0.009000000000000001 0.084 0.011 Q 0.06 0.011 0.056 -0.01 Q 0.055 -0.014 0.055 -0.017 Q 0.055 -0.025 0.059000000000000004 -0.039 L 0.20400000000000001 -0.615 L 0.20700000000000002 -0.635 Q 0.20700000000000002 -0.646 0.193 -0.649 L 0.193 -0.649 Q 0.181 -0.652 0.157 -0.652 Q 0.135 -0.652 0.133 -0.664 Q 0.133 -0.681 0.152 -0.684 L 0.274 -0.6940000000000001 Q 0.28700000000000003 -0.6940000000000001 0.28700000000000003 -0.683 Z"/></g><g transform="translate(10.862121675627241,10.887993387096774)"><path fill="rgb(102,204,255)" stroke="none" paint-order="stroke fill markers" d=" M 0.687 -0.327 L 0.09 -0.327 Q 0.058 -0.327 0.056 -0.34700000000000003 Q 0.056 -0.367 0.089 -0.367 L 0.6880000000000001 -0.367 Q 0.72 -0.367 0.721 -0.34700000000000003 Q 0.721 -0.327 0.687 -0.327 M 0.6880000000000001 -0.133 L 0.089 -0.133 Q 0.057 -0.133 0.056 -0.153 Q 0.056 -0.17300000000000001 0.09 -0.17300000000000001 L 0.687 -0.17300000000000001 Q 0.719 -0.17300000000000001 0.721 -0.153 Q 0.721 -0.133 0.6880000000000001 -0.133 Z"/></g><g transform="translate(11.917681286738352,10.887993387096774)"><path fill="rgb(102,204,255)" stroke="none" paint-order="stroke fill markers" d=" M 0.028 -0.165 L 0.028 -0.196 L 0.335 -0.665 Q 0.343 -0.677 0.355 -0.677 Q 0.369 -0.677 0.371 -0.666 L 0.371 -0.651 L 0.371 -0.196 L 0.47100000000000003 -0.196 L 0.47100000000000003 -0.165 L 0.371 -0.165 L 0.371 -0.078 Q 0.371 -0.047 0.383 -0.04 Q 0.397 -0.031 0.447 -0.031 L 0.468 -0.031 L 0.468 0 Q 0.427 -0.003 0.332 -0.003 Q 0.23800000000000002 -0.003 0.197 0 L 0.197 -0.031 L 0.218 -0.031 Q 0.28 -0.031 0.29 -0.048 Q 0.294 -0.055 0.294 -0.078 L 0.294 -0.165 L 0.028 -0.165 M 0.3 -0.196 L 0.3 -0.5690000000000001 L 0.056 -0.196 L 0.3 -0.196 Z"/></g></g><path fill="rgb(102,204,255)" stroke="none" paint-order="stroke fill markers" d=" M 343.4999999999982 146.31710883596216 C 343.4999999999982 148.52624783528535 341.70913899932134 150.31710883596216 339.4999999999982 150.31710883596216 C 337.290861000675 150.31710883596216 335.4999999999982 148.52624783528535 335.4999999999982 146.31710883596216 C 335.4999999999982 144.10796983663897 337.290861000675 142.31710883596216 339.4999999999982 142.31710883596216 C 341.70913899932134 142.31710883596216 343.4999999999982 144.10796983663897 343.4999999999982 146.31710883596216 Z" fill-opacity="1"/><path fill="none" stroke="rgb(0,0,0)" paint-order="fill stroke markers" d=" M 343.4999999999982 146.31710883596216 C 343.4999999999982 148.52624783528535 341.70913899932134 150.31710883596216 339.4999999999982 150.31710883596216 C 337.290861000675 150.31710883596216 335.4999999999982 148.52624783528535 335.4999999999982 146.31710883596216 C 335.4999999999982 144.10796983663897 337.290861000675 142.31710883596216 339.4999999999982 142.31710883596216 C 341.70913899932134 142.31710883596216 343.4999999999982 144.10796983663897 343.4999999999982 146.31710883596216 Z" stroke-opacity="1" stroke-linecap="round" stroke-linejoin="round" stroke-miterlimit="10"/><path fill="rgb(255,0,0)" stroke="none" paint-order="stroke fill markers" d=" M 253.49999999999866 301.50000000000017 C 253.49999999999866 303.70913899932333 251.70913899932185 305.50000000000017 249.49999999999866 305.50000000000017 C 247.29086100067548 305.50000000000017 245.49999999999866 303.70913899932333 245.49999999999866 301.50000000000017 C 245.49999999999866 299.290861000677 247.29086100067548 297.50000000000017 249.49999999999866 297.50000000000017 C 251.70913899932185 297.50000000000017 253.49999999999866 299.290861000677 253.49999999999866 301.50000000000017 Z" fill-opacity="1"/><path fill="none" stroke="rgb(0,0,0)" paint-order="fill stroke markers" d=" M 253.49999999999866 301.50000000000017 C 253.49999999999866 303.70913899932333 251.70913899932185 305.50000000000017 249.49999999999866 305.50000000000017 C 247.29086100067548 305.50000000000017 245.49999999999866 303.70913899932333 245.49999999999866 301.50000000000017 C 245.49999999999866 299.290861000677 247.29086100067548 297.50000000000017 249.49999999999866 297.50000000000017 C 251.70913899932185 297.50000000000017 253.49999999999866 299.290861000677 253.49999999999866 301.50000000000017 Z" stroke-opacity="1" stroke-linecap="round" stroke-linejoin="round" stroke-miterlimit="10"/><g transform="scale(31,31)"><g transform="translate(6.387096774193548,10.823477258064516)"><path fill="rgb(255,0,0)" stroke="none" paint-order="stroke fill markers" d=" M 0.516 -0.683 L 0.372 -0.105 Q 0.366 -0.08 0.366 -0.057 Q 0.366 -0.011 0.396 -0.011 Q 0.434 -0.011 0.46 -0.091 Q 0.465 -0.108 0.47200000000000003 -0.135 Q 0.48 -0.152 0.486 -0.153 Q 0.498 -0.153 0.498 -0.14300000000000002 Q 0.498 -0.128 0.48 -0.073 Q 0.47400000000000003 -0.056 0.468 -0.044 Q 0.44 0.011 0.394 0.011 Q 0.338 0.011 0.313 -0.037 Q 0.306 -0.049 0.303 -0.064 Q 0.24 0.011 0.17300000000000001 0.011 Q 0.098 0.011 0.062 -0.057 Q 0.04 -0.097 0.04 -0.149 Q 0.04 -0.257 0.115 -0.34900000000000003 Q 0.185 -0.433 0.267 -0.441 Q 0.274 -0.442 0.281 -0.442 Q 0.342 -0.442 0.373 -0.378 L 0.433 -0.615 L 0.436 -0.635 Q 0.436 -0.646 0.422 -0.649 Q 0.41000000000000003 -0.652 0.386 -0.652 Q 0.364 -0.652 0.362 -0.664 Q 0.362 -0.681 0.376 -0.683 Q 0.47000000000000003 -0.6940000000000001 0.503 -0.6940000000000001 Q 0.516 -0.6940000000000001 0.516 -0.683 M 0.308 -0.11900000000000001 L 0.308 -0.11900000000000001 L 0.358 -0.315 Q 0.361 -0.33 0.361 -0.332 Q 0.361 -0.353 0.343 -0.383 Q 0.321 -0.42 0.28200000000000003 -0.42 Q 0.23 -0.42 0.183 -0.352 Q 0.17400000000000002 -0.339 0.166 -0.324 Q 0.137 -0.266 0.117 -0.159 Q 0.111 -0.125 0.111 -0.105 Q 0.111 -0.037 0.149 -0.017 Q 0.16 -0.011 0.17500000000000002 -0.011 Q 0.231 -0.011 0.28800000000000003 -0.082 Q 0.302 -0.098 0.307 -0.115 L 0.307 -0.116 Q 0.308 -0.11800000000000001 0.308 -0.11900000000000001 Z"/></g><g transform="translate(6.907584774193548,10.973477258064516) scale(0.7,0.7)"><path fill="rgb(255,0,0)" stroke="none" paint-order="stroke fill markers" d=" M 0.468 -0.372 Q 0.468 -0.317 0.438 -0.218 Q 0.38 -0.024 0.277 0.006 Q 0.261 0.011 0.243 0.011 Q 0.152 0.011 0.122 -0.052000000000000005 Q 0.109 -0.078 0.109 -0.113 Q 0.109 -0.165 0.155 -0.289 L 0.166 -0.318 Q 0.183 -0.362 0.183 -0.388 Q 0.183 -0.42 0.158 -0.42 Q 0.10400000000000001 -0.42 0.069 -0.331 Q 0.062 -0.315 0.057 -0.296 Q 0.046 -0.279 0.041 -0.278 Q 0.029 -0.278 0.029 -0.28800000000000003 Q 0.029 -0.306 0.051000000000000004 -0.35100000000000003 Q 0.094 -0.442 0.161 -0.442 Q 0.214 -0.442 0.23500000000000001 -0.397 Q 0.243 -0.38 0.243 -0.36 Q 0.243 -0.339 0.231 -0.31 Q 0.177 -0.166 0.17300000000000001 -0.111 L 0.17300000000000001 -0.098 Q 0.17300000000000001 -0.018000000000000002 0.23700000000000002 -0.011 L 0.247 -0.011 Q 0.328 -0.011 0.387 -0.147 Q 0.422 -0.227 0.425 -0.28200000000000003 Q 0.425 -0.332 0.391 -0.364 Q 0.375 -0.38 0.375 -0.394 Q 0.375 -0.419 0.401 -0.435 Q 0.41200000000000003 -0.442 0.424 -0.442 Q 0.453 -0.442 0.464 -0.405 Q 0.468 -0.391 0.468 -0.372 Z"/></g><g transform="translate(7.272006874193548,10.973477258064516) scale(0.7,0.7)"><path fill="rgb(255,0,0)" stroke="none" paint-order="stroke fill markers" d=" M 0.396 -0.38 L 0.396 -0.38 Q 0.368 -0.41600000000000004 0.31 -0.42 Q 0.245 -0.42 0.192 -0.354 Q 0.179 -0.338 0.169 -0.32 Q 0.129 -0.247 0.117 -0.148 Q 0.115 -0.132 0.115 -0.12 Q 0.115 -0.038 0.171 -0.017 Q 0.185 -0.011 0.20500000000000002 -0.011 Q 0.295 -0.011 0.367 -0.07100000000000001 Q 0.388 -0.088 0.405 -0.11 Q 0.41200000000000003 -0.12 0.418 -0.12 Q 0.427 -0.12 0.43 -0.107 Q 0.43 -0.096 0.396 -0.064 Q 0.313 0.011 0.203 0.011 Q 0.108 0.011 0.065 -0.065 Q 0.041 -0.106 0.041 -0.158 Q 0.041 -0.26 0.11900000000000001 -0.34700000000000003 Q 0.196 -0.433 0.291 -0.441 Q 0.3 -0.442 0.309 -0.442 Q 0.386 -0.442 0.41600000000000004 -0.395 Q 0.427 -0.377 0.427 -0.356 Q 0.427 -0.312 0.392 -0.296 Q 0.382 -0.292 0.371 -0.292 Q 0.341 -0.292 0.335 -0.318 Q 0.334 -0.322 0.334 -0.327 Q 0.334 -0.34900000000000003 0.352 -0.366 Q 0.366 -0.38 0.396 -0.38 Z"/></g><g transform="translate(7.85271468530466,10.823477258064516)"><path fill="rgb(255,0,0)" stroke="none" paint-order="stroke fill markers" d=" M 0.687 -0.327 L 0.09 -0.327 Q 0.058 -0.327 0.056 -0.34700000000000003 Q 0.056 -0.367 0.089 -0.367 L 0.6880000000000001 -0.367 Q 0.72 -0.367 0.721 -0.34700000000000003 Q 0.721 -0.327 0.687 -0.327 M 0.6880000000000001 -0.133 L 0.089 -0.133 Q 0.057 -0.133 0.056 -0.153 Q 0.056 -0.17300000000000001 0.09 -0.17300000000000001 L 0.687 -0.17300000000000001 Q 0.719 -0.17300000000000001 0.721 -0.153 Q 0.721 -0.133 0.6880000000000001 -0.133 Z"/></g><g transform="translate(8.90827429641577,10.823477258064516)"><path fill="rgb(255,0,0)" stroke="none" paint-order="stroke fill markers" d=" M 0.29 -0.352 L 0.29 -0.352 Q 0.39 -0.332 0.434 -0.254 Q 0.457 -0.215 0.457 -0.171 Q 0.457 -0.08600000000000001 0.387 -0.028 Q 0.326 0.022 0.244 0.022 Q 0.145 0.022 0.085 -0.037 Q 0.042 -0.079 0.042 -0.135 Q 0.042 -0.182 0.084 -0.191 Q 0.091 -0.193 0.098 -0.193 Q 0.136 -0.193 0.149 -0.161 Q 0.153 -0.148 0.154 -0.137 Q 0.154 -0.097 0.11800000000000001 -0.085 Q 0.10400000000000001 -0.08 0.088 -0.082 Q 0.125 -0.02 0.216 -0.008 Q 0.229 -0.006 0.241 -0.006 Q 0.305 -0.006 0.335 -0.069 Q 0.354 -0.109 0.354 -0.171 Q 0.354 -0.304 0.274 -0.331 Q 0.256 -0.337 0.23500000000000001 -0.337 L 0.191 -0.337 Q 0.169 -0.337 0.167 -0.34800000000000003 Q 0.167 -0.358 0.182 -0.36 Q 0.197 -0.36 0.221 -0.363 Q 0.272 -0.365 0.301 -0.402 L 0.301 -0.403 L 0.302 -0.404 L 0.303 -0.405 L 0.304 -0.405 L 0.31 -0.41500000000000004 Q 0.338 -0.462 0.338 -0.529 Q 0.338 -0.622 0.266 -0.638 Q 0.254 -0.641 0.242 -0.641 Q 0.17200000000000001 -0.641 0.128 -0.601 Q 0.117 -0.591 0.109 -0.579 Q 0.171 -0.579 0.171 -0.529 Q 0.171 -0.493 0.14 -0.481 Q 0.131 -0.47800000000000004 0.12 -0.47800000000000004 Q 0.081 -0.47800000000000004 0.07100000000000001 -0.513 L 0.07100000000000001 -0.513 L 0.07100000000000001 -0.514 Q 0.069 -0.522 0.069 -0.53 Q 0.069 -0.597 0.135 -0.637 Q 0.183 -0.666 0.246 -0.666 Q 0.337 -0.666 0.393 -0.612 L 0.395 -0.61 Q 0.43 -0.5740000000000001 0.43 -0.528 Q 0.43 -0.445 0.359 -0.389 Q 0.328 -0.365 0.29 -0.352 Z"/></g></g><path fill="rgb(255,0,0)" stroke="none" paint-order="stroke fill markers" d=" M 253.49999999999866 201.50000000000023 C 253.49999999999866 203.7091389993234 251.70913899932185 205.50000000000023 249.49999999999866 205.50000000000023 C 247.29086100067548 205.50000000000023 245.49999999999866 203.7091389993234 245.49999999999866 201.50000000000023 C 245.49999999999866 199.29086100067704 247.29086100067548 197.50000000000023 249.49999999999866 197.50000000000023 C 251.70913899932185 197.50000000000023 253.49999999999866 199.29086100067704 253.49999999999866 201.50000000000023 Z" fill-opacity="1"/><path fill="none" stroke="rgb(0,0,0)" paint-order="fill stroke markers" d=" M 253.49999999999866 201.50000000000023 C 253.49999999999866 203.7091389993234 251.70913899932185 205.50000000000023 249.49999999999866 205.50000000000023 C 247.29086100067548 205.50000000000023 245.49999999999866 203.7091389993234 245.49999999999866 201.50000000000023 C 245.49999999999866 199.29086100067704 247.29086100067548 197.50000000000023 249.49999999999866 197.50000000000023 C 251.70913899932185 197.50000000000023 253.49999999999866 199.29086100067704 253.49999999999866 201.50000000000023 Z" stroke-opacity="1" stroke-linecap="round" stroke-linejoin="round" stroke-miterlimit="10"/><g transform="scale(31,31)"><g transform="translate(0.6451612903225806,1.4919354838709677)"><path fill="rgb(0,0,0)" stroke="none" paint-order="stroke fill markers" d=" M 0.088 -0.059000000000000004 L 0.088 -0.059000000000000004 L 0.146 -0.29 Q 0.162 -0.354 0.162 -0.374 Q 0.162 -0.42 0.131 -0.42 Q 0.09 -0.42 0.064 -0.325 Q 0.061 -0.314 0.058 -0.301 Q 0.047 -0.279 0.041 -0.278 Q 0.029 -0.278 0.029 -0.28800000000000003 Q 0.029 -0.304 0.048 -0.356 Q 0.054 -0.373 0.06 -0.385 Q 0.084 -0.434 0.12 -0.441 Q 0.127 -0.442 0.134 -0.442 Q 0.188 -0.442 0.214 -0.397 Q 0.224 -0.378 0.226 -0.355 Q 0.29 -0.442 0.382 -0.442 Q 0.433 -0.442 0.464 -0.41600000000000004 Q 0.492 -0.392 0.496 -0.34500000000000003 Q 0.5640000000000001 -0.442 0.659 -0.442 Q 0.748 -0.442 0.769 -0.373 L 0.769 -0.372 Q 0.774 -0.355 0.774 -0.335 Q 0.774 -0.28200000000000003 0.713 -0.115 Q 0.6950000000000001 -0.07100000000000001 0.6950000000000001 -0.044 Q 0.6950000000000001 -0.011 0.719 -0.011 Q 0.781 -0.011 0.8170000000000001 -0.121 L 0.8210000000000001 -0.135 Q 0.8260000000000001 -0.151 0.8310000000000001 -0.152 L 0.8310000000000001 -0.153 L 0.836 -0.153 Q 0.848 -0.153 0.848 -0.14300000000000002 Q 0.848 -0.126 0.8270000000000001 -0.08 Q 0.784 0.011 0.717 0.011 Q 0.666 0.011 0.644 -0.032 Q 0.635 -0.05 0.635 -0.07100000000000001 Q 0.635 -0.091 0.648 -0.126 Q 0.71 -0.29 0.71 -0.35000000000000003 Q 0.71 -0.42 0.656 -0.42 Q 0.5680000000000001 -0.42 0.51 -0.325 Q 0.494 -0.3 0.491 -0.28700000000000003 Q 0.488 -0.274 0.431 -0.046 Q 0.42 -0.003 0.406 0.006 L 0.405 0.007 L 0.404 0.007 Q 0.397 0.011 0.386 0.011 Q 0.361 0.006 0.357 -0.016 L 0.37 -0.075 L 0.39 -0.151 L 0.418 -0.267 Q 0.433 -0.323 0.433 -0.35000000000000003 Q 0.433 -0.42 0.379 -0.42 Q 0.289 -0.42 0.228 -0.32 Q 0.221 -0.309 0.216 -0.298 L 0.203 -0.248 Q 0.198 -0.225 0.186 -0.181 L 0.164 -0.091 Q 0.147 -0.022 0.145 -0.017 Q 0.136 0.009000000000000001 0.108 0.011 Q 0.083 0.006 0.079 -0.016 Q 0.079 -0.014 0.088 -0.059000000000000004 Z"/></g><g transform="translate(1.5231752903225806,1.6419354838709677) scale(0.7,0.7)"><path fill="rgb(0,0,0)" stroke="none" paint-order="stroke fill markers" d=" M 0.308 -0.34800000000000003 L 0.308 -0.34800000000000003 L 0.27 -0.223 Q 0.23900000000000002 -0.123 0.199 -0.022 Q 0.19 -0.003 0.153 0.015 Q 0.136 0.022 0.126 0.022 Q 0.115 0.022 0.115 0.015 Q 0.115 0.012 0.125 -0.015 Q 0.242 -0.317 0.27 -0.532 Q 0.274 -0.5650000000000001 0.274 -0.584 Q 0.274 -0.615 0.246 -0.625 Q 0.23700000000000002 -0.628 0.226 -0.628 Q 0.151 -0.628 0.123 -0.581 L 0.123 -0.58 Q 0.114 -0.5640000000000001 0.106 -0.54 Q 0.096 -0.51 0.049 -0.493 Q 0.037 -0.489 0.03 -0.489 Q 0.028 -0.489 0.02 -0.492 Q 0.036000000000000004 -0.58 0.134 -0.638 Q 0.211 -0.683 0.292 -0.683 Q 0.356 -0.678 0.359 -0.626 Q 0.359 -0.597 0.34600000000000003 -0.516 Q 0.332 -0.44 0.319 -0.393 Q 0.335 -0.403 0.364 -0.403 L 0.63 -0.403 Q 0.681 -0.544 0.729 -0.627 Q 0.742 -0.65 0.749 -0.656 Q 0.784 -0.683 0.807 -0.683 Q 0.8180000000000001 -0.683 0.8180000000000001 -0.675 Q 0.8180000000000001 -0.671 0.811 -0.661 Q 0.707 -0.461 0.662 -0.272 Q 0.64 -0.177 0.64 -0.10300000000000001 Q 0.64 -0.036000000000000004 0.657 -0.019 L 0.657 -0.019 Q 0.668 -0.008 0.686 -0.008 Q 0.6940000000000001 -0.008 0.711 -0.013000000000000001 Q 0.715 -0.035 0.742 -0.053 Q 0.772 -0.074 0.791 -0.074 Q 0.801 -0.074 0.801 -0.066 Q 0.801 -0.034 0.743 0.005 Q 0.68 0.047 0.62 0.047 Q 0.5660000000000001 0.047 0.558 -0.006 Q 0.555 -0.022 0.555 -0.06 Q 0.555 -0.182 0.614 -0.358 Q 0.598 -0.34800000000000003 0.5690000000000001 -0.34800000000000003 L 0.308 -0.34800000000000003 Z"/></g><g transform="translate(2.1143378903225805,1.4919354838709677)"><path fill="rgb(0,0,0)" stroke="none" paint-order="stroke fill markers" d=" M 0.331 0.24 L 0.331 0.24 Q 0.331 0.25 0.321 0.25 Q 0.309 0.25 0.268 0.209 Q 0.20600000000000002 0.147 0.165 0.062 Q 0.099 -0.074 0.099 -0.25 Q 0.099 -0.419 0.162 -0.555 Q 0.214 -0.666 0.294 -0.733 Q 0.315 -0.75 0.321 -0.75 Q 0.331 -0.75 0.331 -0.74 Q 0.331 -0.735 0.318 -0.723 Q 0.157 -0.559 0.157 -0.25 Q 0.157 0.058 0.314 0.218 Q 0.331 0.23500000000000001 0.331 0.24 Z"/></g><g transform="translate(2.5032278903225804,1.4919354838709677)"><path fill="rgb(0,0,0)" stroke="none" paint-order="stroke fill markers" d=" M 0.756 -0.578 L 0.616 -0.021 Q 0.611 -0.002 0.606 -0.001 L 0.605 0 L 0.6 0 Q 0.59 0 0.584 -0.012 Q 0.583 -0.015 0.581 -0.019 L 0.332 -0.608 L 0.323 -0.626 L 0.191 -0.098 Q 0.187 -0.083 0.187 -0.075 Q 0.187 -0.041 0.23 -0.033 Q 0.24 -0.031 0.253 -0.031 Q 0.273 -0.031 0.273 -0.02 Q 0.273 0 0.255 0 L 0.155 -0.003 L 0.152 -0.003 L 0.053 0 L 0.052000000000000005 0 Q 0.039 0 0.039 -0.011 Q 0.039 -0.031 0.056 -0.031 Q 0.135 -0.034 0.156 -0.081 Q 0.16 -0.091 0.164 -0.106 L 0.298 -0.643 Q 0.298 -0.652 0.23 -0.652 Q 0.20400000000000001 -0.652 0.202 -0.663 Q 0.202 -0.681 0.217 -0.683 L 0.231 -0.683 L 0.365 -0.683 Q 0.386 -0.683 0.391 -0.676 Q 0.393 -0.673 0.397 -0.664 L 0.618 -0.14200000000000002 L 0.73 -0.587 Q 0.733 -0.596 0.733 -0.608 Q 0.733 -0.651 0.665 -0.652 Q 0.647 -0.652 0.647 -0.663 Q 0.647 -0.683 0.665 -0.683 L 0.766 -0.68 L 0.767 -0.68 L 0.867 -0.683 L 0.868 -0.683 Q 0.881 -0.683 0.881 -0.672 Q 0.881 -0.652 0.864 -0.652 Q 0.786 -0.649 0.764 -0.603 L 0.764 -0.603 Q 0.76 -0.593 0.756 -0.578 Z"/></g><g transform="translate(3.4157273903225804,1.4919354838709677)"><path fill="rgb(0,0,0)" stroke="none" paint-order="stroke fill markers" d=" M 0.289 -0.25 L 0.289 -0.25 Q 0.289 -0.081 0.226 0.055 Q 0.17400000000000002 0.166 0.094 0.233 Q 0.073 0.25 0.067 0.25 Q 0.057 0.25 0.057 0.24 Q 0.057 0.23500000000000001 0.07 0.223 Q 0.231 0.059000000000000004 0.231 -0.25 Q 0.231 -0.555 0.081 -0.712 L 0.076 -0.717 Q 0.057 -0.735 0.057 -0.74 Q 0.057 -0.75 0.067 -0.75 Q 0.079 -0.75 0.12 -0.709 Q 0.182 -0.647 0.223 -0.562 Q 0.289 -0.426 0.289 -0.25 Z"/></g></g><g transform="scale(31,31)"><g transform="translate(15,10.844622322580646)"><path fill="rgb(0,0,0)" stroke="none" paint-order="stroke fill markers" d=" M 0.756 -0.578 L 0.616 -0.021 Q 0.611 -0.002 0.606 -0.001 L 0.605 0 L 0.6 0 Q 0.59 0 0.584 -0.012 Q 0.583 -0.015 0.581 -0.019 L 0.332 -0.608 L 0.323 -0.626 L 0.191 -0.098 Q 0.187 -0.083 0.187 -0.075 Q 0.187 -0.041 0.23 -0.033 Q 0.24 -0.031 0.253 -0.031 Q 0.273 -0.031 0.273 -0.02 Q 0.273 0 0.255 0 L 0.155 -0.003 L 0.152 -0.003 L 0.053 0 L 0.052000000000000005 0 Q 0.039 0 0.039 -0.011 Q 0.039 -0.031 0.056 -0.031 Q 0.135 -0.034 0.156 -0.081 Q 0.16 -0.091 0.164 -0.106 L 0.298 -0.643 Q 0.298 -0.652 0.23 -0.652 Q 0.20400000000000001 -0.652 0.202 -0.663 Q 0.202 -0.681 0.217 -0.683 L 0.231 -0.683 L 0.365 -0.683 Q 0.386 -0.683 0.391 -0.676 Q 0.393 -0.673 0.397 -0.664 L 0.618 -0.14200000000000002 L 0.73 -0.587 Q 0.733 -0.596 0.733 -0.608 Q 0.733 -0.651 0.665 -0.652 Q 0.647 -0.652 0.647 -0.663 Q 0.647 -0.683 0.665 -0.683 L 0.766 -0.68 L 0.767 -0.68 L 0.867 -0.683 L 0.868 -0.683 Q 0.881 -0.683 0.881 -0.672 Q 0.881 -0.652 0.864 -0.652 Q 0.786 -0.649 0.764 -0.603 L 0.764 -0.603 Q 0.76 -0.593 0.756 -0.578 Z"/></g></g><g transform="scale(31,31)"><g transform="translate(8.838709677419354,1.4718695612903225)"><path fill="rgb(160,160,160)" stroke="none" paint-order="stroke fill markers" d=" M 0.449 -0.17400000000000002 L 0.449 -0.17400000000000002 L 0.421 0 L 0.05 0 Q 0.05 -0.025 0.056 -0.032 L 0.061 -0.037 L 0.253 -0.251 Q 0.358 -0.369 0.358 -0.47200000000000003 Q 0.358 -0.561 0.304 -0.607 L 0.303 -0.608 L 0.302 -0.608 Q 0.27 -0.635 0.224 -0.635 Q 0.152 -0.635 0.109 -0.5730000000000001 Q 0.097 -0.555 0.089 -0.533 Q 0.092 -0.534 0.10200000000000001 -0.534 Q 0.14200000000000002 -0.534 0.153 -0.498 L 0.153 -0.497 Q 0.155 -0.49 0.155 -0.482 Q 0.155 -0.442 0.117 -0.431 Q 0.109 -0.429 0.10300000000000001 -0.429 Q 0.066 -0.429 0.054 -0.46 Q 0.05 -0.47100000000000003 0.05 -0.485 Q 0.05 -0.562 0.109 -0.617 Q 0.162 -0.666 0.23700000000000002 -0.666 Q 0.34700000000000003 -0.666 0.40800000000000003 -0.592 Q 0.443 -0.549 0.448 -0.49 Q 0.449 -0.481 0.449 -0.47200000000000003 Q 0.449 -0.399 0.394 -0.333 Q 0.365 -0.299 0.304 -0.243 L 0.243 -0.189 L 0.233 -0.18 L 0.127 -0.077 L 0.307 -0.077 Q 0.395 -0.077 0.402 -0.085 Q 0.41200000000000003 -0.099 0.424 -0.17400000000000002 L 0.449 -0.17400000000000002 Z"/></g><g transform="translate(9.338711677419354,1.0589775612903225) scale(0.7,0.7)"><path fill="rgb(160,160,160)" stroke="none" paint-order="stroke fill markers" d=" M 0.756 -0.578 L 0.616 -0.021 Q 0.611 -0.002 0.606 -0.001 L 0.605 0 L 0.6 0 Q 0.59 0 0.584 -0.012 Q 0.583 -0.015 0.581 -0.019 L 0.332 -0.608 L 0.323 -0.626 L 0.191 -0.098 Q 0.187 -0.083 0.187 -0.075 Q 0.187 -0.041 0.23 -0.033 Q 0.24 -0.031 0.253 -0.031 Q 0.273 -0.031 0.273 -0.02 Q 0.273 0 0.255 0 L 0.155 -0.003 L 0.152 -0.003 L 0.053 0 L 0.052000000000000005 0 Q 0.039 0 0.039 -0.011 Q 0.039 -0.031 0.056 -0.031 Q 0.135 -0.034 0.156 -0.081 Q 0.16 -0.091 0.164 -0.106 L 0.298 -0.643 Q 0.298 -0.652 0.23 -0.652 Q 0.20400000000000001 -0.652 0.202 -0.663 Q 0.202 -0.681 0.217 -0.683 L 0.231 -0.683 L 0.365 -0.683 Q 0.386 -0.683 0.391 -0.676 Q 0.393 -0.673 0.397 -0.664 L 0.618 -0.14200000000000002 L 0.73 -0.587 Q 0.733 -0.596 0.733 -0.608 Q 0.733 -0.651 0.665 -0.652 Q 0.647 -0.652 0.647 -0.663 Q 0.647 -0.683 0.665 -0.683 L 0.766 -0.68 L 0.767 -0.68 L 0.867 -0.683 L 0.868 -0.683 Q 0.881 -0.683 0.881 -0.672 Q 0.881 -0.652 0.864 -0.652 Q 0.786 -0.649 0.764 -0.603 L 0.764 -0.603 Q 0.76 -0.593 0.756 -0.578 Z"/></g></g></g></g></svg>