<svg version="1.1" xmlns="http://www.w3.org/2000/svg" xmlns:xlink="http://www.w3.org/1999/xlink" width="1205" height="554"><defs><clipPath id="PBovMFDiWkWp"><path fill="none" stroke="none" d=" M 0 0 L 1205 0 L 1205 554 L 0 554 L 0 0 Z"/></clipPath></defs><g transform="scale(1,1)" clip-path="url(#PBovMFDiWkWp)"><g><path fill="none" stroke="rgb(160,160,160)" paint-order="fill stroke markers" d=" M 308.39999999999986 119.50000000000131 C 330.7529613544096 84.44649242149515 330.63885697197105 39.58380369259315 308.10787481861144 4.6444545562238275" stroke-opacity="0.6980392156862745" stroke-linejoin="round" stroke-miterlimit="10" stroke-width="1.5" stroke-dasharray="9.5,8"/><path fill="none" stroke="rgb(160,160,160)" paint-order="fill stroke markers" d=" M 27.599999999999987 4.450000000001332 C -2.9963909486229596 36.76528931652445 -3.138934761941073 87.31718658209918 27.274728892423056 119.80450912198816" stroke-opacity="0.6980392156862745" stroke-linejoin="round" stroke-miterlimit="10" stroke-width="1.5" stroke-dasharray="9.5,8"/><path fill="none" stroke="rgb(0,0,0)" paint-order="fill stroke markers" d=" M 740.5126252560987 287.20000000000124 C 740.5126252560987 251.27869085081238 685.2141393405093 222.15871620537484 617.0000000000009 222.15871620537484 C 548.7858606594925 222.15871620537484 493.48737474390316 251.27869085081238 493.48737474390316 287.20000000000124 C 493.48737474390316 323.1213091491901 548.7858606594925 352.24128379462763 617.0000000000009 352.24128379462763 C 685.2141393405093 352.24128379462763 740.5126252560987 323.1213091491901 740.5126252560987 287.20000000000124 Z" stroke-opacity="0.6980392156862745" stroke-linecap="round" stroke-linejoin="round" stroke-miterlimit="10" stroke-width="1.5"/><path fill="none" stroke="rgb(0,0,0)" paint-order="fill stroke markers" d=" M 438.7341500458689 482.20000000000124 C 438.7341500458689 444.87351104477244 385.6198318794714 414.61441309638906 320.0999999999999 414.61441309638906 C 254.58016812052838 414.61441309638906 201.46584995413096 444.87351104477244 201.46584995413096 482.20000000000124 C 201.46584995413096 519.5264889552301 254.58016812052838 549.7855869036134 320.0999999999999 549.7855869036134 C 385.6198318794714 549.7855869036134 438.7341500458689 519.5264889552301 438.7341500458689 482.20000000000124 Z" stroke-opacity="0.6980392156862745" stroke-linecap="round" stroke-linejoin="round" stroke-miterlimit="10" stroke-width="1.5"/><path fill="none" stroke="rgb(0,0,0)" paint-order="fill stroke markers" d=" M 417.8034618171279 443.8644113432334 C 493.8545769505473 456.84882343911636 569.6918283113431 419.7622889026379 606.1395538890486 351.7628008845316" stroke-opacity="0.6980392156862745" stroke-linecap="round" stroke-linejoin="round" stroke-miterlimit="10" stroke-width="2.5"/><path fill="none" stroke="rgb(160,160,160)" paint-order="fill stroke markers" d=" M 27.599999999999994 4.450000000001296 L 308.10787481861144 4.64445455622382" stroke-opacity="0.6980392156862745" stroke-linejoin="round" stroke-miterlimit="10" stroke-width="1.5" stroke-dasharray="9.5,8"/><path fill="none" stroke="rgb(160,160,160)" paint-order="fill stroke markers" d=" M 27.599999999999994 119.50000000000128 L 308.3999999999999 119.50000000000128" stroke-opacity="0.6980392156862745" stroke-linejoin="round" stroke-miterlimit="10" stroke-width="1.5" stroke-dasharray="9.5,8"/><path fill="none" stroke="rgb(0,0,0)" paint-order="fill stroke markers" d=" M 27.599999999999994 222.20000000000124 L 27.599999999999994 352.20000000000124" stroke-opacity="0.6980392156862745" stroke-linecap="round" stroke-linejoin="round" stroke-miterlimit="10" stroke-width="1.5"/><path fill="none" stroke="rgb(0,0,0)" paint-order="fill stroke markers" d=" M 27.599999999999994 222.20000000000124 L 316.0000000000003 222.5000000000013" stroke-opacity="0.6980392156862745" stroke-linecap="round" stroke-linejoin="round" stroke-miterlimit="10" stroke-width="1.5"/><path fill="none" stroke="rgb(0,0,0)" paint-order="fill stroke markers" d=" M 316.0000000000003 222.5000000000013 L 316.0000000000003 352.5000000000012" stroke-opacity="0.6980392156862745" stroke-linecap="round" stroke-linejoin="round" stroke-miterlimit="10" stroke-width="1.5"/><path fill="none" stroke="rgb(0,0,0)" paint-order="fill stroke markers" d=" M 27.599999999999994 352.20000000000124 L 316.0000000000003 352.5000000000012" stroke-opacity="0.6980392156862745" stroke-linecap="round" stroke-linejoin="round" stroke-miterlimit="10" stroke-width="1.5"/><path fill="none" stroke="rgb(0,0,0)" paint-order="fill stroke markers" d=" M 903.0000000000009 234.50000000000125 L 903.0000000000009 341.50000000000114" stroke-opacity="0.6980392156862745" stroke-linecap="round" stroke-linejoin="round" stroke-miterlimit="10" stroke-width="1.5"/><path fill="none" stroke="rgb(0,0,0)" paint-order="fill stroke markers" d=" M 903.0000000000009 234.50000000000125 L 1197.000000000001 235.50000000000125" stroke-opacity="0.6980392156862745" stroke-linecap="round" stroke-linejoin="round" stroke-miterlimit="10" stroke-width="1.5"/><path fill="none" stroke="rgb(0,0,0)" paint-order="fill stroke markers" d=" M 1197.000000000001 235.50000000000125 L 1197.000000000001 341.50000000000114" stroke-opacity="0.6980392156862745" stroke-linecap="round" stroke-linejoin="round" stroke-miterlimit="10" stroke-width="1.5"/><path fill="none" stroke="rgb(0,0,0)" paint-order="fill stroke markers" d=" M 903.0000000000009 341.50000000000114 L 1197.000000000001 341.50000000000114" stroke-opacity="0.6980392156862745" stroke-linecap="round" stroke-linejoin="round" stroke-miterlimit="10" stroke-width="1.5"/><path fill="none" stroke="rgb(160,160,160)" paint-order="fill stroke markers" d=" M 158.89999999999998 119.50000000000128 L 157.81517263547371 205.20136179757623" stroke-opacity="0.6980392156862745" stroke-linejoin="round" stroke-miterlimit="10" stroke-width="2.5" stroke-dasharray="10.5,8"/><path fill="rgb(160,160,160)" stroke="none" paint-order="stroke fill markers" fill-rule="evenodd" d=" M 157.59999999999997 222.20000000000124 L 153.56551308486746 205.14756863870778 L 162.06483218607997 205.25515495644467 Z" fill-opacity="0.6980392156862745"/><path fill="none" stroke="rgb(0,0,0)" paint-order="fill stroke markers" d=" M 316.0000000000003 287.20000000000124 L 479.0000000000005 287.20000000000124" stroke-opacity="0.6980392156862745" stroke-linecap="round" stroke-linejoin="round" stroke-miterlimit="10" stroke-width="2.5"/><path fill="rgb(0,0,0)" stroke="none" paint-order="stroke fill markers" fill-rule="evenodd" d=" M 496.0000000000005 287.20000000000124 L 479.0000000000005 291.45000000000124 L 479.0000000000005 282.95000000000124 Z" fill-opacity="0.6980392156862745"/><path fill="none" stroke="rgb(0,0,0)" paint-order="fill stroke markers" d=" M 740.5126252560984 287.20000000000124 L 888.0000000000009 287.20000000000124" stroke-opacity="0.6980392156862745" stroke-linecap="round" stroke-linejoin="round" stroke-miterlimit="10" stroke-width="2.5"/><path fill="rgb(0,0,0)" stroke="none" paint-order="stroke fill markers" fill-rule="evenodd" d=" M 905.0000000000009 287.20000000000124 L 888.0000000000009 291.45000000000124 L 888.0000000000009 282.95000000000124 Z" fill-opacity="0.6980392156862745"/><path fill="none" stroke="rgb(0,0,0)" paint-order="fill stroke markers" d=" M 592.2882291642121 373.647821556157 L 594.5323641182417 369.7410699263644" stroke-opacity="0.6980392156862745" stroke-linecap="round" stroke-linejoin="round" stroke-miterlimit="10" stroke-width="2.5"/><path fill="rgb(0,0,0)" stroke="none" paint-order="stroke fill markers" fill-rule="evenodd" d=" M 603 355.00000000000017 L 598.2176315998328 371.85797889680396 L 590.8470966366507 367.6241609559248 Z" fill-opacity="0.6980392156862745"/><g transform="scale(27,27) translate(2.3703703703703702,2.148148148148148) scale(0.1,0.1)"><text fill="rgb(204,153,0)" stroke="none" font-family="Serif" font-size="10px" font-style="normal" font-weight="bold" text-decoration="normal" x="0" y="0" text-anchor="start" dominant-baseline="alphabetic">未知的上帝函数</text><g transform="scale(10,10) translate(-2.3703703703703702,-2.148148148148148)"><g transform="translate(3.3703703703703702,3.273148148148148)"><path fill="rgb(204,153,0)" stroke="none" paint-order="stroke fill markers" d=" M 0.429 -0.397 L 0.375 -0.095 Q 0.35000000000000003 0.048 0.306 0.115 Q 0.298 0.128 0.28400000000000003 0.1445 Q 0.27 0.161 0.23750000000000002 0.1815 Q 0.20500000000000002 0.202 0.171 0.202 Q 0.128 0.202 0.095 0.181 Q 0.062 0.16 0.062 0.122 Q 0.062 0.093 0.083 0.07050000000000001 Q 0.10400000000000001 0.048 0.134 0.048 Q 0.154 0.048 0.1685 0.0605 Q 0.183 0.073 0.183 0.094 Q 0.183 0.115 0.1705 0.133 Q 0.158 0.151 0.139 0.16 Q 0.153 0.166 0.17300000000000001 0.166 Q 0.203 0.166 0.223 0.115 Q 0.225 0.109 0.229 0.09 Q 0.233 0.07100000000000001 0.23700000000000002 0.051000000000000004 Q 0.241 0.031 0.241 0.029 L 0.317 -0.397 L 0.225 -0.397 Q 0.192 -0.397 0.192 -0.41500000000000004 Q 0.192 -0.429 0.198 -0.4355 Q 0.20400000000000001 -0.442 0.21 -0.443 Q 0.216 -0.444 0.228 -0.444 L 0.326 -0.444 Q 0.338 -0.513 0.3425 -0.535 Q 0.34700000000000003 -0.557 0.355 -0.583 Q 0.363 -0.609 0.374 -0.627 Q 0.421 -0.7020000000000001 0.512 -0.7020000000000001 Q 0.56 -0.7020000000000001 0.593 -0.6805 Q 0.626 -0.659 0.626 -0.622 Q 0.626 -0.593 0.605 -0.5705 Q 0.584 -0.548 0.554 -0.548 Q 0.534 -0.548 0.5195 -0.5605 Q 0.505 -0.5730000000000001 0.505 -0.594 Q 0.505 -0.614 0.517 -0.632 Q 0.529 -0.65 0.547 -0.659 Q 0.53 -0.666 0.512 -0.666 Q 0.496 -0.666 0.483 -0.654 Q 0.47300000000000003 -0.645 0.47000000000000003 -0.625 L 0.437 -0.444 L 0.549 -0.444 Q 0.583 -0.444 0.583 -0.426 Q 0.583 -0.41200000000000003 0.577 -0.4055 Q 0.5710000000000001 -0.399 0.5650000000000001 -0.398 Q 0.559 -0.397 0.546 -0.397 L 0.429 -0.397 Z"/></g><g transform="translate(4.326622981481481,3.273148148148148)"><path fill="rgb(204,153,0)" stroke="none" paint-order="stroke fill markers" d=" M 0.214 -0.421 Q 0.214 -0.421 0.2255 -0.40950000000000003 Q 0.23700000000000002 -0.398 0.23700000000000002 -0.366 Q 0.23700000000000002 -0.334 0.214 -0.311 Q 0.191 -0.28800000000000003 0.159 -0.28800000000000003 Q 0.127 -0.28800000000000003 0.10400000000000001 -0.311 Q 0.081 -0.334 0.081 -0.366 Q 0.081 -0.398 0.10400000000000001 -0.421 Q 0.127 -0.444 0.159 -0.444 Q 0.191 -0.444 0.214 -0.421 M 0.214 -0.133 Q 0.214 -0.133 0.2255 -0.1215 Q 0.23700000000000002 -0.11 0.23700000000000002 -0.078 Q 0.23700000000000002 -0.046 0.214 -0.023 Q 0.191 0 0.159 0 Q 0.127 0 0.10400000000000001 -0.023 Q 0.081 -0.046 0.081 -0.078 Q 0.081 -0.11 0.10400000000000001 -0.133 Q 0.127 -0.156 0.159 -0.156 Q 0.191 -0.156 0.214 -0.133 Z"/></g><g transform="translate(4.923844592592593,3.273148148148148)"><path fill="rgb(204,153,0)" stroke="none" paint-order="stroke fill markers" d=" M 0.682 -0.08700000000000001 Q 0.724 -0.12 0.76 -0.12 Q 0.778 -0.12 0.778 -0.107 Q 0.778 -0.079 0.725 -0.0395 Q 0.672 0 0.582 0 Q 0.5640000000000001 0 0.553 -0.0015 Q 0.542 -0.003 0.5245 -0.0105 Q 0.507 -0.018000000000000002 0.494 -0.038 Q 0.481 -0.058 0.47300000000000003 -0.089 Q 0.46900000000000003 -0.106 0.447 -0.294 Q 0.269 -0.196 0.217 -0.158 Q 0.197 -0.14300000000000002 0.1915 -0.1365 Q 0.186 -0.13 0.186 -0.121 Q 0.186 -0.108 0.1945 -0.0985 Q 0.203 -0.089 0.217 -0.08700000000000001 Q 0.23600000000000002 -0.085 0.23600000000000002 -0.074 Q 0.23600000000000002 -0.055 0.1955 -0.0275 Q 0.155 0 0.123 0 Q 0.096 0 0.076 -0.015 Q 0.056 -0.03 0.056 -0.058 Q 0.056 -0.11900000000000001 0.20700000000000002 -0.216 Q 0.28 -0.264 0.441 -0.35100000000000003 Q 0.44 -0.361 0.436 -0.3945 Q 0.432 -0.428 0.4285 -0.457 Q 0.425 -0.486 0.423 -0.501 Q 0.418 -0.536 0.40900000000000003 -0.5575 Q 0.4 -0.579 0.3865 -0.587 Q 0.373 -0.595 0.364 -0.597 Q 0.355 -0.599 0.339 -0.599 Q 0.295 -0.5660000000000001 0.261 -0.5660000000000001 Q 0.243 -0.5660000000000001 0.243 -0.579 Q 0.243 -0.607 0.2965 -0.6465 Q 0.35000000000000003 -0.686 0.439 -0.686 Q 0.456 -0.686 0.4665 -0.6845 Q 0.47700000000000004 -0.683 0.494 -0.6765 Q 0.511 -0.67 0.524 -0.6525 Q 0.537 -0.635 0.545 -0.607 Q 0.552 -0.582 0.559 -0.52 Q 0.5660000000000001 -0.458 0.5710000000000001 -0.422 Q 0.707 -0.498 0.75 -0.53 Q 0.777 -0.551 0.777 -0.5650000000000001 Q 0.777 -0.596 0.743 -0.599 Q 0.726 -0.6 0.726 -0.612 Q 0.726 -0.631 0.7665000000000001 -0.6585 Q 0.807 -0.686 0.84 -0.686 Q 0.866 -0.686 0.8865000000000001 -0.671 Q 0.907 -0.656 0.907 -0.628 Q 0.907 -0.585 0.836 -0.5265 Q 0.765 -0.468 0.577 -0.365 Q 0.58 -0.335 0.594 -0.211 Q 0.6 -0.166 0.608 -0.1395 Q 0.616 -0.113 0.6295000000000001 -0.10200000000000001 Q 0.643 -0.091 0.6525 -0.089 Q 0.662 -0.08700000000000001 0.682 -0.08700000000000001 Z"/></g><g transform="translate(6.018345203703705,3.273148148148148)"><path fill="rgb(204,153,0)" stroke="none" paint-order="stroke fill markers" d=" M 0.9520000000000001 -0.22 L 0.109 -0.22 Q 0.064 -0.22 0.064 -0.251 Q 0.064 -0.281 0.109 -0.281 L 0.9520000000000001 -0.281 Q 0.903 -0.322 0.8775000000000001 -0.364 Q 0.852 -0.406 0.852 -0.417 Q 0.852 -0.435 0.876 -0.435 Q 0.893 -0.435 0.897 -0.424 Q 0.916 -0.385 0.9400000000000001 -0.3555 Q 0.964 -0.326 0.9905 -0.3085 Q 1.0170000000000001 -0.291 1.0325 -0.28350000000000003 Q 1.048 -0.276 1.071 -0.268 Q 1.085 -0.261 1.085 -0.25 Q 1.085 -0.242 1.0805 -0.23850000000000002 Q 1.076 -0.23500000000000001 1.061 -0.229 Q 0.9520000000000001 -0.189 0.899 -0.08 Q 0.892 -0.066 0.876 -0.066 Q 0.852 -0.066 0.852 -0.084 Q 0.852 -0.095 0.878 -0.137 Q 0.904 -0.179 0.9520000000000001 -0.22 Z"/></g><g transform="translate(7.446117814814816,3.273148148148148)"><path fill="rgb(204,153,0)" stroke="none" paint-order="stroke fill markers" d=" M 0.37 -0.042 L 0.37 -0.057 Q 0.37 -0.225 0.335 -0.37 Q 0.281 -0.594 0.147 -0.603 Q 0.106 -0.5690000000000001 0.07 -0.5690000000000001 Q 0.05 -0.5690000000000001 0.05 -0.582 Q 0.05 -0.605 0.11 -0.6455 Q 0.17 -0.686 0.229 -0.686 Q 0.383 -0.686 0.449 -0.467 Q 0.492 -0.319 0.492 -0.14200000000000002 L 0.537 -0.185 Q 0.639 -0.28700000000000003 0.686 -0.374 Q 0.733 -0.461 0.733 -0.491 Q 0.733 -0.513 0.713 -0.538 Q 0.6930000000000001 -0.5630000000000001 0.644 -0.5670000000000001 Q 0.638 -0.5680000000000001 0.6345000000000001 -0.5690000000000001 Q 0.631 -0.5700000000000001 0.627 -0.577 Q 0.623 -0.584 0.623 -0.596 Q 0.623 -0.62 0.639 -0.653 Q 0.655 -0.686 0.679 -0.686 Q 0.722 -0.686 0.7605000000000001 -0.653 Q 0.799 -0.62 0.799 -0.553 Q 0.799 -0.47700000000000004 0.7365 -0.352 Q 0.674 -0.227 0.5710000000000001 -0.11800000000000001 Q 0.45 0.008 0.3395 0.082 Q 0.229 0.156 0.178 0.156 Q 0.113 0.156 0.0745 0.114 Q 0.036000000000000004 0.07200000000000001 0.036000000000000004 0.03 Q 0.036000000000000004 0.001 0.0525 -0.029500000000000002 Q 0.069 -0.06 0.08600000000000001 -0.06 Q 0.095 -0.06 0.1 -0.043000000000000003 Q 0.109 -0.015 0.126 0.003 Q 0.14300000000000002 0.021 0.1635 0.0275 Q 0.184 0.034 0.194 0.035500000000000004 Q 0.20400000000000001 0.037 0.213 0.037 Q 0.252 0.037 0.37 -0.042 Z"/></g></g></g><g transform="scale(27,27) translate(1.5185185185185186,10.962962962962964) scale(0.1,0.1)"><text fill="rgb(0,0,255)" stroke="none" font-family="Serif" font-size="10px" font-style="normal" font-weight="bold" text-decoration="normal" x="0" y="0" text-anchor="start" dominant-baseline="alphabetic">数据集</text><g transform="scale(10,10) translate(-1.5185185185185186,-10.962962962962964)"><g transform="translate(4.891852519114565,10.962962962962964)"><path fill="rgb(0,0,255)" stroke="none" paint-order="stroke fill markers" d=" M 0.163 -0.067 L 0.306 -0.637 Q 0.264 -0.639 0.245 -0.639 Q 0.227 -0.639 0.22 -0.6395000000000001 Q 0.213 -0.64 0.20800000000000002 -0.644 Q 0.203 -0.648 0.203 -0.657 Q 0.203 -0.671 0.209 -0.6775 Q 0.215 -0.684 0.221 -0.685 Q 0.227 -0.686 0.24 -0.686 L 0.639 -0.686 Q 0.759 -0.686 0.837 -0.624 Q 0.915 -0.562 0.915 -0.439 Q 0.915 -0.361 0.885 -0.28450000000000003 Q 0.855 -0.20800000000000002 0.8 -0.14400000000000002 Q 0.745 -0.08 0.658 -0.04 Q 0.5710000000000001 0 0.468 0 L 0.077 0 Q 0.043000000000000003 0 0.043000000000000003 -0.018000000000000002 Q 0.043000000000000003 -0.038 0.055 -0.045 Q 0.059000000000000004 -0.047 0.08700000000000001 -0.047 Q 0.123 -0.047 0.14 -0.048 Q 0.153 -0.049 0.1565 -0.052000000000000005 Q 0.16 -0.055 0.163 -0.067 M 0.436 -0.621 L 0.293 -0.048 Q 0.3 -0.047 0.317 -0.047 L 0.441 -0.047 Q 0.637 -0.047 0.718 -0.21 Q 0.739 -0.255 0.7605000000000001 -0.3395 Q 0.782 -0.424 0.782 -0.47400000000000003 Q 0.782 -0.556 0.732 -0.598 Q 0.68 -0.639 0.588 -0.639 L 0.47400000000000003 -0.639 Q 0.456 -0.639 0.447 -0.638 Q 0.44 -0.637 0.436 -0.621 Z"/></g><g transform="translate(6.139696130225676,10.962962962962964)"><path fill="rgb(0,0,255)" stroke="none" paint-order="stroke fill markers" d=" M 0.214 -0.421 Q 0.214 -0.421 0.2255 -0.40950000000000003 Q 0.23700000000000002 -0.398 0.23700000000000002 -0.366 Q 0.23700000000000002 -0.334 0.214 -0.311 Q 0.191 -0.28800000000000003 0.159 -0.28800000000000003 Q 0.127 -0.28800000000000003 0.10400000000000001 -0.311 Q 0.081 -0.334 0.081 -0.366 Q 0.081 -0.398 0.10400000000000001 -0.421 Q 0.127 -0.444 0.159 -0.444 Q 0.191 -0.444 0.214 -0.421 M 0.214 -0.133 Q 0.214 -0.133 0.2255 -0.1215 Q 0.23700000000000002 -0.11 0.23700000000000002 -0.078 Q 0.23700000000000002 -0.046 0.214 -0.023 Q 0.191 0 0.159 0 Q 0.127 0 0.10400000000000001 -0.023 Q 0.081 -0.046 0.081 -0.078 Q 0.081 -0.11 0.10400000000000001 -0.133 Q 0.127 -0.156 0.159 -0.156 Q 0.191 -0.156 0.214 -0.133 Z"/></g><g transform="translate(6.736917741336788,10.962962962962964)"><path fill="rgb(0,0,255)" stroke="none" paint-order="stroke fill markers" d=" M 0.343 -0.606 L 0.343 -0.396 Q 0.343 -0.377 0.342 -0.366 Q 0.341 -0.355 0.335 -0.335 Q 0.329 -0.315 0.3175 -0.3015 Q 0.306 -0.28800000000000003 0.28200000000000003 -0.2735 Q 0.258 -0.259 0.224 -0.25 Q 0.28400000000000003 -0.234 0.313 -0.202 Q 0.342 -0.17 0.343 -0.134 L 0.343 0.10300000000000001 Q 0.343 0.128 0.34600000000000003 0.138 Q 0.369 0.20700000000000002 0.47900000000000004 0.214 Q 0.496 0.215 0.496 0.232 Q 0.496 0.244 0.49 0.247 Q 0.484 0.25 0.465 0.25 Q 0.444 0.25 0.424 0.2485 Q 0.404 0.247 0.375 0.2425 Q 0.34600000000000003 0.23800000000000002 0.3225 0.2285 Q 0.299 0.219 0.2775 0.20450000000000002 Q 0.256 0.19 0.244 0.166 Q 0.232 0.14200000000000002 0.232 0.111 L 0.232 -0.099 Q 0.232 -0.138 0.23 -0.146 Q 0.222 -0.178 0.189 -0.20350000000000001 Q 0.156 -0.229 0.095 -0.232 Q 0.078 -0.233 0.078 -0.25 Q 0.078 -0.258 0.081 -0.262 Q 0.084 -0.266 0.08750000000000001 -0.2665 Q 0.091 -0.267 0.1 -0.268 Q 0.162 -0.271 0.199 -0.305 Q 0.222 -0.325 0.227 -0.34500000000000003 Q 0.232 -0.365 0.232 -0.417 L 0.232 -0.623 Q 0.233 -0.681 0.296 -0.7155 Q 0.359 -0.75 0.465 -0.75 Q 0.47800000000000004 -0.75 0.4835 -0.7495 Q 0.489 -0.749 0.4925 -0.745 Q 0.496 -0.741 0.496 -0.732 Q 0.496 -0.724 0.493 -0.72 Q 0.49 -0.716 0.4865 -0.7155 Q 0.483 -0.715 0.47400000000000003 -0.714 Q 0.421 -0.711 0.382 -0.686 Q 0.343 -0.657 0.343 -0.606 Z"/></g><g transform="translate(7.311914741336787,10.962962962962964)"><path fill="rgb(0,0,255)" stroke="none" paint-order="stroke fill markers" d=" M 0.379 0.225 L 0.38 0.228 Q 0.382 0.232 0.382 0.23500000000000001 Q 0.382 0.249 0.364 0.249 Q 0.34500000000000003 0.249 0.2885 0.1965 Q 0.232 0.14400000000000002 0.188 0.067 Q 0.108 -0.074 0.108 -0.251 Q 0.108 -0.518 0.28700000000000003 -0.6960000000000001 Q 0.34400000000000003 -0.75 0.364 -0.75 Q 0.382 -0.75 0.382 -0.736 Q 0.382 -0.731 0.366 -0.715 Q 0.20500000000000002 -0.553 0.20500000000000002 -0.25 Q 0.20500000000000002 -0.106 0.243 0.009000000000000001 Q 0.28500000000000003 0.138 0.379 0.225 Z"/></g><g transform="translate(7.759134741336787,10.962962962962964)"><path fill="rgb(0,0,255)" stroke="none" paint-order="stroke fill markers" d=" M 0.536 -0.401 Q 0.516 -0.41600000000000004 0.488 -0.41600000000000004 Q 0.461 -0.41600000000000004 0.4375 -0.392 Q 0.41400000000000003 -0.368 0.403 -0.325 Q 0.4 -0.316 0.385 -0.257 Q 0.37 -0.198 0.368 -0.189 Q 0.34600000000000003 -0.099 0.34600000000000003 -0.078 Q 0.34600000000000003 -0.028 0.402 -0.028 Q 0.44 -0.028 0.482 -0.0575 Q 0.524 -0.08700000000000001 0.544 -0.149 Q 0.548 -0.162 0.5670000000000001 -0.162 Q 0.591 -0.162 0.591 -0.148 Q 0.591 -0.134 0.578 -0.1095 Q 0.5650000000000001 -0.085 0.542 -0.058 Q 0.519 -0.031 0.48 -0.0115 Q 0.441 0.008 0.397 0.008 Q 0.295 0.008 0.259 -0.053 Q 0.215 0.008 0.152 0.008 Q 0.105 0.008 0.07150000000000001 -0.0165 Q 0.038 -0.041 0.038 -0.08 Q 0.038 -0.115 0.06 -0.1365 Q 0.082 -0.158 0.11 -0.158 Q 0.133 -0.158 0.1465 -0.14400000000000002 Q 0.16 -0.13 0.16 -0.112 Q 0.16 -0.091 0.1455 -0.07050000000000001 Q 0.131 -0.05 0.106 -0.043000000000000003 Q 0.126 -0.028 0.154 -0.028 Q 0.181 -0.028 0.20450000000000002 -0.051500000000000004 Q 0.228 -0.075 0.23900000000000002 -0.11900000000000001 L 0.273 -0.256 Q 0.296 -0.34800000000000003 0.296 -0.366 Q 0.296 -0.41600000000000004 0.24 -0.41600000000000004 Q 0.202 -0.41600000000000004 0.16 -0.3865 Q 0.11800000000000001 -0.357 0.098 -0.295 Q 0.094 -0.28200000000000003 0.075 -0.28200000000000003 Q 0.051000000000000004 -0.28200000000000003 0.051000000000000004 -0.296 Q 0.051000000000000004 -0.31 0.064 -0.3345 Q 0.077 -0.359 0.1 -0.386 Q 0.123 -0.41300000000000003 0.162 -0.4325 Q 0.201 -0.452 0.245 -0.452 Q 0.34700000000000003 -0.452 0.383 -0.391 Q 0.427 -0.452 0.49 -0.452 Q 0.537 -0.452 0.5705 -0.4275 Q 0.604 -0.403 0.604 -0.364 Q 0.604 -0.329 0.582 -0.3075 Q 0.56 -0.28600000000000003 0.532 -0.28600000000000003 Q 0.509 -0.28600000000000003 0.4955 -0.3 Q 0.482 -0.314 0.482 -0.332 Q 0.482 -0.353 0.4965 -0.3735 Q 0.511 -0.394 0.536 -0.401 Z"/></g><g transform="translate(8.418161741336787,11.112962962962964) scale(0.7,0.7)"><path fill="rgb(0,0,255)" stroke="none" paint-order="stroke fill markers" d=" M 0.334 -0.646 Q 0.334 -0.62 0.312 -0.5985 Q 0.29 -0.577 0.263 -0.577 Q 0.242 -0.577 0.228 -0.5905 Q 0.214 -0.604 0.214 -0.625 Q 0.214 -0.651 0.23550000000000001 -0.6725 Q 0.257 -0.6940000000000001 0.28500000000000003 -0.6940000000000001 Q 0.306 -0.6940000000000001 0.32 -0.68 Q 0.334 -0.666 0.334 -0.646 M 0.359 -0.148 Q 0.359 -0.132 0.343 -0.0975 Q 0.327 -0.063 0.289 -0.0275 Q 0.251 0.008 0.20400000000000001 0.008 Q 0.157 0.008 0.1235 -0.0175 Q 0.09 -0.043000000000000003 0.09 -0.082 Q 0.09 -0.095 0.098 -0.116 L 0.165 -0.289 Q 0.198 -0.372 0.198 -0.394 Q 0.198 -0.41600000000000004 0.182 -0.41600000000000004 Q 0.168 -0.41600000000000004 0.1525 -0.40850000000000003 Q 0.137 -0.401 0.115 -0.372 Q 0.093 -0.343 0.079 -0.295 Q 0.075 -0.28200000000000003 0.056 -0.28200000000000003 Q 0.032 -0.28200000000000003 0.032 -0.296 Q 0.032 -0.312 0.048 -0.34650000000000003 Q 0.064 -0.381 0.10200000000000001 -0.4165 Q 0.14 -0.452 0.187 -0.452 Q 0.234 -0.452 0.2675 -0.4265 Q 0.301 -0.401 0.301 -0.362 Q 0.301 -0.34900000000000003 0.293 -0.328 L 0.226 -0.155 Q 0.193 -0.07200000000000001 0.193 -0.05 Q 0.193 -0.028 0.209 -0.028 Q 0.223 -0.028 0.23850000000000002 -0.035500000000000004 Q 0.254 -0.043000000000000003 0.276 -0.07200000000000001 Q 0.298 -0.101 0.312 -0.149 Q 0.316 -0.162 0.335 -0.162 Q 0.359 -0.162 0.359 -0.148 Z"/></g><g transform="translate(8.701518941336786,10.962962962962964)"><path fill="rgb(0,0,255)" stroke="none" paint-order="stroke fill markers" d=" M 0.214 -0.021 Q 0.191 0 0.159 0 Q 0.123 0 0.10200000000000001 -0.023 Q 0.081 -0.046 0.081 -0.078 Q 0.081 -0.111 0.10250000000000001 -0.1335 Q 0.124 -0.156 0.158 -0.156 Q 0.199 -0.156 0.2245 -0.1205 Q 0.25 -0.085 0.25 -0.031 Q 0.25 0.031 0.222 0.08650000000000001 Q 0.194 0.14200000000000002 0.167 0.168 Q 0.14 0.194 0.13 0.194 Q 0.124 0.194 0.11750000000000001 0.187 Q 0.111 0.18 0.111 0.17500000000000002 Q 0.111 0.169 0.126 0.156 Q 0.166 0.122 0.189 0.075 Q 0.212 0.028 0.214 -0.021 Z"/></g><g transform="translate(9.187629108003453,10.962962962962964)"><path fill="rgb(0,0,255)" stroke="none" paint-order="stroke fill markers" d=" M 0.577 -0.377 L 0.483 0.001 Q 0.461 0.09 0.3785 0.146 Q 0.296 0.202 0.20500000000000002 0.202 Q 0.145 0.202 0.108 0.178 Q 0.07100000000000001 0.154 0.07100000000000001 0.115 Q 0.07100000000000001 0.083 0.0925 0.061 Q 0.114 0.039 0.14300000000000002 0.039 Q 0.162 0.039 0.177 0.05 Q 0.192 0.061 0.192 0.085 Q 0.192 0.132 0.14400000000000002 0.152 Q 0.167 0.166 0.20500000000000002 0.166 Q 0.26 0.166 0.3085 0.116 Q 0.357 0.066 0.377 -0.022 Q 0.334 0.008 0.281 0.008 Q 0.254 0.008 0.2305 0.0035 Q 0.20700000000000002 -0.001 0.1805 -0.0135 Q 0.154 -0.026000000000000002 0.138 -0.054 Q 0.122 -0.082 0.122 -0.122 Q 0.122 -0.157 0.1355 -0.2005 Q 0.149 -0.244 0.182 -0.33 Q 0.199 -0.375 0.199 -0.395 Q 0.199 -0.405 0.196 -0.41000000000000003 Q 0.193 -0.41500000000000004 0.19 -0.41550000000000004 Q 0.187 -0.41600000000000004 0.182 -0.41600000000000004 Q 0.17400000000000002 -0.41600000000000004 0.1635 -0.41200000000000003 Q 0.153 -0.40800000000000003 0.1375 -0.3975 Q 0.122 -0.387 0.106 -0.3605 Q 0.09 -0.334 0.079 -0.295 Q 0.075 -0.28200000000000003 0.056 -0.28200000000000003 Q 0.032 -0.28200000000000003 0.032 -0.296 Q 0.032 -0.306 0.042 -0.3295 Q 0.052000000000000005 -0.353 0.07 -0.3815 Q 0.088 -0.41000000000000003 0.11950000000000001 -0.431 Q 0.151 -0.452 0.188 -0.452 Q 0.233 -0.452 0.267 -0.4275 Q 0.301 -0.403 0.301 -0.362 Q 0.301 -0.34600000000000003 0.28800000000000003 -0.312 Q 0.229 -0.16 0.229 -0.101 Q 0.229 -0.028 0.289 -0.028 Q 0.319 -0.028 0.357 -0.052000000000000005 Q 0.36 -0.054 0.3675 -0.06 Q 0.375 -0.066 0.3845 -0.078 Q 0.394 -0.09 0.396 -0.1 Q 0.403 -0.127 0.438 -0.266 L 0.464 -0.37 Q 0.468 -0.385 0.47100000000000003 -0.394 Q 0.47400000000000003 -0.403 0.482 -0.4165 Q 0.49 -0.43 0.5035000000000001 -0.437 Q 0.517 -0.444 0.535 -0.444 Q 0.557 -0.444 0.5695 -0.431 Q 0.582 -0.418 0.582 -0.4 Q 0.582 -0.395 0.577 -0.377 Z"/></g><g transform="translate(9.777905108003452,11.112962962962964) scale(0.7,0.7)"><path fill="rgb(0,0,255)" stroke="none" paint-order="stroke fill markers" d=" M 0.334 -0.646 Q 0.334 -0.62 0.312 -0.5985 Q 0.29 -0.577 0.263 -0.577 Q 0.242 -0.577 0.228 -0.5905 Q 0.214 -0.604 0.214 -0.625 Q 0.214 -0.651 0.23550000000000001 -0.6725 Q 0.257 -0.6940000000000001 0.28500000000000003 -0.6940000000000001 Q 0.306 -0.6940000000000001 0.32 -0.68 Q 0.334 -0.666 0.334 -0.646 M 0.359 -0.148 Q 0.359 -0.132 0.343 -0.0975 Q 0.327 -0.063 0.289 -0.0275 Q 0.251 0.008 0.20400000000000001 0.008 Q 0.157 0.008 0.1235 -0.0175 Q 0.09 -0.043000000000000003 0.09 -0.082 Q 0.09 -0.095 0.098 -0.116 L 0.165 -0.289 Q 0.198 -0.372 0.198 -0.394 Q 0.198 -0.41600000000000004 0.182 -0.41600000000000004 Q 0.168 -0.41600000000000004 0.1525 -0.40850000000000003 Q 0.137 -0.401 0.115 -0.372 Q 0.093 -0.343 0.079 -0.295 Q 0.075 -0.28200000000000003 0.056 -0.28200000000000003 Q 0.032 -0.28200000000000003 0.032 -0.296 Q 0.032 -0.312 0.048 -0.34650000000000003 Q 0.064 -0.381 0.10200000000000001 -0.4165 Q 0.14 -0.452 0.187 -0.452 Q 0.234 -0.452 0.2675 -0.4265 Q 0.301 -0.401 0.301 -0.362 Q 0.301 -0.34900000000000003 0.293 -0.328 L 0.226 -0.155 Q 0.193 -0.07200000000000001 0.193 -0.05 Q 0.193 -0.028 0.209 -0.028 Q 0.223 -0.028 0.23850000000000002 -0.035500000000000004 Q 0.254 -0.043000000000000003 0.276 -0.07200000000000001 Q 0.298 -0.101 0.312 -0.149 Q 0.316 -0.162 0.335 -0.162 Q 0.359 -0.162 0.359 -0.148 Z"/></g><g transform="translate(10.061262308003453,10.962962962962964)"><path fill="rgb(0,0,255)" stroke="none" paint-order="stroke fill markers" d=" M 0.338 -0.25 Q 0.338 0.017 0.159 0.195 Q 0.10200000000000001 0.249 0.082 0.249 Q 0.064 0.249 0.064 0.23500000000000001 Q 0.064 0.23 0.08 0.214 Q 0.241 0.052000000000000005 0.241 -0.251 Q 0.241 -0.55 0.081 -0.713 Q 0.064 -0.729 0.064 -0.736 Q 0.064 -0.75 0.082 -0.75 Q 0.101 -0.75 0.1575 -0.6975 Q 0.214 -0.645 0.258 -0.5680000000000001 Q 0.338 -0.427 0.338 -0.25 Z"/></g><g transform="translate(10.508482308003453,10.962962962962964)"><path fill="rgb(0,0,255)" stroke="none" paint-order="stroke fill markers" d=" M 0.343 -0.611 L 0.343 -0.401 Q 0.343 -0.36 0.34600000000000003 -0.352 Q 0.37 -0.273 0.47900000000000004 -0.268 Q 0.496 -0.267 0.496 -0.25 Q 0.496 -0.242 0.493 -0.23800000000000002 Q 0.49 -0.234 0.4865 -0.2335 Q 0.483 -0.233 0.47400000000000003 -0.232 Q 0.40900000000000003 -0.228 0.377 -0.196 Q 0.353 -0.17400000000000002 0.34800000000000003 -0.155 Q 0.343 -0.136 0.343 -0.083 L 0.343 0.123 Q 0.342 0.179 0.2805 0.2145 Q 0.219 0.25 0.109 0.25 Q 0.096 0.25 0.091 0.2495 Q 0.08600000000000001 0.249 0.082 0.245 Q 0.078 0.241 0.078 0.232 Q 0.078 0.224 0.081 0.22 Q 0.084 0.216 0.08750000000000001 0.2155 Q 0.091 0.215 0.1 0.214 Q 0.157 0.211 0.195 0.184 Q 0.212 0.171 0.221 0.1555 Q 0.23 0.14 0.231 0.131 Q 0.232 0.122 0.232 0.106 L 0.232 -0.10400000000000001 Q 0.232 -0.123 0.233 -0.134 Q 0.234 -0.145 0.24 -0.165 Q 0.246 -0.185 0.2575 -0.1985 Q 0.269 -0.212 0.293 -0.2265 Q 0.317 -0.241 0.35100000000000003 -0.25 Q 0.29 -0.267 0.2615 -0.2985 Q 0.233 -0.33 0.232 -0.366 L 0.232 -0.603 Q 0.232 -0.628 0.229 -0.638 Q 0.20700000000000002 -0.708 0.095 -0.714 Q 0.078 -0.715 0.078 -0.732 Q 0.078 -0.744 0.0845 -0.747 Q 0.091 -0.75 0.109 -0.75 Q 0.147 -0.75 0.1815 -0.745 Q 0.216 -0.74 0.2555 -0.727 Q 0.295 -0.714 0.319 -0.684 Q 0.343 -0.654 0.343 -0.611 Z"/></g></g></g><g transform="scale(27,27) translate(21.14814814814815,11.074074074074074) scale(0.1,0.1)"><text fill="rgb(255,0,0)" stroke="none" font-family="Serif" font-size="10px" font-style="normal" font-weight="bold" text-decoration="normal" x="0" y="0" text-anchor="start" dominant-baseline="alphabetic">算法</text><g transform="scale(10,10) translate(-21.14814814814815,-11.074074074074074)"><g transform="translate(23.521482148744195,11.074074074074074)"><path fill="rgb(255,0,0)" stroke="none" paint-order="stroke fill markers" d=" M 0.673 -0.163 L 0.398 -0.163 Q 0.383 -0.163 0.375 -0.164 Q 0.294 -0.056 0.23850000000000002 -0.0035 Q 0.183 0.049 0.14 0.049 Q 0.101 0.049 0.069 0.0195 Q 0.037 -0.01 0.037 -0.047 Q 0.037 -0.08 0.0565 -0.11900000000000001 Q 0.076 -0.158 0.094 -0.158 Q 0.10200000000000001 -0.158 0.107 -0.14400000000000002 Q 0.115 -0.11800000000000001 0.1395 -0.10400000000000001 Q 0.164 -0.09 0.184 -0.09 Q 0.202 -0.09 0.2235 -0.10400000000000001 Q 0.245 -0.11800000000000001 0.2725 -0.1485 Q 0.3 -0.179 0.3155 -0.198 Q 0.331 -0.217 0.362 -0.256 Q 0.504 -0.442 0.623 -0.658 L 0.645 -0.683 Q 0.66 -0.706 0.6950000000000001 -0.7255 Q 0.73 -0.745 0.752 -0.745 Q 0.765 -0.745 0.768 -0.7395 Q 0.771 -0.734 0.771 -0.716 L 0.771 -0.687 Q 0.771 -0.561 0.784 -0.41300000000000003 Q 0.802 -0.17500000000000002 0.838 -0.083 Q 0.846 -0.064 0.867 -0.061 Q 0.93 -0.093 0.9500000000000001 -0.093 Q 0.969 -0.093 0.969 -0.081 Q 0.969 -0.053 0.894 -0.0135 Q 0.8190000000000001 0.026000000000000002 0.775 0.026000000000000002 Q 0.75 0.026000000000000002 0.734 0.016 Q 0.718 0.006 0.7125 -0.0055 Q 0.707 -0.017 0.7000000000000001 -0.04 Q 0.683 -0.096 0.673 -0.163 M 0.491 -0.25 L 0.663 -0.25 Q 0.656 -0.304 0.652 -0.37 Q 0.643 -0.505 0.643 -0.531 Q 0.643 -0.5640000000000001 0.642 -0.5730000000000001 Q 0.541 -0.394 0.43 -0.23700000000000002 Q 0.456 -0.25 0.491 -0.25 Z"/></g></g></g><g transform="scale(27,27) translate(35.111111111111114,11.037037037037036) scale(0.1,0.1)"><text fill="rgb(102,0,153)" stroke="none" font-family="Serif" font-size="10px" font-style="normal" font-weight="bold" text-decoration="normal" x="0" y="0" text-anchor="start" dominant-baseline="alphabetic">最终选择</text><g transform="scale(10,10) translate(-35.111111111111114,-11.037037037037036) translate(39.15111111170716,11.037037037037036) scale(0.1,0.1)"><text fill="rgb(102,0,153)" stroke="none" font-family="Serif" font-size="10px" font-style="normal" font-weight="bold" text-decoration="normal" x="0" y="0" text-anchor="start" dominant-baseline="alphabetic">：</text><g transform="scale(10,10) translate(-39.15111111170716,-11.037037037037036)"><g transform="translate(40.191111112303204,11.037037037037036)"><path fill="rgb(102,0,153)" stroke="none" paint-order="stroke fill markers" d=" M 0.53 -0.365 L 0.423 0.061 Q 0.41200000000000003 0.10400000000000001 0.3835 0.1335 Q 0.355 0.163 0.3155 0.177 Q 0.276 0.191 0.24 0.1965 Q 0.20400000000000001 0.202 0.165 0.202 Q 0.132 0.202 0.109 0.2 Q 0.08600000000000001 0.198 0.059500000000000004 0.192 Q 0.033 0.186 0.0195 0.1705 Q 0.006 0.155 0.006 0.132 Q 0.006 0.099 0.028 0.0785 Q 0.05 0.058 0.077 0.058 Q 0.1 0.058 0.1135 0.07200000000000001 Q 0.127 0.08600000000000001 0.127 0.10400000000000001 Q 0.127 0.14 0.096 0.162 Q 0.122 0.166 0.164 0.166 Q 0.224 0.166 0.266 0.131 Q 0.301 0.10300000000000001 0.315 0.044 Q 0.322 0.019 0.334 -0.031 Q 0.28300000000000003 0 0.224 0 Q 0.152 0 0.1005 -0.0405 Q 0.049 -0.081 0.049 -0.163 Q 0.049 -0.231 0.0815 -0.296 Q 0.114 -0.361 0.18 -0.40650000000000003 Q 0.246 -0.452 0.33 -0.452 Q 0.398 -0.452 0.436 -0.41100000000000003 Q 0.457 -0.435 0.487 -0.435 Q 0.505 -0.435 0.5195 -0.424 Q 0.534 -0.41300000000000003 0.534 -0.391 Q 0.534 -0.381 0.53 -0.365 M 0.355 -0.113 L 0.41300000000000003 -0.34500000000000003 Q 0.41600000000000004 -0.356 0.41600000000000004 -0.36 Q 0.41600000000000004 -0.372 0.394 -0.394 Q 0.372 -0.41600000000000004 0.332 -0.41600000000000004 Q 0.251 -0.41600000000000004 0.21 -0.316 Q 0.197 -0.28300000000000003 0.1795 -0.2135 Q 0.162 -0.14400000000000002 0.162 -0.111 Q 0.162 -0.073 0.1805 -0.0545 Q 0.199 -0.036000000000000004 0.23 -0.036000000000000004 Q 0.28600000000000003 -0.036000000000000004 0.339 -0.084 Q 0.34900000000000003 -0.094 0.355 -0.113 Z"/></g><g transform="translate(41.05083172341431,11.037037037037036)"><path fill="rgb(102,0,153)" stroke="none" paint-order="stroke fill markers" d=" M 0.8290000000000001 -0.47900000000000004 Q 0.8290000000000001 -0.401 0.7745 -0.35100000000000003 Q 0.72 -0.301 0.637 -0.301 Q 0.604 -0.301 0.5685 -0.3115 Q 0.533 -0.322 0.5085000000000001 -0.334 Q 0.484 -0.34600000000000003 0.444 -0.369 Q 0.406 -0.391 0.3815 -0.404 Q 0.357 -0.417 0.322 -0.428 Q 0.28700000000000003 -0.439 0.256 -0.439 Q 0.202 -0.439 0.158 -0.41300000000000003 Q 0.11 -0.383 0.107 -0.339 Q 0.10400000000000001 -0.301 0.08600000000000001 -0.301 Q 0.076 -0.301 0.07 -0.314 Q 0.064 -0.327 0.064 -0.34600000000000003 Q 0.064 -0.424 0.11850000000000001 -0.47400000000000003 Q 0.17300000000000001 -0.524 0.256 -0.524 Q 0.33 -0.524 0.442 -0.46 Q 0.485 -0.435 0.5095000000000001 -0.4225 Q 0.534 -0.41000000000000003 0.5700000000000001 -0.398 Q 0.606 -0.386 0.637 -0.386 Q 0.6890000000000001 -0.386 0.7355 -0.41300000000000003 Q 0.782 -0.44 0.786 -0.485 Q 0.79 -0.524 0.808 -0.524 Q 0.8160000000000001 -0.524 0.8225 -0.512 Q 0.8290000000000001 -0.5 0.8290000000000001 -0.47900000000000004 M 0.8290000000000001 -0.212 Q 0.8290000000000001 -0.134 0.7745 -0.084 Q 0.72 -0.034 0.637 -0.034 Q 0.604 -0.034 0.5685 -0.0445 Q 0.533 -0.055 0.5085000000000001 -0.067 Q 0.484 -0.079 0.444 -0.10200000000000001 Q 0.406 -0.124 0.3815 -0.137 Q 0.357 -0.15 0.322 -0.161 Q 0.28700000000000003 -0.17200000000000001 0.256 -0.17200000000000001 Q 0.202 -0.17200000000000001 0.158 -0.146 Q 0.11 -0.116 0.107 -0.07200000000000001 Q 0.10400000000000001 -0.034 0.08600000000000001 -0.034 Q 0.076 -0.034 0.07 -0.047 Q 0.064 -0.06 0.064 -0.079 Q 0.064 -0.157 0.11850000000000001 -0.20700000000000002 Q 0.17300000000000001 -0.257 0.256 -0.257 Q 0.33 -0.257 0.442 -0.193 Q 0.485 -0.168 0.5095000000000001 -0.1555 Q 0.534 -0.14300000000000002 0.5700000000000001 -0.131 Q 0.606 -0.11900000000000001 0.637 -0.11900000000000001 Q 0.6890000000000001 -0.11900000000000001 0.7355 -0.146 Q 0.782 -0.17300000000000001 0.786 -0.218 Q 0.789 -0.257 0.807 -0.257 Q 0.8170000000000001 -0.257 0.8230000000000001 -0.2435 Q 0.8290000000000001 -0.23 0.8290000000000001 -0.212 Z"/></g><g transform="translate(42.223050334525425,11.037037037037036)"><path fill="rgb(102,0,153)" stroke="none" paint-order="stroke fill markers" d=" M 0.429 -0.397 L 0.375 -0.095 Q 0.35000000000000003 0.048 0.306 0.115 Q 0.298 0.128 0.28400000000000003 0.1445 Q 0.27 0.161 0.23750000000000002 0.1815 Q 0.20500000000000002 0.202 0.171 0.202 Q 0.128 0.202 0.095 0.181 Q 0.062 0.16 0.062 0.122 Q 0.062 0.093 0.083 0.07050000000000001 Q 0.10400000000000001 0.048 0.134 0.048 Q 0.154 0.048 0.1685 0.0605 Q 0.183 0.073 0.183 0.094 Q 0.183 0.115 0.1705 0.133 Q 0.158 0.151 0.139 0.16 Q 0.153 0.166 0.17300000000000001 0.166 Q 0.203 0.166 0.223 0.115 Q 0.225 0.109 0.229 0.09 Q 0.233 0.07100000000000001 0.23700000000000002 0.051000000000000004 Q 0.241 0.031 0.241 0.029 L 0.317 -0.397 L 0.225 -0.397 Q 0.192 -0.397 0.192 -0.41500000000000004 Q 0.192 -0.429 0.198 -0.4355 Q 0.20400000000000001 -0.442 0.21 -0.443 Q 0.216 -0.444 0.228 -0.444 L 0.326 -0.444 Q 0.338 -0.513 0.3425 -0.535 Q 0.34700000000000003 -0.557 0.355 -0.583 Q 0.363 -0.609 0.374 -0.627 Q 0.421 -0.7020000000000001 0.512 -0.7020000000000001 Q 0.56 -0.7020000000000001 0.593 -0.6805 Q 0.626 -0.659 0.626 -0.622 Q 0.626 -0.593 0.605 -0.5705 Q 0.584 -0.548 0.554 -0.548 Q 0.534 -0.548 0.5195 -0.5605 Q 0.505 -0.5730000000000001 0.505 -0.594 Q 0.505 -0.614 0.517 -0.632 Q 0.529 -0.65 0.547 -0.659 Q 0.53 -0.666 0.512 -0.666 Q 0.496 -0.666 0.483 -0.654 Q 0.47300000000000003 -0.645 0.47000000000000003 -0.625 L 0.437 -0.444 L 0.549 -0.444 Q 0.583 -0.444 0.583 -0.426 Q 0.583 -0.41200000000000003 0.577 -0.4055 Q 0.5710000000000001 -0.399 0.5650000000000001 -0.398 Q 0.559 -0.397 0.546 -0.397 L 0.429 -0.397 Z"/></g></g></g></g><g transform="scale(27,27) translate(9.148148148148149,18.296296296296298) scale(0.1,0.1)"><text fill="rgb(255,0,0)" stroke="none" font-family="Serif" font-size="10px" font-style="normal" font-weight="bold" text-decoration="normal" x="0" y="0" text-anchor="start" dominant-baseline="alphabetic">假设空间</text><g transform="scale(10,10) translate(-9.148148148148149,-18.296296296296298)"><g transform="translate(13.521482148744196,18.296296296296298)"><path fill="rgb(255,0,0)" stroke="none" paint-order="stroke fill markers" d=" M 0.468 -0.421 L 0.708 -0.421 Q 0.734 -0.485 0.77 -0.554 Q 0.806 -0.623 0.8160000000000001 -0.635 Q 0.837 -0.658 0.867 -0.672 Q 0.897 -0.686 0.915 -0.686 Q 0.934 -0.686 0.934 -0.674 Q 0.934 -0.67 0.929 -0.66 Q 0.847 -0.517 0.8015 -0.3815 Q 0.756 -0.246 0.756 -0.149 Q 0.756 -0.088 0.768 -0.064 Q 0.78 -0.04 0.8170000000000001 -0.04 Q 0.833 -0.069 0.869 -0.088 Q 0.905 -0.107 0.927 -0.107 Q 0.9450000000000001 -0.107 0.9450000000000001 -0.094 Q 0.9450000000000001 -0.089 0.9415 -0.078 Q 0.9380000000000001 -0.067 0.916 -0.041 Q 0.894 -0.015 0.857 0.006 Q 0.787 0.047 0.716 0.047 Q 0.6900000000000001 0.047 0.672 0.038 Q 0.654 0.029 0.645 0.0175 Q 0.636 0.006 0.6315000000000001 -0.0155 Q 0.627 -0.037 0.6265000000000001 -0.05 Q 0.626 -0.063 0.626 -0.08700000000000001 Q 0.626 -0.183 0.679 -0.34700000000000003 Q 0.653 -0.334 0.619 -0.334 L 0.387 -0.334 Q 0.357 -0.231 0.3225 -0.14150000000000001 Q 0.28800000000000003 -0.052000000000000005 0.28 -0.04 Q 0.264 -0.019 0.231 -0.001 Q 0.198 0.017 0.177 0.017 Q 0.158 0.017 0.158 0.004 Q 0.158 -0.001 0.165 -0.015 Q 0.23500000000000001 -0.185 0.2725 -0.331 Q 0.31 -0.47700000000000004 0.31 -0.552 Q 0.31 -0.561 0.308 -0.5695 Q 0.306 -0.578 0.2935 -0.5885 Q 0.281 -0.599 0.259 -0.599 Q 0.214 -0.599 0.184 -0.588 Q 0.165 -0.58 0.153 -0.538 Q 0.14200000000000002 -0.506 0.10400000000000001 -0.484 Q 0.066 -0.46 0.04 -0.46 Q 0.022 -0.46 0.022 -0.47300000000000003 Q 0.022 -0.47600000000000003 0.0245 -0.486 Q 0.027 -0.496 0.038 -0.5185 Q 0.049 -0.541 0.067 -0.562 Q 0.106 -0.609 0.1835 -0.6475 Q 0.261 -0.686 0.354 -0.686 Q 0.401 -0.686 0.4205 -0.6645 Q 0.44 -0.643 0.44 -0.614 Q 0.44 -0.528 0.40700000000000003 -0.40800000000000003 Q 0.434 -0.421 0.468 -0.421 Z"/></g></g></g></g></g></svg>