<?xml version="1.0" encoding="UTF-8"?>
<!DOCTYPE svg PUBLIC "-//W3C//DTD SVG 1.1//EN" "http://www.w3.org/Graphics/SVG/1.1/DTD/svg11.dtd">
<svg version="1.2" xmlns="http://www.w3.org/2000/svg" xmlns:xlink="http://www.w3.org/1999/xlink" x="0" y="0" width="550" height="160" viewBox="0 0 550 160">
<style type="text/css"><![CDATA[
text { font:12px Dialog; }
]]></style>
<rect x="-485" y="-485" width="1520" height="1130" style="fill:rgb(255,255,255);stroke:none" />
<clipPath id="clip1"><path d="M15,15 L535,15 L535,145 L15,145 Z M26,71 C21.5817184,71 18,74.5817184 18,79 L18,118 C18,122.4182816 21.5817184,126 26,126 L171,126 C175.4182739,126 179,122.4182816 179,118 L179,79 C179,74.5817184 175.4182739,71 171,71 Z M26,71" /></clipPath>
<path d="M188.9998779,98.9502487 L188.9998779,80.6650009 C188.9998779,76.2490005 192.5838776,72.6650009 196.9998779,72.6650009 L215,72.6650009" style="fill:none;stroke:rgb(85,142,213)" clip-path="url(#clip1)" />
<clipPath id="clip2"><path d="M15,15 L535,15 L535,145 L15,145 Z M26,71 C21.5817184,71 18,74.5817184 18,79 L18,118 C18,122.4182816 21.5817184,126 26,126 L171,126 C175.4182739,126 179,122.4182816 179,118 L179,79 C179,74.5817184 175.4182739,71 171,71 Z M26,71" /></clipPath>
<path d="M188.9998779,98.9502487 L188.9998779,117.6650009 C188.9998779,122.0810013 192.5838776,125.6650009 196.9998779,125.6650009 L215,125.6650009" style="fill:none;stroke:rgb(85,142,213)" clip-path="url(#clip2)" />
<clipPath id="clip3"><path d="M14,14 L536,14 L536,146 L14,146 L14,14 Z" /></clipPath>
<path d="M179,98.9004974 L188.9998779,98.9502487" style="fill:none;stroke:rgb(85,142,213)" clip-path="url(#clip3)" />
<clipPath id="clip4"><path d="M14,67 L184,67 L184,131 L14,131 L14,67 Z" /></clipPath>
<path d="M26,71 C21.5817184,71 18,74.5817184 18,79 L18,118 C18,122.4182816 21.5817184,126 26,126 L171,126 C175.4182739,126 179,122.4182816 179,118 L179,79 C179,74.5817184 175.4182739,71 171,71 Z M26,71" style="fill:rgb(220,230,242);stroke:none" clip-path="url(#clip4)" />
<clipPath id="clip5"><path d="M14,67 L184,67 L184,131 L14,131 L14,67 Z" /></clipPath>
<path d="M26,71 C21.5817184,71 18,74.5817184 18,79 L18,118 C18,122.4182816 21.5817184,126 26,126 L171,126 C175.4182739,126 179,122.4182816 179,118 L179,79 C179,74.5817184 175.4182739,71 171,71 Z M26,71" style="fill:none;stroke:rgb(85,142,213);stroke-width:5" clip-path="url(#clip5)" />
<clipPath id="clip6"><path d="M50,87 L148,87 L148,111 L50,111 L50,87 Z" /></clipPath>
<path d="M65.1690063,94.4459991 L70.8570023,94.4459991 L70.8570023,92.7720032 L65.7450027,92.7720032 C65.8890076,92.1959991 66.0330048,91.6019974 66.1589966,90.9540024 L64.3950043,90.6300049 C63.9630013,93.1320038 63.1350021,95.1299973 61.9110031,96.6240005 L62.9910011,97.9560013 C63.8730011,97.0200043 64.5930023,95.8499985 65.1690063,94.4459991 Z M67.0950012,95.3639984 L65.7089996,96.2279968 C66.5910034,97.3980026 67.2929993,98.4599991 67.8150024,99.4319992 L69.2369995,98.4599991 C68.7330017,97.5780029 68.0310059,96.552002 67.0950012,95.3639984 Z M59.7330017,90.7200012 L59.7330017,99.6839981 L61.4430008,99.6839981 L61.4430008,90.7200012 L59.7330017,90.7200012 Z M56.0250015,91.6019974 L56.0250015,99.0179977 L57.7170029,99.0179977 L57.7170029,91.6019974 L56.0250015,91.6019974 Z M69.5070038,100.3499985 L56.7990036,100.3499985 L56.7990036,105.3180008 L54.9090004,105.3180008 L54.9090004,106.8479996 L71.3070068,106.8479996 L71.3070068,105.3180008 L69.5070038,105.3180008 L69.5070038,100.3499985 Z M58.4550018,105.3180008 L58.4550018,101.8980026 L60.4350014,101.8980026 L60.4350014,105.3180008 L58.4550018,105.3180008 Z M62.0910034,105.3180008 L62.0910034,101.8980026 L64.1430054,101.8980026 L64.1430054,105.3180008 L62.0910034,105.3180008 Z M65.7990036,105.3180008 L65.7990036,101.8980026 L67.8509979,101.8980026 L67.8509979,105.3180008 L65.7990036,105.3180008 Z M76.598999,90.7559967 L76.598999,93.6719971 L73.6650009,93.6719971 L73.6650009,95.076004 L76.8509979,95.076004 L76.8509979,98.7300034 L78.4349976,98.7300034 L78.4349976,95.076004 L81.7290039,95.076004 L81.7290039,93.6719971 L78.1650009,93.6719971 L78.1650009,92.826004 L81.1350021,92.826004 L81.1350021,91.5299988 L78.1650009,91.5299988 L78.1650009,90.7559967 L76.598999,90.7559967 Z M87.3090057,99.0540009 L75.8070068,99.0540009 L75.8070068,107.4240036 L77.4629974,107.4240036 L77.4629974,106.7399979 L85.6529999,106.7399979 L85.6529999,107.4059982 L87.3090057,107.4059982 L87.3090057,99.0540009 Z M77.4629974,105.4440002 L77.4629974,104.526001 L85.6529999,104.526001 L85.6529999,105.4440002 L77.4629974,105.4440002 Z M77.4629974,103.3379974 L77.4629974,102.4020004 L85.6529999,102.4020004 L85.6529999,103.3379974 L77.4629974,103.3379974 Z M77.4629974,101.2320023 L77.4629974,100.3499985 L85.6529999,100.3499985 L85.6529999,101.2320023 L77.4629974,101.2320023 Z M80.2890015,95.4720001 L78.9930038,95.8860016 C79.4430008,96.6419983 79.8570023,97.5060043 80.253006,98.4780045 L81.477005,97.9380035 C81.1529999,97.0559998 80.7570038,96.2279968 80.2890015,95.4720001 Z M82.5750046,93.2399979 C82.8990021,94.3740005 83.4930038,95.4000015 84.3570023,96.3000031 C83.637001,96.7320023 82.7910004,97.0920029 81.8190002,97.3980026 L82.5570068,98.8199997 C83.7089996,98.4240036 84.6990051,97.9199982 85.5630035,97.326004 C86.4449997,97.9380035 87.5429993,98.4780045 88.8390045,98.9280014 L89.5770035,97.5419998 C88.4970016,97.1640015 87.5610046,96.75 86.7870026,96.3000031 C87.6870041,95.4000015 88.3349991,94.3560028 88.7310028,93.1500015 L88.7310028,91.7639999 L81.8550034,91.7639999 L81.8550034,93.2399979 L82.5750046,93.2399979 Z M85.5270004,95.4000015 C84.7710037,94.7519989 84.3030014,94.0319977 84.1050034,93.2399979 L87.0210037,93.2399979 C86.6970062,94.0319977 86.1930008,94.7519989 85.5270004,95.4000015 Z M74.9790039,95.4720001 C74.6730042,96.4800034 74.1690063,97.4160004 73.4850006,98.2799988 L74.7089996,99.0540009 C75.4290009,98.1180038 75.9869995,97.0200043 76.401001,95.7600021 L74.9790039,95.4720001 Z M91.9530029,93.8339996 L91.9530029,95.4899979 L100.6650009,95.4899979 C100.8090057,97.6679993 101.0790024,99.576004 101.4570007,101.2320023 C102.5370026,105.2099991 103.9410019,107.2440033 105.6689987,107.352005 C106.6949997,107.3339996 107.4690018,105.9840012 108.0090027,103.3199997 L106.4609985,102.5279999 C106.137001,104.4360046 105.8310013,105.4080048 105.5610046,105.4260025 C105.0569992,105.4260025 104.427002,104.4179993 103.6710052,102.4199982 C103.0590057,100.5480042 102.6450043,98.2259979 102.4290009,95.4899979 L107.7389984,95.4899979 L107.7389984,93.8339996 L105.3270035,93.8339996 L106.6050034,93.2040024 C106.1010056,92.340004 105.5610046,91.5660019 105.003006,90.8460007 L103.598999,91.512001 C104.1570053,92.1959991 104.6790009,92.9700012 105.1470032,93.8339996 L102.3390045,93.8339996 C102.2850037,92.8619995 102.2669983,91.8540039 102.2669983,90.7919998 L100.503006,90.7919998 C100.503006,91.8359985 100.5210037,92.8619995 100.5750046,93.8339996 L91.9530029,93.8339996 Z M92.2050018,98.1180038 L92.2050018,99.7200012 L95.2290039,99.7200012 L95.2290039,104.1839981 C94.0950012,104.3639984 92.9430008,104.526001 91.7910004,104.6699982 L92.1870041,106.2900009 C95.1930008,105.8580017 98.0190048,105.3180008 100.6470032,104.6880035 L100.6470032,103.0139999 C99.4230042,103.3379974 98.1809998,103.6259995 96.9210052,103.8779984 L96.9210052,99.7200012 L99.9449997,99.7200012 L99.9449997,98.1180038 L92.2050018,98.1180038 Z M125.9550018,94.2840042 L122.6430054,94.2840042 C123.2550049,93.473999 123.848999,92.4840012 124.4430008,91.314003 L122.6790009,90.6660004 C122.1389999,91.961998 121.5090027,93.1679993 120.7710037,94.2840042 L114.0210037,94.2840042 L115.1730042,93.7080002 C114.5970001,92.6999969 113.9850006,91.7639999 113.3730011,90.9360046 L111.8250046,91.6920013 C112.4370041,92.447998 113.0310059,93.3120041 113.6070023,94.2840042 L110.3670044,94.2840042 L110.3670044,98.6399994 L112.0590057,98.6399994 L112.0590057,95.9219971 L124.2450027,95.9219971 L124.2450027,98.6399994 L125.9550018,98.6399994 L125.9550018,94.2840042 Z M113.3010025,97.0559998 L113.3010025,98.5680008 L120.572998,98.5680008 C119.8170013,98.9459991 118.7910004,99.4140015 117.5310059,99.9540024 L117.5310059,101.3219986 L110.4210052,101.3219986 L110.4210052,102.9420013 L117.5310059,102.9420013 L117.5310059,105.1019974 C117.5310059,105.552002 117.3330002,105.7860031 116.9550018,105.7860031 C116.1809998,105.7860031 115.4790039,105.7679977 114.8310013,105.75 L115.2450027,107.2980042 L117.5310059,107.2980042 C118.6650009,107.2980042 119.2410049,106.7580032 119.2410049,105.6959991 L119.2410049,102.9420013 L125.9550018,102.9420013 L125.9550018,101.3219986 L119.2410049,101.3219986 L119.2410049,100.6920013 C120.6450043,100.0080032 121.9049988,99.3059998 123.0390015,98.5680008 L123.0390015,97.0559998 L113.3010025,97.0559998 Z M117.6750031,90.576004 L116.1269989,91.3320007 C116.7389984,92.1959991 117.3150024,93.1679993 117.8550034,94.2659988 L119.3850021,93.4920044 C118.8450012,92.4300003 118.2690048,91.4580002 117.6750031,90.576004 Z M139.0050049,99 C136.3049927,100.6559982 133.0650024,102.0419998 129.3209991,103.1940002 L130.0050049,104.7600021 C133.7669983,103.5360031 136.8990021,102.1320038 139.4190063,100.5480042 L139.0050049,99 Z M132.1110077,94.8779984 L130.9049988,96.0299988 C132.4530029,97.1999969 133.677002,98.2799988 134.5410004,99.288002 L135.7109985,98.0999985 C134.7389984,97.0200043 133.5330048,95.9580002 132.1110077,94.8779984 Z M137.1869965,107.262001 C138.3569946,107.2259979 139.32901,107.2080002 140.1029968,107.1900024 C141.0930023,107.1900024 141.7770081,106.8840027 142.1369934,106.2720032 C142.4970093,105.6600037 142.7310028,104.5080032 142.803009,102.8160019 C142.875,101.6279984 142.9830017,97.9199982 143.0910034,91.7279968 L129.7709961,91.7279968 L129.7709961,93.3659973 L141.3809967,93.3659973 C141.3269958,97.685997 141.2910004,100.4400024 141.2550049,101.6640015 C141.201004,103.4100037 141.0570068,104.526001 140.822998,104.9940033 C140.5890045,105.4260025 140.2290039,105.6600037 139.7610016,105.6600037 C138.753006,105.6600037 137.727005,105.6419983 136.7189941,105.6240005 L137.1869965,107.262001 Z M145.503006,105.5159988" style="fill:rgb(55,96,146);stroke:none" clip-path="url(#clip6)" />
<clipPath id="clip7"><path d="M214,15 L535,15 L535,97 L214,97 Z M220,55 C217.2385712,55 215,57.238575 215,60 L215,85 C215,87.7614288 217.2385712,90 220,90 L276,90 C278.7614136,90 281,87.7614288 281,85 L281,60 C281,57.238575 278.7614136,55 276,55 Z M220,55" /></clipPath>
<path d="M293.9998169,72.7299957 L293.9998169,52 L304,52" style="fill:none;stroke:rgb(85,142,213)" clip-path="url(#clip7)" />
<clipPath id="clip8"><path d="M214,15 L535,15 L535,97 L214,97 Z M220,55 C217.2385712,55 215,57.238575 215,60 L215,85 C215,87.7614288 217.2385712,90 220,90 L276,90 C278.7614136,90 281,87.7614288 281,85 L281,60 C281,57.238575 278.7614136,55 276,55 Z M220,55" /></clipPath>
<path d="M293.9998169,72.7299957 L293.9998169,95 L304,95" style="fill:none;stroke:rgb(85,142,213)" clip-path="url(#clip8)" />
<clipPath id="clip9"><path d="M213,14 L536,14 L536,98 L213,98 L213,14 Z" /></clipPath>
<path d="M281,72.6650009 L293.9998169,72.7299957" style="fill:none;stroke:rgb(85,142,213)" clip-path="url(#clip9)" />
<clipPath id="clip10"><path d="M213,53 L284,53 L284,93 L213,93 L213,53 Z" /></clipPath>
<path d="M220,55 C217.2385712,55 215,57.238575 215,60 L215,85 C215,87.7614288 217.2385712,90 220,90 L276,90 C278.7614136,90 281,87.7614288 281,85 L281,60 C281,57.238575 278.7614136,55 276,55 Z M220,55" style="fill:rgb(220,230,242);stroke:none" clip-path="url(#clip10)" />
<clipPath id="clip11"><path d="M213,53 L284,53 L284,93 L213,93 L213,53 Z" /></clipPath>
<path d="M220,55 C217.2385712,55 215,57.238575 215,60 L215,85 C215,87.7614288 217.2385712,90 220,90 L276,90 C278.7614136,90 281,87.7614288 281,85 L281,60 C281,57.238575 278.7614136,55 276,55 Z M220,55" style="fill:none;stroke:rgb(85,142,213);stroke-width:2" clip-path="url(#clip11)" />
<clipPath id="clip12"><path d="M229,62 L268,62 L268,84 L229,84 L229,62 Z" /></clipPath>
<path d="M237.7120056,65.9840012 C237.0720062,67.1999969 236.3680115,68.2400055 235.6000061,69.1360016 C234.7200012,70.1439972 233.7280121,70.9599991 232.6399994,71.5839996 L233.2640076,72.5920029 C234.5920105,71.6959991 235.6640015,70.7839966 236.4640045,69.8560028 C237.2160034,69.0080032 237.9680023,67.9199982 238.7200012,66.5920029 L237.7120056,65.9840012 Z M238.2400055,73.1200027 C237.904007,74.6240005 237.4080048,75.840004 236.7360077,76.7680054 C235.9840088,77.7279968 234.8639984,78.6080017 233.3919983,79.4080048 L234.128006,80.3680038 C235.7600098,79.4560013 236.9920044,78.4319992 237.8079987,77.2799988 C238.4960022,76.2559967 239.0240021,74.8639984 239.4080048,73.1200027 L243.3919983,73.1200027 C243.3120117,75.6159973 243.1360016,77.2320023 242.8480072,78 C242.576004,78.7360001 242.0160065,79.1040039 241.1520081,79.1040039 C240.3200073,79.1040039 239.4400024,79.0879974 238.5120087,79.0559998 L238.8320007,80.1920013 L241.7440033,80.1920013 C242.5440063,80.1439972 243.1200104,79.8880005 243.4720001,79.4240036 C243.8400116,78.9440002 244.0960083,78.0800018 244.256012,76.8639984 C244.4160004,75.6320038 244.5120087,74.0159988 244.5599976,72.0159988 L235.0080109,72.0159988 L235.0080109,73.1200027 L238.2400055,73.1200027 Z M242.223999,65.776001 L241.2320099,66.3359985 C242.2080078,68.8639984 243.9360046,70.9280014 246.4160004,72.5279999 L247.1840057,71.6159973 C244.8000031,70.1920013 243.1520081,68.2400055 242.223999,65.776001 Z M256.8480225,70.9759979 C258.6400146,71.5999985 260.4160156,72.4160004 262.1439819,73.4240036 L262.7680054,72.4640045 C260.9760132,71.5839996 258.9920044,70.8320007 256.8480225,70.1920013 L256.8480225,69.9039993 L263.0079956,69.9039993 L263.0079956,68.8320007 L256.8480225,68.8320007 L256.8480225,65.6320038 L255.6640015,65.6320038 L255.6640015,68.8320007 L249.5039978,68.8320007 L249.5039978,69.9039993 L254.5599976,69.9039993 C253.6640015,70.9280014 251.9680023,71.840004 249.4880066,72.6399994 L250.1119995,73.6320038 C252.7840118,72.5920029 254.6080017,71.3440018 255.5680084,69.9039993 L255.6640015,69.9039993 L255.6640015,72.8160019 L256.8480225,72.8160019 L256.8480225,70.9759979 Z M256.0480042,76.223999 C257.552002,78.1760025 259.8079834,79.5360031 262.7839966,80.3199997 L263.3599854,79.2960052 C260.6560059,78.6560059 258.5599976,77.5360031 257.0559998,75.9199982 L263.1359863,75.9199982 L263.1359863,74.8479996 L256.5920105,74.8479996 C256.7200012,74.3840027 256.8320007,73.8720016 256.8959961,73.3280029 L255.7120056,73.3280029 C255.6480103,73.8720016 255.5360107,74.3680038 255.3760071,74.8479996 L249.3760071,74.8479996 L249.3760071,75.9199982 L254.9120026,75.9199982 C254.6560059,76.3840027 254.3200073,76.8000031 253.9360046,77.1679993 C252.9600067,78.064003 251.3760071,78.7519989 249.1840057,79.2320023 L249.6320038,80.3040009 C252.0800018,79.7120056 253.8240051,78.9120026 254.8639984,77.8880005 C255.3440094,77.4080048 255.7280121,76.8479996 256.0480042,76.223999 Z M252.352005,65.8720016 L251.3600006,66.2080002 C251.8720093,66.8959961 252.2880096,67.6159973 252.6080017,68.352005 L253.5839996,68.0960007 C253.2320099,67.2639999 252.8160095,66.512001 252.352005,65.8720016 Z M260.1119995,65.8399963 C259.7600098,66.7200012 259.3280029,67.4560013 258.8320007,68.0319977 L259.7919922,68.3840027 C260.3359985,67.7120056 260.7839966,66.9600067 261.1199951,66.0960007 L260.1119995,65.8399963 Z M264.256012,78.7200012" style="fill:rgb(23,55,94);stroke:none" clip-path="url(#clip12)" />
<clipPath id="clip13"><path d="M302,15 L535,15 L535,68 L302,68 Z M304,28 L304,51 L360,51 L360,28 Z M304,28" /></clipPath>
<path d="M373,52 C375.4444275,43.3333321 379.1111145,39 384,39" style="fill:none;stroke:rgb(85,142,213)" clip-path="url(#clip13)" />
<clipPath id="clip14"><path d="M302,15 L535,15 L535,68 L302,68 Z M304,28 L304,51 L360,51 L360,28 Z M304,28" /></clipPath>
<path d="M373,52 C375.4444275,61.3333321 379.1111145,66 384,66" style="fill:none;stroke:rgb(85,142,213)" clip-path="url(#clip14)" />
<clipPath id="clip15"><path d="M301,14 L536,14 L536,69 L301,69 L301,14 Z" /></clipPath>
<path d="M360,52 L373,52" style="fill:none;stroke:rgb(85,142,213)" clip-path="url(#clip15)" />
<clipPath id="clip16"><path d="M301,25 L364,25 L364,55 L301,55 L301,25 Z" /></clipPath>
<path d="M304,52 L360,52 Z M304,52" style="fill:none;stroke:rgb(85,142,213);stroke-width:3" clip-path="url(#clip16)" />
<clipPath id="clip17"><path d="M315,30 L350,30 L350,50 L315,50 L315,30 Z" /></clipPath>
<path d="M323.3970032,43.6959991 C322.0249939,44.2280006 320.414978,44.6620026 318.5670166,44.9700012 L318.6929932,45.9500008 C320.4570007,45.6280022 322.0249939,45.1940002 323.3970032,44.6620026 L323.3970032,43.6959991 Z M320.9049988,33.5739975 C320.3450012,35.2400017 319.6870117,36.723999 318.9309998,38.012001 C318.8049927,38.1940002 318.664978,38.3199997 318.5109863,38.3759995 L318.7489929,39.2999992 C319.5329895,39.2019997 320.3170166,39.1040001 321.0869751,38.9920006 C320.3590088,40.2940025 319.7290039,41.2180023 319.2109985,41.75 C319.0849915,41.8619995 318.9309998,41.9599991 318.7489929,42.0440025 L319.0289917,42.9680023 C320.3729858,42.7859993 321.7730103,42.4500008 323.242981,41.973999 L323.242981,41.0639992 C322.2349854,41.4000015 321.2269897,41.6660004 320.2189941,41.8619995 C321.0310059,40.868 322.0670166,39.1879997 323.2990112,36.8220024 L322.4030151,36.4860001 C322.1229858,37.0460014 321.8430176,37.5779991 321.5910034,38.0820007 C320.9609985,38.1800003 320.3309937,38.2639999 319.7009888,38.3199997 C320.4290161,37.2280006 321.1569824,35.7719994 321.8710022,33.9520035 L320.9049988,33.5739975 Z M330.1870117,36.1220016 L326.7009888,36.6119995 L326.7009888,33.6439972 L325.6929932,33.6439972 L325.6929932,36.7519989 L323.5509949,37.0600014 L323.7050171,37.9840012 L325.7210083,37.6900024 C325.7349854,38.3619995 325.7769775,39.0060005 325.8469849,39.6080017 L323.3129883,40.0139999 L323.4530029,40.9659996 L325.9729919,40.5600014 C326.0289917,40.9239998 326.0849915,41.2740021 326.1690063,41.6380005 C326.3369751,42.394001 326.5469971,43.0660019 326.8129883,43.6819992 C325.7769775,44.4519997 324.6149902,45.0400009 323.3269958,45.4599991 L323.914978,46.2719994 C325.1049805,45.9080009 326.2249756,45.3339996 327.2609863,44.5639992 C327.3450012,44.7460022 327.4570007,44.9140015 327.5830078,45.0820007 C328.1849976,45.9220009 328.8150024,46.3419991 329.4869995,46.3699989 C330.2149963,46.3699989 330.7749939,45.4319992 331.1669922,43.5839996 L330.3129883,43.0240021 C330.0609741,44.5219994 329.7390137,45.2779999 329.375,45.2779999 C329.0109863,45.2779999 328.6049805,44.9280014 328.1430054,44.2420006 C328.0869751,44.1580009 328.0449829,44.0600014 327.9890137,43.9760017 C328.8569946,43.2200012 329.6549988,42.2960014 330.3970032,41.2180023 L329.598999,40.6720009 C329.0109863,41.5680008 328.3389893,42.3520012 327.5830078,43.052002 C327.3869934,42.4920006 327.2189941,41.8619995 327.0789795,41.1339989 C327.0369873,40.9099998 326.9949951,40.6580009 326.96698,40.406002 L330.7189941,39.8180008 L330.5650024,38.8660011 L326.8549805,39.4540024 C326.7990112,38.8520012 326.757019,38.2220001 326.7290039,37.5499992 L330.3269958,37.0460014 L330.1870117,36.1220016 Z M328.2689819,33.6019974 L327.4849854,34.0920029 C328.1849976,34.7360001 328.7449951,35.3380013 329.1369934,35.8839989 L329.92099,35.3380013 C329.5289917,34.8479996 328.9830017,34.2740021 328.2689819,33.6019974 Z M333.1409912,36.3460007 C333.098999,37.6900024 332.9309998,38.9640007 332.6369934,40.1679993 L333.4630127,40.406002 C333.742981,39.1459999 333.9110107,37.802002 333.9389954,36.4020004 L333.1409912,36.3460007 Z M336.6549988,36.052002 L335.9129944,36.2900009 C336.2349854,37.0740013 336.5009766,37.9000015 336.7109985,38.7540016 L337.4110107,38.5720024 C337.2850037,38.8520012 337.1450195,39.1459999 336.9909973,39.4540024 L337.7330017,40.1259995 C338.2229919,39.2579994 338.6010132,38.3059998 338.8529968,37.2840004 L341.0369873,37.2840004 L341.0369873,40.6720009 L337.8309937,40.6720009 L337.8309937,41.6660004 L341.0369873,41.6660004 L341.0369873,45.0820007 L337.0329895,45.0820007 L337.0329895,46.0620003 L345.4890137,46.0620003 L345.4890137,45.0820007 L342.072998,45.0820007 L342.072998,41.6660004 L344.914978,41.6660004 L344.914978,40.6720009 L342.072998,40.6720009 L342.072998,37.2840004 L345.125,37.2840004 L345.125,36.3180008 L342.072998,36.3180008 L342.072998,33.6999969 L341.0369873,33.6999969 L341.0369873,36.3180008 L339.0350037,36.3180008 C339.1190186,35.7859993 339.1749878,35.2260017 339.2030029,34.6380005 L338.2929993,34.512001 C338.2229919,35.8980026 337.9429932,37.2000008 337.46698,38.4179993 C337.2290039,37.5219994 336.9630127,36.737999 336.6549988,36.052002 Z M334.6530151,33.685997 L334.6530151,46.4260025 L335.6749878,46.4260025 L335.6749878,33.685997 L334.6530151,33.685997 Z M346.1049805,45.0820007" style="fill:rgb(0,0,0);stroke:none" clip-path="url(#clip17)" />
<clipPath id="clip18"><path d="M382,15 L535,15 L535,41 L382,41 Z M384,17 L384,38 L446,38 L446,17 Z M384,17" /></clipPath>
<path d="M459,39 C461.4444275,39 465.1111145,39 470,39" style="fill:none;stroke:rgb(85,142,213)" clip-path="url(#clip18)" />
<clipPath id="clip19"><path d="M381,14 L536,14 L536,42 L381,42 L381,14 Z" /></clipPath>
<path d="M446,39 L459,39" style="fill:none;stroke:rgb(85,142,213)" clip-path="url(#clip19)" />
<clipPath id="clip20"><path d="M381,14 L450,14 L450,42 L381,42 L381,14 Z" /></clipPath>
<path d="M384,39 L446,39 Z M384,39" style="fill:none;stroke:rgb(85,142,213);stroke-width:3" clip-path="url(#clip20)" />
<clipPath id="clip21"><path d="M394,19 L437,19 L437,37 L394,37 L394,19 Z" /></clipPath>
<path d="M398.5059814,23.8180008 L398.5059814,24.6699982 L407.026001,24.6699982 L407.026001,23.8180008 L398.5059814,23.8180008 Z M397.4019775,31.3659973 L397.4019775,32.2420044 L408.117981,32.2420044 L408.117981,31.3659973 L397.4019775,31.3659973 Z M413.3500061,22.737999 C412.8699951,23.6500015 412.34198,24.4300003 411.7659912,25.1019974 C411.1059875,25.8580017 410.3619995,26.4700012 409.54599,26.9380035 L410.0139771,27.6940002 C411.0099792,27.0220032 411.8139954,26.3379974 412.4140015,25.6419983 C412.9779968,25.0060043 413.5419922,24.1900024 414.1059875,23.1940002 L413.3500061,22.737999 Z M413.7460022,28.090004 C413.493988,29.2180023 413.1219788,30.1299973 412.617981,30.826004 C412.0539856,31.5459976 411.2139893,32.2060013 410.1099854,32.8059998 L410.6619873,33.526001 C411.8859863,32.8420029 412.8099976,32.0739975 413.4219971,31.2099991 C413.9379883,30.4420013 414.3339844,29.3980026 414.6219788,28.090004 L417.6099854,28.090004 C417.5499878,29.961998 417.4179993,31.1740036 417.2019958,31.75 C416.9979858,32.302002 416.5780029,32.5780029 415.9299927,32.5780029 C415.3059998,32.5780029 414.6459961,32.5660019 413.9499817,32.5419998 L414.1900024,33.3939972 L416.3739929,33.3939972 C416.973999,33.3580017 417.4060059,33.1660004 417.6699829,32.8180008 C417.9459839,32.4580002 418.1380005,31.8099976 418.2579956,30.8980026 C418.3779907,29.973999 418.4499817,28.762001 418.4859924,27.262001 L411.321991,27.262001 L411.321991,28.090004 L413.7460022,28.090004 Z M416.7339783,22.5820007 L415.9899902,23.0019989 C416.7219849,24.8980026 418.0180054,26.4459991 419.8779907,27.6460037 L420.4539795,26.961998 C418.6659851,25.8939972 417.4299927,24.4300003 416.7339783,22.5820007 Z M427.7139893,26.4820023 C429.0579834,26.9500046 430.3899841,27.5620041 431.6860046,28.3180008 L432.1539917,27.5979996 C430.8099976,26.9380035 429.321991,26.3740005 427.7139893,25.8939972 L427.7139893,25.6780014 L432.3339844,25.6780014 L432.3339844,24.8740005 L427.7139893,24.8740005 L427.7139893,22.473999 L426.8259888,22.473999 L426.8259888,24.8740005 L422.2059937,24.8740005 L422.2059937,25.6780014 L425.9979858,25.6780014 C425.3259888,26.4459991 424.0539856,27.1299973 422.1940002,27.7300034 L422.6619873,28.473999 C424.6659851,27.6940002 426.0339966,26.7580032 426.7539978,25.6780014 L426.8259888,25.6780014 L426.8259888,27.8619995 L427.7139893,27.8619995 L427.7139893,26.4820023 Z M427.1139832,30.4179993 C428.2420044,31.8820038 429.9339905,32.9020004 432.1659851,33.4899979 L432.5979919,32.7220001 C430.5699768,32.2420044 428.9979858,31.4020004 427.8699951,30.1900024 L432.4299927,30.1900024 L432.4299927,29.3860016 L427.5220032,29.3860016 C427.617981,29.038002 427.7019958,28.6539993 427.75,28.2460022 L426.8619995,28.2460022 C426.8139954,28.6539993 426.7299805,29.026001 426.6099854,29.3860016 L422.1099854,29.3860016 L422.1099854,30.1900024 L426.2619934,30.1900024 C426.0699768,30.538002 425.8179932,30.8499985 425.5299988,31.1259995 C424.7980042,31.7980042 423.6099854,32.314003 421.9660034,32.6740036 L422.302002,33.4780045 C424.1380005,33.0340042 425.4459839,32.4339981 426.2259827,31.6660004 C426.5859985,31.3059998 426.8739929,30.8860016 427.1139832,30.4179993 Z M424.34198,22.6539993 L423.5979919,22.9059982 C423.9819946,23.4220047 424.2940063,23.961998 424.5339966,24.5139999 L425.2659912,24.3219986 C425.0019836,23.697998 424.6900024,23.1340027 424.34198,22.6539993 Z M430.1619873,22.6299973 C429.8979797,23.2900009 429.5740051,23.8420029 429.2019958,24.2740021 L429.9219971,24.538002 C430.3299866,24.0340042 430.6659851,23.4700012 430.9179993,22.8219986 L430.1619873,22.6299973 Z M433.269989,32.2900009" style="fill:rgb(0,0,0);stroke:none" clip-path="url(#clip21)" />
<clipPath id="clip22"><path d="M467,14 L536,14 L536,42 L467,42 L467,14 Z" /></clipPath>
<path d="M470,39 L532,39 Z M470,39" style="fill:none;stroke:rgb(85,142,213);stroke-width:3" clip-path="url(#clip22)" />
<clipPath id="clip23"><path d="M480,19 L523,19 L523,37 L480,37 L480,19 Z" /></clipPath>
<path d="M485.6640015,25.3300018 L485.6640015,26.038002 L489.6119995,26.038002 L489.6119995,25.3300018 L485.6640015,25.3300018 Z M485.9880066,26.8059998 L485.9880066,29.2540054 L489.3359985,29.2540054 L489.3359985,26.8059998 L485.9880066,26.8059998 Z M488.5320129,28.5820007 L486.8040161,28.5820007 L486.8040161,27.4780045 L488.5320129,27.4780045 L488.5320129,28.5820007 Z M493.6679993,23.5780029 L492.8640137,23.5780029 C492.7440186,23.1819992 492.6119995,22.8219986 492.480011,22.5100021 L491.7120056,22.6419983 C491.8560181,22.9300003 491.9880066,23.2420044 492.1080017,23.5780029 L490.8000183,23.5780029 C490.776001,23.2180023 490.776001,22.8460007 490.776001,22.4500046 L489.947998,22.4500046 C489.947998,22.8339996 489.947998,23.2180023 489.9720154,23.5780029 L484.2720032,23.5780029 L484.2720032,25.9420013 C484.2360229,27.3339996 483.9000244,28.4140015 483.2520142,29.1940002 L483.9000244,29.7820053 C484.6679993,28.8100052 485.0760193,27.526001 485.1119995,25.9420013 L485.1119995,24.3700027 L490.0080261,24.3700027 C490.0680237,25.3660049 490.1880188,26.1940002 490.3800049,26.8660049 C490.5240173,27.3580017 490.6920166,27.802002 490.8840027,28.1860046 C490.5,28.6180038 490.0680237,28.9780045 489.6000061,29.2540054 L490.0440063,29.9260025 C490.4760132,29.6620026 490.8960266,29.326004 491.2920227,28.9059982 C491.3400269,28.9780045 491.4120178,29.0620041 491.4840088,29.1460037 C491.928009,29.6259995 492.3840027,29.8779984 492.8640137,29.8779984 C493.3680115,29.8779984 493.8000183,29.2420044 494.1600037,27.9820023 L493.4640198,27.5740051 C493.223999,28.5699997 492.9960022,29.0740051 492.7799988,29.0740051 C492.5160217,29.0740051 492.2280273,28.8580017 491.9160156,28.4380035 L491.8080139,28.2700043 C492.3600159,27.5019989 492.8160095,26.5419998 493.1880188,25.3660049 L492.5160217,25.0180054 C492.2280273,25.9540024 491.8560181,26.7580032 491.4240112,27.4540024 C491.3040161,27.1539993 491.2080078,26.8180008 491.1240234,26.4459991 C490.980011,25.9059982 490.8840027,25.2099991 490.8359985,24.3700027 L493.6679993,24.3700027 L493.6679993,23.5780029 Z M484.6440125,30.0100021 C484.3560181,30.9700012 483.9120178,31.8460007 483.3120117,32.6380005 L484.0440063,33.1060028 C484.6440125,32.2779999 485.1000061,31.3059998 485.4360046,30.1780014 L484.6440125,30.0100021 Z M490.2720032,33.3100052 C490.7160034,33.3100052 491.0400085,33.2260056 491.256012,33.0579987 C491.4960022,32.8420029 491.6520081,32.2779999 491.723999,31.3420029 L490.90802,31.0660019 C490.8600159,31.762001 490.7640076,32.1699982 490.6440125,32.314003 C490.5360107,32.4340057 490.3560181,32.4940033 490.1159973,32.4940033 L487.5599976,32.4940033 C487.2600098,32.4940033 487.1159973,32.326004 487.1159973,31.9900055 L487.1159973,29.8779984 L486.2400208,29.8779984 L486.2400208,32.1699982 C486.2400208,32.9260025 486.5880127,33.3100052 487.2960205,33.3100052 L490.2720032,33.3100052 Z M492.5400085,30.262001 L491.8440247,30.6940002 C492.5400085,31.473999 493.0800171,32.1940002 493.4880066,32.8420029 L494.1719971,32.3499985 C493.8000183,31.75 493.2600098,31.0540009 492.5400085,30.262001 Z M488.7000122,29.6740036 L488.052002,30.0699997 C488.6040039,30.6699982 489.0360107,31.2220001 489.3480225,31.7260056 L489.9960022,31.2700043 C489.6960144,30.814003 489.2640076,30.2740021 488.7000122,29.6740036 Z M505.8720093,23.7700043 L501.8520203,23.7700043 L501.8520203,32.973999 L502.6800232,32.973999 L502.6800232,32.1819992 L505.0320129,32.1819992 L505.0320129,32.9500046 L505.8720093,32.9500046 L505.8720093,23.7700043 Z M502.6800232,31.3779984 L502.6800232,24.5740051 L505.0320129,24.5740051 L505.0320129,31.3779984 L502.6800232,31.3779984 Z M497.3160095,24.9340057 L498.480011,24.9340057 C498.4680176,25.7980042 498.4200134,26.602005 498.3240051,27.3219986 L495.6960144,27.3219986 L495.6960144,28.1500015 L498.20401,28.1500015 C498.1440125,28.4620056 498.0720215,28.762001 498,29.0500031 C497.5920105,30.4540024 496.7520142,31.6180038 495.480011,32.5419998 L496.0440063,33.237999 C497.3160095,32.326004 498.1920166,31.1980057 498.684021,29.8540039 C499.2480164,30.4780045 499.9320068,31.3540039 500.7480164,32.5060043 L501.2640076,31.7140045 C500.4720154,30.7300034 499.6800232,29.8420029 498.9120178,29.0620041 C498.9840088,28.7740021 499.0440063,28.4620056 499.1040039,28.1500015 L501.2280273,28.1500015 L501.2280273,27.3219986 L499.223999,27.3219986 C499.3080139,26.602005 499.3560181,25.7980042 499.3680115,24.9340057 L501.1200256,24.9340057 L501.1200256,24.1060028 L497.6520081,24.1060028 C497.8200073,23.6500015 497.9760132,23.1580048 498.1200256,22.6419983 L497.2680054,22.4620056 C496.90802,23.8420029 496.3440247,25.102005 495.552002,26.2540054 L496.3080139,26.7340012 C496.6800232,26.1819992 497.0160217,25.5820007 497.3160095,24.9340057 Z M507.9000244,24.8499985 L507.9000244,25.6780014 L509.6520081,25.6780014 C509.256012,27.1780014 508.5960083,28.5100021 507.6719971,29.6740036 L508.0440063,30.6100006 C508.7160034,29.6259995 509.2680054,28.5460052 509.6880188,27.3460007 L509.6880188,33.4420013 L510.552002,33.4420013 L510.552002,27.1180038 C510.8880005,27.5859985 511.2840271,28.1980057 511.7400208,28.9540024 L512.2440186,28.2099991 C511.6679993,27.5019989 511.1040039,26.8660049 510.552002,26.2900009 L510.552002,25.6780014 L512.0400391,25.6780014 L512.0400391,24.8499985 L510.552002,24.8499985 L510.552002,22.5100021 L509.6880188,22.5100021 L509.6880188,24.8499985 L507.9000244,24.8499985 Z M511.4760132,32.9140015 L512.184021,33.5500031 C512.7480469,32.6860046 513.132019,31.7980042 513.3359985,30.8619995 C513.552002,29.973999 513.6600342,28.8700027 513.6600342,27.5500031 L513.6600342,23.8180008 L515.7960205,23.8180008 L515.7960205,32.1699982 C515.7960205,32.8660049 516.1800537,33.2140045 516.947998,33.2140045 L517.4400024,33.2140045 C517.8239746,33.2140045 518.1119995,33.1419983 518.3040161,33.0100021 C518.4959717,32.8420029 518.6159668,32.5540009 518.6640015,32.1220016 C518.7120361,31.6660004 518.7480469,31.0180054 518.7480469,30.1539993 L517.9560547,29.9020004 C517.9560547,31.0540009 517.9200439,31.737999 517.8720093,31.9780045 C517.8480225,32.1460037 517.7880249,32.2540054 517.6920166,32.326004 C517.6080322,32.3740005 517.5,32.3980026 517.3560181,32.3980026 L516.947998,32.3980026 C516.7559814,32.3980026 516.6719971,32.2900009 516.6719971,32.0859985 L516.6719971,23.0019989 L512.7960205,23.0019989 L512.7960205,27.5500031 C512.7960205,28.7860031 512.7120361,29.7700043 512.5560303,30.5019989 C512.3520508,31.3540039 511.9920044,32.1580048 511.4760132,32.9140015 Z M519.2039795,32.302002" style="fill:rgb(255,3,3);stroke:none" clip-path="url(#clip23)" />
<clipPath id="clip24"><path d="M381,41 L450,41 L450,69 L381,69 L381,41 Z" /></clipPath>
<path d="M384,66 L446,66 Z M384,66" style="fill:none;stroke:rgb(85,142,213);stroke-width:3" clip-path="url(#clip24)" />
<clipPath id="clip25"><path d="M394,46 L437,46 L437,64 L394,64 L394,46 Z" /></clipPath>
<path d="M402.4599915,49.461998 C401.4039917,50.6139984 399.8079834,51.382 397.6719971,51.7899971 L398.1759949,52.5819969 C399.4599915,52.2939987 400.5639954,51.8739967 401.5,51.3219986 L405.0039978,51.3219986 C404.3320007,52.3059998 403.3599854,53.0619965 402.1119995,53.5659981 C401.7279968,53.0859985 401.3200073,52.6539993 400.8880005,52.2459984 L400.1319885,52.605999 C400.5400085,52.9779968 400.9360046,53.3979988 401.3079834,53.8539963 C400.4440002,54.105999 399.4840088,54.2619972 398.4039917,54.3339996 L398.776001,55.1139984 C402.2799988,54.8379974 404.6919861,53.5419998 405.9880066,51.237999 L405.9880066,50.553997 L402.5440063,50.553997 C402.7839966,50.3379974 403.0119934,50.1099968 403.2279968,49.8699989 L402.4599915,49.461998 Z M402.0039978,56.961998 L401.2359924,57.3219986 C401.6799927,57.7539978 402.1000061,58.2459984 402.5079956,58.7859993 C401.1520081,59.2419968 399.5319824,59.4699974 397.6600037,59.4819984 L398.0079956,60.3099976 C402.6640015,60.2019997 405.8320007,58.737999 407.5360107,55.9059982 L407.5360107,55.2219963 L404.2479858,55.2219963 C404.5839844,54.9699974 404.8840027,54.6939964 405.1719971,54.4059982 L404.428009,53.9979973 C403.1799927,55.317997 401.2479858,56.1219978 398.6319885,56.3859978 L399.1480103,57.1539993 C400.6000061,56.9019966 401.8479919,56.5179977 402.9039917,56.0139999 L406.4559937,56.0139999 C405.6879883,57.0699997 404.6439819,57.8979988 403.3119812,58.473999 C402.9039917,57.9339981 402.4599915,57.4299965 402.0039978,56.961998 Z M413.0920105,49.75 C412.6119995,50.6619987 412.0839844,51.4419975 411.5079956,52.1139984 C410.8479919,52.8699989 410.1040039,53.4819984 409.2879944,53.9499969 L409.7559814,54.7059975 C410.7519836,54.0339966 411.5559998,53.3499985 412.1560059,52.6539993 C412.7200012,52.0179977 413.2839966,51.2019997 413.8479919,50.2059975 L413.0920105,49.75 Z M413.4880066,55.1019974 C413.2359924,56.2299995 412.8639832,57.1419983 412.3599854,57.8379974 C411.79599,58.5579987 410.9559937,59.2179985 409.8519897,59.817997 L410.4039917,60.5379982 C411.6279907,59.8539963 412.552002,59.0859985 413.1640015,58.2219963 C413.6799927,57.4539986 414.0759888,56.4099998 414.3639832,55.1019974 L417.3519897,55.1019974 C417.2919922,56.973999 417.1600037,58.185997 416.9440002,58.7619972 C416.7399902,59.3139992 416.3200073,59.5899963 415.6719971,59.5899963 C415.0480042,59.5899963 414.3880005,59.5779991 413.6919861,59.553997 L413.9320068,60.4059982 L416.1159973,60.4059982 C416.7160034,60.3699989 417.1480103,60.1779976 417.4119873,59.829998 C417.6879883,59.4699974 417.8800049,58.8219986 418,57.9099998 C418.1199951,56.9859962 418.1919861,55.7739983 418.2279968,54.2739983 L411.0639954,54.2739983 L411.0639954,55.1019974 L413.4880066,55.1019974 Z M416.4759827,49.593998 L415.7319946,50.0139999 C416.4639893,51.9099998 417.7600098,53.4579964 419.6199951,54.6579971 L420.1959839,53.973999 C418.4079895,52.9059982 417.1719971,51.4419975 416.4759827,49.593998 Z M427.4559937,53.4939995 C428.7999878,53.961998 430.1319885,54.5739975 431.428009,55.329998 L431.8959961,54.6099968 C430.552002,53.9499969 429.0639954,53.3859978 427.4559937,52.9059982 L427.4559937,52.6899986 L432.0759888,52.6899986 L432.0759888,51.8859978 L427.4559937,51.8859978 L427.4559937,49.4859962 L426.5679932,49.4859962 L426.5679932,51.8859978 L421.947998,51.8859978 L421.947998,52.6899986 L425.7399902,52.6899986 C425.0679932,53.4579964 423.79599,54.1419983 421.9360046,54.7419968 L422.4039917,55.4859962 C424.4079895,54.7059975 425.776001,53.7699966 426.4960022,52.6899986 L426.5679932,52.6899986 L426.5679932,54.8739967 L427.4559937,54.8739967 L427.4559937,53.4939995 Z M426.8559875,57.4299965 C427.9840088,58.8939972 429.6759949,59.9139977 431.9079895,60.5019989 L432.3399963,59.7339973 C430.3119812,59.2539978 428.7399902,58.4139977 427.6119995,57.2019997 L432.1719971,57.2019997 L432.1719971,56.3979988 L427.2640076,56.3979988 C427.3599854,56.0499992 427.4440002,55.6659966 427.4920044,55.2579994 L426.6040039,55.2579994 C426.5559998,55.6659966 426.4719849,56.0379982 426.3519897,56.3979988 L421.8519897,56.3979988 L421.8519897,57.2019997 L426.0039978,57.2019997 C425.8119812,57.5499992 425.5599976,57.8619995 425.2720032,58.1379967 C424.5400085,58.8099976 423.3519897,59.3259964 421.7080078,59.685997 L422.0440063,60.4899979 C423.8800049,60.0459976 425.1879883,59.4459991 425.9679871,58.6779976 C426.3280029,58.317997 426.6159973,57.8979988 426.8559875,57.4299965 Z M424.0839844,49.6659966 L423.3399963,49.9179993 C423.723999,50.4339981 424.0360107,50.973999 424.276001,51.5259972 L425.0079956,51.3339996 C424.743988,50.7099991 424.4320068,50.1459999 424.0839844,49.6659966 Z M429.9039917,49.6419983 C429.6399841,50.3019981 429.3160095,50.8539963 428.9440002,51.2859993 L429.6640015,51.5499992 C430.071991,51.0459976 430.4079895,50.4819984 430.6600037,49.8339996 L429.9039917,49.6419983 Z M433.0119934,59.3019981" style="fill:rgb(0,0,0);stroke:none" clip-path="url(#clip25)" />
<clipPath id="clip26"><path d="M301,68 L378,68 L378,98 L301,98 L301,68 Z" /></clipPath>
<path d="M304,95 L374,95 Z M304,95" style="fill:none;stroke:rgb(85,142,213);stroke-width:3" clip-path="url(#clip26)" />
<clipPath id="clip27"><path d="M315,73 L364,73 L364,93 L315,93 L315,73 Z" /></clipPath>
<path d="M322.5849915,76.6300049 L322.5849915,78.8420029 L318.6369934,78.8420029 L318.6369934,79.8079987 L322.5849915,79.8079987 L322.5849915,81.9779968 L318.9589844,81.9779968 L318.9589844,82.9580002 L322.5849915,82.9580002 L322.5849915,85.1839981 L318.3150024,85.1839981 L318.3150024,86.1500015 L322.5849915,86.1500015 L322.5849915,89.4540024 L323.6210022,89.4540024 L323.6210022,76.6300049 L322.5849915,76.6300049 Z M325.8609924,76.6300049 L325.8609924,89.4540024 L326.8970032,89.4540024 L326.8970032,86.1500015 L331.0549927,86.1500015 L331.0549927,85.1839981 L326.8970032,85.1839981 L326.8970032,82.9580002 L330.5230103,82.9580002 L330.5230103,81.9779968 L326.8970032,81.9779968 L326.8970032,79.8079987 L330.8309937,79.8079987 L330.8309937,78.8420029 L326.8970032,78.8420029 L326.8970032,76.6300049 L325.8609924,76.6300049 Z M337.5930176,86.6679993 C336.2210083,87.1999969 334.6109924,87.6340027 332.7630005,87.9420013 L332.8889771,88.9219971 C334.6530151,88.5999985 336.2210083,88.1660004 337.5930176,87.6340027 L337.5930176,86.6679993 Z M335.1010132,76.5460052 C334.5410156,78.2120056 333.8829956,79.6959991 333.1270142,80.9840012 C333.0009766,81.1660004 332.8609924,81.2919998 332.7070007,81.3479996 L332.9450073,82.2720032 C333.7290039,82.1740036 334.5130005,82.076004 335.28302,81.9640045 C334.5549927,83.2659988 333.9249878,84.1900024 333.4069824,84.7220001 C333.2810059,84.8339996 333.1270142,84.9319992 332.9450073,85.0159988 L333.2249756,85.9400024 C334.5690002,85.7580032 335.9689941,85.4219971 337.4389954,84.9459991 L337.4389954,84.0360031 C336.4309998,84.3720016 335.4230042,84.6380005 334.414978,84.8339996 C335.2269897,83.840004 336.2630005,82.1600037 337.4949951,79.7939987 L336.598999,79.4580002 C336.3190002,80.0180054 336.0390015,80.5500031 335.7869873,81.0540009 C335.1569824,81.1520004 334.5269775,81.2360001 333.8970032,81.2919998 C334.625,80.1999969 335.3529968,78.7440033 336.0670166,76.9240036 L335.1010132,76.5460052 Z M344.3829956,79.0940018 L340.8970032,79.5839996 L340.8970032,76.6159973 L339.8889771,76.6159973 L339.8889771,79.723999 L337.7470093,80.0319977 L337.901001,80.9560013 L339.9169922,80.6620026 C339.9309998,81.3339996 339.9729919,81.9779968 340.0429993,82.5800018 L337.5090027,82.9860001 L337.6489868,83.9380035 L340.1690063,83.5319977 C340.2249756,83.8960037 340.2810059,84.2460022 340.3649902,84.6100006 C340.53302,85.3659973 340.742981,86.038002 341.0090027,86.6539993 C339.9729919,87.4240036 338.8110046,88.012001 337.5230103,88.4319992 L338.1109924,89.2440033 C339.3009949,88.8800049 340.42099,88.3059998 341.4570007,87.5360031 C341.5410156,87.7180023 341.6530151,87.8860016 341.7789917,88.0540009 C342.3809814,88.8939972 343.0109863,89.314003 343.6829834,89.3420029 C344.4110107,89.3420029 344.9710083,88.4039993 345.3629761,86.5559998 L344.5090027,85.9960022 C344.257019,87.4940033 343.9349976,88.25 343.5709839,88.25 C343.2070007,88.25 342.8009949,87.9000015 342.3389893,87.2140045 C342.28302,87.1300049 342.2409973,87.0319977 342.1849976,86.947998 C343.0529785,86.1920013 343.8510132,85.2679977 344.5930176,84.1900024 L343.7949829,83.6439972 C343.2070007,84.5400009 342.5350037,85.3240051 341.7789917,86.0240021 C341.5830078,85.4640045 341.414978,84.8339996 341.2749939,84.1060028 C341.2330017,83.8820038 341.190979,83.6300049 341.1629944,83.3779984 L344.914978,82.7900009 L344.7609863,81.8379974 L341.0509949,82.4260025 C340.9949951,81.8240051 340.9530029,81.1940002 340.9249878,80.5220032 L344.5230103,80.0180054 L344.3829956,79.0940018 Z M342.4649963,76.5740051 L341.6809998,77.064003 C342.3809814,77.7080002 342.940979,78.3099976 343.3330078,78.8560028 L344.1170044,78.3099976 C343.7249756,77.8199997 343.1790161,77.2460022 342.4649963,76.5740051 Z M347.3369751,79.3180008 C347.2949829,80.6620026 347.1270142,81.9360046 346.8330078,83.1399994 L347.6589966,83.3779984 C347.9389954,82.1179962 348.1069946,80.7740021 348.1350098,79.3740005 L347.3369751,79.3180008 Z M350.8510132,79.0240021 L350.1090088,79.262001 C350.4309998,80.0460052 350.696991,80.8720016 350.9069824,81.7259979 L351.6069946,81.5439987 C351.4810181,81.8240051 351.3410034,82.1179962 351.1870117,82.4260025 L351.9290161,83.0979996 C352.4190063,82.2300034 352.7969971,81.2779999 353.0490112,80.2559967 L355.2330017,80.2559967 L355.2330017,83.6439972 L352.0269775,83.6439972 L352.0269775,84.6380005 L355.2330017,84.6380005 L355.2330017,88.0540009 L351.2290039,88.0540009 L351.2290039,89.0339966 L359.6849976,89.0339966 L359.6849976,88.0540009 L356.2690125,88.0540009 L356.2690125,84.6380005 L359.1109924,84.6380005 L359.1109924,83.6439972 L356.2690125,83.6439972 L356.2690125,80.2559967 L359.3209839,80.2559967 L359.3209839,79.2900009 L356.2690125,79.2900009 L356.2690125,76.6719971 L355.2330017,76.6719971 L355.2330017,79.2900009 L353.2310181,79.2900009 C353.3150024,78.7580032 353.3710022,78.197998 353.3989868,77.6100006 L352.4890137,77.4840012 C352.4190063,78.8700027 352.1389771,80.1719971 351.6629944,81.3899994 C351.4249878,80.4940033 351.1589966,79.7099991 350.8510132,79.0240021 Z M348.848999,76.6580048 L348.848999,89.3980026 L349.8710022,89.3980026 L349.8710022,76.6580048 L348.848999,76.6580048 Z M360.3009949,88.0540009" style="fill:rgb(0,0,0);stroke:none" clip-path="url(#clip27)" />
<clipPath id="clip28"><path d="M213,106 L284,106 L284,146 L213,146 L213,106 Z" /></clipPath>
<path d="M220,108 C217.2385712,108 215,110.2385712 215,113 L215,138 C215,140.7614288 217.2385712,143 220,143 L276,143 C278.7614136,143 281,140.7614288 281,138 L281,113 C281,110.2385712 278.7614136,108 276,108 Z M220,108" style="fill:rgb(220,230,242);stroke:none" clip-path="url(#clip28)" />
<clipPath id="clip29"><path d="M213,106 L284,106 L284,146 L213,146 L213,106 Z" /></clipPath>
<path d="M220,108 C217.2385712,108 215,110.2385712 215,113 L215,138 C215,140.7614288 217.2385712,143 220,143 L276,143 C278.7614136,143 281,140.7614288 281,138 L281,113 C281,110.2385712 278.7614136,108 276,108 Z M220,108" style="fill:none;stroke:rgb(85,142,213);stroke-width:2" clip-path="url(#clip29)" />
<clipPath id="clip30"><path d="M229,115 L268,115 L268,137 L229,137 L229,115 Z" /></clipPath>
<path d="M236.6959991,123.1279984 L236.6959991,128.8240051 L242.8720093,128.8240051 L242.8720093,123.1279984 L236.6959991,123.1279984 Z M241.7840118,127.8479996 L237.7680054,127.8479996 L237.7680054,124.1200027 L241.7840118,124.1200027 L241.7840118,127.8479996 Z M246.1840057,119.6240005 L233.352005,119.6240005 L233.352005,133.0800018 L234.4720001,133.0800018 L234.4720001,132.3919983 L245.0640106,132.3919983 L245.0640106,133.0800018 L246.1840057,133.0800018 L246.1840057,119.6240005 Z M234.4720001,131.3679962 L234.4720001,120.6480026 L245.0640106,120.6480026 L245.0640106,131.3679962 L234.4720001,131.3679962 Z M252.8079987,118.6800003 L252.8079987,125.6240005 C252.776001,128.8079987 251.5600128,131.1279907 249.1920013,132.5679932 L250.0559998,133.3200073 C252.6000061,131.7039948 253.8960114,129.1439972 253.9600067,125.6240005 L253.9600067,118.6800003 L252.8079987,118.6800003 Z M249.4160004,120.1679993 L249.4160004,128.0079956 L250.5680084,128.0079956 L250.5680084,120.1679993 L249.4160004,120.1679993 Z M254.8720093,119.9120026 L254.8720093,121.0319977 L261.480011,121.0319977 L261.480011,125.288002 L255.256012,125.288002 L255.256012,126.3919983 L261.480011,126.3919983 L261.480011,130.871994 L254.5200043,130.871994 L254.5200043,132.0079956 L261.480011,132.0079956 L261.480011,132.9840088 L262.6480103,132.9840088 L262.6480103,119.9120026 L254.8720093,119.9120026 Z M264.0880127,131.7359924" style="fill:rgb(23,55,94);stroke:none" clip-path="url(#clip30)" />
</svg>
