<svg version="1.1" xmlns="http://www.w3.org/2000/svg" xmlns:xlink="http://www.w3.org/1999/xlink" width="636" height="279"><defs><clipPath id="iHEvrVJyqCRQ"><path fill="none" stroke="none" d=" M 0 0 L 636 0 L 636 279 L 0 279 L 0 0 Z"/></clipPath></defs><g transform="scale(1,1)" clip-path="url(#iHEvrVJyqCRQ)"><g><path fill="none" stroke="rgb(0,0,0)" paint-order="fill stroke markers" d=" M 28 183.00000000000003 L 22.79084668186175 185.75419488331715 L 20.83765529451307 187.15961893250008 L 19.303252295931088 188.58239065111064 L 18.176036341830468 190.02135748745738 L 17.761498086371546 190.74655390237825 L 17.444406087925984 191.47536688984886 L 17.223310178458064 192.20765238090775 L 17.09676018993224 192.94326630659356 L 17.063305954312796 193.6820645979448 L 17.121497303564126 194.42390318600005 L 17.26988406965046 195.1686380017979 L 17.507016084536303 195.9161249763769 L 18.241715188563433 197.41877912603258 L 19.313993271360346 198.9307130832757 L 20.71224898864176 200.45077429641475 L 24.440287949516858 203.51066828361488 L 29.33302131690658 206.58924067410126 L 35.297638336528735 209.6772710543422 L 42.24132825410118 212.7655390108061 L 50.07128031534177 215.84482412996115 L 58.69468376596825 218.90590599827573 L 68.01872785169854 221.93956420221815 L 77.95060181825039 224.9365783282567 L 83.1154716461212 226.41846248283338 L 88.39749491134165 227.8877279628597 L 93.78507026962637 229.34322221664425 L 99.26659637669019 230.78379269249552 L 104.8304718882477 232.20828683872205 L 110.46509546001374 233.61555210363238 L 116.15886574770303 235.00443593553507 L 121.90018140703029 236.37378578273865 L 127.67744109371012 237.7224490935517 L 133.47904346345751 239.04927331628264 L 139.29338717198698 240.35310589924012 L 145.10887087501328 241.63279429073265 L 150.9138932282512 242.8871859390688 L 156.6968528874154 244.11512829255702 L 162.44614850822074 245.31546879950594 L 168.15017874638187 246.48705490822402 L 173.79734225761342 247.62873406701988 L 179.37603769763027 248.739353724202 L 184.87466372214703 249.81776132807894 L 190.2816189868785 250.86280432695926 L 195.58530214753944 251.87333016915147 L 200.7741118598445 252.8481863029641 L 210.7620370060529 254.68632668338927 L 220.21122404809924 256.3700946474643 L 229.16532837025667 257.8951326196968 L 237.6735610029016 259.2572809946364 L 245.7851329764105 260.45238016683265 L 253.54925532116 261.4762705308352 L 261.0151390675261 262.32479248119364 L 268.2319952458856 262.99378641245767 L 275.24903488661505 263.47909271917683 L 282.1154690200906 263.77655179590073 L 288.8805086766888 263.88200403717906 L 295.5933648867862 263.7912898375613 L 302.30324868075917 263.50024959159725 L 309.0593710889837 263.0047236938364 L 315.91094314183715 262.30055253882836 L 322.9071758696955 261.38357652112285 L 330.097280302935 260.2496360352694 L 337.53046747193196 258.89457147581766 L 345.25467039811986 257.31443321599716 L 353.27264788014577 255.51269381784212 L 361.53095839283367 253.5020596362124 L 369.9726441572949 251.29581475143448 L 378.5407473946417 248.9072432438349 L 387.17831032598576 246.34962919373993 L 395.82837517244013 243.63625668147645 L 404.433984155116 240.78040978737084 L 412.9381794951249 237.79537259174944 L 421.2840034135808 234.69442917493893 L 429.41449813159375 231.49086361726546 L 437.2727058702771 228.19795999905617 L 444.80166885074215 224.8290024006367 L 451.9444292941009 221.39727490233426 L 458.64402942146563 217.91606158447505 L 464.84351145394976 214.39864652738547 L 470.4859176126624 210.85831381139212 L 475.51429011871835 207.30834751682124 L 479.8716711932274 203.762031724 L 483.5011030573034 200.23265051325419 L 486.3456279320572 196.7334879649108 L 488.3484256757509 193.27781238192208 L 489.02142714546636 191.56985464343867 L 489.47838700958465 189.8759448260198 L 489.7232974571946 188.196469679134 L 489.7601506773864 186.53181595224953 L 489.59293885925314 184.8823703948349 L 489.22565419188015 183.24851975635855 L 487.90683506578426 180.02915023409417 L 486.9632849852419 178.44440484924297 L 485.83563081182217 176.87680138120373 L 483.0439789427136 173.7945671934346 L 479.5638169711805 170.78554166653416 L 475.42708240994256 167.8528187962497 L 470.6657127717247 164.9994925783285 L 465.31164556924523 162.22865700851807 L 459.3968183152282 159.5434060825656 L 452.95316852239193 156.94683379621853 L 446.0126337034592 154.44203414522408 L 438.6071513711511 152.03210112532966 L 430.76865903819026 149.7201287322826 L 422.5290942172959 147.50921096183032 L 413.9203944211912 145.40244180972005 L 404.9744971625967 143.40291527169916 L 395.723339954233 141.51372534351498 L 386.1988603088233 139.7379660209149 L 376.43299573908826 138.07873129964622 L 366.45768375774685 136.5391151754563 L 361.40146546045014 135.81513096093695 L 356.30486187752393 135.12221164409252 L 351.1718651980557 134.46074397439145 L 346.0064676111385 133.83111470130214 L 340.8126613058611 133.23371057429299 L 335.59443847131246 132.66891834283246 L 330.355791296587 132.137124756389 L 325.1007119707692 131.638716564431 L 319.8331926829523 131.17408051642676 L 314.55722562222786 130.7436033618449 L 309.2768029776847 130.3476718501537 L 303.99591693841035 129.98667273082168 L 298.7185596934977 129.66099275331712 L 293.44872343203565 129.3710186671085 L 288.1904003431187 129.11713722166422 L 282.9475826158286 128.89973516645284 L 277.7242624392655 128.71919925094258 L 272.52443200250826 128.575916224602 L 267.3520834946571 128.47027283689943 L 262.2112091048009 128.40265583730326 L 257.1058010220255 128.37345197528208 L 252.03985143541976 128.383048000304 L 242.04229650709257 128.52018670935172 L 232.2504818325384 128.8171659601935 L 222.6951531155357 129.27681697969427 L 213.38591522144975 129.89730988309412 L 204.3142214364806 130.672812743008 L 195.47093544874198 131.59736363803057 L 186.8469209463427 132.66500064675876 L 178.43304161739582 133.86976184778655 L 170.2201611500115 135.20568531971153 L 162.19914323229932 136.6668091411277 L 154.3608515523701 138.2471713906312 L 146.69614979833483 139.9408101468182 L 139.1959016583059 141.74176348828377 L 131.8509708203934 143.64406949362441 L 124.6522209727076 145.6417662414338 L 117.5905158033587 147.72889181030914 L 110.65671900045908 149.8994842788455 L 103.84169425211815 152.1475817256387 L 97.13630524644833 154.46722222928452 L 90.5314156715591 156.85244386837874 L 84.01788921556067 159.29728472151646 L 77.58658956656615 161.79578286729347 L 71.22838041268562 164.34197638430484 L 64.93412544202795 166.9299033511471 L 58.69468834270617 169.5536018464167 L 52.500932802829084 172.20710994870737 L 46.343722510509735 174.88446573661557 L 40.21392115385834 177.5797072887364 L 34.1023924209851 180.28687268366633 L 28.000000000000227 183.00000000000048 Z" stroke-opacity="0.6980392156862745" stroke-linecap="round" stroke-linejoin="round" stroke-miterlimit="10" stroke-width="1.5"/><path fill="rgb(0,0,0)" stroke="none" paint-order="stroke fill markers" fill-rule="evenodd" d=" M 28 183.00000000000003 L 22.79084668186175 185.75419488331715 L 20.83765529451307 187.15961893250008 L 19.303252295931088 188.58239065111064 L 18.176036341830468 190.02135748745738 L 17.761498086371546 190.74655390237825 L 17.444406087925984 191.47536688984886 L 17.223310178458064 192.20765238090775 L 17.09676018993224 192.94326630659356 L 17.063305954312796 193.6820645979448 L 17.121497303564126 194.42390318600005 L 17.26988406965046 195.1686380017979 L 17.507016084536303 195.9161249763769 L 18.241715188563433 197.41877912603258 L 19.313993271360346 198.9307130832757 L 20.71224898864176 200.45077429641475 L 24.440287949516858 203.51066828361488 L 29.33302131690658 206.58924067410126 L 35.297638336528735 209.6772710543422 L 42.24132825410118 212.7655390108061 L 50.07128031534177 215.84482412996115 L 58.69468376596825 218.90590599827573 L 68.01872785169854 221.93956420221815 L 77.95060181825039 224.9365783282567 L 83.1154716461212 226.41846248283338 L 88.39749491134165 227.8877279628597 L 93.78507026962637 229.34322221664425 L 99.26659637669019 230.78379269249552 L 104.8304718882477 232.20828683872205 L 110.46509546001374 233.61555210363238 L 116.15886574770303 235.00443593553507 L 121.90018140703029 236.37378578273865 L 127.67744109371012 237.7224490935517 L 133.47904346345751 239.04927331628264 L 139.29338717198698 240.35310589924012 L 145.10887087501328 241.63279429073265 L 150.9138932282512 242.8871859390688 L 156.6968528874154 244.11512829255702 L 162.44614850822074 245.31546879950594 L 168.15017874638187 246.48705490822402 L 173.79734225761342 247.62873406701988 L 179.37603769763027 248.739353724202 L 184.87466372214703 249.81776132807894 L 190.2816189868785 250.86280432695926 L 195.58530214753944 251.87333016915147 L 200.7741118598445 252.8481863029641 L 210.7620370060529 254.68632668338927 L 220.21122404809924 256.3700946474643 L 229.16532837025667 257.8951326196968 L 237.6735610029016 259.2572809946364 L 245.7851329764105 260.45238016683265 L 253.54925532116 261.4762705308352 L 261.0151390675261 262.32479248119364 L 268.2319952458856 262.99378641245767 L 275.24903488661505 263.47909271917683 L 282.1154690200906 263.77655179590073 L 288.8805086766888 263.88200403717906 L 295.5933648867862 263.7912898375613 L 302.30324868075917 263.50024959159725 L 309.0593710889837 263.0047236938364 L 315.91094314183715 262.30055253882836 L 322.9071758696955 261.38357652112285 L 330.097280302935 260.2496360352694 L 337.53046747193196 258.89457147581766 L 345.25467039811986 257.31443321599716 L 353.27264788014577 255.51269381784212 L 361.53095839283367 253.5020596362124 L 369.9726441572949 251.29581475143448 L 378.5407473946417 248.9072432438349 L 387.17831032598576 246.34962919373993 L 395.82837517244013 243.63625668147645 L 404.433984155116 240.78040978737084 L 412.9381794951249 237.79537259174944 L 421.2840034135808 234.69442917493893 L 429.41449813159375 231.49086361726546 L 437.2727058702771 228.19795999905617 L 444.80166885074215 224.8290024006367 L 451.9444292941009 221.39727490233426 L 458.64402942146563 217.91606158447505 L 464.84351145394976 214.39864652738547 L 470.4859176126624 210.85831381139212 L 475.51429011871835 207.30834751682124 L 479.8716711932274 203.762031724 L 483.5011030573034 200.23265051325419 L 486.3456279320572 196.7334879649108 L 488.3484256757509 193.27781238192208 L 489.02142714546636 191.56985464343867 L 489.47838700958465 189.8759448260198 L 489.7232974571946 188.196469679134 L 489.7601506773864 186.53181595224953 L 489.59293885925314 184.8823703948349 L 489.22565419188015 183.24851975635855 L 487.90683506578426 180.02915023409417 L 486.9632849852419 178.44440484924297 L 485.83563081182217 176.87680138120373 L 483.0439789427136 173.7945671934346 L 479.5638169711805 170.78554166653416 L 475.42708240994256 167.8528187962497 L 470.6657127717247 164.9994925783285 L 465.31164556924523 162.22865700851807 L 459.3968183152282 159.5434060825656 L 452.95316852239193 156.94683379621853 L 446.0126337034592 154.44203414522408 L 438.6071513711511 152.03210112532966 L 430.76865903819026 149.7201287322826 L 422.5290942172959 147.50921096183032 L 413.9203944211912 145.40244180972005 L 404.9744971625967 143.40291527169916 L 395.723339954233 141.51372534351498 L 386.1988603088233 139.7379660209149 L 376.43299573908826 138.07873129964622 L 366.45768375774685 136.5391151754563 L 361.40146546045014 135.81513096093695 L 356.30486187752393 135.12221164409252 L 351.1718651980557 134.46074397439145 L 346.0064676111385 133.83111470130214 L 340.8126613058611 133.23371057429299 L 335.59443847131246 132.66891834283246 L 330.355791296587 132.137124756389 L 325.1007119707692 131.638716564431 L 319.8331926829523 131.17408051642676 L 314.55722562222786 130.7436033618449 L 309.2768029776847 130.3476718501537 L 303.99591693841035 129.98667273082168 L 298.7185596934977 129.66099275331712 L 293.44872343203565 129.3710186671085 L 288.1904003431187 129.11713722166422 L 282.9475826158286 128.89973516645284 L 277.7242624392655 128.71919925094258 L 272.52443200250826 128.575916224602 L 267.3520834946571 128.47027283689943 L 262.2112091048009 128.40265583730326 L 257.1058010220255 128.37345197528208 L 252.03985143541976 128.383048000304 L 242.04229650709257 128.52018670935172 L 232.2504818325384 128.8171659601935 L 222.6951531155357 129.27681697969427 L 213.38591522144975 129.89730988309412 L 204.3142214364806 130.672812743008 L 195.47093544874198 131.59736363803057 L 186.8469209463427 132.66500064675876 L 178.43304161739582 133.86976184778655 L 170.2201611500115 135.20568531971153 L 162.19914323229932 136.6668091411277 L 154.3608515523701 138.2471713906312 L 146.69614979833483 139.9408101468182 L 139.1959016583059 141.74176348828377 L 131.8509708203934 143.64406949362441 L 124.6522209727076 145.6417662414338 L 117.5905158033587 147.72889181030914 L 110.65671900045908 149.8994842788455 L 103.84169425211815 152.1475817256387 L 97.13630524644833 154.46722222928452 L 90.5314156715591 156.85244386837874 L 84.01788921556067 159.29728472151646 L 77.58658956656615 161.79578286729347 L 71.22838041268562 164.34197638430484 L 64.93412544202795 166.9299033511471 L 58.69468834270617 169.5536018464167 L 52.500932802829084 172.20710994870737 L 46.343722510509735 174.88446573661557 L 40.21392115385834 177.5797072887364 L 34.1023924209851 180.28687268366633 L 28.000000000000227 183.00000000000048 Z" fill-opacity="0.09803921568627451"/><g transform="scale(21,21)"><g transform="translate(2.380952380952381,9.49285580952381)"><path fill="rgb(0,0,0)" stroke="none" paint-order="stroke fill markers" d=" M 0.308 -0.34800000000000003 L 0.308 -0.34800000000000003 L 0.27 -0.223 Q 0.23900000000000002 -0.123 0.199 -0.022 Q 0.19 -0.003 0.153 0.015 Q 0.136 0.022 0.126 0.022 Q 0.115 0.022 0.115 0.015 Q 0.115 0.012 0.125 -0.015 Q 0.242 -0.317 0.27 -0.532 Q 0.274 -0.5650000000000001 0.274 -0.584 Q 0.274 -0.615 0.246 -0.625 Q 0.23700000000000002 -0.628 0.226 -0.628 Q 0.151 -0.628 0.123 -0.581 L 0.123 -0.58 Q 0.114 -0.5640000000000001 0.106 -0.54 Q 0.096 -0.51 0.049 -0.493 Q 0.037 -0.489 0.03 -0.489 Q 0.028 -0.489 0.02 -0.492 Q 0.036000000000000004 -0.58 0.134 -0.638 Q 0.211 -0.683 0.292 -0.683 Q 0.356 -0.678 0.359 -0.626 Q 0.359 -0.597 0.34600000000000003 -0.516 Q 0.332 -0.44 0.319 -0.393 Q 0.335 -0.403 0.364 -0.403 L 0.63 -0.403 Q 0.681 -0.544 0.729 -0.627 Q 0.742 -0.65 0.749 -0.656 Q 0.784 -0.683 0.807 -0.683 Q 0.8180000000000001 -0.683 0.8180000000000001 -0.675 Q 0.8180000000000001 -0.671 0.811 -0.661 Q 0.707 -0.461 0.662 -0.272 Q 0.64 -0.177 0.64 -0.10300000000000001 Q 0.64 -0.036000000000000004 0.657 -0.019 L 0.657 -0.019 Q 0.668 -0.008 0.686 -0.008 Q 0.6940000000000001 -0.008 0.711 -0.013000000000000001 Q 0.715 -0.035 0.742 -0.053 Q 0.772 -0.074 0.791 -0.074 Q 0.801 -0.074 0.801 -0.066 Q 0.801 -0.034 0.743 0.005 Q 0.68 0.047 0.62 0.047 Q 0.5660000000000001 0.047 0.558 -0.006 Q 0.555 -0.022 0.555 -0.06 Q 0.555 -0.182 0.614 -0.358 Q 0.598 -0.34800000000000003 0.5690000000000001 -0.34800000000000003 L 0.308 -0.34800000000000003 Z"/></g></g><path fill="none" stroke="rgb(0,0,0)" paint-order="fill stroke markers" d=" M 352.9999999999996 23.000000000000085 L 349.9999999999996 157.00000000000003" stroke-opacity="0.6980392156862745" stroke-linejoin="round" stroke-miterlimit="10" stroke-width="1.5" stroke-dasharray="9.5,8"/><path fill="none" stroke="rgb(128,128,128)" paint-order="fill stroke markers" d=" M 352.9999999999996 23.000000000000085 L 476.9999999999995 186.00000000000003" stroke-opacity="0.6980392156862745" stroke-linejoin="round" stroke-miterlimit="10" stroke-width="1.5" stroke-dasharray="9.5,8"/><path fill="none" stroke="rgb(128,128,128)" paint-order="fill stroke markers" d=" M 352.9999999999996 23.000000000000085 L 409.99999999999955 218" stroke-opacity="0.6980392156862745" stroke-linejoin="round" stroke-miterlimit="10" stroke-width="1.5" stroke-dasharray="9.5,8"/><path fill="none" stroke="rgb(128,128,128)" paint-order="fill stroke markers" d=" M 352.9999999999996 23.000000000000085 L 125.99999999999983 186.00000000000003" stroke-opacity="0.6980392156862745" stroke-linejoin="round" stroke-miterlimit="10" stroke-width="1.5" stroke-dasharray="9.5,8"/><path fill="none" stroke="rgb(128,128,128)" paint-order="fill stroke markers" d=" M 352.9999999999996 23.000000000000085 L 178.99999999999977 193.00000000000003" stroke-opacity="0.6980392156862745" stroke-linejoin="round" stroke-miterlimit="10" stroke-width="1.5" stroke-dasharray="9.5,8"/><path fill="none" stroke="rgb(128,128,128)" paint-order="fill stroke markers" d=" M 352.9999999999996 23.000000000000085 L 444.99999999999955 208" stroke-opacity="0.6980392156862745" stroke-linejoin="round" stroke-miterlimit="10" stroke-width="1.5" stroke-dasharray="9.5,8"/><path fill="none" stroke="rgb(128,128,128)" paint-order="fill stroke markers" d=" M 352.9999999999996 23.000000000000085 L 193.9999999999998 228" stroke-opacity="0.6980392156862745" stroke-linejoin="round" stroke-miterlimit="10" stroke-width="1.5" stroke-dasharray="9.5,8"/><path fill="none" stroke="rgb(128,128,128)" paint-order="fill stroke markers" d=" M 352.9999999999996 23.000000000000085 L 295.99999999999966 202.00000000000003" stroke-opacity="0.6980392156862745" stroke-linejoin="round" stroke-miterlimit="10" stroke-width="1.5" stroke-dasharray="9.5,8"/><path fill="none" stroke="rgb(128,128,128)" paint-order="fill stroke markers" d=" M 352.9999999999996 23.000000000000085 L 251.99999999999972 209.00000000000003" stroke-opacity="0.6980392156862745" stroke-linejoin="round" stroke-miterlimit="10" stroke-width="1.5" stroke-dasharray="9.5,8"/><path fill="rgb(0,153,255)" stroke="none" paint-order="stroke fill markers" d=" M 356.9999999999996 23.000000000000085 C 356.9999999999996 25.209138999323258 355.20913899932276 27.000000000000085 352.9999999999996 27.000000000000085 C 350.79086100067644 27.000000000000085 348.9999999999996 25.209138999323258 348.9999999999996 23.000000000000085 C 348.9999999999996 20.790861000676912 350.79086100067644 19.000000000000085 352.9999999999996 19.000000000000085 C 355.20913899932276 19.000000000000085 356.9999999999996 20.790861000676912 356.9999999999996 23.000000000000085 Z" fill-opacity="1"/><path fill="none" stroke="rgb(0,0,0)" paint-order="fill stroke markers" d=" M 356.9999999999996 23.000000000000085 C 356.9999999999996 25.209138999323258 355.20913899932276 27.000000000000085 352.9999999999996 27.000000000000085 C 350.79086100067644 27.000000000000085 348.9999999999996 25.209138999323258 348.9999999999996 23.000000000000085 C 348.9999999999996 20.790861000676912 350.79086100067644 19.000000000000085 352.9999999999996 19.000000000000085 C 355.20913899932276 19.000000000000085 356.9999999999996 20.790861000676912 356.9999999999996 23.000000000000085 Z" stroke-opacity="1" stroke-linecap="round" stroke-linejoin="round" stroke-miterlimit="10"/><g transform="scale(21,21)"><g transform="translate(17.80952380952381,1.3611116666666665)"><path fill="rgb(0,153,255)" stroke="none" paint-order="stroke fill markers" d=" M 0.367 -0.4 L 0.367 -0.4 L 0.307 -0.083 Q 0.298 -0.021 0.271 0.059000000000000004 Q 0.261 0.088 0.251 0.108 Q 0.216 0.182 0.164 0.2 Q 0.151 0.20500000000000002 0.138 0.20500000000000002 Q 0.088 0.20500000000000002 0.064 0.171 Q 0.053 0.156 0.053 0.136 Q 0.053 0.096 0.08700000000000001 0.081 Q 0.097 0.076 0.108 0.076 Q 0.137 0.076 0.14400000000000002 0.101 Q 0.145 0.106 0.145 0.111 Q 0.145 0.145 0.115 0.159 Q 0.10400000000000001 0.164 0.09 0.165 Q 0.109 0.183 0.138 0.183 Q 0.182 0.183 0.20700000000000002 0.085 Q 0.212 0.062 0.219 0.025 L 0.225 -0.005 L 0.3 -0.4 L 0.234 -0.4 Q 0.209 -0.4 0.20700000000000002 -0.40800000000000003 L 0.20600000000000002 -0.40800000000000003 L 0.20600000000000002 -0.41200000000000003 Q 0.20600000000000002 -0.429 0.223 -0.431 L 0.223 -0.431 L 0.23600000000000002 -0.431 L 0.305 -0.431 Q 0.329 -0.556 0.338 -0.588 Q 0.368 -0.6880000000000001 0.444 -0.7030000000000001 Q 0.455 -0.705 0.465 -0.705 Q 0.517 -0.705 0.541 -0.671 L 0.541 -0.671 Q 0.552 -0.656 0.552 -0.636 Q 0.552 -0.596 0.518 -0.581 Q 0.508 -0.5760000000000001 0.497 -0.5760000000000001 Q 0.468 -0.5760000000000001 0.461 -0.601 Q 0.46 -0.606 0.46 -0.611 Q 0.46 -0.642 0.488 -0.657 Q 0.499 -0.664 0.514 -0.665 Q 0.495 -0.683 0.465 -0.683 Q 0.434 -0.683 0.418 -0.649 Q 0.41100000000000003 -0.635 0.394 -0.545 L 0.373 -0.431 L 0.456 -0.431 Q 0.481 -0.431 0.483 -0.42 Q 0.483 -0.402 0.467 -0.4 L 0.466 -0.4 L 0.453 -0.4 L 0.367 -0.4 Z"/></g></g><path fill="rgb(255,0,0)" stroke="none" paint-order="stroke fill markers" d=" M 353.9999999999996 157.00000000000003 C 353.9999999999996 159.20913899932322 352.20913899932276 161.00000000000003 349.9999999999996 161.00000000000003 C 347.79086100067644 161.00000000000003 345.9999999999996 159.20913899932322 345.9999999999996 157.00000000000003 C 345.9999999999996 154.79086100067684 347.79086100067644 153.00000000000003 349.9999999999996 153.00000000000003 C 352.20913899932276 153.00000000000003 353.9999999999996 154.79086100067684 353.9999999999996 157.00000000000003 Z" fill-opacity="1"/><path fill="none" stroke="rgb(0,0,0)" paint-order="fill stroke markers" d=" M 353.9999999999996 157.00000000000003 C 353.9999999999996 159.20913899932322 352.20913899932276 161.00000000000003 349.9999999999996 161.00000000000003 C 347.79086100067644 161.00000000000003 345.9999999999996 159.20913899932322 345.9999999999996 157.00000000000003 C 345.9999999999996 154.79086100067684 347.79086100067644 153.00000000000003 349.9999999999996 153.00000000000003 C 352.20913899932276 153.00000000000003 353.9999999999996 154.79086100067684 353.9999999999996 157.00000000000003 Z" stroke-opacity="1" stroke-linecap="round" stroke-linejoin="round" stroke-miterlimit="10"/><g transform="scale(21,21)"><g transform="translate(15.571428571428571,8.789683095238095)"><path fill="rgb(255,0,0)" stroke="none" paint-order="stroke fill markers" d=" M 0.28700000000000003 -0.683 L 0.209 -0.365 Q 0.271 -0.442 0.357 -0.442 Q 0.446 -0.442 0.467 -0.373 L 0.467 -0.372 Q 0.47200000000000003 -0.355 0.47200000000000003 -0.335 Q 0.47200000000000003 -0.279 0.41100000000000003 -0.115 Q 0.393 -0.07100000000000001 0.393 -0.044 Q 0.393 -0.011 0.417 -0.011 Q 0.47900000000000004 -0.011 0.515 -0.121 L 0.519 -0.135 Q 0.524 -0.151 0.529 -0.152 L 0.529 -0.153 L 0.534 -0.153 Q 0.546 -0.153 0.546 -0.14300000000000002 Q 0.546 -0.126 0.525 -0.08 Q 0.482 0.011 0.41500000000000004 0.011 Q 0.364 0.011 0.342 -0.032 Q 0.333 -0.05 0.333 -0.07100000000000001 Q 0.333 -0.089 0.34600000000000003 -0.126 Q 0.40800000000000003 -0.28400000000000003 0.40800000000000003 -0.35000000000000003 Q 0.40800000000000003 -0.42 0.354 -0.42 Q 0.306 -0.42 0.258 -0.385 Q 0.221 -0.356 0.193 -0.299 L 0.19 -0.293 Q 0.186 -0.269 0.179 -0.248 Q 0.17400000000000002 -0.225 0.162 -0.181 L 0.14 -0.091 L 0.121 -0.015 Q 0.114 0.006 0.09 0.01 Q 0.08700000000000001 0.011 0.084 0.011 Q 0.06 0.011 0.056 -0.01 Q 0.055 -0.014 0.055 -0.017 Q 0.055 -0.025 0.059000000000000004 -0.039 L 0.20400000000000001 -0.615 L 0.20700000000000002 -0.635 Q 0.20700000000000002 -0.646 0.193 -0.649 L 0.193 -0.649 Q 0.181 -0.652 0.157 -0.652 Q 0.135 -0.652 0.133 -0.664 Q 0.133 -0.681 0.152 -0.684 L 0.274 -0.6940000000000001 Q 0.28700000000000003 -0.6940000000000001 0.28700000000000003 -0.683 Z"/></g><g transform="translate(16.425366682539682,8.789683095238095)"><path fill="rgb(255,0,0)" stroke="none" paint-order="stroke fill markers" d=" M 0.687 -0.327 L 0.09 -0.327 Q 0.058 -0.327 0.056 -0.34700000000000003 Q 0.056 -0.367 0.089 -0.367 L 0.6880000000000001 -0.367 Q 0.72 -0.367 0.721 -0.34700000000000003 Q 0.721 -0.327 0.687 -0.327 M 0.6880000000000001 -0.133 L 0.089 -0.133 Q 0.057 -0.133 0.056 -0.153 Q 0.056 -0.17300000000000001 0.09 -0.17300000000000001 L 0.687 -0.17300000000000001 Q 0.719 -0.17300000000000001 0.721 -0.153 Q 0.721 -0.133 0.6880000000000001 -0.133 Z"/></g><g transform="translate(17.480926293650793,8.789683095238095)"><path fill="rgb(255,0,0)" stroke="none" paint-order="stroke fill markers" d=" M 0.47100000000000003 -0.377 L 0.47100000000000003 -0.377 L 0.36 0.067 Q 0.34500000000000003 0.127 0.28200000000000003 0.168 Q 0.224 0.20500000000000002 0.148 0.20500000000000002 Q 0.025 0.20500000000000002 0.016 0.155 Q 0.015 0.15 0.015 0.14400000000000002 Q 0.015 0.10300000000000001 0.052000000000000005 0.089 Q 0.061 0.08600000000000001 0.069 0.08600000000000001 Q 0.1 0.08600000000000001 0.106 0.113 Q 0.107 0.117 0.107 0.121 Q 0.107 0.153 0.077 0.169 Q 0.07200000000000001 0.171 0.066 0.17300000000000001 Q 0.097 0.183 0.146 0.183 Q 0.244 0.183 0.29 0.075 L 0.323 -0.057 L 0.322 -0.058 Q 0.277 -0.008 0.221 -0.001 Q 0.213 0 0.20600000000000002 0 Q 0.136 0 0.098 -0.061 Q 0.073 -0.10200000000000001 0.073 -0.158 Q 0.073 -0.265 0.149 -0.354 Q 0.219 -0.436 0.3 -0.442 L 0.311 -0.442 Q 0.365 -0.442 0.398 -0.391 L 0.404 -0.379 Q 0.41300000000000003 -0.417 0.445 -0.422 Q 0.47100000000000003 -0.422 0.47400000000000003 -0.395 L 0.47100000000000003 -0.377 M 0.341 -0.128 L 0.341 -0.128 L 0.389 -0.319 Q 0.392 -0.331 0.392 -0.334 Q 0.392 -0.354 0.375 -0.382 L 0.375 -0.382 Q 0.363 -0.402 0.34500000000000003 -0.41200000000000003 Q 0.33 -0.42 0.312 -0.42 Q 0.26 -0.42 0.213 -0.353 Q 0.20600000000000002 -0.342 0.2 -0.331 Q 0.168 -0.271 0.149 -0.164 Q 0.14400000000000002 -0.133 0.14400000000000002 -0.114 Q 0.14400000000000002 -0.048 0.182 -0.028 Q 0.193 -0.022 0.209 -0.022 Q 0.248 -0.022 0.29 -0.058 Q 0.334 -0.096 0.341 -0.128 Z"/></g></g><g transform="scale(21,21)"><g transform="translate(23.714285714285715,10.130952380952381)"><path fill="rgb(0,0,0)" stroke="none" paint-order="stroke fill markers" d=" M 0.159 -0.717 L 0.159 0.217 Q 0.159 0.249 0.139 0.25 Q 0.11900000000000001 0.25 0.11900000000000001 0.217 L 0.11900000000000001 -0.717 Q 0.11900000000000001 -0.749 0.139 -0.75 Q 0.159 -0.75 0.159 -0.717 Z"/></g><g transform="translate(23.992064714285714,10.130952380952381)"><path fill="rgb(0,0,0)" stroke="none" paint-order="stroke fill markers" d=" M 0.308 -0.34800000000000003 L 0.308 -0.34800000000000003 L 0.27 -0.223 Q 0.23900000000000002 -0.123 0.199 -0.022 Q 0.19 -0.003 0.153 0.015 Q 0.136 0.022 0.126 0.022 Q 0.115 0.022 0.115 0.015 Q 0.115 0.012 0.125 -0.015 Q 0.242 -0.317 0.27 -0.532 Q 0.274 -0.5650000000000001 0.274 -0.584 Q 0.274 -0.615 0.246 -0.625 Q 0.23700000000000002 -0.628 0.226 -0.628 Q 0.151 -0.628 0.123 -0.581 L 0.123 -0.58 Q 0.114 -0.5640000000000001 0.106 -0.54 Q 0.096 -0.51 0.049 -0.493 Q 0.037 -0.489 0.03 -0.489 Q 0.028 -0.489 0.02 -0.492 Q 0.036000000000000004 -0.58 0.134 -0.638 Q 0.211 -0.683 0.292 -0.683 Q 0.356 -0.678 0.359 -0.626 Q 0.359 -0.597 0.34600000000000003 -0.516 Q 0.332 -0.44 0.319 -0.393 Q 0.335 -0.403 0.364 -0.403 L 0.63 -0.403 Q 0.681 -0.544 0.729 -0.627 Q 0.742 -0.65 0.749 -0.656 Q 0.784 -0.683 0.807 -0.683 Q 0.8180000000000001 -0.683 0.8180000000000001 -0.675 Q 0.8180000000000001 -0.671 0.811 -0.661 Q 0.707 -0.461 0.662 -0.272 Q 0.64 -0.177 0.64 -0.10300000000000001 Q 0.64 -0.036000000000000004 0.657 -0.019 L 0.657 -0.019 Q 0.668 -0.008 0.686 -0.008 Q 0.6940000000000001 -0.008 0.711 -0.013000000000000001 Q 0.715 -0.035 0.742 -0.053 Q 0.772 -0.074 0.791 -0.074 Q 0.801 -0.074 0.801 -0.066 Q 0.801 -0.034 0.743 0.005 Q 0.68 0.047 0.62 0.047 Q 0.5660000000000001 0.047 0.558 -0.006 Q 0.555 -0.022 0.555 -0.06 Q 0.555 -0.182 0.614 -0.358 Q 0.598 -0.34800000000000003 0.5690000000000001 -0.34800000000000003 L 0.308 -0.34800000000000003 Z"/></g><g transform="translate(24.836582714285715,10.130952380952381)"><path fill="rgb(0,0,0)" stroke="none" paint-order="stroke fill markers" d=" M 0.159 -0.717 L 0.159 0.217 Q 0.159 0.249 0.139 0.25 Q 0.11900000000000001 0.25 0.11900000000000001 0.217 L 0.11900000000000001 -0.717 Q 0.11900000000000001 -0.749 0.139 -0.75 Q 0.159 -0.75 0.159 -0.717 Z"/></g><g transform="translate(25.392140325396824,10.130952380952381)"><path fill="rgb(0,0,0)" stroke="none" paint-order="stroke fill markers" d=" M 0.687 -0.327 L 0.09 -0.327 Q 0.058 -0.327 0.056 -0.34700000000000003 Q 0.056 -0.367 0.089 -0.367 L 0.6880000000000001 -0.367 Q 0.72 -0.367 0.721 -0.34700000000000003 Q 0.721 -0.327 0.687 -0.327 M 0.6880000000000001 -0.133 L 0.089 -0.133 Q 0.057 -0.133 0.056 -0.153 Q 0.056 -0.17300000000000001 0.09 -0.17300000000000001 L 0.687 -0.17300000000000001 Q 0.719 -0.17300000000000001 0.721 -0.153 Q 0.721 -0.133 0.6880000000000001 -0.133 Z"/></g><g transform="translate(26.447699936507934,10.130952380952381)"><path fill="rgb(0,0,0)" stroke="none" paint-order="stroke fill markers" d=" M 0.926 -0.606 L 0.793 -0.073 Q 0.788 -0.055 0.788 -0.049 Q 0.788 -0.032 0.835 -0.031 L 0.836 -0.031 L 0.853 -0.031 Q 0.879 -0.031 0.881 -0.02 Q 0.881 0 0.862 0 L 0.738 -0.003 L 0.737 -0.003 L 0.614 0 L 0.613 0 Q 0.598 0 0.598 -0.012 Q 0.598 -0.029 0.614 -0.031 L 0.626 -0.031 Q 0.6910000000000001 -0.031 0.704 -0.045 Q 0.71 -0.052000000000000005 0.716 -0.073 Q 0.716 -0.074 0.717 -0.078 L 0.86 -0.651 L 0.859 -0.651 L 0.455 -0.018000000000000002 Q 0.443 -0.001 0.433 0 Q 0.422 0 0.418 -0.023 L 0.332 -0.643 L 0.331 -0.643 L 0.195 -0.098 Q 0.191 -0.083 0.191 -0.075 Q 0.191 -0.038 0.23900000000000002 -0.032 Q 0.248 -0.031 0.259 -0.031 Q 0.277 -0.031 0.277 -0.02 Q 0.277 0 0.259 0 L 0.159 -0.003 L 0.156 -0.003 L 0.057 0 L 0.056 0 Q 0.042 0 0.042 -0.012 Q 0.042 -0.031 0.06 -0.031 Q 0.139 -0.034 0.16 -0.081 Q 0.164 -0.091 0.168 -0.106 L 0.295 -0.615 Q 0.299 -0.631 0.299 -0.634 Q 0.299 -0.646 0.28300000000000003 -0.649 L 0.28200000000000003 -0.649 L 0.28200000000000003 -0.649 Q 0.28 -0.65 0.277 -0.65 Q 0.253 -0.652 0.234 -0.652 Q 0.20800000000000002 -0.652 0.20600000000000002 -0.66 Q 0.20500000000000002 -0.662 0.20500000000000002 -0.664 Q 0.20500000000000002 -0.681 0.222 -0.683 L 0.222 -0.683 L 0.23500000000000001 -0.683 L 0.372 -0.683 Q 0.395 -0.683 0.399 -0.678 L 0.399 -0.677 Q 0.401 -0.673 0.403 -0.66 L 0.481 -0.094 L 0.846 -0.664 Q 0.857 -0.681 0.866 -0.682 Q 0.87 -0.683 0.885 -0.683 L 1.0170000000000001 -0.683 Q 1.042 -0.683 1.044 -0.672 Q 1.044 -0.655 1.03 -0.653 Q 1.025 -0.652 1.012 -0.652 Q 0.9490000000000001 -0.652 0.937 -0.636 L 0.936 -0.635 L 0.936 -0.634 Q 0.931 -0.627 0.926 -0.606 Z"/></g><g transform="translate(27.804645547619046,10.130952380952381)"><path fill="rgb(0,0,0)" stroke="none" paint-order="stroke fill markers" d=" M 0.687 -0.327 L 0.09 -0.327 Q 0.058 -0.327 0.056 -0.34700000000000003 Q 0.056 -0.367 0.089 -0.367 L 0.6880000000000001 -0.367 Q 0.72 -0.367 0.721 -0.34700000000000003 Q 0.721 -0.327 0.687 -0.327 M 0.6880000000000001 -0.133 L 0.089 -0.133 Q 0.057 -0.133 0.056 -0.153 Q 0.056 -0.17300000000000001 0.09 -0.17300000000000001 L 0.687 -0.17300000000000001 Q 0.719 -0.17300000000000001 0.721 -0.153 Q 0.721 -0.133 0.6880000000000001 -0.133 Z"/></g><g transform="translate(28.860205158730157,10.130952380952381)"><path fill="rgb(0,0,0)" stroke="none" paint-order="stroke fill markers" d=" M 0.508 -0.272 Q 0.5670000000000001 -0.372 0.652 -0.41600000000000004 Q 0.7020000000000001 -0.442 0.754 -0.442 Q 0.85 -0.442 0.905 -0.353 Q 0.9430000000000001 -0.292 0.9430000000000001 -0.216 Q 0.9430000000000001 -0.112 0.879 -0.045 Q 0.8260000000000001 0.011 0.751 0.011 Q 0.663 0.011 0.581 -0.058 Q 0.559 -0.077 0.514 -0.131 L 0.491 -0.159 Q 0.432 -0.059000000000000004 0.34700000000000003 -0.015 Q 0.297 0.011 0.245 0.011 Q 0.149 0.011 0.094 -0.078 Q 0.056 -0.139 0.056 -0.215 Q 0.056 -0.319 0.12 -0.386 Q 0.17300000000000001 -0.442 0.248 -0.442 Q 0.336 -0.442 0.418 -0.373 Q 0.44 -0.354 0.485 -0.3 L 0.489 -0.295 Q 0.495 -0.28700000000000003 0.508 -0.272 M 0.534 -0.23700000000000002 L 0.63 -0.114 Q 0.631 -0.114 0.631 -0.113 L 0.635 -0.109 Q 0.7010000000000001 -0.037 0.767 -0.037 Q 0.839 -0.037 0.886 -0.10200000000000001 Q 0.921 -0.151 0.921 -0.216 Q 0.921 -0.304 0.868 -0.362 Q 0.8290000000000001 -0.405 0.773 -0.41000000000000003 L 0.761 -0.41000000000000003 Q 0.635 -0.41000000000000003 0.539 -0.246 Q 0.537 -0.242 0.534 -0.23700000000000002 M 0.465 -0.194 L 0.465 -0.194 L 0.369 -0.317 L 0.368 -0.318 L 0.364 -0.322 Q 0.298 -0.394 0.232 -0.394 Q 0.16 -0.394 0.113 -0.329 Q 0.078 -0.28 0.078 -0.215 Q 0.078 -0.127 0.131 -0.069 Q 0.17400000000000002 -0.021 0.23800000000000002 -0.021 Q 0.364 -0.021 0.46 -0.185 Q 0.462 -0.189 0.465 -0.194 Z"/></g></g><g transform="scale(21,21) translate(21.238095238095237,12.047619047619047) scale(0.1,0.1)"><text fill="rgb(0,0,0)" stroke="none" font-family="Serif" font-size="10px" font-style="normal" font-weight="normal" text-decoration="normal" x="0" y="0" text-anchor="start" dominant-baseline="alphabetic">有效大小</text><g transform="scale(10,10) translate(-21.238095238095237,-12.047619047619047)"><g transform="translate(25.555873849802396,12.047619047619047)"><path fill="rgb(0,0,0)" stroke="none" paint-order="stroke fill markers" d=" M 0.687 -0.327 L 0.09 -0.327 Q 0.058 -0.327 0.056 -0.34700000000000003 Q 0.056 -0.367 0.089 -0.367 L 0.6880000000000001 -0.367 Q 0.72 -0.367 0.721 -0.34700000000000003 Q 0.721 -0.327 0.687 -0.327 M 0.6880000000000001 -0.133 L 0.089 -0.133 Q 0.057 -0.133 0.056 -0.153 Q 0.056 -0.17300000000000001 0.09 -0.17300000000000001 L 0.687 -0.17300000000000001 Q 0.719 -0.17300000000000001 0.721 -0.153 Q 0.721 -0.133 0.6880000000000001 -0.133 Z"/></g><g transform="translate(26.611433460913506,12.047619047619047)"><path fill="rgb(0,0,0)" stroke="none" paint-order="stroke fill markers" d=" M 0.449 -0.17400000000000002 L 0.449 -0.17400000000000002 L 0.421 0 L 0.05 0 Q 0.05 -0.025 0.056 -0.032 L 0.061 -0.037 L 0.253 -0.251 Q 0.358 -0.369 0.358 -0.47200000000000003 Q 0.358 -0.561 0.304 -0.607 L 0.303 -0.608 L 0.302 -0.608 Q 0.27 -0.635 0.224 -0.635 Q 0.152 -0.635 0.109 -0.5730000000000001 Q 0.097 -0.555 0.089 -0.533 Q 0.092 -0.534 0.10200000000000001 -0.534 Q 0.14200000000000002 -0.534 0.153 -0.498 L 0.153 -0.497 Q 0.155 -0.49 0.155 -0.482 Q 0.155 -0.442 0.117 -0.431 Q 0.109 -0.429 0.10300000000000001 -0.429 Q 0.066 -0.429 0.054 -0.46 Q 0.05 -0.47100000000000003 0.05 -0.485 Q 0.05 -0.562 0.109 -0.617 Q 0.162 -0.666 0.23700000000000002 -0.666 Q 0.34700000000000003 -0.666 0.40800000000000003 -0.592 Q 0.443 -0.549 0.448 -0.49 Q 0.449 -0.481 0.449 -0.47200000000000003 Q 0.449 -0.399 0.394 -0.333 Q 0.365 -0.299 0.304 -0.243 L 0.243 -0.189 L 0.233 -0.18 L 0.127 -0.077 L 0.307 -0.077 Q 0.395 -0.077 0.402 -0.085 Q 0.41200000000000003 -0.099 0.424 -0.17400000000000002 L 0.449 -0.17400000000000002 Z"/></g><g transform="translate(27.111435460913505,11.634727047619048) scale(0.7,0.7)"><path fill="rgb(0,0,0)" stroke="none" paint-order="stroke fill markers" d=" M 0.756 -0.578 L 0.616 -0.021 Q 0.611 -0.002 0.606 -0.001 L 0.605 0 L 0.6 0 Q 0.59 0 0.584 -0.012 Q 0.583 -0.015 0.581 -0.019 L 0.332 -0.608 L 0.323 -0.626 L 0.191 -0.098 Q 0.187 -0.083 0.187 -0.075 Q 0.187 -0.041 0.23 -0.033 Q 0.24 -0.031 0.253 -0.031 Q 0.273 -0.031 0.273 -0.02 Q 0.273 0 0.255 0 L 0.155 -0.003 L 0.152 -0.003 L 0.053 0 L 0.052000000000000005 0 Q 0.039 0 0.039 -0.011 Q 0.039 -0.031 0.056 -0.031 Q 0.135 -0.034 0.156 -0.081 Q 0.16 -0.091 0.164 -0.106 L 0.298 -0.643 Q 0.298 -0.652 0.23 -0.652 Q 0.20400000000000001 -0.652 0.202 -0.663 Q 0.202 -0.681 0.217 -0.683 L 0.231 -0.683 L 0.365 -0.683 Q 0.386 -0.683 0.391 -0.676 Q 0.393 -0.673 0.397 -0.664 L 0.618 -0.14200000000000002 L 0.73 -0.587 Q 0.733 -0.596 0.733 -0.608 Q 0.733 -0.651 0.665 -0.652 Q 0.647 -0.652 0.647 -0.663 Q 0.647 -0.683 0.665 -0.683 L 0.766 -0.68 L 0.767 -0.68 L 0.867 -0.683 L 0.868 -0.683 Q 0.881 -0.683 0.881 -0.672 Q 0.881 -0.652 0.864 -0.652 Q 0.786 -0.649 0.764 -0.603 L 0.764 -0.603 Q 0.76 -0.593 0.756 -0.578 Z"/></g><g transform="translate(27.69767573472303,12.047619047619047) scale(0.1,0.1)"><text fill="rgb(255,0,0)" stroke="none" font-family="Serif" font-size="10px" font-style="normal" font-weight="normal" text-decoration="normal" x="0" y="0" text-anchor="start" dominant-baseline="alphabetic">太大</text><g transform="scale(10,10) translate(-27.69767573472303,-12.047619047619047)"/></g></g></g></g></g></svg>