<svg version="1.1" xmlns="http://www.w3.org/2000/svg" xmlns:xlink="http://www.w3.org/1999/xlink" width="640" height="365"><defs><clipPath id="ZEfcctkumTTa"><path fill="none" stroke="none" d=" M 0 0 L 640 0 L 640 365 L 0 365 L 0 0 Z"/></clipPath></defs><g transform="scale(1,1)" clip-path="url(#ZEfcctkumTTa)"><g><path fill="none" stroke="rgb(204,0,102)" paint-order="fill stroke markers" d=" M 47.21187039819698 305.1175508690781 L 50.00000000000001 303.5227775988245 M 50.00000000000001 303.5227775988245 L 55.00000000000001 300.60710750455013 L 60.00000000000001 297.6232712945539 M 60.00000000000001 297.6232712945539 L 65 294.5752564112968 L 70 291.46705029723967 L 75 288.30264039484354 L 80 285.08601414656925 M 80 285.08601414656925 L 85 281.8211589948778 L 90 278.51206238223 L 95 275.1627117510869 L 100 271.77709454390924 L 105 268.35919820315814 L 110 264.91301017129445 L 115 261.442517890779 L 120 257.9517088040729 L 125 254.4445703536369 L 130 250.92508998193196 L 135 247.39725513141906 L 140 243.86505324455908 L 145 240.33247176381295 L 150 236.8034981316416 L 155 233.2821197905059 L 160 229.77232418286684 M 160 229.77232418286684 L 165 226.27809875118533 L 170 222.80343093792226 L 175 219.35230818553856 L 180 215.92871793649516 L 185 212.536647633253 L 190 209.180084718273 L 195 205.86301663401602 L 200 202.58943082294303 L 204.99999999999997 199.363314727515 L 210 196.18865579019274 L 215.00000000000003 193.06944145343726 L 220 190.00965915970943 L 224.99999999999997 187.01329635147022 L 230 184.0843404711805 L 235.00000000000003 181.22677896130122 L 240 178.44459926429334 L 244.99999999999997 175.7417888226177 L 250 173.12233507873526 L 255.00000000000003 170.59022547510693 L 260 168.14944745419368 L 265 165.80398845845642 L 270 163.557835930356 L 275.00000000000006 161.41497731235336 L 280 159.37940004690952 L 285 157.4550915764853 L 290 155.64603934354162 L 295.00000000000006 153.9562307905395 L 300 152.3896533599398 L 305 150.95029449420338 L 310 149.64214163579126 L 315 148.46918222716434 L 320 147.43540371078348 M 320 147.43540371078348 L 325.00000000000006 146.54479352910963 L 330 145.80133912460377 L 335.00000000000006 145.20902793972684 L 340 144.77184741693958 L 345.00000000000006 144.4937849987031 L 350 144.37882812747824 L 355.00000000000006 144.43096424572593 L 360.00000000000006 144.65418079590705 L 365 145.05246522048267 L 370 145.62980496191352 L 375.00000000000006 146.39018746266063 L 380.00000000000006 147.33760016518494 L 385 148.47603051194727 L 390 149.80946594540868 L 395.00000000000006 151.34189390803 L 400.00000000000006 153.0773018422721 L 405.00000000000006 155.01967719059604 L 410 157.17300739546272 L 415.00000000000006 159.54127989933292 L 420.00000000000006 162.12848214466766 L 425 164.93860157392788 L 430 167.97562562957447 L 435.00000000000006 171.24354175406842 L 440.00000000000006 174.74633738987063 L 445.00000000000006 178.48799997944184 L 450 182.47251696524313 L 455.00000000000006 186.7038757897355 L 460.00000000000006 191.18606389537968 L 465.00000000000006 195.92306872463675 L 470.0000000000001 200.91887771996767 L 475.00000000000006 206.17747832383301 L 480.00000000000006 211.7028579786941 M 480.00000000000006 211.7028579786941 L 485.00000000000006 217.49900412701177 L 490 223.56990421124664 L 495.00000000000006 229.91954567386017 L 500.00000000000006 236.55191595731287 M 500.00000000000006 236.55191595731287 L 505.00000000000006 243.47100250406572 L 510.0000000000001 250.6807927565797 M 510.0000000000001 250.6807927565797 L 515 258.18527415731575 M 515 258.18527415731575 L 516.783621712997 260.93437517384325" stroke-opacity="0.6980392156862745" stroke-linecap="round" stroke-linejoin="round" stroke-miterlimit="10" stroke-width="1.5"/><path fill="none" stroke="rgb(102,0,204)" paint-order="fill stroke markers" d=" M 347.737791134485 48.96844477836186 L 347.737791134485 311.92862509391415" stroke-opacity="0.6980392156862745" stroke-linejoin="round" stroke-miterlimit="10" stroke-width="2" stroke-dasharray="6,4"/><path fill="none" stroke="rgb(51,153,0)" paint-order="fill stroke markers" d=" M 47.21187077385438 311.92862509391415 L 347.737791134485 311.92862509391415" stroke-opacity="0.6980392156862745" stroke-linecap="round" stroke-linejoin="round" stroke-miterlimit="10" stroke-width="3.5"/><path fill="none" stroke="rgb(204,0,102)" paint-order="fill stroke markers" d=" M 109.57099924868523 251.07212622088633 L 145.15449815972477 222.8312540692676" stroke-opacity="0.6980392156862745" stroke-linecap="round" stroke-linejoin="round" stroke-miterlimit="10" stroke-width="1.5"/><path fill="rgb(204,0,102)" stroke="none" paint-order="stroke fill markers" fill-rule="evenodd" d=" M 156.90383170548455 213.50638617580745 L 147.4857151330898 225.76858745570755 L 142.82328118635974 219.89392068282766 Z" fill-opacity="0.6980392156862745"/><path fill="none" stroke="rgb(0,0,0)" paint-order="fill stroke markers" d=" M 47.21187077385438 311.92862509391415 L 47.21187077385438 28.402704733282974" stroke-opacity="0.6980392156862745" stroke-linecap="round" stroke-linejoin="round" stroke-miterlimit="10" stroke-width="2.5"/><path fill="rgb(0,0,0)" stroke="none" paint-order="stroke fill markers" fill-rule="evenodd" d=" M 47.21187077385438 11.402704733282974 L 51.46187077385438 28.402704733282974 L 42.96187077385438 28.402704733282974 Z" fill-opacity="0.6980392156862745"/><path fill="none" stroke="rgb(204,102,0)" paint-order="fill stroke markers" d=" M 347.737791134485 311.92862509391415 L 518.5664913598791 311.92862509391415" stroke-opacity="0.6980392156862745" stroke-linecap="round" stroke-linejoin="round" stroke-miterlimit="10" stroke-width="2.5"/><path fill="rgb(204,102,0)" stroke="none" paint-order="stroke fill markers" fill-rule="evenodd" d=" M 535.5664913598791 311.92862509391415 L 518.5664913598791 316.17862509391415 L 518.5664913598791 307.67862509391415 Z" fill-opacity="0.6980392156862745"/><path fill="none" stroke="rgb(204,0,102)" paint-order="fill stroke markers" d=" M 452.17054845980414 164.67092411720486 L 493.7075326802033 208.61584945183017" stroke-opacity="0.6980392156862745" stroke-linecap="round" stroke-linejoin="round" stroke-miterlimit="10" stroke-width="1.5"/><path fill="rgb(204,0,102)" stroke="none" paint-order="stroke fill markers" fill-rule="evenodd" d=" M 504.0112697220129 219.51690458302005 L 490.98226889740585 211.19178371228256 L 496.4327964630008 206.0399151913778 Z" fill-opacity="0.6980392156862745"/><text fill="rgb(0,0,0)" stroke="none" font-family="geogebra-sans-serif, sans-serif" font-size="20px" font-style="normal" font-weight="normal" text-decoration="normal" x="549" y="321" text-anchor="start" dominant-baseline="alphabetic" fill-opacity="1">复杂度</text><text fill="rgb(0,0,0)" stroke="none" font-family="geogebra-sans-serif, sans-serif" font-size="20px" font-style="normal" font-weight="normal" text-decoration="normal" x="59" y="44" text-anchor="start" dominant-baseline="alphabetic" fill-opacity="1">泛化能力</text><g transform="scale(23,23) translate(7.260869565217392,14.869565217391305) scale(0.1,0.1)"><text fill="rgb(51,153,0)" stroke="none" font-family="Serif" font-size="10px" font-style="normal" font-weight="normal" text-decoration="normal" x="0" y="0" text-anchor="start" dominant-baseline="alphabetic">欠拟合</text><g transform="scale(10,10) translate(-7.260869565217392,-14.869565217391305)"/></g><g transform="scale(23,23) translate(17.91304347826087,14.869565217391305) scale(0.1,0.1)"><text fill="rgb(204,102,0)" stroke="none" font-family="Serif" font-size="10px" font-style="normal" font-weight="normal" text-decoration="normal" x="0" y="0" text-anchor="start" dominant-baseline="alphabetic">过拟合</text><g transform="scale(10,10) translate(-17.91304347826087,-14.869565217391305)"/></g><text fill="rgb(102,0,204)" stroke="none" font-family="geogebra-sans-serif, sans-serif" font-size="20px" font-style="normal" font-weight="bold" text-decoration="normal" x="365" y="80" text-anchor="start" dominant-baseline="alphabetic" fill-opacity="1">复杂度合适的模型</text></g></g></svg>