<?xml version="1.0" encoding="UTF-8"?>
<!DOCTYPE svg  PUBLIC '-//W3C//DTD SVG 1.1//EN'  'http://www.w3.org/Graphics/SVG/1.1/DTD/svg11.dtd'>
<!-- Created with matplotlib (https://matplotlib.org/) -->
<svg width="432pt" height="216pt" version="1.1" viewBox="0 0 432 216" xmlns="http://www.w3.org/2000/svg" xmlns:xlink="http://www.w3.org/1999/xlink">
 <defs>
  <style type="text/css">*{stroke-linecap:butt;stroke-linejoin:round;}</style>
 </defs>
 <g id="figure_1">
  <g id="patch_1">
   <path d="m0 216h432v-216h-432z" fill="#fff"/>
  </g>
  <g id="axes_1">
   <g id="patch_2">
    <path d="m34.56 194.4h164.95v-194.18h-164.95z" fill="#fff"/>
   </g>
   <g id="PathCollection_1">
    <path d="m35.121 194.4h0.56104 0.56104 0.56104 0.56104 0.56104 0.56104 0.56104 0.56104 0.56104 0.56104 0.56104 0.56104 0.56104 0.56104 0.56104 0.56104 0.56104 0.56104 0.56104 0.56104 0.56104 0.56104 0.56104 0.56104 0.56104 0.56104 0.56104 0.56104 0.56104 0.56104 0.56104 0.56104 0.56104 0.56104 0.56104 0.56104 0.56104 0.56104 0.56104 0.56104 0.56104 0.56104 0.56104 0.56104 0.56104 0.56104 0.56104 0.56104 0.56104 0.56104 0.56104 0.56104 0.56104 0.56104 0.56104 0.07013l24.125-47.988v-1.116l28.052-55.8v-1.116l28.052-55.8v-1.116l15.709-31.248h-0.07013-0.56104-0.56104-0.56104-0.56104-0.56104-0.56104-0.56104-0.56104-0.56104-0.56104-0.56104-0.56104-0.56104-0.56104-0.56104-0.56104-0.56104-0.56104-0.56104-0.56104-0.56104-0.56104-0.56104-0.56104-0.56104-0.56104-0.56104-0.56104-0.56104-0.56104-0.56104-0.56104-0.56104-0.56104-0.56104-0.56104-0.56104-0.56104-0.56104-0.56104-0.56104-0.56104-0.56104-0.56104-0.56104-0.56104-0.56104-0.56104-0.56104-0.56104-0.56104-0.56104-0.56104-0.56104-0.56104-0.56104-0.56104-0.56104-0.56104-0.56104-0.56104-0.56104-0.56104-0.56104-0.56104-0.56104-0.56104-0.56104-0.56104-0.56104-0.56104-0.56104-0.56104-0.56104-0.56104-0.56104-0.56104-0.56104-0.56104-0.56104-0.56104-0.56104-0.56104-0.56104-0.56104-0.56104-0.56104-0.56104-0.56104-0.56104-0.56104-0.56104-0.56104-0.56104-0.56104-0.56104-0.56104-0.56104-0.56104-0.56104-0.56104-0.56104-0.56104-0.56104-0.56104-0.56104-0.56104-0.56104-0.56104-0.56104-0.56104-0.56104-0.56104-0.56104-0.56104-0.56104-0.56104-0.56104-0.56104-0.56104-0.56104-0.56104-0.56104-0.56104-0.56104-0.56104-0.56104-0.56104-0.56104-0.56104-0.56104-0.56104-0.56104-0.56104-0.56104-0.56104-0.56104-0.56104-0.56104-0.56104-0.56104-0.56104-0.56104-0.56104-0.56104-0.56104-0.56104-0.56104-0.56104-0.56104-0.56104-0.56104-0.56104-0.56104-0.56104-0.56104-0.56104-0.56104-0.56104-0.56104-0.56104-0.56104-0.56104-0.56104-0.56104-0.56104-0.56104-0.56104-0.56104-0.56104-0.56104-0.56104-0.56104-0.56104-0.56104-0.56104-0.56104-0.56104-0.56104-0.56104-0.56104-0.56104-0.56104-0.56104-0.56104-0.56104-0.56104-0.56104-0.56104-0.56104-0.56104-0.56104-0.56104-0.56104-0.56104-0.56104-0.56104-0.56104-0.56104-0.56104-0.56104-0.56104-0.56104-0.56104-0.56104-0.56104-0.56104-0.56104-0.56104-0.56104-0.56104-0.56104-0.56104-0.56104-0.56104-0.56104-0.56104-0.56104-0.56104-0.56104-0.56104-0.56104-0.56104-0.56104-0.56104-0.56104-0.56104v1.116 1.116 1.116 1.116 1.116 1.116 1.116 1.116 1.116 1.116 1.116 1.116 1.116 1.116 1.116 1.116 1.116 1.116 1.116 1.116 1.116 1.116 1.116 1.116 1.116 1.116 1.116 1.116 1.116 1.116 1.116 1.116 1.116 1.116 1.116 1.116 1.116 1.116 1.116 1.116 1.116 1.116 1.116 1.116 1.116 1.116 1.116 1.116 1.116 1.116 1.116 1.116 1.116 1.116 1.116 1.116 1.116 1.116 1.116 1.116 1.116 1.116 1.116 1.116 1.116 1.116 1.116 1.116 1.116 1.116 1.116 1.116 1.116 1.116 1.116 1.116 1.116 1.116 1.116 1.116 1.116 1.116 1.116 1.116 1.116 1.116 1.116 1.116 1.116 1.116 1.116 1.116 1.116 1.116 1.116 1.116 1.116 1.116 1.116 1.116 1.116 1.116 1.116 1.116 1.116 1.116 1.116 1.116 1.116 1.116 1.116 1.116 1.116 1.116 1.116 1.116 1.116 1.116 1.116 1.116 1.116 1.116 1.116 1.116 1.116 1.116 1.116 1.116 1.116 1.116 1.116 1.116 1.116 1.116 1.116 1.116 1.116 1.116 1.116 1.116 1.116 1.116 1.116 1.116 1.116 1.116 1.116 1.116 1.116 1.116 1.116 1.116 1.116 1.116 1.116 1.116 1.116 1.116 1.116 1.116 1.116 1.116 1.116 1.116 1.116 1.116 1.116 1.116 1.116 1.116 1.116 1.116 1.116 1.116z" clip-path="url(#p58280809b8)" fill="#00f" fill-opacity=".4"/>
   </g>
   <g id="PathCollection_2">
    <path d="m66.539 193.56 0.7013-1.395 23.003-45.756v-1.116l28.052-55.8v-1.116l28.052-55.8v-1.116l15.709-31.248h-0.07013l-15.709 31.248v1.116l-28.052 55.8v1.116l-28.052 55.8v1.116l-24.125 47.988h0.07013z" clip-path="url(#p58280809b8)" fill="#00f" fill-opacity=".4"/>
   </g>
   <g id="PathCollection_3">
    <path d="m66.539 193.7 0.21039-0.4185 23.564-46.872v-1.116l0.35065-0.6975 27.701-55.102v-1.116l0.35065-0.6975 27.701-55.102v-1.116l0.35065-0.6975 15.358-30.55h-0.07013l-15.709 31.248v1.116l-28.052 55.8v1.116l-28.052 55.8v1.116l-24.125 47.988h0.070129z" clip-path="url(#p58280809b8)" fill="#00f" fill-opacity=".4"/>
   </g>
   <g id="PathCollection_4">
    <path d="m66.539 193.84 0.28052-0.558 23.564-46.872v-1.116l0.28052-0.558 27.771-55.242v-1.116l0.28052-0.558 27.771-55.242v-1.116l0.28052-0.558 15.429-30.69h-0.07013l-15.709 31.248v1.116l-28.052 55.8v1.116l-28.052 55.8v1.116l-24.125 47.988h0.07013z" clip-path="url(#p58280809b8)" fill="#00f" fill-opacity=".4"/>
   </g>
   <g id="PathCollection_5">
    <path d="m66.539 193.98 0.35065-0.6975 23.564-46.872v-1.116l28.052-55.8v-1.116l0.21039-0.4185 27.842-55.382v-1.116l0.21039-0.4185 15.499-30.83h-0.07013l-15.709 31.248v1.116l-28.052 55.8v1.116l-28.052 55.8v1.116l-24.125 47.988h0.07013z" clip-path="url(#p58280809b8)" fill="#f00" fill-opacity=".4"/>
   </g>
   <g id="PathCollection_6">
    <path d="m66.539 194.12 23.984-47.709v-1.116l28.052-55.8v-1.116l28.052-55.8v-1.116l15.709-31.248h-0.070129l-15.709 31.248v1.116l-28.052 55.8v1.116l-28.052 55.8v1.116l-0.56104 1.116-23.564 46.872h0.07013z" clip-path="url(#p58280809b8)" fill="#f00" fill-opacity=".4"/>
   </g>
   <g id="PathCollection_7">
    <path d="m66.539 194.26 24.055-47.848v-1.116l28.052-55.8v-1.116l28.052-55.8v-1.116l15.709-31.248h-0.07013l-15.709 31.248v1.116l-0.56104 1.116-27.491 54.684v1.116l-28.052 55.8v1.116l-24.125 47.988h0.07013z" clip-path="url(#p58280809b8)" fill="#f00" fill-opacity=".4"/>
   </g>
   <g id="PathCollection_8">
    <path d="m66.539 194.4h0.56104 0.56104 0.56104 0.56104 0.56104 0.56104 0.56104 0.56104 0.56104 0.56104 0.56104 0.56104 0.56104 0.56104 0.56104 0.56104 0.56104 0.56104 0.56104 0.56104 0.56104 0.56104 0.56104 0.56104 0.56104 0.56104 0.56104 0.56104 0.56104 0.56104 0.56104 0.56104 0.56104 0.56104 0.56104 0.56104 0.56104 0.56104 0.56104 0.56104 0.56104 0.56104 0.56104 0.56104 0.56104 0.56104 0.56104 0.56104 0.56104 0.56104 0.56104 0.56104 0.56104 0.56104 0.56104 0.56104 0.56104 0.56104 0.56104 0.56104 0.56104 0.56104 0.56104 0.56104 0.56104 0.56104 0.56104 0.56104 0.56104 0.56104 0.56104 0.56104 0.56104 0.56104 0.56104 0.56104 0.56104 0.56104 0.56104 0.56104 0.56104 0.56104 0.56104 0.56104 0.56104 0.56104 0.56104 0.56104 0.56104 0.56104 0.56104 0.56104 0.56104 0.56104 0.56104 0.56104 0.56104 0.56104 0.56104 0.56104 0.56104 0.56104 0.56104 0.56104 0.56104 0.56104 0.56104 0.56104 0.56104 0.56104 0.56104 0.56104 0.56104 0.56104 0.56104 0.56104 0.56104 0.56104 0.56104 0.56104 0.56104 0.56104 0.56104 0.56104 0.56104 0.56104 0.56104 0.56104 0.56104 0.56104 0.56104 0.56104 0.56104 0.56104 0.56104 0.56104 0.56104 0.56104 0.56104 0.56104 0.56104 0.56104 0.56104 0.56104 0.56104 0.56104 0.56104 0.56104 0.56104 0.56104 0.56104 0.56104 0.56104 0.56104 0.56104 0.56104 0.56104 0.56104 0.56104 0.56104 0.56104 0.56104 0.56104 0.56104 0.56104 0.56104 0.56104 0.56104 0.56104 0.56104 0.56104 0.56104 0.56104 0.56104 0.56104 0.56104 0.56104 0.56104 0.56104 0.56104 0.56104 0.56104 0.56104 0.56104 0.56104 0.56104 0.56104 0.56104 0.56104 0.56104 0.56104 0.56104 0.56104 0.56104 0.56104 0.56104 0.56104 0.56104 0.56104 0.56104 0.56104 0.56104 0.56104 0.56104 0.56104 0.56104 0.56104 0.56104 0.56104 0.56104 0.56104 0.56104 0.56104 0.56104 0.56104 0.56104 0.56104 0.56104 0.56104 0.56104 0.56104 0.56104 0.56104 0.56104 0.56104 0.56104 0.56104 0.56104 0.56104 0.56104 0.56104 0.56104 0.56104 0.56104 0.56104 0.56104 0.56104v-1.116-1.116-1.116-1.116-1.116-1.116-1.116-1.116-1.116-1.116-1.116-1.116-1.116-1.116-1.116-1.116-1.116-1.116-1.116-1.116-1.116-1.116-1.116-1.116-1.116-1.116-1.116-1.116-1.116-1.116-1.116-1.116-1.116-1.116-1.116-1.116-1.116-1.116-1.116-1.116-1.116-1.116-1.116-1.116-1.116-1.116-1.116-1.116-1.116-1.116-1.116-1.116-1.116-1.116-1.116-1.116-1.116-1.116-1.116-1.116-1.116-1.116-1.116-1.116-1.116-1.116-1.116-1.116-1.116-1.116-1.116-1.116-1.116-1.116-1.116-1.116-1.116-1.116-1.116-1.116-1.116-1.116-1.116-1.116-1.116-1.116-1.116-1.116-1.116-1.116-1.116-1.116-1.116-1.116-1.116-1.116-1.116-1.116-1.116-1.116-1.116-1.116-1.116-1.116-1.116-1.116-1.116-1.116-1.116-1.116-1.116-1.116-1.116-1.116-1.116-1.116-1.116-1.116-1.116-1.116-1.116-1.116-1.116-1.116-1.116-1.116-1.116-1.116-1.116-1.116-1.116-1.116-1.116-1.116-1.116-1.116-1.116-1.116-1.116-1.116-1.116-1.116-1.116-1.116-1.116-1.116-1.116-1.116-1.116-1.116-1.116-1.116-1.116-1.116-1.116-1.116-1.116-1.116-1.116-1.116-1.116-1.116-1.116-1.116-1.116-1.116-1.116-1.116-1.116-1.116-1.116-1.116-1.116-1.116h-0.56104-0.56104-0.56104-0.56104-0.56104-0.56104-0.56104-0.56104-0.56104-0.56104-0.56104-0.56104-0.56104-0.56104-0.56104-0.56104-0.56104-0.56104-0.56104-0.56104-0.56104-0.56104-0.56104-0.56104-0.56104-0.56104-0.56104-0.56104-0.56104-0.56104-0.56104-0.56104-0.56104-0.56104-0.56104-0.56104-0.56104-0.56104-0.56104-0.56104-0.56104-0.56104-0.56104-0.56104-0.56104-0.56104-0.56104-0.56104-0.56104-0.56104-0.56104-0.56104-0.56104-0.56104-0.56104-0.56104-0.56104-0.56104-0.56104-0.56104-0.56104-0.56104-0.56104-0.56104-0.56104-0.56104-0.07013l-15.709 31.248v1.116l-28.052 55.8v1.116l-28.052 55.8v1.116l-24.125 47.988z" clip-path="url(#p58280809b8)" fill="#f00" fill-opacity=".4"/>
   </g>
   <g id="PathCollection_9" fill="#00f" stroke="#00f" stroke-width="1.5">
    <path d="m101.69 113.7 6-6m-6 0 6 6" clip-path="url(#p58280809b8)"/>
    <path d="m98.885 119.28 6-6m-6 0 6 6" clip-path="url(#p58280809b8)"/>
    <path d="m104.5 124.86 6-6m-6 0 6 6" clip-path="url(#p58280809b8)"/>
    <path d="m98.885 124.86 6-6m-6 0 6 6" clip-path="url(#p58280809b8)"/>
    <path d="m59.612 136.02 6-6m-6 0 6 6" clip-path="url(#p58280809b8)"/>
    <path d="m101.69 113.7 6-6m-6 0 6 6" clip-path="url(#p58280809b8)"/>
    <path d="m87.664 124.86 6-6m-6 0 6 6" clip-path="url(#p58280809b8)"/>
    <path d="m84.859 136.02 6-6m-6 0 6 6" clip-path="url(#p58280809b8)"/>
    <path d="m101.69 113.7 6-6m-6 0 6 6" clip-path="url(#p58280809b8)"/>
    <path d="m87.664 130.44 6-6m-6 0 6 6" clip-path="url(#p58280809b8)"/>
    <path d="m107.3 113.7 6-6m-6 0 6 6" clip-path="url(#p58280809b8)"/>
    <path d="m84.859 119.28 6-6m-6 0 6 6" clip-path="url(#p58280809b8)"/>
    <path d="m98.885 130.44 6-6m-6 0 6 6" clip-path="url(#p58280809b8)"/>
    <path d="m107.3 108.12 6-6m-6 0 6 6" clip-path="url(#p58280809b8)"/>
    <path d="m93.274 124.86 6-6m-6 0 6 6" clip-path="url(#p58280809b8)"/>
    <path d="m101.69 124.86 6-6m-6 0 6 6" clip-path="url(#p58280809b8)"/>
    <path d="m98.885 119.28 6-6m-6 0 6 6" clip-path="url(#p58280809b8)"/>
    <path d="m115.72 102.54 6-6m-6 0 6 6" clip-path="url(#p58280809b8)"/>
    <path d="m68.028 141.6 6-6m-6 0 6 6" clip-path="url(#p58280809b8)"/>
    <path d="m76.443 124.86 6-6m-6 0 6 6" clip-path="url(#p58280809b8)"/>
    <path d="m84.859 130.44 6-6m-6 0 6 6" clip-path="url(#p58280809b8)"/>
    <path d="m96.079 124.86 6-6m-6 0 6 6" clip-path="url(#p58280809b8)"/>
    <path d="m90.469 141.6 6-6m-6 0 6 6" clip-path="url(#p58280809b8)"/>
    <path d="m73.638 141.6 6-6m-6 0 6 6" clip-path="url(#p58280809b8)"/>
    <path d="m107.3 119.28 6-6m-6 0 6 6" clip-path="url(#p58280809b8)"/>
    <path d="m101.69 113.7 6-6m-6 0 6 6" clip-path="url(#p58280809b8)"/>
    <path d="m110.11 119.28 6-6m-6 0 6 6" clip-path="url(#p58280809b8)"/>
    <path d="m110.11 96.96 6-6m-6 0 6 6" clip-path="url(#p58280809b8)"/>
    <path d="m90.469 124.86 6-6m-6 0 6 6" clip-path="url(#p58280809b8)"/>
    <path d="m104.5 119.28 6-6m-6 0 6 6" clip-path="url(#p58280809b8)"/>
   </g>
   <g id="PathCollection_10">
    <defs>
     <path id="C0_0_3bd62d03cc" d="m0 3c0.79561 0 1.5587-0.3161 2.1213-0.87868 0.56258-0.56258 0.87868-1.3257 0.87868-2.1213s-0.3161-1.5587-0.87868-2.1213c-0.56258-0.56258-1.3257-0.87868-2.1213-0.87868s-1.5587 0.3161-2.1213 0.87868c-0.56258 0.56258-0.87868 1.3257-0.87868 2.1213s0.3161 1.5587 0.87868 2.1213c0.56258 0.56258 1.3257 0.87868 2.1213 0.87868z"/>
    </defs>
    <g clip-path="url(#p58280809b8)">
     <use x="166.404156" y="82.8" fill="#ff0000" stroke="#000000" xlink:href="#C0_0_3bd62d03cc"/>
    </g>
    <g clip-path="url(#p58280809b8)">
     <use x="172.014545" y="66.06" fill="#ff0000" stroke="#000000" xlink:href="#C0_0_3bd62d03cc"/>
    </g>
    <g clip-path="url(#p58280809b8)">
     <use x="141.157403" y="71.64" fill="#ff0000" stroke="#000000" xlink:href="#C0_0_3bd62d03cc"/>
    </g>
    <g clip-path="url(#p58280809b8)">
     <use x="129.936623" y="66.06" fill="#ff0000" stroke="#000000" xlink:href="#C0_0_3bd62d03cc"/>
    </g>
    <g clip-path="url(#p58280809b8)">
     <use x="132.741818" y="93.96" fill="#ff0000" stroke="#000000" xlink:href="#C0_0_3bd62d03cc"/>
    </g>
    <g clip-path="url(#p58280809b8)">
     <use x="129.936623" y="77.22" fill="#ff0000" stroke="#000000" xlink:href="#C0_0_3bd62d03cc"/>
    </g>
    <g clip-path="url(#p58280809b8)">
     <use x="146.767792" y="93.96" fill="#ff0000" stroke="#000000" xlink:href="#C0_0_3bd62d03cc"/>
    </g>
    <g clip-path="url(#p58280809b8)">
     <use x="121.521039" y="88.38" fill="#ff0000" stroke="#000000" xlink:href="#C0_0_3bd62d03cc"/>
    </g>
    <g clip-path="url(#p58280809b8)">
     <use x="118.715844" y="88.38" fill="#ff0000" stroke="#000000" xlink:href="#C0_0_3bd62d03cc"/>
    </g>
    <g clip-path="url(#p58280809b8)">
     <use x="141.157403" y="105.12" fill="#ff0000" stroke="#000000" xlink:href="#C0_0_3bd62d03cc"/>
    </g>
    <g clip-path="url(#p58280809b8)">
     <use x="146.767792" y="54.9" fill="#ff0000" stroke="#000000" xlink:href="#C0_0_3bd62d03cc"/>
    </g>
    <g clip-path="url(#p58280809b8)">
     <use x="115.910649" y="82.8" fill="#ff0000" stroke="#000000" xlink:href="#C0_0_3bd62d03cc"/>
    </g>
    <g clip-path="url(#p58280809b8)">
     <use x="127.131429" y="66.06" fill="#ff0000" stroke="#000000" xlink:href="#C0_0_3bd62d03cc"/>
    </g>
    <g clip-path="url(#p58280809b8)">
     <use x="143.962597" y="77.22" fill="#ff0000" stroke="#000000" xlink:href="#C0_0_3bd62d03cc"/>
    </g>
    <g clip-path="url(#p58280809b8)">
     <use x="135.547013" y="60.48" fill="#ff0000" stroke="#000000" xlink:href="#C0_0_3bd62d03cc"/>
    </g>
    <g clip-path="url(#p58280809b8)">
     <use x="138.352208" y="54.9" fill="#ff0000" stroke="#000000" xlink:href="#C0_0_3bd62d03cc"/>
    </g>
    <g clip-path="url(#p58280809b8)">
     <use x="121.521039" y="88.38" fill="#ff0000" stroke="#000000" xlink:href="#C0_0_3bd62d03cc"/>
    </g>
    <g clip-path="url(#p58280809b8)">
     <use x="121.521039" y="93.96" fill="#ff0000" stroke="#000000" xlink:href="#C0_0_3bd62d03cc"/>
    </g>
    <g clip-path="url(#p58280809b8)">
     <use x="157.988571" y="82.8" fill="#ff0000" stroke="#000000" xlink:href="#C0_0_3bd62d03cc"/>
    </g>
    <g clip-path="url(#p58280809b8)">
     <use x="127.131429" y="88.38" fill="#ff0000" stroke="#000000" xlink:href="#C0_0_3bd62d03cc"/>
    </g>
    <g clip-path="url(#p58280809b8)">
     <use x="121.521039" y="82.8" fill="#ff0000" stroke="#000000" xlink:href="#C0_0_3bd62d03cc"/>
    </g>
    <g clip-path="url(#p58280809b8)">
     <use x="149.572987" y="54.9" fill="#ff0000" stroke="#000000" xlink:href="#C0_0_3bd62d03cc"/>
    </g>
    <g clip-path="url(#p58280809b8)">
     <use x="132.741818" y="93.96" fill="#ff0000" stroke="#000000" xlink:href="#C0_0_3bd62d03cc"/>
    </g>
    <g clip-path="url(#p58280809b8)">
     <use x="121.521039" y="60.48" fill="#ff0000" stroke="#000000" xlink:href="#C0_0_3bd62d03cc"/>
    </g>
    <g clip-path="url(#p58280809b8)">
     <use x="113.105455" y="93.96" fill="#ff0000" stroke="#000000" xlink:href="#C0_0_3bd62d03cc"/>
    </g>
    <g clip-path="url(#p58280809b8)">
     <use x="141.157403" y="93.96" fill="#ff0000" stroke="#000000" xlink:href="#C0_0_3bd62d03cc"/>
    </g>
    <g clip-path="url(#p58280809b8)">
     <use x="124.326234" y="66.06" fill="#ff0000" stroke="#000000" xlink:href="#C0_0_3bd62d03cc"/>
    </g>
    <g clip-path="url(#p58280809b8)">
     <use x="118.715844" y="82.8" fill="#ff0000" stroke="#000000" xlink:href="#C0_0_3bd62d03cc"/>
    </g>
    <g clip-path="url(#p58280809b8)">
     <use x="138.352208" y="77.22" fill="#ff0000" stroke="#000000" xlink:href="#C0_0_3bd62d03cc"/>
    </g>
    <g clip-path="url(#p58280809b8)">
     <use x="143.962597" y="66.06" fill="#ff0000" stroke="#000000" xlink:href="#C0_0_3bd62d03cc"/>
    </g>
   </g>
   <g id="matplotlib.axis_1">
    <g id="text_1">
     <!-- epochs：100，训练集准确率：76.67% -->
     <defs>
      <path id="SimHei-101" d="m44.922 16.406q-0.78125-7.0312-6.25-11.328t-12.891-4.2969q-9.375 0-15.438 6.0469-6.0469 6.0625-6.0469 16.609t6.0469 16.594q6.0625 6.0625 15.438 6.0625 8.2031 0 13.469-5.2812 5.2812-5.2656 5.2812-17.375h-31.641q0-8.5938 3.7031-12.109 3.7188-3.5156 9.1875-3.5156 4.2969 0 7.0312 2.1406 2.7344 2.1562 3.5156 6.4531zm-9.375 13.281q-0.78125 5.4688-3.5156 7.6094-2.7344 2.1562-7.0312 2.1562-3.9062 0-7.0312-2.1562-3.125-2.1406-4.6875-7.6094z"/>
      <path id="SimHei-112" d="m44.531 23.438q0-11.328-5.4688-17.188t-13.281-5.8594q-4.2969 0-7.4219 1.75-3.125 1.7656-5.4688 5.2812v-20.312h-7.8125v58.203h7.8125v-5.8594q2.3438 3.5156 5.4688 5.0781t7.4219 1.5625q7.8125 0 13.281-5.6719 5.4688-5.6562 5.4688-16.984zm-8.5938 0q0 7.4219-2.9375 11.516-2.9219 4.1094-8.7812 4.1094-4.6875 0-8.0156-4.1094-3.3125-4.0938-3.3125-11.516t3.3125-11.719q3.3281-4.2969 8.0156-4.2969 5.8594 0 8.7812 4.2969 2.9375 4.2969 2.9375 11.719z"/>
      <path id="SimHei-111" d="m46.094 23.438q0-10.156-6.25-16.406t-14.844-6.25-14.844 6.25-6.25 16.406 6.25 16.406 14.844 6.25 14.844-6.25 6.25-16.406zm-8.5938 0q0 7.8125-3.9062 11.719t-8.5938 3.9062-8.5938-3.9062-3.9062-11.719 3.9062-11.719 8.5938-3.9062 8.5938 3.9062 3.9062 11.719z"/>
      <path id="SimHei-99" d="m44.922 19.141q0-8.2031-5.6719-13.281-5.6562-5.0781-14.25-5.0781t-14.844 6.0469q-6.25 6.0625-6.25 16.609t6.25 16.594q6.25 6.0625 14.844 6.0625t13.672-4.5q5.0781-4.4844 5.0781-10.734h-8.5938q-0.39062 4.6875-3.3281 6.4375-2.9219 1.7656-6.8281 1.7656-4.6875 0-8.5938-3.7188-3.9062-3.7031-3.9062-11.906t3.9062-11.922q3.9062-3.7031 8.5938-3.7031 5.0781 0 8.2031 2.7344t3.125 8.5938z"/>
      <path id="SimHei-104" d="m44.141 1.5625h-7.8125v28.125q0 4.6875-2.3438 7.4219t-6.25 2.7344q-5.0781 0-9.5781-5.2812-4.4844-5.2656-4.4844-13.078v-19.922h-7.8125v66.797h7.8125v-31.25q3.125 4.2969 6.8281 6.6406 3.7188 2.3438 9.5781 2.3438 7.0312 0 10.547-3.9062t3.5156-9.7656z"/>
      <path id="SimHei-115" d="m43.359 13.672q0-6.25-4.8906-9.5781-4.875-3.3125-12.297-3.3125-9.375 0-14.453 3.7031-5.0781 3.7188-5.0781 10.75h7.8125q0-4.6875 3.3125-6.25 3.3281-1.5625 8.0156-1.5625t7.0312 1.75q2.3438 1.7656 2.3438 4.5 0 1.9531-1.9531 3.9062t-9.7656 3.125q-8.9844 1.1719-12.312 4.4844-3.3125 3.3281-3.3125 8.7969 0 4.6875 4.4844 8.3906 4.5 3.7188 13.094 3.7188 7.8125 0 12.297-3.5156 4.5-3.5156 4.5-9.375h-7.8125q0 3.5156-2.5469 4.875-2.5312 1.375-6.4375 1.375-5.0781 0-7.2344-1.7656-2.1406-1.75-2.1406-4.0938 0-2.7344 1.9531-4.2969t8.2031-2.3438q10.156-1.5625 13.672-4.8906 3.5156-3.3125 3.5156-8.3906z"/>
      <path id="SimHei-65306" d="m19.531-2.7344q6.6406 3.9062 6.8281 7.6094 0.20312 3.7188-3.125 5.8594-3.3125 2.1562-7.0312 0.20312-3.7031-1.9531-3.5156-5.8594 0.20312-3.9062 3.5156-5.8594 3.3281-1.9531 9.9688 1.9531zm-0.78125 23.438q8.2031 3.5156 8.2031 7.6094 0 4.1094-3.5156 5.8594-3.5156 1.7656-7.0312 0-3.5156-1.75-3.7188-5.4688-0.1875-3.7031 2.9375-5.8594 3.125-2.1406 11.328 1.375z"/>
      <path id="SimHei-49" d="m30.469 1.5625h-8.9844v51.953h-11.719v4.6875q7.0312 0 10.938 2.7344t5.0781 8.2031h4.6875z"/>
      <path id="SimHei-48" d="m46.484 35.156q0-14.062-5.0781-24.219t-16.406-10.156-16.609 10.156q-5.2656 10.156-5.2656 24.219t5.2656 24.016q5.2812 9.9688 16.609 9.9688t16.406-9.9688q5.0781-9.9531 5.0781-24.016zm-9.375 0q0 12.5-2.9375 19.531-2.9219 7.0312-9.1719 7.0312t-9.375-7.0312-3.125-19.531 3.125-19.734q3.125-7.2188 9.375-7.2188t9.1719 7.2188q2.9375 7.2344 2.9375 19.734z"/>
      <path id="SimHei-65292" d="m21.484 9.7656q-1.5625-5.0781-3.7188-7.8125-2.1406-2.7344-4.4844-4.4844-2.3438-1.7656 0.78125-1.375t7.2188 4.875q4.1094 4.5 5.6719 9.375 1.5625 4.8906 0.39062 8.0156t-4.6875 3.9062-5.8594-0.98438q-2.3438-1.75-2.7344-3.5156-0.39062-1.75 0.1875-3.7031 0.59375-1.9531 2.1562-3.125t5.0781-1.1719z"/>
      <path id="SimHei-35757" d="m42.188 77.344q5.0781-0.39062 9.375-0.78125-1.1719-4.6875-1.375-10.75-0.1875-6.0469-0.1875-18.547t-0.78125-20.703-2.1562-14.453q-1.3594-6.25-3.7031-11.141-2.3438-4.875-5.4688-9.5625-3.9062 2.3438-8.5938 4.2969 4.6875 4.2969 7.4219 9.7656t4.2969 13.672 1.75 19.719q0.20312 11.531 0 19.531-0.1875 8.0156-0.57812 18.953zm17.578-5.0781h7.8125q-0.39062-7.0312-0.39062-14.453v-39.453q0-10.938 0.39062-17.969h-7.8125q0.39062 7.0312 0.39062 17.969v39.453q0 8.9844-0.39062 14.453zm19.531 4.6875h7.8125q-0.39062-6.6406-0.39062-15.234v-46.875q0-10.938 0.39062-22.656h-7.8125q0.39062 11.719 0.39062 22.656v46.875q0 8.5938-0.39062 15.234zm-66.016-1.9531q2.7344 1.9531 6.6406 4.2969 6.6406-10.156 9.7656-15.234-3.9062-1.9531-6.6406-4.2969-5.8594 10.547-9.7656 15.234zm-7.8125-23.438q4.6875-0.39062 9.7656-0.39062h10.156q-0.39062-8.9844-0.39062-16.406v-23.047q5.0781 6.6406 6.6406 8.9844 1.9531-2.3438 4.6875-5.8594-5.0781-5.4688-8.5938-9.7656t-7.0312-9.375q-2.7344 3.125-5.8594 5.4688 3.125 3.9062 3.125 9.7656v33.203h-2.7344q-5.0781 0-9.7656-0.39062z"/>
      <path id="SimHei-32451" d="m14.062 49.609q7.8125 0.78125 11.328 0.78125 4.2969 6.6406 6.6406 12.891 3.125-2.7344 7.8125-5.4688-3.9062-3.5156-8.2031-10.547t-13.281-19.531q2.3438 0.39062 7.0312 1.1719t10.547 1.5625q-0.39062-3.9062-0.78125-7.0312-2.3438 0-9.9688-0.78125-7.6094-0.78125-13.469-2.7344-1.9531 3.9062-3.9062 7.8125 4.2969 2.7344 7.6094 6.8281 3.3281 4.1094 6.8438 10.359-2.3438 0-6.4531-0.78125-4.0938-0.78125-7.6094-1.9531-1.5625 3.9062-3.125 7.8125 3.9062 3.5156 7.8125 11.719t7.0312 17.578q3.9062-3.125 8.5938-5.4688-3.125-1.9531-5.8594-8.0156-2.7344-6.0469-8.5938-16.203zm-7.8125-41.406q10.156 1.5625 13.859 2.3438 3.7188 0.78125 18.562 3.9062-0.78125-3.9062-0.78125-7.0312-6.25-1.1719-14.453-3.125t-14.453-4.6875q-1.1719 4.6875-2.7344 8.5938zm48.828 35.547q-4.6875-8.2031-5.8594-10.938h15.625v10.938zm-3.9062-23.047q3.125-2.3438 8.2031-4.6875-3.5156-2.7344-8.5938-9.7656t-9.7656-12.891q-3.9062 2.3438-7.8125 4.2969 3.9062 3.125 9.1719 9.5625 5.2812 6.4531 8.7969 13.484zm25.391-4.6875q3.125 2.3438 6.6406 3.9062 2.3438-4.2969 6.0469-9.5781 3.7188-5.2656 6.4531-9.9531-3.9062-1.5625-7.4219-3.9062-3.125 5.8594-5.6719 10.156-2.5312 4.2969-6.0469 9.375zm-26.953 33.594q2.7344 5.4688 4.6875 10.547h-1.9531q-5.8594 0-12.891-0.39062v6.6406q7.0312-0.39062 13.281-0.39062h3.125q1.1719 2.7344 2.3438 6.4375 1.1719 3.7188 1.5625 8.4062 5.8594-3.125 9.375-4.2969-1.9531-2.3438-3.3281-5.0781-1.3594-2.7344-2.5312-5.4688h14.844q6.6406 0 12.5 0.39062v-6.6406q-5.8594 0.39062-12.5 0.39062h-16.406q-2.3438-5.4688-4.6875-10.547h15.625q-0.39062-4.6875-0.39062-10.547v-6.25h5.0781q6.25 0 12.109 0.39062v-6.6406q-5.8594 0.39062-12.109 0.39062h-5.0781v-24.219q0-8.2031-3.7188-10.344-3.7031-2.1562-9.9531-2.5469-1.1719 5.0781-3.9062 9.7656 8.2031-0.78125 9.1719 0.78125 0.98438 1.5625 0.98438 5.4688v21.094h-12.109q-3.125 0-5.6719-0.59375-2.5312-0.57812-4.875-1.75-1.5625 3.9062-3.9062 7.0312 3.9062 1.5625 9.375 12.109-3.125 0-7.0312-0.39062v6.6406q5.4688-0.39062 8.9844-0.39062z"/>
      <path id="SimHei-38598" d="m26.562 50.391v-6.6406h21.875v6.6406zm0-12.109v-5.8594h21.875v5.8594zm0 23.828v-6.25h21.875v6.25zm22.266 15.234q2.3438 1.9531 6.25 4.2969 0.78125-1.1719 3.125-3.9062t4.2969-5.0781q-3.125-1.5625-6.6406-3.9062-2.3438 2.3438-3.7188 4.4844-1.3594 2.1562-3.3125 4.1094zm-21.094 4.2969q3.5156-1.9531 9.375-4.6875-2.3438-1.9531-3.9062-4.1094-1.5625-2.1406-3.5156-5.2656h46.875q5.4688 0 12.5 0.39062v-6.25q-7.4219 0.39062-12.5 0.39062h-20.703v-6.25h15.625q5.0781 0 10.938 0.39062v-6.25q-5.8594 0.39062-10.938 0.39062h-15.625v-6.6406h16.406q5.4688 0 11.719 0.39062v-6.25q-6.25 0.39062-11.719 0.39062h-16.406v-5.8594h19.922q5.8594 0 12.109 0.39062v-6.25q-5.8594 0.39062-11.719 0.39062h-49.609v-3.9062h-7.8125q0.39062 7.0312 0.39062 12.891v17.578q-1.9531-2.7344-3.7188-4.6875-1.75-1.9531-3.7031-4.2969-2.7344 2.3438-6.6406 4.6875 3.125 2.7344 6.25 6.25t6.0469 7.6094q2.9375 4.1094 5.4688 8.7969 2.5469 4.6875 4.8906 9.7656zm-19.141-65.234q4.6875-0.39062 13.672-0.39062h24.219q0 3.5156-0.39062 8.5938h8.2031q-0.39062-5.4688-0.39062-8.5938h24.609q6.6406 0 13.281 0.39062v-6.25q-6.6406 0.39062-13.281 0.39062h-14.062q4.6875-4.6875 11.516-7.2344 6.8438-2.5312 17.391-4.875-3.125-3.9062-4.6875-7.8125-7.0312 2.7344-12.109 4.8906-5.0781 2.1406-8.7969 4.4844-3.7031 2.3438-6.4375 4.875-2.7344 2.5469-5.4688 5.6719h-1.9531v-8.9844q0-5.8594 0.78125-11.719h-8.5938q0.39062 5.4688 0.39062 11.719v8.9844h-1.5625q-3.125-3.9062-6.4531-7.0312-3.3125-3.125-7.2188-5.4688t-8.5938-4.0938q-4.6875-1.7656-9.7656-4.1094-1.5625 3.5156-5.4688 7.4219 7.8125 1.1719 16.203 4.4844 8.4062 3.3281 12.703 8.7969h-14.062q-6.6406 0-13.672-0.39062z"/>
      <path id="SimHei-20934" d="m8.2031 70.703q3.5156 1.9531 7.4219 4.6875 1.9531-2.3438 6.0469-7.8125 4.1094-5.4688 7.625-10.547-4.6875-3.5156-7.4219-5.8594-3.125 6.6406-13.672 19.531zm14.062-32.031q3.125-3.5156 6.6406-6.6406-4.2969-7.8125-8.9844-17.781-4.6875-9.9531-7.4219-16.203-4.2969 4.6875-7.8125 7.8125 5.8594 7.0312 9.7656 14.453t7.8125 18.359zm12.109-1.5625q-3.5156 2.7344-7.8125 5.4688 4.6875 4.6875 10.344 16.203 5.6719 11.531 7.625 21.688 5.0781-1.9531 10.156-3.5156-2.3438-2.7344-6.25-13.281h27.734q8.5938 0 16.016 0.39062v-7.0312q-7.8125 0.39062-16.016 0.39062h-4.6875v-13.281q10.938 0 17.969 0.39062v-7.0312q-7.0312 0.39062-17.969 0.39062v-13.281q11.328 0 17.969 0.39062v-7.0312q-6.6406 0.39062-17.969 0.39062v-13.281q16.016 0 23.047 0.39062v-7.4219q-7.0312 0.39062-16.016 0.39062h-30.859v-8.2031h-7.8125q0.39062 7.0312 0.39062 19.922v37.109q-2.3438-4.6875-5.8594-10.156zm29.297 40.625q3.9062 1.1719 7.8125 3.125 2.7344-6.6406 4.2969-11.719-4.2969-1.1719-8.2031-3.125-1.1719 5.0781-3.9062 11.719zm-16.016-20.312v-13.281h16.406v13.281zm0-19.531v-13.281h16.406v13.281zm0-19.531v-13.281h16.406v13.281z"/>
      <path id="SimHei-30830" d="m21.484 39.844v-25h10.547v25zm-11.328-14.844q-2.3438 3.125-6.6406 5.4688 5.4688 5.0781 10.156 13.469 4.6875 8.4062 7.0312 21.297-7.4219 0-12.109-0.39062v6.25q5.4688-0.39062 10.547-0.39062h10.156q6.6406 0 11.328 0.39062v-6.25q-4.6875 0.39062-12.891 0.39062-2.3438-10.547-5.4688-19.922h16.406q-0.39062-6.6406-0.39062-12.5v-16.406q0-6.25 0.39062-14.453h-6.6406v7.4219h-10.547v-14.062h-6.6406q0.39062 8.2031 0.39062 14.062v23.828q-2.3438-3.9062-5.0781-8.2031zm60.156 5.8594v-10.547h12.891v10.547zm8.2031-41.406q-0.39062 3.9062-3.125 7.4219 4.6875 0 6.25 0.59375 1.5625 0.57812 1.5625 4.4844v12.891h-12.891v-21.094h-6.25v21.094h-10.547q-0.39062-5.0781-2.7344-11.141-2.3438-6.0469-8.2031-13.078-2.7344 3.9062-7.0312 4.6875 4.6875 4.2969 7.2188 9.1719 2.5469 4.8906 3.3281 11.141t0.96875 18.156q0.20312 11.922-0.1875 19.344h17.969q3.5156 6.25 5.8594 12.109h-15.234q-3.125-5.0781-10.547-14.844-3.125 2.7344-6.6406 3.9062 7.4219 7.4219 10.938 13.859 3.5156 6.4531 6.25 13.875 4.2969-1.9531 8.5938-3.125-1.9531-1.1719-5.4688-8.2031h22.656q-6.6406-12.109-8.5938-17.578h17.188q-0.39062-7.0312-0.39062-15.234v-38.672q0.39062-4.6875-1.9531-6.4375-2.3438-1.7656-8.9844-3.3281zm-25 58.203v-11.328h10.547v11.328zm0-16.797v-10.547h10.547v10.547zm16.797 16.797v-11.328h12.891v11.328z"/>
      <path id="SimHei-29575" d="m44.141 79.688q3.125 0.78125 7.4219 1.9531 1.1719-3.9062 2.7344-9.375h18.75q10.156 0 18.359 0.39062v-7.0312q-8.2031 0.78125-18.75 0.78125h-28.906q2.7344-1.9531 7.4219-4.2969-3.5156-2.7344-6.4531-6.0625-2.9219-3.3125-6.0469-6.8281h12.109q4.2969 5.0781 7.8125 10.547 3.125-2.7344 7.4219-5.4688-5.0781-2.7344-10.547-8.5938t-15.234-14.062l18.359 1.1719q-1.9531 2.7344-3.9062 5.4688 2.3438 1.1719 5.4688 3.125 3.125-4.2969 10.156-14.844-2.7344-1.1719-6.25-3.5156-1.1719 1.9531-2.7344 5.0781-4.2969-0.39062-8.5938-0.78125v-11.719h25.781q7.8125 0 14.062 0.39062v-6.6406q-5.8594 0.39062-14.453 0.39062h-25.391v-7.4219q0-7.0312 0.39062-12.5h-7.8125q0.39062 5.4688 0.39062 12.5v7.4219h-23.828q-7.4219 0-14.844-0.78125v7.0312q7.4219-0.39062 15.234-0.39062h23.438v10.938q-3.5156-0.39062-6.8438-0.98438-3.3125-0.57812-6.4375-1.75-1.1719 4.2969-2.7344 7.8125 3.125 0.39062 6.8281 3.125 3.7188 2.7344 9.9688 9.7656-10.156-1.1719-14.062-2.7344-0.78125 3.9062-2.7344 8.5938 3.125 0 6.8281 4.875 3.7188 4.8906 6.4531 11.141h-17.969q-8.5938 0-16.406-0.78125v7.0312q7.8125-0.39062 16.406-0.39062h21.484q-1.1719 4.2969-2.3438 7.4219zm-31.25-23.438q2.3438 2.3438 4.6875 5.0781 5.0781-4.2969 9.7656-8.9844-2.7344-3.125-5.0781-5.4688-4.2969 5.4688-9.375 9.375zm-3.125-26.562q4.2969 2.3438 8.5938 5.2656 4.2969 2.9375 7.8125 6.0625 1.5625-3.125 3.125-6.25-3.9062-2.3438-7.625-5.4688-3.7031-3.125-6.8281-6.6406-2.3438 3.5156-5.0781 7.0312zm71.094 32.812q3.125-3.9062 5.8594-6.6406-2.7344-0.78125-6.25-3.9062t-7.8125-6.6406q-1.9531 2.7344-4.2969 5.0781 3.5156 2.3438 6.25 4.875 2.7344 2.5469 6.25 7.2344zm-10.938-25.781q2.3438 2.7344 4.2969 5.4688 3.9062-2.7344 7.0312-5.0781t8.2031-6.25q-3.125-2.3438-5.8594-5.8594-2.7344 3.125-6.25 6.25t-7.4219 5.4688z"/>
      <path id="SimHei-55" d="m43.359 60.156-18.359-58.594h-8.9844l18.75 59.375h-28.516v7.4219h37.109z"/>
      <path id="SimHei-54" d="m44.531 24.219q0-10.938-4.6875-17.188t-14.062-6.25-14.844 7.8125-5.4688 25.391q0 16.016 5.6562 25.578 5.6719 9.5781 16.219 9.5781 7.4219 0 11.906-5.4688 4.5-5.4688 4.5-12.109h-8.9844q0 3.9062-2.1562 7.0312-2.1406 3.125-5.6562 3.125-5.8594 0-8.9844-6.0625-3.125-6.0469-3.5156-18.547 2.7344 5.0781 5.8594 7.0312t7.4219 1.9531q7.4219 0 12.109-5.8594t4.6875-16.016zm-9.375 0q0 7.0312-2.3438 10.938t-6.6406 3.9062q-5.0781 0-8.0156-3.9062-2.9219-3.9062-2.9219-9.375 0-8.5938 2.9219-13.281 2.9375-4.6875 8.0156-4.6875 3.5156 0 6.25 3.5156t2.7344 12.891z"/>
      <path id="SimHei-46" d="m17.188 1.5625h-8.9844v8.5938h8.9844z"/>
      <path id="SimHei-37" d="m22.266 51.562q0-11.328-3.3281-14.453-3.3125-3.125-6.4375-3.125t-6.4531 3.125q-3.3125 3.125-3.3125 14.453t3.3125 14.453q3.3281 3.125 6.4531 3.125t6.4375-3.125q3.3281-3.125 3.3281-14.453zm19.141 16.406-30.078-67.188-3.125 1.1719 30.078 67.188zm5.4688-49.609q0-11.328-3.3281-14.453-3.3125-3.125-6.4375-3.125t-6.4531 3.125q-3.3125 3.125-3.3125 14.453t3.3125 14.453q3.3281 3.125 6.4531 3.125t6.4375-3.125q3.3281-3.125 3.3281-14.453zm-30.859 33.203q0 7.0312-0.78125 9.375t-2.7344 2.3438-2.7344-2.3438-0.78125-9.375 0.78125-9.375 2.7344-2.3438 2.7344 2.3438 0.78125 9.375zm24.609-33.203q0 7.0312-0.78125 9.375t-2.7344 2.3438-2.7344-2.3438-0.78125-9.375 0.78125-9.375 2.7344-2.3438 2.7344 2.3438 0.78125 9.375z"/>
     </defs>
     <g transform="translate(9.7827 209.06) scale(.13 -.13)">
      <use xlink:href="#SimHei-101"/>
      <use x="50" xlink:href="#SimHei-112"/>
      <use x="100" xlink:href="#SimHei-111"/>
      <use x="150" xlink:href="#SimHei-99"/>
      <use x="200" xlink:href="#SimHei-104"/>
      <use x="250" xlink:href="#SimHei-115"/>
      <use x="300" xlink:href="#SimHei-65306"/>
      <use x="400" xlink:href="#SimHei-49"/>
      <use x="450" xlink:href="#SimHei-48"/>
      <use x="500" xlink:href="#SimHei-48"/>
      <use x="550" xlink:href="#SimHei-65292"/>
      <use x="650" xlink:href="#SimHei-35757"/>
      <use x="750" xlink:href="#SimHei-32451"/>
      <use x="850" xlink:href="#SimHei-38598"/>
      <use x="950" xlink:href="#SimHei-20934"/>
      <use x="1050" xlink:href="#SimHei-30830"/>
      <use x="1150" xlink:href="#SimHei-29575"/>
      <use x="1250" xlink:href="#SimHei-65306"/>
      <use x="1350" xlink:href="#SimHei-55"/>
      <use x="1400" xlink:href="#SimHei-54"/>
      <use x="1450" xlink:href="#SimHei-46"/>
      <use x="1500" xlink:href="#SimHei-54"/>
      <use x="1550" xlink:href="#SimHei-55"/>
      <use x="1600" xlink:href="#SimHei-37"/>
     </g>
    </g>
   </g>
   <g id="line2d_1">
    <path d="m55.323 217 107.44-218" clip-path="url(#p58280809b8)" fill="none" stroke="#000" stroke-linecap="square" stroke-width="1.5"/>
   </g>
   <g id="patch_3">
    <path d="m34.56 194.4v-194.18" fill="none" stroke="#000" stroke-linecap="square" stroke-width=".8"/>
   </g>
   <g id="patch_4">
    <path d="m199.51 194.4v-194.18" fill="none" stroke="#000" stroke-linecap="square" stroke-width=".8"/>
   </g>
   <g id="patch_5">
    <path d="m34.56 194.4h164.95" fill="none" stroke="#000" stroke-linecap="square" stroke-width=".8"/>
   </g>
   <g id="patch_6">
    <path d="m34.56 0.216h164.95" fill="none" stroke="#000" stroke-linecap="square" stroke-width=".8"/>
   </g>
  </g>
  <g id="axes_2">
   <g id="patch_7">
    <path d="m232.49 194.4h164.95v-194.18h-164.95z" fill="#fff"/>
   </g>
   <g id="PathCollection_11">
    <path d="m233.11 194.4h0.61318 0.61318 0.61318 0.61318 0.61318 0.61318 0.61318 0.61318 0.61318 0.61318 0.61318 0.61318 0.61318 0.61318 0.61318 0.61318 0.61318 0.61318 0.61318 0.61318 0.61318 0.61318 0.61318 0.61318 0.61318 0.61318 0.61318 0.61318 0.61318 0.61318 0.61318 0.61318 0.61318 0.61318 0.61318 0.61318 0.61318 0.61318 0.61318 0.61318 0.076647l1.7629-3.4041 0.61318-1.184 0.61318-1.184 0.61318-1.184 2.4527-4.7362 1.2264-2.3681 0.61318-1.184 3.0659-5.9202 0.61318-1.184 0.61318-1.184 0.61318-1.184 3.0659-5.9202 0.61318-1.184 0.61318-1.184 0.61318-1.184 3.6791-7.1043 0.61318-1.184 0.61318-1.184 2.4527-4.7362 0.61318-1.184 0.68983-1.3321v-1.184l0.53653-1.036 0.61318-1.184 2.4527-4.7362 0.61318-1.184 1.2264-2.3681 3.0659-5.9202 0.61318-1.184 0.61318-1.184 0.61318-1.184 3.6791-7.1043 0.61318-1.184 0.61318-1.184 3.0659-5.9202 1.2264-2.3681 0.61318-1.184 2.4527-4.7362 0.61318-1.184 0.61318-1.184 3.6791-7.1043 0.61318-1.184 0.61318-1.184 0.61318-1.184 1.303-2.5161v-1.184l1.7629-3.4041 0.61318-1.184 0.61318-1.184 0.61318-1.184 3.0659-5.9202 1.2264-2.3681 0.61318-1.184 3.0659-5.9202 0.61318-1.184 1.2264-2.3681 2.4527-4.7362 0.61318-1.184 0.61318-1.184 0.61318-1.184 3.0659-5.9202 0.61318-1.184 0.61318-1.184 0.61318-1.184 3.0659-5.9202 0.61318-1.184 0.61318-1.184 0.61318-1.184 3.0659-5.9202 0.076648-0.14801v-1.184l0.53653-1.036 1.2264-2.3681 3.0659-5.9202 0.61318-1.184 0.61318-1.184 3.0659-5.9202 0.61318-1.184 0.61318-1.184 0.61318-1.184 0.076648-0.14801h-0.076648-0.61318-0.61318-0.61318-0.61318-0.61318-0.61318-0.61318-0.61318-0.61318-0.61318-0.61318-0.61318-0.61318-0.61318-0.61318-0.61318-0.61318-0.61318-0.61318-0.61318-0.61318-0.61318-0.61318-0.61318-0.61318-0.61318-0.61318-0.61318-0.61318-0.61318-0.61318-0.61318-0.61318-0.61318-0.61318-0.61318-0.61318-0.61318-0.61318-0.61318-0.61318-0.61318-0.61318-0.61318-0.61318-0.61318-0.61318-0.61318-0.61318-0.61318-0.61318-0.61318-0.61318-0.61318-0.61318-0.61318-0.61318-0.61318-0.61318-0.61318-0.61318-0.61318-0.61318-0.61318-0.61318-0.61318-0.61318-0.61318-0.61318-0.61318-0.61318-0.61318-0.61318-0.61318-0.61318-0.61318-0.61318-0.61318-0.61318-0.61318-0.61318-0.61318-0.61318-0.61318-0.61318-0.61318-0.61318-0.61318-0.61318-0.61318-0.61318-0.61318-0.61318-0.61318-0.61318-0.61318-0.61318-0.61318-0.61318-0.61318-0.61318-0.61318-0.61318-0.61318-0.61318-0.61318-0.61318-0.61318-0.61318-0.61318-0.61318-0.61318-0.61318-0.61318-0.61318-0.61318-0.61318-0.61318-0.61318-0.61318-0.61318-0.61318-0.61318-0.61318-0.61318-0.61318-0.61318-0.61318-0.61318-0.61318-0.61318-0.61318-0.61318-0.61318-0.61318-0.61318-0.61318-0.61318-0.61318-0.61318-0.61318-0.61318-0.61318-0.61318-0.61318-0.61318-0.61318-0.61318-0.61318-0.61318-0.61318-0.61318-0.61318-0.61318-0.61318-0.61318-0.61318-0.61318-0.61318-0.61318-0.61318-0.61318-0.61318-0.61318-0.61318-0.61318-0.61318-0.61318-0.61318-0.61318-0.61318-0.61318-0.61318-0.61318-0.61318-0.61318-0.61318-0.61318-0.61318-0.61318-0.61318-0.61318-0.61318-0.61318-0.61318-0.61318-0.61318-0.61318-0.61318-0.61318-0.61318-0.61318-0.61318-0.61318-0.61318-0.61318-0.61318-0.61318-0.61318-0.61318-0.61318-0.61318v1.184 1.184 1.184 1.184 1.184 1.184 1.184 1.184 1.184 1.184 1.184 1.184 1.184 1.184 1.184 1.184 1.184 1.184 1.184 1.184 1.184 1.184 1.184 1.184 1.184 1.184 1.184 1.184 1.184 1.184 1.184 1.184 1.184 1.184 1.184 1.184 1.184 1.184 1.184 1.184 1.184 1.184 1.184 1.184 1.184 1.184 1.184 1.184 1.184 1.184 1.184 1.184 1.184 1.184 1.184 1.184 1.184 1.184 1.184 1.184 1.184 1.184 1.184 1.184 1.184 1.184 1.184 1.184 1.184 1.184 1.184 1.184 1.184 1.184 1.184 1.184 1.184 1.184 1.184 1.184 1.184 1.184 1.184 1.184 1.184 1.184 1.184 1.184 1.184 1.184 1.184 1.184 1.184 1.184 1.184 1.184 1.184 1.184 1.184 1.184 1.184 1.184 1.184 1.184 1.184 1.184 1.184 1.184 1.184 1.184 1.184 1.184 1.184 1.184 1.184 1.184 1.184 1.184 1.184 1.184 1.184 1.184 1.184 1.184 1.184 1.184 1.184 1.184 1.184 1.184 1.184 1.184 1.184 1.184 1.184 1.184 1.184 1.184 1.184 1.184 1.184 1.184 1.184 1.184 1.184 1.184 1.184 1.184 1.184 1.184 1.184 1.184 1.184 1.184 1.184 1.184 1.184 1.184 1.184 1.184 1.184 1.184 1.184 1.184z" clip-path="url(#paa5dc989cf)" fill="#1e90ff" fill-opacity=".4"/>
   </g>
   <g id="PathCollection_12">
    <path d="m258.25 193.51 3.0659-5.9202 14.256-27.529 4.7521-9.1764 3.8324-7.4003v-1.184l1.0731-2.0721 9.351-18.057 4.9054-9.4724 4.7521-9.1764 4.4456-8.5844 4.9054-9.4724 1.2264-2.3681v-1.184l3.6791-7.1043 9.6576-18.649 4.4456-8.5844 12.877-24.865v-1.184l1.6862-3.2561 4.9054-9.4724 4.4456-8.5844h-0.076647l-0.61318 1.184-0.61318 1.184-0.61318 1.184-3.0659 5.9202-0.61318 1.184-0.61318 1.184-3.0659 5.9202-1.2264 2.3681-0.61318 1.184v1.184l-3.0659 5.9202-0.61318 1.184-0.61318 1.184-0.61318 1.184-3.0659 5.9202-0.61318 1.184-0.61318 1.184-0.61318 1.184-3.0659 5.9202-0.61318 1.184-0.61318 1.184-0.61318 1.184-2.4527 4.7362-1.2264 2.3681-0.61318 1.184-3.0659 5.9202-0.61318 1.184-1.2264 2.3681-3.0659 5.9202-0.61318 1.184-0.61318 1.184-0.61318 1.184-1.8395 3.5521v1.184l-0.076647 0.14801-1.1497 2.2201-0.61318 1.184-0.61318 1.184-0.61318 1.184-3.6791 7.1043-0.61318 1.184-0.61318 1.184-2.4527 4.7362-0.61318 1.184-1.2264 2.3681-3.0659 5.9202-0.61318 1.184-0.61318 1.184-3.6791 7.1043-0.61318 1.184-0.61318 1.184-0.61318 1.184-3.0659 5.9202-1.2264 2.3681-0.61318 1.184-2.4527 4.7362-0.61318 1.184-0.61318 1.184v1.184l-0.61318 1.184-0.61318 1.184-2.4527 4.7362-0.61318 1.184-0.61318 1.184-3.6791 7.1043-0.61318 1.184-0.61318 1.184-0.61318 1.184-3.0659 5.9202-0.61318 1.184-0.61318 1.184-0.61318 1.184-3.0659 5.9202-0.61318 1.184-1.2264 2.3681-2.4527 4.7362-0.61318 1.184-0.61318 1.184-0.61318 1.184-1.8395 3.5521h0.076648z" clip-path="url(#paa5dc989cf)" fill="#1e90ff" fill-opacity=".4"/>
   </g>
   <g id="PathCollection_13">
    <path d="m258.25 193.66 0.22994-0.44402 2.2228-4.2922 4.9054-9.4724 3.6791-7.1043 1.2264-2.3681 3.6791-7.1043 0.61318-1.184 4.9054-9.4724 0.61318-1.184 3.909-7.5483v-1.184l0.38324-0.74003 0.61318-1.184 8.5845-16.577 4.9054-9.4724 0.61318-1.184 4.9054-9.4724 8.5845-16.577 0.61318-1.184 1.4563-2.8121v-1.184l2.2228-4.2922 0.61318-1.184 0.61318-1.184 4.9054-9.4724 4.9054-9.4724 3.6791-7.1043 4.9054-9.4724 0.61318-1.184 4.9054-9.4724 3.2958-6.3643v-1.184l1.6096-3.1081 3.6791-7.1043 4.9054-9.4724 0.61318-1.184 0.22994-0.44402h-0.076648l-4.2923 8.2883-4.9054 9.4724-1.8395 3.5521v1.184l-12.417 23.977-4.7521 9.1764-9.351 18.057-4.139 7.9923v1.184l-0.76648 1.4801-4.9054 9.4724-4.7521 9.1764-4.4456 8.5844-4.9054 9.4724-9.6576 18.649-1.2264 2.3681v1.184l-0.1533 0.29601-3.5258 6.8083-4.4456 8.5844-14.563 28.121-3.6791 7.1043h0.076647z" clip-path="url(#paa5dc989cf)" fill="#1e90ff" fill-opacity=".4"/>
   </g>
   <g id="PathCollection_14">
    <path d="m258.25 193.81 26.06-50.322v-1.184l0.91977-1.7761 9.5043-18.353 9.5043-18.353 4.5989-8.8804 4.9054-9.4724 1.2264-2.3681v-1.184l3.6791-7.1043 4.5989-8.8804 4.9054-9.4724 4.5989-8.8804 4.9054-9.4724 4.5989-8.8804 3.3725-6.5123v-1.184l1.533-2.9601 9.5043-18.353h-0.076647l-0.61318 1.184-0.61318 1.184-4.9054 9.4724-0.61318 1.184-4.2923 8.2883v1.184l-0.61318 1.184-8.5845 16.577-4.9054 9.4724-0.61318 1.184-4.9054 9.4724-8.5845 16.577-0.61318 1.184-1.8395 3.5521v1.184l-0.22994 0.44402-2.2228 4.2922-0.61318 1.184-4.9054 9.4724-4.9054 9.4724-3.6791 7.1043-4.9054 9.4724-0.61318 1.184-4.9054 9.4724-3.6791 7.1043v1.184l-1.2264 2.3681-3.6791 7.1043-4.9054 9.4724-0.61318 1.184-4.9054 9.4724-3.6791 7.1043-1.2264 2.3681-3.6791 7.1043-0.61318 1.184-1.8395 3.5521h0.076648z" clip-path="url(#paa5dc989cf)" fill="#1e90ff" fill-opacity=".4"/>
   </g>
   <g id="PathCollection_15">
    <path d="m258.25 193.96 0.38324-0.74003 4.9054-9.4724 3.6791-7.1043 4.9054-9.4724 0.61318-1.184 4.9054-9.4724 3.6791-7.1043 3.0659-5.9202v-1.184l0.22994-0.44402 7.1282-13.765 4.9054-9.4724 3.6791-7.1043 1.2264-2.3681 3.6791-7.1043 0.61318-1.184 4.9054-9.4724 0.61318-1.184 3.6791-7.1043v-1.184l0.61318-1.184 3.6791-7.1043 1.2264-2.3681 3.6791-7.1043 0.61318-1.184 4.9054-9.4724 0.61318-1.184 4.9054-9.4724 3.6791-7.1043 4.9054-9.4724 0.61318-1.184 1.2264-2.3681v-1.184l2.4527-4.7362 0.61318-1.184 0.61318-1.184 4.9054-9.4724 2.4527-4.7362h-0.076648l-9.1977 17.761-1.8395 3.5521v1.184l-3.0659 5.9202-4.5989 8.8804-4.9054 9.4724-4.5989 8.8804-4.9054 9.4724-4.5989 8.8804-3.9857 7.6963v1.184l-0.91977 1.7761-4.9054 9.4724-4.5989 8.8804-9.5043 18.353-9.5043 18.353-1.2264 2.3681v1.184l-26.367 50.914h0.076647z" clip-path="url(#paa5dc989cf)" fill="#ffe4c4" fill-opacity=".4"/>
   </g>
   <g id="PathCollection_16">
    <path d="m258.25 194.1 7.818-15.097 4.4456-8.5844 13.95-26.937v-1.184l0.1533-0.29601 5.3653-10.36 14.256-27.529 4.7521-9.1764 6.1318-11.84v-1.184l13.03-25.161 4.7521-9.1764 9.351-18.057 3.5258-6.8083v-1.184l1.3797-2.6641 9.6576-18.649h-0.076647l-2.2228 4.2922-0.61318 1.184-1.2264 2.3681-3.6791 7.1043-0.61318 1.184-2.6827 5.1802v1.184l-2.2228 4.2922-4.9054 9.4724-0.61318 1.184-4.9054 9.4724-3.6791 7.1043-4.9054 9.4724-0.61318 1.184-4.9054 9.4724-3.6791 7.1043-0.22994 0.44402v1.184l-0.38324 0.74003-0.61318 1.184-3.6791 7.1043-1.2264 2.3681-3.6791 7.1043-0.61318 1.184-4.9054 9.4724-3.6791 7.1043-1.2264 2.3681-3.6791 7.1043-0.61318 1.184-4.9054 9.4724-1.4563 2.8121v1.184l-2.836 5.4762-0.61318 1.184-3.6791 7.1043-1.2264 2.3681-3.6791 7.1043-0.61318 1.184-4.9054 9.4724-0.61318 1.184-8.2013 15.837h0.076648z" clip-path="url(#paa5dc989cf)" fill="#ffe4c4" fill-opacity=".4"/>
   </g>
   <g id="PathCollection_17">
    <path d="m258.25 194.25 0.53653-1.036 3.0659-5.9202 1.2264-2.3681 0.61318-1.184 2.4527-4.7362 0.61318-1.184 0.61318-1.184 3.6791-7.1043 0.61318-1.184 0.61318-1.184 0.61318-1.184 3.0659-5.9202 1.2264-2.3681 0.61318-1.184 3.0659-5.9202 0.61318-1.184 1.2264-2.3681 1.8395-3.5521v-1.184l0.076647-0.14801 1.1497-2.2201 0.61318-1.184 1.2264-2.3681 2.4527-4.7362 0.61318-1.184 0.61318-1.184 0.61318-1.184 3.0659-5.9202 0.61318-1.184 0.61318-1.184 0.61318-1.184 3.0659-5.9202 0.61318-1.184 1.2264-2.3681 3.0659-5.9202 0.61318-1.184 0.61318-1.184 3.0659-5.9202 0.61318-1.184 0.61318-1.184 0.61318-1.184 3.0659-5.9202 0.61318-1.184 0.61318-1.184v-1.184l0.61318-1.184 3.0659-5.9202 0.61318-1.184 0.61318-1.184 0.61318-1.184 3.0659-5.9202 0.61318-1.184 0.61318-1.184 3.6791-7.1043 0.61318-1.184 0.61318-1.184 0.61318-1.184 2.4527-4.7362 0.61318-1.184 0.61318-1.184 0.61318-1.184 3.0659-5.9202 0.61318-1.184 0.61318-1.184 0.61318-1.184 3.0659-5.9202 0.61318-1.184 0.61318-1.184 0.61318-1.184 1.2264-2.3681v-1.184l0.076647-0.14801 1.7629-3.4041 0.61318-1.184 0.61318-1.184 0.61318-1.184 3.0659-5.9202 0.61318-1.184 0.61318-1.184 0.61318-1.184 2.4527-4.7362h-0.076648l-9.1977 17.761-1.8395 3.5521v1.184l-3.0659 5.9202-9.6576 18.649-4.4456 8.5844-13.49 26.049v1.184l-5.9785 11.544-4.4456 8.5844-14.563 28.121-5.6719 10.952v1.184l-13.49 26.049-4.7521 9.1764-8.1246 15.689h0.076647z" clip-path="url(#paa5dc989cf)" fill="#ffe4c4" fill-opacity=".4"/>
   </g>
   <g id="PathCollection_18">
    <path d="m258.25 194.4h0.61318 0.61318 0.61318 0.61318 0.61318 0.61318 0.61318 0.61318 0.61318 0.61318 0.61318 0.61318 0.61318 0.61318 0.61318 0.61318 0.61318 0.61318 0.61318 0.61318 0.61318 0.61318 0.61318 0.61318 0.61318 0.61318 0.61318 0.61318 0.61318 0.61318 0.61318 0.61318 0.61318 0.61318 0.61318 0.61318 0.61318 0.61318 0.61318 0.61318 0.61318 0.61318 0.61318 0.61318 0.61318 0.61318 0.61318 0.61318 0.61318 0.61318 0.61318 0.61318 0.61318 0.61318 0.61318 0.61318 0.61318 0.61318 0.61318 0.61318 0.61318 0.61318 0.61318 0.61318 0.61318 0.61318 0.61318 0.61318 0.61318 0.61318 0.61318 0.61318 0.61318 0.61318 0.61318 0.61318 0.61318 0.61318 0.61318 0.61318 0.61318 0.61318 0.61318 0.61318 0.61318 0.61318 0.61318 0.61318 0.61318 0.61318 0.61318 0.61318 0.61318 0.61318 0.61318 0.61318 0.61318 0.61318 0.61318 0.61318 0.61318 0.61318 0.61318 0.61318 0.61318 0.61318 0.61318 0.61318 0.61318 0.61318 0.61318 0.61318 0.61318 0.61318 0.61318 0.61318 0.61318 0.61318 0.61318 0.61318 0.61318 0.61318 0.61318 0.61318 0.61318 0.61318 0.61318 0.61318 0.61318 0.61318 0.61318 0.61318 0.61318 0.61318 0.61318 0.61318 0.61318 0.61318 0.61318 0.61318 0.61318 0.61318 0.61318 0.61318 0.61318 0.61318 0.61318 0.61318 0.61318 0.61318 0.61318 0.61318 0.61318 0.61318 0.61318 0.61318 0.61318 0.61318 0.61318 0.61318 0.61318 0.61318 0.61318 0.61318 0.61318 0.61318 0.61318 0.61318 0.61318 0.61318 0.61318 0.61318 0.61318 0.61318 0.61318 0.61318 0.61318 0.61318 0.61318 0.61318 0.61318 0.61318 0.61318 0.61318 0.61318 0.61318 0.61318 0.61318 0.61318 0.61318 0.61318 0.61318 0.61318 0.61318 0.61318 0.61318 0.61318 0.61318 0.61318 0.61318 0.61318 0.61318 0.61318 0.61318 0.61318 0.61318 0.61318 0.61318 0.61318 0.61318 0.61318 0.61318 0.61318 0.61318 0.61318 0.61318 0.61318 0.61318 0.61318 0.61318 0.61318 0.61318 0.61318 0.61318 0.61318 0.61318 0.61318v-1.184-1.184-1.184-1.184-1.184-1.184-1.184-1.184-1.184-1.184-1.184-1.184-1.184-1.184-1.184-1.184-1.184-1.184-1.184-1.184-1.184-1.184-1.184-1.184-1.184-1.184-1.184-1.184-1.184-1.184-1.184-1.184-1.184-1.184-1.184-1.184-1.184-1.184-1.184-1.184-1.184-1.184-1.184-1.184-1.184-1.184-1.184-1.184-1.184-1.184-1.184-1.184-1.184-1.184-1.184-1.184-1.184-1.184-1.184-1.184-1.184-1.184-1.184-1.184-1.184-1.184-1.184-1.184-1.184-1.184-1.184-1.184-1.184-1.184-1.184-1.184-1.184-1.184-1.184-1.184-1.184-1.184-1.184-1.184-1.184-1.184-1.184-1.184-1.184-1.184-1.184-1.184-1.184-1.184-1.184-1.184-1.184-1.184-1.184-1.184-1.184-1.184-1.184-1.184-1.184-1.184-1.184-1.184-1.184-1.184-1.184-1.184-1.184-1.184-1.184-1.184-1.184-1.184-1.184-1.184-1.184-1.184-1.184-1.184-1.184-1.184-1.184-1.184-1.184-1.184-1.184-1.184-1.184-1.184-1.184-1.184-1.184-1.184-1.184-1.184-1.184-1.184-1.184-1.184-1.184-1.184-1.184-1.184-1.184-1.184-1.184-1.184-1.184-1.184-1.184-1.184-1.184-1.184-1.184-1.184-1.184-1.184-1.184-1.184h-0.61318-0.61318-0.61318-0.61318-0.61318-0.61318-0.61318-0.61318-0.61318-0.61318-0.61318-0.61318-0.61318-0.61318-0.61318-0.61318-0.61318-0.61318-0.61318-0.61318-0.61318-0.61318-0.61318-0.61318-0.61318-0.61318-0.61318-0.61318-0.61318-0.61318-0.61318-0.61318-0.61318-0.61318-0.61318-0.61318-0.61318-0.61318-0.61318-0.61318-0.61318-0.61318-0.61318-0.61318-0.61318-0.61318-0.61318-0.61318-0.61318-0.61318-0.61318-0.61318-0.61318-0.61318-0.61318-0.61318-0.61318-0.61318-0.61318-0.61318-0.61318-0.61318-0.61318-0.61318-0.61318-0.61318-0.076648l-2.3761 4.5882-0.61318 1.184-0.61318 1.184-0.61318 1.184-3.0659 5.9202-0.61318 1.184-0.61318 1.184-0.61318 1.184-1.9162 3.7002v1.184l-1.1497 2.2201-0.61318 1.184-0.61318 1.184-0.61318 1.184-3.0659 5.9202-0.61318 1.184-0.61318 1.184-0.61318 1.184-3.0659 5.9202-0.61318 1.184-0.61318 1.184-0.61318 1.184-2.4527 4.7362-0.61318 1.184-0.61318 1.184-0.61318 1.184-3.6791 7.1043-0.61318 1.184-0.61318 1.184-3.0659 5.9202-0.61318 1.184-0.61318 1.184-0.61318 1.184-3.0659 5.9202-0.61318 1.184-0.076648 0.14801v1.184l-0.53653 1.036-0.61318 1.184-3.0659 5.9202-0.61318 1.184-0.61318 1.184-0.61318 1.184-3.0659 5.9202-0.61318 1.184-0.61318 1.184-3.0659 5.9202-1.2264 2.3681-0.61318 1.184-3.0659 5.9202-0.61318 1.184-0.61318 1.184-0.61318 1.184-3.0659 5.9202-0.61318 1.184-0.61318 1.184-0.61318 1.184-2.4527 4.7362-1.2264 2.3681-0.61318 1.184-1.303 2.5161v1.184l-1.7629 3.4041-1.2264 2.3681-0.61318 1.184-3.0659 5.9202-0.61318 1.184-1.2264 2.3681-3.0659 5.9202-0.61318 1.184-0.61318 1.184-0.61318 1.184-3.6791 7.1043-0.61318 1.184-0.61318 1.184-2.4527 4.7362-0.61318 1.184-1.2264 2.3681-3.0659 5.9202-0.61318 1.184-0.076648 0.14801z" clip-path="url(#paa5dc989cf)" fill="#ffe4c4" fill-opacity=".4"/>
   </g>
   <g id="PathCollection_19" fill="#1e90ff" stroke="#1e90ff" stroke-width="1.5">
    <path d="m290.81 120.44 6-6m-6 0 6 6" clip-path="url(#paa5dc989cf)"/>
    <path d="m260.15 138.2 6-6m-6 0 6 6" clip-path="url(#paa5dc989cf)"/>
    <path d="m281.61 120.44 6-6m-6 0 6 6" clip-path="url(#paa5dc989cf)"/>
    <path d="m296.94 102.68 6-6m-6 0 6 6" clip-path="url(#paa5dc989cf)"/>
    <path d="m287.75 108.6 6-6m-6 0 6 6" clip-path="url(#paa5dc989cf)"/>
    <path d="m284.68 120.44 6-6m-6 0 6 6" clip-path="url(#paa5dc989cf)"/>
    <path d="m309.21 108.6 6-6m-6 0 6 6" clip-path="url(#paa5dc989cf)"/>
    <path d="m303.08 126.36 6-6m-6 0 6 6" clip-path="url(#paa5dc989cf)"/>
   </g>
   <g id="PathCollection_20">
    <defs>
     <path id="C1_0_a9cd2dda3b" d="m0 3c0.79561 0 1.5587-0.3161 2.1213-0.87868 0.56258-0.56258 0.87868-1.3257 0.87868-2.1213s-0.3161-1.5587-0.87868-2.1213c-0.56258-0.56258-1.3257-0.87868-2.1213-0.87868s-1.5587 0.3161-2.1213 0.87868c-0.56258 0.56258-0.87868 1.3257-0.87868 2.1213s0.3161 1.5587 0.87868 2.1213c0.56258 0.56258 1.3257 0.87868 2.1213 0.87868z"/>
    </defs>
    <g clip-path="url(#paa5dc989cf)">
     <use x="364.328273" y="70.074878" fill="#ffe4c4" stroke="#000000" xlink:href="#C1_0_a9cd2dda3b"/>
    </g>
    <g clip-path="url(#paa5dc989cf)">
     <use x="330.603366" y="70.074878" fill="#ffe4c4" stroke="#000000" xlink:href="#C1_0_a9cd2dda3b"/>
    </g>
    <g clip-path="url(#paa5dc989cf)">
     <use x="318.339763" y="58.23439" fill="#ffe4c4" stroke="#000000" xlink:href="#C1_0_a9cd2dda3b"/>
    </g>
    <g clip-path="url(#paa5dc989cf)">
     <use x="315.273863" y="105.596341" fill="#ffe4c4" stroke="#000000" xlink:href="#C1_0_a9cd2dda3b"/>
    </g>
    <g clip-path="url(#paa5dc989cf)">
     <use x="348.99877" y="58.23439" fill="#ffe4c4" stroke="#000000" xlink:href="#C1_0_a9cd2dda3b"/>
    </g>
    <g clip-path="url(#paa5dc989cf)">
     <use x="321.405664" y="75.995122" fill="#ffe4c4" stroke="#000000" xlink:href="#C1_0_a9cd2dda3b"/>
    </g>
    <g clip-path="url(#paa5dc989cf)">
     <use x="333.669267" y="70.074878" fill="#ffe4c4" stroke="#000000" xlink:href="#C1_0_a9cd2dda3b"/>
    </g>
    <g clip-path="url(#paa5dc989cf)">
     <use x="367.394174" y="64.154634" fill="#ffe4c4" stroke="#000000" xlink:href="#C1_0_a9cd2dda3b"/>
    </g>
    <g clip-path="url(#paa5dc989cf)">
     <use x="333.669267" y="64.154634" fill="#ffe4c4" stroke="#000000" xlink:href="#C1_0_a9cd2dda3b"/>
    </g>
    <g clip-path="url(#paa5dc989cf)">
     <use x="333.669267" y="111.516585" fill="#ffe4c4" stroke="#000000" xlink:href="#C1_0_a9cd2dda3b"/>
    </g>
    <g clip-path="url(#paa5dc989cf)">
     <use x="355.130571" y="87.83561" fill="#ffe4c4" stroke="#000000" xlink:href="#C1_0_a9cd2dda3b"/>
    </g>
    <g clip-path="url(#paa5dc989cf)">
     <use x="299.94436" y="93.755854" fill="#ffe4c4" stroke="#000000" xlink:href="#C1_0_a9cd2dda3b"/>
    </g>
   </g>
   <g id="matplotlib.axis_3">
    <g id="text_2">
     <!-- 验证集准确率：80.00% -->
     <defs>
      <path id="SimHei-39564" d="m6.25 73.047q5.8594-0.39062 11.719-0.39062h18.359q-0.78125-3.5156-1.1719-10.156l-2.7344-29.688h7.0312q-0.39062-3.125-0.78125-10.156l-1.1719-21.094q0-7.8125-4.6875-8.9844t-12.891-2.3438q-1.1719 5.0781-3.125 8.5938 8.2031 0 10.734 0.20312 2.5469 0.1875 3.3281 3.7031l1.1719 23.828h-22.656q0.39062 7.0312 0.57812 15.625 0.20312 8.5938 0.20312 16.406h7.4219q-0.78125-4.2969-1.1719-10.938t-0.39062-14.844h9.7656l2.7344 33.594h-10.547q-5.8594 0-11.719-0.39062zm-2.3438-58.594q5.4688 0.39062 11.125 1.1719 5.6719 0.78125 13.094 1.9531-0.39062-2.7344-0.78125-6.6406-5.8594-0.78125-9.5781-1.5625-3.7031-0.78125-11.125-3.125-1.1719 4.2969-2.7344 8.2031zm55.078 65.625q4.6875-1.1719 10.156-2.3438l-1.9531-2.7344q6.25-11.719 12.891-17 6.6406-5.2656 15.234-8.3906-3.5156-3.125-5.4688-7.4219-5.0781 2.7344-10.156 7.0312v-6.25q-5.0781 0.39062-14.266 0.39062-9.1719 0-15.031-0.39062v5.8594q-2.3438-3.125-6.6406-7.8125-3.5156 3.125-7.0312 5.0781 5.8594 4.2969 9.1719 8.5938 3.3281 4.2969 5.8594 8.7812 2.5469 4.5 4.2969 8.4062 1.7656 3.9062 2.9375 8.2031zm3.9062-9.375q-2.7344-6.25-5.2812-10.547-2.5312-4.2969-6.8281-10.547h28.516q-4.6875 3.5156-8.5938 8.3906-3.9062 4.8906-7.8125 12.703zm-18.359-39.062q3.125 1.1719 6.25 1.9531 1.5625-5.4688 3.3125-12.312 1.7656-6.8281 3.3281-12.297-3.5156-0.39062-6.6406-1.9531-1.1719 7.0312-2.5469 12.109-1.3594 5.0781-3.7031 12.5zm14.062 2.7344q3.5156 0.78125 6.6406 1.1719 0.78125-5.0781 1.5625-9.9688 0.78125-4.875 1.9531-12.688-3.125-0.78125-6.25-1.5625-1.1719 8.5938-1.9531 12.891t-1.9531 10.156zm19.922 1.1719q3.125-1.1719 8.5938-2.3438-1.9531-2.3438-3.125-6.25t-3.7188-12.5q-2.5312-8.5938-4.0938-13.672h5.4688q2.7344 0 8.2031 0.39062v-7.0312q-4.6875 0.39062-8.2031 0.39062h-29.688q-7.0312 0-10.156-0.39062v7.0312q4.6875-0.39062 10.547-0.39062h17.188q3.125 8.5938 5.0781 17.375 1.9531 8.7969 3.9062 17.391z"/>
      <path id="SimHei-35777" d="m30.859 64.453q-3.5156-2.7344-5.8594-5.4688-6.25 8.5938-10.938 13.281 3.125 2.3438 5.8594 5.0781 7.4219-8.5938 10.938-12.891zm-10.156-70.312q-2.7344 3.5156-6.25 5.8594 4.6875 4.6875 4.6875 9.375v32.812h-3.125q-5.0781 0-10.547-0.39062v7.0312q5.0781-0.39062 10.547-0.39062h10.938q-0.39062-7.0312-0.39062-14.844v-19.922q3.125 3.9062 5.8594 7.8125 1.9531-4.2969 4.6875-7.4219-4.2969-4.6875-7.8125-8.9844t-8.5938-10.938zm17.969 78.516q7.8125-0.39062 16.406-0.39062h23.828q7.4219 0 13.672 0.39062v-7.0312q-6.25 0.39062-13.672 0.39062h-9.375v-25.781h8.5938q6.25 0 12.109 0.39062v-7.0312q-5.4688 0.39062-12.109 0.39062h-8.5938v-30.078h10.156q6.6406 0 14.844 0.39062v-7.0312q-8.2031 0.39062-14.844 0.39062h-32.812q-8.9844 0-14.844-0.39062v7.0312q5.8594-0.39062 11.719-0.39062v28.516q0 7.4219-0.39062 12.5h8.2031q-0.39062-4.6875-0.39062-12.5v-28.516h10.938v62.109h-7.0312q-8.5938 0-16.406-0.39062z"/>
      <path id="SimHei-56" d="m44.922 20.703q0-9.7656-5.4688-14.844t-14.844-5.0781-14.844 5.0781-5.4688 14.844q0 5.0781 3.125 9.1719 3.125 4.1094 8.5938 6.0625-4.6875 1.9531-7.2344 5.4688-2.5312 3.5156-2.5312 8.9844 0 8.5938 5.4688 13.672t12.891 5.0781 12.891-5.0781 5.4688-13.672q0-5.4688-2.5469-8.9844-2.5312-3.5156-7.2188-5.4688 5.4688-1.9531 8.5938-6.0625 3.125-4.0938 3.125-9.1719zm-10.547 29.688q0 6.25-2.7344 8.9844t-7.0312 2.7344-7.0312-2.7344-2.7344-8.9844 2.9219-8.7969q2.9375-2.5312 6.8438-2.5312t6.8281 2.5312q2.9375 2.5469 2.9375 8.7969zm1.5625-29.688q0 5.4688-2.9375 8.5938-2.9219 3.125-8.3906 3.125t-8.4062-3.125q-2.9219-3.125-2.9219-8.5938 0-6.25 3.125-9.5781 3.125-3.3125 8.2031-3.3125t8.2031 3.3125q3.125 3.3281 3.125 9.5781z"/>
     </defs>
     <g transform="translate(249.97 208.76) scale(.13 -.13)">
      <use xlink:href="#SimHei-39564"/>
      <use x="100" xlink:href="#SimHei-35777"/>
      <use x="200" xlink:href="#SimHei-38598"/>
      <use x="300" xlink:href="#SimHei-20934"/>
      <use x="400" xlink:href="#SimHei-30830"/>
      <use x="500" xlink:href="#SimHei-29575"/>
      <use x="600" xlink:href="#SimHei-65306"/>
      <use x="700" xlink:href="#SimHei-56"/>
      <use x="750" xlink:href="#SimHei-48"/>
      <use x="800" xlink:href="#SimHei-46"/>
      <use x="850" xlink:href="#SimHei-48"/>
      <use x="900" xlink:href="#SimHei-48"/>
      <use x="950" xlink:href="#SimHei-37"/>
     </g>
    </g>
   </g>
   <g id="line2d_2">
    <path d="m246.69 217 110.68-218" clip-path="url(#paa5dc989cf)" fill="none" stroke="#000" stroke-linecap="square" stroke-width="1.5"/>
   </g>
   <g id="patch_8">
    <path d="m232.49 194.4v-194.18" fill="none" stroke="#000" stroke-linecap="square" stroke-width=".8"/>
   </g>
   <g id="patch_9">
    <path d="m397.44 194.4v-194.18" fill="none" stroke="#000" stroke-linecap="square" stroke-width=".8"/>
   </g>
   <g id="patch_10">
    <path d="m232.49 194.4h164.95" fill="none" stroke="#000" stroke-linecap="square" stroke-width=".8"/>
   </g>
   <g id="patch_11">
    <path d="m232.49 0.216h164.95" fill="none" stroke="#000" stroke-linecap="square" stroke-width=".8"/>
   </g>
  </g>
 </g>
 <defs>
  <clipPath id="p58280809b8">
   <rect x="34.56" y=".216" width="164.95" height="194.18"/>
  </clipPath>
  <clipPath id="paa5dc989cf">
   <rect x="232.49" y=".216" width="164.95" height="194.18"/>
  </clipPath>
 </defs>
</svg>
