<?xml version="1.0" encoding="UTF-8"?>
<!DOCTYPE svg  PUBLIC '-//W3C//DTD SVG 1.1//EN'  'http://www.w3.org/Graphics/SVG/1.1/DTD/svg11.dtd'>
<!-- Created with matplotlib (https://matplotlib.org/) -->
<svg width="216pt" height="216pt" version="1.1" viewBox="0 0 216 216" xmlns="http://www.w3.org/2000/svg" xmlns:xlink="http://www.w3.org/1999/xlink">
 <defs>
  <style type="text/css">*{stroke-linecap:butt;stroke-linejoin:round;}</style>
 </defs>
 <g id="figure_1">
  <g id="patch_1">
   <path d="m0 216h216v-216h-216z" fill="#fff"/>
  </g>
  <g id="axes_1">
   <g id="patch_2">
    <path d="m0.216 194.4h215.57v-172.8h-215.57z" fill="#fff"/>
   </g>
   <g id="PathCollection_1">
    <path d="m1.1573 194.4h0.94134 0.94134 0.94134 0.94134 0.94134 0.94134 0.94134 0.94134 0.94134 0.94134 0.94134 0.94134 0.94134 0.94134 0.94134 0.94134 0.94134 0.94134 0.94134 0.94134 0.94134 0.94134 0.94134 0.94134 0.94134 0.94134 0.94134 0.94134 0.94134 0.94134 0.94134 0.94134 0.94134 0.94134 0.94134 0.94134 0.94134 0.94134 0.94134 0.94134 0.94134 0.94134 0.94134 0.94134 0.94134 0.94134 0.94134 0.94134 0.94134 0.94134 0.94134 0.94134 0.94134 0.94134 0.94134 0.94134 0.94134 0.94134 0.94134 0.94134 0.94134 0.94134 0.94134 0.94134 0.94134 0.94134 0.94134 0.94134 0.94134 0.94134 0.94134 0.94134 0.94134 0.94134 0.94134 0.94134 0.94134 0.94134 0.94134 0.94134 0.94134 0.94134 0.94134 0.94134 0.94134 0.94134 0.94134 0.94134 0.94134 0.94134 0.94134 0.94134 0.94134 0.94134 0.94134 0.94134 0.94134 0.94134 0.94134 0.94134 0.94134 0.94134 0.94134 0.94134 0.94134 0.94134 0.94134 0.94134 0.94134 0.94134 0.94134 0.94134 0.94134 0.94134 0.94134 0.94134 0.94134 0.94134 0.94134 0.94134 0.94134 0.94134 0.94134 0.94134 0.94134 0.94134 0.94134 0.94134 0.94134 0.94134 0.94134 0.94134 0.94134 0.94134 0.94134 0.94134 0.94134 0.94134 0.94134 0.94134 0.94134 0.94134 0.94134 0.94134 0.94134 0.94134 0.94134 0.94134 0.94134 0.94134 0.94134 0.94134 0.94134 0.94134 0.94134 0.94134 0.94134 0.94134 0.94134 0.94134 0.94134 0.94134 0.94134 0.94134 0.94134 0.94134 0.94134 0.94134 0.94134 0.94134 0.94134 0.94134 0.94134 0.94134 0.94134 0.94134 0.94134 0.94134 0.94134 0.94134 0.94134 0.94134 0.94134 0.94134 0.94134 0.94134 0.94134 0.11767l-0.94134-1.0225v-1.0225l-1.8827-2.045v-1.0225l-2.824-3.0675v-1.0225l-1.8827-2.045v-1.0225l-2.824-3.0675v-1.0225l-1.8827-2.045v-1.0225l-1.8827-2.045v-1.0225l-2.824-3.0675v-1.0225l-1.8827-2.045v-1.0225l-2.824-3.0675v-1.0225l-0.11767-0.12781-1.765-1.9172v-1.0225l-0.11767-0.12781-2.7064-2.9396v-1.0225l-1.8827-2.045v-1.0225l-1.8827-2.045v-1.0225l-2.824-3.0675v-1.0225l-1.8827-2.045v-1.0225l-2.824-3.0675v-1.0225l-1.8827-2.045v-1.0225l-2.824-3.0675v-1.0225l-1.8827-2.045v-1.0225l-2.824-3.0675v-1.0225l-1.8827-2.045v-1.0225l-1.8827-2.045v-1.0225l-2.824-3.0675v-1.0225l-1.8827-2.045v-1.0225l-2.824-3.0675v-1.0225l-1.8827-2.045v-1.0225l-2.824-3.0675v-1.0225l-0.11767-0.12781-1.765-1.9172v-1.0225l-0.11767-0.12781-1.765-1.9172v-1.0225l-0.11767-0.12781-2.7064-2.9396v-1.0225l-1.8827-2.045v-1.0225l-2.824-3.0675v-1.0225l-1.8827-2.045v-1.0225l-2.824-3.0675v-1.0225l-1.8827-2.045v-1.0225l-2.824-3.0675v-1.0225l-1.8827-2.045v-1.0225l-1.8827-2.045v-1.0225l-2.824-3.0675v-1.0225l-1.8827-2.045v-1.0225l-2.824-3.0675v-1.0225l-1.8827-2.045v-1.0225l-2.824-3.0675v-1.0225l-1.8827-2.045v-1.0225l-1.8827-2.045v-1.0225l-2.824-3.0675v-1.0225l-1.8827-2.045v-1.0225l-0.11767-0.12781-2.7064-2.9396v-1.0225l-0.11767-0.12781-1.765-1.9172h-0.11767-0.94134-0.94134-0.94134-0.94134-0.94134-0.94134-0.94134-0.94134-0.94134-0.94134-0.94134-0.94134-0.94134-0.94134-0.94134-0.94134-0.94134-0.94134-0.94134-0.94134-0.94134-0.94134-0.94134-0.94134-0.94134-0.94134-0.94134-0.94134-0.94134-0.94134-0.94134-0.94134-0.94134-0.94134-0.94134-0.94134-0.94134-0.94134-0.94134-0.94134-0.94134-0.94134-0.94134-0.94134-0.94134-0.94134-0.94134-0.94134-0.94134-0.94134-0.94134-0.94134-0.94134-0.94134-0.94134-0.94134-0.94134-0.94134-0.94134-0.94134-0.94134-0.94134-0.94134-0.94134-0.94134-0.94134-0.94134-0.94134v1.0225 1.0225 1.0225 1.0225 1.0225 1.0225 1.0225 1.0225 1.0225 1.0225 1.0225 1.0225 1.0225 1.0225 1.0225 1.0225 1.0225 1.0225 1.0225 1.0225 1.0225 1.0225 1.0225 1.0225 1.0225 1.0225 1.0225 1.0225 1.0225 1.0225 1.0225 1.0225 1.0225 1.0225 1.0225 1.0225 1.0225 1.0225 1.0225 1.0225 1.0225 1.0225 1.0225 1.0225 1.0225 1.0225 1.0225 1.0225 1.0225 1.0225 1.0225 1.0225 1.0225 1.0225 1.0225 1.0225 1.0225 1.0225 1.0225 1.0225 1.0225 1.0225 1.0225 1.0225 1.0225 1.0225 1.0225 1.0225 1.0225 1.0225 1.0225 1.0225 1.0225 1.0225 1.0225 1.0225 1.0225 1.0225 1.0225 1.0225 1.0225 1.0225 1.0225 1.0225 1.0225 1.0225 1.0225 1.0225 1.0225 1.0225 1.0225 1.0225 1.0225 1.0225 1.0225 1.0225 1.0225 1.0225 1.0225 1.0225 1.0225 1.0225 1.0225 1.0225 1.0225 1.0225 1.0225 1.0225 1.0225 1.0225 1.0225 1.0225 1.0225 1.0225 1.0225 1.0225 1.0225 1.0225 1.0225 1.0225 1.0225 1.0225 1.0225 1.0225 1.0225 1.0225 1.0225 1.0225 1.0225 1.0225 1.0225 1.0225 1.0225 1.0225 1.0225 1.0225 1.0225 1.0225 1.0225 1.0225 1.0225 1.0225 1.0225 1.0225 1.0225 1.0225 1.0225 1.0225 1.0225 1.0225 1.0225 1.0225 1.0225 1.0225 1.0225 1.0225 1.0225 1.0225 1.0225 1.0225 1.0225 1.0225 1.0225 1.0225 1.0225 1.0225 1.0225 1.0225 1.0225z" clip-path="url(#p41ff5268cf)" fill="#228b22" fill-opacity=".4"/>
   </g>
   <g id="PathCollection_2">
    <path d="m177.19 194.27 0.11767 0.12781h0.11767l-0.94134-1.0225v-1.0225l-1.8827-2.045v-1.0225l-2.824-3.0675v-1.0225l-1.8827-2.045v-1.0225l-2.824-3.0675v-1.0225l-1.8827-2.045v-1.0225l-1.8827-2.045v-1.0225l-2.824-3.0675v-1.0225l-1.8827-2.045v-1.0225l-0.23534-0.25562-2.5887-2.8118v-1.0225l-0.23534-0.25562-1.6474-1.7893v-1.0225l-2.824-3.0675v-1.0225l-1.8827-2.045v-1.0225l-1.8827-2.045v-1.0225l-2.824-3.0675v-1.0225l-1.8827-2.045v-1.0225l-2.824-3.0675v-1.0225l-1.8827-2.045v-1.0225l-2.824-3.0675v-1.0225l-1.8827-2.045v-1.0225l-2.824-3.0675v-1.0225l-1.8827-2.045v-1.0225l-1.8827-2.045v-1.0225l-2.824-3.0675v-1.0225l-1.8827-2.045v-1.0225l-2.824-3.0675v-1.0225l-1.8827-2.045v-1.0225l-0.23534-0.25562-2.5887-2.8118v-1.0225l-0.23534-0.25562-1.6474-1.7893v-1.0225l-1.8827-2.045v-1.0225l-0.23534-0.25562-2.5887-2.8118v-1.0225l-1.8827-2.045v-1.0225l-2.824-3.0675v-1.0225l-1.8827-2.045v-1.0225l-2.824-3.0675v-1.0225l-1.8827-2.045v-1.0225l-2.824-3.0675v-1.0225l-1.8827-2.045v-1.0225l-1.8827-2.045v-1.0225l-2.824-3.0675v-1.0225l-1.8827-2.045v-1.0225l-2.824-3.0675v-1.0225l-1.8827-2.045v-1.0225l-2.824-3.0675v-1.0225l-1.8827-2.045v-1.0225l-1.8827-2.045v-1.0225l-2.824-3.0675v-1.0225l-0.23534-0.25562-1.6474-1.7894v-1.0225l-0.23534-0.25562-2.5887-2.8118v-1.0225l-0.23534-0.25562-1.6474-1.7893h-0.11767l1.8827 2.045v1.0225l2.824 3.0675v1.0225l1.8827 2.045v1.0225l2.824 3.0675v1.0225l1.8827 2.045v1.0225l1.8827 2.045v1.0225l2.824 3.0675v1.0225l1.8827 2.045v1.0225l2.824 3.0675v1.0225l1.8827 2.045v1.0225l2.824 3.0675v1.0225l1.8827 2.045v1.0225l1.8827 2.045v1.0225l2.824 3.0675v1.0225l1.8827 2.045v1.0225l2.824 3.0675v1.0225l1.8827 2.045v1.0225l2.824 3.0675v1.0225l1.8827 2.045v1.0225l2.824 3.0675v1.0225l1.8827 2.045v1.0225l1.8827 2.045v1.0225l2.824 3.0675v1.0225l1.8827 2.045v1.0225l2.824 3.0675v1.0225l1.8827 2.045v1.0225l2.824 3.0675v1.0225l1.8827 2.045v1.0225l1.8827 2.045v1.0225l2.824 3.0675v1.0225l1.8827 2.045v1.0225l2.824 3.0675v1.0225l1.8827 2.045v1.0225l2.824 3.0675v1.0225l1.8827 2.045v1.0225l2.824 3.0675v1.0225l1.8827 2.045v1.0225l1.8827 2.045v1.0225l2.824 3.0675v1.0225l1.8827 2.045v1.0225l2.824 3.0675v1.0225l1.8827 2.045v1.0225l2.824 3.0675v1.0225l1.8827 2.045v1.0225l1.8827 2.045v1.0225l2.824 3.0675v1.0225l1.8827 2.045v1.0225l2.824 3.0675v1.0225l1.8827 2.045v1.0225z" clip-path="url(#p41ff5268cf)" fill="#228b22" fill-opacity=".4"/>
   </g>
   <g id="PathCollection_3">
    <path d="m177.19 194.14 0.23534 0.25562h0.11767l-0.94134-1.0225v-1.0225l-1.8827-2.045v-1.0225l-2.824-3.0675v-1.0225l-1.8827-2.045v-1.0225l-2.824-3.0675v-1.0225l-1.8827-2.045v-1.0225l-1.8827-2.045v-1.0225l-2.824-3.0675v-1.0225l-1.8827-2.045v-1.0225l-2.824-3.0675v-1.0225l-1.8827-2.045v-1.0225l-2.824-3.0675v-1.0225l-1.8827-2.045v-1.0225l-1.8827-2.045v-1.0225l-2.824-3.0675v-1.0225l-1.8827-2.045v-1.0225l-2.824-3.0675v-1.0225l-1.8827-2.045v-1.0225l-2.824-3.0675v-1.0225l-1.8827-2.045v-1.0225l-2.824-3.0675v-1.0225l-1.8827-2.045v-1.0225l-1.8827-2.045v-1.0225l-2.824-3.0675v-1.0225l-1.8827-2.045v-1.0225l-2.824-3.0675v-1.0225l-1.8827-2.045v-1.0225l-2.824-3.0675v-1.0225l-1.8827-2.045v-1.0225l-1.8827-2.045v-1.0225l-2.824-3.0675v-1.0225l-1.8827-2.045v-1.0225l-2.824-3.0675v-1.0225l-1.8827-2.045v-1.0225l-2.824-3.0675v-1.0225l-1.8827-2.045v-1.0225l-2.824-3.0675v-1.0225l-1.8827-2.045v-1.0225l-1.8827-2.045v-1.0225l-2.824-3.0675v-1.0225l-1.8827-2.045v-1.0225l-2.824-3.0675v-1.0225l-1.8827-2.045v-1.0225l-2.824-3.0675v-1.0225l-1.8827-2.045v-1.0225l-1.8827-2.045v-1.0225l-2.824-3.0675v-1.0225l-1.8827-2.045v-1.0225l-2.824-3.0675v-1.0225l-1.8827-2.045h-0.11767l1.8827 2.045v1.0225l2.824 3.0675v1.0225l1.8827 2.045v1.0225l2.824 3.0675v1.0225l1.8827 2.045v1.0225l0.70601 0.76686 1.1767 1.2781v1.0225l2.824 3.0675v1.0225l1.8827 2.045v1.0225l0.70601 0.76686 2.118 2.3006v1.0225l1.8827 2.045v1.0225l2.824 3.0675v1.0225l1.8827 2.045v1.0225l1.8827 2.045v1.0225l2.824 3.0675v1.0225l1.8827 2.045v1.0225l0.70601 0.76686 2.118 2.3006v1.0225l1.8827 2.045v1.0225l2.824 3.0675v1.0225l1.8827 2.045v1.0225l2.824 3.0675v1.0225l1.8827 2.045v1.0225l1.8827 2.045v1.0225l2.824 3.0675v1.0225l1.8827 2.045v1.0225l2.824 3.0675v1.0225l1.8827 2.045v1.0225l2.824 3.0675v1.0225l1.8827 2.045v1.0225l1.8827 2.045v1.0225l0.70601 0.76686 2.118 2.3006v1.0225l1.8827 2.045v1.0225l2.824 3.0675v1.0225l1.8827 2.045v1.0225l2.824 3.0675v1.0225l1.8827 2.045v1.0225l2.824 3.0675v1.0225l1.8827 2.045v1.0225l1.8827 2.045v1.0225l2.824 3.0675v1.0225l1.8827 2.045v1.0225l2.824 3.0675v1.0225l1.8827 2.045v1.0225l2.824 3.0675v1.0225l1.8827 2.045v1.0225l1.8827 2.045v1.0225l2.824 3.0675v1.0225l1.8827 2.045v1.0225l2.824 3.0675v1.0225l1.8827 2.045v1.0225z" clip-path="url(#p41ff5268cf)" fill="#228b22" fill-opacity=".4"/>
   </g>
   <g id="PathCollection_4">
    <path d="m177.19 194.02 0.353 0.38343h0.11767l-0.94134-1.0225v-1.0225l-1.8827-2.045v-1.0225l-2.824-3.0675v-1.0225l-1.8827-2.045v-1.0225l-2.824-3.0675v-1.0225l-1.8827-2.045v-1.0225l-1.8827-2.045v-1.0225l-2.824-3.0675v-1.0225l-1.8827-2.045v-1.0225l-2.824-3.0675v-1.0225l-1.8827-2.045v-1.0225l-2.824-3.0675v-1.0225l-1.8827-2.045v-1.0225l-1.8827-2.045v-1.0225l-2.824-3.0675v-1.0225l-1.8827-2.045v-1.0225l-2.824-3.0675v-1.0225l-1.8827-2.045v-1.0225l-2.824-3.0675v-1.0225l-1.8827-2.045v-1.0225l-2.824-3.0675v-1.0225l-1.8827-2.045v-1.0225l-1.8827-2.045v-1.0225l-2.824-3.0675v-1.0225l-1.8827-2.045v-1.0225l-2.824-3.0675v-1.0225l-1.8827-2.045v-1.0225l-2.824-3.0675v-1.0225l-1.8827-2.045v-1.0225l-1.8827-2.045v-1.0225l-2.824-3.0675v-1.0225l-1.8827-2.045v-1.0225l-2.824-3.0675v-1.0225l-1.8827-2.045v-1.0225l-2.824-3.0675v-1.0225l-1.8827-2.045v-1.0225l-2.824-3.0675v-1.0225l-1.8827-2.045v-1.0225l-1.8827-2.045v-1.0225l-2.824-3.0675v-1.0225l-1.8827-2.045v-1.0225l-2.824-3.0675v-1.0225l-1.8827-2.045v-1.0225l-2.824-3.0675v-1.0225l-1.8827-2.045v-1.0225l-1.8827-2.045v-1.0225l-2.824-3.0675v-1.0225l-1.8827-2.045v-1.0225l-2.824-3.0675v-1.0225l-1.8827-2.045h-0.11767l1.8827 2.045v1.0225l2.824 3.0675v1.0225l1.8827 2.045v1.0225l2.824 3.0675v1.0225l1.8827 2.045v1.0225l1.8827 2.045v1.0225l2.824 3.0675v1.0225l1.8827 2.045v1.0225l2.824 3.0675v1.0225l1.8827 2.045v1.0225l2.824 3.0675v1.0225l1.8827 2.045v1.0225l1.8827 2.045v1.0225l2.824 3.0675v1.0225l1.8827 2.045v1.0225l2.824 3.0675v1.0225l1.8827 2.045v1.0225l2.824 3.0675v1.0225l1.8827 2.045v1.0225l2.824 3.0675v1.0225l1.8827 2.045v1.0225l1.8827 2.045v1.0225l2.824 3.0675v1.0225l1.8827 2.045v1.0225l2.824 3.0675v1.0225l1.8827 2.045v1.0225l2.824 3.0675v1.0225l1.8827 2.045v1.0225l1.8827 2.045v1.0225l2.824 3.0675v1.0225l1.8827 2.045v1.0225l2.824 3.0675v1.0225l1.8827 2.045v1.0225l2.824 3.0675v1.0225l1.8827 2.045v1.0225l2.824 3.0675v1.0225l1.8827 2.045v1.0225l1.8827 2.045v1.0225l2.824 3.0675v1.0225l1.8827 2.045v1.0225l2.824 3.0675v1.0225l1.8827 2.045v1.0225l2.824 3.0675v1.0225l1.8827 2.045v1.0225l1.8827 2.045v1.0225l2.824 3.0675v1.0225l1.8827 2.045v1.0225l2.824 3.0675v1.0225l1.8827 2.045v1.0225z" clip-path="url(#p41ff5268cf)" fill="#228b22" fill-opacity=".4"/>
   </g>
   <g id="PathCollection_5">
    <path d="m177.19 193.89 0.47067 0.51124h0.11767l-0.94134-1.0225v-1.0225l-1.8827-2.045v-1.0225l-2.824-3.0675v-1.0225l-1.8827-2.045v-1.0225l-2.824-3.0675v-1.0225l-1.8827-2.045v-1.0225l-1.8827-2.045v-1.0225l-2.824-3.0675v-1.0225l-1.8827-2.045v-1.0225l-2.824-3.0675v-1.0225l-1.8827-2.045v-1.0225l-2.824-3.0675v-1.0225l-1.8827-2.045v-1.0225l-1.8827-2.045v-1.0225l-2.824-3.0675v-1.0225l-1.8827-2.045v-1.0225l-2.824-3.0675v-1.0225l-1.8827-2.045v-1.0225l-2.824-3.0675v-1.0225l-1.8827-2.045v-1.0225l-2.824-3.0675v-1.0225l-1.8827-2.045v-1.0225l-1.8827-2.045v-1.0225l-2.824-3.0675v-1.0225l-1.8827-2.045v-1.0225l-2.824-3.0675v-1.0225l-1.8827-2.045v-1.0225l-2.824-3.0675v-1.0225l-1.8827-2.045v-1.0225l-1.8827-2.045v-1.0225l-2.824-3.0675v-1.0225l-1.8827-2.045v-1.0225l-2.824-3.0675v-1.0225l-1.8827-2.045v-1.0225l-2.824-3.0675v-1.0225l-1.8827-2.045v-1.0225l-2.824-3.0675v-1.0225l-1.8827-2.045v-1.0225l-1.8827-2.045v-1.0225l-2.824-3.0675v-1.0225l-1.8827-2.045v-1.0225l-2.824-3.0675v-1.0225l-1.8827-2.045v-1.0225l-2.824-3.0675v-1.0225l-1.8827-2.045v-1.0225l-1.8827-2.045v-1.0225l-2.824-3.0675v-1.0225l-1.8827-2.045v-1.0225l-2.824-3.0675v-1.0225l-1.8827-2.045h-0.11767l1.8827 2.045v1.0225l2.824 3.0675v1.0225l1.8827 2.045v1.0225l2.824 3.0675v1.0225l1.8827 2.045v1.0225l1.8827 2.045v1.0225l2.824 3.0675v1.0225l1.8827 2.045v1.0225l2.824 3.0675v1.0225l1.8827 2.045v1.0225l2.824 3.0675v1.0225l1.8827 2.045v1.0225l1.8827 2.045v1.0225l2.824 3.0675v1.0225l1.8827 2.045v1.0225l2.824 3.0675v1.0225l1.8827 2.045v1.0225l2.824 3.0675v1.0225l1.8827 2.045v1.0225l2.824 3.0675v1.0225l1.8827 2.045v1.0225l1.8827 2.045v1.0225l2.824 3.0675v1.0225l1.8827 2.045v1.0225l2.824 3.0675v1.0225l1.8827 2.045v1.0225l2.824 3.0675v1.0225l1.8827 2.045v1.0225l1.8827 2.045v1.0225l2.824 3.0675v1.0225l1.8827 2.045v1.0225l2.824 3.0675v1.0225l1.8827 2.045v1.0225l2.824 3.0675v1.0225l1.8827 2.045v1.0225l2.824 3.0675v1.0225l1.8827 2.045v1.0225l1.8827 2.045v1.0225l2.824 3.0675v1.0225l1.8827 2.045v1.0225l2.824 3.0675v1.0225l1.8827 2.045v1.0225l2.824 3.0675v1.0225l1.8827 2.045v1.0225l1.8827 2.045v1.0225l2.824 3.0675v1.0225l1.8827 2.045v1.0225l2.824 3.0675v1.0225l1.8827 2.045v1.0225z" clip-path="url(#p41ff5268cf)" fill="#cd853f" fill-opacity=".4"/>
   </g>
   <g id="PathCollection_6">
    <path d="m177.19 193.76 0.58834 0.63905h0.11767l-0.94134-1.0225v-1.0225l-1.8827-2.045v-1.0225l-2.824-3.0675v-1.0225l-1.8827-2.045v-1.0225l-2.824-3.0675v-1.0225l-1.8827-2.045v-1.0225l-1.8827-2.045v-1.0225l-0.70601-0.76686-2.118-2.3006v-1.0225l-1.8827-2.045v-1.0225l-2.824-3.0675v-1.0225l-1.8827-2.045v-1.0225l-2.824-3.0675v-1.0225l-1.8827-2.045v-1.0225l-1.8827-2.045v-1.0225l-2.824-3.0675v-1.0225l-1.8827-2.045v-1.0225l-2.824-3.0675v-1.0225l-1.8827-2.045v-1.0225l-2.824-3.0675v-1.0225l-1.8827-2.045v-1.0225l-2.824-3.0675v-1.0225l-1.8827-2.045v-1.0225l-1.8827-2.045v-1.0225l-2.824-3.0675v-1.0225l-1.8827-2.045v-1.0225l-2.824-3.0675v-1.0225l-1.8827-2.045v-1.0225l-2.824-3.0675v-1.0225l-1.8827-2.045v-1.0225l-1.8827-2.045v-1.0225l-2.824-3.0675v-1.0225l-1.8827-2.045v-1.0225l-2.824-3.0675v-1.0225l-1.8827-2.045v-1.0225l-2.824-3.0675v-1.0225l-1.8827-2.045v-1.0225l-2.824-3.0675v-1.0225l-1.8827-2.045v-1.0225l-1.8827-2.045v-1.0225l-2.824-3.0675v-1.0225l-1.8827-2.045v-1.0225l-2.824-3.0675v-1.0225l-1.8827-2.045v-1.0225l-2.824-3.0675v-1.0225l-1.8827-2.045v-1.0225l-1.8827-2.045v-1.0225l-2.824-3.0675v-1.0225l-1.8827-2.045v-1.0225l-2.824-3.0675v-1.0225l-0.70601-0.76686-1.1767-1.2781h-0.11767l1.8827 2.045v1.0225l2.824 3.0675v1.0225l1.8827 2.045v1.0225l2.824 3.0675v1.0225l1.8827 2.045v1.0225l1.8827 2.045v1.0225l2.824 3.0675v1.0225l1.8827 2.045v1.0225l2.824 3.0675v1.0225l1.8827 2.045v1.0225l2.824 3.0675v1.0225l1.8827 2.045v1.0225l1.8827 2.045v1.0225l2.824 3.0675v1.0225l1.8827 2.045v1.0225l2.824 3.0675v1.0225l1.8827 2.045v1.0225l2.824 3.0675v1.0225l1.8827 2.045v1.0225l2.824 3.0675v1.0225l1.8827 2.045v1.0225l1.8827 2.045v1.0225l2.824 3.0675v1.0225l1.8827 2.045v1.0225l2.824 3.0675v1.0225l1.8827 2.045v1.0225l2.824 3.0675v1.0225l1.8827 2.045v1.0225l1.8827 2.045v1.0225l2.824 3.0675v1.0225l1.8827 2.045v1.0225l2.824 3.0675v1.0225l1.8827 2.045v1.0225l2.824 3.0675v1.0225l1.8827 2.045v1.0225l2.824 3.0675v1.0225l1.8827 2.045v1.0225l1.8827 2.045v1.0225l2.824 3.0675v1.0225l1.8827 2.045v1.0225l2.824 3.0675v1.0225l1.8827 2.045v1.0225l2.824 3.0675v1.0225l1.8827 2.045v1.0225l1.8827 2.045v1.0225l2.824 3.0675v1.0225l1.8827 2.045v1.0225l2.824 3.0675v1.0225l1.8827 2.045v1.0225z" clip-path="url(#p41ff5268cf)" fill="#cd853f" fill-opacity=".4"/>
   </g>
   <g id="PathCollection_7">
    <path d="m177.19 193.63 0.70601 0.76686h0.11767l-0.94134-1.0225v-1.0225l-1.8827-2.045v-1.0225l-2.824-3.0675v-1.0225l-1.8827-2.045v-1.0225l-2.824-3.0675v-1.0225l-1.8827-2.045v-1.0225l-1.8827-2.045v-1.0225l-2.824-3.0675v-1.0225l-1.8827-2.045v-1.0225l-2.824-3.0675v-1.0225l-1.8827-2.045v-1.0225l-2.824-3.0675v-1.0225l-1.8827-2.045v-1.0225l-1.8827-2.045v-1.0225l-2.824-3.0675v-1.0225l-1.8827-2.045v-1.0225l-2.824-3.0675v-1.0225l-1.8827-2.045v-1.0225l-2.824-3.0675v-1.0225l-1.8827-2.045v-1.0225l-2.824-3.0675v-1.0225l-1.8827-2.045v-1.0225l-1.8827-2.045v-1.0225l-2.824-3.0675v-1.0225l-1.8827-2.045v-1.0225l-2.824-3.0675v-1.0225l-1.8827-2.045v-1.0225l-2.824-3.0675v-1.0225l-1.8827-2.045v-1.0225l-1.8827-2.045v-1.0225l-2.824-3.0675v-1.0225l-1.8827-2.045v-1.0225l-2.824-3.0675v-1.0225l-1.8827-2.045v-1.0225l-2.824-3.0675v-1.0225l-1.8827-2.045v-1.0225l-2.824-3.0675v-1.0225l-1.8827-2.045v-1.0225l-1.8827-2.045v-1.0225l-2.824-3.0675v-1.0225l-1.8827-2.045v-1.0225l-2.824-3.0675v-1.0225l-1.8827-2.045v-1.0225l-2.824-3.0675v-1.0225l-1.8827-2.045v-1.0225l-1.8827-2.045v-1.0225l-2.824-3.0675v-1.0225l-1.8827-2.045v-1.0225l-2.824-3.0675v-1.0225l-1.8827-2.045h-0.11767l1.8827 2.045v1.0225l2.824 3.0675v1.0225l1.8827 2.045v1.0225l2.824 3.0675v1.0225l1.8827 2.045v1.0225l1.8827 2.045v1.0225l2.824 3.0675v1.0225l1.8827 2.045v1.0225l2.824 3.0675v1.0225l1.8827 2.045v1.0225l2.824 3.0675v1.0225l1.8827 2.045v1.0225l1.8827 2.045v1.0225l2.824 3.0675v1.0225l1.8827 2.045v1.0225l0.23534 0.25562 2.5887 2.8118v1.0225l1.8827 2.045v1.0225l0.23534 0.25562 2.5887 2.8118v1.0225l0.23534 0.25562 1.6474 1.7893v1.0225l2.824 3.0675v1.0225l1.8827 2.045v1.0225l1.8827 2.045v1.0225l2.824 3.0675v1.0225l1.8827 2.045v1.0225l2.824 3.0675v1.0225l1.8827 2.045v1.0225l2.824 3.0675v1.0225l1.8827 2.045v1.0225l1.8827 2.045v1.0225l2.824 3.0675v1.0225l1.8827 2.045v1.0225l2.824 3.0675v1.0225l1.8827 2.045v1.0225l2.824 3.0675v1.0225l1.8827 2.045v1.0225l0.23534 0.25562 2.5887 2.8118v1.0225l0.23534 0.25562 1.6474 1.7893v1.0225l1.8827 2.045v1.0225l2.824 3.0675v1.0225l1.8827 2.045v1.0225l2.824 3.0675v1.0225l1.8827 2.045v1.0225l2.824 3.0675v1.0225l1.8827 2.045v1.0225l1.8827 2.045v1.0225l2.824 3.0675v1.0225l1.8827 2.045v1.0225l2.824 3.0675v1.0225l1.8827 2.045v1.0225z" clip-path="url(#p41ff5268cf)" fill="#cd853f" fill-opacity=".4"/>
   </g>
   <g id="PathCollection_8">
    <path d="m177.19 193.51 0.82368 0.89468h0.11767 0.94134 0.94134 0.94134 0.94134 0.94134 0.94134 0.94134 0.94134 0.94134 0.94134 0.94134 0.94134 0.94134 0.94134 0.94134 0.94134 0.94134 0.94134 0.94134 0.94134 0.94134 0.94134 0.94134 0.94134 0.94134 0.94134 0.94134 0.94134 0.94134 0.94134 0.94134 0.94134 0.94134 0.94134 0.94134 0.94134 0.94134 0.94134 0.94134 0.94134v-1.0225-1.0225-1.0225-1.0225-1.0225-1.0225-1.0225-1.0225-1.0225-1.0225-1.0225-1.0225-1.0225-1.0225-1.0225-1.0225-1.0225-1.0225-1.0225-1.0225-1.0225-1.0225-1.0225-1.0225-1.0225-1.0225-1.0225-1.0225-1.0225-1.0225-1.0225-1.0225-1.0225-1.0225-1.0225-1.0225-1.0225-1.0225-1.0225-1.0225-1.0225-1.0225-1.0225-1.0225-1.0225-1.0225-1.0225-1.0225-1.0225-1.0225-1.0225-1.0225-1.0225-1.0225-1.0225-1.0225-1.0225-1.0225-1.0225-1.0225-1.0225-1.0225-1.0225-1.0225-1.0225-1.0225-1.0225-1.0225-1.0225-1.0225-1.0225-1.0225-1.0225-1.0225-1.0225-1.0225-1.0225-1.0225-1.0225-1.0225-1.0225-1.0225-1.0225-1.0225-1.0225-1.0225-1.0225-1.0225-1.0225-1.0225-1.0225-1.0225-1.0225-1.0225-1.0225-1.0225-1.0225-1.0225-1.0225-1.0225-1.0225-1.0225-1.0225-1.0225-1.0225-1.0225-1.0225-1.0225-1.0225-1.0225-1.0225-1.0225-1.0225-1.0225-1.0225-1.0225-1.0225-1.0225-1.0225-1.0225-1.0225-1.0225-1.0225-1.0225-1.0225-1.0225-1.0225-1.0225-1.0225-1.0225-1.0225-1.0225-1.0225-1.0225-1.0225-1.0225-1.0225-1.0225-1.0225-1.0225-1.0225-1.0225-1.0225-1.0225-1.0225-1.0225-1.0225-1.0225-1.0225-1.0225-1.0225-1.0225-1.0225-1.0225-1.0225-1.0225-1.0225-1.0225-1.0225-1.0225-1.0225-1.0225-1.0225-1.0225-1.0225-1.0225-1.0225-1.0225-1.0225h-0.94134-0.94134-0.94134-0.94134-0.94134-0.94134-0.94134-0.94134-0.94134-0.94134-0.94134-0.94134-0.94134-0.94134-0.94134-0.94134-0.94134-0.94134-0.94134-0.94134-0.94134-0.94134-0.94134-0.94134-0.94134-0.94134-0.94134-0.94134-0.94134-0.94134-0.94134-0.94134-0.94134-0.94134-0.94134-0.94134-0.94134-0.94134-0.94134-0.94134-0.94134-0.94134-0.94134-0.94134-0.94134-0.94134-0.94134-0.94134-0.94134-0.94134-0.94134-0.94134-0.94134-0.94134-0.94134-0.94134-0.94134-0.94134-0.94134-0.94134-0.94134-0.94134-0.94134-0.94134-0.94134-0.94134-0.94134-0.94134-0.94134-0.94134-0.94134-0.94134-0.94134-0.94134-0.94134-0.94134-0.94134-0.94134-0.94134-0.94134-0.94134-0.94134-0.94134-0.94134-0.94134-0.94134-0.94134-0.94134-0.94134-0.94134-0.94134-0.94134-0.94134-0.94134-0.94134-0.94134-0.94134-0.94134-0.94134-0.94134-0.94134-0.94134-0.94134-0.94134-0.94134-0.94134-0.94134-0.94134-0.94134-0.94134-0.94134-0.94134-0.94134-0.94134-0.94134-0.94134-0.94134-0.94134-0.94134-0.94134-0.94134-0.94134-0.94134-0.94134-0.94134-0.94134-0.94134-0.94134-0.94134-0.94134-0.94134-0.94134-0.94134-0.94134-0.94134-0.94134-0.94134-0.94134-0.94134-0.94134-0.94134-0.94134-0.94134-0.94134-0.94134-0.94134-0.94134-0.94134-0.94134-0.94134-0.94134-0.94134-0.94134-0.94134-0.94134-0.94134-0.94134-0.94134-0.94134-0.94134-0.11767l1.8827 2.045v1.0225l2.824 3.0675v1.0225l1.8827 2.045v1.0225l2.824 3.0675v1.0225l1.8827 2.045v1.0225l1.8827 2.045v1.0225l2.824 3.0675v1.0225l1.8827 2.045v1.0225l2.824 3.0675v1.0225l1.8827 2.045v1.0225l2.824 3.0675v1.0225l1.8827 2.045v1.0225l1.8827 2.045v1.0225l2.824 3.0675v1.0225l1.8827 2.045v1.0225l2.824 3.0675v1.0225l1.8827 2.045v1.0225l0.11767 0.12781 2.7064 2.9396v1.0225l0.11767 0.12781 1.765 1.9172v1.0225l2.824 3.0675v1.0225l1.8827 2.045v1.0225l1.8827 2.045v1.0225l2.824 3.0675v1.0225l1.8827 2.045v1.0225l2.824 3.0675v1.0225l1.8827 2.045v1.0225l2.824 3.0675v1.0225l1.8827 2.045v1.0225l1.8827 2.045v1.0225l2.824 3.0675v1.0225l1.8827 2.045v1.0225l2.824 3.0675v1.0225l1.8827 2.045v1.0225l2.824 3.0675v1.0225l1.8827 2.045v1.0225l2.824 3.0675v1.0225l0.11767 0.12781 1.765 1.9172v1.0225l0.11767 0.12781 1.765 1.9172v1.0225l2.824 3.0675v1.0225l1.8827 2.045v1.0225l2.824 3.0675v1.0225l1.8827 2.045v1.0225l2.824 3.0675v1.0225l1.8827 2.045v1.0225l1.8827 2.045v1.0225l2.824 3.0675v1.0225l1.8827 2.045v1.0225l2.824 3.0675v1.0225l1.8827 2.045v1.0225z" clip-path="url(#p41ff5268cf)" fill="#cd853f" fill-opacity=".4"/>
   </g>
   <g id="PathCollection_9" fill="#228b22" stroke="#228b22" stroke-width="1.5">
    <path d="m77.23 136.05 6-6m-6 0 6 6" clip-path="url(#p41ff5268cf)"/>
    <path d="m77.23 130.94 6-6m-6 0 6 6" clip-path="url(#p41ff5268cf)"/>
    <path d="m67.817 130.94 6-6m-6 0 6 6" clip-path="url(#p41ff5268cf)"/>
    <path d="m110.18 120.71 6-6m-6 0 6 6" clip-path="url(#p41ff5268cf)"/>
    <path d="m44.283 146.28 6-6m-6 0 6 6" clip-path="url(#p41ff5268cf)"/>
    <path d="m100.76 125.83 6-6m-6 0 6 6" clip-path="url(#p41ff5268cf)"/>
    <path d="m91.35 120.71 6-6m-6 0 6 6" clip-path="url(#p41ff5268cf)"/>
    <path d="m58.403 141.16 6-6m-6 0 6 6" clip-path="url(#p41ff5268cf)"/>
    <path d="m119.59 115.6 6-6m-6 0 6 6" clip-path="url(#p41ff5268cf)"/>
    <path d="m96.057 120.71 6-6m-6 0 6 6" clip-path="url(#p41ff5268cf)"/>
    <path d="m67.817 146.28 6-6m-6 0 6 6" clip-path="url(#p41ff5268cf)"/>
    <path d="m53.697 146.28 6-6m-6 0 6 6" clip-path="url(#p41ff5268cf)"/>
   </g>
   <g id="PathCollection_10">
    <defs>
     <path id="C0_0_346d7700a5" d="m0 3c0.79561 0 1.5587-0.3161 2.1213-0.87868 0.56258-0.56258 0.87868-1.3257 0.87868-2.1213s-0.3161-1.5587-0.87868-2.1213c-0.56258-0.56258-1.3257-0.87868-2.1213-0.87868s-1.5587 0.3161-2.1213 0.87868c-0.56258 0.56258-0.87868 1.3257-0.87868 2.1213s0.3161 1.5587 0.87868 2.1213c0.56258 0.56258 1.3257 0.87868 2.1213 0.87868z"/>
    </defs>
    <g clip-path="url(#p41ff5268cf)">
     <use x="122.590847" y="117.713609" fill="#cd853f" stroke="#000000" xlink:href="#C0_0_346d7700a5"/>
    </g>
    <g clip-path="url(#p41ff5268cf)">
     <use x="146.124472" y="102.376331" fill="#cd853f" stroke="#000000" xlink:href="#C0_0_346d7700a5"/>
    </g>
    <g clip-path="url(#p41ff5268cf)">
     <use x="150.831197" y="76.814201" fill="#cd853f" stroke="#000000" xlink:href="#C0_0_346d7700a5"/>
    </g>
    <g clip-path="url(#p41ff5268cf)">
     <use x="169.658096" y="97.263905" fill="#cd853f" stroke="#000000" xlink:href="#C0_0_346d7700a5"/>
    </g>
    <g clip-path="url(#p41ff5268cf)">
     <use x="113.177397" y="102.376331" fill="#cd853f" stroke="#000000" xlink:href="#C0_0_346d7700a5"/>
    </g>
    <g clip-path="url(#p41ff5268cf)">
     <use x="146.124472" y="71.701775" fill="#cd853f" stroke="#000000" xlink:href="#C0_0_346d7700a5"/>
    </g>
    <g clip-path="url(#p41ff5268cf)">
     <use x="108.470672" y="102.376331" fill="#cd853f" stroke="#000000" xlink:href="#C0_0_346d7700a5"/>
    </g>
    <g clip-path="url(#p41ff5268cf)">
     <use x="113.177397" y="102.376331" fill="#cd853f" stroke="#000000" xlink:href="#C0_0_346d7700a5"/>
    </g>
   </g>
   <g id="matplotlib.axis_1">
    <g id="text_1">
     <!-- 测试集准确率：80.00% -->
     <defs>
      <path id="SimHei-27979" d="m25.391 67.969q-2.3438-1.9531-4.6875-5.4688-5.8594 5.4688-12.891 9.7656 2.3438 1.9531 4.6875 5.0781 7.4219-4.6875 12.891-9.375zm-20.703-22.656q1.9531 3.125 3.5156 6.25 8.2031-3.5156 15.234-7.4219-2.3438-3.5156-3.5156-6.6406-6.25 4.6875-15.234 7.8125zm13.281-17.969q3.125-2.7344 6.6406-4.6875-3.5156-8.9844-6.0625-17.781-2.5312-8.7812-3.7031-13.469-4.2969 3.125-8.9844 4.6875 3.5156 4.6875 7.0312 13.859 3.5156 9.1875 5.0781 17.391zm10.547 44.922h32.031q-0.39062-6.6406-0.39062-11.719v-27.734q0-7.0312 0.39062-13.672h-6.6406v46.875h-18.75v-47.266h-6.6406q0.39062 8.5938 0.39062 14.844v26.172q0 6.25-0.39062 12.5zm12.891-12.891q3.5156-0.78125 8.2031-1.1719-1.1719-3.9062-1.5625-18.359t-2.1562-21.688q-1.75-7.2188-5.8594-13.859-4.0938-6.6406-9.5625-12.5-2.7344 3.9062-7.0312 5.8594 7.8125 5.4688 11.719 11.906 3.9062 6.4531 5.2656 14.656 1.375 8.2031 1.375 17.578t-0.39062 17.578zm7.0312-48.828q2.7344 1.9531 5.4688 4.2969 8.2031-8.5938 11.719-13.672-3.125-1.9531-5.8594-4.2969-5.0781 7.4219-11.328 13.672zm19.922 56.641h7.0312q-0.39062-4.2969-0.39062-10.547v-29.297q0-5.4688 0.39062-12.891h-7.0312q0.39062 7.8125 0.39062 12.891v28.906q0 6.6406-0.39062 10.938zm14.844 10.156h7.0312q-0.39062-6.25-0.39062-10.547v-64.453q0-7.0312-2.5469-8.3906-2.5312-1.375-9.1719-2.9375-0.78125 4.2969-3.9062 8.2031 5.8594 0 7.6094 0.39062 1.7656 0.39062 1.7656 4.2969v62.891q0 4.2969-0.39062 10.547z"/>
      <path id="SimHei-35797" d="m10.547 70.703q3.125 1.9531 6.25 4.6875 5.0781-5.4688 10.156-14.062-3.5156-2.3438-7.0312-5.0781-1.5625 4.6875-9.375 14.453zm-5.4688-22.656q5.0781-0.39062 8.2031-0.39062h10.547q-0.39062-7.0312-0.39062-14.844v-22.266q4.2969 5.4688 7.4219 9.375 1.1719-4.2969 3.125-8.2031-4.6875-4.6875-8.2031-8.7969-3.5156-4.0938-5.4688-8-2.7344 3.9062-6.6406 5.8594 2.7344 2.7344 2.7344 7.8125v32.812q-6.25 0-11.328-0.39062zm25.781 10.156q6.25-0.39062 12.891-0.39062h18.359q-0.39062 7.0312-0.59375 11.125-0.1875 4.1094-0.96875 10.359 5.4688-1.1719 9.375-1.5625-0.39062-4.2969-0.39062-8.2031t0-11.719h11.328q5.4688 0 11.328 0.39062v-7.0312q-5.4688 0.39062-11.719 0.39062h-10.547q0.78125-9.7656 2.1406-17.781 1.375-8 3.9062-16.406 2.5469-8.3906 5.8594-13.281 3.3281-4.875 4.5-0.39062 1.1719 4.5 1.5625 9.1875 3.5156-3.9062 7.8125-5.4688-1.9531-10.938-5.4688-13.859-3.5156-2.9375-7.8125-0.78125-4.2969 2.1406-8.0156 8.7812-3.7031 6.6406-6.0469 15.031-2.3438 8.4062-3.7188 17.578-1.3594 9.1875-2.1406 17.391h-18.359q-6.6406 0-13.281-0.39062zm4.2969-17.969q5.8594-0.39062 12.297-0.39062 6.4531 0 11.922 0.39062v-7.4219q-4.2969 0.39062-8.2031 0.39062v-23.828q6.6406 1.5625 11.719 3.5156 0-3.9062 0.78125-7.0312-5.8594-1.1719-12.703-3.3281-6.8281-2.1406-13.859-4.875-1.1719 4.6875-3.9062 8.2031 5.0781 0.39062 10.938 1.9531v25.391q-4.2969 0-8.9844-0.39062zm40.625 32.422q2.7344 1.5625 6.25 3.5156 1.9531-2.7344 7.0312-10.156-3.9062-1.5625-6.25-3.5156-2.3438 4.6875-7.0312 10.156z"/>
      <path id="SimHei-38598" d="m26.562 50.391v-6.6406h21.875v6.6406zm0-12.109v-5.8594h21.875v5.8594zm0 23.828v-6.25h21.875v6.25zm22.266 15.234q2.3438 1.9531 6.25 4.2969 0.78125-1.1719 3.125-3.9062t4.2969-5.0781q-3.125-1.5625-6.6406-3.9062-2.3438 2.3438-3.7188 4.4844-1.3594 2.1562-3.3125 4.1094zm-21.094 4.2969q3.5156-1.9531 9.375-4.6875-2.3438-1.9531-3.9062-4.1094-1.5625-2.1406-3.5156-5.2656h46.875q5.4688 0 12.5 0.39062v-6.25q-7.4219 0.39062-12.5 0.39062h-20.703v-6.25h15.625q5.0781 0 10.938 0.39062v-6.25q-5.8594 0.39062-10.938 0.39062h-15.625v-6.6406h16.406q5.4688 0 11.719 0.39062v-6.25q-6.25 0.39062-11.719 0.39062h-16.406v-5.8594h19.922q5.8594 0 12.109 0.39062v-6.25q-5.8594 0.39062-11.719 0.39062h-49.609v-3.9062h-7.8125q0.39062 7.0312 0.39062 12.891v17.578q-1.9531-2.7344-3.7188-4.6875-1.75-1.9531-3.7031-4.2969-2.7344 2.3438-6.6406 4.6875 3.125 2.7344 6.25 6.25t6.0469 7.6094q2.9375 4.1094 5.4688 8.7969 2.5469 4.6875 4.8906 9.7656zm-19.141-65.234q4.6875-0.39062 13.672-0.39062h24.219q0 3.5156-0.39062 8.5938h8.2031q-0.39062-5.4688-0.39062-8.5938h24.609q6.6406 0 13.281 0.39062v-6.25q-6.6406 0.39062-13.281 0.39062h-14.062q4.6875-4.6875 11.516-7.2344 6.8438-2.5312 17.391-4.875-3.125-3.9062-4.6875-7.8125-7.0312 2.7344-12.109 4.8906-5.0781 2.1406-8.7969 4.4844-3.7031 2.3438-6.4375 4.875-2.7344 2.5469-5.4688 5.6719h-1.9531v-8.9844q0-5.8594 0.78125-11.719h-8.5938q0.39062 5.4688 0.39062 11.719v8.9844h-1.5625q-3.125-3.9062-6.4531-7.0312-3.3125-3.125-7.2188-5.4688t-8.5938-4.0938q-4.6875-1.7656-9.7656-4.1094-1.5625 3.5156-5.4688 7.4219 7.8125 1.1719 16.203 4.4844 8.4062 3.3281 12.703 8.7969h-14.062q-6.6406 0-13.672-0.39062z"/>
      <path id="SimHei-20934" d="m8.2031 70.703q3.5156 1.9531 7.4219 4.6875 1.9531-2.3438 6.0469-7.8125 4.1094-5.4688 7.625-10.547-4.6875-3.5156-7.4219-5.8594-3.125 6.6406-13.672 19.531zm14.062-32.031q3.125-3.5156 6.6406-6.6406-4.2969-7.8125-8.9844-17.781-4.6875-9.9531-7.4219-16.203-4.2969 4.6875-7.8125 7.8125 5.8594 7.0312 9.7656 14.453t7.8125 18.359zm12.109-1.5625q-3.5156 2.7344-7.8125 5.4688 4.6875 4.6875 10.344 16.203 5.6719 11.531 7.625 21.688 5.0781-1.9531 10.156-3.5156-2.3438-2.7344-6.25-13.281h27.734q8.5938 0 16.016 0.39062v-7.0312q-7.8125 0.39062-16.016 0.39062h-4.6875v-13.281q10.938 0 17.969 0.39062v-7.0312q-7.0312 0.39062-17.969 0.39062v-13.281q11.328 0 17.969 0.39062v-7.0312q-6.6406 0.39062-17.969 0.39062v-13.281q16.016 0 23.047 0.39062v-7.4219q-7.0312 0.39062-16.016 0.39062h-30.859v-8.2031h-7.8125q0.39062 7.0312 0.39062 19.922v37.109q-2.3438-4.6875-5.8594-10.156zm29.297 40.625q3.9062 1.1719 7.8125 3.125 2.7344-6.6406 4.2969-11.719-4.2969-1.1719-8.2031-3.125-1.1719 5.0781-3.9062 11.719zm-16.016-20.312v-13.281h16.406v13.281zm0-19.531v-13.281h16.406v13.281zm0-19.531v-13.281h16.406v13.281z"/>
      <path id="SimHei-30830" d="m21.484 39.844v-25h10.547v25zm-11.328-14.844q-2.3438 3.125-6.6406 5.4688 5.4688 5.0781 10.156 13.469 4.6875 8.4062 7.0312 21.297-7.4219 0-12.109-0.39062v6.25q5.4688-0.39062 10.547-0.39062h10.156q6.6406 0 11.328 0.39062v-6.25q-4.6875 0.39062-12.891 0.39062-2.3438-10.547-5.4688-19.922h16.406q-0.39062-6.6406-0.39062-12.5v-16.406q0-6.25 0.39062-14.453h-6.6406v7.4219h-10.547v-14.062h-6.6406q0.39062 8.2031 0.39062 14.062v23.828q-2.3438-3.9062-5.0781-8.2031zm60.156 5.8594v-10.547h12.891v10.547zm8.2031-41.406q-0.39062 3.9062-3.125 7.4219 4.6875 0 6.25 0.59375 1.5625 0.57812 1.5625 4.4844v12.891h-12.891v-21.094h-6.25v21.094h-10.547q-0.39062-5.0781-2.7344-11.141-2.3438-6.0469-8.2031-13.078-2.7344 3.9062-7.0312 4.6875 4.6875 4.2969 7.2188 9.1719 2.5469 4.8906 3.3281 11.141t0.96875 18.156q0.20312 11.922-0.1875 19.344h17.969q3.5156 6.25 5.8594 12.109h-15.234q-3.125-5.0781-10.547-14.844-3.125 2.7344-6.6406 3.9062 7.4219 7.4219 10.938 13.859 3.5156 6.4531 6.25 13.875 4.2969-1.9531 8.5938-3.125-1.9531-1.1719-5.4688-8.2031h22.656q-6.6406-12.109-8.5938-17.578h17.188q-0.39062-7.0312-0.39062-15.234v-38.672q0.39062-4.6875-1.9531-6.4375-2.3438-1.7656-8.9844-3.3281zm-25 58.203v-11.328h10.547v11.328zm0-16.797v-10.547h10.547v10.547zm16.797 16.797v-11.328h12.891v11.328z"/>
      <path id="SimHei-29575" d="m44.141 79.688q3.125 0.78125 7.4219 1.9531 1.1719-3.9062 2.7344-9.375h18.75q10.156 0 18.359 0.39062v-7.0312q-8.2031 0.78125-18.75 0.78125h-28.906q2.7344-1.9531 7.4219-4.2969-3.5156-2.7344-6.4531-6.0625-2.9219-3.3125-6.0469-6.8281h12.109q4.2969 5.0781 7.8125 10.547 3.125-2.7344 7.4219-5.4688-5.0781-2.7344-10.547-8.5938t-15.234-14.062l18.359 1.1719q-1.9531 2.7344-3.9062 5.4688 2.3438 1.1719 5.4688 3.125 3.125-4.2969 10.156-14.844-2.7344-1.1719-6.25-3.5156-1.1719 1.9531-2.7344 5.0781-4.2969-0.39062-8.5938-0.78125v-11.719h25.781q7.8125 0 14.062 0.39062v-6.6406q-5.8594 0.39062-14.453 0.39062h-25.391v-7.4219q0-7.0312 0.39062-12.5h-7.8125q0.39062 5.4688 0.39062 12.5v7.4219h-23.828q-7.4219 0-14.844-0.78125v7.0312q7.4219-0.39062 15.234-0.39062h23.438v10.938q-3.5156-0.39062-6.8438-0.98438-3.3125-0.57812-6.4375-1.75-1.1719 4.2969-2.7344 7.8125 3.125 0.39062 6.8281 3.125 3.7188 2.7344 9.9688 9.7656-10.156-1.1719-14.062-2.7344-0.78125 3.9062-2.7344 8.5938 3.125 0 6.8281 4.875 3.7188 4.8906 6.4531 11.141h-17.969q-8.5938 0-16.406-0.78125v7.0312q7.8125-0.39062 16.406-0.39062h21.484q-1.1719 4.2969-2.3438 7.4219zm-31.25-23.438q2.3438 2.3438 4.6875 5.0781 5.0781-4.2969 9.7656-8.9844-2.7344-3.125-5.0781-5.4688-4.2969 5.4688-9.375 9.375zm-3.125-26.562q4.2969 2.3438 8.5938 5.2656 4.2969 2.9375 7.8125 6.0625 1.5625-3.125 3.125-6.25-3.9062-2.3438-7.625-5.4688-3.7031-3.125-6.8281-6.6406-2.3438 3.5156-5.0781 7.0312zm71.094 32.812q3.125-3.9062 5.8594-6.6406-2.7344-0.78125-6.25-3.9062t-7.8125-6.6406q-1.9531 2.7344-4.2969 5.0781 3.5156 2.3438 6.25 4.875 2.7344 2.5469 6.25 7.2344zm-10.938-25.781q2.3438 2.7344 4.2969 5.4688 3.9062-2.7344 7.0312-5.0781t8.2031-6.25q-3.125-2.3438-5.8594-5.8594-2.7344 3.125-6.25 6.25t-7.4219 5.4688z"/>
      <path id="SimHei-65306" d="m19.531-2.7344q6.6406 3.9062 6.8281 7.6094 0.20312 3.7188-3.125 5.8594-3.3125 2.1562-7.0312 0.20312-3.7031-1.9531-3.5156-5.8594 0.20312-3.9062 3.5156-5.8594 3.3281-1.9531 9.9688 1.9531zm-0.78125 23.438q8.2031 3.5156 8.2031 7.6094 0 4.1094-3.5156 5.8594-3.5156 1.7656-7.0312 0-3.5156-1.75-3.7188-5.4688-0.1875-3.7031 2.9375-5.8594 3.125-2.1406 11.328 1.375z"/>
      <path id="SimHei-56" d="m44.922 20.703q0-9.7656-5.4688-14.844t-14.844-5.0781-14.844 5.0781-5.4688 14.844q0 5.0781 3.125 9.1719 3.125 4.1094 8.5938 6.0625-4.6875 1.9531-7.2344 5.4688-2.5312 3.5156-2.5312 8.9844 0 8.5938 5.4688 13.672t12.891 5.0781 12.891-5.0781 5.4688-13.672q0-5.4688-2.5469-8.9844-2.5312-3.5156-7.2188-5.4688 5.4688-1.9531 8.5938-6.0625 3.125-4.0938 3.125-9.1719zm-10.547 29.688q0 6.25-2.7344 8.9844t-7.0312 2.7344-7.0312-2.7344-2.7344-8.9844 2.9219-8.7969q2.9375-2.5312 6.8438-2.5312t6.8281 2.5312q2.9375 2.5469 2.9375 8.7969zm1.5625-29.688q0 5.4688-2.9375 8.5938-2.9219 3.125-8.3906 3.125t-8.4062-3.125q-2.9219-3.125-2.9219-8.5938 0-6.25 3.125-9.5781 3.125-3.3125 8.2031-3.3125t8.2031 3.3125q3.125 3.3281 3.125 9.5781z"/>
      <path id="SimHei-48" d="m46.484 35.156q0-14.062-5.0781-24.219t-16.406-10.156-16.609 10.156q-5.2656 10.156-5.2656 24.219t5.2656 24.016q5.2812 9.9688 16.609 9.9688t16.406-9.9688q5.0781-9.9531 5.0781-24.016zm-9.375 0q0 12.5-2.9375 19.531-2.9219 7.0312-9.1719 7.0312t-9.375-7.0312-3.125-19.531 3.125-19.734q3.125-7.2188 9.375-7.2188t9.1719 7.2188q2.9375 7.2344 2.9375 19.734z"/>
      <path id="SimHei-46" d="m17.188 1.5625h-8.9844v8.5938h8.9844z"/>
      <path id="SimHei-37" d="m22.266 51.562q0-11.328-3.3281-14.453-3.3125-3.125-6.4375-3.125t-6.4531 3.125q-3.3125 3.125-3.3125 14.453t3.3125 14.453q3.3281 3.125 6.4531 3.125t6.4375-3.125q3.3281-3.125 3.3281-14.453zm19.141 16.406-30.078-67.188-3.125 1.1719 30.078 67.188zm5.4688-49.609q0-11.328-3.3281-14.453-3.3125-3.125-6.4375-3.125t-6.4531 3.125q-3.3125 3.125-3.3125 14.453t3.3125 14.453q3.3281 3.125 6.4531 3.125t6.4375-3.125q3.3281-3.125 3.3281-14.453zm-30.859 33.203q0 7.0312-0.78125 9.375t-2.7344 2.3438-2.7344-2.3438-0.78125-9.375 0.78125-9.375 2.7344-2.3438 2.7344 2.3438 0.78125 9.375zm24.609-33.203q0 7.0312-0.78125 9.375t-2.7344 2.3438-2.7344-2.3438-0.78125-9.375 0.78125-9.375 2.7344-2.3438 2.7344 2.3438 0.78125 9.375z"/>
     </defs>
     <g transform="translate(48 207.96) scale(.12 -.12)">
      <use xlink:href="#SimHei-27979"/>
      <use x="100" xlink:href="#SimHei-35797"/>
      <use x="200" xlink:href="#SimHei-38598"/>
      <use x="300" xlink:href="#SimHei-20934"/>
      <use x="400" xlink:href="#SimHei-30830"/>
      <use x="500" xlink:href="#SimHei-29575"/>
      <use x="600" xlink:href="#SimHei-65306"/>
      <use x="700" xlink:href="#SimHei-56"/>
      <use x="750" xlink:href="#SimHei-48"/>
      <use x="800" xlink:href="#SimHei-46"/>
      <use x="850" xlink:href="#SimHei-48"/>
      <use x="900" xlink:href="#SimHei-48"/>
      <use x="950" xlink:href="#SimHei-37"/>
     </g>
    </g>
   </g>
   <g id="line2d_1">
    <path d="m50.227-1 142.31 218" clip-path="url(#p41ff5268cf)" fill="none" stroke="#000" stroke-linecap="square" stroke-width="1.5"/>
   </g>
   <g id="patch_3">
    <path d="m0.216 194.4v-172.8" fill="none" stroke="#000" stroke-linecap="square" stroke-width=".8"/>
   </g>
   <g id="patch_4">
    <path d="m215.78 194.4v-172.8" fill="none" stroke="#000" stroke-linecap="square" stroke-width=".8"/>
   </g>
   <g id="patch_5">
    <path d="m0.216 194.4h215.57" fill="none" stroke="#000" stroke-linecap="square" stroke-width=".8"/>
   </g>
   <g id="patch_6">
    <path d="m0.216 21.6h215.57" fill="none" stroke="#000" stroke-linecap="square" stroke-width=".8"/>
   </g>
   <g id="text_2">
    <!-- epochs = 500，训练集占比 60% -->
    <defs>
     <path id="SimHei-101" d="m44.922 16.406q-0.78125-7.0312-6.25-11.328t-12.891-4.2969q-9.375 0-15.438 6.0469-6.0469 6.0625-6.0469 16.609t6.0469 16.594q6.0625 6.0625 15.438 6.0625 8.2031 0 13.469-5.2812 5.2812-5.2656 5.2812-17.375h-31.641q0-8.5938 3.7031-12.109 3.7188-3.5156 9.1875-3.5156 4.2969 0 7.0312 2.1406 2.7344 2.1562 3.5156 6.4531zm-9.375 13.281q-0.78125 5.4688-3.5156 7.6094-2.7344 2.1562-7.0312 2.1562-3.9062 0-7.0312-2.1562-3.125-2.1406-4.6875-7.6094z"/>
     <path id="SimHei-112" d="m44.531 23.438q0-11.328-5.4688-17.188t-13.281-5.8594q-4.2969 0-7.4219 1.75-3.125 1.7656-5.4688 5.2812v-20.312h-7.8125v58.203h7.8125v-5.8594q2.3438 3.5156 5.4688 5.0781t7.4219 1.5625q7.8125 0 13.281-5.6719 5.4688-5.6562 5.4688-16.984zm-8.5938 0q0 7.4219-2.9375 11.516-2.9219 4.1094-8.7812 4.1094-4.6875 0-8.0156-4.1094-3.3125-4.0938-3.3125-11.516t3.3125-11.719q3.3281-4.2969 8.0156-4.2969 5.8594 0 8.7812 4.2969 2.9375 4.2969 2.9375 11.719z"/>
     <path id="SimHei-111" d="m46.094 23.438q0-10.156-6.25-16.406t-14.844-6.25-14.844 6.25-6.25 16.406 6.25 16.406 14.844 6.25 14.844-6.25 6.25-16.406zm-8.5938 0q0 7.8125-3.9062 11.719t-8.5938 3.9062-8.5938-3.9062-3.9062-11.719 3.9062-11.719 8.5938-3.9062 8.5938 3.9062 3.9062 11.719z"/>
     <path id="SimHei-99" d="m44.922 19.141q0-8.2031-5.6719-13.281-5.6562-5.0781-14.25-5.0781t-14.844 6.0469q-6.25 6.0625-6.25 16.609t6.25 16.594q6.25 6.0625 14.844 6.0625t13.672-4.5q5.0781-4.4844 5.0781-10.734h-8.5938q-0.39062 4.6875-3.3281 6.4375-2.9219 1.7656-6.8281 1.7656-4.6875 0-8.5938-3.7188-3.9062-3.7031-3.9062-11.906t3.9062-11.922q3.9062-3.7031 8.5938-3.7031 5.0781 0 8.2031 2.7344t3.125 8.5938z"/>
     <path id="SimHei-104" d="m44.141 1.5625h-7.8125v28.125q0 4.6875-2.3438 7.4219t-6.25 2.7344q-5.0781 0-9.5781-5.2812-4.4844-5.2656-4.4844-13.078v-19.922h-7.8125v66.797h7.8125v-31.25q3.125 4.2969 6.8281 6.6406 3.7188 2.3438 9.5781 2.3438 7.0312 0 10.547-3.9062t3.5156-9.7656z"/>
     <path id="SimHei-115" d="m43.359 13.672q0-6.25-4.8906-9.5781-4.875-3.3125-12.297-3.3125-9.375 0-14.453 3.7031-5.0781 3.7188-5.0781 10.75h7.8125q0-4.6875 3.3125-6.25 3.3281-1.5625 8.0156-1.5625t7.0312 1.75q2.3438 1.7656 2.3438 4.5 0 1.9531-1.9531 3.9062t-9.7656 3.125q-8.9844 1.1719-12.312 4.4844-3.3125 3.3281-3.3125 8.7969 0 4.6875 4.4844 8.3906 4.5 3.7188 13.094 3.7188 7.8125 0 12.297-3.5156 4.5-3.5156 4.5-9.375h-7.8125q0 3.5156-2.5469 4.875-2.5312 1.375-6.4375 1.375-5.0781 0-7.2344-1.7656-2.1406-1.75-2.1406-4.0938 0-2.7344 1.9531-4.2969t8.2031-2.3438q10.156-1.5625 13.672-4.8906 3.5156-3.3125 3.5156-8.3906z"/>
     <path id="SimHei-61" d="m46.875 44.922h-44.531v6.25h44.531zm0-23.828h-44.531v6.25h44.531z"/>
     <path id="SimHei-53" d="m44.141 25.781q0-11.719-5.6719-18.359-5.6562-6.6406-15.031-6.6406-8.2031 0-13.484 5.4688-5.2656 5.4688-5.6562 14.844h8.9844q0-5.8594 2.7344-9.375t7.8125-3.5156 8 4.2969q2.9375 4.2969 2.9375 13.281 0 7.8125-2.5469 11.516-2.5312 3.7188-6.8281 3.7188-3.5156 0-6.0625-1.5625-2.5312-1.5625-4.875-5.4688h-7.8125l2.3438 34.375h33.594v-7.4219h-26.172l-1.5625-17.969q2.3438 2.3438 5.0781 3.5156t7.4219 1.1719q7.4219 0 12.109-5.6719 4.6875-5.6562 4.6875-16.203z"/>
     <path id="SimHei-65292" d="m21.484 9.7656q-1.5625-5.0781-3.7188-7.8125-2.1406-2.7344-4.4844-4.4844-2.3438-1.7656 0.78125-1.375t7.2188 4.875q4.1094 4.5 5.6719 9.375 1.5625 4.8906 0.39062 8.0156t-4.6875 3.9062-5.8594-0.98438q-2.3438-1.75-2.7344-3.5156-0.39062-1.75 0.1875-3.7031 0.59375-1.9531 2.1562-3.125t5.0781-1.1719z"/>
     <path id="SimHei-35757" d="m42.188 77.344q5.0781-0.39062 9.375-0.78125-1.1719-4.6875-1.375-10.75-0.1875-6.0469-0.1875-18.547t-0.78125-20.703-2.1562-14.453q-1.3594-6.25-3.7031-11.141-2.3438-4.875-5.4688-9.5625-3.9062 2.3438-8.5938 4.2969 4.6875 4.2969 7.4219 9.7656t4.2969 13.672 1.75 19.719q0.20312 11.531 0 19.531-0.1875 8.0156-0.57812 18.953zm17.578-5.0781h7.8125q-0.39062-7.0312-0.39062-14.453v-39.453q0-10.938 0.39062-17.969h-7.8125q0.39062 7.0312 0.39062 17.969v39.453q0 8.9844-0.39062 14.453zm19.531 4.6875h7.8125q-0.39062-6.6406-0.39062-15.234v-46.875q0-10.938 0.39062-22.656h-7.8125q0.39062 11.719 0.39062 22.656v46.875q0 8.5938-0.39062 15.234zm-66.016-1.9531q2.7344 1.9531 6.6406 4.2969 6.6406-10.156 9.7656-15.234-3.9062-1.9531-6.6406-4.2969-5.8594 10.547-9.7656 15.234zm-7.8125-23.438q4.6875-0.39062 9.7656-0.39062h10.156q-0.39062-8.9844-0.39062-16.406v-23.047q5.0781 6.6406 6.6406 8.9844 1.9531-2.3438 4.6875-5.8594-5.0781-5.4688-8.5938-9.7656t-7.0312-9.375q-2.7344 3.125-5.8594 5.4688 3.125 3.9062 3.125 9.7656v33.203h-2.7344q-5.0781 0-9.7656-0.39062z"/>
     <path id="SimHei-32451" d="m14.062 49.609q7.8125 0.78125 11.328 0.78125 4.2969 6.6406 6.6406 12.891 3.125-2.7344 7.8125-5.4688-3.9062-3.5156-8.2031-10.547t-13.281-19.531q2.3438 0.39062 7.0312 1.1719t10.547 1.5625q-0.39062-3.9062-0.78125-7.0312-2.3438 0-9.9688-0.78125-7.6094-0.78125-13.469-2.7344-1.9531 3.9062-3.9062 7.8125 4.2969 2.7344 7.6094 6.8281 3.3281 4.1094 6.8438 10.359-2.3438 0-6.4531-0.78125-4.0938-0.78125-7.6094-1.9531-1.5625 3.9062-3.125 7.8125 3.9062 3.5156 7.8125 11.719t7.0312 17.578q3.9062-3.125 8.5938-5.4688-3.125-1.9531-5.8594-8.0156-2.7344-6.0469-8.5938-16.203zm-7.8125-41.406q10.156 1.5625 13.859 2.3438 3.7188 0.78125 18.562 3.9062-0.78125-3.9062-0.78125-7.0312-6.25-1.1719-14.453-3.125t-14.453-4.6875q-1.1719 4.6875-2.7344 8.5938zm48.828 35.547q-4.6875-8.2031-5.8594-10.938h15.625v10.938zm-3.9062-23.047q3.125-2.3438 8.2031-4.6875-3.5156-2.7344-8.5938-9.7656t-9.7656-12.891q-3.9062 2.3438-7.8125 4.2969 3.9062 3.125 9.1719 9.5625 5.2812 6.4531 8.7969 13.484zm25.391-4.6875q3.125 2.3438 6.6406 3.9062 2.3438-4.2969 6.0469-9.5781 3.7188-5.2656 6.4531-9.9531-3.9062-1.5625-7.4219-3.9062-3.125 5.8594-5.6719 10.156-2.5312 4.2969-6.0469 9.375zm-26.953 33.594q2.7344 5.4688 4.6875 10.547h-1.9531q-5.8594 0-12.891-0.39062v6.6406q7.0312-0.39062 13.281-0.39062h3.125q1.1719 2.7344 2.3438 6.4375 1.1719 3.7188 1.5625 8.4062 5.8594-3.125 9.375-4.2969-1.9531-2.3438-3.3281-5.0781-1.3594-2.7344-2.5312-5.4688h14.844q6.6406 0 12.5 0.39062v-6.6406q-5.8594 0.39062-12.5 0.39062h-16.406q-2.3438-5.4688-4.6875-10.547h15.625q-0.39062-4.6875-0.39062-10.547v-6.25h5.0781q6.25 0 12.109 0.39062v-6.6406q-5.8594 0.39062-12.109 0.39062h-5.0781v-24.219q0-8.2031-3.7188-10.344-3.7031-2.1562-9.9531-2.5469-1.1719 5.0781-3.9062 9.7656 8.2031-0.78125 9.1719 0.78125 0.98438 1.5625 0.98438 5.4688v21.094h-12.109q-3.125 0-5.6719-0.59375-2.5312-0.57812-4.875-1.75-1.5625 3.9062-3.9062 7.0312 3.9062 1.5625 9.375 12.109-3.125 0-7.0312-0.39062v6.6406q5.4688-0.39062 8.9844-0.39062z"/>
     <path id="SimHei-21344" d="m17.188 35.547h25.391v32.812q0 7.0312-0.39062 11.328h8.5938q-0.39062-4.6875-0.39062-11.328v-5.4688h26.562q8.5938 0 12.109 0.39062v-7.4219q-3.5156 0.39062-11.328 0.39062h-27.344v-20.703h29.688q-0.39062-4.6875-0.39062-12.109v-18.75q0-8.9844 0.39062-13.672h-8.2031v8.5938h-46.484v-8.5938h-8.2031q0.39062 6.25 0.39062 11.328v21.484q0 7.0312-0.39062 11.719zm8.2031-6.6406v-22.656h46.484v22.656z"/>
     <path id="SimHei-27604" d="m19.141 75.781h8.5938q-0.78125-4.2969-0.78125-10.156v-16.797h8.9844q7.0312 0 12.109 0.39062v-7.8125q-5.0781 0.39062-12.109 0.39062h-8.9844v-36.719q6.6406 3.9062 10.734 6.4375 4.1094 2.5469 9.5781 6.0625 0.39062-5.0781 1.5625-8.5938-5.8594-2.3438-14.453-8.0156-8.5938-5.6562-12.109-9.1719-2.7344 3.9062-5.4688 6.6406 1.9531 2.7344 2.7344 6.6406v60.156q0 6.6406-0.39062 10.547zm37.109 1.5625h8.2031q-0.39062-4.2969-0.39062-10.547v-25.391q11.328 5.4688 21.094 15.234 3.125-4.2969 7.8125-8.2031-5.4688-1.1719-11.719-5.2812-6.25-4.0938-17.188-9.1719v-27.734q0-5.4688 6.6406-5.4688h8.2031q3.9062 0 5.2656 2.7344 1.375 2.7344 2.5469 9.7656 3.5156-3.5156 8.9844-4.6875-3.125-8.5938-5.0781-11.516-1.9531-2.9375-8.2031-2.9375h-15.234q-10.547 0-10.547 9.7656v62.891q0 5.8594-0.39062 10.547z"/>
     <path id="SimHei-54" d="m44.531 24.219q0-10.938-4.6875-17.188t-14.062-6.25-14.844 7.8125-5.4688 25.391q0 16.016 5.6562 25.578 5.6719 9.5781 16.219 9.5781 7.4219 0 11.906-5.4688 4.5-5.4688 4.5-12.109h-8.9844q0 3.9062-2.1562 7.0312-2.1406 3.125-5.6562 3.125-5.8594 0-8.9844-6.0625-3.125-6.0469-3.5156-18.547 2.7344 5.0781 5.8594 7.0312t7.4219 1.9531q7.4219 0 12.109-5.8594t4.6875-16.016zm-9.375 0q0 7.0312-2.3438 10.938t-6.6406 3.9062q-5.0781 0-8.0156-3.9062-2.9219-3.9062-2.9219-9.375 0-8.5938 2.9219-13.281 2.9375-4.6875 8.0156-4.6875 3.5156 0 6.25 3.5156t2.7344 12.891z"/>
    </defs>
    <g transform="translate(7.2 15.6) scale(.144 -.144)">
     <use xlink:href="#SimHei-101"/>
     <use x="50" xlink:href="#SimHei-112"/>
     <use x="100" xlink:href="#SimHei-111"/>
     <use x="150" xlink:href="#SimHei-99"/>
     <use x="200" xlink:href="#SimHei-104"/>
     <use x="250" xlink:href="#SimHei-115"/>
     <use x="300" xlink:href="#SimHei-32"/>
     <use x="350" xlink:href="#SimHei-61"/>
     <use x="400" xlink:href="#SimHei-32"/>
     <use x="450" xlink:href="#SimHei-53"/>
     <use x="500" xlink:href="#SimHei-48"/>
     <use x="550" xlink:href="#SimHei-48"/>
     <use x="600" xlink:href="#SimHei-65292"/>
     <use x="700" xlink:href="#SimHei-35757"/>
     <use x="800" xlink:href="#SimHei-32451"/>
     <use x="900" xlink:href="#SimHei-38598"/>
     <use x="1000" xlink:href="#SimHei-21344"/>
     <use x="1100" xlink:href="#SimHei-27604"/>
     <use x="1200" xlink:href="#SimHei-32"/>
     <use x="1250" xlink:href="#SimHei-54"/>
     <use x="1300" xlink:href="#SimHei-48"/>
     <use x="1350" xlink:href="#SimHei-37"/>
    </g>
   </g>
  </g>
 </g>
 <defs>
  <clipPath id="p41ff5268cf">
   <rect x=".216" y="21.6" width="215.57" height="172.8"/>
  </clipPath>
 </defs>
</svg>
