<svg version="1.1" xmlns="http://www.w3.org/2000/svg" xmlns:xlink="http://www.w3.org/1999/xlink" width="863" height="136"><defs><clipPath id="cvzJvNRmNPkV"><path fill="none" stroke="none" d=" M 0 0 L 863 0 L 863 136 L 0 136 L 0 0 Z"/></clipPath></defs><g transform="scale(1,1)" clip-path="url(#cvzJvNRmNPkV)"><g><path fill="rgb(102,102,102)" stroke="none" paint-order="stroke fill markers" fill-rule="evenodd" d=" M 72.00000000000688 125.5 L 436.00000000001484 125.5 L 436.00000000001484 75.50000000000003 L 72.00000000000688 75.50000000000003 Z" fill-opacity="0.09803921568627451"/><path fill="rgb(0,100,0)" stroke="none" paint-order="stroke fill markers" fill-rule="evenodd" d=" M 436.00000000001484 125.5 L 572.0000000000177 125.5 L 572.0000000000177 75.50000000000003 L 436.00000000001484 75.50000000000003 Z" fill-opacity="0.09803921568627451"/><path fill="rgb(0,153,255)" stroke="none" paint-order="stroke fill markers" fill-rule="evenodd" d=" M 652.0000000000196 125.5 L 787.0000000000225 125.5 L 787.0000000000225 75.50000000000003 L 652.0000000000196 75.50000000000003 Z" fill-opacity="0.09803921568627451"/><path fill="none" stroke="rgb(102,102,102)" paint-order="fill stroke markers" d=" M 72.00000000000688 125.5 L 436.00000000001484 125.5" stroke-opacity="0.6980392156862745" stroke-linecap="round" stroke-linejoin="round" stroke-miterlimit="10" stroke-width="1.5"/><path fill="none" stroke="rgb(102,102,102)" paint-order="fill stroke markers" d=" M 436.00000000001484 125.5 L 436.00000000001484 75.50000000000003" stroke-opacity="0.6980392156862745" stroke-linecap="round" stroke-linejoin="round" stroke-miterlimit="10" stroke-width="1.5"/><path fill="none" stroke="rgb(102,102,102)" paint-order="fill stroke markers" d=" M 436.00000000001484 75.50000000000003 L 72.00000000000688 75.50000000000003" stroke-opacity="0.6980392156862745" stroke-linecap="round" stroke-linejoin="round" stroke-miterlimit="10" stroke-width="1.5"/><path fill="none" stroke="rgb(102,102,102)" paint-order="fill stroke markers" d=" M 72.00000000000688 75.50000000000003 L 72.00000000000688 125.5" stroke-opacity="0.6980392156862745" stroke-linecap="round" stroke-linejoin="round" stroke-miterlimit="10" stroke-width="1.5"/><path fill="none" stroke="rgb(0,100,0)" paint-order="fill stroke markers" d=" M 436.00000000001484 125.5 L 572.0000000000177 125.5" stroke-opacity="0.6980392156862745" stroke-linecap="round" stroke-linejoin="round" stroke-miterlimit="10" stroke-width="1.5"/><path fill="none" stroke="rgb(0,100,0)" paint-order="fill stroke markers" d=" M 572.0000000000177 125.5 L 572.0000000000177 75.50000000000003" stroke-opacity="0.6980392156862745" stroke-linecap="round" stroke-linejoin="round" stroke-miterlimit="10" stroke-width="1.5"/><path fill="none" stroke="rgb(0,100,0)" paint-order="fill stroke markers" d=" M 572.0000000000177 75.50000000000003 L 436.00000000001484 75.50000000000003" stroke-opacity="0.6980392156862745" stroke-linecap="round" stroke-linejoin="round" stroke-miterlimit="10" stroke-width="1.5"/><path fill="none" stroke="rgb(0,100,0)" paint-order="fill stroke markers" d=" M 436.00000000001484 75.50000000000003 L 436.00000000001484 125.5" stroke-opacity="0.6980392156862745" stroke-linecap="round" stroke-linejoin="round" stroke-miterlimit="10" stroke-width="1.5"/><path fill="none" stroke="rgb(0,153,255)" paint-order="fill stroke markers" d=" M 652.0000000000196 125.5 L 787.0000000000225 125.5" stroke-opacity="0.6980392156862745" stroke-linecap="round" stroke-linejoin="round" stroke-miterlimit="10" stroke-width="1.5"/><path fill="none" stroke="rgb(0,153,255)" paint-order="fill stroke markers" d=" M 787.0000000000225 125.5 L 787.0000000000225 75.50000000000003" stroke-opacity="0.6980392156862745" stroke-linecap="round" stroke-linejoin="round" stroke-miterlimit="10" stroke-width="1.5"/><path fill="none" stroke="rgb(0,153,255)" paint-order="fill stroke markers" d=" M 787.0000000000225 75.50000000000003 L 652.0000000000196 75.50000000000003" stroke-opacity="0.6980392156862745" stroke-linecap="round" stroke-linejoin="round" stroke-miterlimit="10" stroke-width="1.5"/><path fill="none" stroke="rgb(0,153,255)" paint-order="fill stroke markers" d=" M 652.0000000000196 75.50000000000003 L 652.0000000000196 125.5" stroke-opacity="0.6980392156862745" stroke-linecap="round" stroke-linejoin="round" stroke-miterlimit="10" stroke-width="1.5"/><g transform="scale(39,39)"><g transform="translate(28.459235358974375,0.8025641025641025) rotate(90,0,0)"><g transform="translate(0,8.700087000000005)"><path fill="rgb(0,0,0)" stroke="none" paint-order="stroke fill markers" d=" M 0.3837890625 0.90087890625 L 0.3837890625 0.4541015625 Q 0.3837890625 0.36083984375 0.420654296875 0.273681640625 Q 0.45751953125 0.1865234375 0.5234375 0.11669921875 Q 0.58935546875 0.046875 0.673828125 0.0029296875 Q 0.67578125 0.0009765625 0.67919921875 0.0009765625 L 0.7099609375 0.0009765625 Q 0.712890625 0.0009765625 0.71533203125 0.00341796875 Q 0.7177734375 0.005859375 0.7177734375 0.009765625 L 0.7177734375 0.041015625 Q 0.7177734375 0.0439453125 0.71484375 0.046875 Q 0.66455078125 0.0791015625 0.624755859375 0.124755859375 Q 0.5849609375 0.17041015625 0.55859375 0.222900390625 Q 0.5322265625 0.275390625 0.51806640625 0.336181640625 Q 0.50390625 0.39697265625 0.50390625 0.4560546875 L 0.50390625 0.90087890625 Q 0.50390625 0.90380859375 0.501220703125 0.906982421875 Q 0.49853515625 0.91015625 0.49609375 0.91015625 L 0.39306640625 0.91015625 Q 0.3896484375 0.91015625 0.38671875 0.9072265625 Q 0.3837890625 0.904296875 0.3837890625 0.90087890625 Z"/></g><g transform="translate(0,9.600096000000006)"><path fill="rgb(0,0,0)" stroke="none" paint-order="stroke fill markers" d=" M 0.3837890625 0.30078125 L 0.3837890625 -0.0009765625 Q 0.3837890625 -0.00439453125 0.38623046875 -0.007080078125 Q 0.388671875 -0.009765625 0.39306640625 -0.009765625 L 0.49609375 -0.009765625 Q 0.4990234375 -0.009765625 0.50146484375 -0.007080078125 Q 0.50390625 -0.00439453125 0.50390625 -0.0009765625 L 0.50390625 0.30078125 Q 0.50390625 0.3037109375 0.501220703125 0.306884765625 Q 0.49853515625 0.31005859375 0.49609375 0.31005859375 L 0.39306640625 0.31005859375 Q 0.3837890625 0.31005859375 0.3837890625 0.30078125 Z"/></g><g transform="translate(0,9.900099000000006)"><path fill="rgb(0,0,0)" stroke="none" paint-order="stroke fill markers" d=" M 0.3837890625 0.30078125 L 0.3837890625 -0.0009765625 Q 0.3837890625 -0.00439453125 0.38623046875 -0.007080078125 Q 0.388671875 -0.009765625 0.39306640625 -0.009765625 L 0.49609375 -0.009765625 Q 0.4990234375 -0.009765625 0.50146484375 -0.007080078125 Q 0.50390625 -0.00439453125 0.50390625 -0.0009765625 L 0.50390625 0.30078125 Q 0.50390625 0.3037109375 0.501220703125 0.306884765625 Q 0.49853515625 0.31005859375 0.49609375 0.31005859375 L 0.39306640625 0.31005859375 Q 0.3837890625 0.31005859375 0.3837890625 0.30078125 Z"/></g><g transform="translate(0,10.200102000000006)"><path fill="rgb(0,0,0)" stroke="none" paint-order="stroke fill markers" d=" M 0.3837890625 0.30078125 L 0.3837890625 -0.0009765625 Q 0.3837890625 -0.00439453125 0.38623046875 -0.007080078125 Q 0.388671875 -0.009765625 0.39306640625 -0.009765625 L 0.49609375 -0.009765625 Q 0.4990234375 -0.009765625 0.50146484375 -0.007080078125 Q 0.50390625 -0.00439453125 0.50390625 -0.0009765625 L 0.50390625 0.30078125 Q 0.50390625 0.3037109375 0.501220703125 0.306884765625 Q 0.49853515625 0.31005859375 0.49609375 0.31005859375 L 0.39306640625 0.31005859375 Q 0.3837890625 0.31005859375 0.3837890625 0.30078125 Z"/></g><g transform="translate(0,10.500105000000007)"><path fill="rgb(0,0,0)" stroke="none" paint-order="stroke fill markers" d=" M 0.3837890625 0.30078125 L 0.3837890625 -0.0009765625 Q 0.3837890625 -0.00439453125 0.38623046875 -0.007080078125 Q 0.388671875 -0.009765625 0.39306640625 -0.009765625 L 0.49609375 -0.009765625 Q 0.4990234375 -0.009765625 0.50146484375 -0.007080078125 Q 0.50390625 -0.00439453125 0.50390625 -0.0009765625 L 0.50390625 0.30078125 Q 0.50390625 0.3037109375 0.501220703125 0.306884765625 Q 0.49853515625 0.31005859375 0.49609375 0.31005859375 L 0.39306640625 0.31005859375 Q 0.3837890625 0.31005859375 0.3837890625 0.30078125 Z"/></g><g transform="translate(0,10.800108000000007)"><path fill="rgb(0,0,0)" stroke="none" paint-order="stroke fill markers" d=" M 0.3837890625 0.30078125 L 0.3837890625 -0.0009765625 Q 0.3837890625 -0.00439453125 0.38623046875 -0.007080078125 Q 0.388671875 -0.009765625 0.39306640625 -0.009765625 L 0.49609375 -0.009765625 Q 0.4990234375 -0.009765625 0.50146484375 -0.007080078125 Q 0.50390625 -0.00439453125 0.50390625 -0.0009765625 L 0.50390625 0.30078125 Q 0.50390625 0.3037109375 0.501220703125 0.306884765625 Q 0.49853515625 0.31005859375 0.49609375 0.31005859375 L 0.39306640625 0.31005859375 Q 0.3837890625 0.31005859375 0.3837890625 0.30078125 Z"/></g><g transform="translate(0,11.100111000000007)"><path fill="rgb(0,0,0)" stroke="none" paint-order="stroke fill markers" d=" M 0.3837890625 0.30078125 L 0.3837890625 -0.0009765625 Q 0.3837890625 -0.00439453125 0.38623046875 -0.007080078125 Q 0.388671875 -0.009765625 0.39306640625 -0.009765625 L 0.49609375 -0.009765625 Q 0.4990234375 -0.009765625 0.50146484375 -0.007080078125 Q 0.50390625 -0.00439453125 0.50390625 -0.0009765625 L 0.50390625 0.30078125 Q 0.50390625 0.3037109375 0.501220703125 0.306884765625 Q 0.49853515625 0.31005859375 0.49609375 0.31005859375 L 0.39306640625 0.31005859375 Q 0.3837890625 0.31005859375 0.3837890625 0.30078125 Z"/></g><g transform="translate(0,11.400114000000007)"><path fill="rgb(0,0,0)" stroke="none" paint-order="stroke fill markers" d=" M 0.3837890625 0.30078125 L 0.3837890625 -0.0009765625 Q 0.3837890625 -0.00439453125 0.38623046875 -0.007080078125 Q 0.388671875 -0.009765625 0.39306640625 -0.009765625 L 0.49609375 -0.009765625 Q 0.4990234375 -0.009765625 0.50146484375 -0.007080078125 Q 0.50390625 -0.00439453125 0.50390625 -0.0009765625 L 0.50390625 0.30078125 Q 0.50390625 0.3037109375 0.501220703125 0.306884765625 Q 0.49853515625 0.31005859375 0.49609375 0.31005859375 L 0.39306640625 0.31005859375 Q 0.3837890625 0.31005859375 0.3837890625 0.30078125 Z"/></g><g transform="translate(0,11.700117000000008)"><path fill="rgb(0,0,0)" stroke="none" paint-order="stroke fill markers" d=" M 0.3837890625 0.30078125 L 0.3837890625 -0.0009765625 Q 0.3837890625 -0.00439453125 0.38623046875 -0.007080078125 Q 0.388671875 -0.009765625 0.39306640625 -0.009765625 L 0.49609375 -0.009765625 Q 0.4990234375 -0.009765625 0.50146484375 -0.007080078125 Q 0.50390625 -0.00439453125 0.50390625 -0.0009765625 L 0.50390625 0.30078125 Q 0.50390625 0.3037109375 0.501220703125 0.306884765625 Q 0.49853515625 0.31005859375 0.49609375 0.31005859375 L 0.39306640625 0.31005859375 Q 0.3837890625 0.31005859375 0.3837890625 0.30078125 Z"/></g><g transform="translate(0,12.000120000000008)"><path fill="rgb(0,0,0)" stroke="none" paint-order="stroke fill markers" d=" M 0.3837890625 0.30078125 L 0.3837890625 -0.0009765625 Q 0.3837890625 -0.00439453125 0.38623046875 -0.007080078125 Q 0.388671875 -0.009765625 0.39306640625 -0.009765625 L 0.49609375 -0.009765625 Q 0.4990234375 -0.009765625 0.50146484375 -0.007080078125 Q 0.50390625 -0.00439453125 0.50390625 -0.0009765625 L 0.50390625 0.30078125 Q 0.50390625 0.3037109375 0.501220703125 0.306884765625 Q 0.49853515625 0.31005859375 0.49609375 0.31005859375 L 0.39306640625 0.31005859375 Q 0.3837890625 0.31005859375 0.3837890625 0.30078125 Z"/></g><g transform="translate(0,12.300123000000008)"><path fill="rgb(0,0,0)" stroke="none" paint-order="stroke fill markers" d=" M 0.3837890625 0.30078125 L 0.3837890625 -0.0009765625 Q 0.3837890625 -0.00439453125 0.38623046875 -0.007080078125 Q 0.388671875 -0.009765625 0.39306640625 -0.009765625 L 0.49609375 -0.009765625 Q 0.4990234375 -0.009765625 0.50146484375 -0.007080078125 Q 0.50390625 -0.00439453125 0.50390625 -0.0009765625 L 0.50390625 0.30078125 Q 0.50390625 0.3037109375 0.501220703125 0.306884765625 Q 0.49853515625 0.31005859375 0.49609375 0.31005859375 L 0.39306640625 0.31005859375 Q 0.3837890625 0.31005859375 0.3837890625 0.30078125 Z"/></g><g transform="translate(0,12.600126000000008)"><path fill="rgb(0,0,0)" stroke="none" paint-order="stroke fill markers" d=" M 0.3837890625 0.30078125 L 0.3837890625 -0.0009765625 Q 0.3837890625 -0.00439453125 0.38623046875 -0.007080078125 Q 0.388671875 -0.009765625 0.39306640625 -0.009765625 L 0.49609375 -0.009765625 Q 0.4990234375 -0.009765625 0.50146484375 -0.007080078125 Q 0.50390625 -0.00439453125 0.50390625 -0.0009765625 L 0.50390625 0.30078125 Q 0.50390625 0.3037109375 0.501220703125 0.306884765625 Q 0.49853515625 0.31005859375 0.49609375 0.31005859375 L 0.39306640625 0.31005859375 Q 0.3837890625 0.31005859375 0.3837890625 0.30078125 Z"/></g><g transform="translate(0,12.900129000000009)"><path fill="rgb(0,0,0)" stroke="none" paint-order="stroke fill markers" d=" M 0.3837890625 0.30078125 L 0.3837890625 -0.0009765625 Q 0.3837890625 -0.00439453125 0.38623046875 -0.007080078125 Q 0.388671875 -0.009765625 0.39306640625 -0.009765625 L 0.49609375 -0.009765625 Q 0.4990234375 -0.009765625 0.50146484375 -0.007080078125 Q 0.50390625 -0.00439453125 0.50390625 -0.0009765625 L 0.50390625 0.30078125 Q 0.50390625 0.3037109375 0.501220703125 0.306884765625 Q 0.49853515625 0.31005859375 0.49609375 0.31005859375 L 0.39306640625 0.31005859375 Q 0.3837890625 0.31005859375 0.3837890625 0.30078125 Z"/></g><g transform="translate(0,13.200132000000009)"><path fill="rgb(0,0,0)" stroke="none" paint-order="stroke fill markers" d=" M 0.3837890625 0.30078125 L 0.3837890625 -0.0009765625 Q 0.3837890625 -0.00439453125 0.38623046875 -0.007080078125 Q 0.388671875 -0.009765625 0.39306640625 -0.009765625 L 0.49609375 -0.009765625 Q 0.4990234375 -0.009765625 0.50146484375 -0.007080078125 Q 0.50390625 -0.00439453125 0.50390625 -0.0009765625 L 0.50390625 0.30078125 Q 0.50390625 0.3037109375 0.501220703125 0.306884765625 Q 0.49853515625 0.31005859375 0.49609375 0.31005859375 L 0.39306640625 0.31005859375 Q 0.3837890625 0.31005859375 0.3837890625 0.30078125 Z"/></g><g transform="translate(0,13.500135000000009)"><path fill="rgb(0,0,0)" stroke="none" paint-order="stroke fill markers" d=" M 0.3837890625 0.30078125 L 0.3837890625 -0.0009765625 Q 0.3837890625 -0.00439453125 0.38623046875 -0.007080078125 Q 0.388671875 -0.009765625 0.39306640625 -0.009765625 L 0.49609375 -0.009765625 Q 0.4990234375 -0.009765625 0.50146484375 -0.007080078125 Q 0.50390625 -0.00439453125 0.50390625 -0.0009765625 L 0.50390625 0.30078125 Q 0.50390625 0.3037109375 0.501220703125 0.306884765625 Q 0.49853515625 0.31005859375 0.49609375 0.31005859375 L 0.39306640625 0.31005859375 Q 0.3837890625 0.31005859375 0.3837890625 0.30078125 Z"/></g><g transform="translate(0,13.80013800000001)"><path fill="rgb(0,0,0)" stroke="none" paint-order="stroke fill markers" d=" M 0.3837890625 0.30078125 L 0.3837890625 -0.0009765625 Q 0.3837890625 -0.00439453125 0.38623046875 -0.007080078125 Q 0.388671875 -0.009765625 0.39306640625 -0.009765625 L 0.49609375 -0.009765625 Q 0.4990234375 -0.009765625 0.50146484375 -0.007080078125 Q 0.50390625 -0.00439453125 0.50390625 -0.0009765625 L 0.50390625 0.30078125 Q 0.50390625 0.3037109375 0.501220703125 0.306884765625 Q 0.49853515625 0.31005859375 0.49609375 0.31005859375 L 0.39306640625 0.31005859375 Q 0.3837890625 0.31005859375 0.3837890625 0.30078125 Z"/></g><g transform="translate(0,14.10014100000001)"><path fill="rgb(0,0,0)" stroke="none" paint-order="stroke fill markers" d=" M 0.3837890625 0.30078125 L 0.3837890625 -0.0009765625 Q 0.3837890625 -0.00439453125 0.38623046875 -0.007080078125 Q 0.388671875 -0.009765625 0.39306640625 -0.009765625 L 0.49609375 -0.009765625 Q 0.4990234375 -0.009765625 0.50146484375 -0.007080078125 Q 0.50390625 -0.00439453125 0.50390625 -0.0009765625 L 0.50390625 0.30078125 Q 0.50390625 0.3037109375 0.501220703125 0.306884765625 Q 0.49853515625 0.31005859375 0.49609375 0.31005859375 L 0.39306640625 0.31005859375 Q 0.3837890625 0.31005859375 0.3837890625 0.30078125 Z"/></g><g transform="translate(0,14.40014400000001)"><path fill="rgb(0,0,0)" stroke="none" paint-order="stroke fill markers" d=" M 0.3837890625 0.30078125 L 0.3837890625 -0.0009765625 Q 0.3837890625 -0.00439453125 0.38623046875 -0.007080078125 Q 0.388671875 -0.009765625 0.39306640625 -0.009765625 L 0.49609375 -0.009765625 Q 0.4990234375 -0.009765625 0.50146484375 -0.007080078125 Q 0.50390625 -0.00439453125 0.50390625 -0.0009765625 L 0.50390625 0.30078125 Q 0.50390625 0.3037109375 0.501220703125 0.306884765625 Q 0.49853515625 0.31005859375 0.49609375 0.31005859375 L 0.39306640625 0.31005859375 Q 0.3837890625 0.31005859375 0.3837890625 0.30078125 Z"/></g><g transform="translate(0,14.70014700000001)"><path fill="rgb(0,0,0)" stroke="none" paint-order="stroke fill markers" d=" M 0.3837890625 0.30078125 L 0.3837890625 -0.0009765625 Q 0.3837890625 -0.00439453125 0.38623046875 -0.007080078125 Q 0.388671875 -0.009765625 0.39306640625 -0.009765625 L 0.49609375 -0.009765625 Q 0.4990234375 -0.009765625 0.50146484375 -0.007080078125 Q 0.50390625 -0.00439453125 0.50390625 -0.0009765625 L 0.50390625 0.30078125 Q 0.50390625 0.3037109375 0.501220703125 0.306884765625 Q 0.49853515625 0.31005859375 0.49609375 0.31005859375 L 0.39306640625 0.31005859375 Q 0.3837890625 0.31005859375 0.3837890625 0.30078125 Z"/></g><g transform="translate(0,15.00015000000001)"><path fill="rgb(0,0,0)" stroke="none" paint-order="stroke fill markers" d=" M 0.3837890625 0.30078125 L 0.3837890625 -0.0009765625 Q 0.3837890625 -0.00439453125 0.38623046875 -0.007080078125 Q 0.388671875 -0.009765625 0.39306640625 -0.009765625 L 0.49609375 -0.009765625 Q 0.4990234375 -0.009765625 0.50146484375 -0.007080078125 Q 0.50390625 -0.00439453125 0.50390625 -0.0009765625 L 0.50390625 0.30078125 Q 0.50390625 0.3037109375 0.501220703125 0.306884765625 Q 0.49853515625 0.31005859375 0.49609375 0.31005859375 L 0.39306640625 0.31005859375 Q 0.3837890625 0.31005859375 0.3837890625 0.30078125 Z"/></g><g transform="translate(0,15.30015300000001)"><path fill="rgb(0,0,0)" stroke="none" paint-order="stroke fill markers" d=" M 0.3837890625 0.30078125 L 0.3837890625 -0.0009765625 Q 0.3837890625 -0.00439453125 0.38623046875 -0.007080078125 Q 0.388671875 -0.009765625 0.39306640625 -0.009765625 L 0.49609375 -0.009765625 Q 0.4990234375 -0.009765625 0.50146484375 -0.007080078125 Q 0.50390625 -0.00439453125 0.50390625 -0.0009765625 L 0.50390625 0.30078125 Q 0.50390625 0.3037109375 0.501220703125 0.306884765625 Q 0.49853515625 0.31005859375 0.49609375 0.31005859375 L 0.39306640625 0.31005859375 Q 0.3837890625 0.31005859375 0.3837890625 0.30078125 Z"/></g><g transform="translate(0,15.60015600000001)"><path fill="rgb(0,0,0)" stroke="none" paint-order="stroke fill markers" d=" M 0.3837890625 0.30078125 L 0.3837890625 -0.0009765625 Q 0.3837890625 -0.00439453125 0.38623046875 -0.007080078125 Q 0.388671875 -0.009765625 0.39306640625 -0.009765625 L 0.49609375 -0.009765625 Q 0.4990234375 -0.009765625 0.50146484375 -0.007080078125 Q 0.50390625 -0.00439453125 0.50390625 -0.0009765625 L 0.50390625 0.30078125 Q 0.50390625 0.3037109375 0.501220703125 0.306884765625 Q 0.49853515625 0.31005859375 0.49609375 0.31005859375 L 0.39306640625 0.31005859375 Q 0.3837890625 0.31005859375 0.3837890625 0.30078125 Z"/></g><g transform="translate(0,15.900159000000011)"><path fill="rgb(0,0,0)" stroke="none" paint-order="stroke fill markers" d=" M 0.3837890625 0.30078125 L 0.3837890625 -0.0009765625 Q 0.3837890625 -0.00439453125 0.38623046875 -0.007080078125 Q 0.388671875 -0.009765625 0.39306640625 -0.009765625 L 0.49609375 -0.009765625 Q 0.4990234375 -0.009765625 0.50146484375 -0.007080078125 Q 0.50390625 -0.00439453125 0.50390625 -0.0009765625 L 0.50390625 0.30078125 Q 0.50390625 0.3037109375 0.501220703125 0.306884765625 Q 0.49853515625 0.31005859375 0.49609375 0.31005859375 L 0.39306640625 0.31005859375 Q 0.3837890625 0.31005859375 0.3837890625 0.30078125 Z"/></g><g transform="translate(0,16.20016200000001)"><path fill="rgb(0,0,0)" stroke="none" paint-order="stroke fill markers" d=" M 0.3837890625 0.30078125 L 0.3837890625 -0.0009765625 Q 0.3837890625 -0.00439453125 0.38623046875 -0.007080078125 Q 0.388671875 -0.009765625 0.39306640625 -0.009765625 L 0.49609375 -0.009765625 Q 0.4990234375 -0.009765625 0.50146484375 -0.007080078125 Q 0.50390625 -0.00439453125 0.50390625 -0.0009765625 L 0.50390625 0.30078125 Q 0.50390625 0.3037109375 0.501220703125 0.306884765625 Q 0.49853515625 0.31005859375 0.49609375 0.31005859375 L 0.39306640625 0.31005859375 Q 0.3837890625 0.31005859375 0.3837890625 0.30078125 Z"/></g><g transform="translate(0,16.50016500000001)"><path fill="rgb(0,0,0)" stroke="none" paint-order="stroke fill markers" d=" M 0.3837890625 1.80078125 L 0.3837890625 1.3662109375 Q 0.3837890625 1.302734375 0.37060546875 1.23779296875 Q 0.357421875 1.1728515625 0.33154296875 1.115234375 Q 0.3056640625 1.0576171875 0.265869140625 1.008056640625 Q 0.22607421875 0.95849609375 0.173828125 0.921875 Q 0.169921875 0.919921875 0.169921875 0.916015625 L 0.169921875 0.884765625 Q 0.169921875 0.8798828125 0.173828125 0.8779296875 Q 0.22607421875 0.8408203125 0.266357421875 0.79052734375 Q 0.306640625 0.740234375 0.33203125 0.68359375 Q 0.357421875 0.626953125 0.37060546875 0.562255859375 Q 0.3837890625 0.49755859375 0.3837890625 0.43505859375 L 0.3837890625 -0.0009765625 Q 0.3837890625 -0.00439453125 0.38623046875 -0.007080078125 Q 0.388671875 -0.009765625 0.39306640625 -0.009765625 L 0.49609375 -0.009765625 Q 0.4990234375 -0.009765625 0.50146484375 -0.007080078125 Q 0.50390625 -0.00439453125 0.50390625 -0.0009765625 L 0.50390625 0.43701171875 Q 0.50390625 0.5078125 0.48388671875 0.575927734375 Q 0.4638671875 0.64404296875 0.427490234375 0.70458984375 Q 0.39111328125 0.76513671875 0.340087890625 0.814697265625 Q 0.2890625 0.8642578125 0.22802734375 0.89990234375 Q 0.287109375 0.93359375 0.339111328125 0.984619140625 Q 0.39111328125 1.03564453125 0.427490234375 1.095947265625 Q 0.4638671875 1.15625 0.48388671875 1.22412109375 Q 0.50390625 1.2919921875 0.50390625 1.36376953125 L 0.50390625 1.80078125 Q 0.50390625 1.8037109375 0.501220703125 1.806884765625 Q 0.49853515625 1.81005859375 0.49609375 1.81005859375 L 0.39306640625 1.81005859375 Q 0.3837890625 1.81005859375 0.3837890625 1.80078125 Z"/></g><g transform="translate(0,18.30018300000001)"><path fill="rgb(0,0,0)" stroke="none" paint-order="stroke fill markers" d=" M 0.3837890625 0.30078125 L 0.3837890625 -0.0009765625 Q 0.3837890625 -0.00439453125 0.38623046875 -0.007080078125 Q 0.388671875 -0.009765625 0.39306640625 -0.009765625 L 0.49609375 -0.009765625 Q 0.4990234375 -0.009765625 0.50146484375 -0.007080078125 Q 0.50390625 -0.00439453125 0.50390625 -0.0009765625 L 0.50390625 0.30078125 Q 0.50390625 0.3037109375 0.501220703125 0.306884765625 Q 0.49853515625 0.31005859375 0.49609375 0.31005859375 L 0.39306640625 0.31005859375 Q 0.3837890625 0.31005859375 0.3837890625 0.30078125 Z"/></g><g transform="translate(0,18.60018600000001)"><path fill="rgb(0,0,0)" stroke="none" paint-order="stroke fill markers" d=" M 0.3837890625 0.30078125 L 0.3837890625 -0.0009765625 Q 0.3837890625 -0.00439453125 0.38623046875 -0.007080078125 Q 0.388671875 -0.009765625 0.39306640625 -0.009765625 L 0.49609375 -0.009765625 Q 0.4990234375 -0.009765625 0.50146484375 -0.007080078125 Q 0.50390625 -0.00439453125 0.50390625 -0.0009765625 L 0.50390625 0.30078125 Q 0.50390625 0.3037109375 0.501220703125 0.306884765625 Q 0.49853515625 0.31005859375 0.49609375 0.31005859375 L 0.39306640625 0.31005859375 Q 0.3837890625 0.31005859375 0.3837890625 0.30078125 Z"/></g><g transform="translate(0,18.90018900000001)"><path fill="rgb(0,0,0)" stroke="none" paint-order="stroke fill markers" d=" M 0.3837890625 0.30078125 L 0.3837890625 -0.0009765625 Q 0.3837890625 -0.00439453125 0.38623046875 -0.007080078125 Q 0.388671875 -0.009765625 0.39306640625 -0.009765625 L 0.49609375 -0.009765625 Q 0.4990234375 -0.009765625 0.50146484375 -0.007080078125 Q 0.50390625 -0.00439453125 0.50390625 -0.0009765625 L 0.50390625 0.30078125 Q 0.50390625 0.3037109375 0.501220703125 0.306884765625 Q 0.49853515625 0.31005859375 0.49609375 0.31005859375 L 0.39306640625 0.31005859375 Q 0.3837890625 0.31005859375 0.3837890625 0.30078125 Z"/></g><g transform="translate(0,19.200192000000012)"><path fill="rgb(0,0,0)" stroke="none" paint-order="stroke fill markers" d=" M 0.3837890625 0.30078125 L 0.3837890625 -0.0009765625 Q 0.3837890625 -0.00439453125 0.38623046875 -0.007080078125 Q 0.388671875 -0.009765625 0.39306640625 -0.009765625 L 0.49609375 -0.009765625 Q 0.4990234375 -0.009765625 0.50146484375 -0.007080078125 Q 0.50390625 -0.00439453125 0.50390625 -0.0009765625 L 0.50390625 0.30078125 Q 0.50390625 0.3037109375 0.501220703125 0.306884765625 Q 0.49853515625 0.31005859375 0.49609375 0.31005859375 L 0.39306640625 0.31005859375 Q 0.3837890625 0.31005859375 0.3837890625 0.30078125 Z"/></g><g transform="translate(0,19.500195000000012)"><path fill="rgb(0,0,0)" stroke="none" paint-order="stroke fill markers" d=" M 0.3837890625 0.30078125 L 0.3837890625 -0.0009765625 Q 0.3837890625 -0.00439453125 0.38623046875 -0.007080078125 Q 0.388671875 -0.009765625 0.39306640625 -0.009765625 L 0.49609375 -0.009765625 Q 0.4990234375 -0.009765625 0.50146484375 -0.007080078125 Q 0.50390625 -0.00439453125 0.50390625 -0.0009765625 L 0.50390625 0.30078125 Q 0.50390625 0.3037109375 0.501220703125 0.306884765625 Q 0.49853515625 0.31005859375 0.49609375 0.31005859375 L 0.39306640625 0.31005859375 Q 0.3837890625 0.31005859375 0.3837890625 0.30078125 Z"/></g><g transform="translate(0,19.800198000000012)"><path fill="rgb(0,0,0)" stroke="none" paint-order="stroke fill markers" d=" M 0.3837890625 0.30078125 L 0.3837890625 -0.0009765625 Q 0.3837890625 -0.00439453125 0.38623046875 -0.007080078125 Q 0.388671875 -0.009765625 0.39306640625 -0.009765625 L 0.49609375 -0.009765625 Q 0.4990234375 -0.009765625 0.50146484375 -0.007080078125 Q 0.50390625 -0.00439453125 0.50390625 -0.0009765625 L 0.50390625 0.30078125 Q 0.50390625 0.3037109375 0.501220703125 0.306884765625 Q 0.49853515625 0.31005859375 0.49609375 0.31005859375 L 0.39306640625 0.31005859375 Q 0.3837890625 0.31005859375 0.3837890625 0.30078125 Z"/></g><g transform="translate(0,20.100201000000013)"><path fill="rgb(0,0,0)" stroke="none" paint-order="stroke fill markers" d=" M 0.3837890625 0.30078125 L 0.3837890625 -0.0009765625 Q 0.3837890625 -0.00439453125 0.38623046875 -0.007080078125 Q 0.388671875 -0.009765625 0.39306640625 -0.009765625 L 0.49609375 -0.009765625 Q 0.4990234375 -0.009765625 0.50146484375 -0.007080078125 Q 0.50390625 -0.00439453125 0.50390625 -0.0009765625 L 0.50390625 0.30078125 Q 0.50390625 0.3037109375 0.501220703125 0.306884765625 Q 0.49853515625 0.31005859375 0.49609375 0.31005859375 L 0.39306640625 0.31005859375 Q 0.3837890625 0.31005859375 0.3837890625 0.30078125 Z"/></g><g transform="translate(0,20.400204000000013)"><path fill="rgb(0,0,0)" stroke="none" paint-order="stroke fill markers" d=" M 0.3837890625 0.30078125 L 0.3837890625 -0.0009765625 Q 0.3837890625 -0.00439453125 0.38623046875 -0.007080078125 Q 0.388671875 -0.009765625 0.39306640625 -0.009765625 L 0.49609375 -0.009765625 Q 0.4990234375 -0.009765625 0.50146484375 -0.007080078125 Q 0.50390625 -0.00439453125 0.50390625 -0.0009765625 L 0.50390625 0.30078125 Q 0.50390625 0.3037109375 0.501220703125 0.306884765625 Q 0.49853515625 0.31005859375 0.49609375 0.31005859375 L 0.39306640625 0.31005859375 Q 0.3837890625 0.31005859375 0.3837890625 0.30078125 Z"/></g><g transform="translate(0,20.700207000000013)"><path fill="rgb(0,0,0)" stroke="none" paint-order="stroke fill markers" d=" M 0.3837890625 0.30078125 L 0.3837890625 -0.0009765625 Q 0.3837890625 -0.00439453125 0.38623046875 -0.007080078125 Q 0.388671875 -0.009765625 0.39306640625 -0.009765625 L 0.49609375 -0.009765625 Q 0.4990234375 -0.009765625 0.50146484375 -0.007080078125 Q 0.50390625 -0.00439453125 0.50390625 -0.0009765625 L 0.50390625 0.30078125 Q 0.50390625 0.3037109375 0.501220703125 0.306884765625 Q 0.49853515625 0.31005859375 0.49609375 0.31005859375 L 0.39306640625 0.31005859375 Q 0.3837890625 0.31005859375 0.3837890625 0.30078125 Z"/></g><g transform="translate(0,21.000210000000013)"><path fill="rgb(0,0,0)" stroke="none" paint-order="stroke fill markers" d=" M 0.3837890625 0.30078125 L 0.3837890625 -0.0009765625 Q 0.3837890625 -0.00439453125 0.38623046875 -0.007080078125 Q 0.388671875 -0.009765625 0.39306640625 -0.009765625 L 0.49609375 -0.009765625 Q 0.4990234375 -0.009765625 0.50146484375 -0.007080078125 Q 0.50390625 -0.00439453125 0.50390625 -0.0009765625 L 0.50390625 0.30078125 Q 0.50390625 0.3037109375 0.501220703125 0.306884765625 Q 0.49853515625 0.31005859375 0.49609375 0.31005859375 L 0.39306640625 0.31005859375 Q 0.3837890625 0.31005859375 0.3837890625 0.30078125 Z"/></g><g transform="translate(0,21.300213000000014)"><path fill="rgb(0,0,0)" stroke="none" paint-order="stroke fill markers" d=" M 0.3837890625 0.30078125 L 0.3837890625 -0.0009765625 Q 0.3837890625 -0.00439453125 0.38623046875 -0.007080078125 Q 0.388671875 -0.009765625 0.39306640625 -0.009765625 L 0.49609375 -0.009765625 Q 0.4990234375 -0.009765625 0.50146484375 -0.007080078125 Q 0.50390625 -0.00439453125 0.50390625 -0.0009765625 L 0.50390625 0.30078125 Q 0.50390625 0.3037109375 0.501220703125 0.306884765625 Q 0.49853515625 0.31005859375 0.49609375 0.31005859375 L 0.39306640625 0.31005859375 Q 0.3837890625 0.31005859375 0.3837890625 0.30078125 Z"/></g><g transform="translate(0,21.600216000000014)"><path fill="rgb(0,0,0)" stroke="none" paint-order="stroke fill markers" d=" M 0.3837890625 0.30078125 L 0.3837890625 -0.0009765625 Q 0.3837890625 -0.00439453125 0.38623046875 -0.007080078125 Q 0.388671875 -0.009765625 0.39306640625 -0.009765625 L 0.49609375 -0.009765625 Q 0.4990234375 -0.009765625 0.50146484375 -0.007080078125 Q 0.50390625 -0.00439453125 0.50390625 -0.0009765625 L 0.50390625 0.30078125 Q 0.50390625 0.3037109375 0.501220703125 0.306884765625 Q 0.49853515625 0.31005859375 0.49609375 0.31005859375 L 0.39306640625 0.31005859375 Q 0.3837890625 0.31005859375 0.3837890625 0.30078125 Z"/></g><g transform="translate(0,21.900219000000014)"><path fill="rgb(0,0,0)" stroke="none" paint-order="stroke fill markers" d=" M 0.3837890625 0.30078125 L 0.3837890625 -0.0009765625 Q 0.3837890625 -0.00439453125 0.38623046875 -0.007080078125 Q 0.388671875 -0.009765625 0.39306640625 -0.009765625 L 0.49609375 -0.009765625 Q 0.4990234375 -0.009765625 0.50146484375 -0.007080078125 Q 0.50390625 -0.00439453125 0.50390625 -0.0009765625 L 0.50390625 0.30078125 Q 0.50390625 0.3037109375 0.501220703125 0.306884765625 Q 0.49853515625 0.31005859375 0.49609375 0.31005859375 L 0.39306640625 0.31005859375 Q 0.3837890625 0.31005859375 0.3837890625 0.30078125 Z"/></g><g transform="translate(0,22.200222000000014)"><path fill="rgb(0,0,0)" stroke="none" paint-order="stroke fill markers" d=" M 0.3837890625 0.30078125 L 0.3837890625 -0.0009765625 Q 0.3837890625 -0.00439453125 0.38623046875 -0.007080078125 Q 0.388671875 -0.009765625 0.39306640625 -0.009765625 L 0.49609375 -0.009765625 Q 0.4990234375 -0.009765625 0.50146484375 -0.007080078125 Q 0.50390625 -0.00439453125 0.50390625 -0.0009765625 L 0.50390625 0.30078125 Q 0.50390625 0.3037109375 0.501220703125 0.306884765625 Q 0.49853515625 0.31005859375 0.49609375 0.31005859375 L 0.39306640625 0.31005859375 Q 0.3837890625 0.31005859375 0.3837890625 0.30078125 Z"/></g><g transform="translate(0,22.500225000000015)"><path fill="rgb(0,0,0)" stroke="none" paint-order="stroke fill markers" d=" M 0.3837890625 0.30078125 L 0.3837890625 -0.0009765625 Q 0.3837890625 -0.00439453125 0.38623046875 -0.007080078125 Q 0.388671875 -0.009765625 0.39306640625 -0.009765625 L 0.49609375 -0.009765625 Q 0.4990234375 -0.009765625 0.50146484375 -0.007080078125 Q 0.50390625 -0.00439453125 0.50390625 -0.0009765625 L 0.50390625 0.30078125 Q 0.50390625 0.3037109375 0.501220703125 0.306884765625 Q 0.49853515625 0.31005859375 0.49609375 0.31005859375 L 0.39306640625 0.31005859375 Q 0.3837890625 0.31005859375 0.3837890625 0.30078125 Z"/></g><g transform="translate(0,22.800228000000015)"><path fill="rgb(0,0,0)" stroke="none" paint-order="stroke fill markers" d=" M 0.3837890625 0.30078125 L 0.3837890625 -0.0009765625 Q 0.3837890625 -0.00439453125 0.38623046875 -0.007080078125 Q 0.388671875 -0.009765625 0.39306640625 -0.009765625 L 0.49609375 -0.009765625 Q 0.4990234375 -0.009765625 0.50146484375 -0.007080078125 Q 0.50390625 -0.00439453125 0.50390625 -0.0009765625 L 0.50390625 0.30078125 Q 0.50390625 0.3037109375 0.501220703125 0.306884765625 Q 0.49853515625 0.31005859375 0.49609375 0.31005859375 L 0.39306640625 0.31005859375 Q 0.3837890625 0.31005859375 0.3837890625 0.30078125 Z"/></g><g transform="translate(0,23.100231000000015)"><path fill="rgb(0,0,0)" stroke="none" paint-order="stroke fill markers" d=" M 0.3837890625 0.30078125 L 0.3837890625 -0.0009765625 Q 0.3837890625 -0.00439453125 0.38623046875 -0.007080078125 Q 0.388671875 -0.009765625 0.39306640625 -0.009765625 L 0.49609375 -0.009765625 Q 0.4990234375 -0.009765625 0.50146484375 -0.007080078125 Q 0.50390625 -0.00439453125 0.50390625 -0.0009765625 L 0.50390625 0.30078125 Q 0.50390625 0.3037109375 0.501220703125 0.306884765625 Q 0.49853515625 0.31005859375 0.49609375 0.31005859375 L 0.39306640625 0.31005859375 Q 0.3837890625 0.31005859375 0.3837890625 0.30078125 Z"/></g><g transform="translate(0,23.400234000000015)"><path fill="rgb(0,0,0)" stroke="none" paint-order="stroke fill markers" d=" M 0.3837890625 0.30078125 L 0.3837890625 -0.0009765625 Q 0.3837890625 -0.00439453125 0.38623046875 -0.007080078125 Q 0.388671875 -0.009765625 0.39306640625 -0.009765625 L 0.49609375 -0.009765625 Q 0.4990234375 -0.009765625 0.50146484375 -0.007080078125 Q 0.50390625 -0.00439453125 0.50390625 -0.0009765625 L 0.50390625 0.30078125 Q 0.50390625 0.3037109375 0.501220703125 0.306884765625 Q 0.49853515625 0.31005859375 0.49609375 0.31005859375 L 0.39306640625 0.31005859375 Q 0.3837890625 0.31005859375 0.3837890625 0.30078125 Z"/></g><g transform="translate(0,23.700237000000016)"><path fill="rgb(0,0,0)" stroke="none" paint-order="stroke fill markers" d=" M 0.3837890625 0.30078125 L 0.3837890625 -0.0009765625 Q 0.3837890625 -0.00439453125 0.38623046875 -0.007080078125 Q 0.388671875 -0.009765625 0.39306640625 -0.009765625 L 0.49609375 -0.009765625 Q 0.4990234375 -0.009765625 0.50146484375 -0.007080078125 Q 0.50390625 -0.00439453125 0.50390625 -0.0009765625 L 0.50390625 0.30078125 Q 0.50390625 0.3037109375 0.501220703125 0.306884765625 Q 0.49853515625 0.31005859375 0.49609375 0.31005859375 L 0.39306640625 0.31005859375 Q 0.3837890625 0.31005859375 0.3837890625 0.30078125 Z"/></g><g transform="translate(0,24.000240000000016)"><path fill="rgb(0,0,0)" stroke="none" paint-order="stroke fill markers" d=" M 0.3837890625 0.30078125 L 0.3837890625 -0.0009765625 Q 0.3837890625 -0.00439453125 0.38623046875 -0.007080078125 Q 0.388671875 -0.009765625 0.39306640625 -0.009765625 L 0.49609375 -0.009765625 Q 0.4990234375 -0.009765625 0.50146484375 -0.007080078125 Q 0.50390625 -0.00439453125 0.50390625 -0.0009765625 L 0.50390625 0.30078125 Q 0.50390625 0.3037109375 0.501220703125 0.306884765625 Q 0.49853515625 0.31005859375 0.49609375 0.31005859375 L 0.39306640625 0.31005859375 Q 0.3837890625 0.31005859375 0.3837890625 0.30078125 Z"/></g><g transform="translate(0,24.300243000000016)"><path fill="rgb(0,0,0)" stroke="none" paint-order="stroke fill markers" d=" M 0.3837890625 0.30078125 L 0.3837890625 -0.0009765625 Q 0.3837890625 -0.00439453125 0.38623046875 -0.007080078125 Q 0.388671875 -0.009765625 0.39306640625 -0.009765625 L 0.49609375 -0.009765625 Q 0.4990234375 -0.009765625 0.50146484375 -0.007080078125 Q 0.50390625 -0.00439453125 0.50390625 -0.0009765625 L 0.50390625 0.30078125 Q 0.50390625 0.3037109375 0.501220703125 0.306884765625 Q 0.49853515625 0.31005859375 0.49609375 0.31005859375 L 0.39306640625 0.31005859375 Q 0.3837890625 0.31005859375 0.3837890625 0.30078125 Z"/></g><g transform="translate(0,24.600246000000016)"><path fill="rgb(0,0,0)" stroke="none" paint-order="stroke fill markers" d=" M 0.3837890625 0.30078125 L 0.3837890625 -0.0009765625 Q 0.3837890625 -0.00439453125 0.38623046875 -0.007080078125 Q 0.388671875 -0.009765625 0.39306640625 -0.009765625 L 0.49609375 -0.009765625 Q 0.4990234375 -0.009765625 0.50146484375 -0.007080078125 Q 0.50390625 -0.00439453125 0.50390625 -0.0009765625 L 0.50390625 0.30078125 Q 0.50390625 0.3037109375 0.501220703125 0.306884765625 Q 0.49853515625 0.31005859375 0.49609375 0.31005859375 L 0.39306640625 0.31005859375 Q 0.3837890625 0.31005859375 0.3837890625 0.30078125 Z"/></g><g transform="translate(0,24.900249000000017)"><path fill="rgb(0,0,0)" stroke="none" paint-order="stroke fill markers" d=" M 0.3837890625 0.30078125 L 0.3837890625 -0.0009765625 Q 0.3837890625 -0.00439453125 0.38623046875 -0.007080078125 Q 0.388671875 -0.009765625 0.39306640625 -0.009765625 L 0.49609375 -0.009765625 Q 0.4990234375 -0.009765625 0.50146484375 -0.007080078125 Q 0.50390625 -0.00439453125 0.50390625 -0.0009765625 L 0.50390625 0.30078125 Q 0.50390625 0.3037109375 0.501220703125 0.306884765625 Q 0.49853515625 0.31005859375 0.49609375 0.31005859375 L 0.39306640625 0.31005859375 Q 0.3837890625 0.31005859375 0.3837890625 0.30078125 Z"/></g><g transform="translate(0,25.200252000000017)"><path fill="rgb(0,0,0)" stroke="none" paint-order="stroke fill markers" d=" M 0.673828125 0.89697265625 Q 0.6103515625 0.86376953125 0.55712890625 0.815673828125 Q 0.50390625 0.767578125 0.46533203125 0.709228515625 Q 0.4267578125 0.65087890625 0.4052734375 0.58349609375 Q 0.3837890625 0.51611328125 0.3837890625 0.44580078125 L 0.3837890625 -0.0009765625 Q 0.3837890625 -0.00439453125 0.38623046875 -0.007080078125 Q 0.388671875 -0.009765625 0.39306640625 -0.009765625 L 0.49609375 -0.009765625 Q 0.4990234375 -0.009765625 0.50146484375 -0.007080078125 Q 0.50390625 -0.00439453125 0.50390625 -0.0009765625 L 0.50390625 0.44384765625 Q 0.50390625 0.56689453125 0.558837890625 0.677490234375 Q 0.61376953125 0.7880859375 0.71484375 0.85302734375 Q 0.7177734375 0.85595703125 0.7177734375 0.85986328125 L 0.7177734375 0.89111328125 Q 0.7177734375 0.89404296875 0.71533203125 0.896484375 Q 0.712890625 0.89892578125 0.7099609375 0.89892578125 L 0.67919921875 0.89892578125 Q 0.67578125 0.89892578125 0.673828125 0.89697265625 Z"/></g></g><g transform="translate(9.645061358765748,0.8025641025641025) scale(0.06999999999999999,0.06999999999999999)"><text fill="rgb(0,0,0)" stroke="none" font-family="Serif" font-size="10px" font-style="normal" font-weight="normal" text-decoration="normal" x="0" y="0" text-anchor="start" dominant-baseline="alphabetic">全部数据</text><g transform="scale(14.285714285714286,14.285714285714286) translate(-9.645061358765748,-0.8025641025641025)"/></g></g><g transform="scale(28,28) translate(16.535714285714285,3.9285714285714284) scale(0.1,0.1)"><text fill="rgb(0,0,0)" stroke="none" font-family="Serif" font-size="10px" font-style="normal" font-weight="normal" text-decoration="normal" x="0" y="0" text-anchor="start" dominant-baseline="alphabetic">验证集</text><g transform="scale(10,10) translate(-16.535714285714285,-3.9285714285714284)"/></g><g transform="scale(28,28) translate(24.25,3.892857142857143) scale(0.1,0.1)"><text fill="rgb(0,0,0)" stroke="none" font-family="Serif" font-size="10px" font-style="normal" font-weight="normal" text-decoration="normal" x="0" y="0" text-anchor="start" dominant-baseline="alphabetic">测试集</text><g transform="scale(10,10) translate(-24.25,-3.892857142857143)"/></g><g transform="scale(28,28) translate(7.821428571428571,3.9285714285714284) scale(0.1,0.1)"><text fill="rgb(0,0,0)" stroke="none" font-family="Serif" font-size="10px" font-style="normal" font-weight="normal" text-decoration="normal" x="0" y="0" text-anchor="start" dominant-baseline="alphabetic">训练集</text><g transform="scale(10,10) translate(-7.821428571428571,-3.9285714285714284)"/></g></g></g></svg>