<svg version="1.1" xmlns="http://www.w3.org/2000/svg" xmlns:xlink="http://www.w3.org/1999/xlink" width="644" height="371"><defs><clipPath id="rqOtOfJSKqKZ"><path fill="none" stroke="none" d=" M 0 0 L 644 0 L 644 371 L 0 371 L 0 0 Z"/></clipPath></defs><g transform="scale(1,1)" clip-path="url(#rqOtOfJSKqKZ)"><g><path fill="none" stroke="rgb(0,0,0)" paint-order="fill stroke markers" d=" M 8.5 2.5 L 8.5 371.5" stroke-opacity="1" stroke-miterlimit="10"/><path fill="none" stroke="rgb(0,0,0)" paint-order="fill stroke markers" d=" M 8.5 1.5 L 2.5 7.5" stroke-opacity="1" stroke-miterlimit="10"/><path fill="none" stroke="rgb(0,0,0)" paint-order="fill stroke markers" d=" M 8.5 1.5 L 14.5 7.5" stroke-opacity="1" stroke-miterlimit="10"/><g><g transform="scale(27,27)"><g transform="translate(23.14814814814815,12.842593148148149)"><path fill="rgb(0,0,0)" stroke="none" paint-order="stroke fill markers" d=" M 0.367 -0.4 L 0.367 -0.4 L 0.307 -0.083 Q 0.298 -0.021 0.271 0.059000000000000004 Q 0.261 0.088 0.251 0.108 Q 0.216 0.182 0.164 0.2 Q 0.151 0.20500000000000002 0.138 0.20500000000000002 Q 0.088 0.20500000000000002 0.064 0.171 Q 0.053 0.156 0.053 0.136 Q 0.053 0.096 0.08700000000000001 0.081 Q 0.097 0.076 0.108 0.076 Q 0.137 0.076 0.14400000000000002 0.101 Q 0.145 0.106 0.145 0.111 Q 0.145 0.145 0.115 0.159 Q 0.10400000000000001 0.164 0.09 0.165 Q 0.109 0.183 0.138 0.183 Q 0.182 0.183 0.20700000000000002 0.085 Q 0.212 0.062 0.219 0.025 L 0.225 -0.005 L 0.3 -0.4 L 0.234 -0.4 Q 0.209 -0.4 0.20700000000000002 -0.40800000000000003 L 0.20600000000000002 -0.40800000000000003 L 0.20600000000000002 -0.41200000000000003 Q 0.20600000000000002 -0.429 0.223 -0.431 L 0.223 -0.431 L 0.23600000000000002 -0.431 L 0.305 -0.431 Q 0.329 -0.556 0.338 -0.588 Q 0.368 -0.6880000000000001 0.444 -0.7030000000000001 Q 0.455 -0.705 0.465 -0.705 Q 0.517 -0.705 0.541 -0.671 L 0.541 -0.671 Q 0.552 -0.656 0.552 -0.636 Q 0.552 -0.596 0.518 -0.581 Q 0.508 -0.5760000000000001 0.497 -0.5760000000000001 Q 0.468 -0.5760000000000001 0.461 -0.601 Q 0.46 -0.606 0.46 -0.611 Q 0.46 -0.642 0.488 -0.657 Q 0.499 -0.664 0.514 -0.665 Q 0.495 -0.683 0.465 -0.683 Q 0.434 -0.683 0.418 -0.649 Q 0.41100000000000003 -0.635 0.394 -0.545 L 0.373 -0.431 L 0.456 -0.431 Q 0.481 -0.431 0.483 -0.42 Q 0.483 -0.402 0.467 -0.4 L 0.466 -0.4 L 0.453 -0.4 L 0.367 -0.4 Z"/></g></g></g><path fill="none" stroke="rgb(0,0,0)" paint-order="fill stroke markers" d=" M 0.5 352.5 L 642.5 352.5" stroke-opacity="1" stroke-miterlimit="10"/><path fill="none" stroke="rgb(0,0,0)" paint-order="fill stroke markers" d=" M 643.5 352.5 L 637.5 346.5" stroke-opacity="1" stroke-miterlimit="10"/><path fill="none" stroke="rgb(0,0,0)" paint-order="fill stroke markers" d=" M 643.5 352.5 L 637.5 358.5" stroke-opacity="1" stroke-miterlimit="10"/><path fill="none" stroke="rgb(0,0,0)" paint-order="fill stroke markers" d=" M 8.5 352.5 L 8.5 355.5" stroke-opacity="1" stroke-miterlimit="10"/><path fill="none" stroke="rgb(0,0,0)" paint-order="fill stroke markers" d=" M 64.5 352.5 L 64.5 355.5" stroke-opacity="1" stroke-miterlimit="10"/><path fill="none" stroke="rgb(0,0,0)" paint-order="fill stroke markers" d=" M 120.5 352.5 L 120.5 355.5" stroke-opacity="1" stroke-miterlimit="10"/><path fill="none" stroke="rgb(0,0,0)" paint-order="fill stroke markers" d=" M 176.5 352.5 L 176.5 355.5" stroke-opacity="1" stroke-miterlimit="10"/><path fill="none" stroke="rgb(0,0,0)" paint-order="fill stroke markers" d=" M 233.5 352.5 L 233.5 355.5" stroke-opacity="1" stroke-miterlimit="10"/><path fill="none" stroke="rgb(0,0,0)" paint-order="fill stroke markers" d=" M 289.5 352.5 L 289.5 355.5" stroke-opacity="1" stroke-miterlimit="10"/><path fill="none" stroke="rgb(0,0,0)" paint-order="fill stroke markers" d=" M 345.5 352.5 L 345.5 355.5" stroke-opacity="1" stroke-miterlimit="10"/><path fill="none" stroke="rgb(0,0,0)" paint-order="fill stroke markers" d=" M 401.5 352.5 L 401.5 355.5" stroke-opacity="1" stroke-miterlimit="10"/><path fill="none" stroke="rgb(0,0,0)" paint-order="fill stroke markers" d=" M 458.5 352.5 L 458.5 355.5" stroke-opacity="1" stroke-miterlimit="10"/><path fill="none" stroke="rgb(0,0,0)" paint-order="fill stroke markers" d=" M 514.5 352.5 L 514.5 355.5" stroke-opacity="1" stroke-miterlimit="10"/><path fill="none" stroke="rgb(0,0,0)" paint-order="fill stroke markers" d=" M 570.5 352.5 L 570.5 355.5" stroke-opacity="1" stroke-miterlimit="10"/><path fill="none" stroke="rgb(0,0,0)" paint-order="fill stroke markers" d=" M 626.5 352.5 L 626.5 355.5" stroke-opacity="1" stroke-miterlimit="10"/><text fill="rgb(0,0,0)" stroke="none" font-family="geogebra-sans-serif, sans-serif" font-size="24px" font-style="normal" font-weight="normal" text-decoration="normal" x="13" y="23" text-anchor="start" dominant-baseline="alphabetic" fill-opacity="1">accuracy</text><path fill="none" stroke="rgb(0,0,0)" paint-order="fill stroke markers" d=" M 5.5 295.5 L 8.5 295.5" stroke-opacity="1" stroke-miterlimit="10"/><path fill="none" stroke="rgb(0,0,0)" paint-order="fill stroke markers" d=" M 5.5 239.5 L 8.5 239.5" stroke-opacity="1" stroke-miterlimit="10"/><path fill="none" stroke="rgb(0,0,0)" paint-order="fill stroke markers" d=" M 5.5 183.5 L 8.5 183.5" stroke-opacity="1" stroke-miterlimit="10"/><path fill="none" stroke="rgb(0,0,0)" paint-order="fill stroke markers" d=" M 5.5 127.5 L 8.5 127.5" stroke-opacity="1" stroke-miterlimit="10"/><path fill="none" stroke="rgb(0,0,0)" paint-order="fill stroke markers" d=" M 5.5 70.5 L 8.5 70.5" stroke-opacity="1" stroke-miterlimit="10"/><path fill="none" stroke="rgb(0,0,0)" paint-order="fill stroke markers" d=" M 5.5 14.5 L 8.5 14.5" stroke-opacity="1" stroke-miterlimit="10"/><path fill="none" stroke="rgb(0,153,255)" paint-order="fill stroke markers" d=" M 0 351.9999999965598 L 5.03125 351.9999999823501 L 10.0625 351.99999991433515 L 15.09375 351.9999996066346 L 20.125 351.9999982910599 L 25.15625 351.9999929758189 L 30.1875 351.99997268489034 L 35.21875 351.9998995040367 L 40.25 351.99965018959875 L 45.28125 351.9988479926377 L 50.3125 351.9964106465519 L 55.34375 351.98941926998316 L 60.375 351.97049106910487 L 65.40625000000001 351.922137247284 L 70.4375 351.8056231825162 L 75.46875 351.5409102288105 L 80.50000000000001 350.97413738937394 L 85.53125000000001 349.8312014108698 L 88.04687500000001 348.91140370817527 L 90.5625 347.6620186730146 L 93.07812500000001 345.99104682599796 L 95.59375000000001 343.79091844933754 L 98.109375 340.939495690156 L 100.62500000000001 337.30262086286206 L 103.140625 332.73852796218637 L 105.65625000000001 327.10433906315234 L 108.17187500000001 320.264711160141 L 110.6875 312.1024838497561 L 113.20312500000001 302.5309156451579 L 114.46093750000001 297.2010664657118 L 115.71875000000001 291.5068090762541 L 116.9765625 285.4516897524477 L 118.23437500000003 279.04354486690676 L 119.49218750000001 272.2948162052709 L 120.75000000000001 265.22281387731135 L 122.00781250000001 257.8499160865114 L 123.265625 250.2036956047927 L 124.52343750000003 242.316963728736 L 125.78125000000001 234.2277237709643 L 127.03906250000001 225.97902775414954 L 128.296875 217.61873190119755 L 129.5546875 209.1991487162232 L 130.81250000000003 200.7765958769428 L 132.07031250000003 192.41084474833923 L 133.328125 184.16447400805123 L 134.5859375 176.10213656605896 L 135.84375 168.2897505796162 L 137.1015625 160.793627821388 L 138.359375 153.67955486759737 L 139.6171875 147.01184445118622 L 140.875 140.85237579775574 L 142.1328125 135.25964376554785 L 143.390625 130.28783709497634 L 145.90625 122.39705873384938 L 148.421875 117.4961460440671 L 149.05078125 116.76430980030418 L 149.6796875 116.23437663485777 L 150.30859375 115.90771953572224 L 150.9375 115.78518585597595 L 151.56640625 115.86709365142843 L 152.1953125 116.15323030507605 L 152.82421875 116.64285344669162 L 153.453125 117.33469416198258 L 154.7109375 119.31735504898651 L 155.96875 122.08079452459137 L 158.484375 129.82958667572214 L 159.7421875 134.73691707248798 L 161 140.27028893360998 L 162.2578125 146.37599009412864 L 163.515625 152.9959130361392 L 164.7734375 160.0684726348952 L 166.03125 167.52955503791515 L 167.2890625 175.3134773532597 L 168.546875 183.35393825367126 L 169.8046875 191.58494055714772 L 171.0625 199.94166827329767 L 172.3203125 208.3613024459243 L 173.578125 216.78376230186734 L 174.8359375 225.15236065230943 L 176.09375 233.41436509903946 L 177.3515625 241.52145928683024 L 178.609375 249.43010112851272 L 179.8671875 257.10177753100606 L 181.125 264.50315759573687 L 182.3828125 271.6061484927364 L 183.640625 278.3878601630069 L 184.8984375 284.8304866498761 L 186.15625 290.9211131715262 L 187.4140625 296.65145901125123 L 188.671875 302.017566919271 L 191.1875 311.6607070388459 L 193.703125 319.89122184297025 L 196.21875 326.7940026588719 L 198.734375 332.4849979358183 L 201.25 337.09891383880864 L 206.28125 343.6656755873348 L 207.5390625 344.85464351628025 L 208.796875 345.895170314285 L 211.31250000000003 347.5897692567685 L 213.828125 348.857801035121 L 216.34375 349.7920427572554 L 221.375 350.9541763918372 L 226.40625 351.5313326932051 L 231.4375 351.8012947633269 L 236.46875000000003 351.9202937454602 L 241.5 351.96975079769174 L 246.53124999999997 351.98913889813656 L 251.56250000000003 351.9963104594928 L 256.59375 351.99881420636655 L 261.62500000000006 351.9996394343245 L 266.65625 351.99989627150353 L 271.6875 351.9999717674428 L 276.71875 351.9999927298935 L 281.75 351.9999982287914 L 286.78125 351.99999959174 L 291.8125 351.999999910969 L 296.84375 351.99999998163133 L 301.875 351.9999999964147 L 306.90625 351.9999999993382 L 311.9375 351.9999999998847 L 316.96875 351.9999999999813 L 322 351.9999999999974 L 327.03125 351.99999999999994 L 332.0625 352.00000000000034 L 337.09375 352.0000000000004 L 342.12500000000006 352.0000000000004 L 347.15625 352.0000000000004 L 352.1875 352.0000000000004 L 357.21875 352.0000000000004 L 362.25 352.0000000000004 L 367.28125 352.0000000000004 L 372.3125 352.0000000000004 L 377.34375 352.0000000000004 L 382.375 352.0000000000004 L 387.40625 352.0000000000004 L 392.4375 352.0000000000004 L 397.46875 352.0000000000004 L 402.5 352.0000000000004 L 407.53125 352.0000000000004 L 412.5625 352.0000000000004 L 417.59375 352.0000000000004 L 422.62500000000006 352.0000000000004 L 427.65625 352.0000000000004 L 432.6875 352.0000000000004 L 437.71875 352.0000000000004 L 442.75 352.0000000000004 L 447.78125 352.0000000000004 L 452.8125 352.0000000000004 L 457.84375 352.0000000000004 L 462.875 352.0000000000004 L 467.90624999999994 352.0000000000004 L 472.93750000000006 352.0000000000004 L 477.96875000000006 352.0000000000004 L 483 352.0000000000004 L 488.03125 352.0000000000004 L 493.0625 352.0000000000004 L 498.09375000000006 352.0000000000004 L 503.12500000000006 352.0000000000004 L 508.15625 352.0000000000004 L 513.1875 352.0000000000004 L 518.21875 352.0000000000004 L 523.2500000000001 352.0000000000004 L 528.28125 352.0000000000004 L 533.3125 352.0000000000004 L 538.34375 352.0000000000004 L 543.375 352.0000000000004 L 548.40625 352.0000000000004 L 553.4375 352.0000000000004 L 558.46875 352.0000000000004 L 563.5 352.0000000000004 L 568.53125 352.0000000000004 L 573.5625 352.0000000000004 L 578.59375 352.0000000000004 L 583.625 352.0000000000004 L 588.65625 352.0000000000004 L 593.6875 352.0000000000004 L 598.71875 352.0000000000004 L 603.75 352.0000000000004 L 608.78125 352.0000000000004 L 613.8125 352.0000000000004 L 618.84375 352.0000000000004 L 623.875 352.0000000000004 L 628.90625 352.0000000000004 L 633.9375 352.0000000000004 L 638.96875 352.0000000000004 L 644 352.0000000000004" stroke-opacity="0.6980392156862745" stroke-linecap="round" stroke-linejoin="round" stroke-miterlimit="10" stroke-width="1.5"/><path fill="none" stroke="rgb(255,102,153)" paint-order="fill stroke markers" d=" M 0 352.0000000000004 L 5.03125 352.0000000000004 L 10.0625 352.0000000000004 L 15.09375 352.0000000000004 L 20.125 352.0000000000004 L 25.15625 352.0000000000004 L 30.1875 352.0000000000004 L 35.21875 352.00000000000034 L 40.25 352.0000000000002 L 45.28125 352.00000000000006 L 50.3125 351.99999999999955 L 55.34375 351.9999999999984 L 60.375 351.99999999999585 L 65.40625000000001 351.99999999998994 L 70.4375 351.9999999999767 L 75.46875 351.9999999999472 L 80.50000000000001 351.9999999998825 L 85.53125000000001 351.9999999997421 L 90.5625 351.9999999994408 L 95.59375000000001 351.99999999880157 L 100.62500000000001 351.9999999974613 L 105.65625000000001 351.9999999946832 L 110.6875 351.9999999889911 L 115.71875000000001 351.9999999774624 L 120.75000000000001 351.99999995438134 L 125.78125000000001 351.9999999087041 L 130.81250000000003 351.9999998193513 L 135.84375 351.9999996465778 L 140.875 351.9999993163586 L 145.90625 351.9999986925091 L 150.9375 351.9999975275658 L 155.96875 351.99999537739683 L 161 351.9999914547592 L 166.03125 351.9999843815537 L 171.0625 351.99997177543975 L 176.09375 351.9999495696046 L 181.125 351.99991090908946 L 186.15625 351.99984438542987 L 191.1875 351.99973125341563 L 196.21875 351.9995411069448 L 201.25 351.9992252602246 L 206.28125 351.9987067691451 L 211.31250000000003 351.99786561825164 L 216.34375 351.9965170761801 L 221.375 351.9943805774648 L 226.40625 351.991035723611 L 231.4375 351.98586113251054 L 236.46875000000003 351.977950951819 L 241.5 351.96600297575253 L 246.53124999999997 351.9481716002454 L 251.56250000000003 351.92187850765043 L 256.59375 351.8835742354764 L 261.62500000000006 351.82844495177676 L 266.65625 351.7500611643361 L 271.6875 351.6399690646544 L 276.71875 351.487231035533 L 281.75 351.2779297026117 L 286.78125 350.99465976051476 L 291.8125 350.6160433477676 L 296.84375 350.1163173159189 L 301.875 349.46505325594944 L 306.90625 348.62708209823074 L 311.9375 347.56270259983194 L 316.96875 346.2282549311998 L 322 344.57713469185643 L 327.03125 342.5613071001501 L 332.0625 340.13335451188874 L 337.09375 337.2490525224753 L 342.12500000000006 333.87042173822664 L 347.15625 329.96914649732344 L 352.1875 325.530192677523 L 357.21875 320.55540005516883 L 362.25 315.06677737757025 L 367.28125 309.10919768607306 L 372.3125 302.7521842988041 L 377.34375 296.0904995440053 L 382.375 289.2433016371808 L 387.40625 282.35171950280875 L 392.4375 275.57480652950653 L 397.46875 269.0839640665952 L 402.5 263.05606247197784 L 407.53125 257.6656180240344 L 412.5625 253.0764936052549 L 417.59375 249.43366639030188 L 422.62500000000006 246.8556363078609 L 425.140625 245.99410462404282 L 427.65625 245.42802867468077 L 430.171875 245.1621993893836 L 432.6875 245.19887246248916 L 435.203125 245.53773648199217 L 437.71875 246.17591733268108 L 442.75 248.32619847769467 L 447.78125 251.5778833498313 L 452.8125 255.82425598120696 L 457.84375 260.92953066343944 L 462.875 266.7360533634217 L 467.90624999999994 273.072358817744 L 472.93750000000006 279.76151110184446 L 477.96875000000006 286.629167160201 L 483 293.51086216907925 L 488.03125 300.258113670626 L 493.0625 306.74306567742923 L 498.09375000000006 312.8615301721919 L 503.12500000000006 318.534417464134 L 508.15625 323.7076662654764 L 513.1875 328.3508796264339 L 518.21875 332.4549382150781 L 523.2500000000001 336.0288959247554 L 528.28125 339.0964660684498 L 533.3125 341.69238395337425 L 538.34375 343.8588897906501 L 543.375 345.64252192109507 L 548.40625 347.0913513764135 L 553.4375 348.25273113158704 L 558.46875 349.1715819417051 L 563.5 349.8891946609626 L 568.53125 350.4424980360923 L 573.5625 350.863721319683 L 578.59375 351.1803716914349 L 583.625 351.4154456756078 L 588.65625 351.587799378869 L 593.6875 351.7126122565257 L 598.71875 351.8018912402026 L 603.75 351.8649747617207 L 608.78125 351.9090082407548 L 613.8125 351.9393731495147 L 618.84375 351.9600603927695 L 623.875 351.9739853247953 L 628.90625 351.98324637220446 L 633.9375 351.9893321929046 L 638.96875 351.9932838980337 L 644 351.9958194324541" stroke-opacity="0.6980392156862745" stroke-linecap="round" stroke-linejoin="round" stroke-miterlimit="10" stroke-width="1.5"/><path fill="none" stroke="rgb(0,0,255)" paint-order="fill stroke markers" d=" M 49 362 L 276 362" stroke-opacity="0.6980392156862745" stroke-linejoin="round" stroke-miterlimit="10" stroke-width="1.5" stroke-dasharray="9.5,8"/><path fill="none" stroke="rgb(0,0,255)" paint-order="fill stroke markers" d=" M 276 362 L 276 43" stroke-opacity="0.6980392156862745" stroke-linejoin="round" stroke-miterlimit="10" stroke-width="1.5" stroke-dasharray="9.5,8"/><path fill="none" stroke="rgb(0,0,255)" paint-order="fill stroke markers" d=" M 276 43 L 49 43" stroke-opacity="0.6980392156862745" stroke-linejoin="round" stroke-miterlimit="10" stroke-width="1.5" stroke-dasharray="9.5,8"/><path fill="none" stroke="rgb(0,0,255)" paint-order="fill stroke markers" d=" M 49 43 L 49 362" stroke-opacity="0.6980392156862745" stroke-linejoin="round" stroke-miterlimit="10" stroke-width="1.5" stroke-dasharray="9.5,8"/><g transform="scale(27,27)"><g transform="translate(3.185185185185185,5.461109777777778)"><path fill="rgb(0,0,0)" stroke="none" paint-order="stroke fill markers" d=" M 0.385 -0.557 L 0.385 -0.557 L 0.353 -0.428 Q 0.325 -0.315 0.254 -0.14200000000000002 Q 0.181 0.03 0.127 0.048 Q 0.12 0.05 0.114 0.05 Q 0.088 0.05 0.059000000000000004 0.035 Q 0.028 0.019 0.027 -0.002 Q 0.027 -0.034 0.048 -0.064 Q 0.057 -0.075 0.063 -0.075 Q 0.066 -0.075 0.07200000000000001 -0.07 Q 0.10300000000000001 -0.045 0.14400000000000002 -0.042 Q 0.186 -0.042 0.254 -0.225 L 0.276 -0.28600000000000003 Q 0.338 -0.459 0.365 -0.651 Q 0.369 -0.673 0.381 -0.683 L 0.382 -0.684 Q 0.383 -0.685 0.385 -0.686 Q 0.41200000000000003 -0.705 0.429 -0.705 Q 0.44 -0.705 0.442 -0.6950000000000001 L 0.442 -0.6940000000000001 L 0.442 -0.6940000000000001 Q 0.442 -0.6910000000000001 0.443 -0.685 Q 0.515 -0.273 0.591 -0.13 Q 0.686 -0.222 0.791 -0.34400000000000003 L 1.074 -0.68 Q 1.095 -0.704 1.099 -0.704 Q 1.107 -0.704 1.107 -0.6890000000000001 Q 1.107 -0.686 1.105 -0.672 Q 1.067 -0.512 1.041 -0.266 Q 1.032 -0.179 1.032 -0.134 Q 1.032 -0.054 1.043 -0.038 Q 1.05 -0.027 1.063 -0.026000000000000002 Q 1.088 -0.042 1.107 -0.042 Q 1.116 -0.042 1.116 -0.035 Q 1.116 -0.018000000000000002 1.069 0.007 Q 1.049 0.017 1.03 0.023 Q 1.012 0.029 0.998 0.029 Q 0.96 0.029 0.9520000000000001 -0.006 Q 0.9470000000000001 -0.025 0.9470000000000001 -0.092 Q 0.9470000000000001 -0.217 0.99 -0.47500000000000003 L 0.997 -0.517 L 0.778 -0.26 Q 0.67 -0.135 0.5750000000000001 -0.043000000000000003 Q 0.5650000000000001 -0.034 0.558 -0.034 Q 0.55 -0.034 0.546 -0.039 Q 0.501 -0.115 0.47600000000000003 -0.193 Q 0.442 -0.294 0.41000000000000003 -0.442 L 0.386 -0.557 L 0.385 -0.557 Z"/></g><g transform="translate(4.386085185185185,5.611109777777778) scale(0.7,0.7)"><path fill="rgb(0,0,0)" stroke="none" paint-order="stroke fill markers" d=" M 0.373 -0.378 Q 0.378 -0.41200000000000003 0.404 -0.42 Q 0.40900000000000003 -0.422 0.41500000000000004 -0.422 Q 0.441 -0.422 0.444 -0.395 Q 0.444 -0.389 0.437 -0.361 L 0.401 -0.221 Q 0.386 -0.158 0.379 -0.131 Q 0.366 -0.079 0.366 -0.057 Q 0.366 -0.011 0.396 -0.011 Q 0.434 -0.011 0.46 -0.091 Q 0.465 -0.108 0.47200000000000003 -0.135 Q 0.48 -0.152 0.486 -0.153 Q 0.498 -0.153 0.498 -0.14300000000000002 Q 0.498 -0.128 0.48 -0.073 Q 0.47400000000000003 -0.056 0.468 -0.044 Q 0.44 0.011 0.394 0.011 Q 0.338 0.011 0.313 -0.037 Q 0.306 -0.049 0.303 -0.064 Q 0.24 0.011 0.17300000000000001 0.011 Q 0.098 0.011 0.062 -0.057 Q 0.04 -0.097 0.04 -0.149 Q 0.04 -0.257 0.115 -0.34900000000000003 Q 0.185 -0.433 0.267 -0.441 Q 0.274 -0.442 0.281 -0.442 Q 0.342 -0.442 0.373 -0.378 M 0.308 -0.11900000000000001 L 0.308 -0.11900000000000001 L 0.358 -0.315 Q 0.361 -0.33 0.361 -0.332 Q 0.361 -0.353 0.343 -0.383 Q 0.321 -0.42 0.28200000000000003 -0.42 Q 0.23 -0.42 0.183 -0.352 Q 0.17400000000000002 -0.339 0.166 -0.324 Q 0.137 -0.266 0.117 -0.159 Q 0.111 -0.125 0.111 -0.105 Q 0.111 -0.037 0.149 -0.017 Q 0.16 -0.011 0.17500000000000002 -0.011 Q 0.231 -0.011 0.28800000000000003 -0.082 Q 0.302 -0.098 0.307 -0.115 L 0.307 -0.116 Q 0.308 -0.11800000000000001 0.308 -0.11900000000000001 Z"/></g></g><g transform="scale(27,27)"><g transform="translate(13.444444444444445,9.238887555555555)"><path fill="rgb(0,0,0)" stroke="none" paint-order="stroke fill markers" d=" M 0.385 -0.557 L 0.385 -0.557 L 0.353 -0.428 Q 0.325 -0.315 0.254 -0.14200000000000002 Q 0.181 0.03 0.127 0.048 Q 0.12 0.05 0.114 0.05 Q 0.088 0.05 0.059000000000000004 0.035 Q 0.028 0.019 0.027 -0.002 Q 0.027 -0.034 0.048 -0.064 Q 0.057 -0.075 0.063 -0.075 Q 0.066 -0.075 0.07200000000000001 -0.07 Q 0.10300000000000001 -0.045 0.14400000000000002 -0.042 Q 0.186 -0.042 0.254 -0.225 L 0.276 -0.28600000000000003 Q 0.338 -0.459 0.365 -0.651 Q 0.369 -0.673 0.381 -0.683 L 0.382 -0.684 Q 0.383 -0.685 0.385 -0.686 Q 0.41200000000000003 -0.705 0.429 -0.705 Q 0.44 -0.705 0.442 -0.6950000000000001 L 0.442 -0.6940000000000001 L 0.442 -0.6940000000000001 Q 0.442 -0.6910000000000001 0.443 -0.685 Q 0.515 -0.273 0.591 -0.13 Q 0.686 -0.222 0.791 -0.34400000000000003 L 1.074 -0.68 Q 1.095 -0.704 1.099 -0.704 Q 1.107 -0.704 1.107 -0.6890000000000001 Q 1.107 -0.686 1.105 -0.672 Q 1.067 -0.512 1.041 -0.266 Q 1.032 -0.179 1.032 -0.134 Q 1.032 -0.054 1.043 -0.038 Q 1.05 -0.027 1.063 -0.026000000000000002 Q 1.088 -0.042 1.107 -0.042 Q 1.116 -0.042 1.116 -0.035 Q 1.116 -0.018000000000000002 1.069 0.007 Q 1.049 0.017 1.03 0.023 Q 1.012 0.029 0.998 0.029 Q 0.96 0.029 0.9520000000000001 -0.006 Q 0.9470000000000001 -0.025 0.9470000000000001 -0.092 Q 0.9470000000000001 -0.217 0.99 -0.47500000000000003 L 0.997 -0.517 L 0.778 -0.26 Q 0.67 -0.135 0.5750000000000001 -0.043000000000000003 Q 0.5650000000000001 -0.034 0.558 -0.034 Q 0.55 -0.034 0.546 -0.039 Q 0.501 -0.115 0.47600000000000003 -0.193 Q 0.442 -0.294 0.41000000000000003 -0.442 L 0.386 -0.557 L 0.385 -0.557 Z"/></g><g transform="translate(14.645344444444445,9.388887555555556) scale(0.7,0.7)"><path fill="rgb(0,0,0)" stroke="none" paint-order="stroke fill markers" d=" M 0.23900000000000002 -0.683 L 0.165 -0.382 Q 0.223 -0.442 0.28200000000000003 -0.442 Q 0.357 -0.442 0.394 -0.373 Q 0.41500000000000004 -0.333 0.41500000000000004 -0.28200000000000003 Q 0.41500000000000004 -0.176 0.341 -0.084 Q 0.272 0.001 0.189 0.01 Q 0.181 0.011 0.17400000000000002 0.011 Q 0.10200000000000001 0.011 0.067 -0.056 Q 0.047 -0.094 0.047 -0.146 Q 0.047 -0.18 0.063 -0.247 L 0.145 -0.5730000000000001 Q 0.159 -0.632 0.159 -0.635 Q 0.159 -0.646 0.145 -0.649 L 0.145 -0.649 Q 0.133 -0.652 0.109 -0.652 Q 0.08700000000000001 -0.652 0.085 -0.664 Q 0.085 -0.681 0.10400000000000001 -0.684 L 0.226 -0.6940000000000001 Q 0.23900000000000002 -0.6940000000000001 0.23900000000000002 -0.683 M 0.145 -0.305 L 0.123 -0.213 Q 0.107 -0.15 0.107 -0.112 Q 0.107 -0.026000000000000002 0.159 -0.013000000000000001 Q 0.166 -0.011 0.17400000000000002 -0.011 Q 0.227 -0.011 0.273 -0.081 Q 0.28300000000000003 -0.096 0.292 -0.114 Q 0.319 -0.171 0.337 -0.268 Q 0.343 -0.303 0.343 -0.326 Q 0.343 -0.406 0.294 -0.418 L 0.293 -0.419 Q 0.28700000000000003 -0.42 0.28 -0.42 Q 0.22 -0.42 0.16 -0.34 Q 0.152 -0.33 0.145 -0.305 Z"/></g></g></g></g></svg>