<svg version="1.1" xmlns="http://www.w3.org/2000/svg" xmlns:xlink="http://www.w3.org/1999/xlink" width="663" height="309"><defs><clipPath id="ZFcvLMqQFifa"><path fill="none" stroke="none" d=" M 0 0 L 663 0 L 663 309 L 0 309 L 0 0 Z"/></clipPath></defs><g transform="scale(1,1)" clip-path="url(#ZFcvLMqQFifa)"><g><path fill="rgb(0,100,0)" stroke="none" paint-order="stroke fill markers" fill-rule="evenodd" d=" M 350.99999999999943 152.99999999999991 L 365.1421356237294 152.99999999999991 L 365.1421356237304 138.85786437626896 L 350.99999999999943 138.8578643762699 L 350.99999999999943 152.99999999999991" fill-opacity="0.09803921568627451"/><path fill="none" stroke="rgb(0,100,0)" paint-order="fill stroke markers" d=" M 350.99999999999943 152.99999999999991 L 365.1421356237294 152.99999999999991 L 365.1421356237304 138.85786437626896 L 350.99999999999943 138.8578643762699 L 350.99999999999943 152.99999999999991" stroke-opacity="0.6980392156862745" stroke-linecap="round" stroke-linejoin="round" stroke-miterlimit="10" stroke-width="2.5"/><path fill="rgb(0,100,0)" stroke="none" paint-order="stroke fill markers" fill-rule="evenodd" d=" M 550.9999999999992 77.99999999999994 L 550.9999999999992 63.85786437626993 L 536.8578643762683 63.857864376268985 L 536.8578643762692 77.99999999999994 L 550.9999999999992 77.99999999999994" fill-opacity="0.09803921568627451"/><path fill="none" stroke="rgb(0,100,0)" paint-order="fill stroke markers" d=" M 550.9999999999992 77.99999999999994 L 550.9999999999992 63.85786437626993 L 536.8578643762683 63.857864376268985 L 536.8578643762692 77.99999999999994 L 550.9999999999992 77.99999999999994" stroke-opacity="0.6980392156862745" stroke-linecap="round" stroke-linejoin="round" stroke-miterlimit="10" stroke-width="2.5"/><path fill="none" stroke="rgb(0,0,0)" paint-order="fill stroke markers" d=" M 24 164 L 18.697435352286334 166.71109122469755 L 16.522467240246442 168.20541731851574 L 14.65635264818792 169.78776269248516 L 13.092574610188308 171.45475156598462 L 11.82461616032515 173.2030081583929 L 10.845960332675986 175.02915668908867 L 10.150090161318303 176.92982137745076 L 9.730488680329756 178.90162644285795 L 9.580638923787774 180.9411961046889 L 9.694023925770011 183.04515458232248 L 10.064126720353897 185.2101260951374 L 11.548417823636896 189.7096051038263 L 13.981376506257277 194.41262688578567 L 17.310867040835262 199.29218519604558 L 21.484753699991188 204.32127378963614 L 26.450900756345334 209.47288642158736 L 32.15717248251815 214.7200168469294 L 38.55143315112997 220.03565882069225 L 45.58154703480096 225.39280609790606 L 53.19537840615163 230.7644524336008 L 61.340791537802204 236.12359158280665 L 69.96565070237313 241.44321730055364 L 79.01782017248456 246.69632334187185 L 88.44516422075708 251.8559034617913 L 98.19554711981073 256.8949514153422 L 103.17558572357444 259.3608363781762 L 108.21683314226607 261.7864609575544 L 113.3127724099632 264.1684493728555 L 118.45688656074333 266.5034258434582 L 123.64265862868405 268.7880145887413 L 128.86357164786284 271.0188398280835 L 134.11310865235737 273.1925257808637 L 139.384752676245 275.30569666646056 L 144.67198675360333 277.35497670425286 L 149.96829391851003 279.3369901136193 L 155.26715720504262 281.2483611139387 L 160.56205964727843 283.0857139245898 L 165.8464842792951 284.8456727649514 L 171.11391413517038 286.5248618544022 L 176.3578322489816 288.11990541232103 L 181.57172165480623 289.6274276580866 L 186.74906538672198 291.0440528110777 L 191.8833464788064 292.36640509067297 L 196.96804796513698 293.5911087162513 L 201.9966528797911 294.7147879071914 L 211.85950513038077 296.64556986267206 L 221.41976750319571 298.13174471214495 L 230.62538033611563 299.1463533191412 L 239.4455156739378 299.6755857022249 L 247.8995098138121 299.73669944950814 L 256.01394178650366 299.3514376964757 L 263.81539062277784 298.5415435786118 L 271.33043535340045 297.328760231401 L 278.5856550091363 295.73483079032803 L 285.60762862075114 293.7814983908772 L 292.4229352190101 291.4905061685331 L 299.05815383467865 288.8835972587807 L 305.5398634985224 285.98251479710365 L 311.8946432413065 282.8090019189872 L 318.14907209379635 279.3848017599156 L 324.329729086757 275.73165745537347 L 330.4631932509542 271.87131214084513 L 336.5760436171536 267.8255089518156 L 342.6948592161201 263.61599102376863 L 348.84621907861924 259.26450149218954 L 355.05670223541637 254.79278349256245 L 361.35288771727664 250.22258016037154 L 367.76135455496626 245.5756346311021 L 374.3086817792498 240.87369004023824 L 381.02144842089285 236.13848952326495 L 387.9262335106604 231.3917762156659 L 395.04904316484533 226.6552351199826 L 402.3653994466321 221.94542868245102 L 409.76156005977407 217.26986180184954 L 417.1146548309941 212.63511318222336 L 424.30181358700366 208.04776152761787 L 431.20016615452585 203.51438554207834 L 437.68684236027923 199.04156392964984 L 443.63897203097537 194.635875394378 L 448.9336849933372 190.30389864030775 L 453.44811107408617 186.05221237148456 L 457.0593800999296 181.88739529195368 L 459.64533775510347 177.81600903003323 L 460.52825214676204 175.81710239692137 L 461.1423511474504 173.84321927166562 L 461.49355963335154 171.89467430219628 L 461.58780248065113 169.97178213644355 L 461.4310045655364 168.07485742233783 L 461.029090764186 166.20421480780936 L 460.38798595279417 164.3601689407884 L 459.5136150075396 162.54303446920534 L 457.08877422019526 158.99075830407378 L 453.80196741162905 155.54990349585705 L 449.7005935913256 152.22298722799752 L 444.8320517687668 149.01252668393738 L 439.2437409534344 145.92103904711905 L 432.9830601548045 142.95104150098484 L 426.0974083823689 140.10505122897698 L 418.6341846455995 137.38558541453796 L 410.6407879539865 134.79516124110984 L 402.16461731700326 132.33629589213518 L 393.25307174414013 130.01150655105624 L 383.9535502448718 127.82331040131524 L 374.31345182868006 125.77422462635454 L 364.38017550505106 123.86676640961656 L 359.31840781841015 122.96693425540685 L 354.20112028346506 122.1034529345435 L 349.0342377763987 121.27663709495704 L 343.82368517339967 120.48680138457776 L 338.5753873506523 119.73426045133579 L 333.2952691843438 119.01932894316158 L 327.98925555065284 118.34232150798542 L 322.6632713257708 117.70355279373734 L 317.32324138587916 117.10333744834797 L 311.97509060716516 116.54199011974744 L 306.62474386581454 116.01982545586593 L 301.27812603801164 115.53715810463392 L 295.9411619999422 115.0943027139816 L 290.619776627792 114.69157393183944 L 285.3198947977412 114.32928640613747 L 280.04744138598244 114.00775478480605 L 274.8083412686989 113.72729371577557 L 269.6085193220704 113.48821784697623 L 264.45390042228996 113.29084182633831 L 259.35040944553344 113.13548030179228 L 254.303971267995 113.02244792126825 L 249.320041912327 112.95199219679826 L 239.54239354278295 112.93706004578854 L 230.01155762446086 113.0855680993839 L 220.71930707565255 113.39206835076286 L 211.65741481465201 113.85111279310603 L 202.81765375975326 114.45725341959334 L 194.19179682924593 115.20504222340402 L 185.77161694142265 116.08903119771905 L 177.54888701457946 117.1037723357173 L 169.5153799670054 118.24381763057939 L 161.66286871699447 119.50371907548383 L 153.98312618283984 120.87802866361268 L 146.46792528283208 122.36129838814374 L 139.10903893526574 123.94808024225763 L 131.8982400584341 125.63292621913429 L 124.82730157062696 127.41038831195362 L 117.88799639013757 129.2750185138945 L 111.07209743526124 131.2213688181376 L 104.37137762428699 133.24399121786422 L 97.77760987551034 135.33743770625145 L 91.28256710722155 137.496260276481 L 84.8780222377161 139.71501092173207 L 78.55574818528294 141.9882416351846 L 72.30751786821685 144.31050441001923 L 66.12510420481033 146.67635123941375 L 60.00028011335587 149.0803341165502 L 53.92481851214541 151.5170050346064 L 47.89049231947223 153.9809159867644 L 41.88907445362878 156.46661896620267 L 35.912337832906246 158.96866596610118 L 29.952055375600708 161.48160897963982 L 24.00000000000125 163.9999999999993 Z" stroke-opacity="0.6980392156862745" stroke-linecap="round" stroke-linejoin="round" stroke-miterlimit="10" stroke-width="1.5"/><path fill="rgb(0,0,0)" stroke="none" paint-order="stroke fill markers" fill-rule="evenodd" d=" M 24 164 L 18.697435352286334 166.71109122469755 L 16.522467240246442 168.20541731851574 L 14.65635264818792 169.78776269248516 L 13.092574610188308 171.45475156598462 L 11.82461616032515 173.2030081583929 L 10.845960332675986 175.02915668908867 L 10.150090161318303 176.92982137745076 L 9.730488680329756 178.90162644285795 L 9.580638923787774 180.9411961046889 L 9.694023925770011 183.04515458232248 L 10.064126720353897 185.2101260951374 L 11.548417823636896 189.7096051038263 L 13.981376506257277 194.41262688578567 L 17.310867040835262 199.29218519604558 L 21.484753699991188 204.32127378963614 L 26.450900756345334 209.47288642158736 L 32.15717248251815 214.7200168469294 L 38.55143315112997 220.03565882069225 L 45.58154703480096 225.39280609790606 L 53.19537840615163 230.7644524336008 L 61.340791537802204 236.12359158280665 L 69.96565070237313 241.44321730055364 L 79.01782017248456 246.69632334187185 L 88.44516422075708 251.8559034617913 L 98.19554711981073 256.8949514153422 L 103.17558572357444 259.3608363781762 L 108.21683314226607 261.7864609575544 L 113.3127724099632 264.1684493728555 L 118.45688656074333 266.5034258434582 L 123.64265862868405 268.7880145887413 L 128.86357164786284 271.0188398280835 L 134.11310865235737 273.1925257808637 L 139.384752676245 275.30569666646056 L 144.67198675360333 277.35497670425286 L 149.96829391851003 279.3369901136193 L 155.26715720504262 281.2483611139387 L 160.56205964727843 283.0857139245898 L 165.8464842792951 284.8456727649514 L 171.11391413517038 286.5248618544022 L 176.3578322489816 288.11990541232103 L 181.57172165480623 289.6274276580866 L 186.74906538672198 291.0440528110777 L 191.8833464788064 292.36640509067297 L 196.96804796513698 293.5911087162513 L 201.9966528797911 294.7147879071914 L 211.85950513038077 296.64556986267206 L 221.41976750319571 298.13174471214495 L 230.62538033611563 299.1463533191412 L 239.4455156739378 299.6755857022249 L 247.8995098138121 299.73669944950814 L 256.01394178650366 299.3514376964757 L 263.81539062277784 298.5415435786118 L 271.33043535340045 297.328760231401 L 278.5856550091363 295.73483079032803 L 285.60762862075114 293.7814983908772 L 292.4229352190101 291.4905061685331 L 299.05815383467865 288.8835972587807 L 305.5398634985224 285.98251479710365 L 311.8946432413065 282.8090019189872 L 318.14907209379635 279.3848017599156 L 324.329729086757 275.73165745537347 L 330.4631932509542 271.87131214084513 L 336.5760436171536 267.8255089518156 L 342.6948592161201 263.61599102376863 L 348.84621907861924 259.26450149218954 L 355.05670223541637 254.79278349256245 L 361.35288771727664 250.22258016037154 L 367.76135455496626 245.5756346311021 L 374.3086817792498 240.87369004023824 L 381.02144842089285 236.13848952326495 L 387.9262335106604 231.3917762156659 L 395.04904316484533 226.6552351199826 L 402.3653994466321 221.94542868245102 L 409.76156005977407 217.26986180184954 L 417.1146548309941 212.63511318222336 L 424.30181358700366 208.04776152761787 L 431.20016615452585 203.51438554207834 L 437.68684236027923 199.04156392964984 L 443.63897203097537 194.635875394378 L 448.9336849933372 190.30389864030775 L 453.44811107408617 186.05221237148456 L 457.0593800999296 181.88739529195368 L 459.64533775510347 177.81600903003323 L 460.52825214676204 175.81710239692137 L 461.1423511474504 173.84321927166562 L 461.49355963335154 171.89467430219628 L 461.58780248065113 169.97178213644355 L 461.4310045655364 168.07485742233783 L 461.029090764186 166.20421480780936 L 460.38798595279417 164.3601689407884 L 459.5136150075396 162.54303446920534 L 457.08877422019526 158.99075830407378 L 453.80196741162905 155.54990349585705 L 449.7005935913256 152.22298722799752 L 444.8320517687668 149.01252668393738 L 439.2437409534344 145.92103904711905 L 432.9830601548045 142.95104150098484 L 426.0974083823689 140.10505122897698 L 418.6341846455995 137.38558541453796 L 410.6407879539865 134.79516124110984 L 402.16461731700326 132.33629589213518 L 393.25307174414013 130.01150655105624 L 383.9535502448718 127.82331040131524 L 374.31345182868006 125.77422462635454 L 364.38017550505106 123.86676640961656 L 359.31840781841015 122.96693425540685 L 354.20112028346506 122.1034529345435 L 349.0342377763987 121.27663709495704 L 343.82368517339967 120.48680138457776 L 338.5753873506523 119.73426045133579 L 333.2952691843438 119.01932894316158 L 327.98925555065284 118.34232150798542 L 322.6632713257708 117.70355279373734 L 317.32324138587916 117.10333744834797 L 311.97509060716516 116.54199011974744 L 306.62474386581454 116.01982545586593 L 301.27812603801164 115.53715810463392 L 295.9411619999422 115.0943027139816 L 290.619776627792 114.69157393183944 L 285.3198947977412 114.32928640613747 L 280.04744138598244 114.00775478480605 L 274.8083412686989 113.72729371577557 L 269.6085193220704 113.48821784697623 L 264.45390042228996 113.29084182633831 L 259.35040944553344 113.13548030179228 L 254.303971267995 113.02244792126825 L 249.320041912327 112.95199219679826 L 239.54239354278295 112.93706004578854 L 230.01155762446086 113.0855680993839 L 220.71930707565255 113.39206835076286 L 211.65741481465201 113.85111279310603 L 202.81765375975326 114.45725341959334 L 194.19179682924593 115.20504222340402 L 185.77161694142265 116.08903119771905 L 177.54888701457946 117.1037723357173 L 169.5153799670054 118.24381763057939 L 161.66286871699447 119.50371907548383 L 153.98312618283984 120.87802866361268 L 146.46792528283208 122.36129838814374 L 139.10903893526574 123.94808024225763 L 131.8982400584341 125.63292621913429 L 124.82730157062696 127.41038831195362 L 117.88799639013757 129.2750185138945 L 111.07209743526124 131.2213688181376 L 104.37137762428699 133.24399121786422 L 97.77760987551034 135.33743770625145 L 91.28256710722155 137.496260276481 L 84.8780222377161 139.71501092173207 L 78.55574818528294 141.9882416351846 L 72.30751786821685 144.31050441001923 L 66.12510420481033 146.67635123941375 L 60.00028011335587 149.0803341165502 L 53.92481851214541 151.5170050346064 L 47.89049231947223 153.9809159867644 L 41.88907445362878 156.46661896620267 L 35.912337832906246 158.96866596610118 L 29.952055375600708 161.48160897963982 L 24.00000000000125 163.9999999999993 Z" fill-opacity="0.09803921568627451"/><g transform="scale(21,21)"><g transform="translate(1.619047619047619,9.254760571428571)"><path fill="rgb(0,0,0)" stroke="none" paint-order="stroke fill markers" d=" M 0.308 -0.34800000000000003 L 0.308 -0.34800000000000003 L 0.27 -0.223 Q 0.23900000000000002 -0.123 0.199 -0.022 Q 0.19 -0.003 0.153 0.015 Q 0.136 0.022 0.126 0.022 Q 0.115 0.022 0.115 0.015 Q 0.115 0.012 0.125 -0.015 Q 0.242 -0.317 0.27 -0.532 Q 0.274 -0.5650000000000001 0.274 -0.584 Q 0.274 -0.615 0.246 -0.625 Q 0.23700000000000002 -0.628 0.226 -0.628 Q 0.151 -0.628 0.123 -0.581 L 0.123 -0.58 Q 0.114 -0.5640000000000001 0.106 -0.54 Q 0.096 -0.51 0.049 -0.493 Q 0.037 -0.489 0.03 -0.489 Q 0.028 -0.489 0.02 -0.492 Q 0.036000000000000004 -0.58 0.134 -0.638 Q 0.211 -0.683 0.292 -0.683 Q 0.356 -0.678 0.359 -0.626 Q 0.359 -0.597 0.34600000000000003 -0.516 Q 0.332 -0.44 0.319 -0.393 Q 0.335 -0.403 0.364 -0.403 L 0.63 -0.403 Q 0.681 -0.544 0.729 -0.627 Q 0.742 -0.65 0.749 -0.656 Q 0.784 -0.683 0.807 -0.683 Q 0.8180000000000001 -0.683 0.8180000000000001 -0.675 Q 0.8180000000000001 -0.671 0.811 -0.661 Q 0.707 -0.461 0.662 -0.272 Q 0.64 -0.177 0.64 -0.10300000000000001 Q 0.64 -0.036000000000000004 0.657 -0.019 L 0.657 -0.019 Q 0.668 -0.008 0.686 -0.008 Q 0.6940000000000001 -0.008 0.711 -0.013000000000000001 Q 0.715 -0.035 0.742 -0.053 Q 0.772 -0.074 0.791 -0.074 Q 0.801 -0.074 0.801 -0.066 Q 0.801 -0.034 0.743 0.005 Q 0.68 0.047 0.62 0.047 Q 0.5660000000000001 0.047 0.558 -0.006 Q 0.555 -0.022 0.555 -0.06 Q 0.555 -0.182 0.614 -0.358 Q 0.598 -0.34800000000000003 0.5690000000000001 -0.34800000000000003 L 0.308 -0.34800000000000003 Z"/></g><g transform="translate(2.463565619047619,9.404760571428572) scale(0.7,0.7)"><path fill="rgb(0,0,0)" stroke="none" paint-order="stroke fill markers" d=" M 0.294 -0.64 L 0.294 -0.079 Q 0.294 -0.049 0.306 -0.041 Q 0.323 -0.031 0.387 -0.031 L 0.419 -0.031 L 0.419 0 Q 0.384 -0.003 0.257 -0.003 Q 0.13 -0.003 0.095 0 L 0.095 -0.031 L 0.127 -0.031 Q 0.20400000000000001 -0.031 0.215 -0.049 L 0.216 -0.05 Q 0.22 -0.058 0.22 -0.079 L 0.22 -0.597 Q 0.168 -0.5710000000000001 0.089 -0.5710000000000001 L 0.089 -0.602 Q 0.209 -0.602 0.271 -0.666 Q 0.29 -0.666 0.293 -0.659 L 0.293 -0.659 L 0.293 -0.658 Q 0.294 -0.655 0.294 -0.64 Z"/></g></g><path fill="none" stroke="rgb(0,0,0)" paint-order="fill stroke markers" d=" M 540.9999999999991 152.9999999999999 L 544.2215404576898 156.12156864879532 L 547.5928962854648 158.7682839385045 L 551.0903882490258 160.95952308120798 L 554.6903371140739 162.7146632889863 L 558.3690636463107 164.05308177391993 L 562.1028886114375 164.99415574808947 L 565.8681327751556 165.5572624235754 L 569.6411169031664 165.76177901245828 L 573.3981617611714 165.6270827268186 L 577.1155881148718 165.17255077873693 L 580.7697167299691 164.41756038029376 L 584.3368683721645 163.38148874356966 L 587.7933638071597 162.08371308064508 L 591.1155238006558 160.54361060360065 L 594.2796691183541 158.78055852451683 L 597.2621262395817 156.81393397071594 L 600.0491631506968 154.66296659307937 L 602.6574126338335 152.34643559850775 L 605.1092844804691 149.8830344953478 L 607.4271884820811 147.2914567919462 L 609.6335344301469 144.59039599664965 L 611.7507321161439 141.7985456178048 L 613.8011913315497 138.93459916375843 L 615.8073218678414 136.01725014285716 L 617.7915335164968 133.06519206344774 L 619.7762360689931 130.09711843387686 L 621.7838393168079 127.13172276249117 L 623.8367530514183 124.18769855763742 L 625.9573870643019 121.28373932766227 L 628.1681511469362 118.43853858091242 L 630.4914550907988 115.67078982573462 L 632.9488151165955 112.99864063907665 L 635.5223508257099 110.41616904213645 L 638.1401328465693 107.88443157380807 L 640.7263156036266 105.36209214916386 L 643.2050535213349 102.80781468327578 L 645.5005010241474 100.18026309121662 L 647.5368125365175 97.43810128805836 L 649.2381980906512 94.54003468537093 L 650.551794626284 91.4618775743113 L 651.4829021084247 88.22284757876218 L 652.0459057016095 84.84894202390367 L 652.2551905703752 81.36615823491763 L 652.1251418792579 77.80049353698445 L 651.6701447927938 74.17794525528512 L 650.9045844755199 70.52451071500056 L 649.8428460919719 66.86618724131213 L 648.4993148066865 63.22897215939986 L 646.8883757841999 59.63886279444563 L 645.0244141890482 56.12185647162951 L 642.9218151857688 52.70395051613298 L 640.5949639388966 49.411142253137 L 638.0582456129692 46.2694290078218 L 635.3260364988846 43.30474025061142 L 632.4115296845105 40.53395775866602 L 629.3255589213392 37.95592198294051 L 626.078678120685 35.56733349811918 L 622.6814411938628 33.364892878886764 L 619.1444020521874 31.345300699927435 L 615.4781146069726 29.505257535925836 L 611.6931327695333 27.841463961566376 L 607.8000104511844 26.350620551533723 L 603.8093015632403 25.029427880512173 L 599.7315600170155 23.874586523186224 L 595.5773397238246 22.8827970542404 L 591.3571945949824 22.05076004835925 L 587.0816785418028 21.375176080227504 L 582.7613454756009 20.85274572452903 L 578.4067493076914 20.48016955594875 L 574.028443949389 20.254148149171016 L 569.6369833120078 20.171382078880697 L 565.2429213068625 20.228571919761805 L 560.8568118452674 20.422418246498836 L 556.4892088385379 20.7496216337764 L 552.1506661979879 21.206882656278964 L 547.8517378349318 21.790901888691337 L 543.6029776606853 22.498379905697647 L 539.4149395865616 23.3260172819825 L 535.2981775238758 24.2705145922302 L 531.2632453839433 25.328572411125577 L 527.3206970780775 26.496891313352876 L 523.481086517593 27.77217187359676 L 519.7549676138054 29.151114666541332 L 516.1528942780285 30.630420266871397 L 512.685420421577 32.20678924927162 L 509.36309995576556 33.87692218842625 L 506.19648679190857 35.6375196590196 L 503.1961348413214 37.48528223573663 L 500.3725980153176 39.4169104932611 L 497.73643022521185 41.429105006278405 L 495.29818538231916 43.518566349472394 L 493.06841739795414 45.68199509752796 L 491.0576801834309 47.91609182512914 L 489.2765276500649 50.21755710696064 L 487.7355137091696 52.58309151770723 L 486.4451922720596 55.00939563205284 L 485.41544007101703 57.493224417889536 L 484.6459393456319 60.03215169769146 L 484.1284928214604 62.62438420195133 L 483.85469869179525 65.2681450898533 L 483.81615514993024 67.96165752058263 L 484.00446038915686 70.70314465332385 L 484.4112126027694 73.4908296472617 L 485.02800998406013 76.32293566158123 L 485.8464507263234 79.19768585546663 L 486.85813302284924 82.11330338810299 L 488.05465506693275 85.06801141867467 L 489.4276150518662 88.06003310636709 L 490.96861117094244 91.0875916103646 L 492.66924161745374 94.14891008985211 L 494.52110458469303 97.24221170401401 L 496.5157982659546 100.36571961203532 L 498.64492085452787 103.51765697310078 L 500.90007054371006 106.69624694639477 L 503.27284552679197 109.89971269110288 L 505.75484399706716 113.12627736640894 L 508.3376641478279 116.37416413149803 L 511.0129041723658 119.64159614555523 L 513.7721622639772 122.92679656776488 L 516.60703661595 126.22798855731189 L 519.5091254215822 129.54339527338098 L 522.4700268741626 132.8712398751565 L 525.4813391669854 136.2097455218241 L 528.5346604933463 139.5571353725677 L 531.6215890465342 142.91163258657213 L 534.7337230198445 146.27146032302255 L 537.8626606065677 149.63484174110334 L 540.9999999999987 152.99999999999963 Z" stroke-opacity="0.6980392156862745" stroke-linecap="round" stroke-linejoin="round" stroke-miterlimit="10" stroke-width="1.5"/><path fill="rgb(0,0,0)" stroke="none" paint-order="stroke fill markers" fill-rule="evenodd" d=" M 540.9999999999991 152.9999999999999 L 544.2215404576898 156.12156864879532 L 547.5928962854648 158.7682839385045 L 551.0903882490258 160.95952308120798 L 554.6903371140739 162.7146632889863 L 558.3690636463107 164.05308177391993 L 562.1028886114375 164.99415574808947 L 565.8681327751556 165.5572624235754 L 569.6411169031664 165.76177901245828 L 573.3981617611714 165.6270827268186 L 577.1155881148718 165.17255077873693 L 580.7697167299691 164.41756038029376 L 584.3368683721645 163.38148874356966 L 587.7933638071597 162.08371308064508 L 591.1155238006558 160.54361060360065 L 594.2796691183541 158.78055852451683 L 597.2621262395817 156.81393397071594 L 600.0491631506968 154.66296659307937 L 602.6574126338335 152.34643559850775 L 605.1092844804691 149.8830344953478 L 607.4271884820811 147.2914567919462 L 609.6335344301469 144.59039599664965 L 611.7507321161439 141.7985456178048 L 613.8011913315497 138.93459916375843 L 615.8073218678414 136.01725014285716 L 617.7915335164968 133.06519206344774 L 619.7762360689931 130.09711843387686 L 621.7838393168079 127.13172276249117 L 623.8367530514183 124.18769855763742 L 625.9573870643019 121.28373932766227 L 628.1681511469362 118.43853858091242 L 630.4914550907988 115.67078982573462 L 632.9488151165955 112.99864063907665 L 635.5223508257099 110.41616904213645 L 638.1401328465693 107.88443157380807 L 640.7263156036266 105.36209214916386 L 643.2050535213349 102.80781468327578 L 645.5005010241474 100.18026309121662 L 647.5368125365175 97.43810128805836 L 649.2381980906512 94.54003468537093 L 650.551794626284 91.4618775743113 L 651.4829021084247 88.22284757876218 L 652.0459057016095 84.84894202390367 L 652.2551905703752 81.36615823491763 L 652.1251418792579 77.80049353698445 L 651.6701447927938 74.17794525528512 L 650.9045844755199 70.52451071500056 L 649.8428460919719 66.86618724131213 L 648.4993148066865 63.22897215939986 L 646.8883757841999 59.63886279444563 L 645.0244141890482 56.12185647162951 L 642.9218151857688 52.70395051613298 L 640.5949639388966 49.411142253137 L 638.0582456129692 46.2694290078218 L 635.3260364988846 43.30474025061142 L 632.4115296845105 40.53395775866602 L 629.3255589213392 37.95592198294051 L 626.078678120685 35.56733349811918 L 622.6814411938628 33.364892878886764 L 619.1444020521874 31.345300699927435 L 615.4781146069726 29.505257535925836 L 611.6931327695333 27.841463961566376 L 607.8000104511844 26.350620551533723 L 603.8093015632403 25.029427880512173 L 599.7315600170155 23.874586523186224 L 595.5773397238246 22.8827970542404 L 591.3571945949824 22.05076004835925 L 587.0816785418028 21.375176080227504 L 582.7613454756009 20.85274572452903 L 578.4067493076914 20.48016955594875 L 574.028443949389 20.254148149171016 L 569.6369833120078 20.171382078880697 L 565.2429213068625 20.228571919761805 L 560.8568118452674 20.422418246498836 L 556.4892088385379 20.7496216337764 L 552.1506661979879 21.206882656278964 L 547.8517378349318 21.790901888691337 L 543.6029776606853 22.498379905697647 L 539.4149395865616 23.3260172819825 L 535.2981775238758 24.2705145922302 L 531.2632453839433 25.328572411125577 L 527.3206970780775 26.496891313352876 L 523.481086517593 27.77217187359676 L 519.7549676138054 29.151114666541332 L 516.1528942780285 30.630420266871397 L 512.685420421577 32.20678924927162 L 509.36309995576556 33.87692218842625 L 506.19648679190857 35.6375196590196 L 503.1961348413214 37.48528223573663 L 500.3725980153176 39.4169104932611 L 497.73643022521185 41.429105006278405 L 495.29818538231916 43.518566349472394 L 493.06841739795414 45.68199509752796 L 491.0576801834309 47.91609182512914 L 489.2765276500649 50.21755710696064 L 487.7355137091696 52.58309151770723 L 486.4451922720596 55.00939563205284 L 485.41544007101703 57.493224417889536 L 484.6459393456319 60.03215169769146 L 484.1284928214604 62.62438420195133 L 483.85469869179525 65.2681450898533 L 483.81615514993024 67.96165752058263 L 484.00446038915686 70.70314465332385 L 484.4112126027694 73.4908296472617 L 485.02800998406013 76.32293566158123 L 485.8464507263234 79.19768585546663 L 486.85813302284924 82.11330338810299 L 488.05465506693275 85.06801141867467 L 489.4276150518662 88.06003310636709 L 490.96861117094244 91.0875916103646 L 492.66924161745374 94.14891008985211 L 494.52110458469303 97.24221170401401 L 496.5157982659546 100.36571961203532 L 498.64492085452787 103.51765697310078 L 500.90007054371006 106.69624694639477 L 503.27284552679197 109.89971269110288 L 505.75484399706716 113.12627736640894 L 508.3376641478279 116.37416413149803 L 511.0129041723658 119.64159614555523 L 513.7721622639772 122.92679656776488 L 516.60703661595 126.22798855731189 L 519.5091254215822 129.54339527338098 L 522.4700268741626 132.8712398751565 L 525.4813391669854 136.2097455218241 L 528.5346604933463 139.5571353725677 L 531.6215890465342 142.91163258657213 L 534.7337230198445 146.27146032302255 L 537.8626606065677 149.63484174110334 L 540.9999999999987 152.99999999999963 Z" fill-opacity="0.09803921568627451"/><g transform="scale(21,21)"><g transform="translate(26.571428571428573,6.683332)"><path fill="rgb(0,0,0)" stroke="none" paint-order="stroke fill markers" d=" M 0.308 -0.34800000000000003 L 0.308 -0.34800000000000003 L 0.27 -0.223 Q 0.23900000000000002 -0.123 0.199 -0.022 Q 0.19 -0.003 0.153 0.015 Q 0.136 0.022 0.126 0.022 Q 0.115 0.022 0.115 0.015 Q 0.115 0.012 0.125 -0.015 Q 0.242 -0.317 0.27 -0.532 Q 0.274 -0.5650000000000001 0.274 -0.584 Q 0.274 -0.615 0.246 -0.625 Q 0.23700000000000002 -0.628 0.226 -0.628 Q 0.151 -0.628 0.123 -0.581 L 0.123 -0.58 Q 0.114 -0.5640000000000001 0.106 -0.54 Q 0.096 -0.51 0.049 -0.493 Q 0.037 -0.489 0.03 -0.489 Q 0.028 -0.489 0.02 -0.492 Q 0.036000000000000004 -0.58 0.134 -0.638 Q 0.211 -0.683 0.292 -0.683 Q 0.356 -0.678 0.359 -0.626 Q 0.359 -0.597 0.34600000000000003 -0.516 Q 0.332 -0.44 0.319 -0.393 Q 0.335 -0.403 0.364 -0.403 L 0.63 -0.403 Q 0.681 -0.544 0.729 -0.627 Q 0.742 -0.65 0.749 -0.656 Q 0.784 -0.683 0.807 -0.683 Q 0.8180000000000001 -0.683 0.8180000000000001 -0.675 Q 0.8180000000000001 -0.671 0.811 -0.661 Q 0.707 -0.461 0.662 -0.272 Q 0.64 -0.177 0.64 -0.10300000000000001 Q 0.64 -0.036000000000000004 0.657 -0.019 L 0.657 -0.019 Q 0.668 -0.008 0.686 -0.008 Q 0.6940000000000001 -0.008 0.711 -0.013000000000000001 Q 0.715 -0.035 0.742 -0.053 Q 0.772 -0.074 0.791 -0.074 Q 0.801 -0.074 0.801 -0.066 Q 0.801 -0.034 0.743 0.005 Q 0.68 0.047 0.62 0.047 Q 0.5660000000000001 0.047 0.558 -0.006 Q 0.555 -0.022 0.555 -0.06 Q 0.555 -0.182 0.614 -0.358 Q 0.598 -0.34800000000000003 0.5690000000000001 -0.34800000000000003 L 0.308 -0.34800000000000003 Z"/></g><g transform="translate(27.415946571428574,6.833332) scale(0.7,0.7)"><path fill="rgb(0,0,0)" stroke="none" paint-order="stroke fill markers" d=" M 0.449 -0.17400000000000002 L 0.449 -0.17400000000000002 L 0.421 0 L 0.05 0 Q 0.05 -0.025 0.056 -0.032 L 0.061 -0.037 L 0.253 -0.251 Q 0.358 -0.369 0.358 -0.47200000000000003 Q 0.358 -0.561 0.304 -0.607 L 0.303 -0.608 L 0.302 -0.608 Q 0.27 -0.635 0.224 -0.635 Q 0.152 -0.635 0.109 -0.5730000000000001 Q 0.097 -0.555 0.089 -0.533 Q 0.092 -0.534 0.10200000000000001 -0.534 Q 0.14200000000000002 -0.534 0.153 -0.498 L 0.153 -0.497 Q 0.155 -0.49 0.155 -0.482 Q 0.155 -0.442 0.117 -0.431 Q 0.109 -0.429 0.10300000000000001 -0.429 Q 0.066 -0.429 0.054 -0.46 Q 0.05 -0.47100000000000003 0.05 -0.485 Q 0.05 -0.562 0.109 -0.617 Q 0.162 -0.666 0.23700000000000002 -0.666 Q 0.34700000000000003 -0.666 0.40800000000000003 -0.592 Q 0.443 -0.549 0.448 -0.49 Q 0.449 -0.481 0.449 -0.47200000000000003 Q 0.449 -0.399 0.394 -0.333 Q 0.365 -0.299 0.304 -0.243 L 0.243 -0.189 L 0.233 -0.18 L 0.127 -0.077 L 0.307 -0.077 Q 0.395 -0.077 0.402 -0.085 Q 0.41200000000000003 -0.099 0.424 -0.17400000000000002 L 0.449 -0.17400000000000002 Z"/></g></g><path fill="none" stroke="rgb(0,0,0)" paint-order="fill stroke markers" d=" M 350.99999999999943 152.99999999999991 L 350.99999999999943 77.99999999999994" stroke-opacity="0.6980392156862745" stroke-linejoin="round" stroke-miterlimit="10" stroke-width="1.5" stroke-dasharray="9.5,8"/><path fill="none" stroke="rgb(0,0,0)" paint-order="fill stroke markers" d=" M 350.99999999999943 152.99999999999991 L 400.99999999999943 152.99999999999991" stroke-opacity="0.6980392156862745" stroke-linecap="round" stroke-linejoin="round" stroke-miterlimit="10" stroke-width="1.5"/><path fill="none" stroke="rgb(0,0,0)" paint-order="fill stroke markers" d=" M 350.99999999999943 77.99999999999994 L 550.9999999999992 77.99999999999994" stroke-opacity="0.6980392156862745" stroke-linejoin="round" stroke-miterlimit="10" stroke-width="1.5" stroke-dasharray="9.5,8"/><path fill="none" stroke="rgb(0,0,0)" paint-order="fill stroke markers" d=" M 550.9999999999992 77.99999999999994 L 550.9999999999992 27.99999999999997" stroke-opacity="0.6980392156862745" stroke-linecap="round" stroke-linejoin="round" stroke-miterlimit="10" stroke-width="1.5"/><path fill="rgb(0,153,255)" stroke="none" paint-order="stroke fill markers" d=" M 354.99999999999943 77.99999999999994 C 354.99999999999943 80.20913899932312 353.2091389993226 81.99999999999994 350.99999999999943 81.99999999999994 C 348.7908610006763 81.99999999999994 346.99999999999943 80.20913899932312 346.99999999999943 77.99999999999994 C 346.99999999999943 75.79086100067677 348.7908610006763 73.99999999999994 350.99999999999943 73.99999999999994 C 353.2091389993226 73.99999999999994 354.99999999999943 75.79086100067677 354.99999999999943 77.99999999999994 Z" fill-opacity="1"/><path fill="none" stroke="rgb(0,0,0)" paint-order="fill stroke markers" d=" M 354.99999999999943 77.99999999999994 C 354.99999999999943 80.20913899932312 353.2091389993226 81.99999999999994 350.99999999999943 81.99999999999994 C 348.7908610006763 81.99999999999994 346.99999999999943 80.20913899932312 346.99999999999943 77.99999999999994 C 346.99999999999943 75.79086100067677 348.7908610006763 73.99999999999994 350.99999999999943 73.99999999999994 C 353.2091389993226 73.99999999999994 354.99999999999943 75.79086100067677 354.99999999999943 77.99999999999994 Z" stroke-opacity="1" stroke-linecap="round" stroke-linejoin="round" stroke-miterlimit="10"/><g transform="scale(21,21)"><g transform="translate(15.428571428571429,3.8849211904761907)"><path fill="rgb(0,153,255)" stroke="none" paint-order="stroke fill markers" d=" M 0.367 -0.4 L 0.367 -0.4 L 0.307 -0.083 Q 0.298 -0.021 0.271 0.059000000000000004 Q 0.261 0.088 0.251 0.108 Q 0.216 0.182 0.164 0.2 Q 0.151 0.20500000000000002 0.138 0.20500000000000002 Q 0.088 0.20500000000000002 0.064 0.171 Q 0.053 0.156 0.053 0.136 Q 0.053 0.096 0.08700000000000001 0.081 Q 0.097 0.076 0.108 0.076 Q 0.137 0.076 0.14400000000000002 0.101 Q 0.145 0.106 0.145 0.111 Q 0.145 0.145 0.115 0.159 Q 0.10400000000000001 0.164 0.09 0.165 Q 0.109 0.183 0.138 0.183 Q 0.182 0.183 0.20700000000000002 0.085 Q 0.212 0.062 0.219 0.025 L 0.225 -0.005 L 0.3 -0.4 L 0.234 -0.4 Q 0.209 -0.4 0.20700000000000002 -0.40800000000000003 L 0.20600000000000002 -0.40800000000000003 L 0.20600000000000002 -0.41200000000000003 Q 0.20600000000000002 -0.429 0.223 -0.431 L 0.223 -0.431 L 0.23600000000000002 -0.431 L 0.305 -0.431 Q 0.329 -0.556 0.338 -0.588 Q 0.368 -0.6880000000000001 0.444 -0.7030000000000001 Q 0.455 -0.705 0.465 -0.705 Q 0.517 -0.705 0.541 -0.671 L 0.541 -0.671 Q 0.552 -0.656 0.552 -0.636 Q 0.552 -0.596 0.518 -0.581 Q 0.508 -0.5760000000000001 0.497 -0.5760000000000001 Q 0.468 -0.5760000000000001 0.461 -0.601 Q 0.46 -0.606 0.46 -0.611 Q 0.46 -0.642 0.488 -0.657 Q 0.499 -0.664 0.514 -0.665 Q 0.495 -0.683 0.465 -0.683 Q 0.434 -0.683 0.418 -0.649 Q 0.41100000000000003 -0.635 0.394 -0.545 L 0.373 -0.431 L 0.456 -0.431 Q 0.481 -0.431 0.483 -0.42 Q 0.483 -0.402 0.467 -0.4 L 0.466 -0.4 L 0.453 -0.4 L 0.367 -0.4 Z"/></g></g><path fill="rgb(255,51,102)" stroke="none" paint-order="stroke fill markers" d=" M 355.99999999999943 152.99999999999991 C 355.99999999999943 155.7614237491539 353.7614237491534 157.99999999999991 350.99999999999943 157.99999999999991 C 348.2385762508455 157.99999999999991 345.99999999999943 155.7614237491539 345.99999999999943 152.99999999999991 C 345.99999999999943 150.23857625084594 348.2385762508455 147.99999999999991 350.99999999999943 147.99999999999991 C 353.7614237491534 147.99999999999991 355.99999999999943 150.23857625084594 355.99999999999943 152.99999999999991 Z" fill-opacity="1"/><path fill="none" stroke="rgb(0,0,0)" paint-order="fill stroke markers" d=" M 355.99999999999943 152.99999999999991 C 355.99999999999943 155.7614237491539 353.7614237491534 157.99999999999991 350.99999999999943 157.99999999999991 C 348.2385762508455 157.99999999999991 345.99999999999943 155.7614237491539 345.99999999999943 152.99999999999991 C 345.99999999999943 150.23857625084594 348.2385762508455 147.99999999999991 350.99999999999943 147.99999999999991 C 353.7614237491534 147.99999999999991 355.99999999999943 150.23857625084594 355.99999999999943 152.99999999999991 Z" stroke-opacity="1" stroke-linecap="round" stroke-linejoin="round" stroke-miterlimit="10"/><g transform="scale(21,21)"><g transform="translate(16.285714285714285,8.881444442857143)"><path fill="rgb(255,51,102)" stroke="none" paint-order="stroke fill markers" d=" M 0.28700000000000003 -0.683 L 0.209 -0.365 Q 0.271 -0.442 0.357 -0.442 Q 0.446 -0.442 0.467 -0.373 L 0.467 -0.372 Q 0.47200000000000003 -0.355 0.47200000000000003 -0.335 Q 0.47200000000000003 -0.279 0.41100000000000003 -0.115 Q 0.393 -0.07100000000000001 0.393 -0.044 Q 0.393 -0.011 0.417 -0.011 Q 0.47900000000000004 -0.011 0.515 -0.121 L 0.519 -0.135 Q 0.524 -0.151 0.529 -0.152 L 0.529 -0.153 L 0.534 -0.153 Q 0.546 -0.153 0.546 -0.14300000000000002 Q 0.546 -0.126 0.525 -0.08 Q 0.482 0.011 0.41500000000000004 0.011 Q 0.364 0.011 0.342 -0.032 Q 0.333 -0.05 0.333 -0.07100000000000001 Q 0.333 -0.089 0.34600000000000003 -0.126 Q 0.40800000000000003 -0.28400000000000003 0.40800000000000003 -0.35000000000000003 Q 0.40800000000000003 -0.42 0.354 -0.42 Q 0.306 -0.42 0.258 -0.385 Q 0.221 -0.356 0.193 -0.299 L 0.19 -0.293 Q 0.186 -0.269 0.179 -0.248 Q 0.17400000000000002 -0.225 0.162 -0.181 L 0.14 -0.091 L 0.121 -0.015 Q 0.114 0.006 0.09 0.01 Q 0.08700000000000001 0.011 0.084 0.011 Q 0.06 0.011 0.056 -0.01 Q 0.055 -0.014 0.055 -0.017 Q 0.055 -0.025 0.059000000000000004 -0.039 L 0.20400000000000001 -0.615 L 0.20700000000000002 -0.635 Q 0.20700000000000002 -0.646 0.193 -0.649 L 0.193 -0.649 Q 0.181 -0.652 0.157 -0.652 Q 0.135 -0.652 0.133 -0.664 Q 0.133 -0.681 0.152 -0.684 L 0.274 -0.6940000000000001 Q 0.28700000000000003 -0.6940000000000001 0.28700000000000003 -0.683 Z"/></g><g transform="translate(16.861873785714284,8.468552442857142) scale(0.7,0.7)"><path fill="rgb(255,51,102)" stroke="none" paint-order="stroke fill markers" d=" M 0.261 -0.229 L 0.261 -0.229 L 0.275 -0.07100000000000001 Q 0.278 -0.034 0.249 -0.034 Q 0.231 -0.034 0.225 -0.05 Q 0.223 -0.055 0.224 -0.061 L 0.224 -0.066 L 0.23800000000000002 -0.23 L 0.112 -0.137 Q 0.1 -0.128 0.092 -0.128 Q 0.074 -0.128 0.067 -0.146 Q 0.065 -0.151 0.065 -0.156 Q 0.065 -0.17300000000000001 0.08600000000000001 -0.182 L 0.227 -0.25 L 0.08600000000000001 -0.317 Q 0.065 -0.326 0.065 -0.343 Q 0.065 -0.362 0.084 -0.369 Q 0.088 -0.371 0.092 -0.371 Q 0.098 -0.371 0.112 -0.361 L 0.23800000000000002 -0.269 L 0.224 -0.428 L 0.224 -0.439 Q 0.22 -0.455 0.23800000000000002 -0.462 L 0.23900000000000002 -0.463 L 0.24 -0.463 Q 0.245 -0.465 0.25 -0.465 Q 0.278 -0.465 0.275 -0.429 L 0.261 -0.269 L 0.387 -0.362 Q 0.399 -0.371 0.40700000000000003 -0.371 Q 0.425 -0.371 0.432 -0.353 Q 0.434 -0.34800000000000003 0.434 -0.343 Q 0.434 -0.326 0.41300000000000003 -0.317 L 0.271 -0.249 L 0.41600000000000004 -0.181 Q 0.434 -0.17200000000000001 0.434 -0.156 Q 0.434 -0.137 0.41500000000000004 -0.13 Q 0.41100000000000003 -0.128 0.40700000000000003 -0.128 Q 0.399 -0.128 0.37 -0.15 L 0.261 -0.229 Z"/></g><g transform="translate(16.861873785714284,9.152966142857142) scale(0.7,0.7)"><path fill="rgb(255,51,102)" stroke="none" paint-order="stroke fill markers" d=" M 0.294 -0.64 L 0.294 -0.079 Q 0.294 -0.049 0.306 -0.041 Q 0.323 -0.031 0.387 -0.031 L 0.419 -0.031 L 0.419 0 Q 0.384 -0.003 0.257 -0.003 Q 0.13 -0.003 0.095 0 L 0.095 -0.031 L 0.127 -0.031 Q 0.20400000000000001 -0.031 0.215 -0.049 L 0.216 -0.05 Q 0.22 -0.058 0.22 -0.079 L 0.22 -0.597 Q 0.168 -0.5710000000000001 0.089 -0.5710000000000001 L 0.089 -0.602 Q 0.209 -0.602 0.271 -0.666 Q 0.29 -0.666 0.293 -0.659 L 0.293 -0.659 L 0.293 -0.658 Q 0.294 -0.655 0.294 -0.64 Z"/></g></g><path fill="rgb(0,153,0)" stroke="none" paint-order="stroke fill markers" d=" M 554.9999999999992 77.99999999999994 C 554.9999999999992 80.20913899932312 553.2091389993224 81.99999999999994 550.9999999999992 81.99999999999994 C 548.790861000676 81.99999999999994 546.9999999999992 80.20913899932312 546.9999999999992 77.99999999999994 C 546.9999999999992 75.79086100067677 548.790861000676 73.99999999999994 550.9999999999992 73.99999999999994 C 553.2091389993224 73.99999999999994 554.9999999999992 75.79086100067677 554.9999999999992 77.99999999999994 Z" fill-opacity="1"/><path fill="none" stroke="rgb(0,0,0)" paint-order="fill stroke markers" d=" M 554.9999999999992 77.99999999999994 C 554.9999999999992 80.20913899932312 553.2091389993224 81.99999999999994 550.9999999999992 81.99999999999994 C 548.790861000676 81.99999999999994 546.9999999999992 80.20913899932312 546.9999999999992 77.99999999999994 C 546.9999999999992 75.79086100067677 548.790861000676 73.99999999999994 550.9999999999992 73.99999999999994 C 553.2091389993224 73.99999999999994 554.9999999999992 75.79086100067677 554.9999999999992 77.99999999999994 Z" stroke-opacity="1" stroke-linecap="round" stroke-linejoin="round" stroke-miterlimit="10"/><g transform="scale(21,21)"><g transform="translate(26.952380952380953,4.167158728571429)"><path fill="rgb(0,153,0)" stroke="none" paint-order="stroke fill markers" d=" M 0.28700000000000003 -0.683 L 0.209 -0.365 Q 0.271 -0.442 0.357 -0.442 Q 0.446 -0.442 0.467 -0.373 L 0.467 -0.372 Q 0.47200000000000003 -0.355 0.47200000000000003 -0.335 Q 0.47200000000000003 -0.279 0.41100000000000003 -0.115 Q 0.393 -0.07100000000000001 0.393 -0.044 Q 0.393 -0.011 0.417 -0.011 Q 0.47900000000000004 -0.011 0.515 -0.121 L 0.519 -0.135 Q 0.524 -0.151 0.529 -0.152 L 0.529 -0.153 L 0.534 -0.153 Q 0.546 -0.153 0.546 -0.14300000000000002 Q 0.546 -0.126 0.525 -0.08 Q 0.482 0.011 0.41500000000000004 0.011 Q 0.364 0.011 0.342 -0.032 Q 0.333 -0.05 0.333 -0.07100000000000001 Q 0.333 -0.089 0.34600000000000003 -0.126 Q 0.40800000000000003 -0.28400000000000003 0.40800000000000003 -0.35000000000000003 Q 0.40800000000000003 -0.42 0.354 -0.42 Q 0.306 -0.42 0.258 -0.385 Q 0.221 -0.356 0.193 -0.299 L 0.19 -0.293 Q 0.186 -0.269 0.179 -0.248 Q 0.17400000000000002 -0.225 0.162 -0.181 L 0.14 -0.091 L 0.121 -0.015 Q 0.114 0.006 0.09 0.01 Q 0.08700000000000001 0.011 0.084 0.011 Q 0.06 0.011 0.056 -0.01 Q 0.055 -0.014 0.055 -0.017 Q 0.055 -0.025 0.059000000000000004 -0.039 L 0.20400000000000001 -0.615 L 0.20700000000000002 -0.635 Q 0.20700000000000002 -0.646 0.193 -0.649 L 0.193 -0.649 Q 0.181 -0.652 0.157 -0.652 Q 0.135 -0.652 0.133 -0.664 Q 0.133 -0.681 0.152 -0.684 L 0.274 -0.6940000000000001 Q 0.28700000000000003 -0.6940000000000001 0.28700000000000003 -0.683 Z"/></g><g transform="translate(27.528540452380952,3.754266728571429) scale(0.7,0.7)"><path fill="rgb(0,153,0)" stroke="none" paint-order="stroke fill markers" d=" M 0.261 -0.229 L 0.261 -0.229 L 0.275 -0.07100000000000001 Q 0.278 -0.034 0.249 -0.034 Q 0.231 -0.034 0.225 -0.05 Q 0.223 -0.055 0.224 -0.061 L 0.224 -0.066 L 0.23800000000000002 -0.23 L 0.112 -0.137 Q 0.1 -0.128 0.092 -0.128 Q 0.074 -0.128 0.067 -0.146 Q 0.065 -0.151 0.065 -0.156 Q 0.065 -0.17300000000000001 0.08600000000000001 -0.182 L 0.227 -0.25 L 0.08600000000000001 -0.317 Q 0.065 -0.326 0.065 -0.343 Q 0.065 -0.362 0.084 -0.369 Q 0.088 -0.371 0.092 -0.371 Q 0.098 -0.371 0.112 -0.361 L 0.23800000000000002 -0.269 L 0.224 -0.428 L 0.224 -0.439 Q 0.22 -0.455 0.23800000000000002 -0.462 L 0.23900000000000002 -0.463 L 0.24 -0.463 Q 0.245 -0.465 0.25 -0.465 Q 0.278 -0.465 0.275 -0.429 L 0.261 -0.269 L 0.387 -0.362 Q 0.399 -0.371 0.40700000000000003 -0.371 Q 0.425 -0.371 0.432 -0.353 Q 0.434 -0.34800000000000003 0.434 -0.343 Q 0.434 -0.326 0.41300000000000003 -0.317 L 0.271 -0.249 L 0.41600000000000004 -0.181 Q 0.434 -0.17200000000000001 0.434 -0.156 Q 0.434 -0.137 0.41500000000000004 -0.13 Q 0.41100000000000003 -0.128 0.40700000000000003 -0.128 Q 0.399 -0.128 0.37 -0.15 L 0.261 -0.229 Z"/></g><g transform="translate(27.528540452380952,4.438680428571429) scale(0.7,0.7)"><path fill="rgb(0,153,0)" stroke="none" paint-order="stroke fill markers" d=" M 0.449 -0.17400000000000002 L 0.449 -0.17400000000000002 L 0.421 0 L 0.05 0 Q 0.05 -0.025 0.056 -0.032 L 0.061 -0.037 L 0.253 -0.251 Q 0.358 -0.369 0.358 -0.47200000000000003 Q 0.358 -0.561 0.304 -0.607 L 0.303 -0.608 L 0.302 -0.608 Q 0.27 -0.635 0.224 -0.635 Q 0.152 -0.635 0.109 -0.5730000000000001 Q 0.097 -0.555 0.089 -0.533 Q 0.092 -0.534 0.10200000000000001 -0.534 Q 0.14200000000000002 -0.534 0.153 -0.498 L 0.153 -0.497 Q 0.155 -0.49 0.155 -0.482 Q 0.155 -0.442 0.117 -0.431 Q 0.109 -0.429 0.10300000000000001 -0.429 Q 0.066 -0.429 0.054 -0.46 Q 0.05 -0.47100000000000003 0.05 -0.485 Q 0.05 -0.562 0.109 -0.617 Q 0.162 -0.666 0.23700000000000002 -0.666 Q 0.34700000000000003 -0.666 0.40800000000000003 -0.592 Q 0.443 -0.549 0.448 -0.49 Q 0.449 -0.481 0.449 -0.47200000000000003 Q 0.449 -0.399 0.394 -0.333 Q 0.365 -0.299 0.304 -0.243 L 0.243 -0.189 L 0.233 -0.18 L 0.127 -0.077 L 0.307 -0.077 Q 0.395 -0.077 0.402 -0.085 Q 0.41200000000000003 -0.099 0.424 -0.17400000000000002 L 0.449 -0.17400000000000002 Z"/></g></g></g></g></svg>