<svg version="1.1" xmlns="http://www.w3.org/2000/svg" xmlns:xlink="http://www.w3.org/1999/xlink" width="560" height="279"><defs><clipPath id="yWMrMbHPdvdF"><path fill="none" stroke="none" d=" M 0 0 L 560 0 L 560 279 L 0 279 L 0 0 Z"/></clipPath></defs><g transform="scale(1,1)" clip-path="url(#yWMrMbHPdvdF)"><g><path fill="none" stroke="rgb(0,0,0)" paint-order="fill stroke markers" d=" M 151.99999999999983 152.00000000000017 L 149.13338800100405 154.98951785007333 L 147.17224136440785 157.89004139867293 L 146.51783210639724 159.3068589492545 L 146.07372664825158 160.70134229166894 L 145.83457080972585 162.07346288164996 L 145.79501041057517 163.42319217493133 L 145.94969127055452 164.75050162724676 L 146.29325920941886 166.05536269433003 L 146.82036004692327 167.3377468319149 L 147.52563960282282 168.59762549573506 L 149.4493181488271 171.04975222501633 L 152.02146140547194 173.41151452804385 L 155.19923593079744 175.68268405068756 L 158.93980828284367 177.8630324388174 L 163.2003450196509 179.9523313383034 L 167.93801269925927 181.95035239501544 L 173.10997787970877 183.85686725482356 L 178.67340711903967 185.67164756359767 L 184.58546697529212 187.39446496720774 L 190.80332400650616 189.02509111152378 L 197.28414477072204 190.5632976424157 L 203.98509582597984 192.0088562057535 L 210.8633437303197 193.3615384474071 L 217.87605504178183 194.6211160132465 L 224.9803963184063 195.78736054914168 L 232.13353411823326 196.86004370096254 L 239.2926349993029 197.8389371145791 L 246.41486551965525 198.7238124358613 L 253.45739223733057 199.5144413106791 L 260.37738171036904 200.2105953849025 L 267.13200049681063 200.81204630440143 L 273.6784151546956 201.31856571504585 L 279.97379224206406 201.72992526270576 L 285.97535767687185 202.0458910692804 L 291.66060645008594 202.26434303828952 L 297.0567851078817 202.37853124643226 L 302.19863477818956 202.3810083325996 L 307.1208965889395 202.26432693568262 L 311.8583116680616 202.02103969457238 L 316.4456211434858 201.64369924815992 L 320.9175661431419 201.12485823533626 L 325.3088877949606 200.45706929499246 L 329.6543272268714 199.63288506601958 L 333.98862556680433 198.6448581873086 L 338.3465239426898 197.48554129775067 L 342.7627634824573 196.14748703623675 L 347.27208531403727 194.62324804165794 L 351.9066302511209 192.9061953486074 L 356.6630662344658 191.00086435263162 L 361.51241101950416 188.91986332028506 L 366.4251115490697 186.6759801697083 L 371.3716147659974 184.28200281904202 L 376.3223676131203 181.75071918642695 L 381.24781703327267 179.09491719000368 L 386.1184099692891 176.32738474791242 L 390.90459336400306 173.46090977829417 L 395.5768141602482 170.50828019928952 L 400.1055193008592 167.48228392903908 L 404.4611557286697 164.39570888568343 L 408.61417038651354 161.26134298736315 L 412.5350102172251 158.0919741522191 L 416.1941221636385 154.90039029839144 L 419.5619531685875 151.69937934402125 L 422.6089501749053 148.50172920724864 L 425.30556012542746 145.32022780621486 L 427.62222996298703 142.16766305906 L 429.529406630418 139.05682288392518 L 430.9975370705548 136.00049519895043 L 431.99706822623125 133.01146792227672 L 432.5061256651779 130.10066224746214 L 432.53390963853633 127.27144490665883 L 432.09748016770106 124.52527186980055 L 431.2138972745217 121.86359910671032 L 429.9002209808482 119.28788258721113 L 428.17351130853183 116.79957828112586 L 426.050828279422 114.4001421582775 L 423.5492319153679 112.09103018848904 L 420.6857822382191 109.87369834158345 L 417.4775392698266 107.74960258738362 L 413.9415630320393 105.72019889571258 L 410.0949135467083 103.78694323639326 L 405.9546508356832 101.95129157924859 L 401.53783492081277 100.21469989410157 L 396.86152582394743 98.57862415077514 L 391.9427835669382 97.04452031909227 L 386.79866817163395 95.61384436887596 L 381.4462396598842 94.28805226994895 L 375.90255805354013 93.06859999213451 L 370.1846833744512 91.95694350525548 L 364.3096756444657 90.95453877913474 L 358.294594885436 90.06284178359535 L 352.1565011192117 89.2833084884602 L 345.9124543676411 88.61739486355224 L 339.5795146525736 88.0665568786945 L 333.17474199586115 87.63225050370991 L 326.7151964193546 87.3159317084214 L 320.21793794490077 87.119056462652 L 313.70002659435073 87.04308073622461 L 307.17852238955544 87.08946049896207 L 300.6704853523638 87.25965172068756 L 294.19297550462545 87.55511037122402 L 287.76305286819 87.97729242039426 L 281.3977774649105 88.52765383802128 L 275.11420931663315 89.20765059392818 L 268.9294084452081 90.01873865793762 L 262.860434872488 90.96237399987295 L 256.9243486203201 92.04001258955688 L 251.1382097105548 93.25311039681242 L 245.5190781650446 94.60312339146253 L 240.08240936747873 96.0910291468376 L 234.8284126241206 97.7132598688786 L 229.7488694895565 99.46373516788569 L 224.8354726490805 101.33634815924098 L 220.07991478798937 103.32499195832654 L 215.47388859157644 105.4235596805259 L 211.0090867451421 107.62594444122186 L 206.67720193397682 109.92603935579581 L 202.46992684337738 112.31773753963054 L 198.37895415864065 114.79493210810887 L 194.39597656506206 117.35151617661501 L 190.5126867479363 119.98138286052964 L 186.7207773925588 122.67842527523484 L 183.01194118422782 125.43653653611557 L 179.37787080823455 128.24960975855248 L 175.81025894987718 131.11153805792839 L 172.30079829445117 134.01621454962608 L 168.84118152725193 136.9575323490291 L 165.42310133357347 139.9293845715188 L 162.03825039871617 142.92566433247728 L 158.67832140796907 145.94026474728878 L 155.33500704663112 148.96707893133538 L 151.99999999999847 151.99999999999847 Z" stroke-opacity="0.6980392156862745" stroke-linecap="round" stroke-linejoin="round" stroke-miterlimit="10" stroke-width="1.5"/><path fill="rgb(0,0,0)" stroke="none" paint-order="stroke fill markers" fill-rule="evenodd" d=" M 151.99999999999983 152.00000000000017 L 149.13338800100405 154.98951785007333 L 147.17224136440785 157.89004139867293 L 146.51783210639724 159.3068589492545 L 146.07372664825158 160.70134229166894 L 145.83457080972585 162.07346288164996 L 145.79501041057517 163.42319217493133 L 145.94969127055452 164.75050162724676 L 146.29325920941886 166.05536269433003 L 146.82036004692327 167.3377468319149 L 147.52563960282282 168.59762549573506 L 149.4493181488271 171.04975222501633 L 152.02146140547194 173.41151452804385 L 155.19923593079744 175.68268405068756 L 158.93980828284367 177.8630324388174 L 163.2003450196509 179.9523313383034 L 167.93801269925927 181.95035239501544 L 173.10997787970877 183.85686725482356 L 178.67340711903967 185.67164756359767 L 184.58546697529212 187.39446496720774 L 190.80332400650616 189.02509111152378 L 197.28414477072204 190.5632976424157 L 203.98509582597984 192.0088562057535 L 210.8633437303197 193.3615384474071 L 217.87605504178183 194.6211160132465 L 224.9803963184063 195.78736054914168 L 232.13353411823326 196.86004370096254 L 239.2926349993029 197.8389371145791 L 246.41486551965525 198.7238124358613 L 253.45739223733057 199.5144413106791 L 260.37738171036904 200.2105953849025 L 267.13200049681063 200.81204630440143 L 273.6784151546956 201.31856571504585 L 279.97379224206406 201.72992526270576 L 285.97535767687185 202.0458910692804 L 291.66060645008594 202.26434303828952 L 297.0567851078817 202.37853124643226 L 302.19863477818956 202.3810083325996 L 307.1208965889395 202.26432693568262 L 311.8583116680616 202.02103969457238 L 316.4456211434858 201.64369924815992 L 320.9175661431419 201.12485823533626 L 325.3088877949606 200.45706929499246 L 329.6543272268714 199.63288506601958 L 333.98862556680433 198.6448581873086 L 338.3465239426898 197.48554129775067 L 342.7627634824573 196.14748703623675 L 347.27208531403727 194.62324804165794 L 351.9066302511209 192.9061953486074 L 356.6630662344658 191.00086435263162 L 361.51241101950416 188.91986332028506 L 366.4251115490697 186.6759801697083 L 371.3716147659974 184.28200281904202 L 376.3223676131203 181.75071918642695 L 381.24781703327267 179.09491719000368 L 386.1184099692891 176.32738474791242 L 390.90459336400306 173.46090977829417 L 395.5768141602482 170.50828019928952 L 400.1055193008592 167.48228392903908 L 404.4611557286697 164.39570888568343 L 408.61417038651354 161.26134298736315 L 412.5350102172251 158.0919741522191 L 416.1941221636385 154.90039029839144 L 419.5619531685875 151.69937934402125 L 422.6089501749053 148.50172920724864 L 425.30556012542746 145.32022780621486 L 427.62222996298703 142.16766305906 L 429.529406630418 139.05682288392518 L 430.9975370705548 136.00049519895043 L 431.99706822623125 133.01146792227672 L 432.5061256651779 130.10066224746214 L 432.53390963853633 127.27144490665883 L 432.09748016770106 124.52527186980055 L 431.2138972745217 121.86359910671032 L 429.9002209808482 119.28788258721113 L 428.17351130853183 116.79957828112586 L 426.050828279422 114.4001421582775 L 423.5492319153679 112.09103018848904 L 420.6857822382191 109.87369834158345 L 417.4775392698266 107.74960258738362 L 413.9415630320393 105.72019889571258 L 410.0949135467083 103.78694323639326 L 405.9546508356832 101.95129157924859 L 401.53783492081277 100.21469989410157 L 396.86152582394743 98.57862415077514 L 391.9427835669382 97.04452031909227 L 386.79866817163395 95.61384436887596 L 381.4462396598842 94.28805226994895 L 375.90255805354013 93.06859999213451 L 370.1846833744512 91.95694350525548 L 364.3096756444657 90.95453877913474 L 358.294594885436 90.06284178359535 L 352.1565011192117 89.2833084884602 L 345.9124543676411 88.61739486355224 L 339.5795146525736 88.0665568786945 L 333.17474199586115 87.63225050370991 L 326.7151964193546 87.3159317084214 L 320.21793794490077 87.119056462652 L 313.70002659435073 87.04308073622461 L 307.17852238955544 87.08946049896207 L 300.6704853523638 87.25965172068756 L 294.19297550462545 87.55511037122402 L 287.76305286819 87.97729242039426 L 281.3977774649105 88.52765383802128 L 275.11420931663315 89.20765059392818 L 268.9294084452081 90.01873865793762 L 262.860434872488 90.96237399987295 L 256.9243486203201 92.04001258955688 L 251.1382097105548 93.25311039681242 L 245.5190781650446 94.60312339146253 L 240.08240936747873 96.0910291468376 L 234.8284126241206 97.7132598688786 L 229.7488694895565 99.46373516788569 L 224.8354726490805 101.33634815924098 L 220.07991478798937 103.32499195832654 L 215.47388859157644 105.4235596805259 L 211.0090867451421 107.62594444122186 L 206.67720193397682 109.92603935579581 L 202.46992684337738 112.31773753963054 L 198.37895415864065 114.79493210810887 L 194.39597656506206 117.35151617661501 L 190.5126867479363 119.98138286052964 L 186.7207773925588 122.67842527523484 L 183.01194118422782 125.43653653611557 L 179.37787080823455 128.24960975855248 L 175.81025894987718 131.11153805792839 L 172.30079829445117 134.01621454962608 L 168.84118152725193 136.9575323490291 L 165.42310133357347 139.9293845715188 L 162.03825039871617 142.92566433247728 L 158.67832140796907 145.94026474728878 L 155.33500704663112 148.96707893133538 L 151.99999999999847 151.99999999999847 Z" fill-opacity="0.09803921568627451"/><g transform="scale(31,31)"><g transform="translate(5.774193548387097,5.393009419354839)"><path fill="rgb(0,0,0)" stroke="none" paint-order="stroke fill markers" d=" M 0.308 -0.34800000000000003 L 0.308 -0.34800000000000003 L 0.27 -0.223 Q 0.23900000000000002 -0.123 0.199 -0.022 Q 0.19 -0.003 0.153 0.015 Q 0.136 0.022 0.126 0.022 Q 0.115 0.022 0.115 0.015 Q 0.115 0.012 0.125 -0.015 Q 0.242 -0.317 0.27 -0.532 Q 0.274 -0.5650000000000001 0.274 -0.584 Q 0.274 -0.615 0.246 -0.625 Q 0.23700000000000002 -0.628 0.226 -0.628 Q 0.151 -0.628 0.123 -0.581 L 0.123 -0.58 Q 0.114 -0.5640000000000001 0.106 -0.54 Q 0.096 -0.51 0.049 -0.493 Q 0.037 -0.489 0.03 -0.489 Q 0.028 -0.489 0.02 -0.492 Q 0.036000000000000004 -0.58 0.134 -0.638 Q 0.211 -0.683 0.292 -0.683 Q 0.356 -0.678 0.359 -0.626 Q 0.359 -0.597 0.34600000000000003 -0.516 Q 0.332 -0.44 0.319 -0.393 Q 0.335 -0.403 0.364 -0.403 L 0.63 -0.403 Q 0.681 -0.544 0.729 -0.627 Q 0.742 -0.65 0.749 -0.656 Q 0.784 -0.683 0.807 -0.683 Q 0.8180000000000001 -0.683 0.8180000000000001 -0.675 Q 0.8180000000000001 -0.671 0.811 -0.661 Q 0.707 -0.461 0.662 -0.272 Q 0.64 -0.177 0.64 -0.10300000000000001 Q 0.64 -0.036000000000000004 0.657 -0.019 L 0.657 -0.019 Q 0.668 -0.008 0.686 -0.008 Q 0.6940000000000001 -0.008 0.711 -0.013000000000000001 Q 0.715 -0.035 0.742 -0.053 Q 0.772 -0.074 0.791 -0.074 Q 0.801 -0.074 0.801 -0.066 Q 0.801 -0.034 0.743 0.005 Q 0.68 0.047 0.62 0.047 Q 0.5660000000000001 0.047 0.558 -0.006 Q 0.555 -0.022 0.555 -0.06 Q 0.555 -0.182 0.614 -0.358 Q 0.598 -0.34800000000000003 0.5690000000000001 -0.34800000000000003 L 0.308 -0.34800000000000003 Z"/></g></g></g></g></svg>