<svg version="1.1" xmlns="http://www.w3.org/2000/svg" xmlns:xlink="http://www.w3.org/1999/xlink" width="753" height="136"><defs><clipPath id="GfJlApmcqlvR"><path fill="none" stroke="none" d=" M 0 0 L 753 0 L 753 136 L 0 136 L 0 0 Z"/></clipPath></defs><g transform="scale(1,1)" clip-path="url(#GfJlApmcqlvR)"><g><path fill="rgb(102,102,102)" stroke="none" paint-order="stroke fill markers" fill-rule="evenodd" d=" M 21.000000000006878 124.5 L 385.00000000001484 124.5 L 385.00000000001484 74.50000000000003 L 21.000000000006878 74.50000000000003 Z" fill-opacity="0.09803921568627451"/><path fill="rgb(0,100,0)" stroke="none" paint-order="stroke fill markers" fill-rule="evenodd" d=" M 385.00000000001484 124.5 L 521.0000000000177 124.5 L 521.0000000000177 74.50000000000003 L 385.00000000001484 74.50000000000003 Z" fill-opacity="0.09803921568627451"/><path fill="rgb(0,153,255)" stroke="none" paint-order="stroke fill markers" fill-rule="evenodd" d=" M 601.0000000000196 124.5 L 736.0000000000225 124.5 L 736.0000000000225 74.50000000000003 L 601.0000000000196 74.50000000000003 Z" fill-opacity="0.09803921568627451"/><path fill="none" stroke="rgb(102,102,102)" paint-order="fill stroke markers" d=" M 21.000000000006878 124.5 L 385.00000000001484 124.5" stroke-opacity="0.6980392156862745" stroke-linecap="round" stroke-linejoin="round" stroke-miterlimit="10" stroke-width="1.5"/><path fill="none" stroke="rgb(102,102,102)" paint-order="fill stroke markers" d=" M 385.00000000001484 124.5 L 385.00000000001484 74.50000000000003" stroke-opacity="0.6980392156862745" stroke-linecap="round" stroke-linejoin="round" stroke-miterlimit="10" stroke-width="1.5"/><path fill="none" stroke="rgb(102,102,102)" paint-order="fill stroke markers" d=" M 385.00000000001484 74.50000000000003 L 21.000000000006878 74.50000000000003" stroke-opacity="0.6980392156862745" stroke-linecap="round" stroke-linejoin="round" stroke-miterlimit="10" stroke-width="1.5"/><path fill="none" stroke="rgb(102,102,102)" paint-order="fill stroke markers" d=" M 21.000000000006878 74.50000000000003 L 21.000000000006878 124.5" stroke-opacity="0.6980392156862745" stroke-linecap="round" stroke-linejoin="round" stroke-miterlimit="10" stroke-width="1.5"/><path fill="none" stroke="rgb(0,100,0)" paint-order="fill stroke markers" d=" M 385.00000000001484 124.5 L 521.0000000000177 124.5" stroke-opacity="0.6980392156862745" stroke-linecap="round" stroke-linejoin="round" stroke-miterlimit="10" stroke-width="1.5"/><path fill="none" stroke="rgb(0,100,0)" paint-order="fill stroke markers" d=" M 521.0000000000177 124.5 L 521.0000000000177 74.50000000000003" stroke-opacity="0.6980392156862745" stroke-linecap="round" stroke-linejoin="round" stroke-miterlimit="10" stroke-width="1.5"/><path fill="none" stroke="rgb(0,100,0)" paint-order="fill stroke markers" d=" M 521.0000000000177 74.50000000000003 L 385.00000000001484 74.50000000000003" stroke-opacity="0.6980392156862745" stroke-linecap="round" stroke-linejoin="round" stroke-miterlimit="10" stroke-width="1.5"/><path fill="none" stroke="rgb(0,100,0)" paint-order="fill stroke markers" d=" M 385.00000000001484 74.50000000000003 L 385.00000000001484 124.5" stroke-opacity="0.6980392156862745" stroke-linecap="round" stroke-linejoin="round" stroke-miterlimit="10" stroke-width="1.5"/><path fill="none" stroke="rgb(0,153,255)" paint-order="fill stroke markers" d=" M 601.0000000000196 124.5 L 736.0000000000225 124.5" stroke-opacity="0.6980392156862745" stroke-linecap="round" stroke-linejoin="round" stroke-miterlimit="10" stroke-width="1.5"/><path fill="none" stroke="rgb(0,153,255)" paint-order="fill stroke markers" d=" M 736.0000000000225 124.5 L 736.0000000000225 74.50000000000003" stroke-opacity="0.6980392156862745" stroke-linecap="round" stroke-linejoin="round" stroke-miterlimit="10" stroke-width="1.5"/><path fill="none" stroke="rgb(0,153,255)" paint-order="fill stroke markers" d=" M 736.0000000000225 74.50000000000003 L 601.0000000000196 74.50000000000003" stroke-opacity="0.6980392156862745" stroke-linecap="round" stroke-linejoin="round" stroke-miterlimit="10" stroke-width="1.5"/><path fill="none" stroke="rgb(0,153,255)" paint-order="fill stroke markers" d=" M 601.0000000000196 74.50000000000003 L 601.0000000000196 124.5" stroke-opacity="0.6980392156862745" stroke-linecap="round" stroke-linejoin="round" stroke-miterlimit="10" stroke-width="1.5"/><g transform="scale(39,39)"><g transform="translate(27.15154305128207,0.7769230769230767) rotate(90,0,0)"><g transform="translate(0,8.700087000000005)"><path fill="rgb(0,0,0)" stroke="none" paint-order="stroke fill markers" d=" M 0.3837890625 0.90087890625 L 0.3837890625 0.4541015625 Q 0.3837890625 0.36083984375 0.420654296875 0.273681640625 Q 0.45751953125 0.1865234375 0.5234375 0.11669921875 Q 0.58935546875 0.046875 0.673828125 0.0029296875 Q 0.67578125 0.0009765625 0.67919921875 0.0009765625 L 0.7099609375 0.0009765625 Q 0.712890625 0.0009765625 0.71533203125 0.00341796875 Q 0.7177734375 0.005859375 0.7177734375 0.009765625 L 0.7177734375 0.041015625 Q 0.7177734375 0.0439453125 0.71484375 0.046875 Q 0.66455078125 0.0791015625 0.624755859375 0.124755859375 Q 0.5849609375 0.17041015625 0.55859375 0.222900390625 Q 0.5322265625 0.275390625 0.51806640625 0.336181640625 Q 0.50390625 0.39697265625 0.50390625 0.4560546875 L 0.50390625 0.90087890625 Q 0.50390625 0.90380859375 0.501220703125 0.906982421875 Q 0.49853515625 0.91015625 0.49609375 0.91015625 L 0.39306640625 0.91015625 Q 0.3896484375 0.91015625 0.38671875 0.9072265625 Q 0.3837890625 0.904296875 0.3837890625 0.90087890625 Z"/></g><g transform="translate(0,9.600096000000006)"><path fill="rgb(0,0,0)" stroke="none" paint-order="stroke fill markers" d=" M 0.3837890625 0.30078125 L 0.3837890625 -0.0009765625 Q 0.3837890625 -0.00439453125 0.38623046875 -0.007080078125 Q 0.388671875 -0.009765625 0.39306640625 -0.009765625 L 0.49609375 -0.009765625 Q 0.4990234375 -0.009765625 0.50146484375 -0.007080078125 Q 0.50390625 -0.00439453125 0.50390625 -0.0009765625 L 0.50390625 0.30078125 Q 0.50390625 0.3037109375 0.501220703125 0.306884765625 Q 0.49853515625 0.31005859375 0.49609375 0.31005859375 L 0.39306640625 0.31005859375 Q 0.3837890625 0.31005859375 0.3837890625 0.30078125 Z"/></g><g transform="translate(0,9.900099000000006)"><path fill="rgb(0,0,0)" stroke="none" paint-order="stroke fill markers" d=" M 0.3837890625 0.30078125 L 0.3837890625 -0.0009765625 Q 0.3837890625 -0.00439453125 0.38623046875 -0.007080078125 Q 0.388671875 -0.009765625 0.39306640625 -0.009765625 L 0.49609375 -0.009765625 Q 0.4990234375 -0.009765625 0.50146484375 -0.007080078125 Q 0.50390625 -0.00439453125 0.50390625 -0.0009765625 L 0.50390625 0.30078125 Q 0.50390625 0.3037109375 0.501220703125 0.306884765625 Q 0.49853515625 0.31005859375 0.49609375 0.31005859375 L 0.39306640625 0.31005859375 Q 0.3837890625 0.31005859375 0.3837890625 0.30078125 Z"/></g><g transform="translate(0,10.200102000000006)"><path fill="rgb(0,0,0)" stroke="none" paint-order="stroke fill markers" d=" M 0.3837890625 0.30078125 L 0.3837890625 -0.0009765625 Q 0.3837890625 -0.00439453125 0.38623046875 -0.007080078125 Q 0.388671875 -0.009765625 0.39306640625 -0.009765625 L 0.49609375 -0.009765625 Q 0.4990234375 -0.009765625 0.50146484375 -0.007080078125 Q 0.50390625 -0.00439453125 0.50390625 -0.0009765625 L 0.50390625 0.30078125 Q 0.50390625 0.3037109375 0.501220703125 0.306884765625 Q 0.49853515625 0.31005859375 0.49609375 0.31005859375 L 0.39306640625 0.31005859375 Q 0.3837890625 0.31005859375 0.3837890625 0.30078125 Z"/></g><g transform="translate(0,10.500105000000007)"><path fill="rgb(0,0,0)" stroke="none" paint-order="stroke fill markers" d=" M 0.3837890625 0.30078125 L 0.3837890625 -0.0009765625 Q 0.3837890625 -0.00439453125 0.38623046875 -0.007080078125 Q 0.388671875 -0.009765625 0.39306640625 -0.009765625 L 0.49609375 -0.009765625 Q 0.4990234375 -0.009765625 0.50146484375 -0.007080078125 Q 0.50390625 -0.00439453125 0.50390625 -0.0009765625 L 0.50390625 0.30078125 Q 0.50390625 0.3037109375 0.501220703125 0.306884765625 Q 0.49853515625 0.31005859375 0.49609375 0.31005859375 L 0.39306640625 0.31005859375 Q 0.3837890625 0.31005859375 0.3837890625 0.30078125 Z"/></g><g transform="translate(0,10.800108000000007)"><path fill="rgb(0,0,0)" stroke="none" paint-order="stroke fill markers" d=" M 0.3837890625 0.30078125 L 0.3837890625 -0.0009765625 Q 0.3837890625 -0.00439453125 0.38623046875 -0.007080078125 Q 0.388671875 -0.009765625 0.39306640625 -0.009765625 L 0.49609375 -0.009765625 Q 0.4990234375 -0.009765625 0.50146484375 -0.007080078125 Q 0.50390625 -0.00439453125 0.50390625 -0.0009765625 L 0.50390625 0.30078125 Q 0.50390625 0.3037109375 0.501220703125 0.306884765625 Q 0.49853515625 0.31005859375 0.49609375 0.31005859375 L 0.39306640625 0.31005859375 Q 0.3837890625 0.31005859375 0.3837890625 0.30078125 Z"/></g><g transform="translate(0,11.100111000000007)"><path fill="rgb(0,0,0)" stroke="none" paint-order="stroke fill markers" d=" M 0.3837890625 0.30078125 L 0.3837890625 -0.0009765625 Q 0.3837890625 -0.00439453125 0.38623046875 -0.007080078125 Q 0.388671875 -0.009765625 0.39306640625 -0.009765625 L 0.49609375 -0.009765625 Q 0.4990234375 -0.009765625 0.50146484375 -0.007080078125 Q 0.50390625 -0.00439453125 0.50390625 -0.0009765625 L 0.50390625 0.30078125 Q 0.50390625 0.3037109375 0.501220703125 0.306884765625 Q 0.49853515625 0.31005859375 0.49609375 0.31005859375 L 0.39306640625 0.31005859375 Q 0.3837890625 0.31005859375 0.3837890625 0.30078125 Z"/></g><g transform="translate(0,11.400114000000007)"><path fill="rgb(0,0,0)" stroke="none" paint-order="stroke fill markers" d=" M 0.3837890625 0.30078125 L 0.3837890625 -0.0009765625 Q 0.3837890625 -0.00439453125 0.38623046875 -0.007080078125 Q 0.388671875 -0.009765625 0.39306640625 -0.009765625 L 0.49609375 -0.009765625 Q 0.4990234375 -0.009765625 0.50146484375 -0.007080078125 Q 0.50390625 -0.00439453125 0.50390625 -0.0009765625 L 0.50390625 0.30078125 Q 0.50390625 0.3037109375 0.501220703125 0.306884765625 Q 0.49853515625 0.31005859375 0.49609375 0.31005859375 L 0.39306640625 0.31005859375 Q 0.3837890625 0.31005859375 0.3837890625 0.30078125 Z"/></g><g transform="translate(0,11.700117000000008)"><path fill="rgb(0,0,0)" stroke="none" paint-order="stroke fill markers" d=" M 0.3837890625 0.30078125 L 0.3837890625 -0.0009765625 Q 0.3837890625 -0.00439453125 0.38623046875 -0.007080078125 Q 0.388671875 -0.009765625 0.39306640625 -0.009765625 L 0.49609375 -0.009765625 Q 0.4990234375 -0.009765625 0.50146484375 -0.007080078125 Q 0.50390625 -0.00439453125 0.50390625 -0.0009765625 L 0.50390625 0.30078125 Q 0.50390625 0.3037109375 0.501220703125 0.306884765625 Q 0.49853515625 0.31005859375 0.49609375 0.31005859375 L 0.39306640625 0.31005859375 Q 0.3837890625 0.31005859375 0.3837890625 0.30078125 Z"/></g><g transform="translate(0,12.000120000000008)"><path fill="rgb(0,0,0)" stroke="none" paint-order="stroke fill markers" d=" M 0.3837890625 0.30078125 L 0.3837890625 -0.0009765625 Q 0.3837890625 -0.00439453125 0.38623046875 -0.007080078125 Q 0.388671875 -0.009765625 0.39306640625 -0.009765625 L 0.49609375 -0.009765625 Q 0.4990234375 -0.009765625 0.50146484375 -0.007080078125 Q 0.50390625 -0.00439453125 0.50390625 -0.0009765625 L 0.50390625 0.30078125 Q 0.50390625 0.3037109375 0.501220703125 0.306884765625 Q 0.49853515625 0.31005859375 0.49609375 0.31005859375 L 0.39306640625 0.31005859375 Q 0.3837890625 0.31005859375 0.3837890625 0.30078125 Z"/></g><g transform="translate(0,12.300123000000008)"><path fill="rgb(0,0,0)" stroke="none" paint-order="stroke fill markers" d=" M 0.3837890625 0.30078125 L 0.3837890625 -0.0009765625 Q 0.3837890625 -0.00439453125 0.38623046875 -0.007080078125 Q 0.388671875 -0.009765625 0.39306640625 -0.009765625 L 0.49609375 -0.009765625 Q 0.4990234375 -0.009765625 0.50146484375 -0.007080078125 Q 0.50390625 -0.00439453125 0.50390625 -0.0009765625 L 0.50390625 0.30078125 Q 0.50390625 0.3037109375 0.501220703125 0.306884765625 Q 0.49853515625 0.31005859375 0.49609375 0.31005859375 L 0.39306640625 0.31005859375 Q 0.3837890625 0.31005859375 0.3837890625 0.30078125 Z"/></g><g transform="translate(0,12.600126000000008)"><path fill="rgb(0,0,0)" stroke="none" paint-order="stroke fill markers" d=" M 0.3837890625 0.30078125 L 0.3837890625 -0.0009765625 Q 0.3837890625 -0.00439453125 0.38623046875 -0.007080078125 Q 0.388671875 -0.009765625 0.39306640625 -0.009765625 L 0.49609375 -0.009765625 Q 0.4990234375 -0.009765625 0.50146484375 -0.007080078125 Q 0.50390625 -0.00439453125 0.50390625 -0.0009765625 L 0.50390625 0.30078125 Q 0.50390625 0.3037109375 0.501220703125 0.306884765625 Q 0.49853515625 0.31005859375 0.49609375 0.31005859375 L 0.39306640625 0.31005859375 Q 0.3837890625 0.31005859375 0.3837890625 0.30078125 Z"/></g><g transform="translate(0,12.900129000000009)"><path fill="rgb(0,0,0)" stroke="none" paint-order="stroke fill markers" d=" M 0.3837890625 0.30078125 L 0.3837890625 -0.0009765625 Q 0.3837890625 -0.00439453125 0.38623046875 -0.007080078125 Q 0.388671875 -0.009765625 0.39306640625 -0.009765625 L 0.49609375 -0.009765625 Q 0.4990234375 -0.009765625 0.50146484375 -0.007080078125 Q 0.50390625 -0.00439453125 0.50390625 -0.0009765625 L 0.50390625 0.30078125 Q 0.50390625 0.3037109375 0.501220703125 0.306884765625 Q 0.49853515625 0.31005859375 0.49609375 0.31005859375 L 0.39306640625 0.31005859375 Q 0.3837890625 0.31005859375 0.3837890625 0.30078125 Z"/></g><g transform="translate(0,13.200132000000009)"><path fill="rgb(0,0,0)" stroke="none" paint-order="stroke fill markers" d=" M 0.3837890625 0.30078125 L 0.3837890625 -0.0009765625 Q 0.3837890625 -0.00439453125 0.38623046875 -0.007080078125 Q 0.388671875 -0.009765625 0.39306640625 -0.009765625 L 0.49609375 -0.009765625 Q 0.4990234375 -0.009765625 0.50146484375 -0.007080078125 Q 0.50390625 -0.00439453125 0.50390625 -0.0009765625 L 0.50390625 0.30078125 Q 0.50390625 0.3037109375 0.501220703125 0.306884765625 Q 0.49853515625 0.31005859375 0.49609375 0.31005859375 L 0.39306640625 0.31005859375 Q 0.3837890625 0.31005859375 0.3837890625 0.30078125 Z"/></g><g transform="translate(0,13.500135000000009)"><path fill="rgb(0,0,0)" stroke="none" paint-order="stroke fill markers" d=" M 0.3837890625 0.30078125 L 0.3837890625 -0.0009765625 Q 0.3837890625 -0.00439453125 0.38623046875 -0.007080078125 Q 0.388671875 -0.009765625 0.39306640625 -0.009765625 L 0.49609375 -0.009765625 Q 0.4990234375 -0.009765625 0.50146484375 -0.007080078125 Q 0.50390625 -0.00439453125 0.50390625 -0.0009765625 L 0.50390625 0.30078125 Q 0.50390625 0.3037109375 0.501220703125 0.306884765625 Q 0.49853515625 0.31005859375 0.49609375 0.31005859375 L 0.39306640625 0.31005859375 Q 0.3837890625 0.31005859375 0.3837890625 0.30078125 Z"/></g><g transform="translate(0,13.80013800000001)"><path fill="rgb(0,0,0)" stroke="none" paint-order="stroke fill markers" d=" M 0.3837890625 0.30078125 L 0.3837890625 -0.0009765625 Q 0.3837890625 -0.00439453125 0.38623046875 -0.007080078125 Q 0.388671875 -0.009765625 0.39306640625 -0.009765625 L 0.49609375 -0.009765625 Q 0.4990234375 -0.009765625 0.50146484375 -0.007080078125 Q 0.50390625 -0.00439453125 0.50390625 -0.0009765625 L 0.50390625 0.30078125 Q 0.50390625 0.3037109375 0.501220703125 0.306884765625 Q 0.49853515625 0.31005859375 0.49609375 0.31005859375 L 0.39306640625 0.31005859375 Q 0.3837890625 0.31005859375 0.3837890625 0.30078125 Z"/></g><g transform="translate(0,14.10014100000001)"><path fill="rgb(0,0,0)" stroke="none" paint-order="stroke fill markers" d=" M 0.3837890625 0.30078125 L 0.3837890625 -0.0009765625 Q 0.3837890625 -0.00439453125 0.38623046875 -0.007080078125 Q 0.388671875 -0.009765625 0.39306640625 -0.009765625 L 0.49609375 -0.009765625 Q 0.4990234375 -0.009765625 0.50146484375 -0.007080078125 Q 0.50390625 -0.00439453125 0.50390625 -0.0009765625 L 0.50390625 0.30078125 Q 0.50390625 0.3037109375 0.501220703125 0.306884765625 Q 0.49853515625 0.31005859375 0.49609375 0.31005859375 L 0.39306640625 0.31005859375 Q 0.3837890625 0.31005859375 0.3837890625 0.30078125 Z"/></g><g transform="translate(0,14.40014400000001)"><path fill="rgb(0,0,0)" stroke="none" paint-order="stroke fill markers" d=" M 0.3837890625 0.30078125 L 0.3837890625 -0.0009765625 Q 0.3837890625 -0.00439453125 0.38623046875 -0.007080078125 Q 0.388671875 -0.009765625 0.39306640625 -0.009765625 L 0.49609375 -0.009765625 Q 0.4990234375 -0.009765625 0.50146484375 -0.007080078125 Q 0.50390625 -0.00439453125 0.50390625 -0.0009765625 L 0.50390625 0.30078125 Q 0.50390625 0.3037109375 0.501220703125 0.306884765625 Q 0.49853515625 0.31005859375 0.49609375 0.31005859375 L 0.39306640625 0.31005859375 Q 0.3837890625 0.31005859375 0.3837890625 0.30078125 Z"/></g><g transform="translate(0,14.70014700000001)"><path fill="rgb(0,0,0)" stroke="none" paint-order="stroke fill markers" d=" M 0.3837890625 0.30078125 L 0.3837890625 -0.0009765625 Q 0.3837890625 -0.00439453125 0.38623046875 -0.007080078125 Q 0.388671875 -0.009765625 0.39306640625 -0.009765625 L 0.49609375 -0.009765625 Q 0.4990234375 -0.009765625 0.50146484375 -0.007080078125 Q 0.50390625 -0.00439453125 0.50390625 -0.0009765625 L 0.50390625 0.30078125 Q 0.50390625 0.3037109375 0.501220703125 0.306884765625 Q 0.49853515625 0.31005859375 0.49609375 0.31005859375 L 0.39306640625 0.31005859375 Q 0.3837890625 0.31005859375 0.3837890625 0.30078125 Z"/></g><g transform="translate(0,15.00015000000001)"><path fill="rgb(0,0,0)" stroke="none" paint-order="stroke fill markers" d=" M 0.3837890625 0.30078125 L 0.3837890625 -0.0009765625 Q 0.3837890625 -0.00439453125 0.38623046875 -0.007080078125 Q 0.388671875 -0.009765625 0.39306640625 -0.009765625 L 0.49609375 -0.009765625 Q 0.4990234375 -0.009765625 0.50146484375 -0.007080078125 Q 0.50390625 -0.00439453125 0.50390625 -0.0009765625 L 0.50390625 0.30078125 Q 0.50390625 0.3037109375 0.501220703125 0.306884765625 Q 0.49853515625 0.31005859375 0.49609375 0.31005859375 L 0.39306640625 0.31005859375 Q 0.3837890625 0.31005859375 0.3837890625 0.30078125 Z"/></g><g transform="translate(0,15.30015300000001)"><path fill="rgb(0,0,0)" stroke="none" paint-order="stroke fill markers" d=" M 0.3837890625 0.30078125 L 0.3837890625 -0.0009765625 Q 0.3837890625 -0.00439453125 0.38623046875 -0.007080078125 Q 0.388671875 -0.009765625 0.39306640625 -0.009765625 L 0.49609375 -0.009765625 Q 0.4990234375 -0.009765625 0.50146484375 -0.007080078125 Q 0.50390625 -0.00439453125 0.50390625 -0.0009765625 L 0.50390625 0.30078125 Q 0.50390625 0.3037109375 0.501220703125 0.306884765625 Q 0.49853515625 0.31005859375 0.49609375 0.31005859375 L 0.39306640625 0.31005859375 Q 0.3837890625 0.31005859375 0.3837890625 0.30078125 Z"/></g><g transform="translate(0,15.60015600000001)"><path fill="rgb(0,0,0)" stroke="none" paint-order="stroke fill markers" d=" M 0.3837890625 0.30078125 L 0.3837890625 -0.0009765625 Q 0.3837890625 -0.00439453125 0.38623046875 -0.007080078125 Q 0.388671875 -0.009765625 0.39306640625 -0.009765625 L 0.49609375 -0.009765625 Q 0.4990234375 -0.009765625 0.50146484375 -0.007080078125 Q 0.50390625 -0.00439453125 0.50390625 -0.0009765625 L 0.50390625 0.30078125 Q 0.50390625 0.3037109375 0.501220703125 0.306884765625 Q 0.49853515625 0.31005859375 0.49609375 0.31005859375 L 0.39306640625 0.31005859375 Q 0.3837890625 0.31005859375 0.3837890625 0.30078125 Z"/></g><g transform="translate(0,15.900159000000011)"><path fill="rgb(0,0,0)" stroke="none" paint-order="stroke fill markers" d=" M 0.3837890625 0.30078125 L 0.3837890625 -0.0009765625 Q 0.3837890625 -0.00439453125 0.38623046875 -0.007080078125 Q 0.388671875 -0.009765625 0.39306640625 -0.009765625 L 0.49609375 -0.009765625 Q 0.4990234375 -0.009765625 0.50146484375 -0.007080078125 Q 0.50390625 -0.00439453125 0.50390625 -0.0009765625 L 0.50390625 0.30078125 Q 0.50390625 0.3037109375 0.501220703125 0.306884765625 Q 0.49853515625 0.31005859375 0.49609375 0.31005859375 L 0.39306640625 0.31005859375 Q 0.3837890625 0.31005859375 0.3837890625 0.30078125 Z"/></g><g transform="translate(0,16.20016200000001)"><path fill="rgb(0,0,0)" stroke="none" paint-order="stroke fill markers" d=" M 0.3837890625 0.30078125 L 0.3837890625 -0.0009765625 Q 0.3837890625 -0.00439453125 0.38623046875 -0.007080078125 Q 0.388671875 -0.009765625 0.39306640625 -0.009765625 L 0.49609375 -0.009765625 Q 0.4990234375 -0.009765625 0.50146484375 -0.007080078125 Q 0.50390625 -0.00439453125 0.50390625 -0.0009765625 L 0.50390625 0.30078125 Q 0.50390625 0.3037109375 0.501220703125 0.306884765625 Q 0.49853515625 0.31005859375 0.49609375 0.31005859375 L 0.39306640625 0.31005859375 Q 0.3837890625 0.31005859375 0.3837890625 0.30078125 Z"/></g><g transform="translate(0,16.50016500000001)"><path fill="rgb(0,0,0)" stroke="none" paint-order="stroke fill markers" d=" M 0.3837890625 1.80078125 L 0.3837890625 1.3662109375 Q 0.3837890625 1.302734375 0.37060546875 1.23779296875 Q 0.357421875 1.1728515625 0.33154296875 1.115234375 Q 0.3056640625 1.0576171875 0.265869140625 1.008056640625 Q 0.22607421875 0.95849609375 0.173828125 0.921875 Q 0.169921875 0.919921875 0.169921875 0.916015625 L 0.169921875 0.884765625 Q 0.169921875 0.8798828125 0.173828125 0.8779296875 Q 0.22607421875 0.8408203125 0.266357421875 0.79052734375 Q 0.306640625 0.740234375 0.33203125 0.68359375 Q 0.357421875 0.626953125 0.37060546875 0.562255859375 Q 0.3837890625 0.49755859375 0.3837890625 0.43505859375 L 0.3837890625 -0.0009765625 Q 0.3837890625 -0.00439453125 0.38623046875 -0.007080078125 Q 0.388671875 -0.009765625 0.39306640625 -0.009765625 L 0.49609375 -0.009765625 Q 0.4990234375 -0.009765625 0.50146484375 -0.007080078125 Q 0.50390625 -0.00439453125 0.50390625 -0.0009765625 L 0.50390625 0.43701171875 Q 0.50390625 0.5078125 0.48388671875 0.575927734375 Q 0.4638671875 0.64404296875 0.427490234375 0.70458984375 Q 0.39111328125 0.76513671875 0.340087890625 0.814697265625 Q 0.2890625 0.8642578125 0.22802734375 0.89990234375 Q 0.287109375 0.93359375 0.339111328125 0.984619140625 Q 0.39111328125 1.03564453125 0.427490234375 1.095947265625 Q 0.4638671875 1.15625 0.48388671875 1.22412109375 Q 0.50390625 1.2919921875 0.50390625 1.36376953125 L 0.50390625 1.80078125 Q 0.50390625 1.8037109375 0.501220703125 1.806884765625 Q 0.49853515625 1.81005859375 0.49609375 1.81005859375 L 0.39306640625 1.81005859375 Q 0.3837890625 1.81005859375 0.3837890625 1.80078125 Z"/></g><g transform="translate(0,18.30018300000001)"><path fill="rgb(0,0,0)" stroke="none" paint-order="stroke fill markers" d=" M 0.3837890625 0.30078125 L 0.3837890625 -0.0009765625 Q 0.3837890625 -0.00439453125 0.38623046875 -0.007080078125 Q 0.388671875 -0.009765625 0.39306640625 -0.009765625 L 0.49609375 -0.009765625 Q 0.4990234375 -0.009765625 0.50146484375 -0.007080078125 Q 0.50390625 -0.00439453125 0.50390625 -0.0009765625 L 0.50390625 0.30078125 Q 0.50390625 0.3037109375 0.501220703125 0.306884765625 Q 0.49853515625 0.31005859375 0.49609375 0.31005859375 L 0.39306640625 0.31005859375 Q 0.3837890625 0.31005859375 0.3837890625 0.30078125 Z"/></g><g transform="translate(0,18.60018600000001)"><path fill="rgb(0,0,0)" stroke="none" paint-order="stroke fill markers" d=" M 0.3837890625 0.30078125 L 0.3837890625 -0.0009765625 Q 0.3837890625 -0.00439453125 0.38623046875 -0.007080078125 Q 0.388671875 -0.009765625 0.39306640625 -0.009765625 L 0.49609375 -0.009765625 Q 0.4990234375 -0.009765625 0.50146484375 -0.007080078125 Q 0.50390625 -0.00439453125 0.50390625 -0.0009765625 L 0.50390625 0.30078125 Q 0.50390625 0.3037109375 0.501220703125 0.306884765625 Q 0.49853515625 0.31005859375 0.49609375 0.31005859375 L 0.39306640625 0.31005859375 Q 0.3837890625 0.31005859375 0.3837890625 0.30078125 Z"/></g><g transform="translate(0,18.90018900000001)"><path fill="rgb(0,0,0)" stroke="none" paint-order="stroke fill markers" d=" M 0.3837890625 0.30078125 L 0.3837890625 -0.0009765625 Q 0.3837890625 -0.00439453125 0.38623046875 -0.007080078125 Q 0.388671875 -0.009765625 0.39306640625 -0.009765625 L 0.49609375 -0.009765625 Q 0.4990234375 -0.009765625 0.50146484375 -0.007080078125 Q 0.50390625 -0.00439453125 0.50390625 -0.0009765625 L 0.50390625 0.30078125 Q 0.50390625 0.3037109375 0.501220703125 0.306884765625 Q 0.49853515625 0.31005859375 0.49609375 0.31005859375 L 0.39306640625 0.31005859375 Q 0.3837890625 0.31005859375 0.3837890625 0.30078125 Z"/></g><g transform="translate(0,19.200192000000012)"><path fill="rgb(0,0,0)" stroke="none" paint-order="stroke fill markers" d=" M 0.3837890625 0.30078125 L 0.3837890625 -0.0009765625 Q 0.3837890625 -0.00439453125 0.38623046875 -0.007080078125 Q 0.388671875 -0.009765625 0.39306640625 -0.009765625 L 0.49609375 -0.009765625 Q 0.4990234375 -0.009765625 0.50146484375 -0.007080078125 Q 0.50390625 -0.00439453125 0.50390625 -0.0009765625 L 0.50390625 0.30078125 Q 0.50390625 0.3037109375 0.501220703125 0.306884765625 Q 0.49853515625 0.31005859375 0.49609375 0.31005859375 L 0.39306640625 0.31005859375 Q 0.3837890625 0.31005859375 0.3837890625 0.30078125 Z"/></g><g transform="translate(0,19.500195000000012)"><path fill="rgb(0,0,0)" stroke="none" paint-order="stroke fill markers" d=" M 0.3837890625 0.30078125 L 0.3837890625 -0.0009765625 Q 0.3837890625 -0.00439453125 0.38623046875 -0.007080078125 Q 0.388671875 -0.009765625 0.39306640625 -0.009765625 L 0.49609375 -0.009765625 Q 0.4990234375 -0.009765625 0.50146484375 -0.007080078125 Q 0.50390625 -0.00439453125 0.50390625 -0.0009765625 L 0.50390625 0.30078125 Q 0.50390625 0.3037109375 0.501220703125 0.306884765625 Q 0.49853515625 0.31005859375 0.49609375 0.31005859375 L 0.39306640625 0.31005859375 Q 0.3837890625 0.31005859375 0.3837890625 0.30078125 Z"/></g><g transform="translate(0,19.800198000000012)"><path fill="rgb(0,0,0)" stroke="none" paint-order="stroke fill markers" d=" M 0.3837890625 0.30078125 L 0.3837890625 -0.0009765625 Q 0.3837890625 -0.00439453125 0.38623046875 -0.007080078125 Q 0.388671875 -0.009765625 0.39306640625 -0.009765625 L 0.49609375 -0.009765625 Q 0.4990234375 -0.009765625 0.50146484375 -0.007080078125 Q 0.50390625 -0.00439453125 0.50390625 -0.0009765625 L 0.50390625 0.30078125 Q 0.50390625 0.3037109375 0.501220703125 0.306884765625 Q 0.49853515625 0.31005859375 0.49609375 0.31005859375 L 0.39306640625 0.31005859375 Q 0.3837890625 0.31005859375 0.3837890625 0.30078125 Z"/></g><g transform="translate(0,20.100201000000013)"><path fill="rgb(0,0,0)" stroke="none" paint-order="stroke fill markers" d=" M 0.3837890625 0.30078125 L 0.3837890625 -0.0009765625 Q 0.3837890625 -0.00439453125 0.38623046875 -0.007080078125 Q 0.388671875 -0.009765625 0.39306640625 -0.009765625 L 0.49609375 -0.009765625 Q 0.4990234375 -0.009765625 0.50146484375 -0.007080078125 Q 0.50390625 -0.00439453125 0.50390625 -0.0009765625 L 0.50390625 0.30078125 Q 0.50390625 0.3037109375 0.501220703125 0.306884765625 Q 0.49853515625 0.31005859375 0.49609375 0.31005859375 L 0.39306640625 0.31005859375 Q 0.3837890625 0.31005859375 0.3837890625 0.30078125 Z"/></g><g transform="translate(0,20.400204000000013)"><path fill="rgb(0,0,0)" stroke="none" paint-order="stroke fill markers" d=" M 0.3837890625 0.30078125 L 0.3837890625 -0.0009765625 Q 0.3837890625 -0.00439453125 0.38623046875 -0.007080078125 Q 0.388671875 -0.009765625 0.39306640625 -0.009765625 L 0.49609375 -0.009765625 Q 0.4990234375 -0.009765625 0.50146484375 -0.007080078125 Q 0.50390625 -0.00439453125 0.50390625 -0.0009765625 L 0.50390625 0.30078125 Q 0.50390625 0.3037109375 0.501220703125 0.306884765625 Q 0.49853515625 0.31005859375 0.49609375 0.31005859375 L 0.39306640625 0.31005859375 Q 0.3837890625 0.31005859375 0.3837890625 0.30078125 Z"/></g><g transform="translate(0,20.700207000000013)"><path fill="rgb(0,0,0)" stroke="none" paint-order="stroke fill markers" d=" M 0.3837890625 0.30078125 L 0.3837890625 -0.0009765625 Q 0.3837890625 -0.00439453125 0.38623046875 -0.007080078125 Q 0.388671875 -0.009765625 0.39306640625 -0.009765625 L 0.49609375 -0.009765625 Q 0.4990234375 -0.009765625 0.50146484375 -0.007080078125 Q 0.50390625 -0.00439453125 0.50390625 -0.0009765625 L 0.50390625 0.30078125 Q 0.50390625 0.3037109375 0.501220703125 0.306884765625 Q 0.49853515625 0.31005859375 0.49609375 0.31005859375 L 0.39306640625 0.31005859375 Q 0.3837890625 0.31005859375 0.3837890625 0.30078125 Z"/></g><g transform="translate(0,21.000210000000013)"><path fill="rgb(0,0,0)" stroke="none" paint-order="stroke fill markers" d=" M 0.3837890625 0.30078125 L 0.3837890625 -0.0009765625 Q 0.3837890625 -0.00439453125 0.38623046875 -0.007080078125 Q 0.388671875 -0.009765625 0.39306640625 -0.009765625 L 0.49609375 -0.009765625 Q 0.4990234375 -0.009765625 0.50146484375 -0.007080078125 Q 0.50390625 -0.00439453125 0.50390625 -0.0009765625 L 0.50390625 0.30078125 Q 0.50390625 0.3037109375 0.501220703125 0.306884765625 Q 0.49853515625 0.31005859375 0.49609375 0.31005859375 L 0.39306640625 0.31005859375 Q 0.3837890625 0.31005859375 0.3837890625 0.30078125 Z"/></g><g transform="translate(0,21.300213000000014)"><path fill="rgb(0,0,0)" stroke="none" paint-order="stroke fill markers" d=" M 0.3837890625 0.30078125 L 0.3837890625 -0.0009765625 Q 0.3837890625 -0.00439453125 0.38623046875 -0.007080078125 Q 0.388671875 -0.009765625 0.39306640625 -0.009765625 L 0.49609375 -0.009765625 Q 0.4990234375 -0.009765625 0.50146484375 -0.007080078125 Q 0.50390625 -0.00439453125 0.50390625 -0.0009765625 L 0.50390625 0.30078125 Q 0.50390625 0.3037109375 0.501220703125 0.306884765625 Q 0.49853515625 0.31005859375 0.49609375 0.31005859375 L 0.39306640625 0.31005859375 Q 0.3837890625 0.31005859375 0.3837890625 0.30078125 Z"/></g><g transform="translate(0,21.600216000000014)"><path fill="rgb(0,0,0)" stroke="none" paint-order="stroke fill markers" d=" M 0.3837890625 0.30078125 L 0.3837890625 -0.0009765625 Q 0.3837890625 -0.00439453125 0.38623046875 -0.007080078125 Q 0.388671875 -0.009765625 0.39306640625 -0.009765625 L 0.49609375 -0.009765625 Q 0.4990234375 -0.009765625 0.50146484375 -0.007080078125 Q 0.50390625 -0.00439453125 0.50390625 -0.0009765625 L 0.50390625 0.30078125 Q 0.50390625 0.3037109375 0.501220703125 0.306884765625 Q 0.49853515625 0.31005859375 0.49609375 0.31005859375 L 0.39306640625 0.31005859375 Q 0.3837890625 0.31005859375 0.3837890625 0.30078125 Z"/></g><g transform="translate(0,21.900219000000014)"><path fill="rgb(0,0,0)" stroke="none" paint-order="stroke fill markers" d=" M 0.3837890625 0.30078125 L 0.3837890625 -0.0009765625 Q 0.3837890625 -0.00439453125 0.38623046875 -0.007080078125 Q 0.388671875 -0.009765625 0.39306640625 -0.009765625 L 0.49609375 -0.009765625 Q 0.4990234375 -0.009765625 0.50146484375 -0.007080078125 Q 0.50390625 -0.00439453125 0.50390625 -0.0009765625 L 0.50390625 0.30078125 Q 0.50390625 0.3037109375 0.501220703125 0.306884765625 Q 0.49853515625 0.31005859375 0.49609375 0.31005859375 L 0.39306640625 0.31005859375 Q 0.3837890625 0.31005859375 0.3837890625 0.30078125 Z"/></g><g transform="translate(0,22.200222000000014)"><path fill="rgb(0,0,0)" stroke="none" paint-order="stroke fill markers" d=" M 0.3837890625 0.30078125 L 0.3837890625 -0.0009765625 Q 0.3837890625 -0.00439453125 0.38623046875 -0.007080078125 Q 0.388671875 -0.009765625 0.39306640625 -0.009765625 L 0.49609375 -0.009765625 Q 0.4990234375 -0.009765625 0.50146484375 -0.007080078125 Q 0.50390625 -0.00439453125 0.50390625 -0.0009765625 L 0.50390625 0.30078125 Q 0.50390625 0.3037109375 0.501220703125 0.306884765625 Q 0.49853515625 0.31005859375 0.49609375 0.31005859375 L 0.39306640625 0.31005859375 Q 0.3837890625 0.31005859375 0.3837890625 0.30078125 Z"/></g><g transform="translate(0,22.500225000000015)"><path fill="rgb(0,0,0)" stroke="none" paint-order="stroke fill markers" d=" M 0.3837890625 0.30078125 L 0.3837890625 -0.0009765625 Q 0.3837890625 -0.00439453125 0.38623046875 -0.007080078125 Q 0.388671875 -0.009765625 0.39306640625 -0.009765625 L 0.49609375 -0.009765625 Q 0.4990234375 -0.009765625 0.50146484375 -0.007080078125 Q 0.50390625 -0.00439453125 0.50390625 -0.0009765625 L 0.50390625 0.30078125 Q 0.50390625 0.3037109375 0.501220703125 0.306884765625 Q 0.49853515625 0.31005859375 0.49609375 0.31005859375 L 0.39306640625 0.31005859375 Q 0.3837890625 0.31005859375 0.3837890625 0.30078125 Z"/></g><g transform="translate(0,22.800228000000015)"><path fill="rgb(0,0,0)" stroke="none" paint-order="stroke fill markers" d=" M 0.3837890625 0.30078125 L 0.3837890625 -0.0009765625 Q 0.3837890625 -0.00439453125 0.38623046875 -0.007080078125 Q 0.388671875 -0.009765625 0.39306640625 -0.009765625 L 0.49609375 -0.009765625 Q 0.4990234375 -0.009765625 0.50146484375 -0.007080078125 Q 0.50390625 -0.00439453125 0.50390625 -0.0009765625 L 0.50390625 0.30078125 Q 0.50390625 0.3037109375 0.501220703125 0.306884765625 Q 0.49853515625 0.31005859375 0.49609375 0.31005859375 L 0.39306640625 0.31005859375 Q 0.3837890625 0.31005859375 0.3837890625 0.30078125 Z"/></g><g transform="translate(0,23.100231000000015)"><path fill="rgb(0,0,0)" stroke="none" paint-order="stroke fill markers" d=" M 0.3837890625 0.30078125 L 0.3837890625 -0.0009765625 Q 0.3837890625 -0.00439453125 0.38623046875 -0.007080078125 Q 0.388671875 -0.009765625 0.39306640625 -0.009765625 L 0.49609375 -0.009765625 Q 0.4990234375 -0.009765625 0.50146484375 -0.007080078125 Q 0.50390625 -0.00439453125 0.50390625 -0.0009765625 L 0.50390625 0.30078125 Q 0.50390625 0.3037109375 0.501220703125 0.306884765625 Q 0.49853515625 0.31005859375 0.49609375 0.31005859375 L 0.39306640625 0.31005859375 Q 0.3837890625 0.31005859375 0.3837890625 0.30078125 Z"/></g><g transform="translate(0,23.400234000000015)"><path fill="rgb(0,0,0)" stroke="none" paint-order="stroke fill markers" d=" M 0.3837890625 0.30078125 L 0.3837890625 -0.0009765625 Q 0.3837890625 -0.00439453125 0.38623046875 -0.007080078125 Q 0.388671875 -0.009765625 0.39306640625 -0.009765625 L 0.49609375 -0.009765625 Q 0.4990234375 -0.009765625 0.50146484375 -0.007080078125 Q 0.50390625 -0.00439453125 0.50390625 -0.0009765625 L 0.50390625 0.30078125 Q 0.50390625 0.3037109375 0.501220703125 0.306884765625 Q 0.49853515625 0.31005859375 0.49609375 0.31005859375 L 0.39306640625 0.31005859375 Q 0.3837890625 0.31005859375 0.3837890625 0.30078125 Z"/></g><g transform="translate(0,23.700237000000016)"><path fill="rgb(0,0,0)" stroke="none" paint-order="stroke fill markers" d=" M 0.3837890625 0.30078125 L 0.3837890625 -0.0009765625 Q 0.3837890625 -0.00439453125 0.38623046875 -0.007080078125 Q 0.388671875 -0.009765625 0.39306640625 -0.009765625 L 0.49609375 -0.009765625 Q 0.4990234375 -0.009765625 0.50146484375 -0.007080078125 Q 0.50390625 -0.00439453125 0.50390625 -0.0009765625 L 0.50390625 0.30078125 Q 0.50390625 0.3037109375 0.501220703125 0.306884765625 Q 0.49853515625 0.31005859375 0.49609375 0.31005859375 L 0.39306640625 0.31005859375 Q 0.3837890625 0.31005859375 0.3837890625 0.30078125 Z"/></g><g transform="translate(0,24.000240000000016)"><path fill="rgb(0,0,0)" stroke="none" paint-order="stroke fill markers" d=" M 0.3837890625 0.30078125 L 0.3837890625 -0.0009765625 Q 0.3837890625 -0.00439453125 0.38623046875 -0.007080078125 Q 0.388671875 -0.009765625 0.39306640625 -0.009765625 L 0.49609375 -0.009765625 Q 0.4990234375 -0.009765625 0.50146484375 -0.007080078125 Q 0.50390625 -0.00439453125 0.50390625 -0.0009765625 L 0.50390625 0.30078125 Q 0.50390625 0.3037109375 0.501220703125 0.306884765625 Q 0.49853515625 0.31005859375 0.49609375 0.31005859375 L 0.39306640625 0.31005859375 Q 0.3837890625 0.31005859375 0.3837890625 0.30078125 Z"/></g><g transform="translate(0,24.300243000000016)"><path fill="rgb(0,0,0)" stroke="none" paint-order="stroke fill markers" d=" M 0.3837890625 0.30078125 L 0.3837890625 -0.0009765625 Q 0.3837890625 -0.00439453125 0.38623046875 -0.007080078125 Q 0.388671875 -0.009765625 0.39306640625 -0.009765625 L 0.49609375 -0.009765625 Q 0.4990234375 -0.009765625 0.50146484375 -0.007080078125 Q 0.50390625 -0.00439453125 0.50390625 -0.0009765625 L 0.50390625 0.30078125 Q 0.50390625 0.3037109375 0.501220703125 0.306884765625 Q 0.49853515625 0.31005859375 0.49609375 0.31005859375 L 0.39306640625 0.31005859375 Q 0.3837890625 0.31005859375 0.3837890625 0.30078125 Z"/></g><g transform="translate(0,24.600246000000016)"><path fill="rgb(0,0,0)" stroke="none" paint-order="stroke fill markers" d=" M 0.3837890625 0.30078125 L 0.3837890625 -0.0009765625 Q 0.3837890625 -0.00439453125 0.38623046875 -0.007080078125 Q 0.388671875 -0.009765625 0.39306640625 -0.009765625 L 0.49609375 -0.009765625 Q 0.4990234375 -0.009765625 0.50146484375 -0.007080078125 Q 0.50390625 -0.00439453125 0.50390625 -0.0009765625 L 0.50390625 0.30078125 Q 0.50390625 0.3037109375 0.501220703125 0.306884765625 Q 0.49853515625 0.31005859375 0.49609375 0.31005859375 L 0.39306640625 0.31005859375 Q 0.3837890625 0.31005859375 0.3837890625 0.30078125 Z"/></g><g transform="translate(0,24.900249000000017)"><path fill="rgb(0,0,0)" stroke="none" paint-order="stroke fill markers" d=" M 0.3837890625 0.30078125 L 0.3837890625 -0.0009765625 Q 0.3837890625 -0.00439453125 0.38623046875 -0.007080078125 Q 0.388671875 -0.009765625 0.39306640625 -0.009765625 L 0.49609375 -0.009765625 Q 0.4990234375 -0.009765625 0.50146484375 -0.007080078125 Q 0.50390625 -0.00439453125 0.50390625 -0.0009765625 L 0.50390625 0.30078125 Q 0.50390625 0.3037109375 0.501220703125 0.306884765625 Q 0.49853515625 0.31005859375 0.49609375 0.31005859375 L 0.39306640625 0.31005859375 Q 0.3837890625 0.31005859375 0.3837890625 0.30078125 Z"/></g><g transform="translate(0,25.200252000000017)"><path fill="rgb(0,0,0)" stroke="none" paint-order="stroke fill markers" d=" M 0.673828125 0.89697265625 Q 0.6103515625 0.86376953125 0.55712890625 0.815673828125 Q 0.50390625 0.767578125 0.46533203125 0.709228515625 Q 0.4267578125 0.65087890625 0.4052734375 0.58349609375 Q 0.3837890625 0.51611328125 0.3837890625 0.44580078125 L 0.3837890625 -0.0009765625 Q 0.3837890625 -0.00439453125 0.38623046875 -0.007080078125 Q 0.388671875 -0.009765625 0.39306640625 -0.009765625 L 0.49609375 -0.009765625 Q 0.4990234375 -0.009765625 0.50146484375 -0.007080078125 Q 0.50390625 -0.00439453125 0.50390625 -0.0009765625 L 0.50390625 0.44384765625 Q 0.50390625 0.56689453125 0.558837890625 0.677490234375 Q 0.61376953125 0.7880859375 0.71484375 0.85302734375 Q 0.7177734375 0.85595703125 0.7177734375 0.85986328125 L 0.7177734375 0.89111328125 Q 0.7177734375 0.89404296875 0.71533203125 0.896484375 Q 0.712890625 0.89892578125 0.7099609375 0.89892578125 L 0.67919921875 0.89892578125 Q 0.67578125 0.89892578125 0.673828125 0.89697265625 Z"/></g></g><g transform="translate(6.23736905107344,0.7769230769230767) scale(0.06999999999999999,0.06999999999999999)"><text fill="rgb(0,0,0)" stroke="none" font-family="Serif" font-size="10px" font-style="normal" font-weight="normal" text-decoration="normal" x="0" y="0" text-anchor="start" dominant-baseline="alphabetic">安德森鸢尾花卉数据集</text><g transform="scale(14.285714285714286,14.285714285714286) translate(-6.23736905107344,-0.7769230769230767)"/></g></g><g transform="scale(21,21) translate(18.666666666666668,5.238095238095238) scale(0.1,0.1)"><text fill="rgb(0,0,0)" stroke="none" font-family="Serif" font-size="10px" font-style="normal" font-weight="normal" text-decoration="normal" x="0" y="0" text-anchor="start" dominant-baseline="alphabetic">验证集</text><g transform="scale(10,10) translate(-18.666666666666668,-5.238095238095238) translate(21.706666667262713,5.238095238095238) scale(0.1,0.1)"><text fill="rgb(0,0,0)" stroke="none" font-family="Serif" font-size="10px" font-style="normal" font-weight="normal" text-decoration="normal" x="0" y="0" text-anchor="start" dominant-baseline="alphabetic">：</text><g transform="scale(10,10) translate(-21.706666667262713,-5.238095238095238)"><g transform="translate(22.746666667858758,5.238095238095238)"><path fill="rgb(0,0,0)" stroke="none" paint-order="stroke fill markers" d=" M 0.449 -0.17400000000000002 L 0.449 -0.17400000000000002 L 0.421 0 L 0.05 0 Q 0.05 -0.025 0.056 -0.032 L 0.061 -0.037 L 0.253 -0.251 Q 0.358 -0.369 0.358 -0.47200000000000003 Q 0.358 -0.561 0.304 -0.607 L 0.303 -0.608 L 0.302 -0.608 Q 0.27 -0.635 0.224 -0.635 Q 0.152 -0.635 0.109 -0.5730000000000001 Q 0.097 -0.555 0.089 -0.533 Q 0.092 -0.534 0.10200000000000001 -0.534 Q 0.14200000000000002 -0.534 0.153 -0.498 L 0.153 -0.497 Q 0.155 -0.49 0.155 -0.482 Q 0.155 -0.442 0.117 -0.431 Q 0.109 -0.429 0.10300000000000001 -0.429 Q 0.066 -0.429 0.054 -0.46 Q 0.05 -0.47100000000000003 0.05 -0.485 Q 0.05 -0.562 0.109 -0.617 Q 0.162 -0.666 0.23700000000000002 -0.666 Q 0.34700000000000003 -0.666 0.40800000000000003 -0.592 Q 0.443 -0.549 0.448 -0.49 Q 0.449 -0.481 0.449 -0.47200000000000003 Q 0.449 -0.399 0.394 -0.333 Q 0.365 -0.299 0.304 -0.243 L 0.243 -0.189 L 0.233 -0.18 L 0.127 -0.077 L 0.307 -0.077 Q 0.395 -0.077 0.402 -0.085 Q 0.41200000000000003 -0.099 0.424 -0.17400000000000002 L 0.449 -0.17400000000000002 Z"/></g><g transform="translate(23.246668667858756,5.238095238095238)"><path fill="rgb(0,0,0)" stroke="none" paint-order="stroke fill markers" d=" M 0.46 -0.32 Q 0.46 -0.17400000000000002 0.423 -0.094 Q 0.364 0.018000000000000002 0.249 0.022 Q 0.158 0.022 0.10300000000000001 -0.05 Q 0.092 -0.063 0.084 -0.079 Q 0.039 -0.162 0.039 -0.32 Q 0.039 -0.467 0.076 -0.547 Q 0.126 -0.659 0.23800000000000002 -0.666 L 0.25 -0.666 Q 0.339 -0.666 0.395 -0.595 L 0.395 -0.594 Q 0.40900000000000003 -0.5760000000000001 0.42 -0.554 Q 0.46 -0.46900000000000003 0.46 -0.32 M 0.249 0 L 0.249 0 Q 0.312 0 0.34600000000000003 -0.061 Q 0.36 -0.088 0.366 -0.125 Q 0.377 -0.189 0.377 -0.332 Q 0.377 -0.47100000000000003 0.367 -0.527 Q 0.34900000000000003 -0.622 0.275 -0.641 Q 0.262 -0.644 0.249 -0.644 Q 0.179 -0.644 0.147 -0.5740000000000001 Q 0.136 -0.55 0.13 -0.516 Q 0.122 -0.462 0.122 -0.332 Q 0.122 -0.181 0.133 -0.121 Q 0.151 -0.025 0.221 -0.004 Q 0.23500000000000001 0 0.249 0 Z"/></g><g transform="translate(23.746670667858755,5.238095238095238)"><path fill="rgb(0,0,0)" stroke="none" paint-order="stroke fill markers" d=" M 0.685 -0.712 L 0.179 0.041 Q 0.169 0.055 0.159 0.056 Q 0.14400000000000002 0.056 0.14 0.041 Q 0.139 0.038 0.139 0.036000000000000004 Q 0.139 0.029 0.148 0.016 L 0.597 -0.653 L 0.596 -0.654 Q 0.551 -0.624 0.48 -0.62 Q 0.47100000000000003 -0.619 0.463 -0.619 Q 0.386 -0.619 0.312 -0.661 Q 0.333 -0.609 0.333 -0.548 Q 0.333 -0.442 0.278 -0.382 Q 0.244 -0.34700000000000003 0.203 -0.34700000000000003 Q 0.138 -0.34700000000000003 0.094 -0.41200000000000003 Q 0.056 -0.46900000000000003 0.056 -0.549 Q 0.056 -0.652 0.11800000000000001 -0.712 Q 0.157 -0.75 0.203 -0.75 Q 0.23900000000000002 -0.75 0.275 -0.718 Q 0.356 -0.641 0.462 -0.641 Q 0.582 -0.641 0.652 -0.736 Q 0.664 -0.75 0.673 -0.75 Q 0.6890000000000001 -0.75 0.6920000000000001 -0.735 Q 0.6930000000000001 -0.732 0.6930000000000001 -0.73 Q 0.6930000000000001 -0.724 0.685 -0.712 M 0.20400000000000001 -0.369 Q 0.25 -0.369 0.281 -0.428 Q 0.308 -0.47900000000000004 0.308 -0.549 Q 0.308 -0.649 0.258 -0.7020000000000001 Q 0.233 -0.728 0.20400000000000001 -0.728 Q 0.156 -0.728 0.133 -0.662 Q 0.11800000000000001 -0.618 0.11800000000000001 -0.548 Q 0.11800000000000001 -0.395 0.186 -0.372 Q 0.195 -0.369 0.20400000000000001 -0.369 M 0.647 0.034 Q 0.6930000000000001 0.034 0.724 -0.025 Q 0.751 -0.076 0.751 -0.146 Q 0.751 -0.246 0.7010000000000001 -0.299 Q 0.676 -0.325 0.647 -0.325 Q 0.599 -0.325 0.5760000000000001 -0.259 L 0.5760000000000001 -0.258 Q 0.561 -0.214 0.561 -0.145 Q 0.561 0.008 0.629 0.031 Q 0.638 0.034 0.647 0.034 M 0.776 -0.145 Q 0.776 -0.039 0.721 0.021 Q 0.687 0.056 0.646 0.056 Q 0.581 0.056 0.537 -0.009000000000000001 Q 0.499 -0.066 0.499 -0.146 Q 0.499 -0.249 0.561 -0.309 Q 0.6 -0.34700000000000003 0.646 -0.34700000000000003 Q 0.706 -0.34700000000000003 0.745 -0.277 Q 0.776 -0.221 0.776 -0.145 Z"/></g></g></g></g><g transform="scale(21,21) translate(28.857142857142858,5.190476190476191) scale(0.1,0.1)"><text fill="rgb(0,0,0)" stroke="none" font-family="Serif" font-size="10px" font-style="normal" font-weight="normal" text-decoration="normal" x="0" y="0" text-anchor="start" dominant-baseline="alphabetic">测试集</text><g transform="scale(10,10) translate(-28.857142857142858,-5.190476190476191) translate(31.897142857738903,5.190476190476191) scale(0.1,0.1)"><text fill="rgb(0,0,0)" stroke="none" font-family="Serif" font-size="10px" font-style="normal" font-weight="normal" text-decoration="normal" x="0" y="0" text-anchor="start" dominant-baseline="alphabetic">：</text><g transform="scale(10,10) translate(-31.897142857738903,-5.190476190476191)"><g transform="translate(32.93714285833495,5.190476190476191)"><path fill="rgb(0,0,0)" stroke="none" paint-order="stroke fill markers" d=" M 0.449 -0.17400000000000002 L 0.449 -0.17400000000000002 L 0.421 0 L 0.05 0 Q 0.05 -0.025 0.056 -0.032 L 0.061 -0.037 L 0.253 -0.251 Q 0.358 -0.369 0.358 -0.47200000000000003 Q 0.358 -0.561 0.304 -0.607 L 0.303 -0.608 L 0.302 -0.608 Q 0.27 -0.635 0.224 -0.635 Q 0.152 -0.635 0.109 -0.5730000000000001 Q 0.097 -0.555 0.089 -0.533 Q 0.092 -0.534 0.10200000000000001 -0.534 Q 0.14200000000000002 -0.534 0.153 -0.498 L 0.153 -0.497 Q 0.155 -0.49 0.155 -0.482 Q 0.155 -0.442 0.117 -0.431 Q 0.109 -0.429 0.10300000000000001 -0.429 Q 0.066 -0.429 0.054 -0.46 Q 0.05 -0.47100000000000003 0.05 -0.485 Q 0.05 -0.562 0.109 -0.617 Q 0.162 -0.666 0.23700000000000002 -0.666 Q 0.34700000000000003 -0.666 0.40800000000000003 -0.592 Q 0.443 -0.549 0.448 -0.49 Q 0.449 -0.481 0.449 -0.47200000000000003 Q 0.449 -0.399 0.394 -0.333 Q 0.365 -0.299 0.304 -0.243 L 0.243 -0.189 L 0.233 -0.18 L 0.127 -0.077 L 0.307 -0.077 Q 0.395 -0.077 0.402 -0.085 Q 0.41200000000000003 -0.099 0.424 -0.17400000000000002 L 0.449 -0.17400000000000002 Z"/></g><g transform="translate(33.43714485833495,5.190476190476191)"><path fill="rgb(0,0,0)" stroke="none" paint-order="stroke fill markers" d=" M 0.46 -0.32 Q 0.46 -0.17400000000000002 0.423 -0.094 Q 0.364 0.018000000000000002 0.249 0.022 Q 0.158 0.022 0.10300000000000001 -0.05 Q 0.092 -0.063 0.084 -0.079 Q 0.039 -0.162 0.039 -0.32 Q 0.039 -0.467 0.076 -0.547 Q 0.126 -0.659 0.23800000000000002 -0.666 L 0.25 -0.666 Q 0.339 -0.666 0.395 -0.595 L 0.395 -0.594 Q 0.40900000000000003 -0.5760000000000001 0.42 -0.554 Q 0.46 -0.46900000000000003 0.46 -0.32 M 0.249 0 L 0.249 0 Q 0.312 0 0.34600000000000003 -0.061 Q 0.36 -0.088 0.366 -0.125 Q 0.377 -0.189 0.377 -0.332 Q 0.377 -0.47100000000000003 0.367 -0.527 Q 0.34900000000000003 -0.622 0.275 -0.641 Q 0.262 -0.644 0.249 -0.644 Q 0.179 -0.644 0.147 -0.5740000000000001 Q 0.136 -0.55 0.13 -0.516 Q 0.122 -0.462 0.122 -0.332 Q 0.122 -0.181 0.133 -0.121 Q 0.151 -0.025 0.221 -0.004 Q 0.23500000000000001 0 0.249 0 Z"/></g><g transform="translate(33.937146858334955,5.190476190476191)"><path fill="rgb(0,0,0)" stroke="none" paint-order="stroke fill markers" d=" M 0.685 -0.712 L 0.179 0.041 Q 0.169 0.055 0.159 0.056 Q 0.14400000000000002 0.056 0.14 0.041 Q 0.139 0.038 0.139 0.036000000000000004 Q 0.139 0.029 0.148 0.016 L 0.597 -0.653 L 0.596 -0.654 Q 0.551 -0.624 0.48 -0.62 Q 0.47100000000000003 -0.619 0.463 -0.619 Q 0.386 -0.619 0.312 -0.661 Q 0.333 -0.609 0.333 -0.548 Q 0.333 -0.442 0.278 -0.382 Q 0.244 -0.34700000000000003 0.203 -0.34700000000000003 Q 0.138 -0.34700000000000003 0.094 -0.41200000000000003 Q 0.056 -0.46900000000000003 0.056 -0.549 Q 0.056 -0.652 0.11800000000000001 -0.712 Q 0.157 -0.75 0.203 -0.75 Q 0.23900000000000002 -0.75 0.275 -0.718 Q 0.356 -0.641 0.462 -0.641 Q 0.582 -0.641 0.652 -0.736 Q 0.664 -0.75 0.673 -0.75 Q 0.6890000000000001 -0.75 0.6920000000000001 -0.735 Q 0.6930000000000001 -0.732 0.6930000000000001 -0.73 Q 0.6930000000000001 -0.724 0.685 -0.712 M 0.20400000000000001 -0.369 Q 0.25 -0.369 0.281 -0.428 Q 0.308 -0.47900000000000004 0.308 -0.549 Q 0.308 -0.649 0.258 -0.7020000000000001 Q 0.233 -0.728 0.20400000000000001 -0.728 Q 0.156 -0.728 0.133 -0.662 Q 0.11800000000000001 -0.618 0.11800000000000001 -0.548 Q 0.11800000000000001 -0.395 0.186 -0.372 Q 0.195 -0.369 0.20400000000000001 -0.369 M 0.647 0.034 Q 0.6930000000000001 0.034 0.724 -0.025 Q 0.751 -0.076 0.751 -0.146 Q 0.751 -0.246 0.7010000000000001 -0.299 Q 0.676 -0.325 0.647 -0.325 Q 0.599 -0.325 0.5760000000000001 -0.259 L 0.5760000000000001 -0.258 Q 0.561 -0.214 0.561 -0.145 Q 0.561 0.008 0.629 0.031 Q 0.638 0.034 0.647 0.034 M 0.776 -0.145 Q 0.776 -0.039 0.721 0.021 Q 0.687 0.056 0.646 0.056 Q 0.581 0.056 0.537 -0.009000000000000001 Q 0.499 -0.066 0.499 -0.146 Q 0.499 -0.249 0.561 -0.309 Q 0.6 -0.34700000000000003 0.646 -0.34700000000000003 Q 0.706 -0.34700000000000003 0.745 -0.277 Q 0.776 -0.221 0.776 -0.145 Z"/></g></g></g></g><g transform="scale(21,21) translate(7.523809523809524,5.238095238095238) scale(0.1,0.1)"><text fill="rgb(0,0,0)" stroke="none" font-family="Serif" font-size="10px" font-style="normal" font-weight="normal" text-decoration="normal" x="0" y="0" text-anchor="start" dominant-baseline="alphabetic">训练集</text><g transform="scale(10,10) translate(-7.523809523809524,-5.238095238095238) translate(10.56380952440557,5.238095238095238) scale(0.1,0.1)"><text fill="rgb(0,0,0)" stroke="none" font-family="Serif" font-size="10px" font-style="normal" font-weight="normal" text-decoration="normal" x="0" y="0" text-anchor="start" dominant-baseline="alphabetic">：</text><g transform="scale(10,10) translate(-10.56380952440557,-5.238095238095238)"><g transform="translate(11.603809525001617,5.238095238095238)"><path fill="rgb(0,0,0)" stroke="none" paint-order="stroke fill markers" d=" M 0.132 -0.328 L 0.132 -0.328 Q 0.17300000000000001 -0.427 0.257 -0.427 Q 0.34900000000000003 -0.427 0.40800000000000003 -0.35100000000000003 Q 0.441 -0.31 0.452 -0.255 Q 0.457 -0.23 0.457 -0.20400000000000001 Q 0.457 -0.093 0.38 -0.026000000000000002 Q 0.324 0.022 0.251 0.022 Q 0.149 0.022 0.092 -0.075 Q 0.042 -0.162 0.042 -0.316 Q 0.042 -0.489 0.14 -0.591 Q 0.213 -0.666 0.305 -0.666 Q 0.392 -0.666 0.422 -0.605 Q 0.432 -0.584 0.432 -0.558 Q 0.432 -0.518 0.395 -0.511 Q 0.39 -0.51 0.386 -0.51 Q 0.354 -0.51 0.343 -0.538 Q 0.34 -0.546 0.34 -0.556 Q 0.34 -0.601 0.395 -0.601 Q 0.369 -0.641 0.307 -0.641 Q 0.23700000000000002 -0.641 0.189 -0.578 Q 0.132 -0.503 0.132 -0.352 L 0.132 -0.328 M 0.251 -0.006 L 0.251 -0.006 Q 0.318 -0.006 0.35000000000000003 -0.07100000000000001 Q 0.367 -0.107 0.367 -0.20500000000000002 Q 0.367 -0.305 0.34900000000000003 -0.342 Q 0.318 -0.404 0.256 -0.404 Q 0.177 -0.404 0.147 -0.31 Q 0.134 -0.271 0.134 -0.226 Q 0.134 -0.128 0.152 -0.081 Q 0.171 -0.035 0.211 -0.015 Q 0.23 -0.006 0.251 -0.006 Z"/></g><g transform="translate(12.103811525001618,5.238095238095238)"><path fill="rgb(0,0,0)" stroke="none" paint-order="stroke fill markers" d=" M 0.46 -0.32 Q 0.46 -0.17400000000000002 0.423 -0.094 Q 0.364 0.018000000000000002 0.249 0.022 Q 0.158 0.022 0.10300000000000001 -0.05 Q 0.092 -0.063 0.084 -0.079 Q 0.039 -0.162 0.039 -0.32 Q 0.039 -0.467 0.076 -0.547 Q 0.126 -0.659 0.23800000000000002 -0.666 L 0.25 -0.666 Q 0.339 -0.666 0.395 -0.595 L 0.395 -0.594 Q 0.40900000000000003 -0.5760000000000001 0.42 -0.554 Q 0.46 -0.46900000000000003 0.46 -0.32 M 0.249 0 L 0.249 0 Q 0.312 0 0.34600000000000003 -0.061 Q 0.36 -0.088 0.366 -0.125 Q 0.377 -0.189 0.377 -0.332 Q 0.377 -0.47100000000000003 0.367 -0.527 Q 0.34900000000000003 -0.622 0.275 -0.641 Q 0.262 -0.644 0.249 -0.644 Q 0.179 -0.644 0.147 -0.5740000000000001 Q 0.136 -0.55 0.13 -0.516 Q 0.122 -0.462 0.122 -0.332 Q 0.122 -0.181 0.133 -0.121 Q 0.151 -0.025 0.221 -0.004 Q 0.23500000000000001 0 0.249 0 Z"/></g><g transform="translate(12.603813525001618,5.238095238095238)"><path fill="rgb(0,0,0)" stroke="none" paint-order="stroke fill markers" d=" M 0.685 -0.712 L 0.179 0.041 Q 0.169 0.055 0.159 0.056 Q 0.14400000000000002 0.056 0.14 0.041 Q 0.139 0.038 0.139 0.036000000000000004 Q 0.139 0.029 0.148 0.016 L 0.597 -0.653 L 0.596 -0.654 Q 0.551 -0.624 0.48 -0.62 Q 0.47100000000000003 -0.619 0.463 -0.619 Q 0.386 -0.619 0.312 -0.661 Q 0.333 -0.609 0.333 -0.548 Q 0.333 -0.442 0.278 -0.382 Q 0.244 -0.34700000000000003 0.203 -0.34700000000000003 Q 0.138 -0.34700000000000003 0.094 -0.41200000000000003 Q 0.056 -0.46900000000000003 0.056 -0.549 Q 0.056 -0.652 0.11800000000000001 -0.712 Q 0.157 -0.75 0.203 -0.75 Q 0.23900000000000002 -0.75 0.275 -0.718 Q 0.356 -0.641 0.462 -0.641 Q 0.582 -0.641 0.652 -0.736 Q 0.664 -0.75 0.673 -0.75 Q 0.6890000000000001 -0.75 0.6920000000000001 -0.735 Q 0.6930000000000001 -0.732 0.6930000000000001 -0.73 Q 0.6930000000000001 -0.724 0.685 -0.712 M 0.20400000000000001 -0.369 Q 0.25 -0.369 0.281 -0.428 Q 0.308 -0.47900000000000004 0.308 -0.549 Q 0.308 -0.649 0.258 -0.7020000000000001 Q 0.233 -0.728 0.20400000000000001 -0.728 Q 0.156 -0.728 0.133 -0.662 Q 0.11800000000000001 -0.618 0.11800000000000001 -0.548 Q 0.11800000000000001 -0.395 0.186 -0.372 Q 0.195 -0.369 0.20400000000000001 -0.369 M 0.647 0.034 Q 0.6930000000000001 0.034 0.724 -0.025 Q 0.751 -0.076 0.751 -0.146 Q 0.751 -0.246 0.7010000000000001 -0.299 Q 0.676 -0.325 0.647 -0.325 Q 0.599 -0.325 0.5760000000000001 -0.259 L 0.5760000000000001 -0.258 Q 0.561 -0.214 0.561 -0.145 Q 0.561 0.008 0.629 0.031 Q 0.638 0.034 0.647 0.034 M 0.776 -0.145 Q 0.776 -0.039 0.721 0.021 Q 0.687 0.056 0.646 0.056 Q 0.581 0.056 0.537 -0.009000000000000001 Q 0.499 -0.066 0.499 -0.146 Q 0.499 -0.249 0.561 -0.309 Q 0.6 -0.34700000000000003 0.646 -0.34700000000000003 Q 0.706 -0.34700000000000003 0.745 -0.277 Q 0.776 -0.221 0.776 -0.145 Z"/></g></g></g></g></g></g></svg>