<svg version="1.1" xmlns="http://www.w3.org/2000/svg" xmlns:xlink="http://www.w3.org/1999/xlink" width="667" height="263"><defs><clipPath id="KFFgpoGpbipm"><path fill="none" stroke="none" d=" M 0 0 L 667 0 L 667 263 L 0 263 L 0 0 Z"/></clipPath></defs><g transform="scale(1,1)" clip-path="url(#KFFgpoGpbipm)"><g><path fill="rgb(0,100,0)" stroke="none" paint-order="stroke fill markers" fill-rule="evenodd" d=" M 429.99999999999966 164 L 444.14213562372964 164 L 444.1421356237306 149.85786437626905 L 429.99999999999966 149.85786437627 L 429.99999999999966 164" fill-opacity="0.09803921568627451"/><path fill="none" stroke="rgb(0,100,0)" paint-order="fill stroke markers" d=" M 429.99999999999966 164 L 444.14213562372964 164 L 444.1421356237306 149.85786437626905 L 429.99999999999966 149.85786437627 L 429.99999999999966 164" stroke-opacity="0.6980392156862745" stroke-linecap="round" stroke-linejoin="round" stroke-miterlimit="10" stroke-width="2.5"/><path fill="none" stroke="rgb(0,0,0)" paint-order="fill stroke markers" d=" M 105.00000000000006 174 L 99.79084668186181 176.75419488331713 L 97.83765529451313 178.15961893250005 L 96.30325229593114 179.58239065111061 L 95.17603634183052 181.02135748745735 L 94.7614980863716 181.74655390237822 L 94.44440608792604 182.47536688984883 L 94.22331017845812 183.20765238090775 L 94.0967601899323 183.94326630659353 L 94.06330595431285 184.68206459794476 L 94.12149730356418 185.42390318600002 L 94.26988406965052 186.16863800179786 L 94.50701608453636 186.91612497637686 L 95.24171518856349 188.41877912603255 L 96.3139932713604 189.93071308327566 L 97.71224898864182 191.45077429641472 L 101.44028794951691 194.51066828361485 L 106.33302131690664 197.58924067410123 L 112.29763833652879 200.6772710543422 L 119.24132825410123 203.76553901080607 L 127.07128031534182 206.84482412996113 L 135.6946837659683 209.9059059982757 L 145.0187278516986 212.9395642022181 L 154.95060181825045 215.93657832825667 L 160.11547164612125 217.41846248283335 L 165.3974949113417 218.88772796285969 L 170.78507026962643 220.34322221664422 L 176.26659637669025 221.78379269249547 L 181.83047188824776 223.20828683872202 L 187.4650954600138 224.61555210363235 L 193.1588657477031 226.00443593553504 L 198.90018140703035 227.37378578273862 L 204.67744109371017 228.72244909355163 L 210.47904346345757 230.0492733162826 L 216.29338717198704 231.35310589924012 L 222.10887087501334 232.63279429073265 L 227.91389322825125 233.88718593906876 L 233.69685288741545 235.115128292557 L 239.4461485082208 236.31546879950588 L 245.15017874638193 237.48705490822402 L 250.79734225761348 238.62873406701985 L 256.3760376976303 239.73935372420198 L 261.8746637221471 240.81776132807892 L 267.2816189868786 241.86280432695924 L 272.5853021475395 242.87333016915142 L 277.77411185984454 243.84818630296408 L 287.762037006053 245.68632668338927 L 297.2112240480993 247.37009464746427 L 306.1653283702567 248.89513261969677 L 314.6735610029017 250.25728099463635 L 322.7851329764105 251.4523801668326 L 330.54925532116005 252.47627053083517 L 338.0151390675262 253.32479248119364 L 345.2319952458857 253.9937864124576 L 352.24903488661516 254.47909271917678 L 359.11546902009064 254.77655179590067 L 365.88050867668886 254.882004037179 L 372.5933648867863 254.7912898375613 L 379.3032486807592 254.5002495915972 L 386.05937108898377 254.00472369383635 L 392.9109431418372 253.30055253882836 L 399.9071758696955 252.38357652112285 L 407.09728030293513 251.2496360352694 L 414.530467471932 249.89457147581766 L 422.2546703981199 248.3144332159971 L 430.27264788014577 246.5126938178421 L 438.5309583928337 244.50205963621238 L 446.97264415729495 242.29581475143442 L 455.54074739464176 239.90724324383487 L 464.1783103259858 237.34962919373993 L 472.8283751724402 234.63625668147643 L 481.43398415511604 231.78040978737081 L 489.938179495125 228.7953725917494 L 498.2840034135809 225.6944291749389 L 506.4144981315938 222.49086361726543 L 514.2727058702772 219.19795999905614 L 521.8016688507422 215.82900240063668 L 528.9444292941009 212.39727490233423 L 535.6440294214657 208.91606158447502 L 541.8435114539499 205.39864652738544 L 547.4859176126624 201.8583138113921 L 552.5142901187183 198.30834751682124 L 556.8716711932275 194.76203172399994 L 560.5011030573035 191.23265051325416 L 563.3456279320573 187.73348796491078 L 565.348425675751 184.27781238192205 L 566.0214271454664 182.56985464343865 L 566.4783870095847 180.8759448260198 L 566.7232974571947 179.19646967913397 L 566.7601506773865 177.5318159522495 L 566.5929388592532 175.88237039483488 L 566.2256541918802 174.24851975635852 L 564.9068350657843 171.02915023409415 L 563.963284985242 169.44440484924294 L 562.8356308118223 167.8768013812037 L 560.0439789427137 164.79456719343457 L 556.5638169711805 161.78554166653413 L 552.4270824099426 158.85281879624966 L 547.6657127717248 155.99949257832847 L 542.3116455692452 153.22865700851804 L 536.3968183152282 150.54340608256558 L 529.953168522392 147.9468337962185 L 523.0126337034593 145.44203414522406 L 515.6071513711512 143.03210112532963 L 507.7686590381903 140.72012873228257 L 499.52909421729595 138.50921096183032 L 490.92039442119125 136.40244180972002 L 481.9744971625968 134.40291527169913 L 472.72333995423304 132.51372534351495 L 463.1988603088234 130.73796602091488 L 453.4329957390883 129.0787312996462 L 443.45768375774696 127.53911517545626 L 438.4014654604502 126.81513096093693 L 433.304861877524 126.12221164409249 L 428.17186519805574 125.46074397439142 L 423.00646761113853 124.83111470130211 L 417.8126613058612 124.23371057429296 L 412.5944384713125 123.66891834283243 L 407.35579129658703 123.13712475638897 L 402.1007119707693 122.63871656443098 L 396.83319268295236 122.17408051642673 L 391.557225622228 121.74360336184486 L 386.27680297768484 121.34767185015366 L 380.9959169384104 120.98667273082167 L 375.71855969349775 120.66099275331709 L 370.4487234320357 120.37101866710849 L 365.19040034311877 120.1171372216642 L 359.94758261582865 119.89973516645281 L 354.72426243926554 119.71919925094255 L 349.5244320025083 119.57591622460195 L 344.3520834946572 119.4702728368994 L 339.2112091048009 119.40265583730323 L 334.1058010220255 119.37345197528205 L 329.0398514354198 119.38304800030397 L 319.0422965070926 119.52018670935169 L 309.25048183253847 119.81716596019348 L 299.69515311553573 120.27681697969426 L 290.3859152214498 120.89730988309411 L 281.3142214364807 121.67281274300797 L 272.470935448742 122.59736363803056 L 263.8469209463427 123.66500064675874 L 255.43304161739587 124.86976184778652 L 247.22016115001156 126.2056853197115 L 239.19914323229938 127.66680914112766 L 231.36085155237015 129.24717139063117 L 223.6961497983349 130.94081014681817 L 216.19590165830596 132.74176348828374 L 208.85097082039346 134.6440694936244 L 201.65222097270765 136.64176624143377 L 194.59051580335876 138.7288918103091 L 187.65671900045913 140.89948427884548 L 180.8416942521182 143.14758172563867 L 174.1363052464484 145.4672222292845 L 167.53141567155916 147.8524438683787 L 161.01788921556073 150.29728472151643 L 154.5865895665662 152.79578286729344 L 148.22838041268568 155.34197638430481 L 141.934125442028 157.92990335114706 L 135.69468834270623 160.55360184641668 L 129.50093280282914 163.20710994870734 L 123.34372251050979 165.88446573661554 L 117.2139211538584 168.57970728873636 L 111.10239242098515 171.2868726836663 L 105.00000000000028 174.00000000000045 Z" stroke-opacity="0.6980392156862745" stroke-linecap="round" stroke-linejoin="round" stroke-miterlimit="10" stroke-width="1.5"/><path fill="rgb(0,0,0)" stroke="none" paint-order="stroke fill markers" fill-rule="evenodd" d=" M 105.00000000000006 174 L 99.79084668186181 176.75419488331713 L 97.83765529451313 178.15961893250005 L 96.30325229593114 179.58239065111061 L 95.17603634183052 181.02135748745735 L 94.7614980863716 181.74655390237822 L 94.44440608792604 182.47536688984883 L 94.22331017845812 183.20765238090775 L 94.0967601899323 183.94326630659353 L 94.06330595431285 184.68206459794476 L 94.12149730356418 185.42390318600002 L 94.26988406965052 186.16863800179786 L 94.50701608453636 186.91612497637686 L 95.24171518856349 188.41877912603255 L 96.3139932713604 189.93071308327566 L 97.71224898864182 191.45077429641472 L 101.44028794951691 194.51066828361485 L 106.33302131690664 197.58924067410123 L 112.29763833652879 200.6772710543422 L 119.24132825410123 203.76553901080607 L 127.07128031534182 206.84482412996113 L 135.6946837659683 209.9059059982757 L 145.0187278516986 212.9395642022181 L 154.95060181825045 215.93657832825667 L 160.11547164612125 217.41846248283335 L 165.3974949113417 218.88772796285969 L 170.78507026962643 220.34322221664422 L 176.26659637669025 221.78379269249547 L 181.83047188824776 223.20828683872202 L 187.4650954600138 224.61555210363235 L 193.1588657477031 226.00443593553504 L 198.90018140703035 227.37378578273862 L 204.67744109371017 228.72244909355163 L 210.47904346345757 230.0492733162826 L 216.29338717198704 231.35310589924012 L 222.10887087501334 232.63279429073265 L 227.91389322825125 233.88718593906876 L 233.69685288741545 235.115128292557 L 239.4461485082208 236.31546879950588 L 245.15017874638193 237.48705490822402 L 250.79734225761348 238.62873406701985 L 256.3760376976303 239.73935372420198 L 261.8746637221471 240.81776132807892 L 267.2816189868786 241.86280432695924 L 272.5853021475395 242.87333016915142 L 277.77411185984454 243.84818630296408 L 287.762037006053 245.68632668338927 L 297.2112240480993 247.37009464746427 L 306.1653283702567 248.89513261969677 L 314.6735610029017 250.25728099463635 L 322.7851329764105 251.4523801668326 L 330.54925532116005 252.47627053083517 L 338.0151390675262 253.32479248119364 L 345.2319952458857 253.9937864124576 L 352.24903488661516 254.47909271917678 L 359.11546902009064 254.77655179590067 L 365.88050867668886 254.882004037179 L 372.5933648867863 254.7912898375613 L 379.3032486807592 254.5002495915972 L 386.05937108898377 254.00472369383635 L 392.9109431418372 253.30055253882836 L 399.9071758696955 252.38357652112285 L 407.09728030293513 251.2496360352694 L 414.530467471932 249.89457147581766 L 422.2546703981199 248.3144332159971 L 430.27264788014577 246.5126938178421 L 438.5309583928337 244.50205963621238 L 446.97264415729495 242.29581475143442 L 455.54074739464176 239.90724324383487 L 464.1783103259858 237.34962919373993 L 472.8283751724402 234.63625668147643 L 481.43398415511604 231.78040978737081 L 489.938179495125 228.7953725917494 L 498.2840034135809 225.6944291749389 L 506.4144981315938 222.49086361726543 L 514.2727058702772 219.19795999905614 L 521.8016688507422 215.82900240063668 L 528.9444292941009 212.39727490233423 L 535.6440294214657 208.91606158447502 L 541.8435114539499 205.39864652738544 L 547.4859176126624 201.8583138113921 L 552.5142901187183 198.30834751682124 L 556.8716711932275 194.76203172399994 L 560.5011030573035 191.23265051325416 L 563.3456279320573 187.73348796491078 L 565.348425675751 184.27781238192205 L 566.0214271454664 182.56985464343865 L 566.4783870095847 180.8759448260198 L 566.7232974571947 179.19646967913397 L 566.7601506773865 177.5318159522495 L 566.5929388592532 175.88237039483488 L 566.2256541918802 174.24851975635852 L 564.9068350657843 171.02915023409415 L 563.963284985242 169.44440484924294 L 562.8356308118223 167.8768013812037 L 560.0439789427137 164.79456719343457 L 556.5638169711805 161.78554166653413 L 552.4270824099426 158.85281879624966 L 547.6657127717248 155.99949257832847 L 542.3116455692452 153.22865700851804 L 536.3968183152282 150.54340608256558 L 529.953168522392 147.9468337962185 L 523.0126337034593 145.44203414522406 L 515.6071513711512 143.03210112532963 L 507.7686590381903 140.72012873228257 L 499.52909421729595 138.50921096183032 L 490.92039442119125 136.40244180972002 L 481.9744971625968 134.40291527169913 L 472.72333995423304 132.51372534351495 L 463.1988603088234 130.73796602091488 L 453.4329957390883 129.0787312996462 L 443.45768375774696 127.53911517545626 L 438.4014654604502 126.81513096093693 L 433.304861877524 126.12221164409249 L 428.17186519805574 125.46074397439142 L 423.00646761113853 124.83111470130211 L 417.8126613058612 124.23371057429296 L 412.5944384713125 123.66891834283243 L 407.35579129658703 123.13712475638897 L 402.1007119707693 122.63871656443098 L 396.83319268295236 122.17408051642673 L 391.557225622228 121.74360336184486 L 386.27680297768484 121.34767185015366 L 380.9959169384104 120.98667273082167 L 375.71855969349775 120.66099275331709 L 370.4487234320357 120.37101866710849 L 365.19040034311877 120.1171372216642 L 359.94758261582865 119.89973516645281 L 354.72426243926554 119.71919925094255 L 349.5244320025083 119.57591622460195 L 344.3520834946572 119.4702728368994 L 339.2112091048009 119.40265583730323 L 334.1058010220255 119.37345197528205 L 329.0398514354198 119.38304800030397 L 319.0422965070926 119.52018670935169 L 309.25048183253847 119.81716596019348 L 299.69515311553573 120.27681697969426 L 290.3859152214498 120.89730988309411 L 281.3142214364807 121.67281274300797 L 272.470935448742 122.59736363803056 L 263.8469209463427 123.66500064675874 L 255.43304161739587 124.86976184778652 L 247.22016115001156 126.2056853197115 L 239.19914323229938 127.66680914112766 L 231.36085155237015 129.24717139063117 L 223.6961497983349 130.94081014681817 L 216.19590165830596 132.74176348828374 L 208.85097082039346 134.6440694936244 L 201.65222097270765 136.64176624143377 L 194.59051580335876 138.7288918103091 L 187.65671900045913 140.89948427884548 L 180.8416942521182 143.14758172563867 L 174.1363052464484 145.4672222292845 L 167.53141567155916 147.8524438683787 L 161.01788921556073 150.29728472151643 L 154.5865895665662 152.79578286729344 L 148.22838041268568 155.34197638430481 L 141.934125442028 157.92990335114706 L 135.69468834270623 160.55360184641668 L 129.50093280282914 163.20710994870734 L 123.34372251050979 165.88446573661554 L 117.2139211538584 168.57970728873636 L 111.10239242098515 171.2868726836663 L 105.00000000000028 174.00000000000045 Z" fill-opacity="0.09803921568627451"/><g transform="scale(21,21)"><g transform="translate(6.0476190476190474,9.064284380952381)"><path fill="rgb(0,0,0)" stroke="none" paint-order="stroke fill markers" d=" M 0.308 -0.34800000000000003 L 0.308 -0.34800000000000003 L 0.27 -0.223 Q 0.23900000000000002 -0.123 0.199 -0.022 Q 0.19 -0.003 0.153 0.015 Q 0.136 0.022 0.126 0.022 Q 0.115 0.022 0.115 0.015 Q 0.115 0.012 0.125 -0.015 Q 0.242 -0.317 0.27 -0.532 Q 0.274 -0.5650000000000001 0.274 -0.584 Q 0.274 -0.615 0.246 -0.625 Q 0.23700000000000002 -0.628 0.226 -0.628 Q 0.151 -0.628 0.123 -0.581 L 0.123 -0.58 Q 0.114 -0.5640000000000001 0.106 -0.54 Q 0.096 -0.51 0.049 -0.493 Q 0.037 -0.489 0.03 -0.489 Q 0.028 -0.489 0.02 -0.492 Q 0.036000000000000004 -0.58 0.134 -0.638 Q 0.211 -0.683 0.292 -0.683 Q 0.356 -0.678 0.359 -0.626 Q 0.359 -0.597 0.34600000000000003 -0.516 Q 0.332 -0.44 0.319 -0.393 Q 0.335 -0.403 0.364 -0.403 L 0.63 -0.403 Q 0.681 -0.544 0.729 -0.627 Q 0.742 -0.65 0.749 -0.656 Q 0.784 -0.683 0.807 -0.683 Q 0.8180000000000001 -0.683 0.8180000000000001 -0.675 Q 0.8180000000000001 -0.671 0.811 -0.661 Q 0.707 -0.461 0.662 -0.272 Q 0.64 -0.177 0.64 -0.10300000000000001 Q 0.64 -0.036000000000000004 0.657 -0.019 L 0.657 -0.019 Q 0.668 -0.008 0.686 -0.008 Q 0.6940000000000001 -0.008 0.711 -0.013000000000000001 Q 0.715 -0.035 0.742 -0.053 Q 0.772 -0.074 0.791 -0.074 Q 0.801 -0.074 0.801 -0.066 Q 0.801 -0.034 0.743 0.005 Q 0.68 0.047 0.62 0.047 Q 0.5660000000000001 0.047 0.558 -0.006 Q 0.555 -0.022 0.555 -0.06 Q 0.555 -0.182 0.614 -0.358 Q 0.598 -0.34800000000000003 0.5690000000000001 -0.34800000000000003 L 0.308 -0.34800000000000003 Z"/></g></g><path fill="none" stroke="rgb(0,0,0)" paint-order="fill stroke markers" d=" M 429.99999999999966 164 L 429.99999999999966 14.000000000000057" stroke-opacity="0.6980392156862745" stroke-linejoin="round" stroke-miterlimit="10" stroke-width="1.5" stroke-dasharray="9.5,8"/><path fill="none" stroke="rgb(0,0,0)" paint-order="fill stroke markers" d=" M 429.99999999999966 164 L 479.9999999999996 164" stroke-opacity="0.6980392156862745" stroke-linecap="round" stroke-linejoin="round" stroke-miterlimit="10" stroke-width="1.5"/><path fill="none" stroke="rgb(0,0,0)" paint-order="fill stroke markers" d=" M 175.99999999999994 197 L 429.99999999999966 14.000000000000057" stroke-opacity="0.6980392156862745" stroke-linejoin="round" stroke-miterlimit="10" stroke-width="1.5" stroke-dasharray="9.5,8"/><g transform="scale(21,21)"><g transform="translate(12.666666666666666,4.273809523809524)"><path fill="rgb(0,0,0)" stroke="none" paint-order="stroke fill markers" d=" M 0.375 -0.614 L 0.31 -0.353 L 0.422 -0.353 Q 0.533 -0.353 0.591 -0.41100000000000003 Q 0.635 -0.455 0.645 -0.533 L 0.645 -0.534 Q 0.646 -0.545 0.646 -0.553 Q 0.646 -0.642 0.52 -0.651 L 0.518 -0.651 Q 0.499 -0.652 0.464 -0.652 Q 0.41200000000000003 -0.652 0.403 -0.651 Q 0.385 -0.648 0.379 -0.629 L 0.379 -0.629 Q 0.378 -0.624 0.375 -0.614 M 0.519 -0.34 L 0.519 -0.34 Q 0.605 -0.308 0.612 -0.23500000000000001 Q 0.613 -0.229 0.613 -0.222 Q 0.613 -0.203 0.609 -0.17500000000000002 Q 0.599 -0.095 0.599 -0.061 Q 0.599 -0.009000000000000001 0.625 -0.002 L 0.626 -0.002 Q 0.632 0 0.639 0 Q 0.682 0 0.712 -0.052000000000000005 Q 0.723 -0.069 0.73 -0.091 Q 0.734 -0.105 0.743 -0.105 Q 0.755 -0.105 0.755 -0.093 Q 0.755 -0.073 0.731 -0.037 Q 0.712 -0.008 0.687 0.008 Q 0.663 0.022 0.635 0.022 Q 0.552 0.022 0.519 -0.027 Q 0.502 -0.051000000000000004 0.502 -0.08600000000000001 Q 0.502 -0.107 0.518 -0.171 Q 0.532 -0.225 0.532 -0.24 Q 0.532 -0.302 0.47600000000000003 -0.322 L 0.47600000000000003 -0.323 Q 0.453 -0.331 0.423 -0.331 L 0.304 -0.331 L 0.23800000000000002 -0.066 L 0.23500000000000001 -0.049 Q 0.23500000000000001 -0.032 0.281 -0.031 L 0.281 -0.031 L 0.281 -0.031 L 0.3 -0.031 Q 0.326 -0.031 0.328 -0.02 Q 0.328 0 0.308 0 L 0.182 -0.003 L 0.181 -0.003 L 0.056 0 L 0.055 0 Q 0.041 0 0.041 -0.011 Q 0.041 -0.029 0.056 -0.031 L 0.068 -0.031 Q 0.133 -0.031 0.146 -0.045 Q 0.152 -0.052000000000000005 0.158 -0.073 Q 0.158 -0.074 0.159 -0.078 L 0.293 -0.615 Q 0.297 -0.631 0.297 -0.634 Q 0.297 -0.646 0.281 -0.649 L 0.28 -0.649 L 0.279 -0.649 Q 0.276 -0.649 0.27 -0.65 Q 0.253 -0.652 0.232 -0.652 Q 0.20600000000000002 -0.652 0.20400000000000001 -0.663 Q 0.20400000000000001 -0.681 0.219 -0.683 L 0.233 -0.683 L 0.518 -0.683 Q 0.643 -0.683 0.704 -0.617 Q 0.739 -0.581 0.739 -0.533 Q 0.739 -0.446 0.632 -0.384 Q 0.58 -0.353 0.519 -0.34 Z"/></g><g transform="translate(13.433682666666666,4.273809523809524)"><path fill="rgb(0,0,0)" stroke="none" paint-order="stroke fill markers" d=" M 0.331 0.24 L 0.331 0.24 Q 0.331 0.25 0.321 0.25 Q 0.309 0.25 0.268 0.209 Q 0.20600000000000002 0.147 0.165 0.062 Q 0.099 -0.074 0.099 -0.25 Q 0.099 -0.419 0.162 -0.555 Q 0.214 -0.666 0.294 -0.733 Q 0.315 -0.75 0.321 -0.75 Q 0.331 -0.75 0.331 -0.74 Q 0.331 -0.735 0.318 -0.723 Q 0.157 -0.559 0.157 -0.25 Q 0.157 0.058 0.314 0.218 Q 0.331 0.23500000000000001 0.331 0.24 Z"/></g><g transform="translate(13.822572666666666,4.273809523809524)"><path fill="rgb(0,0,0)" stroke="none" paint-order="stroke fill markers" d=" M 0.47100000000000003 -0.377 L 0.47100000000000003 -0.377 L 0.36 0.067 Q 0.34500000000000003 0.127 0.28200000000000003 0.168 Q 0.224 0.20500000000000002 0.148 0.20500000000000002 Q 0.025 0.20500000000000002 0.016 0.155 Q 0.015 0.15 0.015 0.14400000000000002 Q 0.015 0.10300000000000001 0.052000000000000005 0.089 Q 0.061 0.08600000000000001 0.069 0.08600000000000001 Q 0.1 0.08600000000000001 0.106 0.113 Q 0.107 0.117 0.107 0.121 Q 0.107 0.153 0.077 0.169 Q 0.07200000000000001 0.171 0.066 0.17300000000000001 Q 0.097 0.183 0.146 0.183 Q 0.244 0.183 0.29 0.075 L 0.323 -0.057 L 0.322 -0.058 Q 0.277 -0.008 0.221 -0.001 Q 0.213 0 0.20600000000000002 0 Q 0.136 0 0.098 -0.061 Q 0.073 -0.10200000000000001 0.073 -0.158 Q 0.073 -0.265 0.149 -0.354 Q 0.219 -0.436 0.3 -0.442 L 0.311 -0.442 Q 0.365 -0.442 0.398 -0.391 L 0.404 -0.379 Q 0.41300000000000003 -0.417 0.445 -0.422 Q 0.47100000000000003 -0.422 0.47400000000000003 -0.395 L 0.47100000000000003 -0.377 M 0.341 -0.128 L 0.341 -0.128 L 0.389 -0.319 Q 0.392 -0.331 0.392 -0.334 Q 0.392 -0.354 0.375 -0.382 L 0.375 -0.382 Q 0.363 -0.402 0.34500000000000003 -0.41200000000000003 Q 0.33 -0.42 0.312 -0.42 Q 0.26 -0.42 0.213 -0.353 Q 0.20600000000000002 -0.342 0.2 -0.331 Q 0.168 -0.271 0.149 -0.164 Q 0.14400000000000002 -0.133 0.14400000000000002 -0.114 Q 0.14400000000000002 -0.048 0.182 -0.028 Q 0.193 -0.022 0.209 -0.022 Q 0.248 -0.022 0.29 -0.058 Q 0.334 -0.096 0.341 -0.128 Z"/></g><g transform="translate(14.335420666666666,4.273809523809524)"><path fill="rgb(0,0,0)" stroke="none" paint-order="stroke fill markers" d=" M 0.289 -0.25 L 0.289 -0.25 Q 0.289 -0.081 0.226 0.055 Q 0.17400000000000002 0.166 0.094 0.233 Q 0.073 0.25 0.067 0.25 Q 0.057 0.25 0.057 0.24 Q 0.057 0.23500000000000001 0.07 0.223 Q 0.231 0.059000000000000004 0.231 -0.25 Q 0.231 -0.555 0.081 -0.712 L 0.076 -0.717 Q 0.057 -0.735 0.057 -0.74 Q 0.057 -0.75 0.067 -0.75 Q 0.079 -0.75 0.12 -0.709 Q 0.182 -0.647 0.223 -0.562 Q 0.289 -0.426 0.289 -0.25 Z"/></g></g><path fill="none" stroke="rgb(0,0,0)" paint-order="fill stroke markers" d=" M 429.99999999999966 164 L 190.8749839486809 195.06742334525012" stroke-opacity="0.6980392156862745" stroke-linecap="round" stroke-linejoin="round" stroke-miterlimit="10" stroke-width="1.5"/><path fill="rgb(0,0,0)" stroke="none" paint-order="stroke fill markers" fill-rule="evenodd" d=" M 175.99999999999994 197 L 190.3918397849934 191.3486773580799 L 191.35812811236838 198.78616933242034 Z" fill-opacity="0.6980392156862745"/><path fill="none" stroke="rgb(0,0,0)" paint-order="fill stroke markers" d=" M 175.99999999999994 197 L 415.1250160513187 165.93257665474988" stroke-opacity="0.6980392156862745" stroke-linecap="round" stroke-linejoin="round" stroke-miterlimit="10" stroke-width="1.5"/><path fill="rgb(0,0,0)" stroke="none" paint-order="stroke fill markers" fill-rule="evenodd" d=" M 429.99999999999966 164 L 415.6081602150062 169.6513226419201 L 414.6418718876312 162.21383066757966 Z" fill-opacity="0.6980392156862745"/><g transform="scale(21,21) translate(12.666666666666666,10) scale(0.1,0.1)"><text fill="rgb(0,0,0)" stroke="none" font-family="Serif" font-size="10px" font-style="normal" font-weight="normal" text-decoration="normal" x="0" y="0" text-anchor="start" dominant-baseline="alphabetic">模型的方差</text><g transform="scale(10,10) translate(-12.666666666666666,-10)"/></g><path fill="rgb(0,153,255)" stroke="none" paint-order="stroke fill markers" d=" M 433.99999999999966 14.000000000000057 C 433.99999999999966 16.20913899932323 432.2091389993228 18.000000000000057 429.99999999999966 18.000000000000057 C 427.7908610006765 18.000000000000057 425.99999999999966 16.20913899932323 425.99999999999966 14.000000000000057 C 425.99999999999966 11.790861000676884 427.7908610006765 10.000000000000057 429.99999999999966 10.000000000000057 C 432.2091389993228 10.000000000000057 433.99999999999966 11.790861000676884 433.99999999999966 14.000000000000057 Z" fill-opacity="1"/><path fill="none" stroke="rgb(0,0,0)" paint-order="fill stroke markers" d=" M 433.99999999999966 14.000000000000057 C 433.99999999999966 16.20913899932323 432.2091389993228 18.000000000000057 429.99999999999966 18.000000000000057 C 427.7908610006765 18.000000000000057 425.99999999999966 16.20913899932323 425.99999999999966 14.000000000000057 C 425.99999999999966 11.790861000676884 427.7908610006765 10.000000000000057 429.99999999999966 10.000000000000057 C 432.2091389993228 10.000000000000057 433.99999999999966 11.790861000676884 433.99999999999966 14.000000000000057 Z" stroke-opacity="1" stroke-linecap="round" stroke-linejoin="round" stroke-miterlimit="10"/><g transform="scale(21,21)"><g transform="translate(21.476190476190474,1.0277783333333332)"><path fill="rgb(0,153,255)" stroke="none" paint-order="stroke fill markers" d=" M 0.367 -0.4 L 0.367 -0.4 L 0.307 -0.083 Q 0.298 -0.021 0.271 0.059000000000000004 Q 0.261 0.088 0.251 0.108 Q 0.216 0.182 0.164 0.2 Q 0.151 0.20500000000000002 0.138 0.20500000000000002 Q 0.088 0.20500000000000002 0.064 0.171 Q 0.053 0.156 0.053 0.136 Q 0.053 0.096 0.08700000000000001 0.081 Q 0.097 0.076 0.108 0.076 Q 0.137 0.076 0.14400000000000002 0.101 Q 0.145 0.106 0.145 0.111 Q 0.145 0.145 0.115 0.159 Q 0.10400000000000001 0.164 0.09 0.165 Q 0.109 0.183 0.138 0.183 Q 0.182 0.183 0.20700000000000002 0.085 Q 0.212 0.062 0.219 0.025 L 0.225 -0.005 L 0.3 -0.4 L 0.234 -0.4 Q 0.209 -0.4 0.20700000000000002 -0.40800000000000003 L 0.20600000000000002 -0.40800000000000003 L 0.20600000000000002 -0.41200000000000003 Q 0.20600000000000002 -0.429 0.223 -0.431 L 0.223 -0.431 L 0.23600000000000002 -0.431 L 0.305 -0.431 Q 0.329 -0.556 0.338 -0.588 Q 0.368 -0.6880000000000001 0.444 -0.7030000000000001 Q 0.455 -0.705 0.465 -0.705 Q 0.517 -0.705 0.541 -0.671 L 0.541 -0.671 Q 0.552 -0.656 0.552 -0.636 Q 0.552 -0.596 0.518 -0.581 Q 0.508 -0.5760000000000001 0.497 -0.5760000000000001 Q 0.468 -0.5760000000000001 0.461 -0.601 Q 0.46 -0.606 0.46 -0.611 Q 0.46 -0.642 0.488 -0.657 Q 0.499 -0.664 0.514 -0.665 Q 0.495 -0.683 0.465 -0.683 Q 0.434 -0.683 0.418 -0.649 Q 0.41100000000000003 -0.635 0.394 -0.545 L 0.373 -0.431 L 0.456 -0.431 Q 0.481 -0.431 0.483 -0.42 Q 0.483 -0.402 0.467 -0.4 L 0.466 -0.4 L 0.453 -0.4 L 0.367 -0.4 Z"/></g></g><path fill="rgb(102,153,0)" stroke="none" paint-order="stroke fill markers" d=" M 179.99999999999994 197 C 179.99999999999994 199.20913899932316 178.2091389993231 201 175.99999999999994 201 C 173.79086100067676 201 171.99999999999994 199.20913899932316 171.99999999999994 197 C 171.99999999999994 194.7908610006768 173.79086100067676 193 175.99999999999994 193 C 178.2091389993231 193 179.99999999999994 194.7908610006768 179.99999999999994 197 Z" fill-opacity="1"/><path fill="none" stroke="rgb(0,0,0)" paint-order="fill stroke markers" d=" M 179.99999999999994 197 C 179.99999999999994 199.20913899932316 178.2091389993231 201 175.99999999999994 201 C 173.79086100067676 201 171.99999999999994 199.20913899932316 171.99999999999994 197 C 171.99999999999994 194.7908610006768 173.79086100067676 193 175.99999999999994 193 C 178.2091389993231 193 179.99999999999994 194.7908610006768 179.99999999999994 197 Z" stroke-opacity="1" stroke-linecap="round" stroke-linejoin="round" stroke-miterlimit="10"/><g transform="scale(21,21)"><g transform="translate(7.285714285714286,9.62103119047619)"><path fill="rgb(102,153,0)" stroke="none" paint-order="stroke fill markers" d=" M 0.47100000000000003 -0.377 L 0.47100000000000003 -0.377 L 0.36 0.067 Q 0.34500000000000003 0.127 0.28200000000000003 0.168 Q 0.224 0.20500000000000002 0.148 0.20500000000000002 Q 0.025 0.20500000000000002 0.016 0.155 Q 0.015 0.15 0.015 0.14400000000000002 Q 0.015 0.10300000000000001 0.052000000000000005 0.089 Q 0.061 0.08600000000000001 0.069 0.08600000000000001 Q 0.1 0.08600000000000001 0.106 0.113 Q 0.107 0.117 0.107 0.121 Q 0.107 0.153 0.077 0.169 Q 0.07200000000000001 0.171 0.066 0.17300000000000001 Q 0.097 0.183 0.146 0.183 Q 0.244 0.183 0.29 0.075 L 0.323 -0.057 L 0.322 -0.058 Q 0.277 -0.008 0.221 -0.001 Q 0.213 0 0.20600000000000002 0 Q 0.136 0 0.098 -0.061 Q 0.073 -0.10200000000000001 0.073 -0.158 Q 0.073 -0.265 0.149 -0.354 Q 0.219 -0.436 0.3 -0.442 L 0.311 -0.442 Q 0.365 -0.442 0.398 -0.391 L 0.404 -0.379 Q 0.41300000000000003 -0.417 0.445 -0.422 Q 0.47100000000000003 -0.422 0.47400000000000003 -0.395 L 0.47100000000000003 -0.377 M 0.341 -0.128 L 0.341 -0.128 L 0.389 -0.319 Q 0.392 -0.331 0.392 -0.334 Q 0.392 -0.354 0.375 -0.382 L 0.375 -0.382 Q 0.363 -0.402 0.34500000000000003 -0.41200000000000003 Q 0.33 -0.42 0.312 -0.42 Q 0.26 -0.42 0.213 -0.353 Q 0.20600000000000002 -0.342 0.2 -0.331 Q 0.168 -0.271 0.149 -0.164 Q 0.14400000000000002 -0.133 0.14400000000000002 -0.114 Q 0.14400000000000002 -0.048 0.182 -0.028 Q 0.193 -0.022 0.209 -0.022 Q 0.248 -0.022 0.29 -0.058 Q 0.334 -0.096 0.341 -0.128 Z"/></g></g><path fill="rgb(255,51,102)" stroke="none" paint-order="stroke fill markers" d=" M 434.99999999999966 164 C 434.99999999999966 166.76142374915398 432.7614237491536 169 429.99999999999966 169 C 427.2385762508457 169 424.99999999999966 166.76142374915398 424.99999999999966 164 C 424.99999999999966 161.23857625084602 427.2385762508457 159 429.99999999999966 159 C 432.7614237491536 159 434.99999999999966 161.23857625084602 434.99999999999966 164 Z" fill-opacity="1"/><path fill="none" stroke="rgb(0,0,0)" paint-order="fill stroke markers" d=" M 434.99999999999966 164 C 434.99999999999966 166.76142374915398 432.7614237491536 169 429.99999999999966 169 C 427.2385762508457 169 424.99999999999966 166.76142374915398 424.99999999999966 164 C 424.99999999999966 161.23857625084602 427.2385762508457 159 429.99999999999966 159 C 432.7614237491536 159 434.99999999999966 161.23857625084602 434.99999999999966 164 Z" stroke-opacity="1" stroke-linecap="round" stroke-linejoin="round" stroke-miterlimit="10"/><g transform="scale(21,21)"><g transform="translate(20.19047619047619,9.262396823809524)"><path fill="rgb(255,51,102)" stroke="none" paint-order="stroke fill markers" d=" M 0.28700000000000003 -0.683 L 0.209 -0.365 Q 0.271 -0.442 0.357 -0.442 Q 0.446 -0.442 0.467 -0.373 L 0.467 -0.372 Q 0.47200000000000003 -0.355 0.47200000000000003 -0.335 Q 0.47200000000000003 -0.279 0.41100000000000003 -0.115 Q 0.393 -0.07100000000000001 0.393 -0.044 Q 0.393 -0.011 0.417 -0.011 Q 0.47900000000000004 -0.011 0.515 -0.121 L 0.519 -0.135 Q 0.524 -0.151 0.529 -0.152 L 0.529 -0.153 L 0.534 -0.153 Q 0.546 -0.153 0.546 -0.14300000000000002 Q 0.546 -0.126 0.525 -0.08 Q 0.482 0.011 0.41500000000000004 0.011 Q 0.364 0.011 0.342 -0.032 Q 0.333 -0.05 0.333 -0.07100000000000001 Q 0.333 -0.089 0.34600000000000003 -0.126 Q 0.40800000000000003 -0.28400000000000003 0.40800000000000003 -0.35000000000000003 Q 0.40800000000000003 -0.42 0.354 -0.42 Q 0.306 -0.42 0.258 -0.385 Q 0.221 -0.356 0.193 -0.299 L 0.19 -0.293 Q 0.186 -0.269 0.179 -0.248 Q 0.17400000000000002 -0.225 0.162 -0.181 L 0.14 -0.091 L 0.121 -0.015 Q 0.114 0.006 0.09 0.01 Q 0.08700000000000001 0.011 0.084 0.011 Q 0.06 0.011 0.056 -0.01 Q 0.055 -0.014 0.055 -0.017 Q 0.055 -0.025 0.059000000000000004 -0.039 L 0.20400000000000001 -0.615 L 0.20700000000000002 -0.635 Q 0.20700000000000002 -0.646 0.193 -0.649 L 0.193 -0.649 Q 0.181 -0.652 0.157 -0.652 Q 0.135 -0.652 0.133 -0.664 Q 0.133 -0.681 0.152 -0.684 L 0.274 -0.6940000000000001 Q 0.28700000000000003 -0.6940000000000001 0.28700000000000003 -0.683 Z"/></g><g transform="translate(20.76663569047619,8.849504823809525) scale(0.7,0.7)"><path fill="rgb(255,51,102)" stroke="none" paint-order="stroke fill markers" d=" M 0.261 -0.229 L 0.261 -0.229 L 0.275 -0.07100000000000001 Q 0.278 -0.034 0.249 -0.034 Q 0.231 -0.034 0.225 -0.05 Q 0.223 -0.055 0.224 -0.061 L 0.224 -0.066 L 0.23800000000000002 -0.23 L 0.112 -0.137 Q 0.1 -0.128 0.092 -0.128 Q 0.074 -0.128 0.067 -0.146 Q 0.065 -0.151 0.065 -0.156 Q 0.065 -0.17300000000000001 0.08600000000000001 -0.182 L 0.227 -0.25 L 0.08600000000000001 -0.317 Q 0.065 -0.326 0.065 -0.343 Q 0.065 -0.362 0.084 -0.369 Q 0.088 -0.371 0.092 -0.371 Q 0.098 -0.371 0.112 -0.361 L 0.23800000000000002 -0.269 L 0.224 -0.428 L 0.224 -0.439 Q 0.22 -0.455 0.23800000000000002 -0.462 L 0.23900000000000002 -0.463 L 0.24 -0.463 Q 0.245 -0.465 0.25 -0.465 Q 0.278 -0.465 0.275 -0.429 L 0.261 -0.269 L 0.387 -0.362 Q 0.399 -0.371 0.40700000000000003 -0.371 Q 0.425 -0.371 0.432 -0.353 Q 0.434 -0.34800000000000003 0.434 -0.343 Q 0.434 -0.326 0.41300000000000003 -0.317 L 0.271 -0.249 L 0.41600000000000004 -0.181 Q 0.434 -0.17200000000000001 0.434 -0.156 Q 0.434 -0.137 0.41500000000000004 -0.13 Q 0.41100000000000003 -0.128 0.40700000000000003 -0.128 Q 0.399 -0.128 0.37 -0.15 L 0.261 -0.229 Z"/></g></g></g></g></svg>