<svg version="1.1" xmlns="http://www.w3.org/2000/svg" xmlns:xlink="http://www.w3.org/1999/xlink" width="758" height="322"><defs><clipPath id="yLIbrVxivvNX"><path fill="none" stroke="none" d=" M 0 0 L 758 0 L 758 322 L 0 322 L 0 0 Z"/></clipPath></defs><g transform="scale(1,1)" clip-path="url(#yLIbrVxivvNX)"><g><path fill="none" stroke="rgb(0,0,0)" paint-order="fill stroke markers" d=" M 23.5 2.5 L 23.5 322.5" stroke-opacity="1" stroke-miterlimit="10"/><path fill="none" stroke="rgb(0,0,0)" paint-order="fill stroke markers" d=" M 23.5 1.5 L 19.5 5.5" stroke-opacity="1" stroke-miterlimit="10"/><path fill="none" stroke="rgb(0,0,0)" paint-order="fill stroke markers" d=" M 23.5 1.5 L 27.5 5.5" stroke-opacity="1" stroke-miterlimit="10"/><path fill="none" stroke="rgb(0,0,0)" paint-order="fill stroke markers" d=" M 0.5 277.5 L 756.5 277.5" stroke-opacity="1" stroke-miterlimit="10"/><path fill="none" stroke="rgb(0,0,0)" paint-order="fill stroke markers" d=" M 757.5 277.5 L 753.5 273.5" stroke-opacity="1" stroke-miterlimit="10"/><path fill="none" stroke="rgb(0,0,0)" paint-order="fill stroke markers" d=" M 757.5 277.5 L 753.5 281.5" stroke-opacity="1" stroke-miterlimit="10"/><path fill="none" stroke="rgb(0,0,0)" paint-order="fill stroke markers" d=" M 23.5 277.5 L 23.5 280.5" stroke-opacity="1" stroke-miterlimit="10"/><path fill="none" stroke="rgb(0,0,0)" paint-order="fill stroke markers" d=" M 79.5 277.5 L 79.5 280.5" stroke-opacity="1" stroke-miterlimit="10"/><path fill="none" stroke="rgb(0,0,0)" paint-order="fill stroke markers" d=" M 135.5 277.5 L 135.5 280.5" stroke-opacity="1" stroke-miterlimit="10"/><path fill="none" stroke="rgb(0,0,0)" paint-order="fill stroke markers" d=" M 191.5 277.5 L 191.5 280.5" stroke-opacity="1" stroke-miterlimit="10"/><path fill="none" stroke="rgb(0,0,0)" paint-order="fill stroke markers" d=" M 248.5 277.5 L 248.5 280.5" stroke-opacity="1" stroke-miterlimit="10"/><path fill="none" stroke="rgb(0,0,0)" paint-order="fill stroke markers" d=" M 304.5 277.5 L 304.5 280.5" stroke-opacity="1" stroke-miterlimit="10"/><path fill="none" stroke="rgb(0,0,0)" paint-order="fill stroke markers" d=" M 360.5 277.5 L 360.5 280.5" stroke-opacity="1" stroke-miterlimit="10"/><path fill="none" stroke="rgb(0,0,0)" paint-order="fill stroke markers" d=" M 416.5 277.5 L 416.5 280.5" stroke-opacity="1" stroke-miterlimit="10"/><path fill="none" stroke="rgb(0,0,0)" paint-order="fill stroke markers" d=" M 473.5 277.5 L 473.5 280.5" stroke-opacity="1" stroke-miterlimit="10"/><path fill="none" stroke="rgb(0,0,0)" paint-order="fill stroke markers" d=" M 529.5 277.5 L 529.5 280.5" stroke-opacity="1" stroke-miterlimit="10"/><path fill="none" stroke="rgb(0,0,0)" paint-order="fill stroke markers" d=" M 585.5 277.5 L 585.5 280.5" stroke-opacity="1" stroke-miterlimit="10"/><path fill="none" stroke="rgb(0,0,0)" paint-order="fill stroke markers" d=" M 641.5 277.5 L 641.5 280.5" stroke-opacity="1" stroke-miterlimit="10"/><path fill="none" stroke="rgb(0,0,0)" paint-order="fill stroke markers" d=" M 698.5 277.5 L 698.5 280.5" stroke-opacity="1" stroke-miterlimit="10"/><path fill="none" stroke="rgb(0,0,0)" paint-order="fill stroke markers" d=" M 20.5 221.5 L 23.5 221.5" stroke-opacity="1" stroke-miterlimit="10"/><path fill="none" stroke="rgb(0,0,0)" paint-order="fill stroke markers" d=" M 20.5 165.5 L 23.5 165.5" stroke-opacity="1" stroke-miterlimit="10"/><path fill="none" stroke="rgb(0,0,0)" paint-order="fill stroke markers" d=" M 20.5 108.5 L 23.5 108.5" stroke-opacity="1" stroke-miterlimit="10"/><path fill="none" stroke="rgb(0,0,0)" paint-order="fill stroke markers" d=" M 20.5 52.5 L 23.5 52.5" stroke-opacity="1" stroke-miterlimit="10"/><path fill="none" stroke="rgb(0,153,255)" paint-order="fill stroke markers" d=" M 0 283.0279494782723 L 5.921875 279.67236298103893 L 6.662109375 279.40078131173993 L 7.402343749999998 279.15590186423856 L 8.8828125 278.73954208754253 L 11.843749999999998 278.1564123110292 L 17.765625 277.67744323913473 L 23.6875 277.62494419131633 L 29.609374999999996 277.54630888552714 L 35.53125 277.117740671605 L 41.453125 276.1196076645203 L 47.375 274.41564363121665 L 53.296875 271.93546538805674 L 59.21874999999999 268.6599443197749 L 65.140625 264.6090285496232 L 71.0625 259.83166417234594 L 76.984375 254.397509607027 L 82.90625 248.39017724842878 L 88.828125 241.90177182758458 L 94.75 235.02852579955524 L 100.671875 227.8673591603562 L 106.59375 220.51321480224885 L 112.515625 213.0570412431989 L 118.43749999999999 205.5843126642386 L 124.35937500000001 198.17399196999435 L 130.28125 190.8978563296987 L 136.203125 183.8201166040493 L 142.125 176.99727243473956 L 148.046875 170.4781537608082 L 153.96875 164.30410729939942 L 159.890625 158.50929323857204 L 165.8125 153.12106316937826 L 171.734375 148.16039525087518 L 177.65625 143.64236685850588 L 183.578125 139.5766486045645 L 189.5 135.968006719509 L 195.421875 132.81680341530958 L 201.34375 130.11948707884784 L 207.265625 127.86906601907367 L 213.1875 126.05556106392746 L 219.109375 124.6664336137587 L 225.03125 123.68698684370776 L 230.953125 123.10073864021183 L 236.875 122.8897655843391 L 242.796875 123.0350178813274 L 248.71875000000006 123.51660560263639 L 254.640625 124.31405697235232 L 260.5625 125.40654970981635 L 266.484375 126.77311664863183 L 272.40625 128.3928270006183 L 278.32812500000006 130.24494473204092 L 284.25 132.3090655773483 L 290.17187500000006 134.56523424021478 L 296.09375 136.99404332934688 L 302.015625 139.5767155527416 L 307.93750000000006 142.29517065352653 L 313.859375 145.13207851709035 L 319.78125000000006 148.07089981621647 L 325.70312500000006 151.0959154911361 L 331.625 154.1922462870869 L 337.54687500000006 157.34586349502175 L 343.46875 160.54359196306802 L 349.39062500000006 163.7731063684821 L 355.31250000000006 167.0229216631407 L 361.234375 170.28237853087697 L 367.15625000000006 173.54162462279098 L 373.078125 176.7915922675043 L 379.00000000000006 180.0239732875123 L 384.92187500000006 183.23119149053312 L 390.84375 186.40637334618992 L 396.76562500000006 189.54331730355435 L 402.6875 192.63646215402198 L 408.60937500000006 195.6808547966391 L 414.53125000000006 198.6721177192672 L 420.453125 201.6064164687473 L 426.37500000000006 204.48042734636937 L 432.296875 207.29130553131452 L 438.21875000000006 210.03665380415697 L 444.14062500000006 212.71449201481147 L 450.0625 215.32322741432765 L 455.984375 217.86162594748055 L 461.90625000000006 220.3287845830187 L 467.82812500000006 222.72410474053814 L 473.75 225.0472668570848 L 479.67187500000006 227.29820612259093 L 485.59375000000006 229.4770894009719 L 491.515625 231.58429334300172 L 497.43750000000006 233.6203836878087 L 503.35937500000006 235.58609574186121 L 509.28125 237.48231601752337 L 515.2031250000001 239.31006500753196 L 521.125 241.07048106698474 L 527.046875 242.764805370523 L 532.96875 244.39436790925663 L 538.8906250000001 245.96057448952934 L 544.8125 247.46489469377534 L 550.734375 248.90885076241034 L 556.6562500000001 250.29400735485737 L 562.578125 251.62196214737813 L 568.5 252.89433722530424 L 574.4218750000001 254.1127712274936 L 580.34375 255.27891220132898 L 586.265625 256.39441112729014 L 592.1875 257.46091607302964 L 598.1093750000001 258.48006693793445 L 604.03125 259.4534907503339 L 609.953125 260.3827974807875 L 615.8750000000001 261.2695763362388 L 621.796875 262.1153925012304 L 627.71875 262.9217842938164 L 633.6406250000001 263.69026070528247 L 639.5625 264.4222992942578 L 645.484375 265.11934440728123 L 651.4062500000001 265.78280569934805 L 657.3281250000001 266.4140569294076 L 663.25 267.014435007198 L 669.171875 267.58523926918963 L 675.0937500000001 268.12773096275157 L 681.015625 268.643132918961 L 686.9375 269.1326293957336 L 692.8593750000001 269.59736607416204 L 698.78125 270.03845019211536 L 704.703125 270.4569508002612 L 710.6250000000001 270.8538991267365 L 716.546875 271.2302890377018 L 722.46875 271.58707758197613 L 728.390625 271.92518560885844 L 734.3125000000001 272.2454984491036 L 740.234375 272.5488666498339 L 746.15625 272.8361067549326 L 752.0781250000001 273.1080021231877 L 758 273.36530377712774" stroke-opacity="0.6980392156862745" stroke-linecap="round" stroke-linejoin="round" stroke-miterlimit="10" stroke-width="2"/><g transform="scale(21,21)"><g transform="translate(1.4761904761904763,2.1535835428571426)"><path fill="rgb(0,0,0)" stroke="none" paint-order="stroke fill markers" d=" M 0.028 -0.165 L 0.028 -0.196 L 0.335 -0.665 Q 0.343 -0.677 0.355 -0.677 Q 0.369 -0.677 0.371 -0.666 L 0.371 -0.651 L 0.371 -0.196 L 0.47100000000000003 -0.196 L 0.47100000000000003 -0.165 L 0.371 -0.165 L 0.371 -0.078 Q 0.371 -0.047 0.383 -0.04 Q 0.397 -0.031 0.447 -0.031 L 0.468 -0.031 L 0.468 0 Q 0.427 -0.003 0.332 -0.003 Q 0.23800000000000002 -0.003 0.197 0 L 0.197 -0.031 L 0.218 -0.031 Q 0.28 -0.031 0.29 -0.048 Q 0.294 -0.055 0.294 -0.078 L 0.294 -0.165 L 0.028 -0.165 M 0.3 -0.196 L 0.3 -0.5690000000000001 L 0.056 -0.196 L 0.3 -0.196 Z"/></g><g transform="translate(2.1984153650793647,2.1535835428571426)"><path fill="rgb(0,0,0)" stroke="none" paint-order="stroke fill markers" d=" M 0.192 -0.25 Q 0.192 -0.217 0.162 -0.202 Q 0.151 -0.197 0.139 -0.197 Q 0.106 -0.197 0.091 -0.227 Q 0.08600000000000001 -0.23800000000000002 0.08600000000000001 -0.25 Q 0.08600000000000001 -0.28300000000000003 0.116 -0.298 Q 0.127 -0.303 0.139 -0.303 Q 0.17200000000000001 -0.303 0.187 -0.273 Q 0.192 -0.262 0.192 -0.25 Z"/></g><g transform="translate(2.6984172539682536,2.1535835428571426)"><path fill="rgb(0,0,0)" stroke="none" paint-order="stroke fill markers" d=" M 0.331 0.24 L 0.331 0.24 Q 0.331 0.25 0.321 0.25 Q 0.309 0.25 0.268 0.209 Q 0.20600000000000002 0.147 0.165 0.062 Q 0.099 -0.074 0.099 -0.25 Q 0.099 -0.419 0.162 -0.555 Q 0.214 -0.666 0.294 -0.733 Q 0.315 -0.75 0.321 -0.75 Q 0.331 -0.75 0.331 -0.74 Q 0.331 -0.735 0.318 -0.723 Q 0.157 -0.559 0.157 -0.25 Q 0.157 0.058 0.314 0.218 Q 0.331 0.23500000000000001 0.331 0.24 Z"/></g><g transform="translate(3.0873072539682536,2.1535835428571426)"><path fill="rgb(0,0,0)" stroke="none" paint-order="stroke fill markers" d=" M 0.449 -0.17400000000000002 L 0.449 -0.17400000000000002 L 0.421 0 L 0.05 0 Q 0.05 -0.025 0.056 -0.032 L 0.061 -0.037 L 0.253 -0.251 Q 0.358 -0.369 0.358 -0.47200000000000003 Q 0.358 -0.561 0.304 -0.607 L 0.303 -0.608 L 0.302 -0.608 Q 0.27 -0.635 0.224 -0.635 Q 0.152 -0.635 0.109 -0.5730000000000001 Q 0.097 -0.555 0.089 -0.533 Q 0.092 -0.534 0.10200000000000001 -0.534 Q 0.14200000000000002 -0.534 0.153 -0.498 L 0.153 -0.497 Q 0.155 -0.49 0.155 -0.482 Q 0.155 -0.442 0.117 -0.431 Q 0.109 -0.429 0.10300000000000001 -0.429 Q 0.066 -0.429 0.054 -0.46 Q 0.05 -0.47100000000000003 0.05 -0.485 Q 0.05 -0.562 0.109 -0.617 Q 0.162 -0.666 0.23700000000000002 -0.666 Q 0.34700000000000003 -0.666 0.40800000000000003 -0.592 Q 0.443 -0.549 0.448 -0.49 Q 0.449 -0.481 0.449 -0.47200000000000003 Q 0.449 -0.399 0.394 -0.333 Q 0.365 -0.299 0.304 -0.243 L 0.243 -0.189 L 0.233 -0.18 L 0.127 -0.077 L 0.307 -0.077 Q 0.395 -0.077 0.402 -0.085 Q 0.41200000000000003 -0.099 0.424 -0.17400000000000002 L 0.449 -0.17400000000000002 Z"/></g><g transform="translate(3.5873092539682534,2.1535835428571426)"><path fill="rgb(0,0,0)" stroke="none" paint-order="stroke fill markers" d=" M 0.756 -0.578 L 0.616 -0.021 Q 0.611 -0.002 0.606 -0.001 L 0.605 0 L 0.6 0 Q 0.59 0 0.584 -0.012 Q 0.583 -0.015 0.581 -0.019 L 0.332 -0.608 L 0.323 -0.626 L 0.191 -0.098 Q 0.187 -0.083 0.187 -0.075 Q 0.187 -0.041 0.23 -0.033 Q 0.24 -0.031 0.253 -0.031 Q 0.273 -0.031 0.273 -0.02 Q 0.273 0 0.255 0 L 0.155 -0.003 L 0.152 -0.003 L 0.053 0 L 0.052000000000000005 0 Q 0.039 0 0.039 -0.011 Q 0.039 -0.031 0.056 -0.031 Q 0.135 -0.034 0.156 -0.081 Q 0.16 -0.091 0.164 -0.106 L 0.298 -0.643 Q 0.298 -0.652 0.23 -0.652 Q 0.20400000000000001 -0.652 0.202 -0.663 Q 0.202 -0.681 0.217 -0.683 L 0.231 -0.683 L 0.365 -0.683 Q 0.386 -0.683 0.391 -0.676 Q 0.393 -0.673 0.397 -0.664 L 0.618 -0.14200000000000002 L 0.73 -0.587 Q 0.733 -0.596 0.733 -0.608 Q 0.733 -0.651 0.665 -0.652 Q 0.647 -0.652 0.647 -0.663 Q 0.647 -0.683 0.665 -0.683 L 0.766 -0.68 L 0.767 -0.68 L 0.867 -0.683 L 0.868 -0.683 Q 0.881 -0.683 0.881 -0.672 Q 0.881 -0.652 0.864 -0.652 Q 0.786 -0.649 0.764 -0.603 L 0.764 -0.603 Q 0.76 -0.593 0.756 -0.578 Z"/></g><g transform="translate(4.499808753968253,2.1535835428571426)"><path fill="rgb(0,0,0)" stroke="none" paint-order="stroke fill markers" d=" M 0.289 -0.25 L 0.289 -0.25 Q 0.289 -0.081 0.226 0.055 Q 0.17400000000000002 0.166 0.094 0.233 Q 0.073 0.25 0.067 0.25 Q 0.057 0.25 0.057 0.24 Q 0.057 0.23500000000000001 0.07 0.223 Q 0.231 0.059000000000000004 0.231 -0.25 Q 0.231 -0.555 0.081 -0.712 L 0.076 -0.717 Q 0.057 -0.735 0.057 -0.74 Q 0.057 -0.75 0.067 -0.75 Q 0.079 -0.75 0.12 -0.709 Q 0.182 -0.647 0.223 -0.562 Q 0.289 -0.426 0.289 -0.25 Z"/></g><g transform="translate(4.888698753968253,1.7406915428571426) scale(0.7,0.7)"><path fill="rgb(0,0,0)" stroke="none" paint-order="stroke fill markers" d=" M 0.29 -0.352 L 0.29 -0.352 Q 0.39 -0.332 0.434 -0.254 Q 0.457 -0.215 0.457 -0.171 Q 0.457 -0.08600000000000001 0.387 -0.028 Q 0.326 0.022 0.244 0.022 Q 0.145 0.022 0.085 -0.037 Q 0.042 -0.079 0.042 -0.135 Q 0.042 -0.182 0.084 -0.191 Q 0.091 -0.193 0.098 -0.193 Q 0.136 -0.193 0.149 -0.161 Q 0.153 -0.148 0.154 -0.137 Q 0.154 -0.097 0.11800000000000001 -0.085 Q 0.10400000000000001 -0.08 0.088 -0.082 Q 0.125 -0.02 0.216 -0.008 Q 0.229 -0.006 0.241 -0.006 Q 0.305 -0.006 0.335 -0.069 Q 0.354 -0.109 0.354 -0.171 Q 0.354 -0.304 0.274 -0.331 Q 0.256 -0.337 0.23500000000000001 -0.337 L 0.191 -0.337 Q 0.169 -0.337 0.167 -0.34800000000000003 Q 0.167 -0.358 0.182 -0.36 Q 0.197 -0.36 0.221 -0.363 Q 0.272 -0.365 0.301 -0.402 L 0.301 -0.403 L 0.302 -0.404 L 0.303 -0.405 L 0.304 -0.405 L 0.31 -0.41500000000000004 Q 0.338 -0.462 0.338 -0.529 Q 0.338 -0.622 0.266 -0.638 Q 0.254 -0.641 0.242 -0.641 Q 0.17200000000000001 -0.641 0.128 -0.601 Q 0.117 -0.591 0.109 -0.579 Q 0.171 -0.579 0.171 -0.529 Q 0.171 -0.493 0.14 -0.481 Q 0.131 -0.47800000000000004 0.12 -0.47800000000000004 Q 0.081 -0.47800000000000004 0.07100000000000001 -0.513 L 0.07100000000000001 -0.513 L 0.07100000000000001 -0.514 Q 0.069 -0.522 0.069 -0.53 Q 0.069 -0.597 0.135 -0.637 Q 0.183 -0.666 0.246 -0.666 Q 0.337 -0.666 0.393 -0.612 L 0.395 -0.61 Q 0.43 -0.5740000000000001 0.43 -0.528 Q 0.43 -0.445 0.359 -0.389 Q 0.328 -0.365 0.29 -0.352 Z"/></g><g transform="translate(5.484732566666666,2.1535835428571426)"><path fill="rgb(0,0,0)" stroke="none" paint-order="stroke fill markers" d=" M 0.192 -0.25 Q 0.192 -0.217 0.162 -0.202 Q 0.151 -0.197 0.139 -0.197 Q 0.106 -0.197 0.091 -0.227 Q 0.08600000000000001 -0.23800000000000002 0.08600000000000001 -0.25 Q 0.08600000000000001 -0.28300000000000003 0.116 -0.298 Q 0.127 -0.303 0.139 -0.303 Q 0.17200000000000001 -0.303 0.187 -0.273 Q 0.192 -0.262 0.192 -0.25 Z"/></g><g transform="translate(5.984734455555555,2.1535835428571426)"><path fill="rgb(0,0,0)" stroke="none" paint-order="stroke fill markers" d=" M 0.187 -0.231 L 0.134 -0.231 Q 0.11800000000000001 -0.166 0.11800000000000001 -0.127 Q 0.11800000000000001 -0.048 0.164 -0.021 Q 0.181 -0.011 0.20500000000000002 -0.011 Q 0.295 -0.011 0.367 -0.07100000000000001 Q 0.388 -0.088 0.405 -0.11 Q 0.41200000000000003 -0.12 0.418 -0.12 Q 0.427 -0.12 0.43 -0.107 Q 0.43 -0.096 0.396 -0.064 Q 0.313 0.011 0.203 0.011 Q 0.113 0.011 0.07100000000000001 -0.066 Q 0.046 -0.111 0.046 -0.17 Q 0.046 -0.301 0.148 -0.382 Q 0.223 -0.442 0.308 -0.442 Q 0.38 -0.442 0.406 -0.392 Q 0.41500000000000004 -0.376 0.41500000000000004 -0.357 Q 0.41500000000000004 -0.305 0.37 -0.271 L 0.369 -0.27 Q 0.356 -0.261 0.34 -0.254 Q 0.28500000000000003 -0.231 0.187 -0.231 M 0.14 -0.253 L 0.181 -0.253 Q 0.382 -0.253 0.382 -0.357 Q 0.382 -0.397 0.343 -0.41400000000000003 L 0.343 -0.41400000000000003 Q 0.329 -0.419 0.308 -0.42 Q 0.252 -0.42 0.20500000000000002 -0.374 Q 0.16 -0.33 0.14 -0.253 Z"/></g><g transform="translate(6.450361455555555,1.7406915428571426) scale(0.7,0.7)"><path fill="rgb(0,0,0)" stroke="none" paint-order="stroke fill markers" d=" M 0.661 -0.23 L 0.116 -0.23 Q 0.084 -0.23 0.083 -0.25 Q 0.083 -0.27 0.116 -0.27 L 0.661 -0.27 Q 0.6930000000000001 -0.27 0.6940000000000001 -0.25 Q 0.6940000000000001 -0.23 0.661 -0.23 Z"/></g><g transform="translate(7.0788081536780085,1.4650791428571426) scale(0.5,0.5)"><path fill="rgb(0,0,0)" stroke="none" paint-order="stroke fill markers" d=" M 0.294 -0.64 L 0.294 -0.079 Q 0.294 -0.049 0.306 -0.041 Q 0.323 -0.031 0.387 -0.031 L 0.419 -0.031 L 0.419 0 Q 0.384 -0.003 0.257 -0.003 Q 0.13 -0.003 0.095 0 L 0.095 -0.031 L 0.127 -0.031 Q 0.20400000000000001 -0.031 0.215 -0.049 L 0.216 -0.05 Q 0.22 -0.058 0.22 -0.079 L 0.22 -0.597 Q 0.168 -0.5710000000000001 0.089 -0.5710000000000001 L 0.089 -0.602 Q 0.209 -0.602 0.271 -0.666 Q 0.29 -0.666 0.293 -0.659 L 0.293 -0.659 L 0.293 -0.658 Q 0.294 -0.655 0.294 -0.64 Z"/></g><rect fill="rgb(0,0,0)" stroke="none" x="7.0788081536780085" y="1.5516918928571426" width="0.250001" height="0.027999299999999998"/><g transform="translate(7.0788081536780085,1.9820802428571427) scale(0.5,0.5)"><path fill="rgb(0,0,0)" stroke="none" paint-order="stroke fill markers" d=" M 0.163 -0.457 L 0.28700000000000003 -0.377 Q 0.386 -0.435 0.386 -0.517 Q 0.386 -0.583 0.326 -0.62 Q 0.291 -0.641 0.249 -0.641 Q 0.177 -0.641 0.136 -0.596 L 0.136 -0.596 L 0.135 -0.595 Q 0.113 -0.5690000000000001 0.113 -0.538 Q 0.113 -0.49 0.163 -0.457 M 0.309 -0.362 L 0.309 -0.362 Q 0.386 -0.314 0.403 -0.296 Q 0.406 -0.294 0.40800000000000003 -0.291 Q 0.457 -0.23700000000000002 0.457 -0.168 Q 0.457 -0.079 0.383 -0.023 Q 0.325 0.022 0.249 0.022 Q 0.154 0.022 0.092 -0.037 Q 0.042 -0.085 0.042 -0.151 Q 0.042 -0.263 0.186 -0.335 Q 0.124 -0.377 0.113 -0.389 Q 0.069 -0.438 0.069 -0.499 Q 0.069 -0.579 0.136 -0.629 Q 0.186 -0.666 0.25 -0.666 Q 0.337 -0.666 0.391 -0.611 Q 0.43 -0.5710000000000001 0.43 -0.517 Q 0.43 -0.424 0.309 -0.362 M 0.209 -0.32 L 0.209 -0.32 Q 0.097 -0.25 0.092 -0.151 Q 0.092 -0.078 0.155 -0.035 Q 0.197 -0.006 0.25 -0.006 Q 0.328 -0.006 0.375 -0.055 Q 0.40700000000000003 -0.089 0.40700000000000003 -0.132 Q 0.40700000000000003 -0.19 0.343 -0.23500000000000001 Q 0.341 -0.23600000000000002 0.332 -0.242 L 0.209 -0.32 Z"/></g><g transform="translate(7.412809151800462,1.7406915428571426) scale(0.7,0.7)"><path fill="rgb(0,0,0)" stroke="none" paint-order="stroke fill markers" d=" M 0.298 -0.226 L 0.298 -0.226 L 0.133 -0.226 Q 0.122 -0.182 0.122 -0.14100000000000001 Q 0.122 -0.049 0.186 -0.02 Q 0.20600000000000002 -0.011 0.23 -0.011 Q 0.278 -0.011 0.335 -0.048 Q 0.34400000000000003 -0.054 0.34800000000000003 -0.054 Q 0.358 -0.054 0.358 -0.04 Q 0.358 -0.03 0.318 -0.011 Q 0.272 0.011 0.228 0.011 Q 0.132 0.011 0.081 -0.063 Q 0.047 -0.112 0.047 -0.178 Q 0.047 -0.296 0.14100000000000001 -0.371 Q 0.216 -0.431 0.311 -0.431 L 0.34600000000000003 -0.431 Q 0.373 -0.431 0.376 -0.417 Q 0.37 -0.4 0.343 -0.4 L 0.312 -0.4 Q 0.196 -0.4 0.15 -0.28400000000000003 Q 0.145 -0.271 0.14100000000000001 -0.257 L 0.303 -0.257 Q 0.329 -0.257 0.332 -0.243 Q 0.332 -0.226 0.298 -0.226 Z"/></g><g transform="translate(7.696941951800462,1.4866671428571425) scale(0.5,0.5)"><path fill="rgb(0,0,0)" stroke="none" paint-order="stroke fill markers" d=" M 0.449 -0.17400000000000002 L 0.449 -0.17400000000000002 L 0.421 0 L 0.05 0 Q 0.05 -0.025 0.056 -0.032 L 0.061 -0.037 L 0.253 -0.251 Q 0.358 -0.369 0.358 -0.47200000000000003 Q 0.358 -0.561 0.304 -0.607 L 0.303 -0.608 L 0.302 -0.608 Q 0.27 -0.635 0.224 -0.635 Q 0.152 -0.635 0.109 -0.5730000000000001 Q 0.097 -0.555 0.089 -0.533 Q 0.092 -0.534 0.10200000000000001 -0.534 Q 0.14200000000000002 -0.534 0.153 -0.498 L 0.153 -0.497 Q 0.155 -0.49 0.155 -0.482 Q 0.155 -0.442 0.117 -0.431 Q 0.109 -0.429 0.10300000000000001 -0.429 Q 0.066 -0.429 0.054 -0.46 Q 0.05 -0.47100000000000003 0.05 -0.485 Q 0.05 -0.562 0.109 -0.617 Q 0.162 -0.666 0.23700000000000002 -0.666 Q 0.34700000000000003 -0.666 0.40800000000000003 -0.592 Q 0.443 -0.549 0.448 -0.49 Q 0.449 -0.481 0.449 -0.47200000000000003 Q 0.449 -0.399 0.394 -0.333 Q 0.365 -0.299 0.304 -0.243 L 0.243 -0.189 L 0.233 -0.18 L 0.127 -0.077 L 0.307 -0.077 Q 0.395 -0.077 0.402 -0.085 Q 0.41200000000000003 -0.099 0.424 -0.17400000000000002 L 0.449 -0.17400000000000002 Z"/></g><g transform="translate(7.970752475609986,1.7406915428571426) scale(0.7,0.7)"><path fill="rgb(0,0,0)" stroke="none" paint-order="stroke fill markers" d=" M 0.756 -0.578 L 0.616 -0.021 Q 0.611 -0.002 0.606 -0.001 L 0.605 0 L 0.6 0 Q 0.59 0 0.584 -0.012 Q 0.583 -0.015 0.581 -0.019 L 0.332 -0.608 L 0.323 -0.626 L 0.191 -0.098 Q 0.187 -0.083 0.187 -0.075 Q 0.187 -0.041 0.23 -0.033 Q 0.24 -0.031 0.253 -0.031 Q 0.273 -0.031 0.273 -0.02 Q 0.273 0 0.255 0 L 0.155 -0.003 L 0.152 -0.003 L 0.053 0 L 0.052000000000000005 0 Q 0.039 0 0.039 -0.011 Q 0.039 -0.031 0.056 -0.031 Q 0.135 -0.034 0.156 -0.081 Q 0.16 -0.091 0.164 -0.106 L 0.298 -0.643 Q 0.298 -0.652 0.23 -0.652 Q 0.20400000000000001 -0.652 0.202 -0.663 Q 0.202 -0.681 0.217 -0.683 L 0.231 -0.683 L 0.365 -0.683 Q 0.386 -0.683 0.391 -0.676 Q 0.393 -0.673 0.397 -0.664 L 0.618 -0.14200000000000002 L 0.73 -0.587 Q 0.733 -0.596 0.733 -0.608 Q 0.733 -0.651 0.665 -0.652 Q 0.647 -0.652 0.647 -0.663 Q 0.647 -0.683 0.665 -0.683 L 0.766 -0.68 L 0.767 -0.68 L 0.867 -0.683 L 0.868 -0.683 Q 0.881 -0.683 0.881 -0.672 Q 0.881 -0.652 0.864 -0.652 Q 0.786 -0.649 0.764 -0.603 L 0.764 -0.603 Q 0.76 -0.593 0.756 -0.578 Z"/></g></g><g transform="scale(21,21)"><g transform="translate(34.76190476190476,14.397617714285714)"><path fill="rgb(0,0,0)" stroke="none" paint-order="stroke fill markers" d=" M 0.756 -0.578 L 0.616 -0.021 Q 0.611 -0.002 0.606 -0.001 L 0.605 0 L 0.6 0 Q 0.59 0 0.584 -0.012 Q 0.583 -0.015 0.581 -0.019 L 0.332 -0.608 L 0.323 -0.626 L 0.191 -0.098 Q 0.187 -0.083 0.187 -0.075 Q 0.187 -0.041 0.23 -0.033 Q 0.24 -0.031 0.253 -0.031 Q 0.273 -0.031 0.273 -0.02 Q 0.273 0 0.255 0 L 0.155 -0.003 L 0.152 -0.003 L 0.053 0 L 0.052000000000000005 0 Q 0.039 0 0.039 -0.011 Q 0.039 -0.031 0.056 -0.031 Q 0.135 -0.034 0.156 -0.081 Q 0.16 -0.091 0.164 -0.106 L 0.298 -0.643 Q 0.298 -0.652 0.23 -0.652 Q 0.20400000000000001 -0.652 0.202 -0.663 Q 0.202 -0.681 0.217 -0.683 L 0.231 -0.683 L 0.365 -0.683 Q 0.386 -0.683 0.391 -0.676 Q 0.393 -0.673 0.397 -0.664 L 0.618 -0.14200000000000002 L 0.73 -0.587 Q 0.733 -0.596 0.733 -0.608 Q 0.733 -0.651 0.665 -0.652 Q 0.647 -0.652 0.647 -0.663 Q 0.647 -0.683 0.665 -0.683 L 0.766 -0.68 L 0.767 -0.68 L 0.867 -0.683 L 0.868 -0.683 Q 0.881 -0.683 0.881 -0.672 Q 0.881 -0.652 0.864 -0.652 Q 0.786 -0.649 0.764 -0.603 L 0.764 -0.603 Q 0.76 -0.593 0.756 -0.578 Z"/></g></g></g></g></svg>