<?xml version="1.0" encoding="UTF-8"?>
<!DOCTYPE svg  PUBLIC '-//W3C//DTD SVG 1.1//EN'  'http://www.w3.org/Graphics/SVG/1.1/DTD/svg11.dtd'>
<!-- Created with matplotlib (https://matplotlib.org/) -->
<svg width="432pt" height="216pt" version="1.1" viewBox="0 0 432 216" xmlns="http://www.w3.org/2000/svg" xmlns:xlink="http://www.w3.org/1999/xlink">
 <defs>
  <style type="text/css">*{stroke-linecap:butt;stroke-linejoin:round;}</style>
 </defs>
 <g id="figure_1">
  <g id="patch_1">
   <path d="m0 216h432v-216h-432z" fill="#fff"/>
  </g>
  <g id="axes_1">
   <g id="patch_2">
    <path d="m0.432 198.72h195.97v-198.5h-195.97z" fill="#fff"/>
   </g>
   <g id="PathCollection_1">
    <defs>
     <path id="m72a9cfe748" d="m-3 3 6-6m-6 0 6 6" stroke="#00f" stroke-opacity=".8" stroke-width="1.5"/>
    </defs>
    <g clip-path="url(#p3b3ab0cd93)" fill="#0000ff" fill-opacity=".8" stroke="#0000ff" stroke-opacity=".8" stroke-width="1.5">
     <use x="152.853818" y="161.5005" xlink:href="#m72a9cfe748"/>
     <use x="80.272" y="161.5005" xlink:href="#m72a9cfe748"/>
     <use x="189.144727" y="192.51675" xlink:href="#m72a9cfe748"/>
    </g>
   </g>
   <g id="PathCollection_2">
    <defs>
     <path id="ma43ce5d557" d="m0 3c0.79561 0 1.5587-0.3161 2.1213-0.87868 0.56258-0.56258 0.87868-1.3257 0.87868-2.1213s-0.3161-1.5587-0.87868-2.1213c-0.56258-0.56258-1.3257-0.87868-2.1213-0.87868s-1.5587 0.3161-2.1213 0.87868c-0.56258 0.56258-0.87868 1.3257-0.87868 2.1213s0.3161 1.5587 0.87868 2.1213c0.56258 0.56258 1.3257 0.87868 2.1213 0.87868z" stroke="#000" stroke-opacity=".8"/>
    </defs>
    <g clip-path="url(#p3b3ab0cd93)" fill="#ff0000" fill-opacity=".8" stroke="#000000" stroke-opacity=".8">
     <use x="43.981091" y="6.41925" xlink:href="#ma43ce5d557"/>
     <use x="7.690182" y="99.468" xlink:href="#ma43ce5d557"/>
     <use x="116.562909" y="68.45175" xlink:href="#ma43ce5d557"/>
    </g>
   </g>
   <g id="matplotlib.axis_1">
    <g id="text_1">
     <!-- 超平面的假设空间 -->
     <defs>
      <path id="SimHei-36229" d="m60.547 30.859v-17.969h21.484v17.969zm29.688 42.969q-0.78125-4.6875-1.1719-9.7656l-0.78125-13.281q-0.78125-7.0312-4.5-8.4062-3.7031-1.3594-10.344-2.5312-0.78125 4.2969-2.7344 8.2031 5.8594 0 8 0.78125 2.1562 0.78125 2.5469 4.2969l1.1719 14.453h-11.328q-2.3438-10.938-5.0781-16.219-2.7344-5.2656-8.2031-11.125-2.7344 2.7344-6.6406 5.0781 5.4688 4.2969 8.5938 9.9531 3.125 5.6719 3.9062 12.312-6.25 0-13.281-0.39062v7.0312q7.0312-0.39062 11.719-0.39062zm-37.109-36.719h36.328q-0.39062-7.4219-0.39062-16.016t0.39062-14.453h-36.328q0.39062 5.4688 0.39062 14.25 0 8.7969-0.39062 16.219zm-34.375-20.312q3.5156-4.6875 8.9844-8.2031v32.812q-12.5 0-19.531-0.39062v7.0312q7.0312-0.39062 17.578-0.39062v12.5q-8.5938 0-15.234-0.39062v7.0312q6.6406-0.39062 15.234-0.39062 0 6.6406-0.39062 13.672h7.8125q-0.39062-6.25-0.39062-13.672 6.25 0 12.891 0.39062v-7.0312q-6.25 0.39062-12.891 0.39062v-12.5q6.6406 0 15.234 0.39062v-7.0312q-8.2031 0.39062-13.281 0.39062v-12.891q4.6875 0 11.719 0.39062v-7.0312q-7.0312 0.39062-11.719 0.39062v-17.578q9.375-4.2969 26.359-4.6875 17-0.39062 34.578 1.5625-2.3438-5.0781-2.7344-9.375-15.234-0.39062-26.375-0.39062-11.125 0-19.328 1.7656-8.2031 1.75-15.438 5.4688-7.2188 3.7031-14.641 10.734-1.9531-8.5938-5.8594-16.797-3.9062 3.125-7.4219 4.6875 4.2969 6.25 5.8594 12.297 1.5625 6.0625 2.1406 11.328 0.59375 5.2812 0.59375 12.703 4.2969-0.78125 8.9844-1.5625-1.9531-5.4688-2.7344-15.625z"/>
      <path id="SimHei-24179" d="m14.453 78.125q7.8125-0.39062 13.672-0.39062h42.578q6.25 0 14.453 0.39062v-7.4219q-7.8125 0.39062-14.453 0.39062h-16.016v-39.844h24.219q8.2031 0 15.234 0.39062v-7.4219q-7.0312 0.39062-15.234 0.39062h-24.219v-18.75q0-7.0312 0.39062-16.016h-8.5938q0.39062 8.9844 0.39062 16.016v18.75h-28.516q-5.4688 0-11.719-0.39062v7.4219q6.25-0.39062 12.109-0.39062h28.125v39.844h-18.359q-6.25 0-14.062-0.39062zm21.094-35.156q-3.9062-1.1719-7.4219-3.5156-2.7344 9.375-8.5938 18.75 3.5156 1.1719 6.6406 3.5156 5.8594-10.156 9.375-18.75zm35.547-5.0781q-3.5156 2.3438-7.4219 3.5156 7.0312 10.156 10.547 21.094 3.9062-2.3438 8.5938-3.9062-5.8594-8.9844-11.719-20.703z"/>
      <path id="SimHei-38754" d="m5.8594 75.391q6.6406-0.39062 12.5-0.39062h64.844q5.8594 0 11.719 0.39062v-7.0312q-5.8594 0.39062-11.719 0.39062h-28.516q-1.1719-3.9062-1.7656-7.0312-0.57812-3.125-0.96875-6.6406h34.766q-0.39062-7.0312-0.39062-14.844v-33.594q0-8.2031 0.39062-15.234h-7.8125v5.8594h-57.812v-5.8594h-7.8125q0.39062 5.4688 0.39062 14.844v34.375q0 7.8125-0.39062 14.453h30.859q0.39062 3.125 0.96875 6.0469 0.59375 2.9375 1.375 7.625h-28.125q-6.25 0-12.5-0.39062zm15.234-26.172v-46.094h13.281v46.094zm20.312 0v-10.938h17.188v10.938zm0-16.797v-10.547h17.188v10.547zm0-16.406v-12.891h17.188v12.891zm24.219 33.203v-46.094h13.281v46.094z"/>
      <path id="SimHei-30340" d="m23.828 79.688q5.0781-1.1719 10.547-2.7344-1.5625-2.3438-2.7344-6.8438-1.1719-4.4844-1.9531-8h16.797q-0.39062-7.0312-0.39062-16.797v-34.375q0-6.25 0.39062-14.453h-7.4219v8.2031h-20.312v-8.9844h-7.4219q0.39062 9.7656 0.39062 14.453v34.766q0 10.156-0.39062 17.188h10.938q0.39062 3.9062 0.78125 7.6094 0.39062 3.7188 0.78125 9.9688zm-5.0781-24.609v-17.188h20.312v17.188zm0-24.609v-18.359h20.312v18.359zm72.656 30.859q-0.78125-7.4219-1.1719-14.453l-2.7344-44.141q-1.1719-7.0312-7.0312-8.9844t-12.5-2.3438q0 4.2969-2.7344 8.9844 6.6406-0.39062 10.547 0.1875 3.9062 0.59375 4.6875 4.8906l3.125 48.828h-20.703q-3.125-6.6406-7.4219-14.844-3.125 2.3438-6.6406 3.9062 2.3438 3.5156 5.2656 9.7656 2.9375 6.25 5.0781 13.469 2.1562 7.2344 2.9375 11.922 5.0781-2.3438 9.7656-3.5156-1.9531-3.125-3.5156-6.4531-1.5625-3.3125-2.7344-7.2188zm-34.375-25.391q2.7344 1.5625 6.6406 3.9062 1.9531-3.5156 3.9062-7.8125t4.2969-10.547q-3.125-1.1719-7.0312-3.5156-1.1719 4.2969-3.3281 9.375-2.1406 5.0781-4.4844 8.5938z"/>
      <path id="SimHei-20551" d="m34.375 62.5q0 8.2031-0.39062 11.719h27.344q-0.39062-4.2969-0.39062-12.703 0-8.3906 0.39062-13.859h-20.312v-10.938h8.2031q3.5156 0 9.375 0.39062v-6.6406q-5.8594 0.39062-9.375 0.39062h-8.2031v-12.5h7.4219q5.8594 0 10.547 0.39062v-6.6406q-4.2969 0.39062-10.547 0.39062h-7.4219v-21.484h-7.0312q0.39062 6.25 0.39062 12.891zm6.6406 5.8594v-14.844h13.281v14.844zm26.953 7.0312q5.4688-0.39062 10.547-0.39062h12.891q-0.39062-4.2969-0.59375-13.484-0.1875-9.1719 0.59375-13.859h-11.328q-6.6406 0-13.281-0.39062v6.6406q6.25-0.39062 12.891-0.39062h4.2969v15.625h-3.9062q-7.0312 0-12.109-0.39062zm-5.4688-36.328q5.0781-0.39062 14.062-0.39062h16.016q-2.7344-17.969-10.938-31.641 7.4219-8.2031 14.453-10.938-3.5156-2.7344-5.8594-6.25-5.0781 3.5156-13.281 12.109-8.2031-7.8125-18.359-12.5-2.7344 3.5156-6.25 6.25 12.5 3.5156 20.703 11.719-4.6875 9.375-7.4219 25.391h6.6406q1.9531-13.672 5.4688-19.922 4.6875 7.4219 7.0312 19.922h-7.8125q-8.2031 0-14.453-0.78125zm-46.484-48.438q0.39062 7.0312 0.39062 19.531v37.5q-2.7344-5.8594-7.0312-13.281-2.3438 2.7344-5.4688 5.0781 3.9062 4.2969 9.5625 17.375 5.6719 13.094 8.0156 24.422 3.9062-2.3438 8.9844-3.5156-1.5625-1.1719-3.3281-5.6719-1.75-4.4844-4.0938-11.516v-50.781q0-12.5 0.39062-19.141z"/>
      <path id="SimHei-35774" d="m14.062 74.609q3.5156 1.9531 6.25 4.6875 5.8594-5.8594 11.719-14.062-3.5156-2.3438-6.6406-5.0781-4.2969 7.8125-11.328 14.453zm-8.5938-23.828q4.6875-0.39062 10.156-0.39062h10.938q-0.39062-7.0312-0.39062-15.625v-21.094q4.6875 4.6875 8.2031 8.9844 1.1719-3.5156 3.9062-7.8125-5.0781-4.6875-9.1875-8.7969-4.0938-4.0938-7.6094-8.7812-2.7344 3.9062-5.8594 6.25 3.125 2.7344 3.125 7.0312v33.203q-8.2031 0-13.281-0.39062zm88.672 2.7344q-0.78125-3.5156 0-7.8125-5.4688 0-9.375 0h-8.2031q-6.25 0-6.6406 5.4688v19.531h-16.406q0-8.9844-2.3438-15.234t-10.156-13.281q-2.3438 3.5156-7.0312 5.4688 9.375 6.25 10.734 14.453 1.375 8.2031 0.98438 15.234h32.031q-0.39062-4.2969-0.39062-10.156v-10.547q0-3.125 2.1406-3.5156 2.1562-0.39062 6.0625-0.20312 3.9062 0.20312 8.5938 0.59375zm-57.422-12.5q5.8594-0.39062 13.672-0.39062h34.375q-2.3438-7.4219-6.25-15.625t-10.938-16.406q12.109-8.5938 28.125-8.9844-3.5156-3.5156-4.6875-8.9844-16.406 2.7344-28.906 12.891-4.6875-3.5156-11.922-7.2188-7.2188-3.7188-15.031-6.0625-1.9531 4.2969-6.25 7.0312 8.5938 1.9531 15.812 5.0781 7.2344 3.125 11.141 6.6406-9.375 8.9844-13.672 25h7.8125q3.125-11.719 11.719-19.922 8.2031 7.8125 12.109 19.922h-37.109z"/>
      <path id="SimHei-31354" d="m34.766 55.078q3.5156-3.125 8.2031-6.25-3.9062-1.9531-10.938-7.2344-7.0312-5.2656-16.016-11.125-2.7344 3.5156-5.8594 6.6406 7.0312 3.125 13.469 7.8125 6.4531 4.6875 11.141 10.156zm21.875-7.8125q1.9531 2.3438 4.6875 6.25 4.2969-1.9531 11.328-5.4688t16.797-9.375q-3.5156-3.9062-5.4688-7.0312-6.6406 4.6875-13.281 8.2031t-14.062 7.4219zm33.594 19.531q-0.39062-3.125-0.39062-8.4062 0-5.2656 0.39062-8h-8.2031v9.7656h-65.625v-10.938h-8.2031q0.39062 3.9062 0.39062 8.7812 0 4.8906-0.39062 8.7969h40.234q-1.9531 5.4688-5.0781 10.938 3.9062 1.5625 8.2031 3.125 2.7344-6.6406 5.0781-11.719-3.9062-1.1719-7.0312-2.3438zm-70.312-37.891q7.0312-0.78125 17.969-0.78125h24.219q9.7656 0 17.188 0.78125v-8.2031q-7.0312 0.78125-17.188 0.78125h-8.2031v-20.703h22.266q10.547 0 16.797 0.78125v-8.2031q-5.8594 0.78125-16.016 0.78125h-48.047q-14.062 0-20.312-0.78125v8.2031q7.0312-0.78125 21.094-0.78125h16.406v20.703h-8.9844q-9.7656 0-17.188-0.78125z"/>
      <path id="SimHei-38388" d="m19.141 77.344q4.2969 3.125 6.6406 4.2969 3.5156-4.6875 10.156-14.453-3.9062-1.9531-7.4219-4.2969-3.9062 7.8125-9.375 14.453zm0.39062-69.531q0-7.8125 0.39062-15.625h-7.8125q0.39062 7.4219 0.39062 16.016v40.234q0 8.2031-0.39062 13.672h7.8125q-0.39062-5.8594-0.39062-11.328zm23.047 67.578q7.0312-0.39062 15.234-0.39062h29.688q-0.39062-7.0312-0.39062-14.453v-56.641q0.39062-8.5938-4.5-10.547-4.875-1.9531-10.734-2.7344-0.39062 4.6875-3.125 8.9844 7.0312-0.39062 9.1719 0.78125 2.1562 1.1719 2.1562 5.0781v63.281h-21.875q-8.5938 0-15.625-0.39062zm-3.5156-26.953v-12.109h21.484v12.109zm0-18.359v-14.062h21.484v14.062zm-7.4219 24.609h36.328q-0.39062-7.0312-0.39062-12.5v-20.312q0-5.0781 0.39062-12.109h-36.328q0.39062 7.0312 0.39062 12.5v19.922q0 5.4688-0.39062 12.5z"/>
     </defs>
     <g transform="translate(42.417 213.82) scale(.14 -.14)">
      <use xlink:href="#SimHei-36229"/>
      <use x="100" xlink:href="#SimHei-24179"/>
      <use x="200" xlink:href="#SimHei-38754"/>
      <use x="300" xlink:href="#SimHei-30340"/>
      <use x="400" xlink:href="#SimHei-20551"/>
      <use x="500" xlink:href="#SimHei-35774"/>
      <use x="600" xlink:href="#SimHei-31354"/>
      <use x="700" xlink:href="#SimHei-38388"/>
     </g>
    </g>
   </g>
   <g id="line2d_1">
    <path d="m7.6902 143.68 181.45-69.292" clip-path="url(#p3b3ab0cd93)" fill="none" stroke="#000" stroke-dasharray="5.55,2.4" stroke-width="1.5"/>
   </g>
   <g id="patch_3">
    <path d="m0.432 198.72v-198.5" fill="none" stroke="#000" stroke-linecap="square" stroke-width=".8"/>
   </g>
   <g id="patch_4">
    <path d="m196.4 198.72v-198.5" fill="none" stroke="#000" stroke-linecap="square" stroke-width=".8"/>
   </g>
   <g id="patch_5">
    <path d="m0.432 198.72h195.97" fill="none" stroke="#000" stroke-linecap="square" stroke-width=".8"/>
   </g>
   <g id="patch_6">
    <path d="m0.432 0.216h195.97" fill="none" stroke="#000" stroke-linecap="square" stroke-width=".8"/>
   </g>
  </g>
  <g id="axes_2">
   <g id="patch_7">
    <path d="m235.6 198.72h195.97v-198.5h-195.97z" fill="#fff"/>
   </g>
   <g id="PathCollection_3">
    <g clip-path="url(#p669d7fafd5)" fill="#0000ff" fill-opacity=".8" stroke="#0000ff" stroke-opacity=".8" stroke-width="1.5">
     <use x="388.018909" y="161.5005" xlink:href="#m72a9cfe748"/>
     <use x="315.437091" y="161.5005" xlink:href="#m72a9cfe748"/>
     <use x="424.309818" y="192.51675" xlink:href="#m72a9cfe748"/>
    </g>
   </g>
   <g id="PathCollection_4">
    <g clip-path="url(#p669d7fafd5)" fill="#ff0000" fill-opacity=".8" stroke="#000000" stroke-opacity=".8">
     <use x="279.146182" y="6.41925" xlink:href="#ma43ce5d557"/>
     <use x="242.855273" y="99.468" xlink:href="#ma43ce5d557"/>
     <use x="351.728" y="68.45175" xlink:href="#ma43ce5d557"/>
    </g>
   </g>
   <g id="matplotlib.axis_3">
    <g id="text_2">
     <!-- 曲线的假设空间 -->
     <defs>
      <path id="SimHei-26354" d="m85.938 59.766q-0.39062-5.8594-0.39062-17.969v-35.547q0-10.938 0.78125-16.406h-7.8125v7.8125h-56.641v-7.8125h-7.4219q0.39062 10.547 0.39062 17.188v35.156q0 10.156-0.39062 17.578h21.484v8.5938q-0.39062 6.6406-0.78125 11.328h7.8125q-0.39062-5.4688-0.39062-10.938v-8.9844h14.453v9.7656q0 5.0781-0.39062 10.547h7.8125q-0.78125-4.6875-0.78125-10.156v-10.156zm-64.062-5.8594v-19.922h14.062v19.922zm0-25.781v-24.609h14.062v24.609zm20.703 25.781v-19.922h14.453v19.922zm0-25.781v-24.609h14.453v24.609zm21.094 25.781v-19.922h14.844v19.922zm0-25.781v-24.609h14.844v24.609z"/>
      <path id="SimHei-32447" d="m22.266 80.078q3.9062-2.7344 8.9844-4.2969-3.9062-3.5156-7.625-9.9688-3.7031-6.4375-9.5625-15.812 8.9844 0.39062 12.5 0.39062 3.5156 5.8594 5.8594 12.891 3.9062-2.7344 8.5938-4.2969-3.9062-3.9062-7.8125-10.547t-14.062-22.656q10.547 0.78125 18.359 1.5625-1.1719-3.9062-1.1719-6.6406-2.7344 0-11.719-0.98438-8.9844-0.96875-14.844-2.5312-0.39062 3.9062-2.3438 8.2031 4.6875 1.1719 8.3906 6.25 3.7188 5.0781 8.0156 12.891-12.5-0.78125-16.016-3.125-1.1719 4.2969-3.125 8.5938 4.6875 3.5156 9.375 11.516 4.6875 8.0156 8.2031 18.562zm-16.797-73.047q10.547 1.1719 16.203 2.1406 5.6719 0.98438 18.953 4.1094-0.39062-4.2969 0-6.6406-9.375-1.9531-17-3.9062-7.6094-1.9531-14.25-4.2969-1.1719 4.2969-3.9062 8.5938zm75.781 59.375q-3.5156-1.5625-6.25-3.9062-2.7344 4.2969-7.0312 10.156 2.7344 1.5625 5.8594 3.125 1.5625-1.9531 7.4219-9.375zm-42.188-14.453q3.9062 0 14.844 2.3438 0 7.0312 0 12.688 0 5.6719-1.1719 12.703 4.6875-0.39062 10.156-1.1719-1.1719-2.3438-1.5625-7.625-0.39062-5.2656 0-15.031l12.891 2.3438q6.6406 1.5625 12.891 3.5156l1.5625-7.4219q-6.6406-0.78125-13.281-1.9531l-13.672-2.7344q0-6.25 0.78125-10.938l14.844 2.7344q7.4219 1.5625 14.453 3.9062l1.1719-7.4219q-7.0312-1.1719-14.453-2.7344l-14.844-2.7344q0.78125-7.8125 3.9062-14.453 3.125 2.7344 6.4375 6.25 3.3281 3.5156 6.0625 7.8125 5.4688-4.6875 8.5938-6.25-5.0781-2.3438-7.8125-5.2812-2.7344-2.9219-9.375-9.1719 4.6875-7.8125 8.2031-9.9688 3.5156-2.1406 5.0781-0.1875t2.7344 8.2031q3.5156-2.7344 7.8125-4.2969-6.25-17.188-13.875-13.859-7.6094 3.3125-15.812 15.422-5.4688-4.2969-10.547-8-5.0781-3.7188-12.5-7.625-1.9531 3.9062-5.8594 7.0312 7.4219 2.7344 12.891 5.8594t12.109 8.9844q-3.5156 7.8125-5.0781 18.359-11.328-1.9531-15.625-3.5156l-1.1719 7.4219q4.2969 0 15.625 2.3438-0.78125 6.25-0.78125 10.547-10.547-2.3438-14.062-3.5156z"/>
     </defs>
     <g transform="translate(284.58 214.04) scale(.14 -.14)">
      <use xlink:href="#SimHei-26354"/>
      <use x="100" xlink:href="#SimHei-32447"/>
      <use x="200" xlink:href="#SimHei-30340"/>
      <use x="300" xlink:href="#SimHei-20551"/>
      <use x="400" xlink:href="#SimHei-35774"/>
      <use x="500" xlink:href="#SimHei-31354"/>
      <use x="600" xlink:href="#SimHei-38388"/>
     </g>
    </g>
   </g>
   <g id="line2d_2">
    <path d="m242.86 159.02 3.7032 0.50225 3.7032 0.12604 3.7032-0.23237 3.7032-0.57298 3.7032-0.8958 3.7032-1.2008 3.7032-1.4881 3.7032-1.7575 3.7032-2.0091 3.7032-2.243 3.7032-2.459 3.7032-2.6573 3.7032-2.8377 3.7032-3.0004 3.7032-3.1453 3.7032-3.2723 3.7032-3.3816 3.7032-3.4731 3.7032-3.5468 3.7032-3.6027 3.7032-3.6408 3.7032-3.6611 3.7032-3.6636 3.7032-3.6483 3.7032-3.6152 3.7032-3.5643 3.7032-3.4956 3.7032-3.4092 3.7032-3.3049 3.7032-3.1828 3.7032-3.043 3.7032-2.8853 3.7032-2.7099 3.7032-2.5166 3.7032-2.3056 3.7032-2.0767 3.7032-1.8301 3.7032-1.5657 3.7032-1.2835 3.7032-0.98346 3.7032-0.66565 3.7032-0.33004 3.7032 0.023358 3.7032 0.39455 3.7032 0.78355 3.7032 1.1903 3.7032 1.6149 3.7032 2.0573 3.7032 2.5175" clip-path="url(#p669d7fafd5)" fill="none" stroke="#000" stroke-dasharray="5.55,2.4" stroke-width="1.5"/>
   </g>
   <g id="patch_8">
    <path d="m235.6 198.72v-198.5" fill="none" stroke="#000" stroke-linecap="square" stroke-width=".8"/>
   </g>
   <g id="patch_9">
    <path d="m431.57 198.72v-198.5" fill="none" stroke="#000" stroke-linecap="square" stroke-width=".8"/>
   </g>
   <g id="patch_10">
    <path d="m235.6 198.72h195.97" fill="none" stroke="#000" stroke-linecap="square" stroke-width=".8"/>
   </g>
   <g id="patch_11">
    <path d="m235.6 0.216h195.97" fill="none" stroke="#000" stroke-linecap="square" stroke-width=".8"/>
   </g>
  </g>
 </g>
 <defs>
  <clipPath id="p3b3ab0cd93">
   <rect x=".432" y=".216" width="195.97" height="198.5"/>
  </clipPath>
  <clipPath id="p669d7fafd5">
   <rect x="235.6" y=".216" width="195.97" height="198.5"/>
  </clipPath>
 </defs>
</svg>
