<svg version="1.1" xmlns="http://www.w3.org/2000/svg" xmlns:xlink="http://www.w3.org/1999/xlink" width="322" height="98"><defs><clipPath id="mryrzqJCewcv"><path fill="none" stroke="none" d=" M 0 0 L 322 0 L 322 98 L 0 98 L 0 0 Z"/></clipPath></defs><g transform="scale(1,1)" clip-path="url(#mryrzqJCewcv)"><g><path fill="none" stroke="rgb(0,0,0)" paint-order="fill stroke markers" d=" M 0.5 51.5 L 320.5 51.5" stroke-opacity="1" stroke-miterlimit="10"/><path fill="none" stroke="rgb(0,0,0)" paint-order="fill stroke markers" d=" M 321.5 51.5 L 317.5 47.5" stroke-opacity="1" stroke-miterlimit="10"/><path fill="none" stroke="rgb(0,0,0)" paint-order="fill stroke markers" d=" M 321.5 51.5 L 317.5 55.5" stroke-opacity="1" stroke-miterlimit="10"/><path fill="none" stroke="rgb(0,0,0)" paint-order="fill stroke markers" d=" M 22.5 51.5 L 22.5 54.5" stroke-opacity="1" stroke-miterlimit="10"/><path fill="none" stroke="rgb(0,0,0)" paint-order="fill stroke markers" d=" M 71.5 51.5 L 71.5 54.5" stroke-opacity="1" stroke-miterlimit="10"/><path fill="none" stroke="rgb(0,0,0)" paint-order="fill stroke markers" d=" M 121.5 51.5 L 121.5 54.5" stroke-opacity="1" stroke-miterlimit="10"/><path fill="none" stroke="rgb(0,0,0)" paint-order="fill stroke markers" d=" M 171.5 51.5 L 171.5 54.5" stroke-opacity="1" stroke-miterlimit="10"/><path fill="none" stroke="rgb(0,0,0)" paint-order="fill stroke markers" d=" M 221.5 51.5 L 221.5 54.5" stroke-opacity="1" stroke-miterlimit="10"/><path fill="none" stroke="rgb(0,0,0)" paint-order="fill stroke markers" d=" M 271.5 51.5 L 271.5 54.5" stroke-opacity="1" stroke-miterlimit="10"/><path fill="none" stroke="rgb(0,0,255)" paint-order="fill stroke markers" d=" M 167.99999999999986 47.00000000000002 L 175.99999999999986 55.00000000000002" stroke-opacity="1" stroke-linecap="square" stroke-miterlimit="10" stroke-width="2"/><path fill="none" stroke="rgb(0,0,255)" paint-order="fill stroke markers" d=" M 167.99999999999986 55.00000000000002 L 175.99999999999986 47.00000000000002" stroke-opacity="1" stroke-linecap="square" stroke-miterlimit="10" stroke-width="2"/><path fill="rgb(255,0,0)" stroke="none" paint-order="stroke fill markers" d=" M 75.99999999999994 51.00000000000002 C 75.99999999999994 53.209138999323194 74.20913899932312 55.00000000000002 71.99999999999994 55.00000000000002 C 69.79086100067677 55.00000000000002 67.99999999999994 53.209138999323194 67.99999999999994 51.00000000000002 C 67.99999999999994 48.79086100067685 69.79086100067677 47.00000000000002 71.99999999999994 47.00000000000002 C 74.20913899932312 47.00000000000002 75.99999999999994 48.79086100067685 75.99999999999994 51.00000000000002 Z" fill-opacity="1"/><path fill="none" stroke="rgb(0,0,0)" paint-order="fill stroke markers" d=" M 75.99999999999994 51.00000000000002 C 75.99999999999994 53.209138999323194 74.20913899932312 55.00000000000002 71.99999999999994 55.00000000000002 C 69.79086100067677 55.00000000000002 67.99999999999994 53.209138999323194 67.99999999999994 51.00000000000002 C 67.99999999999994 48.79086100067685 69.79086100067677 47.00000000000002 71.99999999999994 47.00000000000002 C 74.20913899932312 47.00000000000002 75.99999999999994 48.79086100067685 75.99999999999994 51.00000000000002 Z" stroke-opacity="1" stroke-linecap="round" stroke-linejoin="round" stroke-miterlimit="10"/><path fill="rgb(255,0,0)" stroke="none" paint-order="stroke fill markers" d=" M 275.9999999999998 51.00000000000002 C 275.9999999999998 53.209138999323194 274.20913899932293 55.00000000000002 271.9999999999998 55.00000000000002 C 269.7908610006766 55.00000000000002 267.9999999999998 53.209138999323194 267.9999999999998 51.00000000000002 C 267.9999999999998 48.79086100067685 269.7908610006766 47.00000000000002 271.9999999999998 47.00000000000002 C 274.20913899932293 47.00000000000002 275.9999999999998 48.79086100067685 275.9999999999998 51.00000000000002 Z" fill-opacity="1"/><path fill="none" stroke="rgb(0,0,0)" paint-order="fill stroke markers" d=" M 275.9999999999998 51.00000000000002 C 275.9999999999998 53.209138999323194 274.20913899932293 55.00000000000002 271.9999999999998 55.00000000000002 C 269.7908610006766 55.00000000000002 267.9999999999998 53.209138999323194 267.9999999999998 51.00000000000002 C 267.9999999999998 48.79086100067685 269.7908610006766 47.00000000000002 271.9999999999998 47.00000000000002 C 274.20913899932293 47.00000000000002 275.9999999999998 48.79086100067685 275.9999999999998 51.00000000000002 Z" stroke-opacity="1" stroke-linecap="round" stroke-linejoin="round" stroke-miterlimit="10"/></g></g></svg>