<svg version="1.1" xmlns="http://www.w3.org/2000/svg" xmlns:xlink="http://www.w3.org/1999/xlink" width="679" height="332"><defs><clipPath id="eZrDTiDARQBn"><path fill="none" stroke="none" d=" M 0 0 L 679 0 L 679 332 L 0 332 L 0 0 Z"/></clipPath></defs><g transform="scale(1,1)" clip-path="url(#eZrDTiDARQBn)"><g><path fill="none" stroke="rgb(0,0,0)" paint-order="fill stroke markers" d=" M 81.99999999999994 235.99999999999991 L 76.7908466818617 238.75419488331704 L 74.83765529451301 240.15961893249997 L 73.30325229593103 241.58239065111053 L 72.17603634183041 243.02135748745727 L 71.76149808637149 243.74655390237814 L 71.44440608792593 244.47536688984874 L 71.22331017845801 245.20765238090763 L 71.09676018993218 245.94326630659344 L 71.06330595431274 246.68206459794467 L 71.12149730356407 247.42390318599993 L 71.2698840696504 248.16863800179777 L 71.50701608453625 248.91612497637678 L 72.24171518856338 250.41877912603246 L 73.31399327136029 251.93071308327558 L 74.7122489886417 253.45077429641464 L 78.4402879495168 256.5106682836148 L 83.33302131690652 259.5892406741011 L 89.29763833652868 262.6772710543421 L 96.24132825410112 265.765539010806 L 104.07128031534171 268.844824129961 L 112.6946837659682 271.9059059982756 L 122.01872785169849 274.93956420221804 L 131.95060181825033 277.9365783282566 L 137.11547164612114 279.41846248283326 L 142.3974949113416 280.88772796285957 L 147.78507026962632 282.3432222166441 L 153.26659637669013 283.7837926924954 L 158.83047188824764 285.2082868387219 L 164.46509546001369 286.61555210363224 L 170.15886574770298 288.00443593553496 L 175.90018140703023 289.37378578273854 L 181.67744109371006 290.7224490935516 L 187.47904346345746 292.04927331628255 L 193.29338717198692 293.35310589924 L 199.10887087501317 294.63279429073253 L 204.91389322825114 295.8871859390687 L 210.69685288741533 297.1151282925569 L 216.4461485082207 298.3154687995058 L 222.15017874638175 299.4870549082239 L 227.79734225761334 300.62873406701976 L 233.3760376976302 301.7393537242019 L 238.87466372214695 302.81776132807886 L 244.2816189868784 303.8628043269591 L 249.58530214753935 304.87333016915136 L 254.77411185984442 305.848186302964 L 264.7620370060528 307.68632668338915 L 274.21122404809915 309.3700946474642 L 283.1653283702566 310.8951326196967 L 291.6735610029015 312.2572809946363 L 299.7851329764104 313.45238016683254 L 307.5492553211599 314.4762705308351 L 315.015139067526 315.3247924811935 L 322.2319952458855 315.99378641245755 L 329.249034886615 316.4790927191767 L 336.1154690200905 316.7765517959006 L 342.8805086766887 316.88200403717894 L 349.5933648867861 316.7912898375612 L 356.3032486807591 316.50024959159714 L 363.05937108898365 316.0047236938363 L 369.91094314183704 315.30055253882824 L 376.9071758696954 314.38357652112273 L 384.09728030293496 313.2496360352693 L 391.53046747193184 311.89457147581754 L 399.25467039811974 310.31443321599704 L 407.27264788014566 308.512693817842 L 415.53095839283355 306.50205963621227 L 423.9726441572948 304.29581475143436 L 432.5407473946416 301.9072432438348 L 441.17831032598565 299.3496291937398 L 449.82837517244 296.6362566814763 L 458.43398415511587 293.78040978737073 L 466.9381794951248 290.79537259174936 L 475.2840034135807 287.6944291749388 L 483.41449813159363 284.49086361726535 L 491.272705870277 281.197959999056 L 498.80166885074203 277.8290024006366 L 505.9444292941008 274.3972749023342 L 512.6440294214656 270.91606158447496 L 518.8435114539496 267.3986465273854 L 524.4859176126623 263.858313811392 L 529.5142901187182 260.30834751682113 L 533.8716711932273 256.7620317239999 L 537.5011030573032 253.23265051325407 L 540.345627932057 249.7334879649107 L 542.3484256757508 246.27781238192196 L 543.0214271454663 244.56985464343856 L 543.4783870095846 242.8759448260197 L 543.7232974571945 241.19646967913388 L 543.7601506773863 239.53181595224942 L 543.5929388592531 237.8823703948348 L 543.22565419188 236.24851975635843 L 541.9068350657842 233.02915023409406 L 540.9632849852418 231.44440484924286 L 539.835630811822 229.87680138120362 L 537.0439789427135 226.7945671934345 L 533.5638169711804 223.78554166653404 L 529.4270824099424 220.85281879624958 L 524.6657127717245 217.9994925783284 L 519.3116455692451 215.22865700851796 L 513.3968183152281 212.5434060825655 L 506.9531685223918 209.9468337962184 L 500.0126337034591 207.44203414522397 L 492.60715137115096 205.03210112532955 L 484.76865903819015 202.7201287322825 L 476.5290942172958 200.5092109618302 L 467.9203944211911 198.40244180971993 L 458.9744971625966 196.40291527169904 L 449.72333995423287 194.51372534351486 L 440.1988603088232 192.7379660209148 L 430.43299573908814 191.0787312996461 L 420.4576837577468 189.53911517545617 L 415.40146546045 188.81513096093684 L 410.3048618775238 188.1222116440924 L 405.17186519805557 187.46074397439133 L 400.00646761113836 186.83111470130203 L 394.812661305861 186.23371057429287 L 389.59443847131234 185.66891834283234 L 384.35579129658686 185.13712475638889 L 379.1007119707691 184.6387165644309 L 373.83319268295224 184.17408051642664 L 368.5572256222278 183.74360336184478 L 363.27680297768467 183.34767185015357 L 357.99591693841023 182.98667273082157 L 352.7185596934976 182.660992753317 L 347.44872343203554 182.3710186671084 L 342.19040034311865 182.1171372216641 L 336.94758261582854 181.89973516645273 L 331.72426243926543 181.71919925094247 L 326.5244320025082 181.57591622460188 L 321.352083494657 181.4702728368993 L 316.2112091048008 181.40265583730314 L 311.1058010220254 181.37345197528197 L 306.0398514354197 181.3830480003039 L 296.0422965070925 181.5201867093516 L 286.2504818325383 181.8171659601934 L 276.6951531155356 182.27681697969416 L 267.3859152214497 182.897309883094 L 258.3142214364805 183.67281274300788 L 249.4709354487419 184.59736363803046 L 240.84692094634264 185.66500064675864 L 232.43304161739573 186.86976184778644 L 224.22016115001142 188.20568531971142 L 216.1991432322992 189.66680914112757 L 208.36085155237004 191.24717139063108 L 200.69614979833477 192.94081014681808 L 193.1959016583058 194.74176348828365 L 185.8509708203933 196.6440694936243 L 178.65222097270754 198.6417662414337 L 171.59051580335864 200.72889181030902 L 164.65671900045896 202.8994842788454 L 157.8416942521181 205.1475817256386 L 151.13630524644827 207.4672222292844 L 144.53141567155905 209.85244386837863 L 138.01788921556061 212.29728472151635 L 131.58658956656603 214.79578286729335 L 125.22838041268557 217.34197638430473 L 118.93412544202789 219.92990335114698 L 112.69468834270612 222.5536018464166 L 106.50093280282903 225.20710994870726 L 100.34372251050968 227.88446573661545 L 94.21392115385828 230.57970728873627 L 88.10239242098504 233.28687268366622 L 82.00000000000017 236.00000000000037 Z" stroke-opacity="0.6980392156862745" stroke-linecap="round" stroke-linejoin="round" stroke-miterlimit="10" stroke-width="1.5"/><path fill="rgb(0,0,0)" stroke="none" paint-order="stroke fill markers" fill-rule="evenodd" d=" M 81.99999999999994 235.99999999999991 L 76.7908466818617 238.75419488331704 L 74.83765529451301 240.15961893249997 L 73.30325229593103 241.58239065111053 L 72.17603634183041 243.02135748745727 L 71.76149808637149 243.74655390237814 L 71.44440608792593 244.47536688984874 L 71.22331017845801 245.20765238090763 L 71.09676018993218 245.94326630659344 L 71.06330595431274 246.68206459794467 L 71.12149730356407 247.42390318599993 L 71.2698840696504 248.16863800179777 L 71.50701608453625 248.91612497637678 L 72.24171518856338 250.41877912603246 L 73.31399327136029 251.93071308327558 L 74.7122489886417 253.45077429641464 L 78.4402879495168 256.5106682836148 L 83.33302131690652 259.5892406741011 L 89.29763833652868 262.6772710543421 L 96.24132825410112 265.765539010806 L 104.07128031534171 268.844824129961 L 112.6946837659682 271.9059059982756 L 122.01872785169849 274.93956420221804 L 131.95060181825033 277.9365783282566 L 137.11547164612114 279.41846248283326 L 142.3974949113416 280.88772796285957 L 147.78507026962632 282.3432222166441 L 153.26659637669013 283.7837926924954 L 158.83047188824764 285.2082868387219 L 164.46509546001369 286.61555210363224 L 170.15886574770298 288.00443593553496 L 175.90018140703023 289.37378578273854 L 181.67744109371006 290.7224490935516 L 187.47904346345746 292.04927331628255 L 193.29338717198692 293.35310589924 L 199.10887087501317 294.63279429073253 L 204.91389322825114 295.8871859390687 L 210.69685288741533 297.1151282925569 L 216.4461485082207 298.3154687995058 L 222.15017874638175 299.4870549082239 L 227.79734225761334 300.62873406701976 L 233.3760376976302 301.7393537242019 L 238.87466372214695 302.81776132807886 L 244.2816189868784 303.8628043269591 L 249.58530214753935 304.87333016915136 L 254.77411185984442 305.848186302964 L 264.7620370060528 307.68632668338915 L 274.21122404809915 309.3700946474642 L 283.1653283702566 310.8951326196967 L 291.6735610029015 312.2572809946363 L 299.7851329764104 313.45238016683254 L 307.5492553211599 314.4762705308351 L 315.015139067526 315.3247924811935 L 322.2319952458855 315.99378641245755 L 329.249034886615 316.4790927191767 L 336.1154690200905 316.7765517959006 L 342.8805086766887 316.88200403717894 L 349.5933648867861 316.7912898375612 L 356.3032486807591 316.50024959159714 L 363.05937108898365 316.0047236938363 L 369.91094314183704 315.30055253882824 L 376.9071758696954 314.38357652112273 L 384.09728030293496 313.2496360352693 L 391.53046747193184 311.89457147581754 L 399.25467039811974 310.31443321599704 L 407.27264788014566 308.512693817842 L 415.53095839283355 306.50205963621227 L 423.9726441572948 304.29581475143436 L 432.5407473946416 301.9072432438348 L 441.17831032598565 299.3496291937398 L 449.82837517244 296.6362566814763 L 458.43398415511587 293.78040978737073 L 466.9381794951248 290.79537259174936 L 475.2840034135807 287.6944291749388 L 483.41449813159363 284.49086361726535 L 491.272705870277 281.197959999056 L 498.80166885074203 277.8290024006366 L 505.9444292941008 274.3972749023342 L 512.6440294214656 270.91606158447496 L 518.8435114539496 267.3986465273854 L 524.4859176126623 263.858313811392 L 529.5142901187182 260.30834751682113 L 533.8716711932273 256.7620317239999 L 537.5011030573032 253.23265051325407 L 540.345627932057 249.7334879649107 L 542.3484256757508 246.27781238192196 L 543.0214271454663 244.56985464343856 L 543.4783870095846 242.8759448260197 L 543.7232974571945 241.19646967913388 L 543.7601506773863 239.53181595224942 L 543.5929388592531 237.8823703948348 L 543.22565419188 236.24851975635843 L 541.9068350657842 233.02915023409406 L 540.9632849852418 231.44440484924286 L 539.835630811822 229.87680138120362 L 537.0439789427135 226.7945671934345 L 533.5638169711804 223.78554166653404 L 529.4270824099424 220.85281879624958 L 524.6657127717245 217.9994925783284 L 519.3116455692451 215.22865700851796 L 513.3968183152281 212.5434060825655 L 506.9531685223918 209.9468337962184 L 500.0126337034591 207.44203414522397 L 492.60715137115096 205.03210112532955 L 484.76865903819015 202.7201287322825 L 476.5290942172958 200.5092109618302 L 467.9203944211911 198.40244180971993 L 458.9744971625966 196.40291527169904 L 449.72333995423287 194.51372534351486 L 440.1988603088232 192.7379660209148 L 430.43299573908814 191.0787312996461 L 420.4576837577468 189.53911517545617 L 415.40146546045 188.81513096093684 L 410.3048618775238 188.1222116440924 L 405.17186519805557 187.46074397439133 L 400.00646761113836 186.83111470130203 L 394.812661305861 186.23371057429287 L 389.59443847131234 185.66891834283234 L 384.35579129658686 185.13712475638889 L 379.1007119707691 184.6387165644309 L 373.83319268295224 184.17408051642664 L 368.5572256222278 183.74360336184478 L 363.27680297768467 183.34767185015357 L 357.99591693841023 182.98667273082157 L 352.7185596934976 182.660992753317 L 347.44872343203554 182.3710186671084 L 342.19040034311865 182.1171372216641 L 336.94758261582854 181.89973516645273 L 331.72426243926543 181.71919925094247 L 326.5244320025082 181.57591622460188 L 321.352083494657 181.4702728368993 L 316.2112091048008 181.40265583730314 L 311.1058010220254 181.37345197528197 L 306.0398514354197 181.3830480003039 L 296.0422965070925 181.5201867093516 L 286.2504818325383 181.8171659601934 L 276.6951531155356 182.27681697969416 L 267.3859152214497 182.897309883094 L 258.3142214364805 183.67281274300788 L 249.4709354487419 184.59736363803046 L 240.84692094634264 185.66500064675864 L 232.43304161739573 186.86976184778644 L 224.22016115001142 188.20568531971142 L 216.1991432322992 189.66680914112757 L 208.36085155237004 191.24717139063108 L 200.69614979833477 192.94081014681808 L 193.1959016583058 194.74176348828365 L 185.8509708203933 196.6440694936243 L 178.65222097270754 198.6417662414337 L 171.59051580335864 200.72889181030902 L 164.65671900045896 202.8994842788454 L 157.8416942521181 205.1475817256386 L 151.13630524644827 207.4672222292844 L 144.53141567155905 209.85244386837863 L 138.01788921556061 212.29728472151635 L 131.58658956656603 214.79578286729335 L 125.22838041268557 217.34197638430473 L 118.93412544202789 219.92990335114698 L 112.69468834270612 222.5536018464166 L 106.50093280282903 225.20710994870726 L 100.34372251050968 227.88446573661545 L 94.21392115385828 230.57970728873627 L 88.10239242098504 233.28687268366622 L 82.00000000000017 236.00000000000037 Z" fill-opacity="0.09803921568627451"/><g transform="scale(21,21)"><g transform="translate(4.9523809523809526,12.016665333333334)"><path fill="rgb(0,0,0)" stroke="none" paint-order="stroke fill markers" d=" M 0.308 -0.34800000000000003 L 0.308 -0.34800000000000003 L 0.27 -0.223 Q 0.23900000000000002 -0.123 0.199 -0.022 Q 0.19 -0.003 0.153 0.015 Q 0.136 0.022 0.126 0.022 Q 0.115 0.022 0.115 0.015 Q 0.115 0.012 0.125 -0.015 Q 0.242 -0.317 0.27 -0.532 Q 0.274 -0.5650000000000001 0.274 -0.584 Q 0.274 -0.615 0.246 -0.625 Q 0.23700000000000002 -0.628 0.226 -0.628 Q 0.151 -0.628 0.123 -0.581 L 0.123 -0.58 Q 0.114 -0.5640000000000001 0.106 -0.54 Q 0.096 -0.51 0.049 -0.493 Q 0.037 -0.489 0.03 -0.489 Q 0.028 -0.489 0.02 -0.492 Q 0.036000000000000004 -0.58 0.134 -0.638 Q 0.211 -0.683 0.292 -0.683 Q 0.356 -0.678 0.359 -0.626 Q 0.359 -0.597 0.34600000000000003 -0.516 Q 0.332 -0.44 0.319 -0.393 Q 0.335 -0.403 0.364 -0.403 L 0.63 -0.403 Q 0.681 -0.544 0.729 -0.627 Q 0.742 -0.65 0.749 -0.656 Q 0.784 -0.683 0.807 -0.683 Q 0.8180000000000001 -0.683 0.8180000000000001 -0.675 Q 0.8180000000000001 -0.671 0.811 -0.661 Q 0.707 -0.461 0.662 -0.272 Q 0.64 -0.177 0.64 -0.10300000000000001 Q 0.64 -0.036000000000000004 0.657 -0.019 L 0.657 -0.019 Q 0.668 -0.008 0.686 -0.008 Q 0.6940000000000001 -0.008 0.711 -0.013000000000000001 Q 0.715 -0.035 0.742 -0.053 Q 0.772 -0.074 0.791 -0.074 Q 0.801 -0.074 0.801 -0.066 Q 0.801 -0.034 0.743 0.005 Q 0.68 0.047 0.62 0.047 Q 0.5660000000000001 0.047 0.558 -0.006 Q 0.555 -0.022 0.555 -0.06 Q 0.555 -0.182 0.614 -0.358 Q 0.598 -0.34800000000000003 0.5690000000000001 -0.34800000000000003 L 0.308 -0.34800000000000003 Z"/></g><g transform="translate(5.796898952380952,12.166665333333334) scale(0.7,0.7)"><path fill="rgb(0,0,0)" stroke="none" paint-order="stroke fill markers" d=" M 0.294 -0.64 L 0.294 -0.079 Q 0.294 -0.049 0.306 -0.041 Q 0.323 -0.031 0.387 -0.031 L 0.419 -0.031 L 0.419 0 Q 0.384 -0.003 0.257 -0.003 Q 0.13 -0.003 0.095 0 L 0.095 -0.031 L 0.127 -0.031 Q 0.20400000000000001 -0.031 0.215 -0.049 L 0.216 -0.05 Q 0.22 -0.058 0.22 -0.079 L 0.22 -0.597 Q 0.168 -0.5710000000000001 0.089 -0.5710000000000001 L 0.089 -0.602 Q 0.209 -0.602 0.271 -0.666 Q 0.29 -0.666 0.293 -0.659 L 0.293 -0.659 L 0.293 -0.658 Q 0.294 -0.655 0.294 -0.64 Z"/></g></g><path fill="none" stroke="rgb(0,0,0)" paint-order="fill stroke markers" d=" M 521.9999999999994 162.00000000000006 L 525.7994480972866 164.46452940243213 L 529.6216343130136 167.12127793100456 L 533.4572901284075 169.9307269287712 L 537.2971470246955 172.85335773878595 L 541.1319364831048 175.84965170410268 L 544.9523899848625 178.88009016777525 L 548.7492390111956 181.9051544728576 L 552.5132150433316 184.8853259624035 L 556.2350495624972 187.78108597946692 L 559.9054740499199 190.55291586710166 L 563.5152199868267 193.16129696836168 L 567.0550188544447 195.56671062630082 L 570.5156021340011 197.72963818397292 L 573.8877013067231 199.61056098443188 L 577.1620478538377 201.16996037073162 L 580.3293732565722 202.36831768592594 L 583.3804089961537 203.16611427306879 L 586.3058865538094 203.523831475214 L 589.0965374107662 203.40195063541543 L 590.4384064143661 203.1488113694916 L 591.7431536069872 202.76124957404676 L 594.2417660134627 201.58815384939896 L 595.437149880797 200.81151909440925 L 596.5976146477338 199.9141742259724 L 598.8168742510288 197.77539759374693 L 600.9057195645756 195.2079108427025 L 602.8703253296023 192.24780086281888 L 604.716866287337 188.93115454407598 L 606.4515171790079 185.29405877645362 L 608.0804527458429 181.3726004499318 L 609.6098477290702 177.20286645449042 L 611.045876869918 172.8209436801091 L 612.394714909614 168.26291901676785 L 613.6625365893867 163.56487935444653 L 614.855516650464 158.76291158312512 L 615.979829834074 153.89310259278324 L 617.0416508814448 148.99153927340086 L 618.0471545338045 144.09430851495807 L 619.0025155323812 139.2374972074344 L 619.9139086184028 134.45719224080995 L 620.7847503827165 129.78431949123902 L 621.6036854376836 125.22216370779594 L 622.3544337496404 120.76479470827543 L 623.0207118929928 116.40627596353845 L 623.5862364421475 112.14067094444592 L 624.0347239715106 107.9620431218591 L 624.3498910554883 103.86445596663886 L 624.515454268487 99.84197294964626 L 624.5151301849128 95.88865754174242 L 624.3326353791722 91.99857321378826 L 623.9516864256711 88.16578343664483 L 623.355999898816 84.3843516811732 L 622.5292923730133 80.64834141823428 L 621.4552804226689 76.95181611868941 L 620.1176806221894 73.2888392533994 L 618.5040513819029 69.65540275651011 L 616.6214565972705 66.05728961330283 L 614.4831354055794 62.50338255807736 L 612.1023293884825 59.00256555211854 L 609.4922801276325 55.56372255671124 L 606.6662292046822 52.195737533140175 L 603.6374182012839 48.90749444268988 L 600.4190886990905 45.70787724664552 L 597.0244822797554 42.60576990629153 L 593.4668405249307 39.61005638291269 L 589.7594050162695 36.72962063779383 L 585.9154173354248 33.973346632219744 L 581.9481190640485 31.350118327475144 L 577.8707517837944 28.868819684844652 L 573.6965570763148 26.538334665613206 L 569.438776523262 24.36754723106543 L 565.1106517062897 22.365341342486204 L 560.7254242070504 20.54060096116021 L 556.2963356071965 18.90221004837204 L 551.8366274883807 17.459052565406807 L 547.3595414322564 16.220012473548906 L 542.8783190204763 15.193973734083329 L 538.4062018346925 14.389820308294873 L 533.9564314565579 13.816436157467933 L 529.5422494677255 13.48270524288759 L 525.1768974498486 13.397511525838553 L 520.8736169845797 13.56973896760536 L 516.6456496535714 14.008271529473149 L 512.5062370384759 14.72199317272623 L 508.468620720947 15.719787858649681 L 504.54604228263605 17.010539548528214 L 500.75174330519815 18.60313220364631 L 497.09894431813075 20.50637211973566 L 493.5983312924807 22.719715105015013 L 490.2556745535246 25.224482178094945 L 487.07618060418514 27.999914305394327 L 484.0650559473843 31.025252453319865 L 481.2275070860443 34.27973758828966 L 478.5687405230875 37.74261067671472 L 476.09396276143576 41.39311268500461 L 473.80838030401185 45.21048457957886 L 471.71719965373745 49.173967326844206 L 469.8256273135352 53.26280189321875 L 468.13886978632723 57.45622924511207 L 466.66213357503557 61.733490348936584 L 465.4006251825827 66.07382617110756 L 464.3595511118904 70.45647767803598 L 463.5441178658813 74.86068583613712 L 462.9595319474779 79.26569161182198 L 462.6109998596017 83.65073597150297 L 462.5037281051755 87.99505988159535 L 462.6429231871211 92.27790430850871 L 463.03379160836096 96.47851021866114 L 463.68153987181745 100.57611857845937 L 464.5913744804121 104.54997035432153 L 465.7677280085939 108.38047274362285 L 467.20456804353364 112.06380260803545 L 468.88834103432845 115.6074703942065 L 470.8053284834283 119.01923510648135 L 472.9418118932874 122.30685574920602 L 475.28407276635863 125.47809132672799 L 477.8183926050933 128.54070084339472 L 480.53105291194424 131.50244330355153 L 483.40833518936574 134.37107771154874 L 486.43652093980916 137.15436307172953 L 489.6018916657259 139.8600583884414 L 492.8907288695687 142.49592266603105 L 496.2893140537947 145.0697149088467 L 499.7839287208468 147.58919412123507 L 503.3608543731891 150.06211930754148 L 507.0063725132645 152.49624947211487 L 510.7067646435358 154.89934361929983 L 514.4483122664415 157.27916075344524 L 518.2172968844473 159.64345987889573 L 521.9999999999989 162.00000000000017 Z" stroke-opacity="0.6980392156862745" stroke-linecap="round" stroke-linejoin="round" stroke-miterlimit="10" stroke-width="1.5"/><path fill="rgb(0,0,0)" stroke="none" paint-order="stroke fill markers" fill-rule="evenodd" d=" M 521.9999999999994 162.00000000000006 L 525.7994480972866 164.46452940243213 L 529.6216343130136 167.12127793100456 L 533.4572901284075 169.9307269287712 L 537.2971470246955 172.85335773878595 L 541.1319364831048 175.84965170410268 L 544.9523899848625 178.88009016777525 L 548.7492390111956 181.9051544728576 L 552.5132150433316 184.8853259624035 L 556.2350495624972 187.78108597946692 L 559.9054740499199 190.55291586710166 L 563.5152199868267 193.16129696836168 L 567.0550188544447 195.56671062630082 L 570.5156021340011 197.72963818397292 L 573.8877013067231 199.61056098443188 L 577.1620478538377 201.16996037073162 L 580.3293732565722 202.36831768592594 L 583.3804089961537 203.16611427306879 L 586.3058865538094 203.523831475214 L 589.0965374107662 203.40195063541543 L 590.4384064143661 203.1488113694916 L 591.7431536069872 202.76124957404676 L 594.2417660134627 201.58815384939896 L 595.437149880797 200.81151909440925 L 596.5976146477338 199.9141742259724 L 598.8168742510288 197.77539759374693 L 600.9057195645756 195.2079108427025 L 602.8703253296023 192.24780086281888 L 604.716866287337 188.93115454407598 L 606.4515171790079 185.29405877645362 L 608.0804527458429 181.3726004499318 L 609.6098477290702 177.20286645449042 L 611.045876869918 172.8209436801091 L 612.394714909614 168.26291901676785 L 613.6625365893867 163.56487935444653 L 614.855516650464 158.76291158312512 L 615.979829834074 153.89310259278324 L 617.0416508814448 148.99153927340086 L 618.0471545338045 144.09430851495807 L 619.0025155323812 139.2374972074344 L 619.9139086184028 134.45719224080995 L 620.7847503827165 129.78431949123902 L 621.6036854376836 125.22216370779594 L 622.3544337496404 120.76479470827543 L 623.0207118929928 116.40627596353845 L 623.5862364421475 112.14067094444592 L 624.0347239715106 107.9620431218591 L 624.3498910554883 103.86445596663886 L 624.515454268487 99.84197294964626 L 624.5151301849128 95.88865754174242 L 624.3326353791722 91.99857321378826 L 623.9516864256711 88.16578343664483 L 623.355999898816 84.3843516811732 L 622.5292923730133 80.64834141823428 L 621.4552804226689 76.95181611868941 L 620.1176806221894 73.2888392533994 L 618.5040513819029 69.65540275651011 L 616.6214565972705 66.05728961330283 L 614.4831354055794 62.50338255807736 L 612.1023293884825 59.00256555211854 L 609.4922801276325 55.56372255671124 L 606.6662292046822 52.195737533140175 L 603.6374182012839 48.90749444268988 L 600.4190886990905 45.70787724664552 L 597.0244822797554 42.60576990629153 L 593.4668405249307 39.61005638291269 L 589.7594050162695 36.72962063779383 L 585.9154173354248 33.973346632219744 L 581.9481190640485 31.350118327475144 L 577.8707517837944 28.868819684844652 L 573.6965570763148 26.538334665613206 L 569.438776523262 24.36754723106543 L 565.1106517062897 22.365341342486204 L 560.7254242070504 20.54060096116021 L 556.2963356071965 18.90221004837204 L 551.8366274883807 17.459052565406807 L 547.3595414322564 16.220012473548906 L 542.8783190204763 15.193973734083329 L 538.4062018346925 14.389820308294873 L 533.9564314565579 13.816436157467933 L 529.5422494677255 13.48270524288759 L 525.1768974498486 13.397511525838553 L 520.8736169845797 13.56973896760536 L 516.6456496535714 14.008271529473149 L 512.5062370384759 14.72199317272623 L 508.468620720947 15.719787858649681 L 504.54604228263605 17.010539548528214 L 500.75174330519815 18.60313220364631 L 497.09894431813075 20.50637211973566 L 493.5983312924807 22.719715105015013 L 490.2556745535246 25.224482178094945 L 487.07618060418514 27.999914305394327 L 484.0650559473843 31.025252453319865 L 481.2275070860443 34.27973758828966 L 478.5687405230875 37.74261067671472 L 476.09396276143576 41.39311268500461 L 473.80838030401185 45.21048457957886 L 471.71719965373745 49.173967326844206 L 469.8256273135352 53.26280189321875 L 468.13886978632723 57.45622924511207 L 466.66213357503557 61.733490348936584 L 465.4006251825827 66.07382617110756 L 464.3595511118904 70.45647767803598 L 463.5441178658813 74.86068583613712 L 462.9595319474779 79.26569161182198 L 462.6109998596017 83.65073597150297 L 462.5037281051755 87.99505988159535 L 462.6429231871211 92.27790430850871 L 463.03379160836096 96.47851021866114 L 463.68153987181745 100.57611857845937 L 464.5913744804121 104.54997035432153 L 465.7677280085939 108.38047274362285 L 467.20456804353364 112.06380260803545 L 468.88834103432845 115.6074703942065 L 470.8053284834283 119.01923510648135 L 472.9418118932874 122.30685574920602 L 475.28407276635863 125.47809132672799 L 477.8183926050933 128.54070084339472 L 480.53105291194424 131.50244330355153 L 483.40833518936574 134.37107771154874 L 486.43652093980916 137.15436307172953 L 489.6018916657259 139.8600583884414 L 492.8907288695687 142.49592266603105 L 496.2893140537947 145.0697149088467 L 499.7839287208468 147.58919412123507 L 503.3608543731891 150.06211930754148 L 507.0063725132645 152.49624947211487 L 510.7067646435358 154.89934361929983 L 514.4483122664415 157.27916075344524 L 518.2172968844473 159.64345987889573 L 521.9999999999989 162.00000000000017 Z" fill-opacity="0.09803921568627451"/><g transform="scale(21,21)"><g transform="translate(27.095238095238095,8.969046285714287)"><path fill="rgb(0,0,0)" stroke="none" paint-order="stroke fill markers" d=" M 0.308 -0.34800000000000003 L 0.308 -0.34800000000000003 L 0.27 -0.223 Q 0.23900000000000002 -0.123 0.199 -0.022 Q 0.19 -0.003 0.153 0.015 Q 0.136 0.022 0.126 0.022 Q 0.115 0.022 0.115 0.015 Q 0.115 0.012 0.125 -0.015 Q 0.242 -0.317 0.27 -0.532 Q 0.274 -0.5650000000000001 0.274 -0.584 Q 0.274 -0.615 0.246 -0.625 Q 0.23700000000000002 -0.628 0.226 -0.628 Q 0.151 -0.628 0.123 -0.581 L 0.123 -0.58 Q 0.114 -0.5640000000000001 0.106 -0.54 Q 0.096 -0.51 0.049 -0.493 Q 0.037 -0.489 0.03 -0.489 Q 0.028 -0.489 0.02 -0.492 Q 0.036000000000000004 -0.58 0.134 -0.638 Q 0.211 -0.683 0.292 -0.683 Q 0.356 -0.678 0.359 -0.626 Q 0.359 -0.597 0.34600000000000003 -0.516 Q 0.332 -0.44 0.319 -0.393 Q 0.335 -0.403 0.364 -0.403 L 0.63 -0.403 Q 0.681 -0.544 0.729 -0.627 Q 0.742 -0.65 0.749 -0.656 Q 0.784 -0.683 0.807 -0.683 Q 0.8180000000000001 -0.683 0.8180000000000001 -0.675 Q 0.8180000000000001 -0.671 0.811 -0.661 Q 0.707 -0.461 0.662 -0.272 Q 0.64 -0.177 0.64 -0.10300000000000001 Q 0.64 -0.036000000000000004 0.657 -0.019 L 0.657 -0.019 Q 0.668 -0.008 0.686 -0.008 Q 0.6940000000000001 -0.008 0.711 -0.013000000000000001 Q 0.715 -0.035 0.742 -0.053 Q 0.772 -0.074 0.791 -0.074 Q 0.801 -0.074 0.801 -0.066 Q 0.801 -0.034 0.743 0.005 Q 0.68 0.047 0.62 0.047 Q 0.5660000000000001 0.047 0.558 -0.006 Q 0.555 -0.022 0.555 -0.06 Q 0.555 -0.182 0.614 -0.358 Q 0.598 -0.34800000000000003 0.5690000000000001 -0.34800000000000003 L 0.308 -0.34800000000000003 Z"/></g><g transform="translate(27.939756095238096,9.119046285714287) scale(0.7,0.7)"><path fill="rgb(0,0,0)" stroke="none" paint-order="stroke fill markers" d=" M 0.449 -0.17400000000000002 L 0.449 -0.17400000000000002 L 0.421 0 L 0.05 0 Q 0.05 -0.025 0.056 -0.032 L 0.061 -0.037 L 0.253 -0.251 Q 0.358 -0.369 0.358 -0.47200000000000003 Q 0.358 -0.561 0.304 -0.607 L 0.303 -0.608 L 0.302 -0.608 Q 0.27 -0.635 0.224 -0.635 Q 0.152 -0.635 0.109 -0.5730000000000001 Q 0.097 -0.555 0.089 -0.533 Q 0.092 -0.534 0.10200000000000001 -0.534 Q 0.14200000000000002 -0.534 0.153 -0.498 L 0.153 -0.497 Q 0.155 -0.49 0.155 -0.482 Q 0.155 -0.442 0.117 -0.431 Q 0.109 -0.429 0.10300000000000001 -0.429 Q 0.066 -0.429 0.054 -0.46 Q 0.05 -0.47100000000000003 0.05 -0.485 Q 0.05 -0.562 0.109 -0.617 Q 0.162 -0.666 0.23700000000000002 -0.666 Q 0.34700000000000003 -0.666 0.40800000000000003 -0.592 Q 0.443 -0.549 0.448 -0.49 Q 0.449 -0.481 0.449 -0.47200000000000003 Q 0.449 -0.399 0.394 -0.333 Q 0.365 -0.299 0.304 -0.243 L 0.243 -0.189 L 0.233 -0.18 L 0.127 -0.077 L 0.307 -0.077 Q 0.395 -0.077 0.402 -0.085 Q 0.41200000000000003 -0.099 0.424 -0.17400000000000002 L 0.449 -0.17400000000000002 Z"/></g></g><path fill="none" stroke="rgb(0,0,0)" paint-order="fill stroke markers" d=" M 149.99999999999983 145.99999999999994 L 196.99999999999977 228.99999999999991" stroke-opacity="0.6980392156862745" stroke-linejoin="round" stroke-miterlimit="10" stroke-width="1.5" stroke-dasharray="9.5,8"/><path fill="none" stroke="rgb(0,0,0)" paint-order="fill stroke markers" d=" M 196.99999999999977 228.99999999999991 L 428.9999999999995 70.99999999999994" stroke-opacity="0.6980392156862745" stroke-linejoin="round" stroke-miterlimit="10" stroke-width="1.5" stroke-dasharray="9.5,8"/><path fill="none" stroke="rgb(0,0,0)" paint-order="fill stroke markers" d=" M 518.9999999999994 105.99999999999996 L 428.9999999999995 70.99999999999994" stroke-opacity="0.6980392156862745" stroke-linejoin="round" stroke-miterlimit="10" stroke-width="1.5" stroke-dasharray="9.5,8"/><path fill="none" stroke="rgb(0,0,0)" paint-order="fill stroke markers" d=" M 518.9999999999994 105.99999999999996 L 149.99999999999983 145.99999999999994" stroke-opacity="0.6980392156862745" stroke-linejoin="round" stroke-miterlimit="10" stroke-width="1.5" stroke-dasharray="9.5,8"/><path fill="rgb(0,153,255)" stroke="none" paint-order="stroke fill markers" d=" M 153.99999999999983 145.99999999999994 C 153.99999999999983 148.2091389993231 152.209138999323 149.99999999999994 149.99999999999983 149.99999999999994 C 147.79086100067664 149.99999999999994 145.99999999999983 148.2091389993231 145.99999999999983 145.99999999999994 C 145.99999999999983 143.79086100067676 147.79086100067664 141.99999999999994 149.99999999999983 141.99999999999994 C 152.209138999323 141.99999999999994 153.99999999999983 143.79086100067676 153.99999999999983 145.99999999999994 Z" fill-opacity="1"/><path fill="none" stroke="rgb(0,0,0)" paint-order="fill stroke markers" d=" M 153.99999999999983 145.99999999999994 C 153.99999999999983 148.2091389993231 152.209138999323 149.99999999999994 149.99999999999983 149.99999999999994 C 147.79086100067664 149.99999999999994 145.99999999999983 148.2091389993231 145.99999999999983 145.99999999999994 C 145.99999999999983 143.79086100067676 147.79086100067664 141.99999999999994 149.99999999999983 141.99999999999994 C 152.209138999323 141.99999999999994 153.99999999999983 143.79086100067676 153.99999999999983 145.99999999999994 Z" stroke-opacity="1" stroke-linecap="round" stroke-linejoin="round" stroke-miterlimit="10"/><g transform="scale(21,21)"><g transform="translate(5.285714285714286,7.027778333333333)"><path fill="rgb(0,153,255)" stroke="none" paint-order="stroke fill markers" d=" M 0.367 -0.4 L 0.367 -0.4 L 0.307 -0.083 Q 0.298 -0.021 0.271 0.059000000000000004 Q 0.261 0.088 0.251 0.108 Q 0.216 0.182 0.164 0.2 Q 0.151 0.20500000000000002 0.138 0.20500000000000002 Q 0.088 0.20500000000000002 0.064 0.171 Q 0.053 0.156 0.053 0.136 Q 0.053 0.096 0.08700000000000001 0.081 Q 0.097 0.076 0.108 0.076 Q 0.137 0.076 0.14400000000000002 0.101 Q 0.145 0.106 0.145 0.111 Q 0.145 0.145 0.115 0.159 Q 0.10400000000000001 0.164 0.09 0.165 Q 0.109 0.183 0.138 0.183 Q 0.182 0.183 0.20700000000000002 0.085 Q 0.212 0.062 0.219 0.025 L 0.225 -0.005 L 0.3 -0.4 L 0.234 -0.4 Q 0.209 -0.4 0.20700000000000002 -0.40800000000000003 L 0.20600000000000002 -0.40800000000000003 L 0.20600000000000002 -0.41200000000000003 Q 0.20600000000000002 -0.429 0.223 -0.431 L 0.223 -0.431 L 0.23600000000000002 -0.431 L 0.305 -0.431 Q 0.329 -0.556 0.338 -0.588 Q 0.368 -0.6880000000000001 0.444 -0.7030000000000001 Q 0.455 -0.705 0.465 -0.705 Q 0.517 -0.705 0.541 -0.671 L 0.541 -0.671 Q 0.552 -0.656 0.552 -0.636 Q 0.552 -0.596 0.518 -0.581 Q 0.508 -0.5760000000000001 0.497 -0.5760000000000001 Q 0.468 -0.5760000000000001 0.461 -0.601 Q 0.46 -0.606 0.46 -0.611 Q 0.46 -0.642 0.488 -0.657 Q 0.499 -0.664 0.514 -0.665 Q 0.495 -0.683 0.465 -0.683 Q 0.434 -0.683 0.418 -0.649 Q 0.41100000000000003 -0.635 0.394 -0.545 L 0.373 -0.431 L 0.456 -0.431 Q 0.481 -0.431 0.483 -0.42 Q 0.483 -0.402 0.467 -0.4 L 0.466 -0.4 L 0.453 -0.4 L 0.367 -0.4 Z"/></g><g transform="translate(5.775300285714286,7.177778333333333) scale(0.7,0.7)"><path fill="rgb(0,153,255)" stroke="none" paint-order="stroke fill markers" d=" M 0.294 -0.64 L 0.294 -0.079 Q 0.294 -0.049 0.306 -0.041 Q 0.323 -0.031 0.387 -0.031 L 0.419 -0.031 L 0.419 0 Q 0.384 -0.003 0.257 -0.003 Q 0.13 -0.003 0.095 0 L 0.095 -0.031 L 0.127 -0.031 Q 0.20400000000000001 -0.031 0.215 -0.049 L 0.216 -0.05 Q 0.22 -0.058 0.22 -0.079 L 0.22 -0.597 Q 0.168 -0.5710000000000001 0.089 -0.5710000000000001 L 0.089 -0.602 Q 0.209 -0.602 0.271 -0.666 Q 0.29 -0.666 0.293 -0.659 L 0.293 -0.659 L 0.293 -0.658 Q 0.294 -0.655 0.294 -0.64 Z"/></g></g><path fill="rgb(77,77,255)" stroke="none" paint-order="stroke fill markers" d=" M 200.99999999999977 228.99999999999991 C 200.99999999999977 231.2091389993231 199.20913899932293 232.99999999999991 196.99999999999977 232.99999999999991 C 194.79086100067659 232.99999999999991 192.99999999999977 231.2091389993231 192.99999999999977 228.99999999999991 C 192.99999999999977 226.79086100067673 194.79086100067659 224.99999999999991 196.99999999999977 224.99999999999991 C 199.20913899932293 224.99999999999991 200.99999999999977 226.79086100067673 200.99999999999977 228.99999999999991 Z" fill-opacity="1"/><path fill="none" stroke="rgb(0,0,0)" paint-order="fill stroke markers" d=" M 200.99999999999977 228.99999999999991 C 200.99999999999977 231.2091389993231 199.20913899932293 232.99999999999991 196.99999999999977 232.99999999999991 C 194.79086100067659 232.99999999999991 192.99999999999977 231.2091389993231 192.99999999999977 228.99999999999991 C 192.99999999999977 226.79086100067673 194.79086100067659 224.99999999999991 196.99999999999977 224.99999999999991 C 199.20913899932293 224.99999999999991 200.99999999999977 226.79086100067673 200.99999999999977 228.99999999999991 Z" stroke-opacity="1" stroke-linecap="round" stroke-linejoin="round" stroke-miterlimit="10"/><g transform="scale(21,21)"><g transform="translate(9,12.361111666666666)"><path fill="rgb(77,77,255)" stroke="none" paint-order="stroke fill markers" d=" M 0.28700000000000003 -0.683 L 0.209 -0.365 Q 0.271 -0.442 0.357 -0.442 Q 0.446 -0.442 0.467 -0.373 L 0.467 -0.372 Q 0.47200000000000003 -0.355 0.47200000000000003 -0.335 Q 0.47200000000000003 -0.279 0.41100000000000003 -0.115 Q 0.393 -0.07100000000000001 0.393 -0.044 Q 0.393 -0.011 0.417 -0.011 Q 0.47900000000000004 -0.011 0.515 -0.121 L 0.519 -0.135 Q 0.524 -0.151 0.529 -0.152 L 0.529 -0.153 L 0.534 -0.153 Q 0.546 -0.153 0.546 -0.14300000000000002 Q 0.546 -0.126 0.525 -0.08 Q 0.482 0.011 0.41500000000000004 0.011 Q 0.364 0.011 0.342 -0.032 Q 0.333 -0.05 0.333 -0.07100000000000001 Q 0.333 -0.089 0.34600000000000003 -0.126 Q 0.40800000000000003 -0.28400000000000003 0.40800000000000003 -0.35000000000000003 Q 0.40800000000000003 -0.42 0.354 -0.42 Q 0.306 -0.42 0.258 -0.385 Q 0.221 -0.356 0.193 -0.299 L 0.19 -0.293 Q 0.186 -0.269 0.179 -0.248 Q 0.17400000000000002 -0.225 0.162 -0.181 L 0.14 -0.091 L 0.121 -0.015 Q 0.114 0.006 0.09 0.01 Q 0.08700000000000001 0.011 0.084 0.011 Q 0.06 0.011 0.056 -0.01 Q 0.055 -0.014 0.055 -0.017 Q 0.055 -0.025 0.059000000000000004 -0.039 L 0.20400000000000001 -0.615 L 0.20700000000000002 -0.635 Q 0.20700000000000002 -0.646 0.193 -0.649 L 0.193 -0.649 Q 0.181 -0.652 0.157 -0.652 Q 0.135 -0.652 0.133 -0.664 Q 0.133 -0.681 0.152 -0.684 L 0.274 -0.6940000000000001 Q 0.28700000000000003 -0.6940000000000001 0.28700000000000003 -0.683 Z"/></g><g transform="translate(9.5761595,12.511111666666666) scale(0.7,0.7)"><path fill="rgb(77,77,255)" stroke="none" paint-order="stroke fill markers" d=" M 0.294 -0.64 L 0.294 -0.079 Q 0.294 -0.049 0.306 -0.041 Q 0.323 -0.031 0.387 -0.031 L 0.419 -0.031 L 0.419 0 Q 0.384 -0.003 0.257 -0.003 Q 0.13 -0.003 0.095 0 L 0.095 -0.031 L 0.127 -0.031 Q 0.20400000000000001 -0.031 0.215 -0.049 L 0.216 -0.05 Q 0.22 -0.058 0.22 -0.079 L 0.22 -0.597 Q 0.168 -0.5710000000000001 0.089 -0.5710000000000001 L 0.089 -0.602 Q 0.209 -0.602 0.271 -0.666 Q 0.29 -0.666 0.293 -0.659 L 0.293 -0.659 L 0.293 -0.658 Q 0.294 -0.655 0.294 -0.64 Z"/></g></g><path fill="rgb(77,77,255)" stroke="none" paint-order="stroke fill markers" d=" M 522.9999999999994 105.99999999999996 C 522.9999999999994 108.20913899932313 521.2091389993226 109.99999999999996 518.9999999999994 109.99999999999996 C 516.7908610006763 109.99999999999996 514.9999999999994 108.20913899932313 514.9999999999994 105.99999999999996 C 514.9999999999994 103.79086100067678 516.7908610006763 101.99999999999996 518.9999999999994 101.99999999999996 C 521.2091389993226 101.99999999999996 522.9999999999994 103.79086100067678 522.9999999999994 105.99999999999996 Z" fill-opacity="1"/><path fill="none" stroke="rgb(0,0,0)" paint-order="fill stroke markers" d=" M 522.9999999999994 105.99999999999996 C 522.9999999999994 108.20913899932313 521.2091389993226 109.99999999999996 518.9999999999994 109.99999999999996 C 516.7908610006763 109.99999999999996 514.9999999999994 108.20913899932313 514.9999999999994 105.99999999999996 C 514.9999999999994 103.79086100067678 516.7908610006763 101.99999999999996 518.9999999999994 101.99999999999996 C 521.2091389993226 101.99999999999996 522.9999999999994 103.79086100067678 522.9999999999994 105.99999999999996 Z" stroke-opacity="1" stroke-linecap="round" stroke-linejoin="round" stroke-miterlimit="10"/><g transform="scale(21,21)"><g transform="translate(25.476190476190474,5.408730714285714)"><path fill="rgb(77,77,255)" stroke="none" paint-order="stroke fill markers" d=" M 0.28700000000000003 -0.683 L 0.209 -0.365 Q 0.271 -0.442 0.357 -0.442 Q 0.446 -0.442 0.467 -0.373 L 0.467 -0.372 Q 0.47200000000000003 -0.355 0.47200000000000003 -0.335 Q 0.47200000000000003 -0.279 0.41100000000000003 -0.115 Q 0.393 -0.07100000000000001 0.393 -0.044 Q 0.393 -0.011 0.417 -0.011 Q 0.47900000000000004 -0.011 0.515 -0.121 L 0.519 -0.135 Q 0.524 -0.151 0.529 -0.152 L 0.529 -0.153 L 0.534 -0.153 Q 0.546 -0.153 0.546 -0.14300000000000002 Q 0.546 -0.126 0.525 -0.08 Q 0.482 0.011 0.41500000000000004 0.011 Q 0.364 0.011 0.342 -0.032 Q 0.333 -0.05 0.333 -0.07100000000000001 Q 0.333 -0.089 0.34600000000000003 -0.126 Q 0.40800000000000003 -0.28400000000000003 0.40800000000000003 -0.35000000000000003 Q 0.40800000000000003 -0.42 0.354 -0.42 Q 0.306 -0.42 0.258 -0.385 Q 0.221 -0.356 0.193 -0.299 L 0.19 -0.293 Q 0.186 -0.269 0.179 -0.248 Q 0.17400000000000002 -0.225 0.162 -0.181 L 0.14 -0.091 L 0.121 -0.015 Q 0.114 0.006 0.09 0.01 Q 0.08700000000000001 0.011 0.084 0.011 Q 0.06 0.011 0.056 -0.01 Q 0.055 -0.014 0.055 -0.017 Q 0.055 -0.025 0.059000000000000004 -0.039 L 0.20400000000000001 -0.615 L 0.20700000000000002 -0.635 Q 0.20700000000000002 -0.646 0.193 -0.649 L 0.193 -0.649 Q 0.181 -0.652 0.157 -0.652 Q 0.135 -0.652 0.133 -0.664 Q 0.133 -0.681 0.152 -0.684 L 0.274 -0.6940000000000001 Q 0.28700000000000003 -0.6940000000000001 0.28700000000000003 -0.683 Z"/></g><g transform="translate(26.052349976190474,5.558730714285715) scale(0.7,0.7)"><path fill="rgb(77,77,255)" stroke="none" paint-order="stroke fill markers" d=" M 0.449 -0.17400000000000002 L 0.449 -0.17400000000000002 L 0.421 0 L 0.05 0 Q 0.05 -0.025 0.056 -0.032 L 0.061 -0.037 L 0.253 -0.251 Q 0.358 -0.369 0.358 -0.47200000000000003 Q 0.358 -0.561 0.304 -0.607 L 0.303 -0.608 L 0.302 -0.608 Q 0.27 -0.635 0.224 -0.635 Q 0.152 -0.635 0.109 -0.5730000000000001 Q 0.097 -0.555 0.089 -0.533 Q 0.092 -0.534 0.10200000000000001 -0.534 Q 0.14200000000000002 -0.534 0.153 -0.498 L 0.153 -0.497 Q 0.155 -0.49 0.155 -0.482 Q 0.155 -0.442 0.117 -0.431 Q 0.109 -0.429 0.10300000000000001 -0.429 Q 0.066 -0.429 0.054 -0.46 Q 0.05 -0.47100000000000003 0.05 -0.485 Q 0.05 -0.562 0.109 -0.617 Q 0.162 -0.666 0.23700000000000002 -0.666 Q 0.34700000000000003 -0.666 0.40800000000000003 -0.592 Q 0.443 -0.549 0.448 -0.49 Q 0.449 -0.481 0.449 -0.47200000000000003 Q 0.449 -0.399 0.394 -0.333 Q 0.365 -0.299 0.304 -0.243 L 0.243 -0.189 L 0.233 -0.18 L 0.127 -0.077 L 0.307 -0.077 Q 0.395 -0.077 0.402 -0.085 Q 0.41200000000000003 -0.099 0.424 -0.17400000000000002 L 0.449 -0.17400000000000002 Z"/></g></g><path fill="rgb(255,102,153)" stroke="none" paint-order="stroke fill markers" d=" M 432.9999999999995 70.99999999999994 C 432.9999999999995 73.20913899932312 431.20913899932265 74.99999999999994 428.9999999999995 74.99999999999994 C 426.79086100067633 74.99999999999994 424.9999999999995 73.20913899932312 424.9999999999995 70.99999999999994 C 424.9999999999995 68.79086100067677 426.79086100067633 66.99999999999994 428.9999999999995 66.99999999999994 C 431.20913899932265 66.99999999999994 432.9999999999995 68.79086100067677 432.9999999999995 70.99999999999994 Z" fill-opacity="1"/><path fill="none" stroke="rgb(0,0,0)" paint-order="fill stroke markers" d=" M 432.9999999999995 70.99999999999994 C 432.9999999999995 73.20913899932312 431.20913899932265 74.99999999999994 428.9999999999995 74.99999999999994 C 426.79086100067633 74.99999999999994 424.9999999999995 73.20913899932312 424.9999999999995 70.99999999999994 C 424.9999999999995 68.79086100067677 426.79086100067633 66.99999999999994 428.9999999999995 66.99999999999994 C 431.20913899932265 66.99999999999994 432.9999999999995 68.79086100067677 432.9999999999995 70.99999999999994 Z" stroke-opacity="1" stroke-linecap="round" stroke-linejoin="round" stroke-miterlimit="10"/><g transform="scale(21,21)"><g transform="translate(19.952380952380953,2.4087307142857144)"><path fill="rgb(255,102,153)" stroke="none" paint-order="stroke fill markers" d=" M 0.367 -0.4 L 0.367 -0.4 L 0.307 -0.083 Q 0.298 -0.021 0.271 0.059000000000000004 Q 0.261 0.088 0.251 0.108 Q 0.216 0.182 0.164 0.2 Q 0.151 0.20500000000000002 0.138 0.20500000000000002 Q 0.088 0.20500000000000002 0.064 0.171 Q 0.053 0.156 0.053 0.136 Q 0.053 0.096 0.08700000000000001 0.081 Q 0.097 0.076 0.108 0.076 Q 0.137 0.076 0.14400000000000002 0.101 Q 0.145 0.106 0.145 0.111 Q 0.145 0.145 0.115 0.159 Q 0.10400000000000001 0.164 0.09 0.165 Q 0.109 0.183 0.138 0.183 Q 0.182 0.183 0.20700000000000002 0.085 Q 0.212 0.062 0.219 0.025 L 0.225 -0.005 L 0.3 -0.4 L 0.234 -0.4 Q 0.209 -0.4 0.20700000000000002 -0.40800000000000003 L 0.20600000000000002 -0.40800000000000003 L 0.20600000000000002 -0.41200000000000003 Q 0.20600000000000002 -0.429 0.223 -0.431 L 0.223 -0.431 L 0.23600000000000002 -0.431 L 0.305 -0.431 Q 0.329 -0.556 0.338 -0.588 Q 0.368 -0.6880000000000001 0.444 -0.7030000000000001 Q 0.455 -0.705 0.465 -0.705 Q 0.517 -0.705 0.541 -0.671 L 0.541 -0.671 Q 0.552 -0.656 0.552 -0.636 Q 0.552 -0.596 0.518 -0.581 Q 0.508 -0.5760000000000001 0.497 -0.5760000000000001 Q 0.468 -0.5760000000000001 0.461 -0.601 Q 0.46 -0.606 0.46 -0.611 Q 0.46 -0.642 0.488 -0.657 Q 0.499 -0.664 0.514 -0.665 Q 0.495 -0.683 0.465 -0.683 Q 0.434 -0.683 0.418 -0.649 Q 0.41100000000000003 -0.635 0.394 -0.545 L 0.373 -0.431 L 0.456 -0.431 Q 0.481 -0.431 0.483 -0.42 Q 0.483 -0.402 0.467 -0.4 L 0.466 -0.4 L 0.453 -0.4 L 0.367 -0.4 Z"/></g><g transform="translate(20.44196695238095,2.5587307142857143) scale(0.7,0.7)"><path fill="rgb(255,102,153)" stroke="none" paint-order="stroke fill markers" d=" M 0.449 -0.17400000000000002 L 0.449 -0.17400000000000002 L 0.421 0 L 0.05 0 Q 0.05 -0.025 0.056 -0.032 L 0.061 -0.037 L 0.253 -0.251 Q 0.358 -0.369 0.358 -0.47200000000000003 Q 0.358 -0.561 0.304 -0.607 L 0.303 -0.608 L 0.302 -0.608 Q 0.27 -0.635 0.224 -0.635 Q 0.152 -0.635 0.109 -0.5730000000000001 Q 0.097 -0.555 0.089 -0.533 Q 0.092 -0.534 0.10200000000000001 -0.534 Q 0.14200000000000002 -0.534 0.153 -0.498 L 0.153 -0.497 Q 0.155 -0.49 0.155 -0.482 Q 0.155 -0.442 0.117 -0.431 Q 0.109 -0.429 0.10300000000000001 -0.429 Q 0.066 -0.429 0.054 -0.46 Q 0.05 -0.47100000000000003 0.05 -0.485 Q 0.05 -0.562 0.109 -0.617 Q 0.162 -0.666 0.23700000000000002 -0.666 Q 0.34700000000000003 -0.666 0.40800000000000003 -0.592 Q 0.443 -0.549 0.448 -0.49 Q 0.449 -0.481 0.449 -0.47200000000000003 Q 0.449 -0.399 0.394 -0.333 Q 0.365 -0.299 0.304 -0.243 L 0.243 -0.189 L 0.233 -0.18 L 0.127 -0.077 L 0.307 -0.077 Q 0.395 -0.077 0.402 -0.085 Q 0.41200000000000003 -0.099 0.424 -0.17400000000000002 L 0.449 -0.17400000000000002 Z"/></g></g></g></g></svg>