<?xml version="1.0" encoding="UTF-8"?>
<!DOCTYPE svg  PUBLIC '-//W3C//DTD SVG 1.1//EN'  'http://www.w3.org/Graphics/SVG/1.1/DTD/svg11.dtd'>
<!-- Created with matplotlib (https://matplotlib.org/) -->
<svg width="216pt" height="216pt" version="1.1" viewBox="0 0 216 216" xmlns="http://www.w3.org/2000/svg" xmlns:xlink="http://www.w3.org/1999/xlink">
 <defs>
  <style type="text/css">*{stroke-linecap:butt;stroke-linejoin:round;}</style>
 </defs>
 <g id="figure_1">
  <g id="patch_1">
   <path d="m0 216h216v-216h-216z" fill="#fff"/>
  </g>
  <g id="axes_1">
   <g id="patch_2">
    <path d="m0.216 198.72h215.57v-198.5h-215.57z" fill="#fff"/>
   </g>
   <g id="PathCollection_1">
    <path d="m0.94922 198.72h0.73322 0.73322 0.73322 0.73322 0.73322 0.73322 0.73322 0.73322 0.73322 0.73322 0.73322 0.73322 0.73322 0.73322 0.73322 0.73322 0.73322 0.73322 0.73322 0.73322 0.73322 0.73322 0.73322 0.73322 0.73322 0.73322 0.73322 0.73322 0.73322 0.73322 0.73322 0.73322 0.73322 0.73322 0.73322 0.73322 0.73322 0.73322 0.73322 0.73322 0.73322 0.73322 0.73322 0.73322 0.73322 0.73322 0.73322 0.73322 0.73322 0.73322 0.73322 0.73322 0.73322 0.73322 0.73322 0.73322 0.73322 0.73322 0.73322 0.73322 0.73322 0.73322 0.73322 0.73322 0.73322 0.73322 0.73322 0.73322 0.73322 0.73322 0.73322 0.73322 0.73322 0.73322 0.73322 0.73322 0.73322 0.73322 0.73322 0.73322 0.73322 0.73322 0.73322 0.73322 0.73322 0.73322 0.73322 0.73322 0.73322 0.73322 0.73322 0.73322 0.73322 0.73322 0.73322 0.73322 0.73322 0.73322 0.73322 0.73322 0.73322 0.73322 0.73322 0.73322 0.73322 0.73322 0.73322 0.73322 0.73322 0.73322 0.73322 0.73322 0.73322 0.73322 0.73322 0.73322 0.73322 0.73322 0.73322 0.73322 0.73322 0.73322 0.73322 0.73322 0.73322 0.73322 0.73322 0.73322 0.73322 0.73322 0.73322 0.73322 0.73322 0.73322 0.73322 0.73322 0.73322 0.73322 0.73322 0.73322 0.73322 0.73322 0.73322 0.73322 0.73322 0.73322 0.73322 0.73322 0.73322 0.73322 0.73322 0.73322 0.73322 0.73322 0.73322 0.73322 0.73322 0.73322 0.73322 0.73322 0.73322 0.73322 0.73322 0.73322 0.73322 0.73322 0.73322 0.73322 0.73322 0.73322 0.73322 0.73322 0.73322 0.73322 0.73322 0.73322 0.73322 0.73322 0.73322 0.73322 0.73322 0.73322 0.73322 0.73322 0.73322 0.73322 0.73322 0.73322 0.73322 0.73322 0.73322 0.73322 0.73322 0.73322 0.73322 0.73322 0.73322 0.73322 0.73322 0.73322 0.73322 0.73322 0.73322 0.73322 0.73322 0.73322 0.73322 0.73322 0.73322 0.73322 0.73322 0.73322 0.73322 0.73322 0.73322 0.73322 0.73322 0.73322 0.73322 0.73322 0.73322 0.73322 0.73322 0.73322 0.73322 0.73322 0.73322 0.73322 0.73322 0.73322 0.73322 0.73322 0.73322 0.73322 0.73322 0.73322 0.73322 0.73322 0.73322 0.73322 0.73322 0.73322 0.73322 0.73322 0.73322 0.73322 0.73322 0.73322 0.73322 0.73322 0.73322 0.73322 0.73322 0.73322 0.73322 0.73322 0.73322 0.73322 0.73322 0.73322 0.73322 0.73322 0.73322 0.73322 0.73322 0.73322 0.73322 0.73322 0.73322 0.73322 0.73322 0.73322 0.73322 0.73322 0.73322 0.73322 0.73322 0.73322 0.73322 0.73322 0.73322 0.73322 0.73322 0.73322 0.73322 0.73322 0.73322 0.73322 0.73322 0.73322 0.73322 0.73322 0.73322v-1.1408-1.1408-1.1408-1.1408-1.1408-1.1408-1.1408-1.1408-1.1408-1.1408-1.1408-1.1408-1.1408-1.1408-1.1408-1.1408-1.1408-1.1408-1.1408-1.1408-1.1408-1.1408-1.1408-1.1408-1.1408-1.1408-1.1408-1.1408-1.1408-1.1408-1.1408-1.1408-1.1408-1.1408-1.1408-1.1408-1.1408-1.1408-1.1408-1.1408-1.1408-1.1408-1.1408-1.1408-1.1408-1.1408-1.1408-1.1408-1.1408-1.1408-1.1408-1.1408-1.1408-1.1408-1.1408-1.1408-1.1408-1.1408-1.1408-1.1408-1.1408-1.1408-1.1408-1.1408-1.1408-1.1408-1.1408-1.1408-1.1408-1.1408-1.1408-1.1408-1.1408-1.1408-1.1408-1.1408-1.1408-1.1408-1.1408-1.1408-1.1408-1.1408-1.1408-1.1408-1.1408-1.1408-1.1408-1.1408-1.1408-1.1408-1.1408-1.1408-1.1408-1.1408-1.1408-0.1426h-0.73322-0.73322-0.73322-0.73322-0.73322-0.73322-0.73322-0.73322-0.73322-0.73322l-0.73322 1.1408h-0.73322-0.73322-0.73322-0.73322-0.73322-0.73322-0.73322-0.73322-0.73322-0.73322-0.73322-0.73322-0.73322l-0.091653 0.1426-0.64157 0.99822h-0.73322-0.73322-0.73322-0.73322-0.73322-0.73322-0.73322-0.73322-0.73322-0.73322-0.73322-0.73322l-0.73322 1.1408h-0.73322-0.73322-0.73322-0.73322-0.73322-0.73322-0.73322-0.73322-0.73322-0.73322-0.73322-0.73322-0.73322l-0.73322 1.1408h-0.73322-0.73322-0.73322-0.73322-0.73322-0.73322-0.73322-0.73322-0.73322-0.73322-0.73322-0.73322-0.73322l-0.091653 0.1426-0.64157 0.99822h-0.73322-0.73322-0.73322-0.73322-0.73322-0.73322-0.73322-0.73322-0.73322-0.73322-0.73322-0.73322l-0.73322 1.1408h-0.73322-0.73322-0.73322-0.73322-0.73322-0.73322-0.73322-0.73322-0.73322-0.73322-0.73322-0.73322-0.73322l-0.091653 0.1426-0.64157 0.99822h-0.73322-0.73322-0.73322-0.73322-0.73322-0.73322-0.73322-0.73322-0.73322-0.73322-0.73322-0.73322-0.73322l-0.73322 1.1408h-0.73322-0.73322-0.73322-0.73322-0.73322-0.73322-0.73322-0.73322-0.73322-0.73322-0.73322-0.73322-0.73322l-0.73322 1.1408h-0.73322-0.73322-0.73322-0.73322-0.73322-0.73322-0.73322-0.73322-0.73322-0.73322-0.73322-0.73322l-0.091653 0.1426-0.64157 0.99822h-0.73322-0.73322-0.73322-0.73322-0.73322-0.73322-0.73322-0.73322-0.73322-0.73322-0.73322-0.73322-0.73322l-0.73322 1.1408h-0.73322-0.73322-0.73322-0.73322-0.73322-0.73322-0.73322-0.73322-0.73322-0.73322-0.73322-0.73322-0.73322l-0.091653 0.1426-0.64157 0.99822h-0.73322-0.73322-0.73322-0.73322-0.73322-0.73322-0.73322-0.73322-0.73322-0.73322-0.73322-0.73322l-0.73322 1.1408h-0.73322-0.73322-0.73322-0.73322-0.73322-0.73322-0.73322-0.73322-0.73322-0.73322-0.73322-0.73322-0.73322l-0.091653 0.1426-0.64157 0.99822h-0.73322-0.73322-0.73322-0.73322-0.73322-0.73322-0.73322-0.73322-0.73322-0.73322-0.73322-0.73322-0.73322l-0.091653 0.1426-0.64157 0.99822h-0.73322-0.73322-0.73322-0.73322-0.73322-0.73322-0.73322-0.73322-0.73322-0.73322-0.73322-0.73322l-0.73322 1.1408h-0.73322-0.73322-0.73322-0.73322-0.73322-0.73322-0.73322-0.73322-0.73322-0.73322-0.73322-0.73322-0.73322l-0.091653 0.1426-0.64157 0.99822h-0.73322-0.73322-0.73322-0.73322-0.73322-0.73322-0.73322-0.73322-0.73322-0.73322-0.73322-0.73322-0.73322l-0.73322 1.1408h-0.73322-0.73322-0.73322-0.73322-0.73322-0.73322-0.73322-0.73322-0.73322-0.73322-0.73322-0.73322-0.73322l-0.091653 0.1426-0.64157 0.99822h-0.73322-0.73322-0.73322-0.73322-0.73322-0.73322-0.73322-0.73322-0.73322-0.73322-0.73322-0.73322l-0.73322 1.1408h-0.73322-0.73322-0.73322-0.73322-0.73322-0.73322-0.73322-0.73322-0.73322-0.73322-0.73322-0.73322-0.73322l-0.73322 1.1408h-0.73322-0.73322-0.73322-0.73322-0.73322-0.73322-0.73322-0.73322-0.73322v0.1426 1.1408 1.1408 1.1408 1.1408 1.1408 1.1408 1.1408 1.1408 1.1408 1.1408 1.1408 1.1408 1.1408 1.1408 1.1408 1.1408 1.1408 1.1408 1.1408 1.1408 1.1408 1.1408 1.1408 1.1408 1.1408 1.1408 1.1408 1.1408 1.1408 1.1408 1.1408 1.1408 1.1408 1.1408 1.1408 1.1408 1.1408 1.1408 1.1408 1.1408 1.1408 1.1408 1.1408 1.1408 1.1408 1.1408 1.1408 1.1408 1.1408 1.1408 1.1408 1.1408 1.1408 1.1408 1.1408 1.1408 1.1408 1.1408 1.1408 1.1408 1.1408 1.1408 1.1408 1.1408 1.1408 1.1408 1.1408 1.1408 1.1408 1.1408 1.1408 1.1408 1.1408 1.1408z" clip-path="url(#p84f8dea8fb)" fill="#00f" fill-opacity=".4"/>
   </g>
   <g id="PathCollection_2">
    <path d="m0.94922 114.16h0.73322 0.73322 0.73322 0.73322 0.73322 0.73322 0.73322 0.73322l0.73322-1.1408h0.73322 0.73322 0.73322 0.73322 0.73322 0.73322 0.73322 0.73322 0.73322 0.73322 0.73322 0.73322 0.73322l0.73322-1.1408h0.73322 0.73322 0.73322 0.73322 0.73322 0.73322 0.73322 0.73322 0.73322 0.73322 0.73322 0.73322l0.73322-1.1408h0.73322 0.73322 0.73322 0.73322 0.73322 0.73322 0.73322 0.73322 0.73322 0.73322 0.73322 0.73322 0.73322l0.73322-1.1408h0.73322 0.73322 0.73322 0.73322 0.73322 0.73322 0.73322 0.73322 0.73322 0.73322 0.73322 0.73322 0.73322l0.73322-1.1408h0.73322 0.73322 0.73322 0.73322 0.73322 0.73322 0.73322 0.73322 0.73322 0.73322 0.73322 0.73322 0.73322l0.73322-1.1408h0.73322 0.73322 0.73322 0.73322 0.73322 0.73322 0.73322 0.73322 0.73322 0.73322 0.73322 0.73322l0.73322-1.1408h0.73322 0.73322 0.73322 0.73322 0.73322 0.73322 0.73322 0.73322 0.73322 0.73322 0.73322 0.73322 0.73322l0.73322-1.1408h0.73322 0.73322 0.73322 0.73322 0.73322 0.73322 0.73322 0.73322 0.73322 0.73322 0.73322 0.73322 0.73322l0.73322-1.1408h0.73322 0.73322 0.73322 0.73322 0.73322 0.73322 0.73322 0.73322 0.73322 0.73322 0.73322 0.73322l0.73322-1.1408h0.73322 0.73322 0.73322 0.73322 0.73322 0.73322 0.73322 0.73322 0.73322 0.73322 0.73322 0.73322 0.73322l0.73322-1.1408h0.73322 0.73322 0.73322 0.73322 0.73322 0.73322 0.73322 0.73322 0.73322 0.73322 0.73322 0.73322 0.73322l0.73322-1.1408h0.73322 0.73322 0.73322 0.73322 0.73322 0.73322 0.73322 0.73322 0.73322 0.73322 0.73322 0.73322l0.73322-1.1408h0.73322 0.73322 0.73322 0.73322 0.73322 0.73322 0.73322 0.73322 0.73322 0.73322 0.73322 0.73322 0.73322l0.64157-0.99822 0.091653-0.1426h0.73322 0.73322 0.73322 0.73322 0.73322 0.73322 0.73322 0.73322 0.73322 0.73322 0.73322 0.73322 0.73322l0.73322-1.1408h0.73322 0.73322 0.73322 0.73322 0.73322 0.73322 0.73322 0.73322 0.73322 0.73322 0.73322 0.73322 0.73322l0.73322-1.1408h0.73322 0.73322 0.73322 0.73322 0.73322 0.73322 0.73322 0.73322 0.73322 0.73322 0.73322 0.73322l0.73322-1.1408h0.73322 0.73322 0.73322 0.73322 0.73322 0.73322 0.73322 0.73322 0.73322 0.73322 0.73322 0.73322 0.73322l0.73322-1.1408h0.73322 0.73322 0.73322 0.73322 0.73322 0.73322 0.73322 0.73322 0.73322 0.73322 0.73322 0.73322 0.73322l0.73322-1.1408h0.73322 0.73322 0.73322 0.73322 0.73322 0.73322 0.73322 0.73322 0.73322 0.73322 0.73322 0.73322l0.73322-1.1408h0.73322 0.73322 0.73322 0.73322 0.73322 0.73322 0.73322 0.73322 0.73322 0.73322 0.73322 0.73322 0.73322l0.73322-1.1408h0.73322 0.73322 0.73322 0.73322 0.73322 0.73322 0.73322 0.73322 0.73322 0.73322v-0.1426h-0.73322-0.73322-0.73322-0.73322-0.73322-0.73322-0.73322-0.73322-0.73322-0.73322l-0.73322 1.1408h-0.73322-0.73322-0.73322-0.73322-0.73322-0.73322-0.73322-0.73322-0.73322-0.73322-0.73322-0.73322-0.73322l-0.73322 1.1408h-0.73322-0.73322-0.73322-0.73322-0.73322-0.73322-0.73322-0.73322-0.73322-0.73322-0.73322-0.73322l-0.73322 1.1408h-0.73322-0.73322-0.73322-0.73322-0.73322-0.73322-0.73322-0.73322-0.73322-0.73322-0.73322-0.73322-0.73322l-0.73322 1.1408h-0.73322-0.73322-0.73322-0.73322-0.73322-0.73322-0.73322-0.73322-0.73322-0.73322-0.73322-0.73322-0.73322l-0.73322 1.1408h-0.73322-0.73322-0.73322-0.73322-0.73322-0.73322-0.73322-0.73322-0.73322-0.73322-0.73322-0.73322l-0.73322 1.1408h-0.73322-0.73322-0.73322-0.73322-0.73322-0.73322-0.73322-0.73322-0.73322-0.73322-0.73322-0.73322-0.73322l-0.73322 1.1408h-0.73322-0.73322-0.73322-0.73322-0.73322-0.73322-0.73322-0.73322-0.73322-0.73322-0.73322-0.73322-0.73322l-0.73322 1.1408h-0.73322-0.73322-0.73322-0.73322-0.73322-0.73322-0.73322-0.73322-0.73322-0.73322-0.73322-0.73322-0.73322l-0.73322 1.1408h-0.73322-0.73322-0.73322-0.73322-0.73322-0.73322-0.73322-0.73322-0.73322-0.73322-0.73322-0.73322l-0.73322 1.1408h-0.73322-0.73322-0.73322-0.73322-0.73322-0.73322-0.73322-0.73322-0.73322-0.73322-0.73322-0.73322-0.73322l-0.73322 1.1408h-0.73322-0.73322-0.73322-0.73322-0.73322-0.73322-0.73322-0.73322-0.73322-0.73322-0.73322-0.73322-0.73322l-0.73322 1.1408h-0.73322-0.73322-0.73322-0.73322-0.73322-0.73322-0.73322-0.73322-0.73322-0.73322-0.73322-0.73322l-0.73322 1.1408h-0.73322-0.73322-0.73322-0.73322-0.73322-0.73322-0.73322-0.73322-0.73322-0.73322-0.73322-0.73322-0.73322l-0.73322 1.1408h-0.73322-0.73322-0.73322-0.73322-0.73322-0.73322-0.73322-0.73322-0.73322-0.73322-0.73322-0.73322-0.73322l-0.73322 1.1408h-0.73322-0.73322-0.73322-0.73322-0.73322-0.73322-0.73322-0.73322-0.73322-0.73322-0.73322-0.73322l-0.73322 1.1408h-0.73322-0.73322-0.73322-0.73322-0.73322-0.73322-0.73322-0.73322-0.73322-0.73322-0.73322-0.73322-0.73322l-0.73322 1.1408h-0.73322-0.73322-0.73322-0.73322-0.73322-0.73322-0.73322-0.73322-0.73322-0.73322-0.73322-0.73322-0.73322l-0.73322 1.1408h-0.73322-0.73322-0.73322-0.73322-0.73322-0.73322-0.73322-0.73322-0.73322-0.73322-0.73322-0.73322-0.73322l-0.73322 1.1408h-0.73322-0.73322-0.73322-0.73322-0.73322-0.73322-0.73322-0.73322-0.73322-0.73322-0.73322-0.73322l-0.73322 1.1408h-0.73322-0.73322-0.73322-0.73322-0.73322-0.73322-0.73322-0.73322-0.73322-0.73322-0.73322-0.73322-0.73322l-0.73322 1.1408h-0.73322-0.73322-0.73322-0.73322-0.73322-0.73322-0.73322-0.73322-0.73322v0.1426z" clip-path="url(#p84f8dea8fb)" fill="#00f" fill-opacity=".4"/>
   </g>
   <g id="PathCollection_3">
    <path d="m0.94922 114.01h0.73322 0.73322 0.73322 0.73322 0.73322 0.73322 0.73322 0.73322l0.73322-1.1408h0.73322 0.73322 0.73322 0.73322 0.73322 0.73322 0.73322 0.73322 0.73322 0.73322 0.73322 0.73322 0.73322l0.73322-1.1408h0.73322 0.73322 0.73322 0.73322 0.73322 0.73322 0.73322 0.73322 0.73322 0.73322 0.73322 0.73322l0.73322-1.1408h0.73322 0.73322 0.73322 0.73322 0.73322 0.73322 0.73322 0.73322 0.73322 0.73322 0.73322 0.73322 0.73322l0.73322-1.1408h0.73322 0.73322 0.73322 0.73322 0.73322 0.73322 0.73322 0.73322 0.73322 0.73322 0.73322 0.73322 0.73322l0.73322-1.1408h0.73322 0.73322 0.73322 0.73322 0.73322 0.73322 0.73322 0.73322 0.73322 0.73322 0.73322 0.73322 0.73322l0.73322-1.1408h0.73322 0.73322 0.73322 0.73322 0.73322 0.73322 0.73322 0.73322 0.73322 0.73322 0.73322 0.73322l0.73322-1.1408h0.73322 0.73322 0.73322 0.73322 0.73322 0.73322 0.73322 0.73322 0.73322 0.73322 0.73322 0.73322 0.73322l0.73322-1.1408h0.73322 0.73322 0.73322 0.73322 0.73322 0.73322 0.73322 0.73322 0.73322 0.73322 0.73322 0.73322 0.73322l0.73322-1.1408h0.73322 0.73322 0.73322 0.73322 0.73322 0.73322 0.73322 0.73322 0.73322 0.73322 0.73322 0.73322l0.73322-1.1408h0.73322 0.73322 0.73322 0.73322 0.73322 0.73322 0.73322 0.73322 0.73322 0.73322 0.73322 0.73322 0.73322l0.73322-1.1408h0.73322 0.73322 0.73322 0.73322 0.73322 0.73322 0.73322 0.73322 0.73322 0.73322 0.73322 0.73322 0.73322l0.73322-1.1408h0.73322 0.73322 0.73322 0.73322 0.73322 0.73322 0.73322 0.73322 0.73322 0.73322 0.73322 0.73322l0.73322-1.1408h0.73322 0.73322 0.73322 0.73322 0.73322 0.73322 0.73322 0.73322 0.73322 0.73322 0.73322 0.73322 0.73322l0.54992-0.85562 0.18331-0.28521h0.73322 0.73322 0.73322 0.73322 0.73322 0.73322 0.73322 0.73322 0.73322 0.73322 0.73322 0.73322 0.73322l0.73322-1.1408h0.73322 0.73322 0.73322 0.73322 0.73322 0.73322 0.73322 0.73322 0.73322 0.73322 0.73322 0.73322 0.73322l0.73322-1.1408h0.73322 0.73322 0.73322 0.73322 0.73322 0.73322 0.73322 0.73322 0.73322 0.73322 0.73322 0.73322l0.73322-1.1408h0.73322 0.73322 0.73322 0.73322 0.73322 0.73322 0.73322 0.73322 0.73322 0.73322 0.73322 0.73322 0.73322l0.73322-1.1408h0.73322 0.73322 0.73322 0.73322 0.73322 0.73322 0.73322 0.73322 0.73322 0.73322 0.73322 0.73322 0.73322l0.73322-1.1408h0.73322 0.73322 0.73322 0.73322 0.73322 0.73322 0.73322 0.73322 0.73322 0.73322 0.73322 0.73322l0.73322-1.1408h0.73322 0.73322 0.73322 0.73322 0.73322 0.73322 0.73322 0.73322 0.73322 0.73322 0.73322 0.73322 0.73322l0.73322-1.1408h0.73322 0.73322 0.73322 0.73322 0.73322 0.73322 0.73322 0.73322 0.73322 0.73322v-0.1426h-0.73322-0.73322-0.73322-0.73322-0.73322-0.73322-0.73322-0.73322-0.73322-0.73322l-0.73322 1.1408h-0.73322-0.73322-0.73322-0.73322-0.73322-0.73322-0.73322-0.73322-0.73322-0.73322-0.73322-0.73322-0.73322l-0.73322 1.1408h-0.73322-0.73322-0.73322-0.73322-0.73322-0.73322-0.73322-0.73322-0.73322-0.73322-0.73322-0.73322l-0.73322 1.1408h-0.73322-0.73322-0.73322-0.73322-0.73322-0.73322-0.73322-0.73322-0.73322-0.73322-0.73322-0.73322-0.73322l-0.73322 1.1408h-0.73322-0.73322-0.73322-0.73322-0.73322-0.73322-0.73322-0.73322-0.73322-0.73322-0.73322-0.73322-0.73322l-0.73322 1.1408h-0.73322-0.73322-0.73322-0.73322-0.73322-0.73322-0.73322-0.73322-0.73322-0.73322-0.73322-0.73322l-0.73322 1.1408h-0.73322-0.73322-0.73322-0.73322-0.73322-0.73322-0.73322-0.73322-0.73322-0.73322-0.73322-0.73322-0.73322l-0.27496 0.42781-0.45827 0.71302h-0.73322-0.73322-0.73322-0.73322-0.73322-0.73322-0.73322-0.73322-0.73322-0.73322-0.73322-0.73322-0.73322l-0.73322 1.1408h-0.73322-0.73322-0.73322-0.73322-0.73322-0.73322-0.73322-0.73322-0.73322-0.73322-0.73322-0.73322-0.73322l-0.73322 1.1408h-0.73322-0.73322-0.73322-0.73322-0.73322-0.73322-0.73322-0.73322-0.73322-0.73322-0.73322-0.73322l-0.27496 0.42781-0.45827 0.71302h-0.73322-0.73322-0.73322-0.73322-0.73322-0.73322-0.73322-0.73322-0.73322-0.73322-0.73322-0.73322-0.73322l-0.73322 1.1408h-0.73322-0.73322-0.73322-0.73322-0.73322-0.73322-0.73322-0.73322-0.73322-0.73322-0.73322-0.73322-0.73322l-0.73322 1.1408h-0.73322-0.73322-0.73322-0.73322-0.73322-0.73322-0.73322-0.73322-0.73322-0.73322-0.73322-0.73322l-0.73322 1.1408h-0.73322-0.73322-0.73322-0.73322-0.73322-0.73322-0.73322-0.73322-0.73322-0.73322-0.73322-0.73322-0.73322l-0.73322 1.1408h-0.73322-0.73322-0.73322-0.73322-0.73322-0.73322-0.73322-0.73322-0.73322-0.73322-0.73322-0.73322-0.73322l-0.73322 1.1408h-0.73322-0.73322-0.73322-0.73322-0.73322-0.73322-0.73322-0.73322-0.73322-0.73322-0.73322-0.73322l-0.73322 1.1408h-0.73322-0.73322-0.73322-0.73322-0.73322-0.73322-0.73322-0.73322-0.73322-0.73322-0.73322-0.73322-0.73322l-0.27496 0.42781-0.45827 0.71302h-0.73322-0.73322-0.73322-0.73322-0.73322-0.73322-0.73322-0.73322-0.73322-0.73322-0.73322-0.73322-0.73322l-0.73322 1.1408h-0.73322-0.73322-0.73322-0.73322-0.73322-0.73322-0.73322-0.73322-0.73322-0.73322-0.73322-0.73322-0.73322l-0.73322 1.1408h-0.73322-0.73322-0.73322-0.73322-0.73322-0.73322-0.73322-0.73322-0.73322-0.73322-0.73322-0.73322l-0.73322 1.1408h-0.73322-0.73322-0.73322-0.73322-0.73322-0.73322-0.73322-0.73322-0.73322-0.73322-0.73322-0.73322-0.73322l-0.73322 1.1408h-0.73322-0.73322-0.73322-0.73322-0.73322-0.73322-0.73322-0.73322-0.73322v0.1426z" clip-path="url(#p84f8dea8fb)" fill="#00f" fill-opacity=".4"/>
   </g>
   <g id="PathCollection_4">
    <path d="m0.94922 113.87h0.73322 0.73322 0.73322 0.73322 0.73322 0.73322 0.73322 0.73322l0.73322-1.1408h0.73322 0.73322 0.73322 0.73322 0.73322 0.73322 0.73322 0.73322 0.73322 0.73322 0.73322 0.73322 0.73322l0.73322-1.1408h0.73322 0.73322 0.73322 0.73322 0.73322 0.73322 0.73322 0.73322 0.73322 0.73322 0.73322 0.73322l0.73322-1.1408h0.73322 0.73322 0.73322 0.73322 0.73322 0.73322 0.73322 0.73322 0.73322 0.73322 0.73322 0.73322 0.73322l0.73322-1.1408h0.73322 0.73322 0.73322 0.73322 0.73322 0.73322 0.73322 0.73322 0.73322 0.73322 0.73322 0.73322 0.73322l0.73322-1.1408h0.73322 0.73322 0.73322 0.73322 0.73322 0.73322 0.73322 0.73322 0.73322 0.73322 0.73322 0.73322 0.73322l0.73322-1.1408h0.73322 0.73322 0.73322 0.73322 0.73322 0.73322 0.73322 0.73322 0.73322 0.73322 0.73322 0.73322l0.73322-1.1408h0.73322 0.73322 0.73322 0.73322 0.73322 0.73322 0.73322 0.73322 0.73322 0.73322 0.73322 0.73322 0.73322l0.73322-1.1408h0.73322 0.73322 0.73322 0.73322 0.73322 0.73322 0.73322 0.73322 0.73322 0.73322 0.73322 0.73322 0.73322l0.73322-1.1408h0.73322 0.73322 0.73322 0.73322 0.73322 0.73322 0.73322 0.73322 0.73322 0.73322 0.73322 0.73322l0.73322-1.1408h0.73322 0.73322 0.73322 0.73322 0.73322 0.73322 0.73322 0.73322 0.73322 0.73322 0.73322 0.73322 0.73322l0.73322-1.1408h0.73322 0.73322 0.73322 0.73322 0.73322 0.73322 0.73322 0.73322 0.73322 0.73322 0.73322 0.73322 0.73322l0.73322-1.1408h0.73322 0.73322 0.73322 0.73322 0.73322 0.73322 0.73322 0.73322 0.73322 0.73322 0.73322 0.73322l0.73322-1.1408h0.73322 0.73322 0.73322 0.73322 0.73322 0.73322 0.73322 0.73322 0.73322 0.73322 0.73322 0.73322 0.73322l0.73322-1.1408h0.73322 0.73322 0.73322 0.73322 0.73322 0.73322 0.73322 0.73322 0.73322 0.73322 0.73322 0.73322 0.73322l0.73322-1.1408h0.73322 0.73322 0.73322 0.73322 0.73322 0.73322 0.73322 0.73322 0.73322 0.73322 0.73322 0.73322 0.73322l0.73322-1.1408h0.73322 0.73322 0.73322 0.73322 0.73322 0.73322 0.73322 0.73322 0.73322 0.73322 0.73322 0.73322l0.73322-1.1408h0.73322 0.73322 0.73322 0.73322 0.73322 0.73322 0.73322 0.73322 0.73322 0.73322 0.73322 0.73322 0.73322l0.73322-1.1408h0.73322 0.73322 0.73322 0.73322 0.73322 0.73322 0.73322 0.73322 0.73322 0.73322 0.73322 0.73322 0.73322l0.73322-1.1408h0.73322 0.73322 0.73322 0.73322 0.73322 0.73322 0.73322 0.73322 0.73322 0.73322 0.73322 0.73322l0.73322-1.1408h0.73322 0.73322 0.73322 0.73322 0.73322 0.73322 0.73322 0.73322 0.73322 0.73322 0.73322 0.73322 0.73322l0.73322-1.1408h0.73322 0.73322 0.73322 0.73322 0.73322 0.73322 0.73322 0.73322 0.73322 0.73322v-0.1426h-0.73322-0.73322-0.73322-0.73322-0.73322-0.73322-0.73322-0.73322-0.73322-0.73322l-0.73322 1.1408h-0.73322-0.73322-0.73322-0.73322-0.73322-0.73322-0.73322-0.73322-0.73322-0.73322-0.73322-0.73322-0.73322l-0.73322 1.1408h-0.73322-0.73322-0.73322-0.73322-0.73322-0.73322-0.73322-0.73322-0.73322-0.73322-0.73322-0.73322l-0.73322 1.1408h-0.73322-0.73322-0.73322-0.73322-0.73322-0.73322-0.73322-0.73322-0.73322-0.73322-0.73322-0.73322-0.73322l-0.73322 1.1408h-0.73322-0.73322-0.73322-0.73322-0.73322-0.73322-0.73322-0.73322-0.73322-0.73322-0.73322-0.73322-0.73322l-0.73322 1.1408h-0.73322-0.73322-0.73322-0.73322-0.73322-0.73322-0.73322-0.73322-0.73322-0.73322-0.73322-0.73322l-0.73322 1.1408h-0.73322-0.73322-0.73322-0.73322-0.73322-0.73322-0.73322-0.73322-0.73322-0.73322-0.73322-0.73322-0.73322l-0.73322 1.1408h-0.73322-0.73322-0.73322-0.73322-0.73322-0.73322-0.73322-0.73322-0.73322-0.73322-0.73322-0.73322-0.73322l-0.73322 1.1408h-0.73322-0.73322-0.73322-0.73322-0.73322-0.73322-0.73322-0.73322-0.73322-0.73322-0.73322-0.73322-0.73322l-0.73322 1.1408h-0.73322-0.73322-0.73322-0.73322-0.73322-0.73322-0.73322-0.73322-0.73322-0.73322-0.73322-0.73322l-0.36661 0.57041-0.36661 0.57041h-0.73322-0.73322-0.73322-0.73322-0.73322-0.73322-0.73322-0.73322-0.73322-0.73322-0.73322-0.73322-0.73322l-0.73322 1.1408h-0.73322-0.73322-0.73322-0.73322-0.73322-0.73322-0.73322-0.73322-0.73322-0.73322-0.73322-0.73322-0.73322l-0.73322 1.1408h-0.73322-0.73322-0.73322-0.73322-0.73322-0.73322-0.73322-0.73322-0.73322-0.73322-0.73322-0.73322l-0.73322 1.1408h-0.73322-0.73322-0.73322-0.73322-0.73322-0.73322-0.73322-0.73322-0.73322-0.73322-0.73322-0.73322-0.73322l-0.73322 1.1408h-0.73322-0.73322-0.73322-0.73322-0.73322-0.73322-0.73322-0.73322-0.73322-0.73322-0.73322-0.73322-0.73322l-0.73322 1.1408h-0.73322-0.73322-0.73322-0.73322-0.73322-0.73322-0.73322-0.73322-0.73322-0.73322-0.73322-0.73322l-0.73322 1.1408h-0.73322-0.73322-0.73322-0.73322-0.73322-0.73322-0.73322-0.73322-0.73322-0.73322-0.73322-0.73322-0.73322l-0.36661 0.57041-0.36661 0.57041h-0.73322-0.73322-0.73322-0.73322-0.73322-0.73322-0.73322-0.73322-0.73322-0.73322-0.73322-0.73322-0.73322l-0.73322 1.1408h-0.73322-0.73322-0.73322-0.73322-0.73322-0.73322-0.73322-0.73322-0.73322-0.73322-0.73322-0.73322-0.73322l-0.73322 1.1408h-0.73322-0.73322-0.73322-0.73322-0.73322-0.73322-0.73322-0.73322-0.73322-0.73322-0.73322-0.73322l-0.73322 1.1408h-0.73322-0.73322-0.73322-0.73322-0.73322-0.73322-0.73322-0.73322-0.73322-0.73322-0.73322-0.73322-0.73322l-0.73322 1.1408h-0.73322-0.73322-0.73322-0.73322-0.73322-0.73322-0.73322-0.73322-0.73322v0.1426z" clip-path="url(#p84f8dea8fb)" fill="#00f" fill-opacity=".4"/>
   </g>
   <g id="PathCollection_5">
    <path d="m0.94922 113.73h0.73322 0.73322 0.73322 0.73322 0.73322 0.73322 0.73322 0.73322l0.73322-1.1408h0.73322 0.73322 0.73322 0.73322 0.73322 0.73322 0.73322 0.73322 0.73322 0.73322 0.73322 0.73322 0.73322l0.73322-1.1408h0.73322 0.73322 0.73322 0.73322 0.73322 0.73322 0.73322 0.73322 0.73322 0.73322 0.73322 0.73322l0.73322-1.1408h0.73322 0.73322 0.73322 0.73322 0.73322 0.73322 0.73322 0.73322 0.73322 0.73322 0.73322 0.73322 0.73322l0.73322-1.1408h0.73322 0.73322 0.73322 0.73322 0.73322 0.73322 0.73322 0.73322 0.73322 0.73322 0.73322 0.73322 0.73322l0.73322-1.1408h0.73322 0.73322 0.73322 0.73322 0.73322 0.73322 0.73322 0.73322 0.73322 0.73322 0.73322 0.73322 0.73322l0.73322-1.1408h0.73322 0.73322 0.73322 0.73322 0.73322 0.73322 0.73322 0.73322 0.73322 0.73322 0.73322 0.73322l0.73322-1.1408h0.73322 0.73322 0.73322 0.73322 0.73322 0.73322 0.73322 0.73322 0.73322 0.73322 0.73322 0.73322 0.73322l0.73322-1.1408h0.73322 0.73322 0.73322 0.73322 0.73322 0.73322 0.73322 0.73322 0.73322 0.73322 0.73322 0.73322 0.73322l0.73322-1.1408h0.73322 0.73322 0.73322 0.73322 0.73322 0.73322 0.73322 0.73322 0.73322 0.73322 0.73322 0.73322l0.73322-1.1408h0.73322 0.73322 0.73322 0.73322 0.73322 0.73322 0.73322 0.73322 0.73322 0.73322 0.73322 0.73322 0.73322l0.73322-1.1408h0.73322 0.73322 0.73322 0.73322 0.73322 0.73322 0.73322 0.73322 0.73322 0.73322 0.73322 0.73322 0.73322l0.73322-1.1408h0.73322 0.73322 0.73322 0.73322 0.73322 0.73322 0.73322 0.73322 0.73322 0.73322 0.73322 0.73322l0.73322-1.1408h0.73322 0.73322 0.73322 0.73322 0.73322 0.73322 0.73322 0.73322 0.73322 0.73322 0.73322 0.73322 0.73322l0.73322-1.1408h0.73322 0.73322 0.73322 0.73322 0.73322 0.73322 0.73322 0.73322 0.73322 0.73322 0.73322 0.73322 0.73322l0.73322-1.1408h0.73322 0.73322 0.73322 0.73322 0.73322 0.73322 0.73322 0.73322 0.73322 0.73322 0.73322 0.73322 0.73322l0.73322-1.1408h0.73322 0.73322 0.73322 0.73322 0.73322 0.73322 0.73322 0.73322 0.73322 0.73322 0.73322 0.73322l0.73322-1.1408h0.73322 0.73322 0.73322 0.73322 0.73322 0.73322 0.73322 0.73322 0.73322 0.73322 0.73322 0.73322 0.73322l0.73322-1.1408h0.73322 0.73322 0.73322 0.73322 0.73322 0.73322 0.73322 0.73322 0.73322 0.73322 0.73322 0.73322 0.73322l0.73322-1.1408h0.73322 0.73322 0.73322 0.73322 0.73322 0.73322 0.73322 0.73322 0.73322 0.73322 0.73322 0.73322l0.73322-1.1408h0.73322 0.73322 0.73322 0.73322 0.73322 0.73322 0.73322 0.73322 0.73322 0.73322 0.73322 0.73322 0.73322l0.73322-1.1408h0.73322 0.73322 0.73322 0.73322 0.73322 0.73322 0.73322 0.73322 0.73322 0.73322v-0.1426h-0.73322-0.73322-0.73322-0.73322-0.73322-0.73322-0.73322-0.73322-0.73322-0.73322l-0.73322 1.1408h-0.73322-0.73322-0.73322-0.73322-0.73322-0.73322-0.73322-0.73322-0.73322-0.73322-0.73322-0.73322-0.73322l-0.73322 1.1408h-0.73322-0.73322-0.73322-0.73322-0.73322-0.73322-0.73322-0.73322-0.73322-0.73322-0.73322-0.73322l-0.73322 1.1408h-0.73322-0.73322-0.73322-0.73322-0.73322-0.73322-0.73322-0.73322-0.73322-0.73322-0.73322-0.73322-0.73322l-0.73322 1.1408h-0.73322-0.73322-0.73322-0.73322-0.73322-0.73322-0.73322-0.73322-0.73322-0.73322-0.73322-0.73322-0.73322l-0.73322 1.1408h-0.73322-0.73322-0.73322-0.73322-0.73322-0.73322-0.73322-0.73322-0.73322-0.73322-0.73322-0.73322l-0.73322 1.1408h-0.73322-0.73322-0.73322-0.73322-0.73322-0.73322-0.73322-0.73322-0.73322-0.73322-0.73322-0.73322-0.73322l-0.45826 0.71302-0.27496 0.42781h-0.73322-0.73322-0.73322-0.73322-0.73322-0.73322-0.73322-0.73322-0.73322-0.73322-0.73322-0.73322-0.73322l-0.73322 1.1408h-0.73322-0.73322-0.73322-0.73322-0.73322-0.73322-0.73322-0.73322-0.73322-0.73322-0.73322-0.73322-0.73322l-0.73322 1.1408h-0.73322-0.73322-0.73322-0.73322-0.73322-0.73322-0.73322-0.73322-0.73322-0.73322-0.73322-0.73322l-0.45826 0.71302-0.27496 0.42781h-0.73322-0.73322-0.73322-0.73322-0.73322-0.73322-0.73322-0.73322-0.73322-0.73322-0.73322-0.73322-0.73322l-0.73322 1.1408h-0.73322-0.73322-0.73322-0.73322-0.73322-0.73322-0.73322-0.73322-0.73322-0.73322-0.73322-0.73322-0.73322l-0.73322 1.1408h-0.73322-0.73322-0.73322-0.73322-0.73322-0.73322-0.73322-0.73322-0.73322-0.73322-0.73322-0.73322l-0.73322 1.1408h-0.73322-0.73322-0.73322-0.73322-0.73322-0.73322-0.73322-0.73322-0.73322-0.73322-0.73322-0.73322-0.73322l-0.45826 0.71302-0.27496 0.42781h-0.73322-0.73322-0.73322-0.73322-0.73322-0.73322-0.73322-0.73322-0.73322-0.73322-0.73322-0.73322-0.73322l-0.73322 1.1408h-0.73322-0.73322-0.73322-0.73322-0.73322-0.73322-0.73322-0.73322-0.73322-0.73322-0.73322-0.73322l-0.73322 1.1408h-0.73322-0.73322-0.73322-0.73322-0.73322-0.73322-0.73322-0.73322-0.73322-0.73322-0.73322-0.73322-0.73322l-0.45826 0.71302-0.27496 0.42781h-0.73322-0.73322-0.73322-0.73322-0.73322-0.73322-0.73322-0.73322-0.73322-0.73322-0.73322-0.73322-0.73322l-0.73322 1.1408h-0.73322-0.73322-0.73322-0.73322-0.73322-0.73322-0.73322-0.73322-0.73322-0.73322-0.73322-0.73322-0.73322l-0.73322 1.1408h-0.73322-0.73322-0.73322-0.73322-0.73322-0.73322-0.73322-0.73322-0.73322-0.73322-0.73322-0.73322l-0.73322 1.1408h-0.73322-0.73322-0.73322-0.73322-0.73322-0.73322-0.73322-0.73322-0.73322-0.73322-0.73322-0.73322-0.73322l-0.45826 0.71302-0.27496 0.42781h-0.73322-0.73322-0.73322-0.73322-0.73322-0.73322-0.73322-0.73322-0.73322v0.1426z" clip-path="url(#p84f8dea8fb)" fill="#f00" fill-opacity=".4"/>
   </g>
   <g id="PathCollection_6">
    <path d="m0.94922 113.59h0.73322 0.73322 0.73322 0.73322 0.73322 0.73322 0.73322 0.73322l0.73322-1.1408h0.73322 0.73322 0.73322 0.73322 0.73322 0.73322 0.73322 0.73322 0.73322 0.73322 0.73322 0.73322 0.73322l0.27496-0.42781 0.45827-0.71302h0.73322 0.73322 0.73322 0.73322 0.73322 0.73322 0.73322 0.73322 0.73322 0.73322 0.73322 0.73322l0.73322-1.1408h0.73322 0.73322 0.73322 0.73322 0.73322 0.73322 0.73322 0.73322 0.73322 0.73322 0.73322 0.73322 0.73322l0.73322-1.1408h0.73322 0.73322 0.73322 0.73322 0.73322 0.73322 0.73322 0.73322 0.73322 0.73322 0.73322 0.73322 0.73322l0.73322-1.1408h0.73322 0.73322 0.73322 0.73322 0.73322 0.73322 0.73322 0.73322 0.73322 0.73322 0.73322 0.73322 0.73322l0.73322-1.1408h0.73322 0.73322 0.73322 0.73322 0.73322 0.73322 0.73322 0.73322 0.73322 0.73322 0.73322 0.73322l0.73322-1.1408h0.73322 0.73322 0.73322 0.73322 0.73322 0.73322 0.73322 0.73322 0.73322 0.73322 0.73322 0.73322 0.73322l0.73322-1.1408h0.73322 0.73322 0.73322 0.73322 0.73322 0.73322 0.73322 0.73322 0.73322 0.73322 0.73322 0.73322 0.73322l0.27496-0.42781 0.45827-0.71302h0.73322 0.73322 0.73322 0.73322 0.73322 0.73322 0.73322 0.73322 0.73322 0.73322 0.73322 0.73322l0.73322-1.1408h0.73322 0.73322 0.73322 0.73322 0.73322 0.73322 0.73322 0.73322 0.73322 0.73322 0.73322 0.73322 0.73322l0.73322-1.1408h0.73322 0.73322 0.73322 0.73322 0.73322 0.73322 0.73322 0.73322 0.73322 0.73322 0.73322 0.73322 0.73322l0.73322-1.1408h0.73322 0.73322 0.73322 0.73322 0.73322 0.73322 0.73322 0.73322 0.73322 0.73322 0.73322 0.73322l0.73322-1.1408h0.73322 0.73322 0.73322 0.73322 0.73322 0.73322 0.73322 0.73322 0.73322 0.73322 0.73322 0.73322 0.73322l0.73322-1.1408h0.73322 0.73322 0.73322 0.73322 0.73322 0.73322 0.73322 0.73322 0.73322 0.73322 0.73322 0.73322 0.73322l0.73322-1.1408h0.73322 0.73322 0.73322 0.73322 0.73322 0.73322 0.73322 0.73322 0.73322 0.73322 0.73322 0.73322 0.73322l0.27496-0.42781 0.45827-0.71302h0.73322 0.73322 0.73322 0.73322 0.73322 0.73322 0.73322 0.73322 0.73322 0.73322 0.73322 0.73322l0.73322-1.1408h0.73322 0.73322 0.73322 0.73322 0.73322 0.73322 0.73322 0.73322 0.73322 0.73322 0.73322 0.73322 0.73322l0.73322-1.1408h0.73322 0.73322 0.73322 0.73322 0.73322 0.73322 0.73322 0.73322 0.73322 0.73322 0.73322 0.73322 0.73322l0.73322-1.1408h0.73322 0.73322 0.73322 0.73322 0.73322 0.73322 0.73322 0.73322 0.73322 0.73322 0.73322 0.73322l0.73322-1.1408h0.73322 0.73322 0.73322 0.73322 0.73322 0.73322 0.73322 0.73322 0.73322 0.73322 0.73322 0.73322 0.73322l0.73322-1.1408h0.73322 0.73322 0.73322 0.73322 0.73322 0.73322 0.73322 0.73322 0.73322 0.73322v-0.1426h-0.73322-0.73322-0.73322-0.73322-0.73322-0.73322-0.73322-0.73322-0.73322-0.73322l-0.73322 1.1408h-0.73322-0.73322-0.73322-0.73322-0.73322-0.73322-0.73322-0.73322-0.73322-0.73322-0.73322-0.73322-0.73322l-0.73322 1.1408h-0.73322-0.73322-0.73322-0.73322-0.73322-0.73322-0.73322-0.73322-0.73322-0.73322-0.73322-0.73322l-0.54992 0.85562-0.18331 0.28521h-0.73322-0.73322-0.73322-0.73322-0.73322-0.73322-0.73322-0.73322-0.73322-0.73322-0.73322-0.73322-0.73322l-0.73322 1.1408h-0.73322-0.73322-0.73322-0.73322-0.73322-0.73322-0.73322-0.73322-0.73322-0.73322-0.73322-0.73322-0.73322l-0.73322 1.1408h-0.73322-0.73322-0.73322-0.73322-0.73322-0.73322-0.73322-0.73322-0.73322-0.73322-0.73322-0.73322l-0.73322 1.1408h-0.73322-0.73322-0.73322-0.73322-0.73322-0.73322-0.73322-0.73322-0.73322-0.73322-0.73322-0.73322-0.73322l-0.54992 0.85562-0.18331 0.28521h-0.73322-0.73322-0.73322-0.73322-0.73322-0.73322-0.73322-0.73322-0.73322-0.73322-0.73322-0.73322-0.73322l-0.73322 1.1408h-0.73322-0.73322-0.73322-0.73322-0.73322-0.73322-0.73322-0.73322-0.73322-0.73322-0.73322-0.73322-0.73322l-0.73322 1.1408h-0.73322-0.73322-0.73322-0.73322-0.73322-0.73322-0.73322-0.73322-0.73322-0.73322-0.73322-0.73322l-0.73322 1.1408h-0.73322-0.73322-0.73322-0.73322-0.73322-0.73322-0.73322-0.73322-0.73322-0.73322-0.73322-0.73322-0.73322l-0.73322 1.1408h-0.73322-0.73322-0.73322-0.73322-0.73322-0.73322-0.73322-0.73322-0.73322-0.73322-0.73322-0.73322-0.73322l-0.73322 1.1408h-0.73322-0.73322-0.73322-0.73322-0.73322-0.73322-0.73322-0.73322-0.73322-0.73322-0.73322-0.73322l-0.73322 1.1408h-0.73322-0.73322-0.73322-0.73322-0.73322-0.73322-0.73322-0.73322-0.73322-0.73322-0.73322-0.73322-0.73322l-0.54992 0.85562-0.18331 0.28521h-0.73322-0.73322-0.73322-0.73322-0.73322-0.73322-0.73322-0.73322-0.73322-0.73322-0.73322-0.73322-0.73322l-0.54992 0.85562-0.18331 0.28521h-0.73322-0.73322-0.73322-0.73322-0.73322-0.73322-0.73322-0.73322-0.73322-0.73322-0.73322-0.73322l-0.73322 1.1408h-0.73322-0.73322-0.73322-0.73322-0.73322-0.73322-0.73322-0.73322-0.73322-0.73322-0.73322-0.73322-0.73322l-0.73322 1.1408h-0.73322-0.73322-0.73322-0.73322-0.73322-0.73322-0.73322-0.73322-0.73322-0.73322-0.73322-0.73322-0.73322l-0.54992 0.85562-0.18331 0.28521h-0.73322-0.73322-0.73322-0.73322-0.73322-0.73322-0.73322-0.73322-0.73322-0.73322-0.73322-0.73322-0.73322l-0.73322 1.1408h-0.73322-0.73322-0.73322-0.73322-0.73322-0.73322-0.73322-0.73322-0.73322-0.73322-0.73322-0.73322l-0.73322 1.1408h-0.73322-0.73322-0.73322-0.73322-0.73322-0.73322-0.73322-0.73322-0.73322-0.73322-0.73322-0.73322-0.73322l-0.54992 0.85562-0.18331 0.28521h-0.73322-0.73322-0.73322-0.73322-0.73322-0.73322-0.73322-0.73322-0.73322v0.1426z" clip-path="url(#p84f8dea8fb)" fill="#f00" fill-opacity=".4"/>
   </g>
   <g id="PathCollection_7">
    <path d="m0.94922 113.44h0.73322 0.73322 0.73322 0.73322 0.73322 0.73322 0.73322 0.73322l0.73322-1.1408h0.73322 0.73322 0.73322 0.73322 0.73322 0.73322 0.73322 0.73322 0.73322 0.73322 0.73322 0.73322 0.73322l0.73322-1.1408h0.73322 0.73322 0.73322 0.73322 0.73322 0.73322 0.73322 0.73322 0.73322 0.73322 0.73322 0.73322l0.73322-1.1408h0.73322 0.73322 0.73322 0.73322 0.73322 0.73322 0.73322 0.73322 0.73322 0.73322 0.73322 0.73322 0.73322l0.73322-1.1408h0.73322 0.73322 0.73322 0.73322 0.73322 0.73322 0.73322 0.73322 0.73322 0.73322 0.73322 0.73322 0.73322l0.73322-1.1408h0.73322 0.73322 0.73322 0.73322 0.73322 0.73322 0.73322 0.73322 0.73322 0.73322 0.73322 0.73322 0.73322l0.73322-1.1408h0.73322 0.73322 0.73322 0.73322 0.73322 0.73322 0.73322 0.73322 0.73322 0.73322 0.73322 0.73322l0.73322-1.1408h0.73322 0.73322 0.73322 0.73322 0.73322 0.73322 0.73322 0.73322 0.73322 0.73322 0.73322 0.73322 0.73322l0.73322-1.1408h0.73322 0.73322 0.73322 0.73322 0.73322 0.73322 0.73322 0.73322 0.73322 0.73322 0.73322 0.73322 0.73322l0.73322-1.1408h0.73322 0.73322 0.73322 0.73322 0.73322 0.73322 0.73322 0.73322 0.73322 0.73322 0.73322 0.73322l0.73322-1.1408h0.73322 0.73322 0.73322 0.73322 0.73322 0.73322 0.73322 0.73322 0.73322 0.73322 0.73322 0.73322 0.73322l0.73322-1.1408h0.73322 0.73322 0.73322 0.73322 0.73322 0.73322 0.73322 0.73322 0.73322 0.73322 0.73322 0.73322 0.73322l0.73322-1.1408h0.73322 0.73322 0.73322 0.73322 0.73322 0.73322 0.73322 0.73322 0.73322 0.73322 0.73322 0.73322l0.73322-1.1408h0.73322 0.73322 0.73322 0.73322 0.73322 0.73322 0.73322 0.73322 0.73322 0.73322 0.73322 0.73322 0.73322l0.73322-1.1408h0.73322 0.73322 0.73322 0.73322 0.73322 0.73322 0.73322 0.73322 0.73322 0.73322 0.73322 0.73322 0.73322l0.73322-1.1408h0.73322 0.73322 0.73322 0.73322 0.73322 0.73322 0.73322 0.73322 0.73322 0.73322 0.73322 0.73322 0.73322l0.73322-1.1408h0.73322 0.73322 0.73322 0.73322 0.73322 0.73322 0.73322 0.73322 0.73322 0.73322 0.73322 0.73322l0.73322-1.1408h0.73322 0.73322 0.73322 0.73322 0.73322 0.73322 0.73322 0.73322 0.73322 0.73322 0.73322 0.73322 0.73322l0.73322-1.1408h0.73322 0.73322 0.73322 0.73322 0.73322 0.73322 0.73322 0.73322 0.73322 0.73322 0.73322 0.73322 0.73322l0.73322-1.1408h0.73322 0.73322 0.73322 0.73322 0.73322 0.73322 0.73322 0.73322 0.73322 0.73322 0.73322 0.73322l0.73322-1.1408h0.73322 0.73322 0.73322 0.73322 0.73322 0.73322 0.73322 0.73322 0.73322 0.73322 0.73322 0.73322 0.73322l0.73322-1.1408h0.73322 0.73322 0.73322 0.73322 0.73322 0.73322 0.73322 0.73322 0.73322 0.73322v-0.1426h-0.73322-0.73322-0.73322-0.73322-0.73322-0.73322-0.73322-0.73322-0.73322-0.73322l-0.73322 1.1408h-0.73322-0.73322-0.73322-0.73322-0.73322-0.73322-0.73322-0.73322-0.73322-0.73322-0.73322-0.73322-0.73322l-0.73322 1.1408h-0.73322-0.73322-0.73322-0.73322-0.73322-0.73322-0.73322-0.73322-0.73322-0.73322-0.73322-0.73322l-0.73322 1.1408h-0.73322-0.73322-0.73322-0.73322-0.73322-0.73322-0.73322-0.73322-0.73322-0.73322-0.73322-0.73322-0.73322l-0.73322 1.1408h-0.73322-0.73322-0.73322-0.73322-0.73322-0.73322-0.73322-0.73322-0.73322-0.73322-0.73322-0.73322-0.73322l-0.73322 1.1408h-0.73322-0.73322-0.73322-0.73322-0.73322-0.73322-0.73322-0.73322-0.73322-0.73322-0.73322-0.73322l-0.73322 1.1408h-0.73322-0.73322-0.73322-0.73322-0.73322-0.73322-0.73322-0.73322-0.73322-0.73322-0.73322-0.73322-0.73322l-0.64157 0.99822-0.091654 0.1426h-0.73322-0.73322-0.73322-0.73322-0.73322-0.73322-0.73322-0.73322-0.73322-0.73322-0.73322-0.73322-0.73322l-0.73322 1.1408h-0.73322-0.73322-0.73322-0.73322-0.73322-0.73322-0.73322-0.73322-0.73322-0.73322-0.73322-0.73322-0.73322l-0.73322 1.1408h-0.73322-0.73322-0.73322-0.73322-0.73322-0.73322-0.73322-0.73322-0.73322-0.73322-0.73322-0.73322l-0.73322 1.1408h-0.73322-0.73322-0.73322-0.73322-0.73322-0.73322-0.73322-0.73322-0.73322-0.73322-0.73322-0.73322-0.73322l-0.73322 1.1408h-0.73322-0.73322-0.73322-0.73322-0.73322-0.73322-0.73322-0.73322-0.73322-0.73322-0.73322-0.73322-0.73322l-0.73322 1.1408h-0.73322-0.73322-0.73322-0.73322-0.73322-0.73322-0.73322-0.73322-0.73322-0.73322-0.73322-0.73322l-0.73322 1.1408h-0.73322-0.73322-0.73322-0.73322-0.73322-0.73322-0.73322-0.73322-0.73322-0.73322-0.73322-0.73322-0.73322l-0.73322 1.1408h-0.73322-0.73322-0.73322-0.73322-0.73322-0.73322-0.73322-0.73322-0.73322-0.73322-0.73322-0.73322-0.73322l-0.64157 0.99822-0.091653 0.1426h-0.73322-0.73322-0.73322-0.73322-0.73322-0.73322-0.73322-0.73322-0.73322-0.73322-0.73322-0.73322l-0.73322 1.1408h-0.73322-0.73322-0.73322-0.73322-0.73322-0.73322-0.73322-0.73322-0.73322-0.73322-0.73322-0.73322-0.73322l-0.73322 1.1408h-0.73322-0.73322-0.73322-0.73322-0.73322-0.73322-0.73322-0.73322-0.73322-0.73322-0.73322-0.73322-0.73322l-0.64157 0.99822-0.091654 0.1426h-0.73322-0.73322-0.73322-0.73322-0.73322-0.73322-0.73322-0.73322-0.73322-0.73322-0.73322-0.73322-0.73322l-0.73322 1.1408h-0.73322-0.73322-0.73322-0.73322-0.73322-0.73322-0.73322-0.73322-0.73322-0.73322-0.73322-0.73322l-0.73322 1.1408h-0.73322-0.73322-0.73322-0.73322-0.73322-0.73322-0.73322-0.73322-0.73322-0.73322-0.73322-0.73322-0.73322l-0.73322 1.1408h-0.73322-0.73322-0.73322-0.73322-0.73322-0.73322-0.73322-0.73322-0.73322v0.1426z" clip-path="url(#p84f8dea8fb)" fill="#f00" fill-opacity=".4"/>
   </g>
   <g id="PathCollection_8">
    <path d="m0.94922 113.3h0.73322 0.73322 0.73322 0.73322 0.73322 0.73322 0.73322 0.73322l0.73322-1.1408h0.73322 0.73322 0.73322 0.73322 0.73322 0.73322 0.73322 0.73322 0.73322 0.73322 0.73322 0.73322 0.73322l0.091653-0.1426 0.64157-0.99822h0.73322 0.73322 0.73322 0.73322 0.73322 0.73322 0.73322 0.73322 0.73322 0.73322 0.73322 0.73322l0.73322-1.1408h0.73322 0.73322 0.73322 0.73322 0.73322 0.73322 0.73322 0.73322 0.73322 0.73322 0.73322 0.73322 0.73322l0.73322-1.1408h0.73322 0.73322 0.73322 0.73322 0.73322 0.73322 0.73322 0.73322 0.73322 0.73322 0.73322 0.73322 0.73322l0.73322-1.1408h0.73322 0.73322 0.73322 0.73322 0.73322 0.73322 0.73322 0.73322 0.73322 0.73322 0.73322 0.73322 0.73322l0.091653-0.1426 0.64157-0.99822h0.73322 0.73322 0.73322 0.73322 0.73322 0.73322 0.73322 0.73322 0.73322 0.73322 0.73322 0.73322l0.73322-1.1408h0.73322 0.73322 0.73322 0.73322 0.73322 0.73322 0.73322 0.73322 0.73322 0.73322 0.73322 0.73322 0.73322l0.73322-1.1408h0.73322 0.73322 0.73322 0.73322 0.73322 0.73322 0.73322 0.73322 0.73322 0.73322 0.73322 0.73322 0.73322l0.091653-0.1426 0.64157-0.99822h0.73322 0.73322 0.73322 0.73322 0.73322 0.73322 0.73322 0.73322 0.73322 0.73322 0.73322 0.73322l0.73322-1.1408h0.73322 0.73322 0.73322 0.73322 0.73322 0.73322 0.73322 0.73322 0.73322 0.73322 0.73322 0.73322 0.73322l0.091653-0.1426 0.64157-0.99822h0.73322 0.73322 0.73322 0.73322 0.73322 0.73322 0.73322 0.73322 0.73322 0.73322 0.73322 0.73322 0.73322l0.73322-1.1408h0.73322 0.73322 0.73322 0.73322 0.73322 0.73322 0.73322 0.73322 0.73322 0.73322 0.73322 0.73322l0.73322-1.1408h0.73322 0.73322 0.73322 0.73322 0.73322 0.73322 0.73322 0.73322 0.73322 0.73322 0.73322 0.73322 0.73322l0.091653-0.1426 0.64157-0.99822h0.73322 0.73322 0.73322 0.73322 0.73322 0.73322 0.73322 0.73322 0.73322 0.73322 0.73322 0.73322 0.73322l0.73322-1.1408h0.73322 0.73322 0.73322 0.73322 0.73322 0.73322 0.73322 0.73322 0.73322 0.73322 0.73322 0.73322 0.73322l0.091653-0.1426 0.64157-0.99822h0.73322 0.73322 0.73322 0.73322 0.73322 0.73322 0.73322 0.73322 0.73322 0.73322 0.73322 0.73322l0.73322-1.1408h0.73322 0.73322 0.73322 0.73322 0.73322 0.73322 0.73322 0.73322 0.73322 0.73322 0.73322 0.73322 0.73322l0.091653-0.1426 0.64157-0.99822h0.73322 0.73322 0.73322 0.73322 0.73322 0.73322 0.73322 0.73322 0.73322 0.73322 0.73322 0.73322 0.73322l0.091653-0.1426 0.64157-0.99822h0.73322 0.73322 0.73322 0.73322 0.73322 0.73322 0.73322 0.73322 0.73322 0.73322 0.73322 0.73322l0.73322-1.1408h0.73322 0.73322 0.73322 0.73322 0.73322 0.73322 0.73322 0.73322 0.73322 0.73322 0.73322 0.73322 0.73322l0.091653-0.1426 0.64157-0.99822h0.73322 0.73322 0.73322 0.73322 0.73322 0.73322 0.73322 0.73322 0.73322 0.73322v-0.1426-1.1408-1.1408-1.1408-1.1408-1.1408-1.1408-1.1408-1.1408-1.1408-1.1408-1.1408-1.1408-1.1408-1.1408-1.1408-1.1408-1.1408-1.1408-1.1408-1.1408-1.1408-1.1408-1.1408-1.1408-1.1408-1.1408-1.1408-1.1408-1.1408-1.1408-1.1408-1.1408-1.1408-1.1408-1.1408-1.1408-1.1408-1.1408-1.1408-1.1408-1.1408-1.1408-1.1408-1.1408-1.1408-1.1408-1.1408-1.1408-1.1408-1.1408-1.1408-1.1408-1.1408-1.1408-1.1408-1.1408-1.1408-1.1408-1.1408-1.1408-1.1408-1.1408-1.1408-1.1408-1.1408-1.1408-1.1408-1.1408-1.1408-1.1408-1.1408-1.1408-1.1408-1.1408-1.1408-1.1408-1.1408-1.1408h-0.73322-0.73322-0.73322-0.73322-0.73322-0.73322-0.73322-0.73322-0.73322-0.73322-0.73322-0.73322-0.73322-0.73322-0.73322-0.73322-0.73322-0.73322-0.73322-0.73322-0.73322-0.73322-0.73322-0.73322-0.73322-0.73322-0.73322-0.73322-0.73322-0.73322-0.73322-0.73322-0.73322-0.73322-0.73322-0.73322-0.73322-0.73322-0.73322-0.73322-0.73322-0.73322-0.73322-0.73322-0.73322-0.73322-0.73322-0.73322-0.73322-0.73322-0.73322-0.73322-0.73322-0.73322-0.73322-0.73322-0.73322-0.73322-0.73322-0.73322-0.73322-0.73322-0.73322-0.73322-0.73322-0.73322-0.73322-0.73322-0.73322-0.73322-0.73322-0.73322-0.73322-0.73322-0.73322-0.73322-0.73322-0.73322-0.73322-0.73322-0.73322-0.73322-0.73322-0.73322-0.73322-0.73322-0.73322-0.73322-0.73322-0.73322-0.73322-0.73322-0.73322-0.73322-0.73322-0.73322-0.73322-0.73322-0.73322-0.73322-0.73322-0.73322-0.73322-0.73322-0.73322-0.73322-0.73322-0.73322-0.73322-0.73322-0.73322-0.73322-0.73322-0.73322-0.73322-0.73322-0.73322-0.73322-0.73322-0.73322-0.73322-0.73322-0.73322-0.73322-0.73322-0.73322-0.73322-0.73322-0.73322-0.73322-0.73322-0.73322-0.73322-0.73322-0.73322-0.73322-0.73322-0.73322-0.73322-0.73322-0.73322-0.73322-0.73322-0.73322-0.73322-0.73322-0.73322-0.73322-0.73322-0.73322-0.73322-0.73322-0.73322-0.73322-0.73322-0.73322-0.73322-0.73322-0.73322-0.73322-0.73322-0.73322-0.73322-0.73322-0.73322-0.73322-0.73322-0.73322-0.73322-0.73322-0.73322-0.73322-0.73322-0.73322-0.73322-0.73322-0.73322-0.73322-0.73322-0.73322-0.73322-0.73322-0.73322-0.73322-0.73322-0.73322-0.73322-0.73322-0.73322-0.73322-0.73322-0.73322-0.73322-0.73322-0.73322-0.73322-0.73322-0.73322-0.73322-0.73322-0.73322-0.73322-0.73322-0.73322-0.73322-0.73322-0.73322-0.73322-0.73322-0.73322-0.73322-0.73322-0.73322-0.73322-0.73322-0.73322-0.73322-0.73322-0.73322-0.73322-0.73322-0.73322-0.73322-0.73322-0.73322-0.73322-0.73322-0.73322-0.73322-0.73322-0.73322-0.73322-0.73322-0.73322-0.73322-0.73322-0.73322-0.73322-0.73322-0.73322-0.73322-0.73322-0.73322-0.73322-0.73322-0.73322-0.73322-0.73322-0.73322-0.73322-0.73322-0.73322-0.73322-0.73322-0.73322-0.73322-0.73322-0.73322-0.73322-0.73322-0.73322-0.73322-0.73322-0.73322-0.73322-0.73322-0.73322-0.73322-0.73322-0.73322-0.73322-0.73322-0.73322-0.73322-0.73322-0.73322-0.73322-0.73322-0.73322-0.73322-0.73322-0.73322-0.73322-0.73322-0.73322-0.73322-0.73322-0.73322-0.73322-0.73322-0.73322-0.73322-0.73322-0.73322v1.1408 1.1408 1.1408 1.1408 1.1408 1.1408 1.1408 1.1408 1.1408 1.1408 1.1408 1.1408 1.1408 1.1408 1.1408 1.1408 1.1408 1.1408 1.1408 1.1408 1.1408 1.1408 1.1408 1.1408 1.1408 1.1408 1.1408 1.1408 1.1408 1.1408 1.1408 1.1408 1.1408 1.1408 1.1408 1.1408 1.1408 1.1408 1.1408 1.1408 1.1408 1.1408 1.1408 1.1408 1.1408 1.1408 1.1408 1.1408 1.1408 1.1408 1.1408 1.1408 1.1408 1.1408 1.1408 1.1408 1.1408 1.1408 1.1408 1.1408 1.1408 1.1408 1.1408 1.1408 1.1408 1.1408 1.1408 1.1408 1.1408 1.1408 1.1408 1.1408 1.1408 1.1408 1.1408 1.1408 1.1408 1.1408 1.1408 1.1408 1.1408 1.1408 1.1408 1.1408 1.1408 1.1408 1.1408 1.1408 1.1408 1.1408 1.1408 1.1408 1.1408 1.1408 1.1408 1.1408 1.1408 1.1408 1.1408 0.1426z" clip-path="url(#p84f8dea8fb)" fill="#f00" fill-opacity=".4"/>
   </g>
   <g id="PathCollection_9" fill="#00f" stroke="#00f" stroke-width="1.5">
    <path d="m96.201 121.86 6-6m-6 0 6 6" clip-path="url(#p84f8dea8fb)"/>
    <path d="m88.869 116.16 6-6m-6 0 6 6" clip-path="url(#p84f8dea8fb)"/>
    <path d="m103.53 116.16 6-6m-6 0 6 6" clip-path="url(#p84f8dea8fb)"/>
    <path d="m70.538 127.57 6-6m-6 0 6 6" clip-path="url(#p84f8dea8fb)"/>
    <path d="m92.535 116.16 6-6m-6 0 6 6" clip-path="url(#p84f8dea8fb)"/>
    <path d="m88.869 127.57 6-6m-6 0 6 6" clip-path="url(#p84f8dea8fb)"/>
    <path d="m96.201 110.45 6-6m-6 0 6 6" clip-path="url(#p84f8dea8fb)"/>
    <path d="m44.876 144.68 6-6m-6 0 6 6" clip-path="url(#p84f8dea8fb)"/>
    <path d="m92.535 127.57 6-6m-6 0 6 6" clip-path="url(#p84f8dea8fb)"/>
    <path d="m66.872 121.86 6-6m-6 0 6 6" clip-path="url(#p84f8dea8fb)"/>
    <path d="m52.208 144.68 6-6m-6 0 6 6" clip-path="url(#p84f8dea8fb)"/>
    <path d="m77.871 116.16 6-6m-6 0 6 6" clip-path="url(#p84f8dea8fb)"/>
    <path d="m70.538 144.68 6-6m-6 0 6 6" clip-path="url(#p84f8dea8fb)"/>
    <path d="m96.201 121.86 6-6m-6 0 6 6" clip-path="url(#p84f8dea8fb)"/>
    <path d="m55.874 127.57 6-6m-6 0 6 6" clip-path="url(#p84f8dea8fb)"/>
    <path d="m85.203 121.86 6-6m-6 0 6 6" clip-path="url(#p84f8dea8fb)"/>
    <path d="m88.869 116.16 6-6m-6 0 6 6" clip-path="url(#p84f8dea8fb)"/>
    <path d="m74.205 144.68 6-6m-6 0 6 6" clip-path="url(#p84f8dea8fb)"/>
    <path d="m88.869 116.16 6-6m-6 0 6 6" clip-path="url(#p84f8dea8fb)"/>
    <path d="m66.872 138.97 6-6m-6 0 6 6" clip-path="url(#p84f8dea8fb)"/>
    <path d="m99.867 99.046 6-6m-6 0 6 6" clip-path="url(#p84f8dea8fb)"/>
    <path d="m70.538 127.57 6-6m-6 0 6 6" clip-path="url(#p84f8dea8fb)"/>
    <path d="m103.53 116.16 6-6m-6 0 6 6" clip-path="url(#p84f8dea8fb)"/>
    <path d="m96.201 133.27 6-6m-6 0 6 6" clip-path="url(#p84f8dea8fb)"/>
    <path d="m81.537 127.57 6-6m-6 0 6 6" clip-path="url(#p84f8dea8fb)"/>
    <path d="m85.203 121.86 6-6m-6 0 6 6" clip-path="url(#p84f8dea8fb)"/>
    <path d="m99.867 121.86 6-6m-6 0 6 6" clip-path="url(#p84f8dea8fb)"/>
    <path d="m107.2 104.75 6-6m-6 0 6 6" clip-path="url(#p84f8dea8fb)"/>
    <path d="m88.869 116.16 6-6m-6 0 6 6" clip-path="url(#p84f8dea8fb)"/>
    <path d="m52.208 144.68 6-6m-6 0 6 6" clip-path="url(#p84f8dea8fb)"/>
    <path d="m63.206 138.97 6-6m-6 0 6 6" clip-path="url(#p84f8dea8fb)"/>
    <path d="m59.54 144.68 6-6m-6 0 6 6" clip-path="url(#p84f8dea8fb)"/>
    <path d="m66.872 133.27 6-6m-6 0 6 6" clip-path="url(#p84f8dea8fb)"/>
    <path d="m110.87 110.45 6-6m-6 0 6 6" clip-path="url(#p84f8dea8fb)"/>
    <path d="m88.869 116.16 6-6m-6 0 6 6" clip-path="url(#p84f8dea8fb)"/>
    <path d="m88.869 110.45 6-6m-6 0 6 6" clip-path="url(#p84f8dea8fb)"/>
    <path d="m96.201 116.16 6-6m-6 0 6 6" clip-path="url(#p84f8dea8fb)"/>
    <path d="m85.203 127.57 6-6m-6 0 6 6" clip-path="url(#p84f8dea8fb)"/>
    <path d="m74.205 127.57 6-6m-6 0 6 6" clip-path="url(#p84f8dea8fb)"/>
    <path d="m70.538 127.57 6-6m-6 0 6 6" clip-path="url(#p84f8dea8fb)"/>
    <path d="m85.203 133.27 6-6m-6 0 6 6" clip-path="url(#p84f8dea8fb)"/>
    <path d="m92.535 121.86 6-6m-6 0 6 6" clip-path="url(#p84f8dea8fb)"/>
    <path d="m70.538 133.27 6-6m-6 0 6 6" clip-path="url(#p84f8dea8fb)"/>
    <path d="m44.876 144.68 6-6m-6 0 6 6" clip-path="url(#p84f8dea8fb)"/>
    <path d="m77.871 127.57 6-6m-6 0 6 6" clip-path="url(#p84f8dea8fb)"/>
    <path d="m77.871 133.27 6-6m-6 0 6 6" clip-path="url(#p84f8dea8fb)"/>
    <path d="m77.871 127.57 6-6m-6 0 6 6" clip-path="url(#p84f8dea8fb)"/>
    <path d="m81.537 127.57 6-6m-6 0 6 6" clip-path="url(#p84f8dea8fb)"/>
    <path d="m33.877 138.97 6-6m-6 0 6 6" clip-path="url(#p84f8dea8fb)"/>
    <path d="m74.205 127.57 6-6m-6 0 6 6" clip-path="url(#p84f8dea8fb)"/>
   </g>
   <g id="PathCollection_10">
    <defs>
     <path id="C0_0_93ca30e380" d="m0 3c0.79561 0 1.5587-0.3161 2.1213-0.87868 0.56258-0.56258 0.87868-1.3257 0.87868-2.1213s-0.3161-1.5587-0.87868-2.1213c-0.56258-0.56258-1.3257-0.87868-2.1213-0.87868s-1.5587 0.3161-2.1213 0.87868c-0.56258 0.56258-0.87868 1.3257-0.87868 2.1213s0.3161 1.5587 0.87868 2.1213c0.56258 0.56258 1.3257 0.87868 2.1213 0.87868z"/>
    </defs>
    <g clip-path="url(#p84f8dea8fb)">
     <use x="146.860898" y="56.116552" fill="#ff0000" stroke="#000000" xlink:href="#C0_0_93ca30e380"/>
    </g>
    <g clip-path="url(#p84f8dea8fb)">
     <use x="113.865796" y="90.341379" fill="#ff0000" stroke="#000000" xlink:href="#C0_0_93ca30e380"/>
    </g>
    <g clip-path="url(#p84f8dea8fb)">
     <use x="143.194776" y="78.933103" fill="#ff0000" stroke="#000000" xlink:href="#C0_0_93ca30e380"/>
    </g>
    <g clip-path="url(#p84f8dea8fb)">
     <use x="132.196408" y="96.045517" fill="#ff0000" stroke="#000000" xlink:href="#C0_0_93ca30e380"/>
    </g>
    <g clip-path="url(#p84f8dea8fb)">
     <use x="139.528653" y="73.228966" fill="#ff0000" stroke="#000000" xlink:href="#C0_0_93ca30e380"/>
    </g>
    <g clip-path="url(#p84f8dea8fb)">
     <use x="168.857633" y="78.933103" fill="#ff0000" stroke="#000000" xlink:href="#C0_0_93ca30e380"/>
    </g>
    <g clip-path="url(#p84f8dea8fb)">
     <use x="91.869061" y="101.749655" fill="#ff0000" stroke="#000000" xlink:href="#C0_0_93ca30e380"/>
    </g>
    <g clip-path="url(#p84f8dea8fb)">
     <use x="157.859265" y="96.045517" fill="#ff0000" stroke="#000000" xlink:href="#C0_0_93ca30e380"/>
    </g>
    <g clip-path="url(#p84f8dea8fb)">
     <use x="139.528653" y="96.045517" fill="#ff0000" stroke="#000000" xlink:href="#C0_0_93ca30e380"/>
    </g>
    <g clip-path="url(#p84f8dea8fb)">
     <use x="150.52702" y="56.116552" fill="#ff0000" stroke="#000000" xlink:href="#C0_0_93ca30e380"/>
    </g>
    <g clip-path="url(#p84f8dea8fb)">
     <use x="113.865796" y="84.637241" fill="#ff0000" stroke="#000000" xlink:href="#C0_0_93ca30e380"/>
    </g>
    <g clip-path="url(#p84f8dea8fb)">
     <use x="121.198041" y="90.341379" fill="#ff0000" stroke="#000000" xlink:href="#C0_0_93ca30e380"/>
    </g>
    <g clip-path="url(#p84f8dea8fb)">
     <use x="128.530286" y="78.933103" fill="#ff0000" stroke="#000000" xlink:href="#C0_0_93ca30e380"/>
    </g>
    <g clip-path="url(#p84f8dea8fb)">
     <use x="110.199673" y="84.637241" fill="#ff0000" stroke="#000000" xlink:href="#C0_0_93ca30e380"/>
    </g>
    <g clip-path="url(#p84f8dea8fb)">
     <use x="113.865796" y="61.82069" fill="#ff0000" stroke="#000000" xlink:href="#C0_0_93ca30e380"/>
    </g>
    <g clip-path="url(#p84f8dea8fb)">
     <use x="121.198041" y="67.524828" fill="#ff0000" stroke="#000000" xlink:href="#C0_0_93ca30e380"/>
    </g>
    <g clip-path="url(#p84f8dea8fb)">
     <use x="128.530286" y="96.045517" fill="#ff0000" stroke="#000000" xlink:href="#C0_0_93ca30e380"/>
    </g>
    <g clip-path="url(#p84f8dea8fb)">
     <use x="172.523755" y="73.228966" fill="#ff0000" stroke="#000000" xlink:href="#C0_0_93ca30e380"/>
    </g>
    <g clip-path="url(#p84f8dea8fb)">
     <use x="179.856" y="67.524828" fill="#ff0000" stroke="#000000" xlink:href="#C0_0_93ca30e380"/>
    </g>
    <g clip-path="url(#p84f8dea8fb)">
     <use x="110.199673" y="113.157931" fill="#ff0000" stroke="#000000" xlink:href="#C0_0_93ca30e380"/>
    </g>
    <g clip-path="url(#p84f8dea8fb)">
     <use x="135.862531" y="67.524828" fill="#ff0000" stroke="#000000" xlink:href="#C0_0_93ca30e380"/>
    </g>
    <g clip-path="url(#p84f8dea8fb)">
     <use x="106.533551" y="84.637241" fill="#ff0000" stroke="#000000" xlink:href="#C0_0_93ca30e380"/>
    </g>
    <g clip-path="url(#p84f8dea8fb)">
     <use x="172.523755" y="84.637241" fill="#ff0000" stroke="#000000" xlink:href="#C0_0_93ca30e380"/>
    </g>
    <g clip-path="url(#p84f8dea8fb)">
     <use x="106.533551" y="96.045517" fill="#ff0000" stroke="#000000" xlink:href="#C0_0_93ca30e380"/>
    </g>
    <g clip-path="url(#p84f8dea8fb)">
     <use x="135.862531" y="78.933103" fill="#ff0000" stroke="#000000" xlink:href="#C0_0_93ca30e380"/>
    </g>
    <g clip-path="url(#p84f8dea8fb)">
     <use x="146.860898" y="96.045517" fill="#ff0000" stroke="#000000" xlink:href="#C0_0_93ca30e380"/>
    </g>
    <g clip-path="url(#p84f8dea8fb)">
     <use x="102.867429" y="96.045517" fill="#ff0000" stroke="#000000" xlink:href="#C0_0_93ca30e380"/>
    </g>
    <g clip-path="url(#p84f8dea8fb)">
     <use x="106.533551" y="96.045517" fill="#ff0000" stroke="#000000" xlink:href="#C0_0_93ca30e380"/>
    </g>
    <g clip-path="url(#p84f8dea8fb)">
     <use x="132.196408" y="78.933103" fill="#ff0000" stroke="#000000" xlink:href="#C0_0_93ca30e380"/>
    </g>
    <g clip-path="url(#p84f8dea8fb)">
     <use x="139.528653" y="107.453793" fill="#ff0000" stroke="#000000" xlink:href="#C0_0_93ca30e380"/>
    </g>
    <g clip-path="url(#p84f8dea8fb)">
     <use x="150.52702" y="90.341379" fill="#ff0000" stroke="#000000" xlink:href="#C0_0_93ca30e380"/>
    </g>
    <g clip-path="url(#p84f8dea8fb)">
     <use x="161.525388" y="84.637241" fill="#ff0000" stroke="#000000" xlink:href="#C0_0_93ca30e380"/>
    </g>
    <g clip-path="url(#p84f8dea8fb)">
     <use x="132.196408" y="73.228966" fill="#ff0000" stroke="#000000" xlink:href="#C0_0_93ca30e380"/>
    </g>
    <g clip-path="url(#p84f8dea8fb)">
     <use x="113.865796" y="113.157931" fill="#ff0000" stroke="#000000" xlink:href="#C0_0_93ca30e380"/>
    </g>
    <g clip-path="url(#p84f8dea8fb)">
     <use x="132.196408" y="118.862069" fill="#ff0000" stroke="#000000" xlink:href="#C0_0_93ca30e380"/>
    </g>
    <g clip-path="url(#p84f8dea8fb)">
     <use x="150.52702" y="67.524828" fill="#ff0000" stroke="#000000" xlink:href="#C0_0_93ca30e380"/>
    </g>
    <g clip-path="url(#p84f8dea8fb)">
     <use x="132.196408" y="61.82069" fill="#ff0000" stroke="#000000" xlink:href="#C0_0_93ca30e380"/>
    </g>
    <g clip-path="url(#p84f8dea8fb)">
     <use x="128.530286" y="96.045517" fill="#ff0000" stroke="#000000" xlink:href="#C0_0_93ca30e380"/>
    </g>
    <g clip-path="url(#p84f8dea8fb)">
     <use x="102.867429" y="96.045517" fill="#ff0000" stroke="#000000" xlink:href="#C0_0_93ca30e380"/>
    </g>
    <g clip-path="url(#p84f8dea8fb)">
     <use x="124.864163" y="78.933103" fill="#ff0000" stroke="#000000" xlink:href="#C0_0_93ca30e380"/>
    </g>
    <g clip-path="url(#p84f8dea8fb)">
     <use x="132.196408" y="61.82069" fill="#ff0000" stroke="#000000" xlink:href="#C0_0_93ca30e380"/>
    </g>
    <g clip-path="url(#p84f8dea8fb)">
     <use x="113.865796" y="67.524828" fill="#ff0000" stroke="#000000" xlink:href="#C0_0_93ca30e380"/>
    </g>
    <g clip-path="url(#p84f8dea8fb)">
     <use x="113.865796" y="90.341379" fill="#ff0000" stroke="#000000" xlink:href="#C0_0_93ca30e380"/>
    </g>
    <g clip-path="url(#p84f8dea8fb)">
     <use x="143.194776" y="67.524828" fill="#ff0000" stroke="#000000" xlink:href="#C0_0_93ca30e380"/>
    </g>
    <g clip-path="url(#p84f8dea8fb)">
     <use x="135.862531" y="56.116552" fill="#ff0000" stroke="#000000" xlink:href="#C0_0_93ca30e380"/>
    </g>
    <g clip-path="url(#p84f8dea8fb)">
     <use x="117.531918" y="67.524828" fill="#ff0000" stroke="#000000" xlink:href="#C0_0_93ca30e380"/>
    </g>
    <g clip-path="url(#p84f8dea8fb)">
     <use x="110.199673" y="90.341379" fill="#ff0000" stroke="#000000" xlink:href="#C0_0_93ca30e380"/>
    </g>
    <g clip-path="url(#p84f8dea8fb)">
     <use x="117.531918" y="84.637241" fill="#ff0000" stroke="#000000" xlink:href="#C0_0_93ca30e380"/>
    </g>
    <g clip-path="url(#p84f8dea8fb)">
     <use x="124.864163" y="67.524828" fill="#ff0000" stroke="#000000" xlink:href="#C0_0_93ca30e380"/>
    </g>
    <g clip-path="url(#p84f8dea8fb)">
     <use x="113.865796" y="96.045517" fill="#ff0000" stroke="#000000" xlink:href="#C0_0_93ca30e380"/>
    </g>
   </g>
   <g id="matplotlib.axis_1">
    <g id="text_1">
     <!-- epochs5000accuracy95.00% -->
     <defs>
      <path id="SimHei-101" d="m44.922 16.406q-0.78125-7.0312-6.25-11.328t-12.891-4.2969q-9.375 0-15.438 6.0469-6.0469 6.0625-6.0469 16.609t6.0469 16.594q6.0625 6.0625 15.438 6.0625 8.2031 0 13.469-5.2812 5.2812-5.2656 5.2812-17.375h-31.641q0-8.5938 3.7031-12.109 3.7188-3.5156 9.1875-3.5156 4.2969 0 7.0312 2.1406 2.7344 2.1562 3.5156 6.4531zm-9.375 13.281q-0.78125 5.4688-3.5156 7.6094-2.7344 2.1562-7.0312 2.1562-3.9062 0-7.0312-2.1562-3.125-2.1406-4.6875-7.6094z"/>
      <path id="SimHei-112" d="m44.531 23.438q0-11.328-5.4688-17.188t-13.281-5.8594q-4.2969 0-7.4219 1.75-3.125 1.7656-5.4688 5.2812v-20.312h-7.8125v58.203h7.8125v-5.8594q2.3438 3.5156 5.4688 5.0781t7.4219 1.5625q7.8125 0 13.281-5.6719 5.4688-5.6562 5.4688-16.984zm-8.5938 0q0 7.4219-2.9375 11.516-2.9219 4.1094-8.7812 4.1094-4.6875 0-8.0156-4.1094-3.3125-4.0938-3.3125-11.516t3.3125-11.719q3.3281-4.2969 8.0156-4.2969 5.8594 0 8.7812 4.2969 2.9375 4.2969 2.9375 11.719z"/>
      <path id="SimHei-111" d="m46.094 23.438q0-10.156-6.25-16.406t-14.844-6.25-14.844 6.25-6.25 16.406 6.25 16.406 14.844 6.25 14.844-6.25 6.25-16.406zm-8.5938 0q0 7.8125-3.9062 11.719t-8.5938 3.9062-8.5938-3.9062-3.9062-11.719 3.9062-11.719 8.5938-3.9062 8.5938 3.9062 3.9062 11.719z"/>
      <path id="SimHei-99" d="m44.922 19.141q0-8.2031-5.6719-13.281-5.6562-5.0781-14.25-5.0781t-14.844 6.0469q-6.25 6.0625-6.25 16.609t6.25 16.594q6.25 6.0625 14.844 6.0625t13.672-4.5q5.0781-4.4844 5.0781-10.734h-8.5938q-0.39062 4.6875-3.3281 6.4375-2.9219 1.7656-6.8281 1.7656-4.6875 0-8.5938-3.7188-3.9062-3.7031-3.9062-11.906t3.9062-11.922q3.9062-3.7031 8.5938-3.7031 5.0781 0 8.2031 2.7344t3.125 8.5938z"/>
      <path id="SimHei-104" d="m44.141 1.5625h-7.8125v28.125q0 4.6875-2.3438 7.4219t-6.25 2.7344q-5.0781 0-9.5781-5.2812-4.4844-5.2656-4.4844-13.078v-19.922h-7.8125v66.797h7.8125v-31.25q3.125 4.2969 6.8281 6.6406 3.7188 2.3438 9.5781 2.3438 7.0312 0 10.547-3.9062t3.5156-9.7656z"/>
      <path id="SimHei-115" d="m43.359 13.672q0-6.25-4.8906-9.5781-4.875-3.3125-12.297-3.3125-9.375 0-14.453 3.7031-5.0781 3.7188-5.0781 10.75h7.8125q0-4.6875 3.3125-6.25 3.3281-1.5625 8.0156-1.5625t7.0312 1.75q2.3438 1.7656 2.3438 4.5 0 1.9531-1.9531 3.9062t-9.7656 3.125q-8.9844 1.1719-12.312 4.4844-3.3125 3.3281-3.3125 8.7969 0 4.6875 4.4844 8.3906 4.5 3.7188 13.094 3.7188 7.8125 0 12.297-3.5156 4.5-3.5156 4.5-9.375h-7.8125q0 3.5156-2.5469 4.875-2.5312 1.375-6.4375 1.375-5.0781 0-7.2344-1.7656-2.1406-1.75-2.1406-4.0938 0-2.7344 1.9531-4.2969t8.2031-2.3438q10.156-1.5625 13.672-4.8906 3.5156-3.3125 3.5156-8.3906z"/>
      <path id="SimHei-65306" d="m19.531-2.7344q6.6406 3.9062 6.8281 7.6094 0.20312 3.7188-3.125 5.8594-3.3125 2.1562-7.0312 0.20312-3.7031-1.9531-3.5156-5.8594 0.20312-3.9062 3.5156-5.8594 3.3281-1.9531 9.9688 1.9531zm-0.78125 23.438q8.2031 3.5156 8.2031 7.6094 0 4.1094-3.5156 5.8594-3.5156 1.7656-7.0312 0-3.5156-1.75-3.7188-5.4688-0.1875-3.7031 2.9375-5.8594 3.125-2.1406 11.328 1.375z"/>
      <path id="SimHei-53" d="m44.141 25.781q0-11.719-5.6719-18.359-5.6562-6.6406-15.031-6.6406-8.2031 0-13.484 5.4688-5.2656 5.4688-5.6562 14.844h8.9844q0-5.8594 2.7344-9.375t7.8125-3.5156 8 4.2969q2.9375 4.2969 2.9375 13.281 0 7.8125-2.5469 11.516-2.5312 3.7188-6.8281 3.7188-3.5156 0-6.0625-1.5625-2.5312-1.5625-4.875-5.4688h-7.8125l2.3438 34.375h33.594v-7.4219h-26.172l-1.5625-17.969q2.3438 2.3438 5.0781 3.5156t7.4219 1.1719q7.4219 0 12.109-5.6719 4.6875-5.6562 4.6875-16.203z"/>
      <path id="SimHei-48" d="m46.484 35.156q0-14.062-5.0781-24.219t-16.406-10.156-16.609 10.156q-5.2656 10.156-5.2656 24.219t5.2656 24.016q5.2812 9.9688 16.609 9.9688t16.406-9.9688q5.0781-9.9531 5.0781-24.016zm-9.375 0q0 12.5-2.9375 19.531-2.9219 7.0312-9.1719 7.0312t-9.375-7.0312-3.125-19.531 3.125-19.734q3.125-7.2188 9.375-7.2188t9.1719 7.2188q2.9375 7.2344 2.9375 19.734z"/>
      <path id="SimHei-65292" d="m21.484 9.7656q-1.5625-5.0781-3.7188-7.8125-2.1406-2.7344-4.4844-4.4844-2.3438-1.7656 0.78125-1.375t7.2188 4.875q4.1094 4.5 5.6719 9.375 1.5625 4.8906 0.39062 8.0156t-4.6875 3.9062-5.8594-0.98438q-2.3438-1.75-2.7344-3.5156-0.39062-1.75 0.1875-3.7031 0.59375-1.9531 2.1562-3.125t5.0781-1.1719z"/>
      <path id="SimHei-97" d="m45.312 1.5625h-9.375q-0.78125 0.78125-1.1719 2.1406-0.39062 1.375-0.39062 3.3281-2.7344-3.125-6.6406-4.6875t-8.2031-1.5625q-6.25 0-10.547 3.125t-4.2969 8.9844 3.9062 9.375 12.109 4.6875q5.4688 0.78125 9.5625 1.9531 4.1094 1.1719 4.1094 3.125 0 2.3438-1.7656 4.6875-1.75 2.3438-7.6094 2.3438-4.6875 0-6.8438-1.7656-2.1406-1.75-2.9219-4.875h-8.5938q0.78125 6.25 5.6562 9.9531 4.8906 3.7188 12.703 3.7188 8.5938 0 12.891-3.9062t4.2969-10.938v-21.484q0-2.3438 0.78125-4.2969t2.3438-3.9062zm-10.938 14.453v7.8125q-2.3438-0.78125-4.5-1.375-2.1406-0.57812-7.2188-1.3594-5.8594-0.78125-7.625-2.7344-1.75-1.9531-1.75-4.6875 0-2.3438 1.75-4.1094 1.7656-1.75 5.2812-1.75t7.6094 1.9531q4.1094 1.9531 6.4531 6.25z"/>
      <path id="SimHei-117" d="m44.141 1.5625h-7.8125v8.2031q-3.125-4.2969-6.8438-6.6406-3.7031-2.3438-9.5625-2.3438-7.0312 0-10.547 3.9062t-3.5156 9.7656v30.859h7.8125v-28.125q0-4.6875 2.3438-7.4219t6.25-2.7344q5.0781 0 9.5625 5.2656 4.5 5.2812 4.5 13.094v19.922h7.8125z"/>
      <path id="SimHei-114" d="m39.453 37.5q-7.4219 1.1719-12.5-2.1562-5.0781-3.3125-8.5938-11.516v-22.266h-7.8125v43.75h7.8125v-11.328q3.5156 6.25 8.7812 9.1719 5.2812 2.9375 12.312 2.9375z"/>
      <path id="SimHei-121" d="m45.703 45.312-17.969-47.266q-1.5625-5.4688-4.6875-8.2031t-7.8125-2.7344q-1.9531 0-3.7188 0.20312-1.75 0.1875-3.3125 0.96875v7.8125q1.5625-0.78125 3.125-1.1719t2.7344-0.39062q3.125 0 4.2969 0.98438 1.1719 0.96875 2.3438 4.4844l-17.188 45.312h8.5938l12.5-34.375h0.39062l12.109 34.375z"/>
      <path id="SimHei-57" d="m44.141 35.938q0-16.016-5.6719-25.594-5.6562-9.5625-16.203-9.5625-7.4219 0-11.922 5.4688-4.4844 5.4688-4.4844 12.109h8.9844q0-3.9062 2.1406-7.0312 2.1562-3.125 5.6719-3.125 5.8594 0 8.7812 6.6406 2.9375 6.6406 3.7188 19.531-1.9531-4.2969-5.4688-6.6406t-7.8125-2.3438q-7.4219 0-12.109 5.4688t-4.6875 15.625 4.6875 16.406 14.062 6.25 14.844-7.8125 5.4688-25.391zm-9.7656 8.9844q0 8.5938-2.9375 12.891-2.9219 4.2969-8 4.2969-3.5156 0-6.25-3.3281-2.7344-3.3125-2.7344-12.297 0-6.6406 2.1406-10.359 2.1562-3.7031 6.8438-3.7031 5.0781 0 8 3.5156 2.9375 3.5156 2.9375 8.9844z"/>
      <path id="SimHei-46" d="m17.188 1.5625h-8.9844v8.5938h8.9844z"/>
      <path id="SimHei-37" d="m22.266 51.562q0-11.328-3.3281-14.453-3.3125-3.125-6.4375-3.125t-6.4531 3.125q-3.3125 3.125-3.3125 14.453t3.3125 14.453q3.3281 3.125 6.4531 3.125t6.4375-3.125q3.3281-3.125 3.3281-14.453zm19.141 16.406-30.078-67.188-3.125 1.1719 30.078 67.188zm5.4688-49.609q0-11.328-3.3281-14.453-3.3125-3.125-6.4375-3.125t-6.4531 3.125q-3.3125 3.125-3.3125 14.453t3.3125 14.453q3.3281 3.125 6.4531 3.125t6.4375-3.125q3.3281-3.125 3.3281-14.453zm-30.859 33.203q0 7.0312-0.78125 9.375t-2.7344 2.3438-2.7344-2.3438-0.78125-9.375 0.78125-9.375 2.7344-2.3438 2.7344 2.3438 0.78125 9.375zm24.609-33.203q0 7.0312-0.78125 9.375t-2.7344 2.3438-2.7344-2.3438-0.78125-9.375 0.78125-9.375 2.7344-2.3438 2.7344 2.3438 0.78125 9.375z"/>
     </defs>
     <g transform="translate(3 212.4) scale(.14 -.14)">
      <use xlink:href="#SimHei-101"/>
      <use x="50" xlink:href="#SimHei-112"/>
      <use x="100" xlink:href="#SimHei-111"/>
      <use x="150" xlink:href="#SimHei-99"/>
      <use x="200" xlink:href="#SimHei-104"/>
      <use x="250" xlink:href="#SimHei-115"/>
      <use x="300" xlink:href="#SimHei-65306"/>
      <use x="400" xlink:href="#SimHei-53"/>
      <use x="450" xlink:href="#SimHei-48"/>
      <use x="500" xlink:href="#SimHei-48"/>
      <use x="550" xlink:href="#SimHei-48"/>
      <use x="600" xlink:href="#SimHei-65292"/>
      <use x="700" xlink:href="#SimHei-97"/>
      <use x="750" xlink:href="#SimHei-99"/>
      <use x="800" xlink:href="#SimHei-99"/>
      <use x="850" xlink:href="#SimHei-117"/>
      <use x="900" xlink:href="#SimHei-114"/>
      <use x="950" xlink:href="#SimHei-97"/>
      <use x="1000" xlink:href="#SimHei-99"/>
      <use x="1050" xlink:href="#SimHei-121"/>
      <use x="1100" xlink:href="#SimHei-65306"/>
      <use x="1200" xlink:href="#SimHei-57"/>
      <use x="1250" xlink:href="#SimHei-53"/>
      <use x="1300" xlink:href="#SimHei-46"/>
      <use x="1350" xlink:href="#SimHei-48"/>
      <use x="1400" xlink:href="#SimHei-48"/>
      <use x="1450" xlink:href="#SimHei-37"/>
     </g>
    </g>
   </g>
   <g id="line2d_1">
    <path d="m0.216 113.96 215.57-24.484" clip-path="url(#p84f8dea8fb)" fill="none" stroke="#000" stroke-linecap="square" stroke-width="1.5"/>
   </g>
   <g id="patch_3">
    <path d="m0.216 198.72v-198.5" fill="none" stroke="#000" stroke-linecap="square" stroke-width=".8"/>
   </g>
   <g id="patch_4">
    <path d="m215.78 198.72v-198.5" fill="none" stroke="#000" stroke-linecap="square" stroke-width=".8"/>
   </g>
   <g id="patch_5">
    <path d="m0.216 198.72h215.57" fill="none" stroke="#000" stroke-linecap="square" stroke-width=".8"/>
   </g>
   <g id="patch_6">
    <path d="m0.216 0.216h215.57" fill="none" stroke="#000" stroke-linecap="square" stroke-width=".8"/>
   </g>
  </g>
 </g>
 <defs>
  <clipPath id="p84f8dea8fb">
   <rect x=".216" y=".216" width="215.57" height="198.5"/>
  </clipPath>
 </defs>
</svg>
