<?xml version="1.0" encoding="UTF-8"?>
<!DOCTYPE svg  PUBLIC '-//W3C//DTD SVG 1.1//EN'  'http://www.w3.org/Graphics/SVG/1.1/DTD/svg11.dtd'>
<!-- Created with matplotlib (https://matplotlib.org/) -->
<svg width="432pt" height="288pt" version="1.1" viewBox="0 0 432 288" xmlns="http://www.w3.org/2000/svg" xmlns:xlink="http://www.w3.org/1999/xlink">
 <defs>
  <style type="text/css">*{stroke-linecap:butt;stroke-linejoin:round;}</style>
 </defs>
 <g id="figure_1">
  <g id="patch_1">
   <path d="m0 288h432v-288h-432z" fill="#fff"/>
  </g>
  <g id="patch_2">
   <path d="m0 288h432v-288h-432z" fill="#fff"/>
  </g>
  <g id="pane3d_1">
   <g id="patch_3">
    <path d="m122.52 200.28-41.225 35.335-2.6865-166.94 42.197-19.727" fill="#f2f2f2" opacity=".5" stroke="#f2f2f2"/>
   </g>
  </g>
  <g id="pane3d_2">
   <g id="patch_4">
    <path d="m350.47 204.25-227.95-3.9708-1.714-151.33 231.91 2.2133" fill="#e6e6e6" opacity=".5" stroke="#e6e6e6"/>
   </g>
  </g>
  <g id="pane3d_3">
   <g id="patch_5">
    <path d="m350.47 204.25-227.95-3.9708-41.225 35.335 251.79 4.8596" fill="#ececec" opacity=".5" stroke="#ececec"/>
   </g>
  </g>
  <g id="axis3d_1">
   <g id="line2d_1">
    <path d="m81.295 235.62 251.79 4.8596" fill="none" stroke="#000" stroke-linecap="square" stroke-width=".8"/>
   </g>
   <g id="Line3DCollection_1" fill="none" stroke="#b0b0b0" stroke-width=".8">
    <path d="m327.98 240.38 17.872-36.205 2.1656-153.05"/>
    <path d="m287.27 239.59 21.763-36.061 1.5198-152.77"/>
    <path d="m246.74 238.81 25.624-35.918 0.87884-152.48"/>
    <path d="m206.37 238.03 29.453-35.775 0.24278-152.2"/>
    <path d="m166.17 237.26 33.252-35.633-0.38846-151.92"/>
    <path d="m126.13 236.48 37.021-35.492-1.0149-151.64"/>
    <path d="m86.267 235.71 40.759-35.352-1.6366-151.36"/>
   </g>
   <g id="xtick_1">
    <g id="line2d_2">
     <path d="m328.14 240.06-0.4752 0.96268" fill="none" stroke="#000" stroke-linecap="square" stroke-width=".8"/>
    </g>
   </g>
   <g id="xtick_2">
    <g id="line2d_3">
     <path d="m287.47 239.27-0.57856 0.95864" fill="none" stroke="#000" stroke-linecap="square" stroke-width=".8"/>
    </g>
   </g>
   <g id="xtick_3">
    <g id="line2d_4">
     <path d="m246.96 238.49-0.68104 0.95463" fill="none" stroke="#000" stroke-linecap="square" stroke-width=".8"/>
    </g>
   </g>
   <g id="xtick_4">
    <g id="line2d_5">
     <path d="m206.63 237.72-0.78266 0.95065" fill="none" stroke="#000" stroke-linecap="square" stroke-width=".8"/>
    </g>
   </g>
   <g id="xtick_5">
    <g id="line2d_6">
     <path d="m166.46 236.94-0.88343 0.94669" fill="none" stroke="#000" stroke-linecap="square" stroke-width=".8"/>
    </g>
   </g>
   <g id="xtick_6">
    <g id="line2d_7">
     <path d="m126.46 236.17-0.98336 0.94276" fill="none" stroke="#000" stroke-linecap="square" stroke-width=".8"/>
    </g>
   </g>
   <g id="xtick_7">
    <g id="line2d_8">
     <path d="m86.627 235.4-1.0824 0.93885" fill="none" stroke="#000" stroke-linecap="square" stroke-width=".8"/>
    </g>
   </g>
  </g>
  <g id="axis3d_2">
   <g id="line2d_9">
    <path d="m350.47 204.25-17.383 36.224" fill="none" stroke="#000" stroke-linecap="square" stroke-width=".8"/>
   </g>
   <g id="Line3DCollection_2" fill="none" stroke="#b0b0b0" stroke-width=".8">
    <path d="m120.04 49.311 1.7303 151.61 228.38 3.9861"/>
    <path d="m113.83 52.217 1.8645 153.92 231.9 4.1118"/>
    <path d="m107.41 55.217 2.0064 156.3 235.53 4.2435"/>
    <path d="m100.78 58.314 2.1567 158.75 239.28 4.3816"/>
    <path d="m93.939 61.515 2.3158 161.28 243.14 4.5266"/>
    <path d="m86.862 64.823 2.4844 163.89 247.14 4.6789"/>
    <path d="m79.542 68.246 2.6633 166.59 251.26 4.839"/>
   </g>
   <g id="xtick_8">
    <g id="line2d_10">
     <path d="m348.3 204.88 5.5468 0.096813" fill="none" stroke="#000" stroke-linecap="square" stroke-width=".8"/>
    </g>
   </g>
   <g id="xtick_9">
    <g id="line2d_11">
     <path d="m345.71 210.21 5.6333 0.099884" fill="none" stroke="#000" stroke-linecap="square" stroke-width=".8"/>
    </g>
   </g>
   <g id="xtick_10">
    <g id="line2d_12">
     <path d="m343.04 215.72 5.7226 0.1031" fill="none" stroke="#000" stroke-linecap="square" stroke-width=".8"/>
    </g>
   </g>
   <g id="xtick_11">
    <g id="line2d_13">
     <path d="m340.28 221.41 5.8148 0.10648" fill="none" stroke="#000" stroke-linecap="square" stroke-width=".8"/>
    </g>
   </g>
   <g id="xtick_12">
    <g id="line2d_14">
     <path d="m337.43 227.29 5.91 0.11003" fill="none" stroke="#000" stroke-linecap="square" stroke-width=".8"/>
    </g>
   </g>
   <g id="xtick_13">
    <g id="line2d_15">
     <path d="m334.48 233.36 6.0083 0.11375" fill="none" stroke="#000" stroke-linecap="square" stroke-width=".8"/>
    </g>
   </g>
   <g id="xtick_14">
    <g id="line2d_16">
     <path d="m331.43 239.64 6.11 0.11767" fill="none" stroke="#000" stroke-linecap="square" stroke-width=".8"/>
    </g>
   </g>
  </g>
  <g id="axis3d_3">
   <g id="line2d_17">
    <path d="m350.47 204.25 2.2467-153.09" fill="none" stroke="#000" stroke-linecap="square" stroke-width=".8"/>
   </g>
   <g id="Line3DCollection_3" fill="none" stroke="#b0b0b0" stroke-width=".8">
    <path d="m350.51 201.24-228.02-3.9368-41.244 35.034"/>
    <path d="m350.87 177.09-228.65-3.6634-41.396 32.609"/>
    <path d="m351.22 152.8-229.28-3.387-41.55 30.156"/>
    <path d="m351.58 128.37-229.91-3.1074-41.705 27.674"/>
    <path d="m351.94 103.81-230.55-2.8247-41.862 25.163"/>
    <path d="m352.3 79.117-231.18-2.5388-42.019 22.622"/>
    <path d="m352.67 54.282-231.83-2.2497-42.177 20.051"/>
   </g>
   <g id="xtick_15">
    <g id="line2d_18">
     <path d="m348.67 201.21 5.5381 0.095614" fill="none" stroke="#000" stroke-linecap="square" stroke-width=".8"/>
    </g>
   </g>
   <g id="xtick_16">
    <g id="line2d_19">
     <path d="m349.01 177.06 5.5534 0.088977" fill="none" stroke="#000" stroke-linecap="square" stroke-width=".8"/>
    </g>
   </g>
   <g id="xtick_17">
    <g id="line2d_20">
     <path d="m349.37 152.77 5.5689 0.082265" fill="none" stroke="#000" stroke-linecap="square" stroke-width=".8"/>
    </g>
   </g>
   <g id="xtick_18">
    <g id="line2d_21">
     <path d="m349.72 128.35 5.5844 0.075478" fill="none" stroke="#000" stroke-linecap="square" stroke-width=".8"/>
    </g>
   </g>
   <g id="xtick_19">
    <g id="line2d_22">
     <path d="m350.07 103.79 5.6 0.068613" fill="none" stroke="#000" stroke-linecap="square" stroke-width=".8"/>
    </g>
   </g>
   <g id="xtick_20">
    <g id="line2d_23">
     <path d="m350.43 79.096 5.6157 0.061671" fill="none" stroke="#000" stroke-linecap="square" stroke-width=".8"/>
    </g>
   </g>
   <g id="xtick_21">
    <g id="line2d_24">
     <path d="m350.79 54.264 5.6315 0.05465" fill="none" stroke="#000" stroke-linecap="square" stroke-width=".8"/>
    </g>
   </g>
  </g>
  <g id="axes_1">
   <g id="Path3DCollection_1">
    <defs>
     <path id="mccf7401e3f" d="m0 2.2361c0.59301 0 1.1618-0.23561 1.5811-0.65493s0.65493-0.98813 0.65493-1.5811-0.23561-1.1618-0.65493-1.5811-0.98813-0.65493-1.5811-0.65493-1.1618 0.23561-1.5811 0.65493-0.65493 0.98813-0.65493 1.5811 0.23561 1.1618 0.65493 1.5811 0.98813 0.65493 1.5811 0.65493z" stroke="#000"/>
    </defs>
    <g clip-path="url(#pf301535c40)">
     <use x="221.837838" y="140.108108" fill="#ff7f50" stroke="#000000" xlink:href="#mccf7401e3f"/>
    </g>
   </g>
   <g id="text_1">
    <!-- $\mathbf{w}$ -->
    <defs>
     <path id="STIXGeneral-Bold-119" d="m70.703 46.094v-2.3906q-1.9062-0.40625-2.9531-1.4062t-2.0469-3.5938l-15.5-40.109h-2.2969l-10.203 31-12.5-31h-2.4062l-14.797 37.406q-1.9062 4.7031-2.8594 6-0.9375 1.2969-2.8438 1.7031v2.3906h22.203v-2.3906q-3.7969-0.5-3.7969-2.7969 0-1.2031 3.8906-11.5l4.5-11.812 6.8125 17.109q-0.40625 1.2031-0.60938 1.8906-1.3906 4.9062-2.2031 5.8594-0.79688 0.95312-3.6875 1.25v2.3906h23.391v-2.3906q-2.7969-0.20312-3.7969-0.70312t-1-1.7031q0-1.3906 2.7031-10.594 2.2969-7.9062 3.3906-12.703l3.5 9.4062q4.4062 11.797 4.4062 12.797 0 1.7031-1 2.4531t-3.7969 1.0469v2.3906z"/>
    </defs>
    <g transform="translate(292.61 97.23) scale(.14 -.14)">
     <use transform="translate(0 .90625)" xlink:href="#STIXGeneral-Bold-119"/>
    </g>
   </g>
   <g id="Poly3DCollection_1" fill-opacity=".8">
    <path d="m326.53 130.64-12.833-8.6952-1.175 9.9622 12.891 8.7312 0.55982-5.0103z" clip-path="url(#pf301535c40)" fill="#21918c"/>
    <path d="m313.69 121.94-12.841-8.7004-0.61508 4.952-0.61784 4.9742 12.899 8.7364 0.58881-4.9923z" clip-path="url(#pf301535c40)" fill="#1f998a"/>
    <path d="m300.85 113.24-12.849-8.7056-0.644 4.934-0.64689 4.9561 12.907 8.7417 0.61784-4.9742z" clip-path="url(#pf301535c40)" fill="#1fa187"/>
    <path d="m288 104.54-12.856-8.7108-0.67297 4.916-0.67599 4.938 12.914 8.7469 0.64689-4.9561z" clip-path="url(#pf301535c40)" fill="#24aa83"/>
    <path d="m275.15 95.827-12.864-8.716-0.70196 4.898-0.70512 4.9199 12.922 8.7521 0.67599-4.938z" clip-path="url(#pf301535c40)" fill="#2eb37c"/>
    <path d="m262.28 87.111-12.872-8.7212-1.4653 9.7817 12.93 8.7574 0.70512-4.9199z" clip-path="url(#pf301535c40)" fill="#3bbb75"/>
    <path d="m249.41 78.39-12.879-8.7264-0.76006 4.8618-0.76348 4.8836 12.938 8.7626 0.73428-4.9018z" clip-path="url(#pf301535c40)" fill="#4cc26c"/>
    <path d="m236.53 69.664-12.887-8.7316-1.5819 9.7091 12.945 8.7679 0.76348-4.8836z" clip-path="url(#pf301535c40)" fill="#60ca60"/>
    <path d="m223.65 60.932-12.895-8.7368-0.8183 4.8256-0.82197 4.8472 12.953 8.7731 0.79271-4.8654z" clip-path="url(#pf301535c40)" fill="#75d054"/>
    <path d="m210.75 52.195-12.903-8.742-1.6987 9.6364 12.961 8.7784 0.82197-4.8472z" clip-path="url(#pf301535c40)" fill="#8bd646"/>
    <path d="m197.85 43.453-12.91-8.7472-1.7573 9.6 12.969 8.7837 0.85128-4.829z" clip-path="url(#pf301535c40)" fill="#a5db36"/>
    <path d="m184.94 34.706-12.918-8.7525-1.8159 9.5635 12.977 8.7889 0.88061-4.8108z" clip-path="url(#pf301535c40)" fill="#bddf26"/>
    <path d="m172.02 25.954-12.926-8.7577-1.8746 9.527 12.984 8.7942 0.90998-4.7925z" clip-path="url(#pf301535c40)" fill="#d5e21a"/>
    <path d="m159.09 17.196-12.933-8.7629-1.9333 9.4904 12.992 8.7995 0.93939-4.7742z" clip-path="url(#pf301535c40)" fill="#efe51c"/>
    <path d="m146.16 8.4332-6.4696-4.3834-1.9627 9.4721 6.499 4.4017 0.96883-4.7559z" clip-path="url(#pf301535c40)" fill="#fde725"/>
    <path d="m325.41 140.64-12.891-8.7312-1.1856 10.052 12.95 8.7675 0.56487-5.0554z" clip-path="url(#pf301535c40)" fill="#24878e"/>
    <path d="m312.52 131.91-12.899-8.7364-0.62061 4.9966-0.62341 5.0191 12.957 8.7728 0.59412-5.0373z" clip-path="url(#pf301535c40)" fill="#21918c"/>
    <path d="m299.62 123.17-12.907-8.7417-0.6498 4.9784-0.65273 5.0008 12.965 8.778 0.62341-5.0191z" clip-path="url(#pf301535c40)" fill="#1f998a"/>
    <path d="m286.71 114.43-12.914-8.7469-1.3611 9.9428 12.973 8.7833 0.65273-5.0008z" clip-path="url(#pf301535c40)" fill="#1fa187"/>
    <path d="m273.8 105.68-12.922-8.7521-1.4198 9.9064 12.981 8.7886 0.68208-4.9826z" clip-path="url(#pf301535c40)" fill="#24aa83"/>
    <path d="m260.88 96.929-12.93-8.7574-1.4785 9.8699 12.989 8.7939 0.71148-4.9643z" clip-path="url(#pf301535c40)" fill="#2eb37c"/>
    <path d="m247.95 88.172-12.938-8.7626-1.5373 9.8333 12.996 8.7992 0.7409-4.946z" clip-path="url(#pf301535c40)" fill="#3bbb75"/>
    <path d="m235.01 79.409-12.945-8.7679-1.5961 9.7967 13.004 8.8045 0.77037-4.9277z" clip-path="url(#pf301535c40)" fill="#4cc26c"/>
    <path d="m222.06 70.641-12.953-8.7731-1.6551 9.7601 13.012 8.8098 0.79987-4.9094z" clip-path="url(#pf301535c40)" fill="#60ca60"/>
    <path d="m209.11 61.868-12.961-8.7784-1.7141 9.7234 13.02 8.8151 0.8294-4.891z" clip-path="url(#pf301535c40)" fill="#75d054"/>
    <path d="m196.15 53.09-12.969-8.7837-0.88458 4.8324-0.88858 4.8542 13.028 8.8204 0.85897-4.8727z" clip-path="url(#pf301535c40)" fill="#8bd646"/>
    <path d="m183.18 44.306-12.977-8.7889-0.91408 4.8141-0.91822 4.8358 13.036 8.8257 0.88858-4.8542z" clip-path="url(#pf301535c40)" fill="#a5db36"/>
    <path d="m170.2 35.517-12.984-8.7942-1.8915 9.6131 13.044 8.831 0.91822-4.8358z" clip-path="url(#pf301535c40)" fill="#bddf26"/>
    <path d="m157.22 26.723-12.992-8.7995-1.9508 9.5762 13.051 8.8364 0.94789-4.8174z" clip-path="url(#pf301535c40)" fill="#d5e21a"/>
    <path d="m144.23 17.924-6.499-4.4017-1.9805 9.5578 6.5287 4.4202 0.9776-4.7989z" clip-path="url(#pf301535c40)" fill="#e7e419"/>
    <path d="m324.28 150.73-12.95-8.7675-1.1963 10.143 13.009 8.8041 0.56998-5.1012z" clip-path="url(#pf301535c40)" fill="#277f8e"/>
    <path d="m311.33 141.96-12.957-8.7728-1.2553 10.106 13.016 8.8094 0.5995-5.0829z" clip-path="url(#pf301535c40)" fill="#24878e"/>
    <path d="m298.38 133.19-12.965-8.778-0.65567 5.0234-0.65864 5.0461 13.024 8.8147 0.62905-5.0645z" clip-path="url(#pf301535c40)" fill="#21918c"/>
    <path d="m285.41 124.41-12.973-8.7833-1.3734 10.033 13.032 8.82 0.65864-5.0461z" clip-path="url(#pf301535c40)" fill="#1f998a"/>
    <path d="m272.44 115.62-12.981-8.7886-1.4326 9.9961 13.04 8.8254 0.68827-5.0278z" clip-path="url(#pf301535c40)" fill="#1fa187"/>
    <path d="m259.46 106.84-12.989-8.7939-0.74425 4.9684-0.74762 4.9909 13.048 8.8307 0.71793-5.0093z" clip-path="url(#pf301535c40)" fill="#24aa83"/>
    <path d="m246.47 98.042-12.996-8.7992-1.5512 9.9224 13.056 8.836 0.74762-4.9909z" clip-path="url(#pf301535c40)" fill="#2eb37c"/>
    <path d="m233.47 89.243-13.004-8.8045-0.80348 4.9316-0.80712 4.9539 13.064 8.8414 0.77736-4.9724z" clip-path="url(#pf301535c40)" fill="#3bbb75"/>
    <path d="m220.47 80.438-13.012-8.8098-1.6701 9.8486 13.072 8.8467 0.80712-4.9539z" clip-path="url(#pf301535c40)" fill="#4cc26c"/>
    <path d="m207.45 71.628-13.02-8.8151-0.86286 4.8947-0.86677 4.9169 13.08 8.8521 0.83693-4.9354z" clip-path="url(#pf301535c40)" fill="#60ca60"/>
    <path d="m194.43 62.813-13.028-8.8204-0.8926 4.8762-0.89664 4.8983 13.087 8.8574 0.86677-4.9169z" clip-path="url(#pf301535c40)" fill="#75d054"/>
    <path d="m181.41 53.993-13.036-8.8257-1.8489 9.7375 13.095 8.8628 0.89664-4.8983z" clip-path="url(#pf301535c40)" fill="#8bd646"/>
    <path d="m168.37 45.167-13.044-8.831-1.9087 9.7003 13.103 8.8682 0.92656-4.8798z" clip-path="url(#pf301535c40)" fill="#a5db36"/>
    <path d="m155.33 36.336-13.051-8.8364-1.9685 9.6632 13.111 8.8735 0.9565-4.8611z" clip-path="url(#pf301535c40)" fill="#bddf26"/>
    <path d="m142.28 27.5-6.5287-4.4202-1.9985 9.6445 6.5586 4.4388 0.98649-4.8425z" clip-path="url(#pf301535c40)" fill="#d0e11c"/>
    <path d="m323.15 160.91-13.009-8.8041-1.2072 10.235 13.068 8.8409 0.57516-5.1476z" clip-path="url(#pf301535c40)" fill="#2a768e"/>
    <path d="m310.14 152.1-13.016-8.8094-1.2667 10.198 13.076 8.8463 0.60495-5.1291z" clip-path="url(#pf301535c40)" fill="#277f8e"/>
    <path d="m297.12 143.29-13.024-8.8147-0.66163 5.069-0.66464 5.0921 13.084 8.8517 0.63478-5.1106z" clip-path="url(#pf301535c40)" fill="#24878e"/>
    <path d="m284.1 134.48-13.032-8.82-1.3859 10.124 13.092 8.857 0.66464-5.0921z" clip-path="url(#pf301535c40)" fill="#21918c"/>
    <path d="m271.06 125.66-13.04-8.8254-0.72118 5.0321-0.72447 5.055 13.1 8.8624 0.69453-5.0735z" clip-path="url(#pf301535c40)" fill="#1f998a"/>
    <path d="m258.02 116.83-13.048-8.8307-0.75102 5.0135-0.75444 5.0364 13.108 8.8678 0.72447-5.055z" clip-path="url(#pf301535c40)" fill="#1fa187"/>
    <path d="m244.98 108-13.056-8.836-1.5653 10.013 13.116 8.8732 0.75444-5.0364z" clip-path="url(#pf301535c40)" fill="#24aa83"/>
    <path d="m231.92 99.165-13.064-8.8414-1.6253 9.9755 13.124 8.8786 0.78444-5.0177z" clip-path="url(#pf301535c40)" fill="#2eb37c"/>
    <path d="m218.86 90.324-13.072-8.8467-1.6853 9.9383 13.132 8.884 0.81448-4.9991z" clip-path="url(#pf301535c40)" fill="#3bbb75"/>
    <path d="m205.78 81.477-13.08-8.8521-1.7454 9.901 13.14 8.8894 0.84456-4.9804z" clip-path="url(#pf301535c40)" fill="#4cc26c"/>
    <path d="m192.71 72.625-13.087-8.8574-0.90072 4.9206-0.90482 4.943 13.148 8.8948 0.87467-4.9617z" clip-path="url(#pf301535c40)" fill="#60ca60"/>
    <path d="m179.62 63.767-13.095-8.8628-1.8658 9.8262 13.156 8.9002 0.90482-4.943z" clip-path="url(#pf301535c40)" fill="#75d054"/>
    <path d="m166.52 54.905-13.103-8.8682-1.9261 9.7888 13.164 8.9056 0.93501-4.9243z" clip-path="url(#pf301535c40)" fill="#8bd646"/>
    <path d="m153.42 46.036-13.111-8.8735-1.9865 9.7513 13.172 8.911 0.96524-4.9055z" clip-path="url(#pf301535c40)" fill="#a5db36"/>
    <path d="m140.31 37.163-6.5586-4.4388-2.0167 9.7325 6.5888 4.4575 0.9955-4.8867z" clip-path="url(#pf301535c40)" fill="#b8de29"/>
    <path d="m322 171.18-13.068-8.8409-1.2182 10.328 13.128 8.8781 0.58042-5.1946z" clip-path="url(#pf301535c40)" fill="#2e6d8e"/>
    <path d="m308.93 162.34-13.076-8.8463-1.2782 10.291 13.136 8.8835 0.61048-5.176z" clip-path="url(#pf301535c40)" fill="#2a768e"/>
    <path d="m295.85 153.49-13.084-8.8517-0.66766 5.1153-0.67071 5.1386 13.144 8.889 0.64058-5.1573z" clip-path="url(#pf301535c40)" fill="#277f8e"/>
    <path d="m282.77 144.64-13.092-8.857-1.3986 10.217 13.152 8.8944 0.67071-5.1386z" clip-path="url(#pf301535c40)" fill="#24878e"/>
    <path d="m269.68 135.78-13.1-8.8624-1.4589 10.179 13.16 8.8998 0.70088-5.1199z" clip-path="url(#pf301535c40)" fill="#21918c"/>
    <path d="m256.58 126.92-13.108-8.8678-1.5192 10.142 13.168 8.9052 0.73109-5.1012z" clip-path="url(#pf301535c40)" fill="#1f998a"/>
    <path d="m243.47 118.05-13.116-8.8732-1.5796 10.104 13.176 8.9107 0.76134-5.0824z" clip-path="url(#pf301535c40)" fill="#1fa187"/>
    <path d="m230.35 109.18-13.124-8.8786-1.6401 10.067 13.184 8.9161 0.79162-5.0637z" clip-path="url(#pf301535c40)" fill="#24aa83"/>
    <path d="m217.23 100.3-13.132-8.884-1.7007 10.029 13.192 8.9215 0.82194-5.0449z" clip-path="url(#pf301535c40)" fill="#2eb37c"/>
    <path d="m204.1 91.415-13.14-8.8894-1.7614 9.9916 13.2 8.927 0.8523-5.026z" clip-path="url(#pf301535c40)" fill="#3bbb75"/>
    <path d="m190.96 82.526-13.148-8.8948-1.8221 9.9539 13.208 8.9324 0.88269-5.0072z" clip-path="url(#pf301535c40)" fill="#4cc26c"/>
    <path d="m177.81 73.631-13.156-8.9002-1.8829 9.9162 13.216 8.9379 0.91312-4.9883z" clip-path="url(#pf301535c40)" fill="#60ca60"/>
    <path d="m164.66 64.731-13.164-8.9056-1.9437 9.8785 13.224 8.9434 0.94358-4.9694z" clip-path="url(#pf301535c40)" fill="#75d054"/>
    <path d="m151.49 55.825-13.172-8.911-1 4.9091-1.0046 4.9316 13.233 8.9488 0.97409-4.9505z" clip-path="url(#pf301535c40)" fill="#8bd646"/>
    <path d="m138.32 46.914-6.5888-4.4575-2.0352 9.8217 6.6193 4.4765 1.0046-4.9316z" clip-path="url(#pf301535c40)" fill="#9dd93b"/>
    <path d="m320.84 181.54-13.128-8.8781-1.2294 10.423 13.189 8.9156 0.58574-5.2423z" clip-path="url(#pf301535c40)" fill="#32648e"/>
    <path d="m307.71 172.66-13.136-8.8835-0.64351 5.1809-0.64646 5.2047 13.197 8.9211 0.61608-5.2235z" clip-path="url(#pf301535c40)" fill="#2e6d8e"/>
    <path d="m294.58 163.78-13.144-8.889-1.3507 10.348 13.205 8.9266 0.64646-5.2047z" clip-path="url(#pf301535c40)" fill="#2a768e"/>
    <path d="m281.43 154.89-13.152-8.8944-1.4114 10.31 13.213 8.932 0.67687-5.1858z" clip-path="url(#pf301535c40)" fill="#277f8e"/>
    <path d="m268.28 146-13.16-8.8998-1.4723 10.273 13.221 8.9375 0.70732-5.167z" clip-path="url(#pf301535c40)" fill="#24878e"/>
    <path d="m255.12 137.1-13.168-8.9052-1.5332 10.235 13.229 8.943 0.73781-5.1481z" clip-path="url(#pf301535c40)" fill="#21918c"/>
    <path d="m241.95 128.19-13.176-8.9107-1.5941 10.197 13.237 8.9484 0.76834-5.1292z" clip-path="url(#pf301535c40)" fill="#1f998a"/>
    <path d="m228.78 119.28-13.184-8.9161-1.6552 10.159 13.245 8.9539 0.7989-5.1102z" clip-path="url(#pf301535c40)" fill="#1fa187"/>
    <path d="m215.59 110.37-13.192-8.9215-1.7163 10.121 13.253 8.9594 0.8295-5.0913z" clip-path="url(#pf301535c40)" fill="#24aa83"/>
    <path d="m202.4 101.44-13.2-8.927-1.7775 10.083 13.261 8.9649 0.86014-5.0723z" clip-path="url(#pf301535c40)" fill="#2eb37c"/>
    <path d="m189.2 92.517-13.208-8.9324-1.8388 10.045 13.27 8.9704 0.89081-5.0533z" clip-path="url(#pf301535c40)" fill="#3bbb75"/>
    <path d="m175.99 83.585-13.216-8.9379-1.9002 10.007 13.278 8.9759 0.92152-5.0343z" clip-path="url(#pf301535c40)" fill="#4cc26c"/>
    <path d="m162.77 74.647-13.224-8.9434-1.9616 9.9694 13.286 8.9814 0.95228-5.0152z" clip-path="url(#pf301535c40)" fill="#60ca60"/>
    <path d="m149.55 65.704-13.233-8.9488-2.0231 9.9312 13.294 8.987 0.98306-4.9961z" clip-path="url(#pf301535c40)" fill="#75d054"/>
    <path d="m136.32 56.755-6.6193-4.4765-2.0539 9.9122 6.6501 4.4955 1.0139-4.977z" clip-path="url(#pf301535c40)" fill="#86d549"/>
    <path d="m319.67 192-13.189-8.9156-1.2407 10.519 13.25 8.9535 0.59114-5.2906z" clip-path="url(#pf301535c40)" fill="#375b8d"/>
    <path d="m306.48 183.09-13.197-8.9211-1.3019 10.481 13.258 8.959 0.62176-5.2716z" clip-path="url(#pf301535c40)" fill="#32648e"/>
    <path d="m293.29 174.17-13.205-8.9266-0.67998 5.2097-0.68312 5.2337 13.266 8.9645 0.65242-5.2527z" clip-path="url(#pf301535c40)" fill="#2e6d8e"/>
    <path d="m280.08 165.24-13.213-8.932-1.4244 10.405 13.274 8.97 0.68312-5.2337z" clip-path="url(#pf301535c40)" fill="#2a768e"/>
    <path d="m266.87 156.31-13.221-8.9375-1.4858 10.367 13.282 8.9755 0.71385-5.2147z" clip-path="url(#pf301535c40)" fill="#277f8e"/>
    <path d="m253.65 147.37-13.229-8.943-1.5473 10.329 13.29 8.981 0.74462-5.1956z" clip-path="url(#pf301535c40)" fill="#24878e"/>
    <path d="m240.42 138.43-13.237-8.9484-1.6089 10.291 13.299 8.9866 0.77543-5.1765z" clip-path="url(#pf301535c40)" fill="#21918c"/>
    <path d="m227.18 129.48-13.245-8.9539-1.6705 10.253 13.307 8.9921 0.80628-5.1574z" clip-path="url(#pf301535c40)" fill="#1f998a"/>
    <path d="m213.94 120.53-13.253-8.9594-1.7322 10.215 13.315 8.9976 0.83717-5.1383z" clip-path="url(#pf301535c40)" fill="#1fa187"/>
    <path d="m200.68 111.57-13.261-8.9649-0.89492 5.0766-0.89905 5.1 13.323 9.0032 0.86809-5.1192z" clip-path="url(#pf301535c40)" fill="#24aa83"/>
    <path d="m187.42 102.6-13.27-8.9704-1.8558 10.138 13.331 9.0087 0.89905-5.1z" clip-path="url(#pf301535c40)" fill="#2eb37c"/>
    <path d="m174.15 93.63-13.278-8.9759-1.9178 10.1 13.34 9.0143 0.93005-5.0808z" clip-path="url(#pf301535c40)" fill="#3bbb75"/>
    <path d="m160.87 84.655-13.286-8.9814-1.9798 10.062 13.348 9.0198 0.96109-5.0616z" clip-path="url(#pf301535c40)" fill="#4cc26c"/>
    <path d="m147.59 75.673-13.294-8.987-2.0418 10.023 13.356 9.0254 0.99216-5.0424z" clip-path="url(#pf301535c40)" fill="#60ca60"/>
    <path d="m134.29 66.686-6.6501-4.4955-2.0729 10.004 6.6812 4.5148 1.0233-5.0231z" clip-path="url(#pf301535c40)" fill="#70cf57"/>
    <path d="m318.49 202.56-13.25-8.9535-1.2522 10.616 13.311 8.9916 0.59662-5.3396z" clip-path="url(#pf301535c40)" fill="#3c508b"/>
    <path d="m305.24 193.61-13.258-8.959-0.65543 5.2769-0.65847 5.3013 13.32 8.9971 0.62752-5.3205z" clip-path="url(#pf301535c40)" fill="#375b8d"/>
    <path d="m291.98 184.65-13.266-8.9645-0.68627 5.2578-0.68945 5.2822 13.328 9.0027 0.65847-5.3013z" clip-path="url(#pf301535c40)" fill="#32648e"/>
    <path d="m278.72 175.68-13.274-8.97-1.4376 10.502 13.336 9.0083 0.68945-5.2822z" clip-path="url(#pf301535c40)" fill="#2e6d8e"/>
    <path d="m265.44 166.71-13.282-8.9755-1.4996 10.463 13.344 9.0138 0.72047-5.263z" clip-path="url(#pf301535c40)" fill="#2a768e"/>
    <path d="m252.16 157.74-13.29-8.981-1.5616 10.425 13.353 9.0194 0.75153-5.2438z" clip-path="url(#pf301535c40)" fill="#277f8e"/>
    <path d="m238.87 148.76-13.299-8.9866-1.6238 10.387 13.361 9.025 0.78263-5.2246z" clip-path="url(#pf301535c40)" fill="#24878e"/>
    <path d="m225.57 139.77-13.307-8.9921-1.686 10.348 13.369 9.0306 0.81376-5.2053z" clip-path="url(#pf301535c40)" fill="#21918c"/>
    <path d="m212.27 130.78-13.315-8.9976-0.87211 5.1429-0.87615 5.1667 13.377 9.0362 0.84494-5.186z" clip-path="url(#pf301535c40)" fill="#1f998a"/>
    <path d="m198.95 121.78-13.323-9.0032-0.90321 5.1236-0.9074 5.1474 13.386 9.0418 0.87615-5.1667z" clip-path="url(#pf301535c40)" fill="#1fa187"/>
    <path d="m185.63 112.78-13.331-9.0087-1.873 10.232 13.394 9.0474 0.9074-5.1474z" clip-path="url(#pf301535c40)" fill="#24aa83"/>
    <path d="m172.3 103.77-13.34-9.0143-1.9356 10.194 13.402 9.053 0.93869-5.128z" clip-path="url(#pf301535c40)" fill="#2eb37c"/>
    <path d="m158.96 94.754-13.348-9.0198-1.9981 10.155 13.41 9.0586 0.97002-5.1087z" clip-path="url(#pf301535c40)" fill="#3bbb75"/>
    <path d="m145.61 85.735-13.356-9.0254-2.0608 10.116 13.419 9.0642 1.0014-5.0893z" clip-path="url(#pf301535c40)" fill="#4cc26c"/>
    <path d="m132.25 76.709-6.6812-4.5148-2.0922 10.097 6.7125 4.5342 1.0328-5.0698z" clip-path="url(#pf301535c40)" fill="#5ac864"/>
    <path d="m317.3 213.21-13.311-8.9916-0.63043 5.3452-0.63336 5.37 13.374 9.0301 0.60217-5.3893z" clip-path="url(#pf301535c40)" fill="#404688"/>
    <path d="m303.99 204.22-13.32-8.9971-0.66152 5.3259-0.6646 5.3507 13.382 9.0357 0.63336-5.37z" clip-path="url(#pf301535c40)" fill="#3c508b"/>
    <path d="m290.67 195.23-13.328-9.0027-1.3885 10.638 13.39 9.0413 0.6646-5.3507z" clip-path="url(#pf301535c40)" fill="#375b8d"/>
    <path d="m277.34 186.22-13.336-9.0083-1.451 10.599 13.399 9.0469 0.69587-5.3314z" clip-path="url(#pf301535c40)" fill="#32648e"/>
    <path d="m264.01 177.22-13.344-9.0138-1.5136 10.561 13.407 9.0525 0.72718-5.312z" clip-path="url(#pf301535c40)" fill="#2e6d8e"/>
    <path d="m250.66 168.2-13.353-9.0194-1.5762 10.522 13.415 9.0581 0.75854-5.2927z" clip-path="url(#pf301535c40)" fill="#2a768e"/>
    <path d="m237.31 159.18-13.361-9.025-1.6389 10.483 13.423 9.0637 0.78992-5.2733z" clip-path="url(#pf301535c40)" fill="#277f8e"/>
    <path d="m223.95 150.16-13.369-9.0306-1.7017 10.445 13.432 9.0694 0.82135-5.2539z" clip-path="url(#pf301535c40)" fill="#24878e"/>
    <path d="m210.58 141.13-13.377-9.0362-1.7646 10.406 13.44 9.075 0.85282-5.2344z" clip-path="url(#pf301535c40)" fill="#21918c"/>
    <path d="m197.2 132.09-13.386-9.0418-1.8275 10.367 13.449 9.0807 0.88433-5.2149z" clip-path="url(#pf301535c40)" fill="#1f998a"/>
    <path d="m183.82 123.05-13.394-9.0474-1.8905 10.328 13.457 9.0863 0.91587-5.1954z" clip-path="url(#pf301535c40)" fill="#1fa187"/>
    <path d="m170.42 114-13.402-9.053-0.97453 5.1324-0.97908 5.1564 13.465 9.092 0.94746-5.1759z" clip-path="url(#pf301535c40)" fill="#24aa83"/>
    <path d="m157.02 104.95-13.41-9.0586-2.0168 10.25 13.474 9.0976 0.97908-5.1564z" clip-path="url(#pf301535c40)" fill="#2eb37c"/>
    <path d="m143.61 95.89-13.419-9.0642-2.08 10.211 13.482 9.1033 1.0107-5.1368z" clip-path="url(#pf301535c40)" fill="#3bbb75"/>
    <path d="m130.19 86.825-6.7125-4.5342-2.1117 10.191 6.7442 4.5538 1.0424-5.1172z" clip-path="url(#pf301535c40)" fill="#48c16e"/>
    <path d="m316.1 223.97-13.374-9.0301-0.63631 5.395-0.63929 5.4202 13.436 9.0688 0.6078-5.4397z" clip-path="url(#pf301535c40)" fill="#443b84"/>
    <path d="m302.73 214.94-13.382-9.0357-0.6677 5.3756-0.67082 5.4008 13.445 9.0745 0.63929-5.4202z" clip-path="url(#pf301535c40)" fill="#404688"/>
    <path d="m289.34 205.9-13.39-9.0413-1.4015 10.738 13.453 9.0802 0.67082-5.4008z" clip-path="url(#pf301535c40)" fill="#3c508b"/>
    <path d="m275.95 196.86-13.399-9.0469-1.4646 10.699 13.462 9.0858 0.70238-5.3813z" clip-path="url(#pf301535c40)" fill="#375b8d"/>
    <path d="m262.55 187.81-13.407-9.0525-0.76207 5.3174-0.76564 5.3422 13.47 9.0915 0.73399-5.3618z" clip-path="url(#pf301535c40)" fill="#32648e"/>
    <path d="m249.15 178.76-13.415-9.0581-0.79361 5.2979-0.79732 5.3227 13.478 9.0972 0.76564-5.3422z" clip-path="url(#pf301535c40)" fill="#2e6d8e"/>
    <path d="m235.73 169.7-13.423-9.0637-1.6542 10.581 13.487 9.1028 0.79732-5.3227z" clip-path="url(#pf301535c40)" fill="#2a768e"/>
    <path d="m222.31 160.64-13.432-9.0694-1.7176 10.542 13.495 9.1085 0.82905-5.3031z" clip-path="url(#pf301535c40)" fill="#277f8e"/>
    <path d="m208.88 151.57-13.44-9.075-1.7811 10.503 13.504 9.1142 0.86081-5.2835z" clip-path="url(#pf301535c40)" fill="#24878e"/>
    <path d="m195.44 142.5-13.449-9.0807-0.92015 5.2197-0.92446 5.2442 13.512 9.1199 0.89262-5.2638z" clip-path="url(#pf301535c40)" fill="#21918c"/>
    <path d="m181.99 133.42-13.457-9.0863-0.95188 5.2001-0.95634 5.2245 13.521 9.1256 0.92446-5.2442z" clip-path="url(#pf301535c40)" fill="#1f998a"/>
    <path d="m168.53 124.33-13.465-9.092-1.9719 10.385 13.529 9.1313 0.95634-5.2245z" clip-path="url(#pf301535c40)" fill="#1fa187"/>
    <path d="m155.07 115.24-13.474-9.0976-2.0357 10.346 13.537 9.137 0.98827-5.2048z" clip-path="url(#pf301535c40)" fill="#24aa83"/>
    <path d="m141.59 106.14-13.482-9.1033-2.0996 10.306 13.546 9.1427 1.0202-5.185z" clip-path="url(#pf301535c40)" fill="#2eb37c"/>
    <path d="m128.11 97.036-6.7442-4.5538-2.1315 10.287 6.7761 4.5735 1.0522-5.1652z" clip-path="url(#pf301535c40)" fill="#38b977"/>
    <path d="m314.89 234.82-13.436-9.0688-0.64228 5.4456-0.64529 5.4711 13.5 9.108 0.6135-5.4907z" clip-path="url(#pf301535c40)" fill="#472f7d"/>
    <path d="m301.45 225.75-13.445-9.0745-1.3511 10.878 13.508 9.1137 0.64529-5.4711z" clip-path="url(#pf301535c40)" fill="#443b84"/>
    <path d="m288.01 216.68-13.453-9.0802-1.4147 10.838 13.517 9.1194 0.67712-5.4515z" clip-path="url(#pf301535c40)" fill="#404688"/>
    <path d="m274.55 207.6-13.462-9.0858-1.4783 10.799 13.525 9.1251 0.70898-5.4319z" clip-path="url(#pf301535c40)" fill="#3c508b"/>
    <path d="m261.09 198.51-13.47-9.0915-1.5421 10.76 13.534 9.1308 0.74089-5.4122z" clip-path="url(#pf301535c40)" fill="#375b8d"/>
    <path d="m247.62 189.42-13.478-9.0972-0.80106 5.3476-0.80482 5.3727 13.542 9.1365 0.77284-5.3925z" clip-path="url(#pf301535c40)" fill="#32648e"/>
    <path d="m234.14 180.32-13.487-9.1028-1.6698 10.681 13.551 9.1423 0.80482-5.3727z" clip-path="url(#pf301535c40)" fill="#2e6d8e"/>
    <path d="m220.66 171.22-13.495-9.1085-1.7338 10.641 13.559 9.148 0.83685-5.353z" clip-path="url(#pf301535c40)" fill="#2a768e"/>
    <path d="m207.16 162.11-13.504-9.1142-1.7978 10.602 13.568 9.1537 0.86892-5.3332z" clip-path="url(#pf301535c40)" fill="#277f8e"/>
    <path d="m193.66 153-13.512-9.1199-1.862 10.562 13.576 9.1595 0.90102-5.3134z" clip-path="url(#pf301535c40)" fill="#24878e"/>
    <path d="m180.14 143.88-13.521-9.1256-1.9262 10.523 13.585 9.1652 0.93317-5.2936z" clip-path="url(#pf301535c40)" fill="#21918c"/>
    <path d="m166.62 134.75-13.529-9.1313-1.9905 10.483 13.593 9.171 0.96536-5.2737z" clip-path="url(#pf301535c40)" fill="#1f998a"/>
    <path d="m153.09 125.62-13.537-9.137-2.0549 10.443 13.602 9.1768 0.99758-5.2538z" clip-path="url(#pf301535c40)" fill="#1fa187"/>
    <path d="m139.56 116.49-13.546-9.1427-2.1193 10.403 13.61 9.1825 1.0298-5.2339z" clip-path="url(#pf301535c40)" fill="#24aa83"/>
    <path d="m126.01 107.34-6.7761-4.5735-2.1516 10.384 6.8084 4.5934 1.0622-5.214z" clip-path="url(#pf301535c40)" fill="#2ab07f"/>
    <path d="m313.66 245.78-13.5-9.108-1.2997 11.02 13.564 9.1474 0.61929-5.5426z" clip-path="url(#pf301535c40)" fill="#482475"/>
    <path d="m300.16 236.67-13.508-9.1137-0.6803 5.4772-0.68351 5.503 13.572 9.1532 0.65138-5.5228z" clip-path="url(#pf301535c40)" fill="#472f7d"/>
    <path d="m286.65 227.56-13.517-9.1194-1.428 10.941 13.581 9.1589 0.68351-5.503z" clip-path="url(#pf301535c40)" fill="#443b84"/>
    <path d="m273.14 218.44-13.525-9.1251-1.4923 10.901 13.589 9.1647 0.71568-5.4832z" clip-path="url(#pf301535c40)" fill="#404688"/>
    <path d="m259.61 209.31-13.534-9.1308-1.5566 10.861 13.598 9.1705 0.74789-5.4633z" clip-path="url(#pf301535c40)" fill="#3c508b"/>
    <path d="m246.08 200.18-13.542-9.1365-1.621 10.822 13.607 9.1763 0.78014-5.4434z" clip-path="url(#pf301535c40)" fill="#375b8d"/>
    <path d="m232.54 191.04-13.551-9.1423-1.6856 10.782 13.615 9.182 0.81243-5.4235z" clip-path="url(#pf301535c40)" fill="#32648e"/>
    <path d="m218.99 181.9-13.559-9.148-1.7501 10.742 13.624 9.1878 0.84476-5.4036z" clip-path="url(#pf301535c40)" fill="#2e6d8e"/>
    <path d="m205.43 172.75-13.568-9.1537-0.90527 5.3384-0.90955 5.3637 13.632 9.1936 0.87714-5.3837z" clip-path="url(#pf301535c40)" fill="#2a768e"/>
    <path d="m191.86 163.6-13.576-9.1595-1.8796 10.662 13.641 9.1994 0.90955-5.3637z" clip-path="url(#pf301535c40)" fill="#277f8e"/>
    <path d="m178.28 154.44-13.585-9.1652-1.9444 10.622 13.65 9.2052 0.942-5.3437z" clip-path="url(#pf301535c40)" fill="#24878e"/>
    <path d="m164.7 145.28-13.593-9.171-2.0093 10.582 13.658 9.211 0.9745-5.3236z" clip-path="url(#pf301535c40)" fill="#21918c"/>
    <path d="m151.1 136.11-13.602-9.1768-2.0743 10.542 13.667 9.2168 1.007-5.3036z" clip-path="url(#pf301535c40)" fill="#1f998a"/>
    <path d="m137.5 126.93-13.61-9.1825-2.1394 10.502 13.675 9.2227 1.0396-5.2835z" clip-path="url(#pf301535c40)" fill="#1fa187"/>
    <path d="m123.89 117.75-6.8084-4.5934-2.172 10.482 6.841 4.6135 1.0722-5.2634z" clip-path="url(#pf301535c40)" fill="#22a884"/>
    <path d="m312.43 256.84-13.564-9.1474-1.312 11.124 13.629 9.1872 0.62516-5.5951z" clip-path="url(#pf301535c40)" fill="#48186a"/>
    <path d="m298.86 247.69-13.572-9.1532-1.3767 11.084 13.637 9.193 0.65756-5.5752z" clip-path="url(#pf301535c40)" fill="#482475"/>
    <path d="m285.29 238.54-13.581-9.1589-1.4415 11.044 13.646 9.1988 0.69-5.5552z" clip-path="url(#pf301535c40)" fill="#472f7d"/>
    <path d="m271.71 229.38-13.589-9.1647-1.5064 11.004 13.654 9.2047 0.72247-5.5352z" clip-path="url(#pf301535c40)" fill="#443b84"/>
    <path d="m258.12 220.21-13.598-9.1705-1.5714 10.964 13.663 9.2105 0.75499-5.5152z" clip-path="url(#pf301535c40)" fill="#404688"/>
    <path d="m244.52 211.04-13.607-9.1763-1.6364 10.924 13.672 9.2163 0.78755-5.4951z" clip-path="url(#pf301535c40)" fill="#3c508b"/>
    <path d="m230.92 201.87-13.615-9.182-1.7016 10.884 13.68 9.2221 0.82015-5.4751z" clip-path="url(#pf301535c40)" fill="#375b8d"/>
    <path d="m217.3 192.68-13.624-9.1878-1.7668 10.844 13.689 9.228 0.85279-5.455z" clip-path="url(#pf301535c40)" fill="#32648e"/>
    <path d="m203.68 183.5-13.632-9.1936-1.8321 10.804 13.698 9.2338 0.88547-5.4348z" clip-path="url(#pf301535c40)" fill="#2e6d8e"/>
    <path d="m190.04 174.3-13.641-9.1994-1.8974 10.763 13.706 9.2397 0.9182-5.4147z" clip-path="url(#pf301535c40)" fill="#2a768e"/>
    <path d="m176.4 165.1-13.65-9.2052-1.9629 10.723 13.715 9.2455 0.95096-5.3945z" clip-path="url(#pf301535c40)" fill="#277f8e"/>
    <path d="m162.75 155.9-13.658-9.211-1.0118 5.3287-1.0166 5.3541 13.724 9.2514 0.98377-5.3743z" clip-path="url(#pf301535c40)" fill="#24878e"/>
    <path d="m149.1 146.69-13.667-9.2168-2.094 10.642 13.732 9.2573 1.0166-5.3541z" clip-path="url(#pf301535c40)" fill="#21918c"/>
    <path d="m135.43 137.47-13.675-9.2227-2.1597 10.602 13.741 9.2632 1.0495-5.3338z" clip-path="url(#pf301535c40)" fill="#1f998a"/>
    <path d="m121.75 128.25-6.841-4.6135-2.1926 10.582 6.8738 4.6338 1.0824-5.3135z" clip-path="url(#pf301535c40)" fill="#1fa088"/>
    <path d="m311.18 268-13.629-9.1872-0.66068 5.6016-0.66383 5.6283 13.694 9.2274 0.63112-5.6484z" clip-path="url(#pf301535c40)" fill="#460a5d"/>
    <path d="m297.55 258.81-13.637-9.193-0.69327 5.5816-0.69657 5.6081 13.702 9.2332 0.66383-5.6283z" clip-path="url(#pf301535c40)" fill="#48186a"/>
    <path d="m283.91 249.62-13.646-9.1988-1.4553 11.149 13.711 9.2391 0.69657-5.6081z" clip-path="url(#pf301535c40)" fill="#482475"/>
    <path d="m270.27 240.42-13.654-9.2047-1.5208 11.109 13.72 9.245 0.72936-5.588z" clip-path="url(#pf301535c40)" fill="#472f7d"/>
    <path d="m256.61 231.22-13.663-9.2105-0.79129 5.5212-0.79506 5.5476 13.729 9.2508 0.76219-5.5678z" clip-path="url(#pf301535c40)" fill="#443b84"/>
    <path d="m242.95 222.01-13.672-9.2163-1.652 11.028 13.737 9.2567 0.79506-5.5476z" clip-path="url(#pf301535c40)" fill="#404688"/>
    <path d="m229.28 212.79-13.68-9.2221-1.7178 10.988 13.746 9.2626 0.82798-5.5273z" clip-path="url(#pf301535c40)" fill="#3c508b"/>
    <path d="m215.6 203.57-13.689-9.228-0.88969 5.4607-0.89393 5.4867 13.755 9.2685 0.86093-5.507z" clip-path="url(#pf301535c40)" fill="#375b8d"/>
    <path d="m201.91 194.34-13.698-9.2338-1.8495 10.907 13.764 9.2744 0.89393-5.4867z" clip-path="url(#pf301535c40)" fill="#32648e"/>
    <path d="m188.21 185.11-13.706-9.2397-1.9155 10.866 13.772 9.2803 0.92697-5.4664z" clip-path="url(#pf301535c40)" fill="#2e6d8e"/>
    <path d="m174.51 175.87-13.715-9.2455-1.9816 10.826 13.781 9.2862 0.96005-5.446z" clip-path="url(#pf301535c40)" fill="#2a768e"/>
    <path d="m160.79 166.62-13.724-9.2514-2.0478 10.785 13.79 9.2921 0.99317-5.4257z" clip-path="url(#pf301535c40)" fill="#277f8e"/>
    <path d="m309.92 279.27-13.694-9.2274-0.66699 5.6551 13.727 9.2476z" clip-path="url(#pf301535c40)" fill="#440154"/>
    <path d="m147.07 157.37-13.732-9.2573-2.114 10.744 13.799 9.2981 1.0263-5.4053z" clip-path="url(#pf301535c40)" fill="#24878e"/>
    <path d="m296.23 270.04-13.702-9.2332-0.6999 5.6349 13.735 9.2534z" clip-path="url(#pf301535c40)" fill="#470e61"/>
    <path d="m133.33 148.11-13.741-9.2632-2.1804 10.703 13.807 9.304 1.0595-5.3848z" clip-path="url(#pf301535c40)" fill="#21918c"/>
    <path d="m282.52 260.81-13.711-9.2391-0.73284 5.6146 13.744 9.2593z" clip-path="url(#pf301535c40)" fill="#481b6d"/>
    <path d="m119.59 138.85-6.8738-4.6338-2.2136 10.683 6.907 4.6542 1.0928-5.3644z" clip-path="url(#pf301535c40)" fill="#1f968b"/>
    <path d="m268.81 251.57-13.72-9.245-0.76583 5.5944 13.753 9.2652z" clip-path="url(#pf301535c40)" fill="#482677"/>
    <path d="m255.09 242.33-13.729-9.2508-0.79886 5.5741 13.762 9.2711z" clip-path="url(#pf301535c40)" fill="#46337f"/>
    <path d="m241.36 233.08-13.737-9.2567-0.83194 5.5537 13.77 9.2771z" clip-path="url(#pf301535c40)" fill="#433e85"/>
    <path d="m227.63 223.82-13.746-9.2626-0.86505 5.5334 13.779 9.283z" clip-path="url(#pf301535c40)" fill="#3f4889"/>
    <path d="m213.88 214.56-13.755-9.2685-0.8982 5.513 13.788 9.2889z" clip-path="url(#pf301535c40)" fill="#3a538b"/>
    <path d="m200.13 205.29-13.764-9.2744-0.9314 5.4925 13.797 9.2948z" clip-path="url(#pf301535c40)" fill="#365d8d"/>
    <path d="m186.36 196.01-13.772-9.2803-0.96464 5.4721 13.806 9.3008z" clip-path="url(#pf301535c40)" fill="#31668e"/>
    <path d="m172.59 186.73-13.781-9.2862-0.99793 5.4516 13.814 9.3067z" clip-path="url(#pf301535c40)" fill="#2d708e"/>
    <path d="m158.81 177.45-13.79-9.2921-1.0312 5.4311 13.823 9.3126z" clip-path="url(#pf301535c40)" fill="#2a788e"/>
    <path d="m145.02 168.15-13.799-9.2981-1.0646 5.4106 13.832 9.3186z" clip-path="url(#pf301535c40)" fill="#26818e"/>
    <path d="m131.22 158.86-13.807-9.304-1.098 5.39 13.841 9.3245z" clip-path="url(#pf301535c40)" fill="#238a8d"/>
    <path d="m117.41 149.55-6.907-4.6542-1.1147 5.3798 6.9238 4.6645z" clip-path="url(#pf301535c40)" fill="#21918c"/>
   </g>
   <g id="Line3DCollection_4" fill="none" stroke="#ff7f50" stroke-width="1.5">
    <path d="m292.61 97.23-70.77 42.878" clip-path="url(#pf301535c40)"/>
    <path d="m292.61 97.23-17.232 19.131" clip-path="url(#pf301535c40)"/>
    <path d="m292.61 97.23-25.045 6.5081" clip-path="url(#pf301535c40)"/>
   </g>
  </g>
 </g>
 <defs>
  <clipPath id="pf301535c40">
   <rect width="432" height="288"/>
  </clipPath>
 </defs>
</svg>
