<?xml version="1.0" encoding="UTF-8"?>
<!DOCTYPE svg  PUBLIC '-//W3C//DTD SVG 1.1//EN'  'http://www.w3.org/Graphics/SVG/1.1/DTD/svg11.dtd'>
<!-- Created with matplotlib (https://matplotlib.org/) -->
<svg width="432pt" height="216pt" version="1.1" viewBox="0 0 432 216" xmlns="http://www.w3.org/2000/svg" xmlns:xlink="http://www.w3.org/1999/xlink">
 <defs>
  <style type="text/css">*{stroke-linecap:butt;stroke-linejoin:round;}</style>
 </defs>
 <g id="figure_1">
  <g id="patch_1">
   <path d="m0 216h432v-216h-432z" fill="#fff"/>
  </g>
  <g id="axes_1">
   <g id="patch_2">
    <path d="m108 198.72h216v-198.5h-216z" fill="#fff"/>
   </g>
   <g id="PathCollection_1">
    <path d="m110.16 198.72h2.16 2.16 2.16 2.16 2.16 2.16 2.16 2.16 2.16 2.16 2.16 2.16 2.16 2.16 2.16 2.16 2.16 2.16 2.16 2.16 2.16 2.16 2.16 2.16 2.16 2.16 2.16 2.16 2.16 2.16 2.16 2.16 2.16 2.16 2.16 2.16 2.16 2.16 2.16 2.16 2.16 2.16 2.16 2.16 2.16 2.16 2.16 2.16 2.16 2.16 2.16 2.16 2.16 2.16 2.16 2.16 2.16 2.16 2.16 2.16 2.16 2.16 2.16 2.16 2.16 2.16 2.16 2.16 2.16 2.16 2.16 2.16 2.16 2.16 2.16 2.16 2.16 2.16 2.16 2.16 2.16 2.16 2.16 2.16 2.16 2.16 2.16 2.16 2.16 2.16 2.16 2.16 2.16 2.16 2.16 2.16 2.16 2.16 2.16v-0.24813l-215.73-198.26h-0.27v1.985 1.985 1.985 1.985 1.985 1.985 1.985 1.985 1.985 1.985 1.985 1.985 1.985 1.985 1.985 1.985 1.985 1.985 1.985 1.985 1.985 1.985 1.985 1.985 1.985 1.985 1.985 1.985 1.985 1.985 1.985 1.985 1.985 1.985 1.985 1.985 1.985 1.985 1.985 1.985 1.985 1.985 1.985 1.985 1.985 1.985 1.985 1.985 1.985 1.985 1.985 1.985 1.985 1.985 1.985 1.985 1.985 1.985 1.985 1.985 1.985 1.985 1.985 1.985 1.985 1.985 1.985 1.985 1.985 1.985 1.985 1.985 1.985 1.985 1.985 1.985 1.985 1.985 1.985 1.985 1.985 1.985 1.985 1.985 1.985 1.985 1.985 1.985 1.985 1.985 1.985 1.985 1.985 1.985 1.985 1.985 1.985 1.985 1.985 1.985z" clip-path="url(#p40a05f9723)" fill="#00f" fill-opacity=".4"/>
   </g>
   <g id="PathCollection_2">
    <path d="m324 198.47v-0.24813l-215.46-198.01h-0.27l213.84 196.52z" clip-path="url(#p40a05f9723)" fill="#00f" fill-opacity=".4"/>
   </g>
   <g id="PathCollection_3">
    <path d="m324 198.22v-0.24813l-215.19-197.76h-0.27l213.84 196.52z" clip-path="url(#p40a05f9723)" fill="#00f" fill-opacity=".4"/>
   </g>
   <g id="PathCollection_4">
    <path d="m324 197.98v-0.24813l-214.92-197.51h-0.27l213.84 196.52z" clip-path="url(#p40a05f9723)" fill="#00f" fill-opacity=".4"/>
   </g>
   <g id="PathCollection_5">
    <path d="m324 197.73v-0.24813l-214.65-197.26h-0.27l213.84 196.52z" clip-path="url(#p40a05f9723)" fill="#f00" fill-opacity=".4"/>
   </g>
   <g id="PathCollection_6">
    <path d="m324 197.48v-0.24813l-214.38-197.02h-0.27l213.84 196.52z" clip-path="url(#p40a05f9723)" fill="#f00" fill-opacity=".4"/>
   </g>
   <g id="PathCollection_7">
    <path d="m324 197.23v-0.24813l-214.11-196.77h-0.27l213.84 196.52z" clip-path="url(#p40a05f9723)" fill="#f00" fill-opacity=".4"/>
   </g>
   <g id="PathCollection_8">
    <path d="m324 196.98v-0.24813-1.985-1.985-1.985-1.985-1.985-1.985-1.985-1.985-1.985-1.985-1.985-1.985-1.985-1.985-1.985-1.985-1.985-1.985-1.985-1.985-1.985-1.985-1.985-1.985-1.985-1.985-1.985-1.985-1.985-1.985-1.985-1.985-1.985-1.985-1.985-1.985-1.985-1.985-1.985-1.985-1.985-1.985-1.985-1.985-1.985-1.985-1.985-1.985-1.985-1.985-1.985-1.985-1.985-1.985-1.985-1.985-1.985-1.985-1.985-1.985-1.985-1.985-1.985-1.985-1.985-1.985-1.985-1.985-1.985-1.985-1.985-1.985-1.985-1.985-1.985-1.985-1.985-1.985-1.985-1.985-1.985-1.985-1.985-1.985-1.985-1.985-1.985-1.985-1.985-1.985-1.985-1.985-1.985-1.985-1.985-1.985-1.985-1.985-1.985h-2.16-2.16-2.16-2.16-2.16-2.16-2.16-2.16-2.16-2.16-2.16-2.16-2.16-2.16-2.16-2.16-2.16-2.16-2.16-2.16-2.16-2.16-2.16-2.16-2.16-2.16-2.16-2.16-2.16-2.16-2.16-2.16-2.16-2.16-2.16-2.16-2.16-2.16-2.16-2.16-2.16-2.16-2.16-2.16-2.16-2.16-2.16-2.16-2.16-2.16-2.16-2.16-2.16-2.16-2.16-2.16-2.16-2.16-2.16-2.16-2.16-2.16-2.16-2.16-2.16-2.16-2.16-2.16-2.16-2.16-2.16-2.16-2.16-2.16-2.16-2.16-2.16-2.16-2.16-2.16-2.16-2.16-2.16-2.16-2.16-2.16-2.16-2.16-2.16-2.16-2.16-2.16-2.16-2.16-2.16-2.16-2.16-2.16-2.16-0.27l213.84 196.52z" clip-path="url(#p40a05f9723)" fill="#f00" fill-opacity=".4"/>
   </g>
   <g id="PathCollection_9">
    <defs>
     <path id="m54e92da4fa" d="m-3 3 6-6m-6 0 6 6" stroke="#00f" stroke-width="1.5"/>
    </defs>
    <g clip-path="url(#p40a05f9723)">
     <use x="216" y="99.468" fill="#0000ff" stroke="#0000ff" stroke-width="1.5" xlink:href="#m54e92da4fa"/>
    </g>
   </g>
   <g id="PathCollection_10">
    <defs>
     <path id="m97a8abd48c" d="m0 3c0.79561 0 1.5587-0.3161 2.1213-0.87868 0.56258-0.56258 0.87868-1.3257 0.87868-2.1213s-0.3161-1.5587-0.87868-2.1213c-0.56258-0.56258-1.3257-0.87868-2.1213-0.87868s-1.5587 0.3161-2.1213 0.87868c-0.56258 0.56258-0.87868 1.3257-0.87868 2.1213s0.3161 1.5587 0.87868 2.1213c0.56258 0.56258 1.3257 0.87868 2.1213 0.87868z" stroke="#000"/>
    </defs>
    <g clip-path="url(#p40a05f9723)">
     <use x="216.0108" y="99.458075" fill="#ff0000" stroke="#000000" xlink:href="#m97a8abd48c"/>
    </g>
   </g>
   <g id="matplotlib.axis_1">
    <g id="text_1">
     <!-- 总共经过了 506674 次迭代 -->
     <defs>
      <path id="SimHei-24635" d="m26.562 55.469v-17.188h44.141v17.188zm33.594 25q5.4688-2.7344 9.375-3.9062-3.125-3.9062-7.8125-14.844h16.797q-0.39062-7.8125-0.39062-15.234t0.39062-14.453h-59.766q0.39062 7.8125 0.39062 15.234t-0.39062 14.453h14.844q-3.9062 6.6406-9.375 13.281 2.3438 1.5625 5.8594 4.2969 7.4219-8.2031 10.156-12.5-3.5156-2.3438-5.8594-5.0781h19.922q2.3438 5.4688 3.5156 9.375t2.3438 9.375zm-46.484-57.812q3.5156-1.5625 7.8125-2.7344-5.0781-16.406-8.2031-24.609-3.9062 1.9531-8.2031 3.5156 5.0781 8.9844 8.5938 23.828zm46.484-9.375q-4.2969-2.7344-7.0312-5.0781-5.4688 10.156-10.156 16.016 3.5156 1.9531 6.6406 4.2969 3.125-4.2969 10.547-15.234zm10.938 7.0312q2.7344 2.3438 5.8594 5.4688 11.719-12.5 16.797-18.75-3.5156-2.7344-6.6406-5.4688-3.9062 5.4688-16.016 18.75zm-44.141 1.5625h8.5938q-0.39062-5.8594-0.39062-11.922 0-6.0469 0.1875-8.7812 0.20312-2.7344 5.2812-2.7344h20.703q4.6875 0.39062 6.25 9.7656 3.9062-2.3438 8.2031-3.5156-1.9531-8.2031-5.4688-10.547t-8.5938-1.9531h-26.172q-7.0312 0-7.8125 4.2969t-0.59375 11.328q0.20312 7.0312-0.1875 14.062z"/>
      <path id="SimHei-20849" d="m37.5 16.797q3.9062-3.5156 8.5938-6.25-5.4688-3.125-14.062-9.5781-8.5938-6.4375-16.406-10.734-2.7344 4.2969-6.25 7.0312 7.8125 3.5156 14.844 8.2031t13.281 11.328zm20.312-6.6406q3.125 3.125 5.8594 6.6406 4.2969-2.7344 12.891-8.4062 8.5938-5.6562 15.234-11.125-3.5156-2.7344-6.25-6.6406-6.25 5.4688-13.875 10.734-7.6094 5.2812-13.859 8.7969zm-16.797 41.406v-23.047h20.703v23.047zm-27.734 7.0312q4.6875-0.39062 14.062-0.39062h5.8594q0 15.625-0.39062 19.922h8.9844q-0.78125-4.2969-0.78125-19.922h20.703q0 16.016-0.39062 21.094h8.9844q-0.78125-5.0781-0.78125-21.094h7.8125q6.6406 0 11.328 0.39062v-7.4219q-4.6875 0.39062-11.328 0.39062h-7.8125v-23.047h12.891q7.0312 0 11.328 0.39062v-7.4219q-3.9062 0.39062-10.938 0.39062h-64.062q-7.0312 0-11.328-0.39062v7.4219q4.2969-0.39062 11.328-0.39062h14.453v23.047h-6.6406q-8.9844 0-13.281-0.39062z"/>
      <path id="SimHei-32463" d="m22.266 77.344q3.9062-2.7344 8.9844-5.0781-2.7344-3.125-6.6406-9.1875-3.9062-6.0469-9.7656-16.203 3.5156 0 14.453 0.39062 4.6875 6.6406 7.0312 13.281 3.5156-4.2969 8.2031-6.25-3.5156-3.5156-8.9844-10.547t-14.844-18.75q2.7344 0 8.5938 0.39062t14.062 0.78125q-1.5625-3.5156-2.3438-7.0312-3.5156 0.39062-12.5-0.20312-8.9844-0.57812-17.188-2.5312-1.1719 3.5156-2.7344 7.4219 4.6875 3.125 8.5938 7.2188 3.9062 4.1094 7.4219 9.9688-2.3438 0-7.4219-0.59375-5.0781-0.57812-8.5938-1.75-1.1719 4.2969-3.125 8.2031 4.2969 3.5156 9.1719 12.109 4.8906 8.5938 7.625 18.359zm-16.797-75q11.719 1.1719 15.812 1.9531 4.1094 0.78125 17.391 3.125-0.39062-2.7344-0.39062-7.0312-3.9062-0.78125-13.094-2.7344-9.1719-1.9531-16.594-4.2969-1.5625 5.4688-3.125 8.9844zm39.062 70.312q6.6406-0.39062 13.672-0.39062h26.953q-1.9531-4.6875-4.5-8.7969-2.5312-4.0938-7.2188-10.734 5.4688-3.125 11.125-6.8438 5.6719-3.7031 11.141-7.2188-4.6875-1.9531-7.4219-6.6406-4.6875 4.6875-8.7969 8.2031-4.0938 3.5156-9.9531 7.8125-4.6875-4.6875-10.156-8.5938t-13.672-8.9844q-2.7344 4.2969-6.25 7.0312 6.6406 2.3438 11.906 5.6562 5.2812 3.3281 8.9844 6.8438 3.7188 3.5156 6.6406 7.6094 2.9375 4.1094 5.2812 8.0156h-14.062q-7.0312 0-13.672-0.39062zm1.1719-44.922q6.6406-0.39062 12.891-0.39062h18.359q6.6406 0 12.109 0.39062v-7.4219q-5.0781 0.39062-11.719 0.39062h-5.8594v-21.484h11.328q5.4688 0 11.328 0.39062v-7.4219q-5.8594 0.39062-11.328 0.39062h-30.078q-5.4688 0-11.719-0.39062v7.4219q6.25-0.39062 11.719-0.39062h11.328v21.484h-5.4688q-6.25 0-12.891-0.39062z"/>
      <path id="SimHei-36807" d="m63.672 3.9062q-1.1719 4.6875-3.5156 8.9844 8.5938 0 10.938 0.39062t2.3438 6.25v35.547h-24.219q-7.0312 0-12.891-0.39062v7.0312q5.8594-0.39062 12.891-0.39062h24.219q0 9.7656-0.78125 16.016h8.5938q-0.39062-4.6875-0.39062-16.016 5.4688 0 12.109 0.39062v-7.0312q-6.25 0.39062-12.109 0.39062v-38.281q0-8.5938-4.8906-10.156-4.875-1.5625-12.297-2.7344zm-3.9062 25.391q-3.5156-1.5625-7.4219-3.9062-2.3438 4.6875-8.5938 17.969 3.125 1.5625 7.4219 3.125 6.6406-12.5 8.5938-17.188zm-47.266 40.625q3.125 2.3438 7.0312 4.2969 2.3438-3.5156 11.328-15.625-3.9062-2.3438-7.0312-4.6875-8.2031 12.5-11.328 16.016zm1.1719-78.516q-2.3438 2.7344-7.4219 5.0781 11.719 9.7656 15.625 12.5v27.344q-8.9844 0-13.281-0.39062v7.0312q3.5156-0.39062 14.062-0.39062h7.0312q-0.39062-5.8594-0.39062-11.328v-23.828q10.938-8.9844 32.031-8.7812 21.094 0.1875 33.594 2.1406-2.3438-3.9062-3.5156-8.9844-12.891 0-22.469 0-9.5625 0-17.188 0.59375-7.6094 0.57812-13.078 2.9219t-9.5781 5.2656q-4.0938 2.9375-7.8125-0.57812-3.7031-3.5156-7.6094-8.5938z"/>
      <path id="SimHei-20102" d="m12.5 73.828q7.8125-0.39062 15.625-0.39062h59.375v-8.2031q-3.9062-1.5625-16.406-9.1875-12.5-7.6094-17.188-11.125v-42.969q-0.39062-6.25-5.8594-8-5.4688-1.7656-11.719-2.5469-1.9531 7.8125-3.9062 10.156 9.375 0 11.516 0.57812 2.1562 0.59375 2.1562 4.8906v30.469q0 8.5938-0.78125 11.719 5.8594 2.7344 29.297 17.578h-46.094q-8.2031-0.39062-16.016-0.78125z"/>
      <path id="SimHei-53" d="m44.141 25.781q0-11.719-5.6719-18.359-5.6562-6.6406-15.031-6.6406-8.2031 0-13.484 5.4688-5.2656 5.4688-5.6562 14.844h8.9844q0-5.8594 2.7344-9.375t7.8125-3.5156 8 4.2969q2.9375 4.2969 2.9375 13.281 0 7.8125-2.5469 11.516-2.5312 3.7188-6.8281 3.7188-3.5156 0-6.0625-1.5625-2.5312-1.5625-4.875-5.4688h-7.8125l2.3438 34.375h33.594v-7.4219h-26.172l-1.5625-17.969q2.3438 2.3438 5.0781 3.5156t7.4219 1.1719q7.4219 0 12.109-5.6719 4.6875-5.6562 4.6875-16.203z"/>
      <path id="SimHei-48" d="m46.484 35.156q0-14.062-5.0781-24.219t-16.406-10.156-16.609 10.156q-5.2656 10.156-5.2656 24.219t5.2656 24.016q5.2812 9.9688 16.609 9.9688t16.406-9.9688q5.0781-9.9531 5.0781-24.016zm-9.375 0q0 12.5-2.9375 19.531-2.9219 7.0312-9.1719 7.0312t-9.375-7.0312-3.125-19.531 3.125-19.734q3.125-7.2188 9.375-7.2188t9.1719 7.2188q2.9375 7.2344 2.9375 19.734z"/>
      <path id="SimHei-54" d="m44.531 24.219q0-10.938-4.6875-17.188t-14.062-6.25-14.844 7.8125-5.4688 25.391q0 16.016 5.6562 25.578 5.6719 9.5781 16.219 9.5781 7.4219 0 11.906-5.4688 4.5-5.4688 4.5-12.109h-8.9844q0 3.9062-2.1562 7.0312-2.1406 3.125-5.6562 3.125-5.8594 0-8.9844-6.0625-3.125-6.0469-3.5156-18.547 2.7344 5.0781 5.8594 7.0312t7.4219 1.9531q7.4219 0 12.109-5.8594t4.6875-16.016zm-9.375 0q0 7.0312-2.3438 10.938t-6.6406 3.9062q-5.0781 0-8.0156-3.9062-2.9219-3.9062-2.9219-9.375 0-8.5938 2.9219-13.281 2.9375-4.6875 8.0156-4.6875 3.5156 0 6.25 3.5156t2.7344 12.891z"/>
      <path id="SimHei-55" d="m43.359 60.156-18.359-58.594h-8.9844l18.75 59.375h-28.516v7.4219h37.109z"/>
      <path id="SimHei-52" d="m46.484 18.75h-8.2031v-17.188h-8.9844v17.188h-26.172v7.4219l26.172 42.969h8.9844v-42.969h8.2031zm-17.188 7.4219v28.906l-17.578-28.906z"/>
      <path id="SimHei-27425" d="m8.2031 67.188q3.125 1.9531 7.4219 3.9062 2.3438-3.9062 5.4688-9.375t6.25-10.938q-4.2969-1.9531-7.8125-4.2969-2.3438 4.6875-4.8906 10.156-2.5312 5.4688-6.4375 10.547zm14.844-32.422q2.7344-2.3438 7.4219-4.6875-2.3438-3.5156-6.8438-12.109-4.4844-8.5938-9.5625-18.75-3.5156 2.7344-7.8125 5.4688 5.8594 6.25 9.9531 14.641 4.1094 8.4062 6.8438 15.438zm23.828 44.531q4.2969-1.5625 10.156-3.9062-2.3438-1.5625-4.1094-5.8594-1.75-4.2969-3.7031-8.5938h41.406q-1.1719-3.125-3.125-8.7969-1.9531-5.6562-4.2969-13.859-4.2969 1.1719-8.5938 1.9531 1.5625 3.5156 2.7344 7.0312t2.3438 7.4219h-33.203q-1.9531-3.125-4.1094-7.8125-2.1406-4.6875-4.875-9.375-2.7344 2.3438-7.0312 3.9062 2.7344 3.5156 5.2656 8.2031 2.5469 4.6875 4.6875 9.7656 2.1562 5.0781 3.7188 10.156t2.7344 9.7656zm7.8125-31.641q4.6875-0.39062 9.375-1.1719-1.1719-3.9062-1.375-11.328-0.1875-7.4219 3.125-13.672 3.3281-6.25 8.0156-10.547t10.156-6.8438q5.4688-2.5312 9.7656-3.7031-2.3438-1.5625-3.5156-3.7031-1.1719-2.1562-2.3438-5.2812-8.5938 4.6875-13.672 8.7812-5.0781 4.1094-8.0156 8.0156-2.9219 3.9062-4.4844 7.6094-1.5625 3.7188-2.7344 7.2344-1.9531-5.8594-4.1094-10.359-2.1406-4.4844-5.4688-8-3.3125-3.5156-7.6094-6.8281-4.2969-3.3281-10.156-7.2344-2.7344 4.2969-6.6406 7.0312 9.7656 3.5156 15.625 8.7812 5.8594 5.2812 8.9844 10.75t4.0938 10.734q0.98438 5.2812 1.1719 8.9844 0.20312 3.7188-0.1875 10.75z"/>
      <path id="SimHei-36845" d="m81.641 4.2969q-7.4219 10.547-20.312 23.828-4.6875-8.2031-9.5781-13.094-4.875-4.875-11.906-10.734-1.9531 1.9531-7.8125 6.25 8.5938 4.2969 15.031 11.125 6.4531 6.8438 9.1875 15.828-19.531 0-25.781-0.39062v7.0312q6.6406-0.39062 26.953-0.39062 0.78125 5.8594 1.1719 14.062h-16.016q-1.9531-4.6875-3.5156-8.9844-4.2969 1.5625-8.5938 2.3438 2.7344 4.6875 5.0781 11.328t4.2969 16.406q3.9062-1.5625 9.7656-2.7344-2.7344-3.9062-4.6875-12.109h13.672q0 10.156-0.78125 16.016 4.6875-0.78125 8.9844-0.39062-0.78125-4.6875-1.1719-15.625h11.328q3.5156 0 9.7656 0.39062v-7.4219q-6.25 0.78125-10.938 0.78125h-9.7656q-0.39062-8.2031-1.1719-14.062h15.234q5.0781 0 12.109 0.39062v-7.0312q-7.0312 0.39062-13.281 0.39062h-14.453l-0.39062-2.3438q8.2031-8.2031 25-24.219-1.9531-1.1719-7.4219-6.6406zm-70.312 69.922q3.9062 1.5625 8.5938 2.3438 3.9062-11.719 6.25-17.578-4.2969-0.39062-8.9844-1.9531-1.1719 3.5156-5.8594 17.188zm-5.0781-28.906q6.6406-0.39062 11.328-0.39062h7.4219q-0.39062-7.0312-0.39062-14.062v-22.266q9.7656-8.5938 33.203-8.5938t36.719 1.9531q-2.3438-5.4688-3.125-9.375-26.172 0-35.75 0.20312-9.5625 0.1875-16.797 1.5625-7.2188 1.3594-12.109 4.875-4.875 3.5156-8 0.39062t-7.0312-8.5938q-3.5156 3.9062-7.4219 6.25 8.5938 7.4219 13.281 10.156v31.25q-5.0781 0-11.328-0.39062z"/>
      <path id="SimHei-20195" d="m31.641 42.188q6.25 0.78125 19.922 3.5156-1.9531 25-2.3438 33.203 2.3438-0.39062 10.156-1.1719-1.5625-5.0781 0-30.469 18.75 3.5156 28.906 6.6406l1.9531-7.4219q-4.2969-0.39062-30.078-5.8594 4.6875-24.609 13.469-33.406 8.7969-8.7812 10.156-3.9062 1.375 4.8906 2.1562 8.4062 5.8594-4.2969 8.9844-5.0781-2.7344-8.5938-5.2812-12.891-2.5312-4.2969-8.9844-2.7344-6.4375 1.5625-15.625 13.672-9.1719 12.109-12.688 34.375-14.844-3.125-18.359-4.6875zm35.156 28.516q3.125 1.9531 7.0312 4.6875 1.5625-1.9531 4.4844-6.0625 2.9375-4.0938 4.8906-6.8281-3.9062-2.3438-7.4219-4.6875-3.9062 5.4688-8.9844 12.891zm-41.016 9.7656q6.25-2.7344 10.156-3.9062-3.125-3.5156-9.375-20.312v-48.828q0-8.2031 0.39062-16.797h-8.2031q0.39062 8.5938 0.39062 16.797v35.156q-5.8594-9.375-9.375-14.453-3.125 3.125-6.6406 6.25 5.0781 4.2969 12.297 17.766 7.2344 13.484 10.359 28.328z"/>
     </defs>
     <g transform="translate(132 213.66) scale(.14 -.14)">
      <use xlink:href="#SimHei-24635"/>
      <use x="100" xlink:href="#SimHei-20849"/>
      <use x="200" xlink:href="#SimHei-32463"/>
      <use x="300" xlink:href="#SimHei-36807"/>
      <use x="400" xlink:href="#SimHei-20102"/>
      <use x="500" xlink:href="#SimHei-32"/>
      <use x="550" xlink:href="#SimHei-53"/>
      <use x="600" xlink:href="#SimHei-48"/>
      <use x="650" xlink:href="#SimHei-54"/>
      <use x="700" xlink:href="#SimHei-54"/>
      <use x="750" xlink:href="#SimHei-55"/>
      <use x="800" xlink:href="#SimHei-52"/>
      <use x="850" xlink:href="#SimHei-32"/>
      <use x="900" xlink:href="#SimHei-27425"/>
      <use x="1000" xlink:href="#SimHei-36845"/>
      <use x="1100" xlink:href="#SimHei-20195"/>
     </g>
    </g>
   </g>
   <g id="line2d_1">
    <path d="m108 0.20111 216 198.5" clip-path="url(#p40a05f9723)" fill="none" stroke="#000" stroke-linecap="square" stroke-width="1.5"/>
   </g>
   <g id="patch_3">
    <path d="m108 198.72v-198.5" fill="none" stroke="#000" stroke-linecap="square" stroke-width=".8"/>
   </g>
   <g id="patch_4">
    <path d="m324 198.72v-198.5" fill="none" stroke="#000" stroke-linecap="square" stroke-width=".8"/>
   </g>
   <g id="patch_5">
    <path d="m108 198.72h216" fill="none" stroke="#000" stroke-linecap="square" stroke-width=".8"/>
   </g>
   <g id="patch_6">
    <path d="m108 0.216h216" fill="none" stroke="#000" stroke-linecap="square" stroke-width=".8"/>
   </g>
  </g>
 </g>
 <defs>
  <clipPath id="p40a05f9723">
   <rect x="108" y=".216" width="216" height="198.5"/>
  </clipPath>
 </defs>
</svg>
