<svg version="1.1" xmlns="http://www.w3.org/2000/svg" xmlns:xlink="http://www.w3.org/1999/xlink" width="374" height="238"><defs><clipPath id="AzTlZGamZSNs"><path fill="none" stroke="none" d=" M 0 0 L 374 0 L 374 238 L 0 238 L 0 0 Z"/></clipPath></defs><g transform="scale(1,1)" clip-path="url(#AzTlZGamZSNs)"><g><path fill="none" stroke="rgb(0,0,0)" paint-order="fill stroke markers" d=" M 102.5 2.5 L 102.5 238.5" stroke-opacity="1" stroke-miterlimit="10"/><path fill="none" stroke="rgb(0,0,0)" paint-order="fill stroke markers" d=" M 102.5 1.5 L 96.5 7.5" stroke-opacity="1" stroke-miterlimit="10"/><path fill="none" stroke="rgb(0,0,0)" paint-order="fill stroke markers" d=" M 102.5 1.5 L 108.5 7.5" stroke-opacity="1" stroke-miterlimit="10"/><path fill="none" stroke="rgb(0,0,0)" paint-order="fill stroke markers" d=" M 0.5 187.5 L 372.5 187.5" stroke-opacity="1" stroke-miterlimit="10"/><path fill="none" stroke="rgb(0,0,0)" paint-order="fill stroke markers" d=" M 373.5 187.5 L 367.5 181.5" stroke-opacity="1" stroke-miterlimit="10"/><path fill="none" stroke="rgb(0,0,0)" paint-order="fill stroke markers" d=" M 373.5 187.5 L 367.5 193.5" stroke-opacity="1" stroke-miterlimit="10"/><path fill="rgb(0,100,0)" stroke="none" paint-order="stroke fill markers" d=" M 130.8235073457889 179.68102023759752 C 128.85716973059192 172.86807582437987 124.54109882442651 166.97188646164435 118.641005886757 163.03849116986467 L 102.00000000000013 187.99999999999997 Z" fill-opacity="0.09803921568627451"/><path fill="none" stroke="rgb(0,100,0)" paint-order="fill stroke markers" d=" M 130.8235073457889 179.68102023759752 C 128.85716973059192 172.86807582437987 124.54109882442651 166.97188646164435 118.641005886757 163.03849116986467 L 102.00000000000013 187.99999999999997 Z" stroke-opacity="0.6980392156862745" stroke-linecap="round" stroke-linejoin="round" stroke-miterlimit="10"/><g transform="scale(27,27)"><g transform="translate(4.888888888888889,6.250000555555555)"><path fill="rgb(0,100,0)" stroke="none" paint-order="stroke fill markers" d=" M 0.455 -0.5 L 0.455 -0.5 Q 0.455 -0.34700000000000003 0.377 -0.19 Q 0.307 -0.05 0.222 -0.005 Q 0.191 0.011 0.162 0.011 Q 0.08 0.011 0.052000000000000005 -0.101 Q 0.042 -0.14300000000000002 0.042 -0.194 Q 0.042 -0.35100000000000003 0.122 -0.509 Q 0.192 -0.646 0.277 -0.6900000000000001 Q 0.307 -0.705 0.335 -0.705 Q 0.422 -0.705 0.447 -0.578 Q 0.455 -0.54 0.455 -0.5 M 0.148 -0.363 L 0.148 -0.363 L 0.357 -0.363 Q 0.389 -0.495 0.389 -0.562 Q 0.389 -0.675 0.342 -0.682 Q 0.338 -0.683 0.334 -0.683 Q 0.28300000000000003 -0.683 0.225 -0.578 Q 0.187 -0.511 0.149 -0.368 Q 0.149 -0.365 0.148 -0.363 M 0.34800000000000003 -0.331 L 0.14 -0.331 Q 0.108 -0.21 0.108 -0.133 Q 0.108 -0.013000000000000001 0.162 -0.011 Q 0.218 -0.011 0.278 -0.128 Q 0.317 -0.202 0.34800000000000003 -0.331 Z"/></g></g><path fill="none" stroke="rgb(0,153,204)" paint-order="fill stroke markers" d=" M 102.00000000000013 187.99999999999997 L 193.67949705662167 50.48075441506768" stroke-opacity="1" stroke-linecap="round" stroke-linejoin="round" stroke-miterlimit="10" stroke-width="1.5"/><path fill="rgb(0,153,204)" stroke="none" paint-order="stroke fill markers" fill-rule="evenodd" d=" M 202.0000000000001 38.00000000000003 L 196.79968566038858 52.56088015091229 L 190.55930845285476 48.40062867922307 Z" fill-opacity="1"/><g transform="scale(27,27) translate(5.050337522877751,4.366106096177841) rotate(-55,0,0) translate(-5.050337522877751,-4.366106096177841)"><g transform="translate(5.050337522877751,4.366106096177841)"><path fill="rgb(0,153,204)" stroke="none" paint-order="stroke fill markers" d=" M 0.214 -0.401 Q 0.273 -0.45 0.361 -0.45 Q 0.46900000000000003 -0.45 0.5345 -0.387 Q 0.6 -0.324 0.6 -0.223 Q 0.6 -0.11900000000000001 0.53 -0.0565 Q 0.46 0.006 0.34800000000000003 0.006 Q 0.264 0.006 0.202 -0.056 L 0.153 0 L 0.106 0 L 0.106 -0.6 Q 0.106 -0.628 0.0955 -0.6335000000000001 Q 0.085 -0.639 0.037 -0.639 L 0.037 -0.686 L 0.214 -0.6940000000000001 L 0.214 -0.401 M 0.22 -0.099 Q 0.266 -0.03 0.339 -0.03 Q 0.40900000000000003 -0.03 0.446 -0.082 Q 0.47200000000000003 -0.121 0.47200000000000003 -0.223 Q 0.47200000000000003 -0.248 0.47150000000000003 -0.2625 Q 0.47100000000000003 -0.277 0.468 -0.303 Q 0.465 -0.329 0.457 -0.34550000000000003 Q 0.449 -0.362 0.436 -0.3795 Q 0.423 -0.397 0.401 -0.4055 Q 0.379 -0.41400000000000003 0.35000000000000003 -0.41400000000000003 Q 0.311 -0.41400000000000003 0.2765 -0.396 Q 0.242 -0.378 0.22 -0.35000000000000003 L 0.22 -0.099 Z"/></g><g transform="translate(5.050337522877751,4.366106096177841) rotate(55,0,0) translate(-5.050337522877751,-4.366106096177841)"/></g><path fill="none" stroke="rgb(0,153,255)" paint-order="fill stroke markers" d=" M 102.00000000000013 187.99999999999997 L 333.58824632710565 121.15948988120122" stroke-opacity="0.6980392156862745" stroke-linecap="round" stroke-linejoin="round" stroke-miterlimit="10" stroke-width="1.5"/><path fill="rgb(0,153,255)" stroke="none" paint-order="stroke fill markers" fill-rule="evenodd" d=" M 348.00000000000006 117 L 334.62811879740593 124.76242829942483 L 332.54837385680537 117.55655146297762 Z" fill-opacity="0.6980392156862745"/><g transform="scale(27,27)"><g transform="translate(8.296296296296296,6.370370925925926)"><path fill="rgb(0,153,255)" stroke="none" paint-order="stroke fill markers" d=" M 0.515 -0.317 L 0.492 -0.228 Q 0.487 -0.20600000000000002 0.47000000000000003 -0.138 Q 0.456 -0.082 0.456 -0.065 Q 0.456 -0.028 0.47900000000000004 -0.028 Q 0.522 -0.028 0.547 -0.128 Q 0.554 -0.156 0.555 -0.157 Q 0.56 -0.162 0.5750000000000001 -0.162 Q 0.599 -0.162 0.599 -0.148 Q 0.599 -0.14 0.588 -0.1075 Q 0.577 -0.075 0.561 -0.049 Q 0.528 0.008 0.47400000000000003 0.008 Q 0.397 0.008 0.359 -0.046 Q 0.301 0.008 0.22 0.008 Q 0.148 0.008 0.0965 -0.032 Q 0.045 -0.07200000000000001 0.045 -0.157 Q 0.045 -0.268 0.1245 -0.36 Q 0.20400000000000001 -0.452 0.327 -0.452 Q 0.394 -0.452 0.433 -0.41000000000000003 Q 0.453 -0.435 0.484 -0.435 Q 0.502 -0.435 0.5165 -0.424 Q 0.531 -0.41300000000000003 0.531 -0.391 Q 0.531 -0.384 0.515 -0.317 M 0.34900000000000003 -0.093 L 0.41000000000000003 -0.34400000000000003 L 0.41200000000000003 -0.358 Q 0.41200000000000003 -0.372 0.3895 -0.394 Q 0.367 -0.41600000000000004 0.329 -0.41600000000000004 Q 0.25 -0.41600000000000004 0.20800000000000002 -0.318 Q 0.194 -0.28400000000000003 0.176 -0.212 Q 0.158 -0.14 0.158 -0.10400000000000001 Q 0.158 -0.028 0.225 -0.028 Q 0.259 -0.028 0.292 -0.0465 Q 0.325 -0.065 0.34900000000000003 -0.093 Z"/></g></g><path fill="rgb(0,0,0)" stroke="none" paint-order="stroke fill markers" d=" M 105.00000000000013 187.99999999999997 C 105.00000000000013 189.65685424949234 103.65685424949251 190.99999999999997 102.00000000000013 190.99999999999997 C 100.34314575050774 190.99999999999997 99.00000000000013 189.65685424949234 99.00000000000013 187.99999999999997 C 99.00000000000013 186.3431457505076 100.34314575050774 184.99999999999997 102.00000000000013 184.99999999999997 C 103.65685424949251 184.99999999999997 105.00000000000013 186.3431457505076 105.00000000000013 187.99999999999997 Z" fill-opacity="1"/><path fill="none" stroke="rgb(0,0,0)" paint-order="fill stroke markers" d=" M 105.00000000000013 187.99999999999997 C 105.00000000000013 189.65685424949234 103.65685424949251 190.99999999999997 102.00000000000013 190.99999999999997 C 100.34314575050774 190.99999999999997 99.00000000000013 189.65685424949234 99.00000000000013 187.99999999999997 C 99.00000000000013 186.3431457505076 100.34314575050774 184.99999999999997 102.00000000000013 184.99999999999997 C 103.65685424949251 184.99999999999997 105.00000000000013 186.3431457505076 105.00000000000013 187.99999999999997 Z" stroke-opacity="1" stroke-linecap="round" stroke-linejoin="round" stroke-miterlimit="10"/><path fill="rgb(0,0,0)" stroke="none" paint-order="stroke fill markers" d=" M 205.0000000000001 38.00000000000003 C 205.0000000000001 39.65685424949241 203.65685424949248 41.00000000000003 202.0000000000001 41.00000000000003 C 200.34314575050774 41.00000000000003 199.0000000000001 39.65685424949241 199.0000000000001 38.00000000000003 C 199.0000000000001 36.343145750507645 200.34314575050774 35.00000000000003 202.0000000000001 35.00000000000003 C 203.65685424949248 35.00000000000003 205.0000000000001 36.343145750507645 205.0000000000001 38.00000000000003 Z" fill-opacity="1"/><path fill="none" stroke="rgb(0,0,0)" paint-order="fill stroke markers" d=" M 205.0000000000001 38.00000000000003 C 205.0000000000001 39.65685424949241 203.65685424949248 41.00000000000003 202.0000000000001 41.00000000000003 C 200.34314575050774 41.00000000000003 199.0000000000001 39.65685424949241 199.0000000000001 38.00000000000003 C 199.0000000000001 36.343145750507645 200.34314575050774 35.00000000000003 202.0000000000001 35.00000000000003 C 203.65685424949248 35.00000000000003 205.0000000000001 36.343145750507645 205.0000000000001 38.00000000000003 Z" stroke-opacity="1" stroke-linecap="round" stroke-linejoin="round" stroke-miterlimit="10"/><path fill="rgb(0,0,0)" stroke="none" paint-order="stroke fill markers" d=" M 351.00000000000006 117 C 351.00000000000006 118.65685424949238 349.6568542494924 120 348.00000000000006 120 C 346.3431457505077 120 345.00000000000006 118.65685424949238 345.00000000000006 117 C 345.00000000000006 115.34314575050762 346.3431457505077 114 348.00000000000006 114 C 349.6568542494924 114 351.00000000000006 115.34314575050762 351.00000000000006 117 Z" fill-opacity="1"/><path fill="none" stroke="rgb(0,0,0)" paint-order="fill stroke markers" d=" M 351.00000000000006 117 C 351.00000000000006 118.65685424949238 349.6568542494924 120 348.00000000000006 120 C 346.3431457505077 120 345.00000000000006 118.65685424949238 345.00000000000006 117 C 345.00000000000006 115.34314575050762 346.3431457505077 114 348.00000000000006 114 C 349.6568542494924 114 351.00000000000006 115.34314575050762 351.00000000000006 117 Z" stroke-opacity="1" stroke-linecap="round" stroke-linejoin="round" stroke-miterlimit="10"/></g></g></svg>