<?xml version="1.0" encoding="UTF-8"?>
<!DOCTYPE svg  PUBLIC '-//W3C//DTD SVG 1.1//EN'  'http://www.w3.org/Graphics/SVG/1.1/DTD/svg11.dtd'>
<!-- Created with matplotlib (https://matplotlib.org/) -->
<svg width="432pt" height="216pt" version="1.1" viewBox="0 0 432 216" xmlns="http://www.w3.org/2000/svg" xmlns:xlink="http://www.w3.org/1999/xlink">
 <defs>
  <style type="text/css">*{stroke-linecap:butt;stroke-linejoin:round;}</style>
 </defs>
 <g id="figure_1">
  <g id="patch_1">
   <path d="m0 216h432v-216h-432z" fill="#fff"/>
  </g>
  <g id="axes_1">
   <g id="patch_2">
    <path d="m0.432 194.4h207.28v-194.18h-207.28z" fill="#fff"/>
   </g>
   <g id="PathCollection_1">
    <defs>
     <path id="m215861c2e9" d="m-3 3 6-6m-6 0 6 6" stroke="#00f" stroke-opacity=".8" stroke-width="1.5"/>
    </defs>
    <g clip-path="url(#p205ea2c0a3)" fill="#0000ff" fill-opacity=".8" stroke="#0000ff" stroke-opacity=".8" stroke-width="1.5">
     <use x="160.600531" y="156.151636" xlink:href="#m215861c2e9"/>
     <use x="85.227105" y="156.151636" xlink:href="#m215861c2e9"/>
     <use x="198.287245" y="185.573455" xlink:href="#m215861c2e9"/>
    </g>
   </g>
   <g id="PathCollection_2">
    <defs>
     <path id="ma4c06c8037" d="m0 3c0.79561 0 1.5587-0.3161 2.1213-0.87868 0.56258-0.56258 0.87868-1.3257 0.87868-2.1213s-0.3161-1.5587-0.87868-2.1213c-0.56258-0.56258-1.3257-0.87868-2.1213-0.87868s-1.5587 0.3161-2.1213 0.87868c-0.56258 0.56258-0.87868 1.3257-0.87868 2.1213s0.3161 1.5587 0.87868 2.1213c0.56258 0.56258 1.3257 0.87868 2.1213 0.87868z" stroke="#000" stroke-opacity=".8"/>
    </defs>
    <g clip-path="url(#p205ea2c0a3)" fill="#ff0000" fill-opacity=".8" stroke="#000000" stroke-opacity=".8">
     <use x="47.540392" y="9.042545" xlink:href="#ma4c06c8037"/>
     <use x="9.853678" y="97.308" xlink:href="#ma4c06c8037"/>
     <use x="122.913818" y="67.886182" xlink:href="#ma4c06c8037"/>
    </g>
   </g>
   <g id="matplotlib.axis_1">
    <g id="text_1">
     <!-- 加数据前，线性可分 -->
     <defs>
      <path id="SimHei-21152" d="m66.016 55.469v-42.969h16.797v42.969zm-7.4219 6.6406h31.641q-0.39062-7.4219-0.39062-15.234v-31.641q0-8.5938 0.39062-18.359h-7.4219v8.5938h-16.797v-10.156h-7.4219q0.39062 7.4219 0.39062 14.844v36.719q0 7.4219-0.39062 15.234zm-7.8125-2.7344q-0.78125-3.5156-0.78125-7.8125l-2.7344-47.656q-0.39062-7.0312-5.8594-8.5938t-9.7656-2.3438q-0.78125 4.6875-3.125 8.9844 6.25-0.39062 8.9844 0.1875 2.7344 0.59375 3.125 4.8906l2.7344 45.703h-12.891q-1.1719-15.234-3.125-24.812-1.9531-9.5625-4.5-15.422-2.5312-5.8594-5.2656-10.359-2.7344-4.4844-5.8594-9.1719-2.3438 3.125-7.0312 5.8594 6.25 6.25 9.9531 13.859 3.7188 7.625 5.4688 15.234 1.7656 7.625 2.1562 12.5 0.39062 4.8906 0.78125 12.312h-5.8594q-4.2969 0-8.9844-0.39062v7.8125q4.2969-0.78125 9.7656-0.78125h5.4688q0.39062 8.2031 0.39062 9.9531 0 1.7656-0.39062 9.1875 3.5156-0.78125 9.375-0.78125-1.1719-2.7344-1.5625-6.6406t-0.78125-11.719z"/>
      <path id="SimHei-25968" d="m10.938 75.781q3.9062 1.1719 6.25 2.7344 3.125-5.0781 5.8594-10.156-3.5156-1.5625-6.25-3.125-2.3438 5.8594-5.8594 10.547zm33.984 2.7344q4.2969-1.9531 8.2031-3.5156-2.3438-1.5625-3.9062-4.2969t-3.5156-6.25q-3.125 1.5625-6.25 2.3438 3.125 5.0781 5.4688 11.719zm-6.6406-28.906q3.5156 1.5625 5.8594 3.9062 4.6875-6.6406 7.8125-12.109-3.5156-1.5625-6.6406-3.9062-3.125 7.4219-7.0312 12.109zm-30.078 12.109q6.25-0.39062 19.922-0.39062 0 11.328-0.39062 19.531h7.8125q-0.39062-8.2031-0.39062-19.531 12.891 0 18.75 0.39062v-7.0312q-5.8594 0.39062-18.75 0.39062 0-8.9844 0.39062-15.625h-7.8125q0.39062 5.8594 0.39062 12.5-1.9531-3.9062-6.4531-8.4062-4.4844-4.4844-9.9531-7.6094-1.5625 3.5156-5.0781 5.8594 3.5156 1.1719 8.7812 5.0781 5.2812 3.9062 7.625 8.2031-8.2031 0-14.844-0.39062zm18.75-37.5q-1.9531-3.9062-4.2969-7.8125 4.6875-1.1719 12.5-3.125 2.7344 3.5156 5.0781 10.938zm-2.7344 14.062q4.2969-1.5625 8.5938-2.7344-1.5625-1.5625-3.5156-5.0781h15.234 4.2969q-2.3438-10.156-6.6406-19.141 6.6406-1.9531 10.547-3.125-3.125-4.2969-4.6875-7.8125-3.5156 2.3438-10.547 5.0781-9.375-9.375-28.125-15.625-1.5625 3.9062-4.6875 6.25 16.797 3.9062 26.562 12.109-10.938 2.7344-17.969 4.6875 2.3438 3.125 6.25 11.328-6.25 0-14.844-0.39062v7.0312q7.4219-0.39062 17.188-0.39062 1.1719 3.125 2.3438 7.8125zm39.453 42.188q4.6875-1.9531 9.7656-2.7344-1.9531-2.3438-2.9375-5.4688-0.96875-3.125-2.5312-8.9844h17.578q3.5156 0 8.9844 0.39062v-7.0312q-4.2969 0.39062-7.0312 0.39062-0.39062-8.2031-1.9531-21.688-1.5625-13.469-7.4219-23.625 3.9062-5.4688 8.9844-8.9844t8.9844-5.0781q-5.4688-3.5156-7.0312-7.0312-6.6406 4.6875-9.7656 8.0156-3.125 3.3125-5.8594 7.2188-4.6875-4.6875-8.7969-7.8125-4.0938-3.125-13.078-8.2031-1.9531 3.5156-6.25 6.25 7.4219 2.7344 13.672 7.0312t10.547 8.9844q-4.2969 8.5938-6.6406 16.984-2.3438 8.4062-2.7344 11.922-0.78125-2.7344-1.9531-6.25-3.5156 1.5625-7.8125 3.125 4.6875 8.5938 8.5938 20.703t4.6875 21.875zm2.7344-23.438q-1.5625-3.9062-2.3438-6.4531-0.78125-2.5312 2.9219-13.859 3.7188-11.328 7.2344-17.578 3.5156 9.375 4.875 19.531 1.375 10.156 1.375 18.359z"/>
      <path id="SimHei-25454" d="m5.8594 59.375q5.4688-0.39062 12.891-0.39062v8.9844q0 5.4688-0.39062 10.156h7.4219q-0.39062-4.2969-0.39062-10.156v-8.9844q3.9062 0 10.156 0.39062v-6.6406q-6.25 0.39062-10.156 0.39062v-15.625q3.5156 1.1719 8.9844 3.125 0-3.125 0.39062-6.25-5.0781-1.5625-9.375-3.125v-26.953q0-7.4219-3.7188-8.9844-3.7031-1.5625-10.344-2.7344-0.78125 4.2969-3.125 8.5938 6.6406 0 8.5938 0.57812 1.9531 0.59375 1.9531 5.2812v21.875q-6.25-1.9531-10.938-4.6875-1.1719 3.125-3.125 7.8125 6.25 1.1719 14.062 3.5156v17.578q-7.4219 0-12.891-0.39062zm50.781-41.406v-14.062h23.438v14.062zm-17.188 58.594h49.219q-0.39062-3.5156-0.39062-8.9844v-5.0781q0-6.25 0.39062-9.375h-42.188v-11.328h18.359q0 3.125-0.39062 10.156h7.4219q-0.39062-6.6406-0.39062-10.156h10.547q7.4219 0 12.109 0.39062v-6.6406q-4.6875 0.39062-11.719 0.39062h-10.938v-12.109h15.625q-0.39062-7.8125-0.39062-10.156v-8.9844q0-6.6406 0.39062-11.719h-7.0312v5.0781h-23.438v-6.25h-6.6406q0.39062 4.6875 0.39062 11.328v10.938q0 3.9062-0.39062 9.7656h14.844v12.109h-18.359q-0.78125-8.9844-1.7656-14.844-0.96875-5.8594-2.3438-10.359-1.3594-4.4844-3.125-8.2031-1.75-3.7031-3.7031-8.3906-3.5156 1.9531-8.5938 3.125 5.0781 6.25 7.8125 13.281t3.7031 15.031q0.98438 8.0156 1.1719 17 0.20312 8.9844 0.20312 15.031 0 6.0625-0.39062 18.953zm7.0312-5.8594v-11.719h35.156v11.719z"/>
      <path id="SimHei-21069" d="m66.016 19.141q0-5.8594 0.39062-10.156h-7.8125q0.39062 5.4688 0.39062 9.7656v17.969q0 6.25-0.78125 10.938h8.5938q-0.78125-4.6875-0.78125-10.938zm5.0781-28.516q-1.1719 4.6875-3.125 7.8125 6.25-0.39062 7.8125 0t1.5625 3.9062v40.234q0 4.6875-0.39062 10.156h7.8125q-0.39062-5.0781-0.39062-10.156v-42.969q0-5.0781-2.3438-6.6406t-10.938-2.3438zm-6.25 90.625q3.9062-2.3438 8.5938-3.5156-1.5625-1.5625-3.3281-4.6875-1.75-3.125-4.0938-7.8125h16.406q5.4688 0 11.719 0.39062v-7.0312q-5.8594 0.78125-12.891 0.78125h-58.594q-9.7656 0-16.406-0.78125v7.0312q7.8125-0.39062 16.406-0.39062h35.938q5.4688 11.719 6.25 16.016zm-21.484-11.719q-3.5156-1.5625-7.0312-3.5156-1.1719 3.5156-7.0312 11.328 3.5156 1.5625 6.25 3.5156 5.0781-7.0312 7.8125-11.328zm-21.094-40.625v-9.7656h19.922v9.7656zm14.062-38.672q-1.1719 4.2969-3.125 8.2031 5.0781 0 7.0312 0.20312 1.9531 0.1875 1.9531 2.9219v11.719h-19.922v-23.438h-7.8125q0.78125 7.0312 0.78125 15.625v30.859q0 7.8125-0.39062 14.844h34.766q-0.39062-6.6406-0.39062-14.453v-39.062q0-3.9062-2.9375-5.0781-2.9219-1.1719-9.9531-2.3438zm-14.062 55.078v-10.547h19.922v10.547z"/>
      <path id="SimHei-65292" d="m21.484 9.7656q-1.5625-5.0781-3.7188-7.8125-2.1406-2.7344-4.4844-4.4844-2.3438-1.7656 0.78125-1.375t7.2188 4.875q4.1094 4.5 5.6719 9.375 1.5625 4.8906 0.39062 8.0156t-4.6875 3.9062-5.8594-0.98438q-2.3438-1.75-2.7344-3.5156-0.39062-1.75 0.1875-3.7031 0.59375-1.9531 2.1562-3.125t5.0781-1.1719z"/>
      <path id="SimHei-32447" d="m22.266 80.078q3.9062-2.7344 8.9844-4.2969-3.9062-3.5156-7.625-9.9688-3.7031-6.4375-9.5625-15.812 8.9844 0.39062 12.5 0.39062 3.5156 5.8594 5.8594 12.891 3.9062-2.7344 8.5938-4.2969-3.9062-3.9062-7.8125-10.547t-14.062-22.656q10.547 0.78125 18.359 1.5625-1.1719-3.9062-1.1719-6.6406-2.7344 0-11.719-0.98438-8.9844-0.96875-14.844-2.5312-0.39062 3.9062-2.3438 8.2031 4.6875 1.1719 8.3906 6.25 3.7188 5.0781 8.0156 12.891-12.5-0.78125-16.016-3.125-1.1719 4.2969-3.125 8.5938 4.6875 3.5156 9.375 11.516 4.6875 8.0156 8.2031 18.562zm-16.797-73.047q10.547 1.1719 16.203 2.1406 5.6719 0.98438 18.953 4.1094-0.39062-4.2969 0-6.6406-9.375-1.9531-17-3.9062-7.6094-1.9531-14.25-4.2969-1.1719 4.2969-3.9062 8.5938zm75.781 59.375q-3.5156-1.5625-6.25-3.9062-2.7344 4.2969-7.0312 10.156 2.7344 1.5625 5.8594 3.125 1.5625-1.9531 7.4219-9.375zm-42.188-14.453q3.9062 0 14.844 2.3438 0 7.0312 0 12.688 0 5.6719-1.1719 12.703 4.6875-0.39062 10.156-1.1719-1.1719-2.3438-1.5625-7.625-0.39062-5.2656 0-15.031l12.891 2.3438q6.6406 1.5625 12.891 3.5156l1.5625-7.4219q-6.6406-0.78125-13.281-1.9531l-13.672-2.7344q0-6.25 0.78125-10.938l14.844 2.7344q7.4219 1.5625 14.453 3.9062l1.1719-7.4219q-7.0312-1.1719-14.453-2.7344l-14.844-2.7344q0.78125-7.8125 3.9062-14.453 3.125 2.7344 6.4375 6.25 3.3281 3.5156 6.0625 7.8125 5.4688-4.6875 8.5938-6.25-5.0781-2.3438-7.8125-5.2812-2.7344-2.9219-9.375-9.1719 4.6875-7.8125 8.2031-9.9688 3.5156-2.1406 5.0781-0.1875t2.7344 8.2031q3.5156-2.7344 7.8125-4.2969-6.25-17.188-13.875-13.859-7.6094 3.3125-15.812 15.422-5.4688-4.2969-10.547-8-5.0781-3.7188-12.5-7.625-1.9531 3.9062-5.8594 7.0312 7.4219 2.7344 12.891 5.8594t12.109 8.9844q-3.5156 7.8125-5.0781 18.359-11.328-1.9531-15.625-3.5156l-1.1719 7.4219q4.2969 0 15.625 2.3438-0.78125 6.25-0.78125 10.547-10.547-2.3438-14.062-3.5156z"/>
      <path id="SimHei-24615" d="m47.266 71.875q4.2969-1.1719 8.2031-1.9531-1.9531-6.6406-2.7344-11.719h12.109v8.2031q0 6.25-0.39062 12.5h8.2031q-0.39062-6.25-0.39062-12.5v-8.2031h7.8125q5.4688 0 12.5 0.39062v-7.0312q-7.0312 0.39062-12.5 0.39062h-7.8125v-20.312h7.0312q6.25 0 12.109 0.39062v-7.0312q-5.8594 0.39062-12.109 0.39062h-7.0312v-23.438h10.547q7.0312 0 13.281 0.39062v-7.0312q-6.25 0.39062-13.281 0.39062h-30.078q-7.4219 0-14.062-0.39062v7.0312q6.6406-0.39062 13.672-0.39062h12.5v23.438h-6.6406q-6.6406 0-13.672-0.39062v7.0312q7.0312-0.39062 13.672-0.39062h6.6406v20.312h-13.672q-1.5625-5.8594-3.5156-12.5-5.0781 1.9531-7.8125 2.3438 3.125 7.0312 4.6875 15.031 1.5625 8.0156 2.7344 15.047zm-39.453-13.281q3.125-0.39062 6.6406-0.78125-1.1719-15.625-1.9531-23.828-3.9062 0.39062-7.4219 0.78125 1.9531 9.7656 2.7344 23.828zm21.094 1.1719q3.125 1.5625 5.8594 2.7344 3.125-6.25 5.8594-12.891-4.2969-1.5625-7.0312-3.125-1.5625 6.25-4.6875 13.281zm-9.7656 18.75h8.2031q-0.39062-6.6406-0.39062-13.672v-57.031q0-7.8125 0.39062-15.625h-8.2031q0.39062 7.8125 0.39062 15.625v57.031q0 6.6406-0.39062 13.672z"/>
      <path id="SimHei-21487" d="m18.75 52.344h37.109q-0.78125-4.6875-0.78125-10.938v-18.75q0-6.6406 0.78125-11.328h-8.2031v7.0312h-21.094v-12.5h-7.8125q0.39062 4.6875 0.39062 10.938v24.609q0 6.25-0.39062 10.938zm7.8125-6.25v-21.484h21.094v21.484zm-18.75 26.562q7.4219-0.78125 16.406-0.78125h55.859q5.4688 0 12.109 0.78125v-7.4219q-5.8594 0.39062-11.719 0.39062h-2.7344v-63.672q0-7.8125-3.5156-9.1719-3.5156-1.375-12.109-3.3281-1.1719 4.6875-3.9062 9.375 5.4688 0 8.7812 0.39062 3.3281 0.39062 3.3281 4.2969v62.109h-45.703q-9.375 0-16.797-0.39062z"/>
      <path id="SimHei-20998" d="m45.312 33.594q-0.78125-8.9844-2.9375-15.625-2.1406-6.6406-6.0469-11.328t-8.9844-8.2031-10.547-6.6406q-2.7344 4.2969-7.0312 7.0312 6.25 2.3438 10.938 5.0781t8.3906 6.6406q3.7188 3.9062 5.6719 9.1719 1.9531 5.2812 2.7344 13.875-8.5938 0-12.891-0.39062v7.4219q5.4688-0.39062 14.062-0.39062h37.891q-0.78125-5.0781-1.1719-8.9844l-3.125-26.953q-0.78125-7.8125-5.8594-9.375t-11.328-2.7344q-1.1719 5.0781-3.9062 9.7656 7.4219 0 10.156 0.39062t3.5156 5.4688l2.7344 25.781zm-8.2031 43.359q4.2969-2.3438 8.9844-4.2969-2.3438-2.3438-5.4688-7.2344-3.125-4.875-7.2344-10.547-4.0938-5.6562-8.9844-11.516-4.875-5.8594-10.344-10.938-3.9062 3.9062-8.5938 6.25 6.6406 4.2969 11.516 8.9844 4.8906 4.6875 10.156 11.906 5.2812 7.2344 9.9688 17.391zm19.141-0.39062q4.2969 0.78125 8.2031 1.9531 1.1719-5.0781 4.0938-10.75 2.9375-5.6562 7.2344-10.938 4.2969-5.2656 9.375-9.1719t10.156-5.4688q-4.2969-2.7344-7.4219-8.5938-6.6406 5.0781-11.328 9.7656t-7.625 8.5938q-2.9219 3.9062-6.6406 10.734-3.7031 6.8438-6.0469 13.875z"/>
     </defs>
     <g transform="translate(41.07 209.67) scale(.14 -.14)">
      <use xlink:href="#SimHei-21152"/>
      <use x="100" xlink:href="#SimHei-25968"/>
      <use x="200" xlink:href="#SimHei-25454"/>
      <use x="300" xlink:href="#SimHei-21069"/>
      <use x="400" xlink:href="#SimHei-65292"/>
      <use x="500" xlink:href="#SimHei-32447"/>
      <use x="600" xlink:href="#SimHei-24615"/>
      <use x="700" xlink:href="#SimHei-21487"/>
      <use x="800" xlink:href="#SimHei-20998"/>
     </g>
    </g>
   </g>
   <g id="line2d_1">
    <path d="m198.29 185.57-113.06-29.422" clip-path="url(#p205ea2c0a3)" fill="none" stroke="#00f" stroke-linecap="square" stroke-width="1.5"/>
   </g>
   <g id="line2d_2">
    <path d="m160.6 156.15h-75.373" clip-path="url(#p205ea2c0a3)" fill="none" stroke="#00f" stroke-linecap="square" stroke-width="1.5"/>
   </g>
   <g id="line2d_3">
    <path d="m160.6 156.15 37.687 29.422" clip-path="url(#p205ea2c0a3)" fill="none" stroke="#00f" stroke-linecap="square" stroke-width="1.5"/>
   </g>
   <g id="line2d_4">
    <path d="m122.91 67.886-113.06 29.422" clip-path="url(#p205ea2c0a3)" fill="none" stroke="#f00" stroke-linecap="square" stroke-width="1.5"/>
   </g>
   <g id="line2d_5">
    <path d="m47.54 9.0425-37.687 88.265" clip-path="url(#p205ea2c0a3)" fill="none" stroke="#f00" stroke-linecap="square" stroke-width="1.5"/>
   </g>
   <g id="line2d_6">
    <path d="m47.54 9.0425 75.373 58.844" clip-path="url(#p205ea2c0a3)" fill="none" stroke="#f00" stroke-linecap="square" stroke-width="1.5"/>
   </g>
   <g id="patch_3">
    <path d="m0.432 194.4v-194.18" fill="none" stroke="#000" stroke-linecap="square" stroke-width=".8"/>
   </g>
   <g id="patch_4">
    <path d="m207.71 194.4v-194.18" fill="none" stroke="#000" stroke-linecap="square" stroke-width=".8"/>
   </g>
   <g id="patch_5">
    <path d="m0.432 194.4h207.28" fill="none" stroke="#000" stroke-linecap="square" stroke-width=".8"/>
   </g>
   <g id="patch_6">
    <path d="m0.432 0.216h207.28" fill="none" stroke="#000" stroke-linecap="square" stroke-width=".8"/>
   </g>
  </g>
  <g id="axes_2">
   <g id="patch_7">
    <path d="m224.29 194.4h207.28v-194.18h-207.28z" fill="#fff"/>
   </g>
   <g id="PathCollection_3">
    <g clip-path="url(#pf16b2783c7)" fill="#0000ff" fill-opacity=".8" stroke="#0000ff" stroke-opacity=".8" stroke-width="1.5">
     <use x="384.459608" y="156.151636" xlink:href="#m215861c2e9"/>
     <use x="309.086182" y="156.151636" xlink:href="#m215861c2e9"/>
     <use x="422.146322" y="185.573455" xlink:href="#m215861c2e9"/>
     <use x="271.399469" y="82.597091" xlink:href="#m215861c2e9"/>
    </g>
   </g>
   <g id="PathCollection_4">
    <g clip-path="url(#pf16b2783c7)" fill="#ff0000" fill-opacity=".8" stroke="#000000" stroke-opacity=".8">
     <use x="271.399469" y="9.042545" xlink:href="#ma4c06c8037"/>
     <use x="233.712755" y="97.308" xlink:href="#ma4c06c8037"/>
     <use x="346.772895" y="67.886182" xlink:href="#ma4c06c8037"/>
    </g>
   </g>
   <g id="matplotlib.axis_3">
    <g id="text_2">
     <!-- 加数据后，非线性可分 -->
     <defs>
      <path id="SimHei-21518" d="m39.844 26.172v-17.969h34.375v17.969zm-22.266 46.484q22.266 0.78125 38.281 2.7344t23.438 4.2969q1.9531-4.6875 5.0781-9.7656-9.375 0-27.156-1.5625-17.766-1.5625-31.828-2.3438v-13.281h55.078q5.4688 0 12.109 0.39062v-7.4219q-6.25 0.39062-12.109 0.39062h-55.078q-0.39062-9.7656-1.375-18.172-0.96875-8.3906-3.9062-17.578-2.9219-9.1719-6.0469-15.031-3.125 2.7344-8.2031 5.0781 5.0781 6.25 8 16.984 2.9375 10.75 3.5156 25.781 0.59375 15.047 0.20312 29.5zm14.453-40.234h50q-0.39062-5.8594-0.39062-20.125 0-14.25 0.78125-20.5h-8.2031v10.156h-34.375v-10.938h-7.8125q0.39062 7.0312 0.39062 21.281 0 14.266-0.39062 20.125z"/>
      <path id="SimHei-38750" d="m7.4219 62.109q5.8594-0.39062 10.547-0.39062h16.406q0 5.8594 0 8.5938t-0.39062 7.4219h8.2031q-0.39062-3.9062-0.39062-12.891v-57.422q0-8.9844 0.39062-15.625h-8.2031q0.39062 6.6406 0.39062 10.547v8.5938h-17.969q-5.0781 0-10.156-0.39062v7.0312q5.0781-0.39062 9.7656-0.39062h18.359v17.578h-11.719q-5.8594 0-11.719-0.39062v7.0312q5.8594-0.39062 12.109-0.39062h11.328v14.453h-16.406q-4.6875 0-10.547-0.39062zm75-44.922q5.8594 0 10.547 0.39062v-7.0312q-3.9062 0.39062-10.547 0.39062h-19.141v-8.5938q0-7.4219 0.39062-11.719h-8.2031q0.39062 4.2969 0.39062 10.938v62.5q0 10.547-0.39062 14.453h8.5938q-0.78125-3.9062-0.78125-8.2031t0-8.5938h17.578q6.25 0 10.547 0.39062v-7.0312q-4.2969 0.39062-11.328 0.39062h-16.797v-14.453h15.625q5.8594 0 9.7656 0.39062v-7.0312q-3.5156 0.39062-9.7656 0.39062h-15.625v-17.578z"/>
     </defs>
     <g transform="translate(257.93 209.61) scale(.14 -.14)">
      <use xlink:href="#SimHei-21152"/>
      <use x="100" xlink:href="#SimHei-25968"/>
      <use x="200" xlink:href="#SimHei-25454"/>
      <use x="300" xlink:href="#SimHei-21518"/>
      <use x="400" xlink:href="#SimHei-65292"/>
      <use x="500" xlink:href="#SimHei-38750"/>
      <use x="600" xlink:href="#SimHei-32447"/>
      <use x="700" xlink:href="#SimHei-24615"/>
      <use x="800" xlink:href="#SimHei-21487"/>
      <use x="900" xlink:href="#SimHei-20998"/>
     </g>
    </g>
   </g>
   <g id="line2d_7">
    <path d="m384.46 156.15-113.06-73.555" clip-path="url(#pf16b2783c7)" fill="none" stroke="#00f" stroke-linecap="square" stroke-width="1.5"/>
   </g>
   <g id="line2d_8">
    <path d="m384.46 156.15 37.687 29.422" clip-path="url(#pf16b2783c7)" fill="none" stroke="#00f" stroke-linecap="square" stroke-width="1.5"/>
   </g>
   <g id="line2d_9">
    <path d="m309.09 156.15-37.687-73.555" clip-path="url(#pf16b2783c7)" fill="none" stroke="#00f" stroke-linecap="square" stroke-width="1.5"/>
   </g>
   <g id="line2d_10">
    <path d="m309.09 156.15 113.06 29.422" clip-path="url(#pf16b2783c7)" fill="none" stroke="#00f" stroke-linecap="square" stroke-width="1.5"/>
   </g>
   <g id="line2d_11">
    <path d="m346.77 67.886-113.06 29.422" clip-path="url(#pf16b2783c7)" fill="none" stroke="#f00" stroke-linecap="square" stroke-width="1.5"/>
   </g>
   <g id="line2d_12">
    <path d="m271.4 9.0425-37.687 88.265" clip-path="url(#pf16b2783c7)" fill="none" stroke="#f00" stroke-linecap="square" stroke-width="1.5"/>
   </g>
   <g id="line2d_13">
    <path d="m271.4 9.0425 75.373 58.844" clip-path="url(#pf16b2783c7)" fill="none" stroke="#f00" stroke-linecap="square" stroke-width="1.5"/>
   </g>
   <g id="patch_8">
    <path d="m224.29 194.4v-194.18" fill="none" stroke="#000" stroke-linecap="square" stroke-width=".8"/>
   </g>
   <g id="patch_9">
    <path d="m431.57 194.4v-194.18" fill="none" stroke="#000" stroke-linecap="square" stroke-width=".8"/>
   </g>
   <g id="patch_10">
    <path d="m224.29 194.4h207.28" fill="none" stroke="#000" stroke-linecap="square" stroke-width=".8"/>
   </g>
   <g id="patch_11">
    <path d="m224.29 0.216h207.28" fill="none" stroke="#000" stroke-linecap="square" stroke-width=".8"/>
   </g>
  </g>
 </g>
 <defs>
  <clipPath id="p205ea2c0a3">
   <rect x=".432" y=".216" width="207.28" height="194.18"/>
  </clipPath>
  <clipPath id="pf16b2783c7">
   <rect x="224.29" y=".216" width="207.28" height="194.18"/>
  </clipPath>
 </defs>
</svg>
