<?xml version="1.0" encoding="UTF-8"?>
<!DOCTYPE svg  PUBLIC '-//W3C//DTD SVG 1.1//EN'  'http://www.w3.org/Graphics/SVG/1.1/DTD/svg11.dtd'>
<!-- Created with matplotlib (https://matplotlib.org/) -->
<svg width="432pt" height="216pt" version="1.1" viewBox="0 0 432 216" xmlns="http://www.w3.org/2000/svg" xmlns:xlink="http://www.w3.org/1999/xlink">
 <defs>
  <style type="text/css">*{stroke-linecap:butt;stroke-linejoin:round;}</style>
 </defs>
 <g id="figure_1">
  <g id="patch_1">
   <path d="m0 216h432v-216h-432z" fill="#fff"/>
  </g>
  <g id="axes_1">
   <g id="patch_2">
    <path d="m64.8 198.72h216v-198.5h-216z" fill="#fff"/>
   </g>
   <g id="PathCollection_1">
    <path d="m65.201 198.72h0.40074 0.40074 0.40074 0.40074 0.40074 0.40074 0.40074 0.40074 0.40074 0.40074 0.40074 0.40074 0.40074 0.40074 0.40074 0.40074 0.40074 0.40074 0.40074 0.40074 0.40074 0.40074 0.40074 0.40074 0.40074 0.40074 0.40074 0.40074 0.40074 0.40074 0.40074 0.40074 0.40074 0.40074 0.40074 0.40074 0.40074 0.40074 0.40074 0.40074 0.40074 0.40074 0.40074 0.40074 0.40074 0.40074 0.40074 0.40074 0.40074 0.40074 0.40074 0.40074 0.40074 0.40074 0.40074 0.40074 0.40074 0.40074 0.40074 0.40074 0.40074 0.40074 0.40074 0.40074 0.40074 0.40074 0.40074 0.40074 0.40074 0.40074 0.40074 0.40074 0.40074 0.40074 0.40074 0.40074 0.40074 0.40074 0.40074 0.40074 0.40074 0.40074 0.40074 0.40074 0.40074 0.40074 0.40074 0.40074 0.40074 0.40074 0.40074 0.40074 0.40074 0.40074 0.40074 0.40074 0.40074 0.40074 0.40074 0.40074 0.40074 0.40074 0.40074 0.40074 0.40074 0.40074 0.40074 0.40074 0.40074 0.40074 0.40074 0.40074 0.40074 0.40074 0.40074 0.40074 0.40074 0.40074 0.40074 0.40074 0.40074 0.40074 0.40074 0.40074 0.40074 0.40074 0.40074 0.40074 0.40074 0.40074 0.40074 0.40074 0.40074 0.40074 0.40074 0.40074 0.40074 0.40074 0.40074 0.40074 0.40074 0.40074 0.40074 0.40074 0.40074 0.40074 0.40074 0.40074 0.40074 0.40074 0.40074 0.40074 0.40074 0.40074 0.40074 0.40074 0.40074 0.40074 0.40074 0.40074 0.40074 0.40074 0.40074 0.40074 0.40074 0.40074 0.40074 0.40074 0.40074 0.40074 0.40074 0.40074 0.40074 0.40074 0.40074 0.40074 0.40074 0.40074 0.40074 0.40074 0.40074 0.40074 0.40074 0.40074 0.40074 0.40074 0.40074 0.40074 0.40074 0.40074 0.40074 0.40074 0.40074 0.40074 0.40074 0.40074 0.40074 0.40074 0.40074 0.40074 0.40074 0.40074 0.40074 0.40074 0.40074 0.40074 0.40074 0.40074 0.40074 0.40074 0.40074 0.40074 0.40074 0.40074 0.40074 0.40074 0.40074 0.40074 0.40074 0.40074 0.40074 0.40074 0.40074 0.40074 0.40074 0.40074 0.40074 0.40074 0.40074 0.40074 0.40074 0.40074 0.40074 0.40074 0.40074 0.40074 0.40074 0.40074 0.40074 0.40074 0.40074 0.40074 0.40074 0.40074 0.40074 0.40074 0.40074 0.40074 0.40074 0.40074 0.40074 0.40074 0.40074 0.40074 0.40074 0.40074 0.40074 0.40074 0.40074 0.40074 0.40074 0.40074 0.40074 0.40074 0.40074 0.40074 0.40074 0.40074 0.40074 0.40074 0.40074 0.40074 0.40074 0.40074 0.40074 0.40074 0.40074 0.40074 0.40074 0.40074 0.40074 0.40074 0.40074 0.40074 0.40074 0.40074 0.40074 0.40074 0.40074 0.40074 0.40074 0.40074 0.40074 0.40074 0.40074 0.40074 0.40074 0.40074 0.40074 0.40074 0.40074 0.40074 0.40074 0.40074 0.40074 0.40074 0.40074 0.40074 0.40074 0.40074 0.40074 0.40074 0.40074 0.40074 0.40074 0.40074 0.40074 0.40074 0.40074 0.40074 0.40074 0.40074 0.40074 0.40074 0.40074 0.40074 0.40074 0.40074 0.40074 0.40074 0.40074 0.40074 0.40074 0.40074 0.40074 0.40074 0.40074 0.40074 0.40074 0.40074 0.40074 0.40074 0.40074 0.40074 0.40074 0.40074 0.40074 0.40074 0.40074 0.40074 0.40074 0.40074 0.40074 0.40074 0.40074 0.40074 0.40074 0.40074 0.40074 0.40074 0.40074 0.40074 0.40074 0.40074 0.40074 0.40074 0.40074 0.40074 0.40074 0.40074 0.40074 0.40074 0.40074 0.40074 0.40074 0.40074 0.40074 0.40074 0.40074 0.40074 0.40074 0.40074 0.40074 0.40074 0.40074 0.40074 0.40074 0.40074 0.40074 0.40074 0.40074 0.40074 0.40074 0.40074 0.40074 0.40074 0.40074 0.40074 0.40074 0.40074 0.40074 0.40074 0.40074 0.40074 0.40074 0.40074 0.40074 0.40074 0.40074 0.40074 0.40074 0.40074 0.40074 0.40074 0.40074 0.40074 0.40074 0.40074 0.40074 0.40074 0.40074 0.40074 0.40074 0.40074 0.40074 0.40074 0.40074 0.40074 0.40074 0.40074 0.40074 0.40074 0.40074 0.40074 0.40074 0.40074 0.40074 0.40074 0.40074 0.40074 0.40074 0.40074 0.40074 0.40074 0.40074 0.40074 0.40074 0.40074 0.40074 0.40074 0.40074 0.40074 0.40074 0.40074 0.40074 0.40074 0.40074 0.40074 0.40074 0.40074 0.40074 0.40074 0.40074 0.40074 0.40074 0.40074 0.40074 0.40074 0.40074 0.40074 0.40074 0.40074 0.40074 0.40074 0.40074 0.40074 0.40074 0.40074 0.40074 0.40074 0.40074 0.40074 0.40074 0.40074 0.40074 0.40074 0.40074 0.40074 0.40074 0.40074 0.40074 0.40074 0.40074 0.40074 0.40074 0.40074 0.40074 0.40074 0.40074 0.40074 0.40074 0.40074 0.40074 0.40074 0.40074 0.40074 0.40074 0.40074 0.40074 0.40074 0.40074 0.40074 0.40074 0.40074 0.40074 0.40074 0.40074 0.40074 0.40074 0.40074 0.40074 0.40074 0.40074 0.40074 0.40074 0.40074 0.40074 0.40074 0.40074 0.40074 0.40074 0.40074 0.40074 0.40074 0.40074 0.40074 0.40074 0.40074v-0.31065-0.31065-0.31065-0.31065-0.31065-0.31065-0.31065-0.31065-0.31065-0.31065-0.31065-0.31065-0.31065-0.31065-0.31065-0.31065-0.31065-0.31065-0.31065-0.31065-0.31065-0.31065-0.31065-0.31065-0.31065-0.31065-0.31065-0.31065-0.31065-0.31065-0.31065-0.31065-0.31065-0.31065-0.31065-0.31065-0.31065-0.31065-0.31065-0.31065-0.31065-0.31065-0.31065-0.31065-0.31065-0.31065-0.31065-0.31065-0.31065-0.31065-0.31065-0.31065-0.31065-0.31065-0.31065-0.31065-0.31065-0.31065-0.31065-0.31065-0.31065-0.31065-0.31065-0.31065-0.31065-0.31065-0.31065-0.31065-0.31065-0.31065-0.31065-0.31065-0.31065-0.31065-0.31065-0.31065-0.31065-0.31065-0.31065-0.31065-0.31065-0.31065-0.31065-0.31065-0.31065-0.31065-0.31065-0.31065-0.31065-0.31065-0.31065-0.31065-0.31065-0.31065-0.31065-0.31065-0.31065-0.31065-0.31065-0.31065-0.31065-0.31065-0.31065-0.31065-0.31065-0.31065-0.31065-0.31065-0.31065-0.31065-0.31065-0.31065-0.31065-0.31065-0.31065-0.31065-0.31065-0.31065-0.31065-0.31065-0.31065-0.31065-0.31065-0.31065-0.31065-0.31065-0.31065-0.31065-0.31065-0.31065-0.31065-0.31065-0.31065-0.31065-0.31065-0.31065-0.31065-0.31065-0.31065-0.31065-0.31065-0.31065-0.31065-0.31065-0.31065-0.31065-0.31065-0.31065-0.31065-0.31065-0.31065-0.31065-0.31065-0.31065-0.31065-0.31065-0.31065-0.31065-0.31065-0.31065-0.31065-0.31065-0.31065-0.31065-0.31065-0.31065-0.31065-0.31065-0.31065-0.31065-0.31065-0.31065-0.31065-0.31065-0.31065-0.31065-0.31065-0.31065-0.31065-0.31065-0.31065-0.31065-0.31065-0.31065-0.31065-0.31065-0.31065-0.31065-0.31065-0.31065-0.31065-0.31065-0.31065-0.31065-0.31065-0.31065-0.31065-0.31065-0.31065-0.31065-0.31065-0.31065-0.31065-0.31065-0.31065-0.31065-0.31065-0.31065-0.31065-0.31065-0.31065-0.31065-0.31065-0.31065-0.31065-0.31065-0.31065-0.31065-0.31065-0.31065-0.31065-0.31065-0.31065-0.31065-0.31065-0.31065-0.31065-0.31065-0.31065-0.31065-0.31065-0.31065-0.31065-0.31065-0.31065-0.31065-0.31065-0.31065-0.31065-0.31065-0.31065-0.31065-0.31065-0.31065-0.31065-0.31065-0.31065-0.31065-0.31065-0.31065-0.31065-0.31065-0.31065-0.31065-0.31065-0.31065-0.31065-0.31065-0.31065-0.31065-0.31065-0.31065-0.31065-0.31065-0.31065-0.31065-0.31065-0.31065-0.31065-0.31065-0.31065-0.31065-0.31065-0.31065-0.31065-0.31065-0.31065-0.31065-0.31065-0.31065-0.31065-0.31065-0.31065-0.31065-0.31065-0.31065-0.31065-0.31065-0.31065-0.31065-0.31065-0.31065-0.31065-0.31065-0.31065-0.31065-0.31065-0.31065-0.31065-0.31065-0.31065-0.31065-0.31065-0.31065-0.31065-0.31065-0.31065-0.31065-0.31065-0.31065-0.31065-0.31065-0.31065-0.31065-0.31065-0.31065-0.31065-0.31065-0.31065-0.31065-0.31065-0.31065-0.31065-0.31065-0.31065-0.31065-0.31065-0.31065-0.31065-0.31065-0.31065-0.31065-0.31065-0.31065-0.31065-0.31065-0.31065-0.31065-0.31065-0.31065-0.31065-0.31065-0.31065-0.31065-0.31065-0.31065-0.31065-0.31065-0.31065-0.31065-0.31065-0.31065-0.31065-0.31065-0.31065-0.31065-0.31065-0.31065-0.31065-0.31065-0.31065-0.31065-0.31065-0.31065-0.31065-0.31065-0.31065-0.31065-0.31065-0.31065-0.31065-0.31065-0.31065-0.31065-0.31065-0.31065-0.31065-0.31065-0.31065-0.31065-0.31065-0.31065-0.31065-0.31065-0.31065-0.31065-0.31065-0.31065-0.31065-0.31065-0.31065-0.31065-0.31065-0.31065-0.31065-0.31065-0.31065-0.31065-0.31065-0.31065-0.31065-0.31065-0.31065-0.31065-0.31065-0.31065-0.31065-0.31065-0.31065-0.31065-0.31065-0.31065-0.31065-0.31065-0.31065-0.31065-0.31065-0.31065-0.31065-0.31065-0.31065-0.31065-0.31065-0.31065-0.31065-0.31065-0.31065-0.31065-0.31065-0.31065-0.31065-0.31065-0.31065-0.31065-0.31065-0.31065-0.31065-0.31065-0.31065-0.31065-0.31065-0.31065-0.31065-0.31065-0.31065-0.31065-0.31065-0.31065-0.31065-0.31065-0.31065-0.31065-0.31065-0.31065-0.31065-0.31065-0.31065-0.31065-0.31065-0.31065-0.31065-0.31065-0.31065-0.31065-0.31065-0.31065-0.31065-0.31065-0.31065-0.31065-0.31065-0.31065-0.31065-0.31065-0.31065-0.31065-0.31065-0.31065-0.31065-0.31065-0.31065-0.31065-0.31065-0.31065-0.31065-0.31065-0.31065-0.31065-0.31065-0.31065-0.31065-0.31065-0.31065-0.31065-0.31065-0.31065-0.31065-0.31065-0.31065-0.31065-0.31065-0.31065-0.31065-0.31065-0.31065-0.31065-0.31065-0.31065-0.31065-0.31065-0.31065-0.31065-0.31065-0.31065-0.31065-0.31065-0.31065-0.31065-0.31065-0.31065-0.31065-0.31065-0.31065-0.31065-0.31065-0.31065-0.31065-0.31065-0.31065-0.31065-0.31065-0.31065-0.31065-0.31065-0.31065-0.31065-0.31065-0.31065-0.31065-0.046597l-1.2022 0.93194-0.40074 0.31065-2.8052 2.1745-0.40074 0.31065-0.40074 0.31065-2.8052 2.1745-0.40074 0.31065-3.2059 2.4852-0.40074 0.31065-3.2059 2.4852-0.40074 0.31065-3.2059 2.4852-3.6067 2.7958-3.6067 2.7958-6.0111 4.6597-0.80148 0.6213-2.8052 2.1745-0.80148 0.6213-2.8052 2.1745-3.2059 2.4852-3.6067 2.7958-3.6067 2.7958-3.2059 2.4852-0.40074 0.31065-3.2059 2.4852-0.40074 0.31065-3.2059 2.4852-0.40074 0.31065-3.2059 2.4852-0.40074 0.31065-2.8052 2.1745-0.40074 0.31065-0.40074 0.31065-2.8052 2.1745-0.40074 0.31065-3.2059 2.4852-0.40074 0.31065-2.8052 2.1745-0.40074 0.31065-0.40074 0.31065-2.8052 2.1745-0.40074 0.31065-0.40074 0.31065-2.8052 2.1745-0.40074 0.31065-2.8052 2.1745-0.40074 0.31065-0.40074 0.31065-2.8052 2.1745-0.40074 0.31065-0.40074 0.31065-2.8052 2.1745-0.40074 0.31065-0.40074 0.31065-2.8052 2.1745-0.40074 0.31065-2.8052 2.1745-0.40074 0.31065-0.40074 0.31065-2.8052 2.1745-0.40074 0.31065-0.40074 0.31065-2.8052 2.1745-0.40074 0.31065-2.8052 2.1745-0.40074 0.31065-0.40074 0.31065-2.8052 2.1745-0.40074 0.31065-0.40074 0.31065-2.8052 2.1745-0.40074 0.31065-2.8052 2.1745-0.40074 0.31065-0.40074 0.31065-2.8052 2.1745-0.40074 0.31065-0.40074 0.31065-2.8052 2.1745-0.40074 0.31065-0.40074 0.31065-2.4045 1.8639-0.40074 0.31065-0.40074 0.31065-2.8052 2.1745-0.40074 0.31065-0.40074 0.31065-2.8052 2.1745-0.40074 0.31065-0.40074 0.31065-2.8052 2.1745-0.40074 0.31065-2.8052 2.1745-0.40074 0.31065-0.40074 0.31065-2.8052 2.1745-0.40074 0.31065-0.40074 0.31065-2.8052 2.1745-0.40074 0.31065-2.8052 2.1745-0.40074 0.31065-0.40074 0.31065-2.8052 2.1745-0.40074 0.31065-0.40074 0.31065-2.8052 2.1745-0.40074 0.31065-3.2059 2.4852-0.40074 0.31065-3.2059 2.4852-0.40074 0.31065-2.8052 2.1745-0.40074 0.31065-0.40074 0.31065-2.8052 2.1745-0.40074 0.31065-3.2059 2.4852-0.40074 0.31065-3.2059 2.4852-0.40074 0.31065-3.2059 2.4852-3.6067 2.7958-3.6067 2.7958-6.0111 4.6597-0.80148 0.6213-2.8052 2.1745-0.80148 0.6213-2.8052 2.1745-3.2059 2.4852-2.8052 2.1745v0.046597z" clip-path="url(#p69f4214c2d)" fill="#00f" fill-opacity=".4"/>
   </g>
   <g id="PathCollection_2">
    <path d="m65.141 198.41 2.4045-1.8639 3.2059-2.4852 2.8052-2.1745 0.80148-0.6213 2.8052-2.1745 0.80148-0.6213 6.0111-4.6597 3.6067-2.7958 3.6067-2.7958 3.2059-2.4852 0.40074-0.31065 3.2059-2.4852 0.40074-0.31065 3.2059-2.4852 0.40074-0.31065 2.8052-2.1745 0.40074-0.31065 0.40074-0.31065 2.8052-2.1745 0.40074-0.31065 3.2059-2.4852 0.40074-0.31065 3.2059-2.4852 0.40074-0.31065 2.8052-2.1745 0.40074-0.31065 0.40074-0.31065 2.8052-2.1745 0.40074-0.31065 0.40074-0.31065 2.8052-2.1745 0.40074-0.31065 2.8052-2.1745 0.40074-0.31065 0.40074-0.31065 2.8052-2.1745 0.40074-0.31065 0.40074-0.31065 2.8052-2.1745 0.40074-0.31065 2.8052-2.1745 0.40074-0.31065 0.40074-0.31065 2.8052-2.1745 0.40074-0.31065 0.40074-0.31065 2.8052-2.1745 0.40074-0.31065 0.40074-0.31065 2.4045-1.8639 0.40074-0.31065 0.40074-0.31065 2.8052-2.1745 0.40074-0.31065 0.40074-0.31065 2.8052-2.1745 0.40074-0.31065 0.40074-0.31065 2.8052-2.1745 0.40074-0.31065 2.8052-2.1745 0.40074-0.31065 0.40074-0.31065 2.8052-2.1745 0.40074-0.31065 0.40074-0.31065 2.8052-2.1745 0.40074-0.31065 2.8052-2.1745 0.40074-0.31065 0.40074-0.31065 2.8052-2.1745 0.40074-0.31065 0.40074-0.31065 2.8052-2.1745 0.40074-0.31065 2.8052-2.1745 0.40074-0.31065 0.40074-0.31065 2.8052-2.1745 0.40074-0.31065 0.40074-0.31065 2.8052-2.1745 0.40074-0.31065 0.40074-0.31065 2.8052-2.1745 0.40074-0.31065 2.8052-2.1745 0.40074-0.31065 0.40074-0.31065 2.8052-2.1745 0.40074-0.31065 0.40074-0.31065 2.8052-2.1745 0.40074-0.31065 3.2059-2.4852 0.40074-0.31065 2.8052-2.1745 0.40074-0.31065 0.40074-0.31065 2.8052-2.1745 0.40074-0.31065 3.2059-2.4852 0.40074-0.31065 3.2059-2.4852 0.40074-0.31065 3.2059-2.4852 0.40074-0.31065 3.2059-2.4852 3.6067-2.7958 3.6067-2.7958 3.2059-2.4852 2.8052-2.1745 0.80148-0.6213 2.8052-2.1745 0.80148-0.6213 6.0111-4.6597 3.6067-2.7958 3.6067-2.7958 3.2059-2.4852 0.40074-0.31065 3.2059-2.4852 0.40074-0.31065 3.2059-2.4852 0.40074-0.31065 2.8052-2.1745 0.40074-0.31065 0.40074-0.31065 2.8052-2.1745 0.40074-0.31065 1.2623-0.97854v-0.046598l-1.2022 0.93194-0.40074 0.31065-2.8052 2.1745-0.40074 0.31065-0.40074 0.31065-2.8052 2.1745-0.40074 0.31065-1.603 1.2426-1.603 1.2426-0.40074 0.31065-1.603 1.2426-1.603 1.2426-0.40074 0.31065-1.603 1.2426-1.603 1.2426-1.603 1.2426-0.40074 0.31065-1.603 1.2426-1.603 1.2426-2.0037 1.5532-1.603 1.2426-3.6067 2.7958-1.603 1.2426-1.603 1.2426-0.40074 0.31065-1.603 1.2426-1.603 1.2426-0.40074 0.31065-3.2059 2.4852-0.40074 0.31065-2.8052 2.1745-0.40074 0.31065-0.40074 0.31065-2.8052 2.1745-0.40074 0.31065-0.40074 0.31065-2.8052 2.1745-0.40074 0.31065-2.8052 2.1745-0.40074 0.31065-0.40074 0.31065-2.8052 2.1745-0.40074 0.31065-0.40074 0.31065-2.8052 2.1745-0.40074 0.31065-0.40074 0.31065-2.8052 2.1745-0.40074 0.31065-0.40074 0.31065-2.4045 1.8639-0.40074 0.31065-0.40074 0.31065-0.40074 0.31065-2.4045 1.8639-0.40074 0.31065-0.40074 0.31065-0.40074 0.31065-2.4045 1.8639-0.40074 0.31065-0.40074 0.31065-0.40074 0.31065-2.0037 1.5532-0.40074 0.31065-0.40074 0.31065-0.40074 0.31065-2.4045 1.8639-0.40074 0.31065-0.40074 0.31065-0.40074 0.31065-2.4045 1.8639-0.40074 0.31065-0.40074 0.31065-0.40074 0.31065-2.0037 1.5532-0.40074 0.31065-0.40074 0.31065-0.40074 0.31065-0.40074 0.31065-2.0037 1.5532-0.40074 0.31065-0.40074 0.31065-0.40074 0.31065-0.40074 0.31065-2.0037 1.5532-0.40074 0.31065-0.40074 0.31065-0.40074 0.31065-0.40074 0.31065-2.0037 1.5532-0.40074 0.31065-0.40074 0.31065-0.40074 0.31065-0.40074 0.31065-2.0037 1.5532-0.40074 0.31065-0.40074 0.31065-0.40074 0.31065-0.40074 0.31065-2.0037 1.5532-0.40074 0.31065-0.40074 0.31065-0.40074 0.31065-2.0037 1.5532-0.40074 0.31065-0.40074 0.31065-0.40074 0.31065-0.40074 0.31065-2.0037 1.5532-0.40074 0.31065-0.40074 0.31065-0.40074 0.31065-0.40074 0.31065-2.0037 1.5532-0.40074 0.31065-0.40074 0.31065-0.40074 0.31065-2.0037 1.5532-0.40074 0.31065-0.40074 0.31065-0.40074 0.31065-0.40074 0.31065-2.0037 1.5532-0.40074 0.31065-0.40074 0.31065-0.40074 0.31065-0.40074 0.31065-2.0037 1.5532-0.40074 0.31065-0.40074 0.31065-0.40074 0.31065-0.40074 0.31065-2.0037 1.5532-0.40074 0.31065-0.40074 0.31065-0.40074 0.31065-2.4045 1.8639-0.40074 0.31065-0.40074 0.31065-0.40074 0.31065-2.4045 1.8639-0.40074 0.31065-0.40074 0.31065-0.40074 0.31065-2.4045 1.8639-0.40074 0.31065-0.40074 0.31065-2.4045 1.8639-0.40074 0.31065-0.40074 0.31065-0.40074 0.31065-2.4045 1.8639-0.40074 0.31065-0.40074 0.31065-0.40074 0.31065-2.4045 1.8639-0.40074 0.31065-0.40074 0.31065-2.8052 2.1745-0.40074 0.31065-0.40074 0.31065-2.8052 2.1745-0.40074 0.31065-0.40074 0.31065-2.8052 2.1745-0.40074 0.31065-3.2059 2.4852-0.40074 0.31065-3.2059 2.4852-0.40074 0.31065-2.8052 2.1745-0.40074 0.31065-0.40074 0.31065-2.8052 2.1745-0.40074 0.31065-1.603 1.2426-1.603 1.2426-0.40074 0.31065-1.603 1.2426-1.603 1.2426-0.40074 0.31065-1.603 1.2426-1.603 1.2426-1.603 1.2426-0.40074 0.31065-1.603 1.2426-1.603 1.2426-2.0037 1.5532-1.603 1.2426-3.6067 2.7958-1.603 1.2426-1.603 1.2426-0.40074 0.31065-1.603 1.2426-1.603 1.2426-0.40074 0.31065-3.2059 2.4852-0.40074 0.31065-2.8052 2.1745-0.40074 0.31065v0.046597z" clip-path="url(#p69f4214c2d)" fill="#00f" fill-opacity=".4"/>
   </g>
   <g id="PathCollection_3">
    <path d="m65.081 198.41 2.8052-2.1745 0.40074-0.31065 3.2059-2.4852 0.40074-0.31065 1.603-1.2426 1.603-1.2426 0.40074-0.31065 1.603-1.2426 1.603-1.2426 3.6067-2.7958 1.603-1.2426 2.0037-1.5532 1.603-1.2426 1.603-1.2426 0.40074-0.31065 1.603-1.2426 1.603-1.2426 1.603-1.2426 0.40074-0.31065 1.603-1.2426 1.603-1.2426 0.40074-0.31065 1.603-1.2426 1.603-1.2426 0.40074-0.31065 2.8052-2.1745 0.40074-0.31065 0.40074-0.31065 2.8052-2.1745 0.40074-0.31065 3.2059-2.4852 0.40074-0.31065 3.2059-2.4852 0.40074-0.31065 2.8052-2.1745 0.40074-0.31065 0.40074-0.31065 2.8052-2.1745 0.40074-0.31065 0.40074-0.31065 2.8052-2.1745 0.40074-0.31065 0.40074-0.31065 2.4045-1.8639 0.40074-0.31065 0.40074-0.31065 0.40074-0.31065 2.4045-1.8639 0.40074-0.31065 0.40074-0.31065 0.40074-0.31065 2.4045-1.8639 0.40074-0.31065 0.40074-0.31065 2.4045-1.8639 0.40074-0.31065 0.40074-0.31065 0.40074-0.31065 2.4045-1.8639 0.40074-0.31065 0.40074-0.31065 0.40074-0.31065 2.4045-1.8639 0.40074-0.31065 0.40074-0.31065 0.40074-0.31065 2.0037-1.5532 0.40074-0.31065 0.40074-0.31065 0.40074-0.31065 0.40074-0.31065 2.0037-1.5532 0.40074-0.31065 0.40074-0.31065 0.40074-0.31065 0.40074-0.31065 2.0037-1.5532 0.40074-0.31065 0.40074-0.31065 0.40074-0.31065 0.40074-0.31065 2.0037-1.5532 0.40074-0.31065 0.40074-0.31065 0.40074-0.31065 0.40074-0.31065 2.0037-1.5532 0.40074-0.31065 0.40074-0.31065 0.40074-0.31065 2.0037-1.5532 0.40074-0.31065 0.40074-0.31065 0.40074-0.31065 0.40074-0.31065 2.0037-1.5532 0.40074-0.31065 0.40074-0.31065 0.40074-0.31065 0.40074-0.31065 2.0037-1.5532 0.40074-0.31065 0.40074-0.31065 0.40074-0.31065 0.40074-0.31065 2.0037-1.5532 0.40074-0.31065 0.40074-0.31065 0.40074-0.31065 0.40074-0.31065 2.0037-1.5532 0.40074-0.31065 0.40074-0.31065 0.40074-0.31065 2.0037-1.5532 0.40074-0.31065 0.40074-0.31065 0.40074-0.31065 0.40074-0.31065 2.0037-1.5532 0.40074-0.31065 0.40074-0.31065 0.40074-0.31065 0.40074-0.31065 2.0037-1.5532 0.40074-0.31065 0.40074-0.31065 0.40074-0.31065 2.4045-1.8639 0.40074-0.31065 0.40074-0.31065 0.40074-0.31065 2.4045-1.8639 0.40074-0.31065 0.40074-0.31065 0.40074-0.31065 2.0037-1.5532 0.40074-0.31065 0.40074-0.31065 0.40074-0.31065 2.4045-1.8639 0.40074-0.31065 0.40074-0.31065 0.40074-0.31065 2.4045-1.8639 0.40074-0.31065 0.40074-0.31065 0.40074-0.31065 2.4045-1.8639 0.40074-0.31065 0.40074-0.31065 2.8052-2.1745 0.40074-0.31065 0.40074-0.31065 2.8052-2.1745 0.40074-0.31065 0.40074-0.31065 2.8052-2.1745 0.40074-0.31065 0.40074-0.31065 2.8052-2.1745 0.40074-0.31065 2.8052-2.1745 0.40074-0.31065 0.40074-0.31065 2.8052-2.1745 0.40074-0.31065 0.40074-0.31065 2.8052-2.1745 0.40074-0.31065 3.2059-2.4852 0.40074-0.31065 1.603-1.2426 1.603-1.2426 0.40074-0.31065 1.603-1.2426 1.603-1.2426 3.6067-2.7958 1.603-1.2426 2.0037-1.5532 1.603-1.2426 1.603-1.2426 0.40074-0.31065 1.603-1.2426 1.603-1.2426 1.603-1.2426 0.40074-0.31065 1.603-1.2426 1.603-1.2426 0.40074-0.31065 1.603-1.2426 1.603-1.2426 0.40074-0.31065 2.8052-2.1745 0.40074-0.31065 0.40074-0.31065 2.8052-2.1745 0.40074-0.31065 1.3224-1.0251v-0.046597l-216 167.44v0.046598z" clip-path="url(#p69f4214c2d)" fill="#00f" fill-opacity=".4"/>
   </g>
   <g id="PathCollection_4">
    <path d="m65.02 198.41 215.78-167.27v-0.046597l-1.2022 0.93194-0.40074 0.31065-2.8052 2.1745-0.40074 0.31065-0.40074 0.31065-2.8052 2.1745-0.40074 0.31065-3.2059 2.4852-0.40074 0.31065-3.2059 2.4852-0.40074 0.31065-3.2059 2.4852-3.6067 2.7958-3.6067 2.7958-6.8126 5.281-3.6067 2.7958-89.766 69.585-14.026 10.873-3.6067 2.7958-3.6067 2.7958-3.2059 2.4852-0.40074 0.31065-3.2059 2.4852-0.40074 0.31065-3.2059 2.4852-3.2059 2.4852-0.40074 0.31065-3.2059 2.4852-0.40074 0.31065-3.2059 2.4852-0.40074 0.31065-3.2059 2.4852-0.40074 0.31065-2.8052 2.1745-0.40074 0.31065-0.40074 0.31065-2.8052 2.1745-0.40074 0.31065-3.2059 2.4852-0.40074 0.31065-3.2059 2.4852-0.40074 0.31065-3.2059 2.4852-3.6067 2.7958-3.6067 2.7958-6.8126 5.281-3.6067 2.7958-8.8163 6.8343v0.046597z" clip-path="url(#p69f4214c2d)" fill="#f00" fill-opacity=".4"/>
   </g>
   <g id="PathCollection_5">
    <path d="m64.96 198.41 8.4156-6.5236 3.6067-2.7958 6.8126-5.281 3.6067-2.7958 3.6067-2.7958 3.2059-2.4852 0.40074-0.31065 3.2059-2.4852 0.40074-0.31065 3.2059-2.4852 0.40074-0.31065 2.8052-2.1745 0.40074-0.31065 0.40074-0.31065 2.8052-2.1745 0.40074-0.31065 3.2059-2.4852 0.40074-0.31065 3.2059-2.4852 0.40074-0.31065 3.2059-2.4852 0.40074-0.31065 3.2059-2.4852 3.2059-2.4852 0.40074-0.31065 3.2059-2.4852 0.40074-0.31065 3.2059-2.4852 3.6067-2.7958 3.6067-2.7958 14.026-10.873 89.766-69.585 3.6067-2.7958 6.8126-5.281 3.6067-2.7958 3.6067-2.7958 3.2059-2.4852 0.40074-0.31065 3.2059-2.4852 0.40074-0.31065 3.2059-2.4852 0.40074-0.31065 2.8052-2.1745 0.40074-0.31065 0.40074-0.31065 2.8052-2.1745 0.40074-0.31065 1.4427-1.1183v-0.046597l-1.102 0.85428-24.846 19.26-3.6067 2.7958-24.846 19.26-3.6067 2.7958-24.846 19.26-3.6067 2.7958-24.846 19.26-3.6067 2.7958-24.846 19.26-3.6067 2.7958-24.846 19.26-3.6067 2.7958-24.846 19.26-3.6067 2.7958-15.729 12.193v0.046597z" clip-path="url(#p69f4214c2d)" fill="#f00" fill-opacity=".4"/>
   </g>
   <g id="PathCollection_6">
    <path d="m64.9 198.41 0.30056-0.23299 15.228-11.805 3.6067-2.7958 24.846-19.26 3.6067-2.7958 24.846-19.26 3.6067-2.7958 24.846-19.26 3.6067-2.7958 24.846-19.26 3.6067-2.7958 24.846-19.26 3.6067-2.7958 24.846-19.26 3.6067-2.7958 24.846-19.26 1.2022-0.93194v-0.046597l-0.76141 0.59023-0.40074 0.31065-0.80148 0.6213-0.40074 0.31065-2.0037 1.5532-1.2022 0.93194-2.0037 1.5532-0.40074 0.31065-0.80148 0.6213-0.40074 0.31065-2.0037 1.5532-0.40074 0.31065-0.80148 0.6213-0.40074 0.31065-2.0037 1.5532-0.40074 0.31065-0.80148 0.6213-2.4045 1.8639-0.40074 0.31065-0.40074 0.31065-0.40074 0.31065-2.4045 1.8639-0.40074 0.31065-0.40074 0.31065-0.40074 0.31065-2.4045 1.8639-0.40074 0.31065-0.40074 0.31065-0.40074 0.31065-2.4045 1.8639-0.40074 0.31065-0.40074 0.31065-2.8052 2.1745-0.40074 0.31065-0.40074 0.31065-2.4045 1.8639-0.40074 0.31065-0.40074 0.31065-0.40074 0.31065-2.4045 1.8639-0.40074 0.31065-0.40074 0.31065-2.8052 2.1745-0.40074 0.31065-0.40074 0.31065-2.8052 2.1745-0.40074 0.31065-0.40074 0.31065-2.8052 2.1745-0.40074 0.31065-3.2059 2.4852-0.40074 0.31065-3.2059 2.4852-0.40074 0.31065-3.2059 2.4852-3.2059 2.4852-0.40074 0.31065-3.2059 2.4852-0.40074 0.31065-3.2059 2.4852-0.40074 0.31065-2.8052 2.1745-0.40074 0.31065-0.40074 0.31065-2.8052 2.1745-0.40074 0.31065-0.40074 0.31065-2.8052 2.1745-0.40074 0.31065-0.40074 0.31065-2.4045 1.8639-0.40074 0.31065-0.40074 0.31065-0.40074 0.31065-2.4045 1.8639-0.40074 0.31065-0.40074 0.31065-2.8052 2.1745-0.40074 0.31065-0.40074 0.31065-2.8052 2.1745-0.40074 0.31065-0.40074 0.31065-2.4045 1.8639-0.40074 0.31065-0.40074 0.31065-0.40074 0.31065-2.4045 1.8639-0.40074 0.31065-0.40074 0.31065-0.40074 0.31065-2.4045 1.8639-0.80148 0.6213-0.40074 0.31065-2.0037 1.5532-0.40074 0.31065-0.80148 0.6213-0.40074 0.31065-2.0037 1.5532-0.40074 0.31065-0.80148 0.6213-0.40074 0.31065-2.0037 1.5532-0.40074 0.31065-0.80148 0.6213-2.0037 1.5532-0.40074 0.31065-0.80148 0.6213-0.40074 0.31065-2.0037 1.5532-0.40074 0.31065-0.80148 0.6213-0.40074 0.31065-2.0037 1.5532-0.40074 0.31065-0.80148 0.6213-0.40074 0.31065-2.0037 1.5532-1.2022 0.93194-0.40074 0.31065-1.603 1.2426-0.40074 0.31065-1.2022 0.93194-0.40074 0.31065-1.603 1.2426-0.40074 0.31065-1.2022 0.93194-0.40074 0.31065-1.603 1.2426-1.603 1.2426-0.40074 0.31065-1.2022 0.93194-0.40074 0.31065-1.603 1.2426-1.603 1.2426-0.40074 0.31065-1.2022 0.93194-0.40074 0.31065-1.603 1.2426-0.40074 0.31065-1.2022 0.93194-0.40074 0.31065-1.2022 0.93194-0.40074 0.31065-1.603 1.2426-0.40074 0.31065-1.2022 0.93194-0.40074 0.31065-1.603 1.2426-0.40074 0.31065-1.2022 0.93194-0.40074 0.31065-1.603 1.2426-0.40074 0.31065-0.80148 0.6213-0.40074 0.31065-2.0037 1.5532-0.40074 0.31065-0.80148 0.6213-0.40074 0.31065-2.0037 1.5532-0.40074 0.31065-0.80148 0.6213-0.40074 0.31065-2.0037 1.5532-1.2022 0.93194-2.0037 1.5532-0.40074 0.31065-0.80148 0.6213-0.40074 0.31065-2.0037 1.5532-0.40074 0.31065-0.80148 0.6213-0.40074 0.31065-2.0037 1.5532-0.40074 0.31065-0.80148 0.6213-2.4045 1.8639-0.40074 0.31065-0.40074 0.31065-0.40074 0.31065-2.4045 1.8639-0.40074 0.31065-0.40074 0.31065-0.40074 0.31065-2.4045 1.8639-0.40074 0.31065-0.40074 0.31065-0.40074 0.31065-2.4045 1.8639-0.40074 0.31065-0.40074 0.31065-2.8052 2.1745-0.40074 0.31065-0.40074 0.31065-2.4045 1.8639-0.40074 0.31065-0.40074 0.31065-0.40074 0.31065-2.4045 1.8639-0.40074 0.31065-0.40074 0.31065-2.8052 2.1745-0.40074 0.31065-0.40074 0.31065-1.2423 0.96301v0.046597z" clip-path="url(#p69f4214c2d)" fill="#f00" fill-opacity=".4"/>
   </g>
   <g id="PathCollection_7">
    <path d="m64.84 198.41 1.1622-0.90088 0.40074-0.31065 0.40074-0.31065 2.8052-2.1745 0.40074-0.31065 0.40074-0.31065 2.4045-1.8639 0.40074-0.31065 0.40074-0.31065 0.40074-0.31065 2.4045-1.8639 0.40074-0.31065 0.40074-0.31065 2.8052-2.1745 0.40074-0.31065 0.40074-0.31065 2.4045-1.8639 0.40074-0.31065 0.40074-0.31065 0.40074-0.31065 2.4045-1.8639 0.40074-0.31065 0.40074-0.31065 0.40074-0.31065 2.4045-1.8639 0.40074-0.31065 0.40074-0.31065 0.40074-0.31065 2.4045-1.8639 0.80148-0.6213 0.40074-0.31065 2.0037-1.5532 0.40074-0.31065 0.80148-0.6213 0.40074-0.31065 2.0037-1.5532 0.40074-0.31065 0.80148-0.6213 0.40074-0.31065 2.0037-1.5532 1.2022-0.93194 2.0037-1.5532 0.40074-0.31065 0.80148-0.6213 0.40074-0.31065 2.0037-1.5532 0.40074-0.31065 0.80148-0.6213 0.40074-0.31065 2.0037-1.5532 0.40074-0.31065 0.80148-0.6213 0.40074-0.31065 1.603-1.2426 0.40074-0.31065 1.2022-0.93194 0.40074-0.31065 1.603-1.2426 0.40074-0.31065 1.2022-0.93194 0.40074-0.31065 1.603-1.2426 0.40074-0.31065 1.2022-0.93194 0.40074-0.31065 1.2022-0.93194 0.40074-0.31065 1.603-1.2426 0.40074-0.31065 1.2022-0.93194 0.40074-0.31065 1.603-1.2426 1.603-1.2426 0.40074-0.31065 1.2022-0.93194 0.40074-0.31065 1.603-1.2426 1.603-1.2426 0.40074-0.31065 1.2022-0.93194 0.40074-0.31065 1.603-1.2426 0.40074-0.31065 1.2022-0.93194 0.40074-0.31065 1.603-1.2426 0.40074-0.31065 1.2022-0.93194 2.0037-1.5532 0.40074-0.31065 0.80148-0.6213 0.40074-0.31065 2.0037-1.5532 0.40074-0.31065 0.80148-0.6213 0.40074-0.31065 2.0037-1.5532 0.40074-0.31065 0.80148-0.6213 0.40074-0.31065 2.0037-1.5532 0.80148-0.6213 0.40074-0.31065 2.0037-1.5532 0.40074-0.31065 0.80148-0.6213 0.40074-0.31065 2.0037-1.5532 0.40074-0.31065 0.80148-0.6213 0.40074-0.31065 2.0037-1.5532 0.40074-0.31065 0.80148-0.6213 2.4045-1.8639 0.40074-0.31065 0.40074-0.31065 0.40074-0.31065 2.4045-1.8639 0.40074-0.31065 0.40074-0.31065 0.40074-0.31065 2.4045-1.8639 0.40074-0.31065 0.40074-0.31065 2.8052-2.1745 0.40074-0.31065 0.40074-0.31065 2.8052-2.1745 0.40074-0.31065 0.40074-0.31065 2.4045-1.8639 0.40074-0.31065 0.40074-0.31065 0.40074-0.31065 2.4045-1.8639 0.40074-0.31065 0.40074-0.31065 2.8052-2.1745 0.40074-0.31065 0.40074-0.31065 2.8052-2.1745 0.40074-0.31065 0.40074-0.31065 2.8052-2.1745 0.40074-0.31065 3.2059-2.4852 0.40074-0.31065 3.2059-2.4852 0.40074-0.31065 3.2059-2.4852 3.2059-2.4852 0.40074-0.31065 3.2059-2.4852 0.40074-0.31065 3.2059-2.4852 0.40074-0.31065 2.8052-2.1745 0.40074-0.31065 0.40074-0.31065 2.8052-2.1745 0.40074-0.31065 0.40074-0.31065 2.8052-2.1745 0.40074-0.31065 0.40074-0.31065 2.4045-1.8639 0.40074-0.31065 0.40074-0.31065 0.40074-0.31065 2.4045-1.8639 0.40074-0.31065 0.40074-0.31065 2.8052-2.1745 0.40074-0.31065 0.40074-0.31065 2.4045-1.8639 0.40074-0.31065 0.40074-0.31065 0.40074-0.31065 2.4045-1.8639 0.40074-0.31065 0.40074-0.31065 0.40074-0.31065 2.4045-1.8639 0.40074-0.31065 0.40074-0.31065 0.40074-0.31065 2.4045-1.8639 0.80148-0.6213 0.40074-0.31065 2.0037-1.5532 0.40074-0.31065 0.80148-0.6213 0.40074-0.31065 2.0037-1.5532 0.40074-0.31065 0.80148-0.6213 0.40074-0.31065 2.0037-1.5532 1.2022-0.93194 2.0037-1.5532 0.40074-0.31065 0.80148-0.6213 0.40074-0.31065 0.80148-0.6213v-0.031065-0.31065-0.31065-0.31065-0.31065-0.31065-0.31065-0.31065-0.31065-0.31065-0.31065-0.31065-0.31065-0.31065-0.31065-0.31065-0.31065-0.31065-0.31065-0.31065-0.31065-0.31065-0.31065-0.31065-0.31065-0.31065-0.31065-0.31065-0.31065-0.31065-0.31065-0.31065-0.31065-0.31065-0.31065-0.31065-0.31065-0.31065-0.31065-0.31065-0.31065-0.31065-0.31065-0.31065-0.31065-0.31065-0.31065-0.31065-0.31065-0.31065-0.31065-0.31065-0.31065-0.31065-0.31065-0.31065-0.31065-0.31065-0.31065-0.31065-0.31065-0.31065-0.31065-0.31065-0.31065-0.31065-0.31065-0.31065-0.31065-0.31065-0.31065-0.31065-0.31065-0.31065-0.31065-0.31065-0.31065-0.31065-0.31065-0.31065-0.31065-0.31065-0.31065-0.31065-0.31065-0.31065-0.31065-0.31065-0.31065-0.31065-0.31065-0.31065-0.31065-0.31065-0.31065-0.31065-0.31065-0.31065-0.31065-0.31065h-0.40074-0.40074-0.40074-0.40074-0.40074-0.40074-0.40074-0.40074-0.40074-0.40074-0.40074-0.40074-0.40074-0.40074-0.40074-0.40074-0.40074-0.40074-0.40074-0.40074-0.40074-0.40074-0.40074-0.40074-0.40074-0.40074-0.40074-0.40074-0.40074-0.40074-0.40074-0.40074-0.40074-0.40074-0.40074-0.40074-0.40074-0.40074-0.40074-0.40074-0.40074-0.40074-0.40074-0.40074-0.40074-0.40074-0.40074-0.40074-0.40074-0.40074-0.40074-0.40074-0.40074-0.40074-0.40074-0.40074-0.40074-0.40074-0.40074-0.40074-0.40074-0.40074-0.40074-0.40074-0.40074-0.40074-0.40074-0.40074-0.40074-0.40074-0.40074-0.40074-0.40074-0.40074-0.40074-0.40074-0.40074-0.40074-0.40074-0.40074-0.40074-0.40074-0.40074-0.40074-0.40074-0.40074-0.40074-0.40074-0.40074-0.40074-0.40074-0.40074-0.40074-0.40074-0.40074-0.40074-0.40074-0.40074-0.40074-0.40074-0.40074-0.40074-0.40074-0.40074-0.40074-0.40074-0.40074-0.40074-0.40074-0.40074-0.40074-0.40074-0.40074-0.40074-0.40074-0.40074-0.40074-0.40074-0.40074-0.40074-0.40074-0.40074-0.40074-0.40074-0.40074-0.40074-0.40074-0.40074-0.40074-0.40074-0.40074-0.40074-0.40074-0.40074-0.40074-0.40074-0.40074-0.40074-0.40074-0.40074-0.40074-0.40074-0.40074-0.40074-0.40074-0.40074-0.40074-0.40074-0.40074-0.40074-0.40074-0.40074-0.40074-0.40074-0.40074-0.40074-0.40074-0.40074-0.40074-0.40074-0.40074-0.40074-0.40074-0.40074-0.40074-0.40074-0.40074-0.40074-0.40074-0.40074-0.40074-0.40074-0.40074-0.40074-0.40074-0.40074-0.40074-0.40074-0.40074-0.40074-0.40074-0.40074-0.40074-0.40074-0.40074-0.40074-0.40074-0.40074-0.40074-0.40074-0.40074-0.40074-0.40074-0.40074-0.40074-0.40074-0.40074-0.40074-0.40074-0.40074-0.40074-0.40074-0.40074-0.40074-0.40074-0.40074-0.40074-0.40074-0.40074-0.40074-0.40074-0.40074-0.40074-0.40074-0.40074-0.40074-0.40074-0.40074-0.40074-0.40074-0.40074-0.40074-0.40074-0.40074-0.40074-0.40074-0.40074-0.40074-0.40074-0.40074-0.40074-0.40074-0.40074-0.40074-0.40074-0.40074-0.40074-0.40074-0.40074-0.40074-0.40074-0.40074-0.40074-0.40074-0.40074-0.40074-0.40074-0.40074-0.40074-0.40074-0.40074-0.40074-0.40074-0.40074-0.40074-0.40074-0.40074-0.40074-0.40074-0.40074-0.40074-0.40074-0.40074-0.40074-0.40074-0.40074-0.40074-0.40074-0.40074-0.40074-0.40074-0.40074-0.40074-0.40074-0.40074-0.40074-0.40074-0.40074-0.40074-0.40074-0.40074-0.40074-0.40074-0.40074-0.40074-0.40074-0.40074-0.40074-0.40074-0.40074-0.40074-0.40074-0.40074-0.40074-0.40074-0.40074-0.40074-0.40074-0.40074-0.40074-0.40074-0.40074-0.40074-0.40074-0.40074-0.40074-0.40074-0.40074-0.40074-0.40074-0.40074-0.40074-0.40074-0.40074-0.40074-0.40074-0.40074-0.40074-0.40074-0.40074-0.40074-0.40074-0.40074-0.40074-0.40074-0.40074-0.40074-0.40074-0.40074-0.40074-0.40074-0.40074-0.40074-0.40074-0.40074-0.40074-0.40074-0.40074-0.40074-0.40074-0.40074-0.40074-0.40074-0.40074-0.40074-0.40074-0.40074-0.40074-0.40074-0.40074-0.40074-0.40074-0.40074-0.40074-0.40074-0.40074-0.40074-0.40074-0.40074-0.40074-0.40074-0.40074-0.40074-0.40074-0.40074-0.40074-0.40074-0.40074-0.40074-0.40074-0.40074-0.40074-0.40074-0.40074-0.40074-0.40074-0.40074-0.40074-0.40074-0.40074-0.40074-0.40074-0.40074-0.40074-0.40074-0.40074-0.40074-0.40074-0.40074-0.40074-0.40074-0.40074-0.40074-0.40074-0.40074-0.40074-0.40074-0.40074-0.40074-0.40074-0.40074-0.40074-0.40074-0.40074-0.40074-0.40074-0.40074-0.40074-0.40074-0.40074-0.40074-0.40074-0.40074-0.40074-0.40074-0.40074-0.40074-0.40074-0.40074-0.40074-0.40074-0.40074-0.40074-0.40074-0.40074-0.40074-0.40074-0.40074-0.40074-0.40074-0.40074-0.40074-0.40074-0.40074-0.40074-0.40074-0.40074-0.40074-0.40074-0.40074-0.40074-0.40074-0.40074-0.40074-0.40074-0.40074-0.40074-0.40074-0.40074-0.40074-0.40074-0.40074-0.40074-0.40074-0.40074-0.40074-0.40074-0.40074-0.40074-0.40074-0.40074-0.40074-0.40074-0.40074-0.40074-0.40074-0.40074-0.40074-0.40074-0.40074-0.40074-0.40074-0.40074-0.40074-0.40074-0.40074-0.40074-0.40074-0.40074-0.40074-0.40074-0.40074-0.40074-0.40074-0.40074-0.40074-0.40074-0.40074-0.40074-0.40074-0.40074-0.40074-0.40074-0.40074-0.40074-0.40074-0.40074-0.40074-0.40074-0.40074-0.40074-0.40074-0.40074-0.40074-0.40074-0.40074-0.40074-0.40074-0.40074-0.40074-0.40074-0.40074-0.40074-0.40074-0.40074-0.40074-0.40074-0.40074-0.40074-0.40074-0.40074-0.40074-0.40074-0.40074-0.40074-0.40074-0.40074-0.40074-0.40074-0.40074-0.40074-0.40074-0.40074-0.40074-0.40074-0.40074-0.40074-0.40074-0.40074v0.31065 0.31065 0.31065 0.31065 0.31065 0.31065 0.31065 0.31065 0.31065 0.31065 0.31065 0.31065 0.31065 0.31065 0.31065 0.31065 0.31065 0.31065 0.31065 0.31065 0.31065 0.31065 0.31065 0.31065 0.31065 0.31065 0.31065 0.31065 0.31065 0.31065 0.31065 0.31065 0.31065 0.31065 0.31065 0.31065 0.31065 0.31065 0.31065 0.31065 0.31065 0.31065 0.31065 0.31065 0.31065 0.31065 0.31065 0.31065 0.31065 0.31065 0.31065 0.31065 0.31065 0.31065 0.31065 0.31065 0.31065 0.31065 0.31065 0.31065 0.31065 0.31065 0.31065 0.31065 0.31065 0.31065 0.31065 0.31065 0.31065 0.31065 0.31065 0.31065 0.31065 0.31065 0.31065 0.31065 0.31065 0.31065 0.31065 0.31065 0.31065 0.31065 0.31065 0.31065 0.31065 0.31065 0.31065 0.31065 0.31065 0.31065 0.31065 0.31065 0.31065 0.31065 0.31065 0.31065 0.31065 0.31065 0.31065 0.31065 0.31065 0.31065 0.31065 0.31065 0.31065 0.31065 0.31065 0.31065 0.31065 0.31065 0.31065 0.31065 0.31065 0.31065 0.31065 0.31065 0.31065 0.31065 0.31065 0.31065 0.31065 0.31065 0.31065 0.31065 0.31065 0.31065 0.31065 0.31065 0.31065 0.31065 0.31065 0.31065 0.31065 0.31065 0.31065 0.31065 0.31065 0.31065 0.31065 0.31065 0.31065 0.31065 0.31065 0.31065 0.31065 0.31065 0.31065 0.31065 0.31065 0.31065 0.31065 0.31065 0.31065 0.31065 0.31065 0.31065 0.31065 0.31065 0.31065 0.31065 0.31065 0.31065 0.31065 0.31065 0.31065 0.31065 0.31065 0.31065 0.31065 0.31065 0.31065 0.31065 0.31065 0.31065 0.31065 0.31065 0.31065 0.31065 0.31065 0.31065 0.31065 0.31065 0.31065 0.31065 0.31065 0.31065 0.31065 0.31065 0.31065 0.31065 0.31065 0.31065 0.31065 0.31065 0.31065 0.31065 0.31065 0.31065 0.31065 0.31065 0.31065 0.31065 0.31065 0.31065 0.31065 0.31065 0.31065 0.31065 0.31065 0.31065 0.31065 0.31065 0.31065 0.31065 0.31065 0.31065 0.31065 0.31065 0.31065 0.31065 0.31065 0.31065 0.31065 0.31065 0.31065 0.31065 0.31065 0.31065 0.31065 0.31065 0.31065 0.31065 0.31065 0.31065 0.31065 0.31065 0.31065 0.31065 0.31065 0.31065 0.31065 0.31065 0.31065 0.31065 0.31065 0.31065 0.31065 0.31065 0.31065 0.31065 0.31065 0.31065 0.31065 0.31065 0.31065 0.31065 0.31065 0.31065 0.31065 0.31065 0.31065 0.31065 0.31065 0.31065 0.31065 0.31065 0.31065 0.31065 0.31065 0.31065 0.31065 0.31065 0.31065 0.31065 0.31065 0.31065 0.31065 0.31065 0.31065 0.31065 0.31065 0.31065 0.31065 0.31065 0.31065 0.31065 0.31065 0.31065 0.31065 0.31065 0.31065 0.31065 0.31065 0.31065 0.31065 0.31065 0.31065 0.31065 0.31065 0.31065 0.31065 0.31065 0.31065 0.31065 0.31065 0.31065 0.31065 0.31065 0.31065 0.31065 0.31065 0.31065 0.31065 0.31065 0.31065 0.31065 0.31065 0.31065 0.31065 0.31065 0.31065 0.31065 0.31065 0.31065 0.31065 0.31065 0.31065 0.31065 0.31065 0.31065 0.31065 0.31065 0.31065 0.31065 0.31065 0.31065 0.31065 0.31065 0.31065 0.31065 0.31065 0.31065 0.31065 0.31065 0.31065 0.31065 0.31065 0.31065 0.31065 0.31065 0.31065 0.31065 0.31065 0.31065 0.31065 0.31065 0.31065 0.31065 0.31065 0.31065 0.31065 0.31065 0.31065 0.31065 0.31065 0.31065 0.31065 0.31065 0.31065 0.31065 0.31065 0.31065 0.31065 0.31065 0.31065 0.31065 0.31065 0.31065 0.31065 0.31065 0.31065 0.31065 0.31065 0.31065 0.31065 0.31065 0.31065 0.31065 0.31065 0.31065 0.31065 0.31065 0.31065 0.31065 0.31065 0.31065 0.31065 0.31065 0.31065 0.31065 0.31065 0.31065 0.31065 0.31065 0.31065 0.31065 0.31065 0.31065 0.31065 0.31065 0.31065 0.31065 0.31065 0.31065 0.31065 0.31065 0.31065 0.31065 0.31065 0.31065 0.31065 0.31065 0.31065 0.31065 0.31065 0.31065 0.31065 0.31065 0.31065 0.31065 0.31065 0.31065 0.31065 0.31065 0.31065 0.31065 0.31065 0.31065 0.31065 0.31065 0.31065 0.31065 0.31065 0.31065 0.31065 0.31065 0.31065 0.31065 0.31065 0.31065 0.31065 0.31065 0.31065 0.31065 0.31065 0.31065 0.31065 0.31065 0.31065 0.31065 0.31065 0.31065 0.31065 0.31065 0.31065 0.31065 0.31065 0.31065 0.31065 0.31065 0.31065 0.31065 0.31065 0.31065 0.31065 0.31065 0.31065 0.31065 0.31065 0.31065 0.31065 0.31065 0.31065 0.31065 0.31065 0.31065 0.31065 0.31065 0.31065 0.31065 0.31065 0.31065 0.31065 0.31065 0.31065 0.31065 0.31065 0.31065 0.31065 0.31065 0.31065 0.31065 0.31065 0.31065 0.31065 0.31065 0.31065 0.31065 0.31065 0.31065 0.31065 0.31065 0.31065 0.31065 0.31065 0.31065 0.31065 0.31065 0.31065 0.31065 0.31065 0.31065 0.31065 0.31065 0.31065 0.31065 0.31065 0.31065 0.31065 0.31065 0.31065 0.31065 0.31065 0.31065 0.31065 0.31065 0.31065 0.31065 0.31065 0.31065 0.31065 0.31065 0.31065 0.31065 0.31065 0.31065 0.31065 0.31065 0.31065 0.31065 0.31065 0.31065 0.31065 0.31065 0.31065 0.31065 0.31065 0.31065 0.31065 0.31065 0.31065 0.31065 0.31065 0.31065 0.31065 0.31065 0.31065 0.31065 0.31065 0.31065 0.31065 0.31065 0.31065 0.31065 0.31065 0.31065 0.31065 0.31065 0.31065 0.31065 0.31065 0.31065 0.31065 0.31065 0.31065 0.31065 0.31065 0.31065 0.31065 0.31065 0.31065 0.31065 0.31065 0.31065 0.31065 0.31065 0.31065 0.31065 0.31065 0.31065 0.31065 0.31065 0.31065 0.31065 0.31065 0.31065 0.31065 0.31065 0.31065 0.31065 0.31065 0.31065 0.31065 0.31065 0.31065 0.31065 0.31065 0.31065 0.31065 0.31065 0.31065 0.31065 0.31065 0.31065 0.31065 0.31065 0.31065 0.31065 0.31065 0.31065 0.31065 0.31065 0.31065 0.31065 0.31065 0.31065 0.31065 0.31065 0.031065z" clip-path="url(#p69f4214c2d)" fill="#f00" fill-opacity=".4"/>
   </g>
   <g id="PathCollection_8">
    <defs>
     <path id="mea63eb00a1" d="m-3 3 6-6m-6 0 6 6" stroke="#00f" stroke-opacity=".8" stroke-width="1.5"/>
    </defs>
    <g clip-path="url(#p69f4214c2d)" fill="#0000ff" fill-opacity=".8" stroke="#0000ff" stroke-opacity=".8" stroke-width="1.5">
     <use x="233.111688" y="161.442254" xlink:href="#mea63eb00a1"/>
     <use x="152.963265" y="161.442254" xlink:href="#mea63eb00a1"/>
     <use x="273.1859" y="192.507042" xlink:href="#mea63eb00a1"/>
    </g>
   </g>
   <g id="PathCollection_9">
    <defs>
     <path id="m57b6ebee39" d="m0 3c0.79561 0 1.5587-0.3161 2.1213-0.87868 0.56258-0.56258 0.87868-1.3257 0.87868-2.1213s-0.3161-1.5587-0.87868-2.1213c-0.56258-0.56258-1.3257-0.87868-2.1213-0.87868s-1.5587 0.3161-2.1213 0.87868c-0.56258 0.56258-0.87868 1.3257-0.87868 2.1213s0.3161 1.5587 0.87868 2.1213c0.56258 0.56258 1.3257 0.87868 2.1213 0.87868z" stroke="#000" stroke-opacity=".8"/>
    </defs>
    <g clip-path="url(#p69f4214c2d)" fill="#ff0000" fill-opacity=".8" stroke="#000000" stroke-opacity=".8">
     <use x="112.889054" y="6.11831" xlink:href="#m57b6ebee39"/>
     <use x="72.814842" y="99.312676" xlink:href="#m57b6ebee39"/>
     <use x="193.037477" y="68.247887" xlink:href="#m57b6ebee39"/>
    </g>
   </g>
   <g id="matplotlib.axis_1">
    <g id="text_1">
     <!-- $x_1$ -->
     <defs>
      <path id="STIXGeneral-Italic-120" d="m24.297 35.5 1.2031-5.7031q5.2969 8.1094 8.5469 11.203t6.5469 3.0938q1.8125 0 2.9531-1.0469 1.1562-1.0469 1.1562-2.6562 0-1.5938-0.95312-2.5938t-2.4531-1q-0.89062 0-2.3906 0.84375-1.5 0.85938-2.8125 0.85938-2.8906 0-9.7969-12.094 0-1.3125 0.79688-4.5l3.2031-13.406q1-4.0938 3-4.0938 1.6094 0 4.7031 4 0.29688 0.39062 0.6875 0.9375 0.40625 0.5625 0.70312 1 0.3125 0.45312 0.70312 0.85938l1.5-0.90625q-4.2969-6.7031-6.7969-9.0469t-5.3906-2.3438q-2.4062 0-3.7031 1.5t-2.2031 5.2969l-2.9062 11.891-8.7969-11.891q-3.0938-4.2031-5.0469-5.5t-4.4531-1.2969q-2.2969 0-3.6406 1.0938-1.3594 1.0938-1.3594 3.0938 0 1.5 0.95312 2.5469 0.95312 1.0625 2.4531 1.0625 1.2031 0 3.2031-1.1094 1.5-0.89062 2.5938-0.89062 1.7031 0 5.0938 4.8906l8.2031 11.609-2.7969 12.391q-1 4.4062-1.8594 5.6094-0.84375 1.2031-2.7344 1.2031-1.2031 0-3.9062-0.70312l-1.7969-0.5-0.29688 1.5938 1.0938 0.40625q8 2.8906 11.703 2.8906 1.8906 0 2.9844-1.7969 1.1094-1.7969 2.1094-6.7969z"/>
      <path id="STIXGeneral-Regular-49" d="m39.406 0h-27.609v1.5q5.5 0.29688 7.5 2.0469t2 5.9531v44.906q0 4.8906-3 4.8906-1.3906 0-4.5-1.2031l-2.7031-1v1.4062l17.906 9.0938 0.90625-0.29688v-59.703q0-3.2969 2-4.7031 2-1.3906 7.5-1.3906z"/>
     </defs>
     <g transform="translate(166.92 212.14) scale(.14 -.14)">
      <use transform="translate(0 .90625)" xlink:href="#STIXGeneral-Italic-120"/>
      <use transform="translate(44.4 -12.322) scale(.7)" xlink:href="#STIXGeneral-Regular-49"/>
     </g>
    </g>
   </g>
   <g id="matplotlib.axis_2">
    <g id="text_2">
     <!-- $x_2$ -->
     <defs>
      <path id="STIXGeneral-Regular-50" d="m47.406 13.703-5.4062-13.703h-39.094v1.2031l17.797 18.891q7 7.3125 10 13.406t3 12.594q0 6.7031-3.7031 10.406t-10.203 3.7031q-5.3906 0-8.5469-2.8125-3.1562-2.7969-6.1562-10.188l-2.0938 0.5q1.7031 9.2969 6.8438 14.594 5.1562 5.2969 13.953 5.2969 8.2969 0 13.391-5 5.1094-5 5.1094-12.594 0-11.297-12.797-24.797l-16.5-17.609h23.406q3.2969 0 5.2344 1.2969 1.9531 1.3125 4.3594 5.4062z"/>
     </defs>
     <g transform="translate(58.84 105.35) rotate(-90) scale(.14 -.14)">
      <use transform="translate(0 .90625)" xlink:href="#STIXGeneral-Italic-120"/>
      <use transform="translate(44.4 -12.322) scale(.7)" xlink:href="#STIXGeneral-Regular-50"/>
     </g>
    </g>
   </g>
   <g id="line2d_1">
    <path d="m65.201 198.41 215.6-167.13" clip-path="url(#p69f4214c2d)" fill="none" stroke="#000" stroke-linecap="square" stroke-width="1.5"/>
   </g>
   <g id="patch_3">
    <path d="m64.8 198.72v-198.5" fill="none" stroke="#000" stroke-linecap="square" stroke-width=".8"/>
   </g>
   <g id="patch_4">
    <path d="m280.8 198.72v-198.5" fill="none" stroke="#000" stroke-linecap="square" stroke-width=".8"/>
   </g>
   <g id="patch_5">
    <path d="m64.8 198.72h216" fill="none" stroke="#000" stroke-linecap="square" stroke-width=".8"/>
   </g>
   <g id="patch_6">
    <path d="m64.8 0.216h216" fill="none" stroke="#000" stroke-linecap="square" stroke-width=".8"/>
   </g>
   <g id="patch_7" fill="none" stroke="#000" stroke-linecap="round">
    <path d="m308.15 65.378q-53.995 1.3949-109.11 2.8186"/>
    <path d="m302.48 62.723 5.6704 2.6544-5.5258 2.9437"/>
   </g>
   <g id="text_3">
    <!-- $d(\mathbf{x}) &gt; 0$ -->
    <defs>
     <path id="STIXGeneral-Italic-100" d="m52.094 68.297 0.60938-0.59375-3.9062-15.203-6-21.906q-6.5-23.891-6.5-24.594 0-2 1.7969-2 1.3125 0 2.75 1.25 1.4531 1.25 5.4531 5.8438l1.2031-1q-7.7031-11.391-14.703-11.391-1.8906 0-3 1.2031-1.0938 1.1875-1.0938 3.2969 0 3 1.2969 8.8906-4.2969-7.2969-8.4531-10.25-4.1406-2.9375-9.3438-2.9375-5 0-7.8594 3.0469-2.8438 3.0469-2.8438 8.6406 0 11.906 9.6406 22.703 9.6562 10.797 19.562 10.797 3.0938 0 4.5469-1.4062 1.4531-1.3906 1.9531-4.3906h0.09375l4.5 16.297q1.4062 4.9062 1.4062 7.1094 0 1.5938-1.1094 1.9844-1.0938 0.40625-5.2969 0.60938v1.7031q7.7031 0.70312 15.297 2.2969zm-16.5-32.203q0 2.6094-1.4531 4.1562-1.4375 1.5469-3.2344 1.5469-4.7031 0-9.1094-4.5938-5-5.2969-8.2969-12.656-3.2969-7.3438-3.2969-13.547 0-3.4062 1.5469-5.3594 1.5469-1.9375 4.25-1.9375 4.5 0 9.0938 4.8906 4.6094 4.9062 7.5469 12.5 2.9531 7.6094 2.9531 15z"/>
     <path id="STIXGeneral-Regular-40" d="m30.406-16.094-1.2031-1.6094q-11.609 6.6094-18.016 18.203-6.3906 11.594-6.3906 24.703 0 27.703 24.703 42.391l0.90625-1.5938q-10.203-8.7031-13.609-17.156-3.3906-8.4375-3.3906-23.344 0-14.797 3.5-24t13.5-17.594z"/>
     <path id="STIXGeneral-Bold-120" d="m48.406 0h-24.109v2.4062q4.5 0.29688 4.5 2 0 1.5938-3.2969 6.3906-2.2969 3.2031-4.2031 6.2969-0.20312-0.1875-0.75-0.89062t-0.84375-1.1094q-6.4062-7.6875-6.4062-10.297 0-2.0938 5-2.3906v-2.4062h-16.891v2.4062q2.7969 0.1875 4.9375 1.9375 2.1562 1.75 6.3594 7.3594l4.2969 5.5938q0.5 0.60938 0.75 0.95312t0.34375 0.4375q0.10938 0.10938 0.35938 0.45312 0.25 0.35938 0.75 0.95312l-12.797 19.703q-1.5 2.2969-2.4062 2.9531t-2.7969 0.95312v2.3906h25v-2.3906q-4.7031-0.10938-4.7031-1.9062 0-2.2031 5.7969-9.7969 1-1.2031 1.2969-1.7031l3.6094 4.6094q3.7969 4.8906 3.7969 6.3906 0 1.1094-0.70312 1.5469-0.70312 0.45312-2.3906 0.65625l-2 0.20312v2.3906h16.797v-2.3906q-4.4062-0.70312-7-3.9062l-10.109-12.594 14.812-22.797q0.79688-1.3125 3-2z"/>
     <path id="STIXGeneral-Regular-41" d="m2.9062 66 1.1875 1.5938q11.406-6.7969 17.906-18.406 6.5-11.594 6.5-24.484 0-27.297-24.703-42.406l-0.89062 1.6094q10.297 8.5 13.641 16.938 3.3594 8.4531 3.3594 23.562 0 15.188-3.3594 24.344-3.3438 9.1562-13.641 17.25z"/>
     <path id="STIXGeneral-Regular-62" d="m62.094 24.906-56.5-27.312v6.3125l43.203 21.5-43.203 21.5v6.5l56.5-27.5z"/>
     <path id="STIXGeneral-Regular-48" d="m47.594 33q0-6.7031-1.2969-12.656-1.2969-5.9375-3.8438-10.938t-7.0469-7.9062-10.406-2.9062q-6.0938 0-10.703 3.0938-4.5938 3.1094-7.0938 8.3125t-3.6562 11.094q-1.1406 5.9062-1.1406 12.5 0 9.3125 2.2969 16.75 2.2969 7.4531 7.6406 12.344 5.3594 4.9062 13.062 4.9062 9.7969 0 15.984-9.5938 6.2031-9.5938 6.2031-25zm-9.5938-0.5q0 15.797-3.3594 24.141-3.3438 8.3594-9.8438 8.3594-6.2031 0-9.5-8.4062-3.2969-8.3906-3.2969-23.688 0-15.406 3.2969-23.562 3.2969-8.1406 9.7031-8.1406 6.2969 0 9.6406 8.1406 3.3594 8.1562 3.3594 23.156z"/>
    </defs>
    <g transform="translate(313.26 68.248) scale(.14 -.14)">
     <use transform="translate(0 .70312)" xlink:href="#STIXGeneral-Italic-100"/>
     <use transform="translate(50 .70312)" xlink:href="#STIXGeneral-Regular-40"/>
     <use transform="translate(83.3 .70312)" xlink:href="#STIXGeneral-Bold-120"/>
     <use transform="translate(133.3 .70312)" xlink:href="#STIXGeneral-Regular-41"/>
     <use transform="translate(181.04 .70312)" xlink:href="#STIXGeneral-Regular-62"/>
     <use transform="translate(263.98 .70312)" xlink:href="#STIXGeneral-Regular-48"/>
    </g>
   </g>
   <g id="patch_8" fill="none" stroke="#000" stroke-linecap="round">
    <path d="m308.14 190.6q-13.916 0.85589-28.949 1.7804"/>
    <path d="m302.38 188.15 5.7613 2.451-5.4176 3.1385"/>
   </g>
   <g id="text_4">
    <!-- $d(\mathbf{x}) &lt; 0$ -->
    <defs>
     <path id="STIXGeneral-Regular-60" d="m62.094-2.4062-56.5 27.312v1l56.5 27.5v-6.5l-43.188-21.5 43.188-21.5z"/>
    </defs>
    <g transform="translate(313.26 192.51) scale(.14 -.14)">
     <use transform="translate(0 .70312)" xlink:href="#STIXGeneral-Italic-100"/>
     <use transform="translate(50 .70312)" xlink:href="#STIXGeneral-Regular-40"/>
     <use transform="translate(83.3 .70312)" xlink:href="#STIXGeneral-Bold-120"/>
     <use transform="translate(133.3 .70312)" xlink:href="#STIXGeneral-Regular-41"/>
     <use transform="translate(181.04 .70312)" xlink:href="#STIXGeneral-Regular-60"/>
     <use transform="translate(263.98 .70312)" xlink:href="#STIXGeneral-Regular-48"/>
    </g>
   </g>
  </g>
 </g>
 <defs>
  <clipPath id="p69f4214c2d">
   <rect x="64.8" y=".216" width="216" height="198.5"/>
  </clipPath>
 </defs>
</svg>
