<svg version="1.1" xmlns="http://www.w3.org/2000/svg" xmlns:xlink="http://www.w3.org/1999/xlink" width="387" height="228"><defs><clipPath id="nTRWUBzTPBak"><path fill="none" stroke="none" d=" M 0 0 L 387 0 L 387 228 L 0 228 L 0 0 Z"/></clipPath></defs><g transform="scale(1,1)" clip-path="url(#nTRWUBzTPBak)"><g><path fill="none" stroke="rgb(0,0,0)" paint-order="fill stroke markers" d=" M 142.5 2.5 L 142.5 228.5" stroke-opacity="1" stroke-miterlimit="10"/><path fill="none" stroke="rgb(0,0,0)" paint-order="fill stroke markers" d=" M 142.5 1.5 L 136.5 7.5" stroke-opacity="1" stroke-miterlimit="10"/><path fill="none" stroke="rgb(0,0,0)" paint-order="fill stroke markers" d=" M 142.5 1.5 L 148.5 7.5" stroke-opacity="1" stroke-miterlimit="10"/><path fill="none" stroke="rgb(0,0,0)" paint-order="fill stroke markers" d=" M 0.5 179.5 L 385.5 179.5" stroke-opacity="1" stroke-miterlimit="10"/><path fill="none" stroke="rgb(0,0,0)" paint-order="fill stroke markers" d=" M 386.5 179.5 L 380.5 173.5" stroke-opacity="1" stroke-miterlimit="10"/><path fill="none" stroke="rgb(0,0,0)" paint-order="fill stroke markers" d=" M 386.5 179.5 L 380.5 185.5" stroke-opacity="1" stroke-miterlimit="10"/><path fill="none" stroke="rgb(0,0,0)" paint-order="fill stroke markers" d=" M 142.00000000000014 179.99999999999974 L 168.00000000000014 201.99999999999972" stroke-opacity="1" stroke-linejoin="round" stroke-miterlimit="10" stroke-dasharray="1,3"/><path fill="none" stroke="rgb(0,0,0)" paint-order="fill stroke markers" d=" M 242.0000000000001 29.999999999999915 L 269.0000000000001 48.999999999999886" stroke-opacity="1" stroke-linejoin="round" stroke-miterlimit="10" stroke-dasharray="1,3"/><path fill="none" stroke="rgb(0,153,204)" paint-order="fill stroke markers" d=" M 142.00000000000014 179.99999999999974 L 233.67949705662167 42.480754415067565" stroke-opacity="1" stroke-linecap="round" stroke-linejoin="round" stroke-miterlimit="10" stroke-width="1.5"/><path fill="rgb(0,153,204)" stroke="none" paint-order="stroke fill markers" fill-rule="evenodd" d=" M 242.0000000000001 29.999999999999915 L 236.79968566038858 44.560880150912176 L 230.55930845285476 40.400628679222955 Z" fill-opacity="1"/><g transform="scale(27,27) translate(6.401105067361058,3.823959942771761) rotate(-55,0,0) translate(-6.401105067361058,-3.823959942771761)"><g transform="translate(6.401105067361058,3.823959942771761)"><path fill="rgb(0,153,204)" stroke="none" paint-order="stroke fill markers" d=" M 0.374 -0.077 Q 0.331 0.006 0.225 0.006 Q 0.195 0.006 0.165 0.0015 Q 0.135 -0.003 0.10300000000000001 -0.0145 Q 0.07100000000000001 -0.026000000000000002 0.051500000000000004 -0.05 Q 0.032 -0.074 0.032 -0.108 Q 0.032 -0.251 0.357 -0.265 L 0.357 -0.299 Q 0.357 -0.417 0.247 -0.417 Q 0.20800000000000002 -0.417 0.17500000000000002 -0.41000000000000003 Q 0.197 -0.395 0.197 -0.361 Q 0.197 -0.331 0.178 -0.3145 Q 0.159 -0.298 0.134 -0.298 Q 0.111 -0.298 0.0915 -0.3145 Q 0.07200000000000001 -0.331 0.07200000000000001 -0.361 Q 0.07200000000000001 -0.453 0.251 -0.453 Q 0.359 -0.453 0.41500000000000004 -0.41100000000000003 Q 0.47100000000000003 -0.369 0.47100000000000003 -0.299 L 0.47100000000000003 -0.084 Q 0.47100000000000003 -0.07 0.47300000000000003 -0.064 Q 0.47500000000000003 -0.058 0.489 -0.0525 Q 0.503 -0.047 0.532 -0.047 Q 0.541 -0.047 0.545 -0.046 Q 0.549 -0.045 0.5535 -0.04 Q 0.558 -0.035 0.558 -0.024 Q 0.558 -0.013000000000000001 0.5535 -0.0075 Q 0.549 -0.002 0.5435 -0.001 Q 0.538 0 0.526 0 L 0.47800000000000004 0 Q 0.441 0 0.418 -0.007 Q 0.395 -0.014 0.3865 -0.028 Q 0.378 -0.042 0.376 -0.051500000000000004 Q 0.374 -0.061 0.374 -0.077 M 0.357 -0.234 Q 0.335 -0.233 0.3155 -0.2305 Q 0.296 -0.228 0.263 -0.2195 Q 0.23 -0.211 0.20700000000000002 -0.199 Q 0.184 -0.187 0.1665 -0.1635 Q 0.149 -0.14 0.149 -0.109 Q 0.149 -0.076 0.17550000000000002 -0.053 Q 0.202 -0.03 0.24 -0.03 Q 0.253 -0.03 0.2695 -0.034 Q 0.28600000000000003 -0.038 0.3075 -0.048 Q 0.329 -0.058 0.343 -0.082 Q 0.357 -0.106 0.357 -0.139 L 0.357 -0.234 Z"/></g><g transform="translate(6.401105067361058,3.823959942771761) rotate(55,0,0) translate(-6.401105067361058,-3.823959942771761)"/></g><path fill="none" stroke="rgb(0,0,0)" paint-order="fill stroke markers" d=" M 199.30368937816138 154.5795596548644 L 175.71285475898367 190.31617051361874" stroke-opacity="1" stroke-linecap="round" stroke-linejoin="round" stroke-miterlimit="10"/><path fill="rgb(0,0,0)" stroke="none" paint-order="stroke fill markers" fill-rule="evenodd" d=" M 168.00000000000014 201.99999999999972 L 172.79189738738842 188.38795682387286 L 178.63381213057892 192.24438420336463 Z" fill-opacity="1"/><path fill="none" stroke="rgb(0,0,0)" paint-order="fill stroke markers" d=" M 236.6024695031242 98.07744718833663 L 261.2871452410166 60.68382948638085" stroke-opacity="1" stroke-linecap="round" stroke-linejoin="round" stroke-miterlimit="10"/><path fill="rgb(0,0,0)" stroke="none" paint-order="stroke fill markers" fill-rule="evenodd" d=" M 269.0000000000001 48.999999999999886 L 264.20810261261187 62.61204317612673 L 258.36618786942137 58.75561579663497 Z" fill-opacity="1"/><path fill="rgb(0,0,0)" stroke="none" paint-order="stroke fill markers" d=" M 145.00000000000014 179.99999999999974 C 145.00000000000014 181.6568542494921 143.6568542494925 182.99999999999974 142.00000000000014 182.99999999999974 C 140.34314575050777 182.99999999999974 139.00000000000014 181.6568542494921 139.00000000000014 179.99999999999974 C 139.00000000000014 178.34314575050738 140.34314575050777 176.99999999999974 142.00000000000014 176.99999999999974 C 143.6568542494925 176.99999999999974 145.00000000000014 178.34314575050738 145.00000000000014 179.99999999999974 Z" fill-opacity="1"/><path fill="none" stroke="rgb(0,0,0)" paint-order="fill stroke markers" d=" M 145.00000000000014 179.99999999999974 C 145.00000000000014 181.6568542494921 143.6568542494925 182.99999999999974 142.00000000000014 182.99999999999974 C 140.34314575050777 182.99999999999974 139.00000000000014 181.6568542494921 139.00000000000014 179.99999999999974 C 139.00000000000014 178.34314575050738 140.34314575050777 176.99999999999974 142.00000000000014 176.99999999999974 C 143.6568542494925 176.99999999999974 145.00000000000014 178.34314575050738 145.00000000000014 179.99999999999974 Z" stroke-opacity="1" stroke-linecap="round" stroke-linejoin="round" stroke-miterlimit="10"/><path fill="rgb(0,0,0)" stroke="none" paint-order="stroke fill markers" d=" M 245.0000000000001 29.999999999999915 C 245.0000000000001 31.656854249492294 243.65685424949248 32.999999999999915 242.0000000000001 32.999999999999915 C 240.34314575050774 32.999999999999915 239.0000000000001 31.656854249492294 239.0000000000001 29.999999999999915 C 239.0000000000001 28.343145750507535 240.34314575050774 26.999999999999915 242.0000000000001 26.999999999999915 C 243.65685424949248 26.999999999999915 245.0000000000001 28.343145750507535 245.0000000000001 29.999999999999915 Z" fill-opacity="1"/><path fill="none" stroke="rgb(0,0,0)" paint-order="fill stroke markers" d=" M 245.0000000000001 29.999999999999915 C 245.0000000000001 31.656854249492294 243.65685424949248 32.999999999999915 242.0000000000001 32.999999999999915 C 240.34314575050774 32.999999999999915 239.0000000000001 31.656854249492294 239.0000000000001 29.999999999999915 C 239.0000000000001 28.343145750507535 240.34314575050774 26.999999999999915 242.0000000000001 26.999999999999915 C 243.65685424949248 26.999999999999915 245.0000000000001 28.343145750507535 245.0000000000001 29.999999999999915 Z" stroke-opacity="1" stroke-linecap="round" stroke-linejoin="round" stroke-miterlimit="10"/><g transform="scale(27,27) translate(7.910660329513041,5.576058700289879) rotate(-55,0,0) translate(-7.910660329513041,-5.576058700289879)"><g transform="translate(7.910660329513041,5.576058700289879)"><path fill="rgb(0,0,0)" stroke="none" paint-order="stroke fill markers" d=" M 0.159 -0.717 L 0.159 0.217 Q 0.159 0.249 0.139 0.25 Q 0.11900000000000001 0.25 0.11900000000000001 0.217 L 0.11900000000000001 -0.717 Q 0.11900000000000001 -0.749 0.139 -0.75 Q 0.159 -0.75 0.159 -0.717 Z"/></g><g transform="translate(8.188439329513042,5.576058700289879)"><path fill="rgb(0,0,0)" stroke="none" paint-order="stroke fill markers" d=" M 0.159 -0.717 L 0.159 0.217 Q 0.159 0.249 0.139 0.25 Q 0.11900000000000001 0.25 0.11900000000000001 0.217 L 0.11900000000000001 -0.717 Q 0.11900000000000001 -0.749 0.139 -0.75 Q 0.159 -0.75 0.159 -0.717 Z"/></g><g transform="translate(8.466218329513042,5.576058700289879)"><path fill="rgb(0,0,0)" stroke="none" paint-order="stroke fill markers" d=" M 0.374 -0.077 Q 0.331 0.006 0.225 0.006 Q 0.195 0.006 0.165 0.0015 Q 0.135 -0.003 0.10300000000000001 -0.0145 Q 0.07100000000000001 -0.026000000000000002 0.051500000000000004 -0.05 Q 0.032 -0.074 0.032 -0.108 Q 0.032 -0.251 0.357 -0.265 L 0.357 -0.299 Q 0.357 -0.417 0.247 -0.417 Q 0.20800000000000002 -0.417 0.17500000000000002 -0.41000000000000003 Q 0.197 -0.395 0.197 -0.361 Q 0.197 -0.331 0.178 -0.3145 Q 0.159 -0.298 0.134 -0.298 Q 0.111 -0.298 0.0915 -0.3145 Q 0.07200000000000001 -0.331 0.07200000000000001 -0.361 Q 0.07200000000000001 -0.453 0.251 -0.453 Q 0.359 -0.453 0.41500000000000004 -0.41100000000000003 Q 0.47100000000000003 -0.369 0.47100000000000003 -0.299 L 0.47100000000000003 -0.084 Q 0.47100000000000003 -0.07 0.47300000000000003 -0.064 Q 0.47500000000000003 -0.058 0.489 -0.0525 Q 0.503 -0.047 0.532 -0.047 Q 0.541 -0.047 0.545 -0.046 Q 0.549 -0.045 0.5535 -0.04 Q 0.558 -0.035 0.558 -0.024 Q 0.558 -0.013000000000000001 0.5535 -0.0075 Q 0.549 -0.002 0.5435 -0.001 Q 0.538 0 0.526 0 L 0.47800000000000004 0 Q 0.441 0 0.418 -0.007 Q 0.395 -0.014 0.3865 -0.028 Q 0.378 -0.042 0.376 -0.051500000000000004 Q 0.374 -0.061 0.374 -0.077 M 0.357 -0.234 Q 0.335 -0.233 0.3155 -0.2305 Q 0.296 -0.228 0.263 -0.2195 Q 0.23 -0.211 0.20700000000000002 -0.199 Q 0.184 -0.187 0.1665 -0.1635 Q 0.149 -0.14 0.149 -0.109 Q 0.149 -0.076 0.17550000000000002 -0.053 Q 0.202 -0.03 0.24 -0.03 Q 0.253 -0.03 0.2695 -0.034 Q 0.28600000000000003 -0.038 0.3075 -0.048 Q 0.329 -0.058 0.343 -0.082 Q 0.357 -0.106 0.357 -0.139 L 0.357 -0.234 Z"/></g><g transform="translate(9.025242329513041,5.576058700289879)"><path fill="rgb(0,0,0)" stroke="none" paint-order="stroke fill markers" d=" M 0.159 -0.717 L 0.159 0.217 Q 0.159 0.249 0.139 0.25 Q 0.11900000000000001 0.25 0.11900000000000001 0.217 L 0.11900000000000001 -0.717 Q 0.11900000000000001 -0.749 0.139 -0.75 Q 0.159 -0.75 0.159 -0.717 Z"/></g><g transform="translate(9.303021329513042,5.576058700289879)"><path fill="rgb(0,0,0)" stroke="none" paint-order="stroke fill markers" d=" M 0.159 -0.717 L 0.159 0.217 Q 0.159 0.249 0.139 0.25 Q 0.11900000000000001 0.25 0.11900000000000001 0.217 L 0.11900000000000001 -0.717 Q 0.11900000000000001 -0.749 0.139 -0.75 Q 0.159 -0.75 0.159 -0.717 Z"/></g><g transform="translate(7.910660329513041,5.576058700289879) rotate(55,0,0) translate(-7.910660329513041,-5.576058700289879)"/></g></g></g></svg>