<?xml version="1.0" encoding="UTF-8"?>
<!DOCTYPE svg  PUBLIC '-//W3C//DTD SVG 1.1//EN'  'http://www.w3.org/Graphics/SVG/1.1/DTD/svg11.dtd'>
<!-- Created with matplotlib (https://matplotlib.org/) -->
<svg width="432pt" height="216pt" version="1.1" viewBox="0 0 432 216" xmlns="http://www.w3.org/2000/svg" xmlns:xlink="http://www.w3.org/1999/xlink">
 <defs>
  <style type="text/css">*{stroke-linecap:butt;stroke-linejoin:round;}</style>
 </defs>
 <g id="figure_1">
  <g id="patch_1">
   <path d="m0 216h432v-216h-432z" fill="#fff"/>
  </g>
  <g id="axes_1">
   <g id="patch_2">
    <path d="m0.432 194.4h207.28v-194.18h-207.28z" fill="#fff"/>
   </g>
   <g id="PathCollection_1">
    <defs>
     <path id="m9811ee01b9" d="m0 3c0.79561 0 1.5587-0.3161 2.1213-0.87868 0.56258-0.56258 0.87868-1.3257 0.87868-2.1213s-0.3161-1.5587-0.87868-2.1213c-0.56258-0.56258-1.3257-0.87868-2.1213-0.87868s-1.5587 0.3161-2.1213 0.87868c-0.56258 0.56258-0.87868 1.3257-0.87868 2.1213s0.3161 1.5587 0.87868 2.1213c0.56258 0.56258 1.3257 0.87868 2.1213 0.87868z" stroke="#000" stroke-opacity=".8"/>
    </defs>
    <g clip-path="url(#p7b8cca4803)" fill="#0000ff" fill-opacity=".8" stroke="#000000" stroke-opacity=".8">
     <use x="9.853678" y="175.189283" xlink:href="#m9811ee01b9"/>
     <use x="14.449619" y="185.573455" xlink:href="#m9811ee01b9"/>
     <use x="19.04556" y="175.189283" xlink:href="#m9811ee01b9"/>
     <use x="23.6415" y="175.189283" xlink:href="#m9811ee01b9"/>
     <use x="23.6415" y="164.805112" xlink:href="#m9811ee01b9"/>
     <use x="23.6415" y="154.420941" xlink:href="#m9811ee01b9"/>
     <use x="28.237441" y="185.573455" xlink:href="#m9811ee01b9"/>
     <use x="28.237441" y="175.189283" xlink:href="#m9811ee01b9"/>
     <use x="28.237441" y="164.805112" xlink:href="#m9811ee01b9"/>
     <use x="32.833382" y="185.573455" xlink:href="#m9811ee01b9"/>
     <use x="32.833382" y="175.189283" xlink:href="#m9811ee01b9"/>
     <use x="32.833382" y="164.805112" xlink:href="#m9811ee01b9"/>
     <use x="32.833382" y="154.420941" xlink:href="#m9811ee01b9"/>
     <use x="37.429322" y="175.189283" xlink:href="#m9811ee01b9"/>
     <use x="37.429322" y="154.420941" xlink:href="#m9811ee01b9"/>
     <use x="37.429322" y="133.652599" xlink:href="#m9811ee01b9"/>
     <use x="42.025263" y="175.189283" xlink:href="#m9811ee01b9"/>
     <use x="42.025263" y="164.805112" xlink:href="#m9811ee01b9"/>
     <use x="42.025263" y="154.420941" xlink:href="#m9811ee01b9"/>
     <use x="42.025263" y="144.03677" xlink:href="#m9811ee01b9"/>
     <use x="51.217144" y="175.189283" xlink:href="#m9811ee01b9"/>
     <use x="51.217144" y="154.420941" xlink:href="#m9811ee01b9"/>
    </g>
   </g>
   <g id="PathCollection_2">
    <defs>
     <path id="mbb2a604035" d="m0 3c0.79561 0 1.5587-0.3161 2.1213-0.87868 0.56258-0.56258 0.87868-1.3257 0.87868-2.1213s-0.3161-1.5587-0.87868-2.1213c-0.56258-0.56258-1.3257-0.87868-2.1213-0.87868s-1.5587 0.3161-2.1213 0.87868c-0.56258 0.56258-0.87868 1.3257-0.87868 2.1213s0.3161 1.5587 0.87868 2.1213c0.56258 0.56258 1.3257 0.87868 2.1213 0.87868z" stroke="#000" stroke-opacity=".8"/>
    </defs>
    <g clip-path="url(#p7b8cca4803)" fill="#ff0000" fill-opacity=".8" stroke="#000000" stroke-opacity=".8">
     <use x="115.560313" y="92.115914" xlink:href="#mbb2a604035"/>
     <use x="101.772491" y="81.731743" xlink:href="#mbb2a604035"/>
     <use x="133.944076" y="92.115914" xlink:href="#mbb2a604035"/>
     <use x="129.348135" y="60.963401" xlink:href="#mbb2a604035"/>
     <use x="124.752194" y="92.115914" xlink:href="#mbb2a604035"/>
     <use x="138.540016" y="81.731743" xlink:href="#mbb2a604035"/>
     <use x="143.135957" y="81.731743" xlink:href="#mbb2a604035"/>
     <use x="143.135957" y="71.347572" xlink:href="#mbb2a604035"/>
     <use x="143.135957" y="50.57923" xlink:href="#mbb2a604035"/>
     <use x="147.731898" y="92.115914" xlink:href="#mbb2a604035"/>
     <use x="147.731898" y="71.347572" xlink:href="#mbb2a604035"/>
     <use x="147.731898" y="60.963401" xlink:href="#mbb2a604035"/>
     <use x="152.327838" y="92.115914" xlink:href="#mbb2a604035"/>
     <use x="152.327838" y="60.963401" xlink:href="#mbb2a604035"/>
     <use x="156.923779" y="71.347572" xlink:href="#mbb2a604035"/>
     <use x="156.923779" y="60.963401" xlink:href="#mbb2a604035"/>
     <use x="156.923779" y="40.195059" xlink:href="#mbb2a604035"/>
     <use x="161.51972" y="60.963401" xlink:href="#mbb2a604035"/>
     <use x="161.51972" y="60.963401" xlink:href="#mbb2a604035"/>
     <use x="166.11566" y="60.963401" xlink:href="#mbb2a604035"/>
     <use x="166.11566" y="71.347572" xlink:href="#mbb2a604035"/>
     <use x="166.11566" y="50.57923" xlink:href="#mbb2a604035"/>
     <use x="170.711601" y="60.963401" xlink:href="#mbb2a604035"/>
     <use x="170.711601" y="40.195059" xlink:href="#mbb2a604035"/>
     <use x="170.711601" y="29.810888" xlink:href="#mbb2a604035"/>
     <use x="175.307542" y="60.963401" xlink:href="#mbb2a604035"/>
     <use x="175.307542" y="50.57923" xlink:href="#mbb2a604035"/>
     <use x="175.307542" y="40.195059" xlink:href="#mbb2a604035"/>
     <use x="179.903482" y="71.347572" xlink:href="#mbb2a604035"/>
     <use x="179.903482" y="50.57923" xlink:href="#mbb2a604035"/>
     <use x="179.903482" y="40.195059" xlink:href="#mbb2a604035"/>
     <use x="179.903482" y="29.810888" xlink:href="#mbb2a604035"/>
     <use x="184.499423" y="9.042545" xlink:href="#mbb2a604035"/>
     <use x="189.095363" y="40.195059" xlink:href="#mbb2a604035"/>
     <use x="184.499423" y="50.57923" xlink:href="#mbb2a604035"/>
     <use x="193.691304" y="19.426717" xlink:href="#mbb2a604035"/>
     <use x="198.287245" y="29.810888" xlink:href="#mbb2a604035"/>
    </g>
   </g>
   <g id="matplotlib.axis_1">
    <g id="text_1">
     <!-- 轮廓线不相交 -->
     <defs>
      <path id="SimHei-36718" d="m27.344 36.719q-0.39062 9.7656-0.39062 14.062h7.8125q-0.39062-4.2969-0.39062-8.9844v-5.0781q5.8594 0 10.156 0.39062v-6.6406q-4.6875 0.39062-10.156 0.39062v-13.672q5.8594 0.78125 12.109 1.5625-0.78125-2.7344-0.78125-6.6406-3.125-0.39062-11.328-1.5625 0-8.9844 0.39062-21.094h-7.8125q0.39062 11.719 0.39062 20.703-15.625-2.3438-20.312-3.5156-1.5625 4.6875-2.3438 7.8125 5.4688 0.39062 22.656 1.9531v14.453q-4.6875 0-9.375-0.59375-4.6875-0.57812-9.375-1.75l-3.125 8.2031q2.7344 2.7344 5.4688 7.6094 2.7344 4.8906 6.25 14.266-4.6875 0-12.109-0.39062v7.0312q7.4219-0.39062 14.062-0.39062 1.9531 8.2031 3.125 14.453 4.2969-1.9531 8.5938-2.7344-2.3438-4.6875-4.6875-11.719h6.6406q7.8125 0 13.672 0.39062v-7.0312q-6.6406 0.39062-13.281 0.39062h-8.5938q-5.8594-14.453-10.156-21.875zm43.359 39.453-2.7344-3.125q7.8125-12.5 14.844-17.578t13.281-7.8125q-3.5156-3.9062-5.8594-7.4219-9.375 6.6406-15.234 12.891t-9.7656 13.281q-4.6875-8.2031-9.1875-14.453-4.4844-6.25-10.344-12.109-3.125 2.7344-7.4219 5.8594 5.0781 2.7344 9.1719 7.2188 4.1094 4.5 7.4219 10.359 3.3281 5.8594 6.8438 17.188 5.0781-2.7344 8.9844-4.2969zm-8.5938-30.859q-0.39062-7.0312-0.39062-12.5v-7.8125q9.375 5.4688 16.016 13.672 4.2969-5.0781 6.6406-6.6406-5.0781-2.7344-9.9688-6.4531-4.875-3.7031-12.688-7.6094v-14.062q0-4.6875 4.2969-4.6875h11.719q5.0781-0.78125 6.25 3.3125 1.1719 4.1094 1.1719 7.2344 5.8594-3.9062 8.5938-4.6875-3.5156-7.8125-5.4688-9.9531-1.9531-2.1562-6.6406-2.1562h-18.75q-8.2031 0-8.2031 7.4219v29.297q0 8.9844-0.39062 15.625z"/>
      <path id="SimHei-24275" d="m37.891 61.719q3.9062 0.78125 7.8125 1.9531 1.1719-4.6875 1.9531-8.5938 7.4219 0 12.891 0.39062v-5.8594q-5.4688 0.39062-10.156 0.39062h-15.234q-6.25 0-11.719-0.39062v5.8594q5.4688-0.39062 16.406-0.39062-0.39062 1.9531-1.9531 6.6406zm-4.2969-21.094v-5.4688h18.75v5.4688zm-6.6406-10.156q0.39062 3.9062 0.39062 7.0312t-0.39062 7.8125h32.031q-0.39062-3.5156-0.39062-7.625 0-4.0938 0.39062-7.2188zm-3.125-27.734-2.3438 6.25q10.547 0.78125 18.75 1.5625 0 3.125-1.1719 5.4688 5.8594 2.7344 9.375 5.0781h-11.328q-6.25 0-11.719-0.39062v5.8594q5.8594-0.39062 12.109-0.39062h21.094v-6.25q-3.5156-1.1719-11.719-5.8594v-2.7344q3.125 0.39062 12.891 1.5625l-0.78125-5.0781q-6.25-0.78125-12.109-1.5625v-7.0312q0.39062-5.0781-2.7344-6.6406t-9.7656-2.7344q-0.78125 3.9062-2.7344 7.4219 7.0312 0 7.8125 0.98438 0.78125 0.96875 0.78125 7.2188-9.7656-1.1719-16.406-2.7344zm52.344 28.125q2.3438 5.4688 8.5938 21.094h-12.109v-47.266q0-4.6875 0.39062-13.672h-7.0312q0.39062 8.5938 0.39062 13.672v39.844q0 7.0312-0.39062 12.5h27.734q-1.9531-3.5156-10.547-25.391 11.719-12.891 10.734-19.344-0.96875-6.4375-14.641-10.344-0.39062 1.5625-3.9062 8.2031 14.453-1.1719 10.344 6.6406-4.0938 7.8125-9.5625 14.062zm-29.688 47.656q3.125 0.78125 7.8125 1.9531 0.78125-2.7344 3.125-9.375h21.875q5.8594 0 14.453 0.39062v-6.6406q-8.2031 0.39062-14.453 0.39062h-58.984q0-33.203-0.59375-42.578-0.57812-9.375-2.3438-17.578-1.75-8.2031-4.875-14.453-2.7344 3.9062-7.0312 6.25 2.7344 4.2969 4.2969 9.9531 1.5625 5.6719 2.1406 12.703 0.59375 7.0312 0.78125 15.031 0.20312 8.0156-0.57812 36.531h37.109q-0.78125 2.3438-2.7344 7.4219z"/>
      <path id="SimHei-32447" d="m22.266 80.078q3.9062-2.7344 8.9844-4.2969-3.9062-3.5156-7.625-9.9688-3.7031-6.4375-9.5625-15.812 8.9844 0.39062 12.5 0.39062 3.5156 5.8594 5.8594 12.891 3.9062-2.7344 8.5938-4.2969-3.9062-3.9062-7.8125-10.547t-14.062-22.656q10.547 0.78125 18.359 1.5625-1.1719-3.9062-1.1719-6.6406-2.7344 0-11.719-0.98438-8.9844-0.96875-14.844-2.5312-0.39062 3.9062-2.3438 8.2031 4.6875 1.1719 8.3906 6.25 3.7188 5.0781 8.0156 12.891-12.5-0.78125-16.016-3.125-1.1719 4.2969-3.125 8.5938 4.6875 3.5156 9.375 11.516 4.6875 8.0156 8.2031 18.562zm-16.797-73.047q10.547 1.1719 16.203 2.1406 5.6719 0.98438 18.953 4.1094-0.39062-4.2969 0-6.6406-9.375-1.9531-17-3.9062-7.6094-1.9531-14.25-4.2969-1.1719 4.2969-3.9062 8.5938zm75.781 59.375q-3.5156-1.5625-6.25-3.9062-2.7344 4.2969-7.0312 10.156 2.7344 1.5625 5.8594 3.125 1.5625-1.9531 7.4219-9.375zm-42.188-14.453q3.9062 0 14.844 2.3438 0 7.0312 0 12.688 0 5.6719-1.1719 12.703 4.6875-0.39062 10.156-1.1719-1.1719-2.3438-1.5625-7.625-0.39062-5.2656 0-15.031l12.891 2.3438q6.6406 1.5625 12.891 3.5156l1.5625-7.4219q-6.6406-0.78125-13.281-1.9531l-13.672-2.7344q0-6.25 0.78125-10.938l14.844 2.7344q7.4219 1.5625 14.453 3.9062l1.1719-7.4219q-7.0312-1.1719-14.453-2.7344l-14.844-2.7344q0.78125-7.8125 3.9062-14.453 3.125 2.7344 6.4375 6.25 3.3281 3.5156 6.0625 7.8125 5.4688-4.6875 8.5938-6.25-5.0781-2.3438-7.8125-5.2812-2.7344-2.9219-9.375-9.1719 4.6875-7.8125 8.2031-9.9688 3.5156-2.1406 5.0781-0.1875t2.7344 8.2031q3.5156-2.7344 7.8125-4.2969-6.25-17.188-13.875-13.859-7.6094 3.3125-15.812 15.422-5.4688-4.2969-10.547-8-5.0781-3.7188-12.5-7.625-1.9531 3.9062-5.8594 7.0312 7.4219 2.7344 12.891 5.8594t12.109 8.9844q-3.5156 7.8125-5.0781 18.359-11.328-1.9531-15.625-3.5156l-1.1719 7.4219q4.2969 0 15.625 2.3438-0.78125 6.25-0.78125 10.547-10.547-2.3438-14.062-3.5156z"/>
      <path id="SimHei-19981" d="m81.641 74.219q5.0781 0 10.938 0.78125v-8.5938q-5.4688 0.78125-10.547 0.78125h-20.312q-3.9062-9.7656-8.5938-17.578v-44.922q0-6.25 0.78125-12.109h-9.375q0.78125 5.4688 0.78125 12.109v36.328q-16.016-16.797-32.031-26.562-3.5156 5.4688-7.0312 7.4219 9.7656 3.125 23.438 14.453t22.656 30.859h-30.078q-7.4219 0-14.062-0.39062v8.2031q10.156-0.78125 16.406-0.78125zm12.109-52.344q-5.4688-3.5156-7.8125-6.6406-6.25 7.8125-26.172 26.953 3.9062 2.3438 6.6406 5.8594 10.547-9.375 15.031-14.062 4.5-4.6875 12.312-12.109z"/>
      <path id="SimHei-30456" d="m7.0312 58.594q6.6406-0.39062 13.281-0.39062 0 15.234-0.39062 20.312h8.2031q-0.39062-5.4688-0.39062-20.312 8.2031 0 13.281 0.39062v-6.6406q-4.6875 0.39062-13.281 0.39062v-14.844q3.125 1.9531 5.4688 4.6875 5.0781-6.6406 8.9844-13.281-2.7344-1.1719-6.25-4.2969-2.7344 5.4688-8.2031 13.281v-29.297q0-6.25 0.39062-16.406h-8.2031q0.39062 10.156 0.39062 16.016v25.391q-1.5625-4.6875-4.2969-10.359-2.7344-5.6562-6.25-12.297-2.7344 5.4688-5.4688 7.8125 2.3438 3.125 5.4688 8.2031t5.4688 12.109 4.2969 13.281q-7.4219 0-12.5-0.39062zm47.266-35.156v-17.578h28.125v17.578zm0 21.094v-15.234h28.125v15.234zm0 22.266v-16.406h28.125v16.406zm-7.8125 5.8594h43.75q-0.39062-8.5938-0.39062-17.969v-42.578q0-9.375 0.39062-19.141h-7.8125v7.0312h-28.125v-7.8125h-7.8125q0.39062 11.328 0.39062 19.141v43.75q0 9.375-0.39062 17.578z"/>
      <path id="SimHei-20132" d="m34.766 57.422q3.5156-2.7344 7.4219-5.8594-5.8594-5.4688-22.656-20.703-2.7344 3.9062-6.6406 6.25 6.6406 3.9062 12.297 9.5625 5.6719 5.6719 9.5781 10.75zm24.219-7.0312q3.125 3.125 6.25 5.8594 1.9531-1.5625 8.5938-6.6406t12.5-9.7656q-3.9062-3.125-6.6406-6.6406-3.5156 4.6875-20.703 17.188zm-28.516-15.625q3.9062 1.1719 7.4219 3.125 5.8594-16.406 11.719-23.047 10.156 10.547 13.672 23.047 3.9062-3.125 8.5938-5.4688-7.4219-11.328-16.797-22.266 16.797-8.5938 35.547-8.2031-3.5156-5.8594-4.2969-9.375-19.531 2.7344-37.109 12.891-16.406-9.375-37.5-13.672-1.9531 5.0781-5.0781 8.5938 17.578 0.78125 36.719 9.7656-8.2031 10.547-12.891 24.609zm13.672 43.359q4.2969 1.5625 8.9844 2.7344 1.1719-3.125 1.75-5.0781 0.59375-1.9531 1.7656-4.6875-5.0781-1.1719-9.375-2.3438-0.78125 3.5156-3.125 9.375zm45.312-17.969q-6.25 0.39062-12.109 0.78125h-56.641q-5.4688 0-10.547-0.39062v7.8125q5.0781-0.39062 10.156-0.78125h57.031q5.8594 0.39062 12.109 0.78125z"/>
     </defs>
     <g transform="translate(62.07 209.61) scale(.14 -.14)">
      <use xlink:href="#SimHei-36718"/>
      <use x="100" xlink:href="#SimHei-24275"/>
      <use x="200" xlink:href="#SimHei-32447"/>
      <use x="300" xlink:href="#SimHei-19981"/>
      <use x="400" xlink:href="#SimHei-30456"/>
      <use x="500" xlink:href="#SimHei-20132"/>
     </g>
    </g>
   </g>
   <g id="line2d_1">
    <path d="m37.429 133.65-27.576 41.537" clip-path="url(#p7b8cca4803)" fill="none" stroke="#00f" stroke-linecap="square" stroke-width="1.5"/>
   </g>
   <g id="line2d_2">
    <path d="m51.217 154.42v20.768" clip-path="url(#p7b8cca4803)" fill="none" stroke="#00f" stroke-linecap="square" stroke-width="1.5"/>
   </g>
   <g id="line2d_3">
    <path d="m51.217 154.42-13.788-20.768" clip-path="url(#p7b8cca4803)" fill="none" stroke="#00f" stroke-linecap="square" stroke-width="1.5"/>
   </g>
   <g id="line2d_4">
    <path d="m14.45 185.57-4.5959-10.384" clip-path="url(#p7b8cca4803)" fill="none" stroke="#00f" stroke-linecap="square" stroke-width="1.5"/>
   </g>
   <g id="line2d_5">
    <path d="m32.833 185.57 18.384-10.384" clip-path="url(#p7b8cca4803)" fill="none" stroke="#00f" stroke-linecap="square" stroke-width="1.5"/>
   </g>
   <g id="line2d_6">
    <path d="m32.833 185.57h-18.384" clip-path="url(#p7b8cca4803)" fill="none" stroke="#00f" stroke-linecap="square" stroke-width="1.5"/>
   </g>
   <g id="line2d_7">
    <path d="m184.5 9.0425-82.727 72.689" clip-path="url(#p7b8cca4803)" fill="none" stroke="#f00" stroke-linecap="square" stroke-width="1.5"/>
   </g>
   <g id="line2d_8">
    <path d="m193.69 19.427 4.5959 10.384" clip-path="url(#p7b8cca4803)" fill="none" stroke="#f00" stroke-linecap="square" stroke-width="1.5"/>
   </g>
   <g id="line2d_9">
    <path d="m193.69 19.427-9.1919-10.384" clip-path="url(#p7b8cca4803)" fill="none" stroke="#f00" stroke-linecap="square" stroke-width="1.5"/>
   </g>
   <g id="line2d_10">
    <path d="m115.56 92.116-13.788-10.384" clip-path="url(#p7b8cca4803)" fill="none" stroke="#f00" stroke-linecap="square" stroke-width="1.5"/>
   </g>
   <g id="line2d_11">
    <path d="m115.56 92.116h36.768" clip-path="url(#p7b8cca4803)" fill="none" stroke="#f00" stroke-linecap="square" stroke-width="1.5"/>
   </g>
   <g id="line2d_12">
    <path d="m179.9 71.348 18.384-41.537" clip-path="url(#p7b8cca4803)" fill="none" stroke="#f00" stroke-linecap="square" stroke-width="1.5"/>
   </g>
   <g id="line2d_13">
    <path d="m179.9 71.348-27.576 20.768" clip-path="url(#p7b8cca4803)" fill="none" stroke="#f00" stroke-linecap="square" stroke-width="1.5"/>
   </g>
   <g id="patch_3">
    <path d="m0.432 194.4v-194.18" fill="none" stroke="#000" stroke-linecap="square" stroke-width=".8"/>
   </g>
   <g id="patch_4">
    <path d="m207.71 194.4v-194.18" fill="none" stroke="#000" stroke-linecap="square" stroke-width=".8"/>
   </g>
   <g id="patch_5">
    <path d="m0.432 194.4h207.28" fill="none" stroke="#000" stroke-linecap="square" stroke-width=".8"/>
   </g>
   <g id="patch_6">
    <path d="m0.432 0.216h207.28" fill="none" stroke="#000" stroke-linecap="square" stroke-width=".8"/>
   </g>
  </g>
  <g id="axes_2">
   <g id="patch_7">
    <path d="m224.29 194.4h207.28v-194.18h-207.28z" fill="#fff"/>
   </g>
   <g id="PathCollection_3">
    <g clip-path="url(#p47435f6bce)" fill="#0000ff" fill-opacity=".8" stroke="#000000" stroke-opacity=".8">
     <use x="233.712755" y="173.804727" xlink:href="#m9811ee01b9"/>
     <use x="248.207645" y="185.573455" xlink:href="#m9811ee01b9"/>
     <use x="257.870905" y="185.573455" xlink:href="#m9811ee01b9"/>
     <use x="262.702535" y="150.267273" xlink:href="#m9811ee01b9"/>
     <use x="267.534165" y="185.573455" xlink:href="#m9811ee01b9"/>
     <use x="272.365795" y="173.804727" xlink:href="#m9811ee01b9"/>
     <use x="277.197424" y="173.804727" xlink:href="#m9811ee01b9"/>
     <use x="277.197424" y="162.036" xlink:href="#m9811ee01b9"/>
     <use x="277.197424" y="138.498545" xlink:href="#m9811ee01b9"/>
     <use x="282.029054" y="185.573455" xlink:href="#m9811ee01b9"/>
     <use x="282.029054" y="162.036" xlink:href="#m9811ee01b9"/>
     <use x="282.029054" y="150.267273" xlink:href="#m9811ee01b9"/>
     <use x="286.860684" y="185.573455" xlink:href="#m9811ee01b9"/>
     <use x="286.860684" y="150.267273" xlink:href="#m9811ee01b9"/>
     <use x="291.692314" y="162.036" xlink:href="#m9811ee01b9"/>
     <use x="291.692314" y="150.267273" xlink:href="#m9811ee01b9"/>
     <use x="291.692314" y="126.729818" xlink:href="#m9811ee01b9"/>
     <use x="296.523944" y="150.267273" xlink:href="#m9811ee01b9"/>
     <use x="301.355574" y="162.036" xlink:href="#m9811ee01b9"/>
     <use x="301.355574" y="150.267273" xlink:href="#m9811ee01b9"/>
     <use x="301.355574" y="138.498545" xlink:href="#m9811ee01b9"/>
     <use x="306.187204" y="150.267273" xlink:href="#m9811ee01b9"/>
     <use x="306.187204" y="126.729818" xlink:href="#m9811ee01b9"/>
     <use x="306.187204" y="114.961091" xlink:href="#m9811ee01b9"/>
     <use x="306.187204" y="103.192364" xlink:href="#m9811ee01b9"/>
     <use x="311.018834" y="150.267273" xlink:href="#m9811ee01b9"/>
     <use x="311.018834" y="138.498545" xlink:href="#m9811ee01b9"/>
     <use x="311.018834" y="126.729818" xlink:href="#m9811ee01b9"/>
     <use x="315.850464" y="162.036" xlink:href="#m9811ee01b9"/>
     <use x="315.850464" y="138.498545" xlink:href="#m9811ee01b9"/>
     <use x="315.850464" y="126.729818" xlink:href="#m9811ee01b9"/>
     <use x="315.850464" y="114.961091" xlink:href="#m9811ee01b9"/>
     <use x="325.513724" y="91.423636" xlink:href="#m9811ee01b9"/>
     <use x="325.513724" y="67.886182" xlink:href="#m9811ee01b9"/>
     <use x="330.345353" y="126.729818" xlink:href="#m9811ee01b9"/>
     <use x="330.345353" y="103.192364" xlink:href="#m9811ee01b9"/>
     <use x="330.345353" y="67.886182" xlink:href="#m9811ee01b9"/>
     <use x="335.176983" y="126.729818" xlink:href="#m9811ee01b9"/>
     <use x="335.176983" y="114.961091" xlink:href="#m9811ee01b9"/>
    </g>
   </g>
   <g id="PathCollection_4">
    <g clip-path="url(#p47435f6bce)" fill="#ff0000" fill-opacity=".8" stroke="#000000" stroke-opacity=".8">
     <use x="320.682094" y="138.498545" xlink:href="#mbb2a604035"/>
     <use x="320.682094" y="91.423636" xlink:href="#mbb2a604035"/>
     <use x="325.513724" y="126.729818" xlink:href="#mbb2a604035"/>
     <use x="330.345353" y="79.654909" xlink:href="#mbb2a604035"/>
     <use x="335.176983" y="91.423636" xlink:href="#mbb2a604035"/>
     <use x="335.176983" y="79.654909" xlink:href="#mbb2a604035"/>
     <use x="335.176983" y="67.886182" xlink:href="#mbb2a604035"/>
     <use x="335.176983" y="32.58" xlink:href="#mbb2a604035"/>
     <use x="335.176983" y="20.811273" xlink:href="#mbb2a604035"/>
     <use x="340.008613" y="67.886182" xlink:href="#mbb2a604035"/>
     <use x="340.008613" y="32.58" xlink:href="#mbb2a604035"/>
     <use x="344.840243" y="79.654909" xlink:href="#mbb2a604035"/>
     <use x="344.840243" y="32.58" xlink:href="#mbb2a604035"/>
     <use x="349.671873" y="56.117455" xlink:href="#mbb2a604035"/>
     <use x="349.671873" y="32.58" xlink:href="#mbb2a604035"/>
     <use x="354.503503" y="91.423636" xlink:href="#mbb2a604035"/>
     <use x="354.503503" y="56.117455" xlink:href="#mbb2a604035"/>
     <use x="359.335133" y="138.498545" xlink:href="#mbb2a604035"/>
     <use x="359.335133" y="91.423636" xlink:href="#mbb2a604035"/>
     <use x="359.335133" y="56.117455" xlink:href="#mbb2a604035"/>
     <use x="359.335133" y="44.348727" xlink:href="#mbb2a604035"/>
     <use x="359.335133" y="20.811273" xlink:href="#mbb2a604035"/>
     <use x="364.166763" y="56.117455" xlink:href="#mbb2a604035"/>
     <use x="364.166763" y="32.58" xlink:href="#mbb2a604035"/>
     <use x="364.166763" y="9.042545" xlink:href="#mbb2a604035"/>
     <use x="368.998393" y="114.961091" xlink:href="#mbb2a604035"/>
     <use x="368.998393" y="91.423636" xlink:href="#mbb2a604035"/>
     <use x="368.998393" y="44.348727" xlink:href="#mbb2a604035"/>
     <use x="373.830023" y="56.117455" xlink:href="#mbb2a604035"/>
     <use x="373.830023" y="32.58" xlink:href="#mbb2a604035"/>
     <use x="378.661653" y="91.423636" xlink:href="#mbb2a604035"/>
     <use x="378.661653" y="9.042545" xlink:href="#mbb2a604035"/>
     <use x="383.493282" y="79.654909" xlink:href="#mbb2a604035"/>
     <use x="383.493282" y="32.58" xlink:href="#mbb2a604035"/>
     <use x="383.493282" y="9.042545" xlink:href="#mbb2a604035"/>
     <use x="393.156542" y="91.423636" xlink:href="#mbb2a604035"/>
     <use x="397.988172" y="67.886182" xlink:href="#mbb2a604035"/>
     <use x="407.651432" y="56.117455" xlink:href="#mbb2a604035"/>
     <use x="412.483062" y="67.886182" xlink:href="#mbb2a604035"/>
     <use x="412.483062" y="44.348727" xlink:href="#mbb2a604035"/>
     <use x="422.146322" y="32.58" xlink:href="#mbb2a604035"/>
    </g>
   </g>
   <g id="matplotlib.axis_3">
    <g id="text_2">
     <!-- 轮廓线相交 -->
     <g transform="translate(292.93 209.61) scale(.14 -.14)">
      <use xlink:href="#SimHei-36718"/>
      <use x="100" xlink:href="#SimHei-24275"/>
      <use x="200" xlink:href="#SimHei-32447"/>
      <use x="300" xlink:href="#SimHei-30456"/>
      <use x="400" xlink:href="#SimHei-20132"/>
     </g>
    </g>
   </g>
   <g id="line2d_14">
    <path d="m325.51 67.886-91.801 105.92" clip-path="url(#p47435f6bce)" fill="none" stroke="#00f" stroke-linecap="square" stroke-width="1.5"/>
   </g>
   <g id="line2d_15">
    <path d="m330.35 67.886h-4.8316" clip-path="url(#p47435f6bce)" fill="none" stroke="#00f" stroke-linecap="square" stroke-width="1.5"/>
   </g>
   <g id="line2d_16">
    <path d="m248.21 185.57-14.495-11.769" clip-path="url(#p47435f6bce)" fill="none" stroke="#00f" stroke-linecap="square" stroke-width="1.5"/>
   </g>
   <g id="line2d_17">
    <path d="m248.21 185.57h38.653" clip-path="url(#p47435f6bce)" fill="none" stroke="#00f" stroke-linecap="square" stroke-width="1.5"/>
   </g>
   <g id="line2d_18">
    <path d="m315.85 162.04 19.327-35.306" clip-path="url(#p47435f6bce)" fill="none" stroke="#00f" stroke-linecap="square" stroke-width="1.5"/>
   </g>
   <g id="line2d_19">
    <path d="m315.85 162.04-28.99 23.537" clip-path="url(#p47435f6bce)" fill="none" stroke="#00f" stroke-linecap="square" stroke-width="1.5"/>
   </g>
   <g id="line2d_20">
    <path d="m335.18 114.96v11.769" clip-path="url(#p47435f6bce)" fill="none" stroke="#00f" stroke-linecap="square" stroke-width="1.5"/>
   </g>
   <g id="line2d_21">
    <path d="m335.18 114.96-4.8316-47.075" clip-path="url(#p47435f6bce)" fill="none" stroke="#00f" stroke-linecap="square" stroke-width="1.5"/>
   </g>
   <g id="line2d_22">
    <path d="m335.18 20.811 28.99-11.769" clip-path="url(#p47435f6bce)" fill="none" stroke="#f00" stroke-linecap="square" stroke-width="1.5"/>
   </g>
   <g id="line2d_23">
    <path d="m359.34 138.5h-38.653" clip-path="url(#p47435f6bce)" fill="none" stroke="#f00" stroke-linecap="square" stroke-width="1.5"/>
   </g>
   <g id="line2d_24">
    <path d="m383.49 9.0425 38.653 23.537" clip-path="url(#p47435f6bce)" fill="none" stroke="#f00" stroke-linecap="square" stroke-width="1.5"/>
   </g>
   <g id="line2d_25">
    <path d="m383.49 9.0425h-19.327" clip-path="url(#p47435f6bce)" fill="none" stroke="#f00" stroke-linecap="square" stroke-width="1.5"/>
   </g>
   <g id="line2d_26">
    <path d="m320.68 91.424v47.075" clip-path="url(#p47435f6bce)" fill="none" stroke="#f00" stroke-linecap="square" stroke-width="1.5"/>
   </g>
   <g id="line2d_27">
    <path d="m320.68 91.424 14.495-70.612" clip-path="url(#p47435f6bce)" fill="none" stroke="#f00" stroke-linecap="square" stroke-width="1.5"/>
   </g>
   <g id="line2d_28">
    <path d="m412.48 67.886 9.6633-35.306" clip-path="url(#p47435f6bce)" fill="none" stroke="#f00" stroke-linecap="square" stroke-width="1.5"/>
   </g>
   <g id="line2d_29">
    <path d="m412.48 67.886-53.148 70.612" clip-path="url(#p47435f6bce)" fill="none" stroke="#f00" stroke-linecap="square" stroke-width="1.5"/>
   </g>
   <g id="patch_8">
    <path d="m224.29 194.4v-194.18" fill="none" stroke="#000" stroke-linecap="square" stroke-width=".8"/>
   </g>
   <g id="patch_9">
    <path d="m431.57 194.4v-194.18" fill="none" stroke="#000" stroke-linecap="square" stroke-width=".8"/>
   </g>
   <g id="patch_10">
    <path d="m224.29 194.4h207.28" fill="none" stroke="#000" stroke-linecap="square" stroke-width=".8"/>
   </g>
   <g id="patch_11">
    <path d="m224.29 0.216h207.28" fill="none" stroke="#000" stroke-linecap="square" stroke-width=".8"/>
   </g>
  </g>
 </g>
 <defs>
  <clipPath id="p7b8cca4803">
   <rect x=".432" y=".216" width="207.28" height="194.18"/>
  </clipPath>
  <clipPath id="p47435f6bce">
   <rect x="224.29" y=".216" width="207.28" height="194.18"/>
  </clipPath>
 </defs>
</svg>
