<?xml version="1.0" encoding="UTF-8"?>
<!DOCTYPE svg  PUBLIC '-//W3C//DTD SVG 1.1//EN'  'http://www.w3.org/Graphics/SVG/1.1/DTD/svg11.dtd'>
<!-- Created with matplotlib (https://matplotlib.org/) -->
<svg width="216pt" height="216pt" version="1.1" viewBox="0 0 216 216" xmlns="http://www.w3.org/2000/svg" xmlns:xlink="http://www.w3.org/1999/xlink">
 <defs>
  <style type="text/css">*{stroke-linecap:butt;stroke-linejoin:round;}</style>
 </defs>
 <g id="figure_1">
  <g id="patch_1">
   <path d="m0 216h216v-216h-216z" fill="#fff"/>
  </g>
  <g id="axes_1">
   <g id="patch_2">
    <path d="m0.216 215.78h215.57v-215.57h-215.57z" fill="#fff"/>
   </g>
   <g id="PathCollection_1">
    <path d="m43.453 215.78h0.61767 0.61767 0.61767 0.61767 0.61767 0.61767 0.61767 0.61767 0.61767 0.61767 0.61767 0.61767 0.61767 0.61767 0.61767 0.61767 0.61767 0.61767 0.61767 0.61767 0.61767 0.61767 0.61767 0.61767 0.61767 0.61767 0.61767 0.61767 0.61767 0.61767 0.61767 0.61767 0.61767 0.61767 0.61767 0.61767 0.61767 0.61767 0.61767 0.61767 0.61767 0.61767 0.61767 0.61767 0.61767 0.61767 0.61767 0.61767 0.61767 0.61767 0.61767 0.61767 0.61767 0.61767 0.61767 0.61767 0.61767 0.61767 0.61767 0.61767 0.61767 0.61767 0.61767 0.61767 0.61767 0.61767 0.61767 0.61767 0.61767 0.61767 0.61767 0.61767 0.61767 0.61767 0.61767 0.61767 0.61767 0.61767 0.61767 0.61767 0.61767 0.61767 0.61767 0.61767 0.61767 0.61767 0.61767 0.61767 0.61767 0.61767 0.61767 0.61767 0.61767 0.61767 0.61767 0.61767 0.61767 0.61767 0.61767 0.61767 0.61767 0.61767 0.61767 0.61767 0.61767 0.61767 0.61767 0.61767 0.61767 0.61767 0.61767 0.61767 0.61767 0.61767 0.61767 0.61767 0.61767 0.61767 0.61767 0.61767 0.61767 0.61767 0.61767 0.61767 0.61767 0.61767 0.61767 0.61767 0.61767 0.61767 0.61767 0.61767 0.61767 0.61767 0.61767 0.61767 0.61767 0.61767 0.61767 0.61767 0.61767 0.61767 0.61767 0.61767 0.61767 0.61767 0.61767 0.61767 0.61767 0.61767 0.61767 0.61767 0.61767 0.61767 0.61767 0.61767 0.61767 0.61767 0.61767 0.61767 0.61767 0.61767 0.61767 0.61767 0.61767 0.61767 0.61767 0.61767 0.61767 0.61767 0.61767 0.61767 0.61767 0.61767 0.61767 0.61767 0.61767 0.61767 0.61767 0.61767 0.61767 0.61767 0.61767 0.61767 0.61767 0.61767 0.61767 0.61767 0.61767 0.61767 0.61767 0.61767 0.61767 0.61767 0.61767 0.61767 0.61767 0.61767 0.61767 0.61767 0.61767 0.61767 0.61767 0.61767 0.61767 0.61767 0.61767 0.61767 0.61767 0.61767 0.61767 0.61767 0.61767 0.61767 0.61767 0.61767 0.61767 0.61767 0.61767 0.61767 0.61767 0.61767 0.61767 0.61767 0.61767 0.61767 0.61767 0.61767 0.61767 0.61767 0.61767 0.61767 0.61767 0.61767 0.61767 0.61767 0.61767 0.61767 0.61767 0.61767 0.61767 0.61767 0.61767 0.61767 0.61767 0.61767 0.61767 0.61767 0.61767 0.61767 0.61767 0.61767 0.61767 0.61767 0.61767 0.61767 0.61767 0.61767 0.61767 0.61767 0.61767 0.61767 0.61767 0.61767 0.61767 0.61767 0.61767 0.61767 0.61767 0.61767 0.61767 0.61767 0.61767 0.61767 0.61767 0.61767 0.61767 0.61767 0.61767v-0.54027-0.54027-0.54027-0.54027-0.54027-0.54027-0.54027-0.54027-0.54027-0.54027-0.54027-0.54027-0.54027-0.54027-0.54027-0.54027-0.54027-0.54027-0.54027-0.54027-0.54027-0.54027-0.54027-0.54027-0.54027-0.54027-0.54027-0.54027-0.54027-0.54027-0.54027-0.54027-0.54027-0.54027-0.54027-0.54027-0.54027-0.54027-0.54027-0.54027-0.54027-0.54027-0.54027-0.54027-0.54027-0.54027-0.54027-0.54027-0.54027-0.54027-0.54027-0.54027-0.54027-0.54027-0.54027-0.54027-0.54027-0.54027-0.54027-0.54027-0.54027-0.54027-0.54027-0.54027-0.54027-0.54027-0.54027-0.54027-0.54027-0.54027-0.54027-0.54027-0.54027-0.54027-0.54027-0.54027-0.54027-0.54027-0.54027-0.54027-0.54027-0.54027-0.54027-0.54027-0.54027-0.54027-0.54027-0.54027-0.54027-0.54027-0.54027-0.54027-0.54027-0.54027-0.54027-0.54027-0.54027-0.54027-0.54027-0.54027-0.54027-0.54027-0.54027-0.54027-0.54027-0.54027-0.54027-0.54027-0.54027-0.54027-0.54027-0.54027-0.54027-0.54027-0.54027-0.54027-0.54027-0.54027-0.54027-0.54027-0.54027-0.54027-0.54027-0.54027-0.54027-0.54027-0.54027-0.54027-0.54027-0.54027-0.54027-0.54027-0.54027-0.54027-0.54027-0.54027-0.54027-0.54027-0.54027-0.54027-0.54027-0.54027-0.54027-0.54027-0.54027-0.54027-0.54027-0.54027-0.54027-0.54027-0.54027-0.54027-0.54027-0.54027-0.54027-0.54027-0.54027-0.54027-0.54027-0.54027-0.54027-0.54027-0.54027-0.54027-0.54027-0.54027-0.54027-0.54027-0.54027-0.54027-0.54027-0.54027-0.54027-0.54027-0.54027-0.54027-0.54027-0.54027-0.54027-0.54027-0.54027-0.54027-0.54027-0.54027-0.54027-0.54027-0.54027-0.54027-0.54027-0.54027-0.54027-0.54027-0.54027-0.54027-0.54027-0.54027-0.54027-0.54027-0.54027-0.54027-0.54027-0.54027-0.54027-0.54027-0.54027-0.54027-0.54027-0.54027-0.54027-0.54027-0.54027-0.54027-0.54027-0.54027-0.54027-0.54027-0.54027-0.54027-0.54027-0.54027-0.54027-0.54027-0.54027-0.54027-0.54027-0.54027-0.54027-0.54027-0.54027-0.54027-0.54027-0.54027-0.54027-0.54027-0.54027-0.54027-0.54027-0.54027-0.54027-0.54027-0.54027-0.54027-0.54027-0.54027-0.54027-0.54027-0.54027-0.54027-0.54027-0.54027-0.54027-0.54027-0.54027-0.54027-0.54027-0.54027-0.54027-0.54027-0.54027-0.54027-0.54027-0.54027-0.54027-0.54027-0.54027-0.54027-0.54027-0.54027-0.54027-0.54027-0.54027-0.54027-0.54027-0.54027-0.54027-0.54027-0.54027-0.54027-0.54027-0.54027-0.54027-0.54027-0.54027-0.54027-0.54027-0.54027-0.54027-0.54027-0.54027-0.54027-0.54027-0.54027-0.54027-0.54027-0.54027-0.54027-0.54027-0.54027-0.54027-0.54027-0.54027-0.54027-0.54027-0.54027-0.54027-0.54027-0.54027-0.54027-0.54027-0.54027-0.54027-0.54027-0.54027-0.54027-0.54027-0.54027-0.54027-0.54027-0.54027-0.54027-0.54027-0.54027-0.54027-0.54027-0.54027-0.54027-0.54027-0.54027-0.54027-0.54027-0.54027-0.54027-0.54027-0.54027-0.54027-0.54027-0.54027-0.54027-0.54027-0.54027-0.54027-0.54027-0.54027-0.54027-0.54027-0.54027-0.54027-0.54027-0.54027-0.54027-0.54027-0.54027-0.54027-0.54027-0.54027-0.54027-0.54027-0.54027-0.54027-0.54027-0.54027-0.54027-0.54027-0.54027-0.54027-0.54027-0.54027-0.54027-0.54027-0.54027-0.54027-0.54027-0.54027-0.54027-0.54027-0.54027-0.54027-0.54027-0.54027-0.54027-0.54027-0.54027-0.54027-0.54027-0.54027-0.54027-0.54027-0.54027-0.54027-0.54027-0.54027-0.54027-0.54027-0.54027-0.54027-0.54027-0.54027-0.54027-0.54027h-0.61767-0.61767-0.61767-0.61767-0.61767-0.61767-0.61767-0.61767-0.61767-0.61767-0.61767-0.61767-0.61767-0.61767-0.61767-0.61767-0.61767-0.61767-0.61767-0.61767-0.61767-0.61767-0.61767-0.61767-0.61767-0.61767-0.61767-0.61767-0.61767-0.61767-0.61767-0.61767-0.61767-0.61767-0.61767-0.61767-0.61767-0.61767-0.61767-0.61767-0.61767-0.61767-0.61767-0.61767-0.61767-0.61767-0.61767-0.61767-0.61767-0.61767-0.61767-0.61767-0.61767-0.61767-0.61767-0.61767-0.61767-0.61767-0.61767-0.61767-0.61767-0.61767-0.61767-0.092651l-0.61767 0.54027v0.54027l-0.61767 0.54027v0.54027l-0.52502 0.45923-0.092651 0.08104v0.54027l-0.61767 0.54027v0.54027l-0.61767 0.54027v0.54027l-0.52502 0.45923-0.61767 0.54027-0.092651 0.08104v0.54027l-0.52502 0.45923-0.092651 0.08104v0.54027l-0.61767 0.54027v0.54027l-0.52502 0.45923-0.092651 0.08104v0.54027l-0.61767 0.54027v0.54027l-0.61767 0.54027v0.54027l-0.52502 0.45923-0.71032 0.62131v0.54027l-0.52502 0.45923-0.092651 0.08104v0.54027l-0.61767 0.54027v0.54027l-0.61767 0.54027v0.54027l-0.52502 0.45923-0.092651 0.08104v0.54027l-0.61767 0.54027v0.54027l-1.2353 1.0805v0.54027l-0.61767 0.54027v0.54027l-0.52502 0.45923-0.092651 0.08104v0.54027l-0.61767 0.54027v0.54027l-0.52502 0.45923-0.092651 0.08104v0.54027l-0.52502 0.45923-0.092651 0.08104v0.54027l-1.2353 1.0805v0.54027l-0.61767 0.54027v0.54027l-0.52502 0.45923-0.092651 0.08104v0.54027l-0.61767 0.54027v0.54027l-0.61767 0.54027v0.54027l-0.52502 0.45923-0.71032 0.62131v0.54027l-0.52502 0.45923-0.092651 0.08104v0.54027l-0.61767 0.54027v0.54027l-0.61767 0.54027v0.54027l-0.52502 0.45923-0.092651 0.08104v0.54027l-0.61767 0.54027v0.54027l-1.2353 1.0805v0.54027l-0.52502 0.45923-0.092651 0.08104v0.54027l-0.52502 0.45923-0.092651 0.08104v0.54027l-0.61767 0.54027v0.54027l-0.52502 0.45923-0.092651 0.08104v0.54027l-0.61767 0.54027v0.54027l-1.2353 1.0805v0.54027l-0.61767 0.54027v0.54027l-0.52502 0.45923-0.092651 0.08104v0.54027l-0.61767 0.54027v0.54027l-0.61767 0.54027v0.54027l-0.52502 0.45923-0.092651 0.08104v0.54027l-1.1427 0.9995-0.092651 0.08104v0.54027l-0.61767 0.54027v0.54027l-0.61767 0.54027v0.54027l-0.52502 0.45923-0.092651 0.08104v0.54027l-0.61767 0.54027v0.54027l-0.52502 0.45923-0.71032 0.62131v0.54027l-0.52502 0.45923-0.092651 0.08104v0.54027l-0.52502 0.45923-0.092651 0.08104v0.54027l-0.61767 0.54027v0.54027l-0.52502 0.45923-0.092651 0.08104v0.54027l-0.61767 0.54027v0.54027l-1.2353 1.0805v0.54027l-0.61767 0.54027v0.54027l-0.52502 0.45923-0.092651 0.08104v0.54027l-0.61767 0.54027v0.54027l-0.61767 0.54027v0.54027l-0.52502 0.45923-0.092651 0.08104v0.54027l-1.1427 0.9995-0.092651 0.08104v0.54027l-0.61767 0.54027v0.54027l-0.61767 0.54027v0.54027l-0.52502 0.45923-0.092651 0.08104v0.54027l-0.61767 0.54027v0.54027l-0.52502 0.45923-0.71032 0.62131v0.54027l-0.52502 0.45923-0.092651 0.08104v0.54027l-0.61767 0.54027v0.54027l-0.61767 0.54027v0.54027l-0.52502 0.45923-0.092651 0.08104v0.54027l-0.61767 0.54027v0.54027l-1.2353 1.0805v0.54027l-0.61767 0.54027v0.54027l-0.52502 0.45923-0.092651 0.08104v0.54027l-0.61767 0.54027v0.54027l-0.61767 0.54027v0.54027l-0.52502 0.45923-0.092651 0.08104v0.54027l-1.1427 0.9995-0.092651 0.08104v0.54027l-0.61767 0.54027v0.54027l-0.52502 0.45923-0.092651 0.08104v0.54027l-0.52502 0.45923-0.092651 0.08104v0.54027l-0.61767 0.54027v0.54027l-0.52502 0.45923-0.092651 0.08104v0.54027l-1.1427 0.9995-0.092651 0.08104v0.54027l-0.61767 0.54027v0.54027l-0.61767 0.54027v0.54027l-0.52502 0.45923-0.092651 0.08104v0.54027l-0.61767 0.54027v0.54027l-1.2353 1.0805v0.54027l-0.61767 0.54027v0.54027l-0.52502 0.45923-0.092651 0.08104v0.54027l-0.61767 0.54027v0.54027l-0.61767 0.54027v0.54027l-0.52502 0.45923-0.092651 0.08104v0.54027l-1.1427 0.9995-0.092651 0.08104v0.54027l-0.61767 0.54027v0.54027l-0.52502 0.45923-0.092651 0.08104v0.54027l-0.61767 0.54027v0.54027l-0.61767 0.54027v0.54027l-0.52502 0.45923-0.092651 0.08104v0.54027l-1.1427 0.9995-0.092651 0.08104v0.54027l-0.61767 0.54027v0.54027l-0.61767 0.54027v0.54027l-0.52502 0.45923-0.092651 0.08104v0.54027l-0.61767 0.54027v0.54027l-0.61767 0.54027v0.54027l-0.52502 0.45923-0.71032 0.62131v0.54027l-0.52502 0.45923-0.092651 0.08104v0.54027l-0.61767 0.54027v0.54027l-0.52502 0.45923-0.092651 0.08104v0.54027l-0.52502 0.45923-0.092651 0.08104v0.54027l-0.61767 0.54027v0.54027l-0.52502 0.45923-0.71032 0.62131v0.54027l-0.52502 0.45923-0.092651 0.08104v0.54027l-0.61767 0.54027v0.54027l-0.61767 0.54027v0.54027l-0.52502 0.45923-0.092651 0.08104v0.54027l-1.1427 0.9995-0.092651 0.08104v0.54027l-0.61767 0.54027v0.54027l-0.61767 0.54027v0.54027l-0.52502 0.45923-0.092651 0.08104v0.54027l-0.61767 0.54027v0.54027l-0.61767 0.54027v0.54027l-0.52502 0.45923-0.71032 0.62131v0.54027l-0.52502 0.45923-0.092651 0.08104v0.54027l-0.61767 0.54027v0.54027l-0.52502 0.45923-0.092651 0.08104v0.54027l-0.61767 0.54027v0.54027l-0.61767 0.54027v0.54027l-0.52502 0.45923-0.71032 0.62131v0.54027l-0.52502 0.45923-0.092651 0.08104v0.54027l-0.61767 0.54027v0.54027l-0.61767 0.54027v0.54027l-0.52502 0.45923-0.092651 0.08104v0.54027l-1.1427 0.9995-0.092651 0.08104v0.54027l-0.61767 0.54027v0.54027l-0.61767 0.54027v0.54027l-0.52502 0.45923-0.092651 0.08104v0.54027l-0.61767 0.54027v0.54027l-0.61767 0.54027v0.54027l-0.52502 0.45923-0.61767 0.54027-0.092651 0.08104v0.54027l-0.52502 0.45923-0.092651 0.08104v0.54027l-0.61767 0.54027v0.54027l-0.52502 0.45923-0.092651 0.08104v0.54027l-0.61767 0.54027v0.54027l-0.61767 0.54027v0.54027l-0.52502 0.45923-0.71032 0.62131v0.54027l-0.52502 0.45923-0.092651 0.08104v0.54027l-0.61767 0.54027v0.54027l-0.61767 0.54027v0.54027l-0.52502 0.45923-0.092651 0.08104v0.54027l-0.61767 0.54027v0.54027l-1.2353 1.0805v0.54027l-0.61767 0.54027v0.54027l-0.52502 0.45923-0.092651 0.08104v0.54027l-0.61767 0.54027v0.54027l-0.52502 0.45923-0.092651 0.08104v0.54027l-0.52502 0.45923-0.092651 0.08104v0.54027l-1.2353 1.0805v0.54027l-0.61767 0.54027v0.54027l-0.52502 0.45923-0.092651 0.08104v0.54027l-0.61767 0.54027v0.54027l-0.61767 0.54027v0.54027l-0.52502 0.45923-0.71032 0.62131v0.54027l-0.52502 0.45923-0.092651 0.08104v0.54027l-0.61767 0.54027v0.54027l-0.61767 0.54027v0.54027l-0.52502 0.45923-0.092651 0.08104v0.54027l-0.61767 0.54027v0.54027l-1.2353 1.0805v0.54027l-0.52502 0.45923-0.092651 0.08104v0.54027l-0.52502 0.45923-0.092651 0.08104v0.54027l-0.61767 0.54027v0.54027l-0.52502 0.45923-0.092651 0.08104v0.54027l-0.61767 0.54027v0.54027l-1.2353 1.0805v0.54027l-0.61767 0.54027v0.54027l-0.52502 0.45923-0.092651 0.08104v0.54027l-0.61767 0.54027v0.54027l-0.61767 0.54027v0.54027l-0.52502 0.45923-0.71032 0.62131z" clip-path="url(#pe5a852d029)" fill="#00f" fill-opacity=".4"/>
   </g>
   <g id="PathCollection_2">
    <path d="m43.453 215.7 0.52502-0.45923 0.61767-0.54027v-0.54027l0.092651-0.081041 0.52502-0.45923v-0.54027l0.61767-0.54027v-0.54027l0.61767-0.54027v-0.54027l0.092651-0.081041 0.52502-0.45923v-0.54027l1.2353-1.0805v-0.54027l0.092651-0.081041 0.52502-0.45923v-0.54027l0.61767-0.54027v-0.54027l0.092651-0.081041 0.52502-0.45923v-0.54027l0.61767-0.54027v-0.54027l0.61767-0.54027v-0.54027l0.092651-0.081041 1.1427-0.9995v-0.54027l0.61767-0.54027v-0.54027l0.61767-0.54027v-0.54027l0.61767-0.54027v-0.54027l0.61767-0.54027v-0.54027l0.61767-0.54027v-0.54027l0.61767-0.54027 0.61767-0.54027v-0.54027l0.092651-0.081041 0.52502-0.45923v-0.54027l0.61767-0.54027v-0.54027l0.61767-0.54027v-0.54027l0.092651-0.081041 0.52502-0.45923v-0.54027l1.2353-1.0805v-0.54027l0.61767-0.54027v-0.54027l0.61767-0.54027v-0.54027l0.092651-0.081041 0.52502-0.45923v-0.54027l0.61767-0.54027v-0.54027l0.61767-0.54027v-0.54027l0.092651-0.081041 1.1427-0.9995v-0.54027l0.61767-0.54027v-0.54027l0.61767-0.54027v-0.54027l0.61767-0.54027v-0.54027l0.61767-0.54027v-0.54027l0.61767-0.54027v-0.54027l0.61767-0.54027 0.61767-0.54027v-0.54027l0.092651-0.081041 0.52502-0.45923v-0.54027l0.61767-0.54027v-0.54027l0.61767-0.54027v-0.54027l0.61767-0.54027v-0.54027l0.61767-0.54027v-0.54027l0.61767-0.54027 0.61767-0.54027v-0.54027l0.61767-0.54027v-0.54027l0.092651-0.081041 0.52502-0.45923v-0.54027l0.61767-0.54027v-0.54027l0.61767-0.54027v-0.54027l0.092651-0.081041 0.52502-0.45923v-0.54027l1.2353-1.0805v-0.54027l0.61767-0.54027v-0.54027l0.61767-0.54027v-0.54027l0.61767-0.54027v-0.54027l0.61767-0.54027v-0.54027l0.61767-0.54027 0.61767-0.54027v-0.54027l0.61767-0.54027v-0.54027l0.61767-0.54027v-0.54027l0.61767-0.54027v-0.54027l0.61767-0.54027v-0.54027l0.61767-0.54027v-0.54027l0.092651-0.081041 0.52502-0.45923 0.61767-0.54027v-0.54027l0.61767-0.54027v-0.54027l0.092651-0.081041 0.52502-0.45923v-0.54027l0.61767-0.54027v-0.54027l0.61767-0.54027v-0.54027l0.092651-0.081041 0.52502-0.45923v-0.54027l1.2353-1.0805v-0.54027l0.61767-0.54027v-0.54027l0.61767-0.54027v-0.54027l0.092651-0.081041 0.52502-0.45923v-0.54027l0.61767-0.54027v-0.54027l0.61767-0.54027 0.61767-0.54027v-0.54027l0.61767-0.54027v-0.54027l0.61767-0.54027v-0.54027l0.61767-0.54027v-0.54027l0.61767-0.54027v-0.54027l0.61767-0.54027v-0.54027l0.092651-0.081041 0.52502-0.45923 0.61767-0.54027v-0.54027l0.61767-0.54027v-0.54027l0.092651-0.081041 0.52502-0.45923v-0.54027l0.61767-0.54027v-0.54027l0.61767-0.54027v-0.54027l0.092651-0.081041 0.52502-0.45923v-0.54027l1.2353-1.0805v-0.54027l0.61767-0.54027v-0.54027l0.61767-0.54027v-0.54027l0.092651-0.081041 0.52502-0.45923v-0.54027l0.61767-0.54027v-0.54027l0.61767-0.54027v-0.54027l1.2353-1.0805v-0.54027l0.61767-0.54027v-0.54027l0.092651-0.081041 0.52502-0.45923v-0.54027l0.61767-0.54027v-0.54027l0.61767-0.54027v-0.54027l0.092651-0.081041 0.52502-0.45923v-0.54027l1.2353-1.0805v-0.54027l0.092651-0.081041 0.52502-0.45923v-0.54027l0.61767-0.54027v-0.54027l0.61767-0.54027v-0.54027l0.092651-0.081041 0.52502-0.45923v-0.54027l1.2353-1.0805v-0.54027l0.61767-0.54027v-0.54027l0.61767-0.54027v-0.54027l0.61767-0.54027v-0.54027l0.61767-0.54027v-0.54027l0.61767-0.54027v-0.54027l1.2353-1.0805v-0.54027l0.61767-0.54027v-0.54027l0.092651-0.081041 0.52502-0.45923v-0.54027l0.61767-0.54027v-0.54027l0.61767-0.54027v-0.54027l0.092651-0.081041 0.52502-0.45923v-0.54027l1.2353-1.0805v-0.54027l0.092651-0.081041 0.52502-0.45923v-0.54027l0.61767-0.54027v-0.54027l0.092651-0.081041 0.52502-0.45923v-0.54027l0.61767-0.54027v-0.54027l0.61767-0.54027v-0.54027l0.092651-0.081041 0.52502-0.45923 0.61767-0.54027v-0.54027l0.61767-0.54027v-0.54027l0.61767-0.54027v-0.54027l0.61767-0.54027v-0.54027l0.61767-0.54027v-0.54027l1.2353-1.0805v-0.54027l0.61767-0.54027v-0.54027l0.092651-0.081041 0.52502-0.45923v-0.54027l0.61767-0.54027v-0.54027l0.61767-0.54027v-0.54027l0.092651-0.081041 0.52502-0.45923v-0.54027l1.2353-1.0805v-0.54027l0.61767-0.54027v-0.54027l0.61767-0.54027v-0.54027l0.092651-0.081041 0.52502-0.45923v-0.54027l0.61767-0.54027v-0.54027l0.61767-0.54027v-0.54027l0.092651-0.081041 0.52502-0.45923 0.61767-0.54027v-0.54027l0.61767-0.54027v-0.54027l0.61767-0.54027v-0.54027l0.61767-0.54027v-0.54027l0.61767-0.54027v-0.54027l1.2353-1.0805v-0.54027l0.61767-0.54027v-0.54027l0.092651-0.081041 0.52502-0.45923v-0.54027l0.61767-0.54027v-0.54027l0.61767-0.54027v-0.54027l0.61767-0.54027v-0.54027l1.2353-1.0805v-0.54027l0.61767-0.54027v-0.54027l0.61767-0.54027v-0.54027l0.092651-0.081041 0.52502-0.45923v-0.54027l0.61767-0.54027v-0.54027l0.61767-0.54027v-0.54027l0.092651-0.081041 1.1427-0.9995v-0.54027l0.61767-0.54027v-0.54027l0.61767-0.54027v-0.54027l0.61767-0.54027v-0.54027l0.61767-0.54027v-0.54027l0.61767-0.54027v-0.54027l0.61767-0.54027 0.61767-0.54027v-0.54027l0.61767-0.54027v-0.54027l0.61767-0.54027v-0.54027l0.61767-0.54027v-0.54027l0.61767-0.54027v-0.54027l1.2353-1.0805v-0.54027l0.61767-0.54027v-0.54027l0.61767-0.54027v-0.54027l0.092651-0.081041 0.52502-0.45923v-0.54027l0.61767-0.54027v-0.54027l0.61767-0.54027v-0.54027l0.092651-0.081041 1.1427-0.9995v-0.54027l0.61767-0.54027v-0.54027l0.61767-0.54027v-0.54027l0.61767-0.54027v-0.54027l0.092651-0.081041 0.52502-0.45923v-0.54027l0.61767-0.54027v-0.54027l0.61767-0.54027 0.61767-0.54027v-0.54027l0.61767-0.54027v-0.54027l0.61767-0.54027v-0.54027l0.61767-0.54027v-0.54027l0.61767-0.54027v-0.54027l0.61767-0.54027v-0.54027l0.61767-0.54027 0.61767-0.54027v-0.54027l0.61767-0.54027v-0.54027l0.092651-0.081041 0.52502-0.45923v-0.54027l0.61767-0.54027v-0.54027l0.61767-0.54027v-0.54027l0.092651-0.081041 0.52502-0.45923h-0.092651l-0.61767 0.54027v0.54027l-0.61767 0.54027v0.54027l-0.61767 0.54027v0.54027l-0.61767 0.54027v0.54027l-0.61767 0.54027v0.54027l-1.2353 1.0805v0.54027l-0.61767 0.54027v0.54027l-0.61767 0.54027v0.54027l-0.61767 0.54027v0.54027l-0.61767 0.54027v0.54027l-0.61767 0.54027v0.54027l-1.2353 1.0805v0.54027l-0.61767 0.54027v0.54027l-0.61767 0.54027v0.54027l-0.61767 0.54027v0.54027l-0.61767 0.54027v0.54027l-0.61767 0.54027v0.54027l-1.2353 1.0805v0.54027l-0.61767 0.54027v0.54027l-0.61767 0.54027v0.54027l-0.61767 0.54027v0.54027l-0.61767 0.54027v0.54027l-0.61767 0.54027v0.54027l-1.2353 1.0805v0.54027l-0.61767 0.54027v0.54027l-0.61767 0.54027v0.54027l-0.61767 0.54027v0.54027l-0.61767 0.54027v0.54027l-1.2353 1.0805v0.54027l-0.61767 0.54027v0.54027l-0.61767 0.54027v0.54027l-0.61767 0.54027v0.54027l-0.61767 0.54027v0.54027l-0.61767 0.54027v0.54027l-1.2353 1.0805v0.54027l-0.61767 0.54027v0.54027l-0.61767 0.54027v0.54027l-0.61767 0.54027v0.54027l-0.61767 0.54027v0.54027l-0.61767 0.54027v0.54027l-1.2353 1.0805v0.54027l-0.61767 0.54027v0.54027l-0.61767 0.54027v0.54027l-0.61767 0.54027v0.54027l-0.61767 0.54027v0.54027l-0.61767 0.54027v0.54027l-1.2353 1.0805v0.54027l-0.61767 0.54027v0.54027l-0.61767 0.54027v0.54027l-0.61767 0.54027v0.54027l-0.61767 0.54027v0.54027l-1.2353 1.0805v0.54027l-0.61767 0.54027v0.54027l-0.61767 0.54027v0.54027l-0.61767 0.54027v0.54027l-0.61767 0.54027v0.54027l-0.61767 0.54027v0.54027l-1.2353 1.0805v0.54027l-0.61767 0.54027v0.54027l-0.61767 0.54027v0.54027l-0.61767 0.54027v0.54027l-0.61767 0.54027v0.54027l-0.61767 0.54027v0.54027l-1.2353 1.0805v0.54027l-0.61767 0.54027v0.54027l-0.61767 0.54027v0.54027l-0.61767 0.54027v0.54027l-0.61767 0.54027v0.54027l-1.2353 1.0805v0.54027l-0.61767 0.54027v0.54027l-0.61767 0.54027v0.54027l-0.61767 0.54027v0.54027l-0.61767 0.54027v0.54027l-0.61767 0.54027v0.54027l-1.2353 1.0805v0.54027l-0.61767 0.54027v0.54027l-0.61767 0.54027v0.54027l-0.61767 0.54027v0.54027l-0.61767 0.54027v0.54027l-0.61767 0.54027v0.54027l-1.2353 1.0805v0.54027l-0.61767 0.54027v0.54027l-0.61767 0.54027v0.54027l-0.61767 0.54027v0.54027l-0.61767 0.54027v0.54027l-0.61767 0.54027v0.54027l-1.2353 1.0805v0.54027l-0.61767 0.54027v0.54027l-0.61767 0.54027v0.54027l-0.61767 0.54027v0.54027l-0.61767 0.54027v0.54027l-1.2353 1.0805v0.54027l-0.61767 0.54027v0.54027l-0.61767 0.54027v0.54027l-0.61767 0.54027v0.54027l-0.61767 0.54027v0.54027l-0.61767 0.54027v0.54027l-1.2353 1.0805v0.54027l-0.61767 0.54027v0.54027l-0.61767 0.54027v0.54027l-0.61767 0.54027v0.54027l-0.61767 0.54027v0.54027l-0.43237 0.37819-0.1853 0.16208v0.54027l-1.2353 1.0805v0.54027l-0.61767 0.54027v0.54027l-0.61767 0.54027v0.54027l-0.61767 0.54027v0.54027l-0.61767 0.54027v0.54027l-0.61767 0.54027v0.54027l-1.2353 1.0805v0.54027l-0.61767 0.54027v0.54027l-0.61767 0.54027v0.54027l-0.61767 0.54027v0.54027l-0.61767 0.54027v0.54027l-0.61767 0.54027v0.54027l-1.2353 1.0805v0.54027l-0.61767 0.54027v0.54027l-0.61767 0.54027v0.54027l-0.61767 0.54027v0.54027l-0.61767 0.54027v0.54027l-1.2353 1.0805v0.54027l-0.61767 0.54027v0.54027l-0.61767 0.54027v0.54027l-0.61767 0.54027v0.54027l-0.61767 0.54027v0.54027l-0.61767 0.54027v0.54027l-1.2353 1.0805v0.54027l-0.61767 0.54027v0.54027l-0.61767 0.54027v0.54027l-0.61767 0.54027v0.54027l-0.61767 0.54027v0.54027l-0.61767 0.54027v0.54027l-1.2353 1.0805v0.54027l-0.61767 0.54027v0.54027l-0.61767 0.54027v0.54027l-0.61767 0.54027v0.54027l-0.61767 0.54027v0.54027l-1.2353 1.0805v0.54027l-0.61767 0.54027v0.54027l-0.61767 0.54027v0.54027l-0.61767 0.54027v0.54027l-0.61767 0.54027v0.54027l-0.61767 0.54027v0.54027l-1.2353 1.0805v0.54027l-0.61767 0.54027v0.54027l-0.61767 0.54027v0.54027l-0.61767 0.54027v0.54027l-0.61767 0.54027v0.54027l-0.61767 0.54027v0.54027l-1.2353 1.0805v0.54027l-0.61767 0.54027v0.54027l-0.61767 0.54027v0.54027l-0.61767 0.54027v0.54027l-0.61767 0.54027v0.54027l-0.61767 0.54027v0.54027l-1.2353 1.0805v0.54027l-0.61767 0.54027v0.54027l-0.61767 0.54027v0.54027l-0.61767 0.54027v0.54027l-0.61767 0.54027v0.54027l-0.61767 0.54027v0.54027l-1.2353 1.0805v0.54027l-0.61767 0.54027v0.54027l-0.61767 0.54027v0.54027l-0.61767 0.54027v0.54027l-0.61767 0.54027v0.54027l-1.2353 1.0805v0.54027l-0.61767 0.54027v0.54027l-0.61767 0.54027v0.54027l-0.61767 0.54027v0.54027l-0.61767 0.54027v0.54027l-0.61767 0.54027v0.54027l-1.2353 1.0805v0.54027l-0.61767 0.54027v0.54027l-0.61767 0.54027v0.54027l-0.61767 0.54027v0.54027l-0.61767 0.54027v0.54027l-0.61767 0.54027v0.54027l-1.2353 1.0805v0.54027l-0.61767 0.54027v0.54027l-0.61767 0.54027v0.54027l-0.61767 0.54027v0.54027l-0.61767 0.54027v0.54027l-1.2353 1.0805h0.092651z" clip-path="url(#pe5a852d029)" fill="#00f" fill-opacity=".4"/>
   </g>
   <g id="PathCollection_3">
    <path d="m43.453 215.62 1.05-0.91846v-0.54027l0.61767-0.54027v-0.54027l0.61767-0.54027v-0.54027l0.61767-0.54027v-0.54027l0.61767-0.54027v-0.54027l1.2353-1.0805v-0.54027l0.1853-0.16208 0.43237-0.37819v-0.54027l0.61767-0.54027v-0.54027l0.61767-0.54027v-0.54027l0.61767-0.54027v-0.54027l0.61767-0.54027v-0.54027l1.2353-1.0805v-0.54027l0.61767-0.54027v-0.54027l0.61767-0.54027v-0.54027l0.61767-0.54027v-0.54027l0.61767-0.54027v-0.54027l0.61767-0.54027v-0.54027l1.2353-1.0805v-0.54027l0.61767-0.54027v-0.54027l0.61767-0.54027v-0.54027l0.61767-0.54027v-0.54027l0.61767-0.54027v-0.54027l1.2353-1.0805v-0.54027l0.61767-0.54027v-0.54027l0.61767-0.54027v-0.54027l0.61767-0.54027v-0.54027l0.61767-0.54027v-0.54027l0.61767-0.54027v-0.54027l1.2353-1.0805v-0.54027l0.61767-0.54027v-0.54027l0.61767-0.54027v-0.54027l0.61767-0.54027v-0.54027l0.61767-0.54027v-0.54027l0.61767-0.54027v-0.54027l1.2353-1.0805v-0.54027l0.61767-0.54027v-0.54027l0.61767-0.54027v-0.54027l0.61767-0.54027v-0.54027l0.61767-0.54027v-0.54027l0.61767-0.54027v-0.54027l1.2353-1.0805v-0.54027l0.61767-0.54027v-0.54027l0.61767-0.54027v-0.54027l0.61767-0.54027v-0.54027l0.61767-0.54027v-0.54027l0.1853-0.16208 0.43237-0.37819v-0.54027l1.2353-1.0805v-0.54027l0.61767-0.54027v-0.54027l0.61767-0.54027v-0.54027l0.61767-0.54027v-0.54027l0.61767-0.54027v-0.54027l1.2353-1.0805v-0.54027l0.61767-0.54027v-0.54027l0.61767-0.54027v-0.54027l0.61767-0.54027v-0.54027l0.61767-0.54027v-0.54027l0.61767-0.54027v-0.54027l1.2353-1.0805v-0.54027l0.61767-0.54027v-0.54027l0.61767-0.54027v-0.54027l0.61767-0.54027v-0.54027l0.61767-0.54027v-0.54027l0.1853-0.16208 0.43237-0.37819v-0.54027l1.2353-1.0805v-0.54027l0.61767-0.54027v-0.54027l0.61767-0.54027v-0.54027l0.1853-0.16208 0.43237-0.37819v-0.54027l0.61767-0.54027v-0.54027l1.2353-1.0805v-0.54027l0.61767-0.54027v-0.54027l0.61767-0.54027v-0.54027l0.61767-0.54027v-0.54027l0.61767-0.54027v-0.54027l0.61767-0.54027v-0.54027l1.2353-1.0805v-0.54027l0.61767-0.54027v-0.54027l0.1853-0.16208 0.43237-0.37819v-0.54027l0.61767-0.54027v-0.54027l0.61767-0.54027v-0.54027l0.1853-0.16208 0.43237-0.37819v-0.54027l1.2353-1.0805v-0.54027l0.61767-0.54027v-0.54027l0.61767-0.54027v-0.54027l0.1853-0.16208 0.43237-0.37819v-0.54027l0.61767-0.54027v-0.54027l0.61767-0.54027v-0.54027l1.2353-1.0805v-0.54027l0.61767-0.54027v-0.54027l0.61767-0.54027v-0.54027l0.61767-0.54027v-0.54027l0.61767-0.54027v-0.54027l0.61767-0.54027v-0.54027l1.2353-1.0805v-0.54027l0.1853-0.16208 0.43237-0.37819v-0.54027l0.61767-0.54027v-0.54027l0.61767-0.54027v-0.54027l0.1853-0.16208 0.43237-0.37819v-0.54027l1.2353-1.0805v-0.54027l0.61767-0.54027v-0.54027l0.61767-0.54027v-0.54027l0.61767-0.54027v-0.54027l0.61767-0.54027v-0.54027l0.61767-0.54027v-0.54027l1.2353-1.0805v-0.54027l0.61767-0.54027v-0.54027l0.61767-0.54027v-0.54027l0.61767-0.54027v-0.54027l0.61767-0.54027v-0.54027l0.61767-0.54027v-0.54027l1.2353-1.0805v-0.54027l0.1853-0.16208 0.43237-0.37819v-0.54027l0.61767-0.54027v-0.54027l0.61767-0.54027v-0.54027l0.61767-0.54027v-0.54027l0.61767-0.54027v-0.54027l1.2353-1.0805v-0.54027l0.61767-0.54027v-0.54027l0.61767-0.54027v-0.54027l0.61767-0.54027v-0.54027l0.61767-0.54027v-0.54027l1.2353-1.0805v-0.54027l0.61767-0.54027v-0.54027l0.61767-0.54027v-0.54027l0.61767-0.54027v-0.54027l0.61767-0.54027v-0.54027l0.61767-0.54027v-0.54027l1.2353-1.0805v-0.54027l0.61767-0.54027v-0.54027l0.61767-0.54027v-0.54027l0.61767-0.54027v-0.54027l0.61767-0.54027v-0.54027l0.61767-0.54027v-0.54027l1.2353-1.0805v-0.54027l0.61767-0.54027v-0.54027l0.61767-0.54027v-0.54027l0.61767-0.54027v-0.54027l0.61767-0.54027v-0.54027l1.2353-1.0805v-0.54027l0.61767-0.54027v-0.54027l0.61767-0.54027v-0.54027l0.61767-0.54027v-0.54027l0.61767-0.54027v-0.54027l0.61767-0.54027v-0.54027l1.2353-1.0805v-0.54027l0.61767-0.54027v-0.54027l0.61767-0.54027v-0.54027l0.61767-0.54027v-0.54027l0.61767-0.54027v-0.54027l0.61767-0.54027v-0.54027l1.2353-1.0805v-0.54027l0.61767-0.54027v-0.54027l0.61767-0.54027v-0.54027l0.61767-0.54027v-0.54027l0.61767-0.54027v-0.54027l0.61767-0.54027v-0.54027l1.2353-1.0805v-0.54027l0.61767-0.54027v-0.54027l0.61767-0.54027v-0.54027l0.61767-0.54027v-0.54027l0.61767-0.54027v-0.54027l1.2353-1.0805v-0.54027l0.61767-0.54027v-0.54027l0.61767-0.54027v-0.54027l0.61767-0.54027v-0.54027l0.61767-0.54027v-0.54027l0.61767-0.54027v-0.54027l1.2353-1.0805v-0.54027l0.61767-0.54027v-0.54027l0.61767-0.54027v-0.54027l0.61767-0.54027v-0.54027l0.1853-0.16208 0.43237-0.37819v-0.54027l0.61767-0.54027v-0.54027l1.2353-1.0805v-0.54027l0.61767-0.54027v-0.54027l0.61767-0.54027v-0.54027l0.61767-0.54027v-0.54027l0.61767-0.54027v-0.54027l0.61767-0.54027v-0.54027l1.2353-1.0805v-0.54027l0.61767-0.54027v-0.54027l0.61767-0.54027v-0.54027l0.61767-0.54027v-0.54027l0.61767-0.54027v-0.54027l0.1853-0.16208 0.43237-0.37819h-0.092651l-0.61767 0.54027v0.54027l-0.61767 0.54027v0.54027l-0.61767 0.54027v0.54027l-0.61767 0.54027v0.54027l-0.61767 0.54027v0.54027l-1.2353 1.0805v0.54027l-0.61767 0.54027v0.54027l-0.61767 0.54027v0.54027l-0.61767 0.54027v0.54027l-0.61767 0.54027v0.54027l-0.61767 0.54027v0.54027l-1.2353 1.0805v0.54027l-0.61767 0.54027v0.54027l-0.61767 0.54027v0.54027l-0.61767 0.54027v0.54027l-0.61767 0.54027v0.54027l-0.61767 0.54027v0.54027l-1.2353 1.0805v0.54027l-0.61767 0.54027v0.54027l-0.61767 0.54027v0.54027l-0.61767 0.54027v0.54027l-0.61767 0.54027v0.54027l-0.61767 0.54027v0.54027l-1.2353 1.0805v0.54027l-0.61767 0.54027v0.54027l-0.61767 0.54027v0.54027l-0.61767 0.54027v0.54027l-0.61767 0.54027v0.54027l-1.2353 1.0805v0.54027l-0.61767 0.54027v0.54027l-0.61767 0.54027v0.54027l-0.61767 0.54027v0.54027l-0.61767 0.54027v0.54027l-0.61767 0.54027v0.54027l-1.2353 1.0805v0.54027l-0.61767 0.54027v0.54027l-0.61767 0.54027v0.54027l-0.61767 0.54027v0.54027l-0.61767 0.54027v0.54027l-0.61767 0.54027v0.54027l-1.2353 1.0805v0.54027l-0.61767 0.54027v0.54027l-0.61767 0.54027v0.54027l-0.61767 0.54027v0.54027l-0.61767 0.54027v0.54027l-0.61767 0.54027v0.54027l-1.2353 1.0805v0.54027l-0.61767 0.54027v0.54027l-0.61767 0.54027v0.54027l-0.61767 0.54027v0.54027l-0.61767 0.54027v0.54027l-1.2353 1.0805v0.54027l-0.61767 0.54027v0.54027l-0.61767 0.54027v0.54027l-0.61767 0.54027v0.54027l-0.61767 0.54027v0.54027l-0.61767 0.54027v0.54027l-1.2353 1.0805v0.54027l-0.61767 0.54027v0.54027l-0.61767 0.54027v0.54027l-0.61767 0.54027v0.54027l-0.61767 0.54027v0.54027l-0.61767 0.54027v0.54027l-1.2353 1.0805v0.54027l-0.61767 0.54027v0.54027l-0.61767 0.54027v0.54027l-0.61767 0.54027v0.54027l-0.61767 0.54027v0.54027l-1.2353 1.0805v0.54027l-0.61767 0.54027v0.54027l-0.61767 0.54027v0.54027l-0.61767 0.54027v0.54027l-0.61767 0.54027v0.54027l-0.61767 0.54027v0.54027l-1.2353 1.0805v0.54027l-0.61767 0.54027v0.54027l-0.61767 0.54027v0.54027l-0.61767 0.54027v0.54027l-0.61767 0.54027v0.54027l-0.61767 0.54027v0.54027l-1.2353 1.0805v0.54027l-0.61767 0.54027v0.54027l-0.61767 0.54027v0.54027l-0.61767 0.54027v0.54027l-0.61767 0.54027v0.54027l-0.61767 0.54027v0.54027l-1.2353 1.0805v0.54027l-0.61767 0.54027v0.54027l-0.61767 0.54027v0.54027l-0.61767 0.54027v0.54027l-0.61767 0.54027v0.54027l-1.2353 1.0805v0.54027l-0.61767 0.54027v0.54027l-0.61767 0.54027v0.54027l-0.61767 0.54027v0.54027l-0.61767 0.54027v0.54027l-0.61767 0.54027v0.54027l-1.2353 1.0805v0.54027l-0.61767 0.54027v0.54027l-0.61767 0.54027v0.54027l-0.61767 0.54027v0.54027l-0.61767 0.54027v0.54027l-0.61767 0.54027v0.54027l-1.2353 1.0805v0.54027l-0.61767 0.54027v0.54027l-0.61767 0.54027v0.54027l-0.61767 0.54027v0.54027l-0.61767 0.54027v0.54027l-0.61767 0.54027v0.54027l-1.2353 1.0805v0.54027l-0.61767 0.54027v0.54027l-0.61767 0.54027v0.54027l-0.61767 0.54027v0.54027l-0.61767 0.54027v0.54027l-0.61767 0.54027v0.54027l-1.2353 1.0805v0.54027l-0.61767 0.54027v0.54027l-0.61767 0.54027v0.54027l-0.61767 0.54027v0.54027l-0.61767 0.54027v0.54027l-1.2353 1.0805v0.54027l-0.61767 0.54027v0.54027l-0.61767 0.54027v0.54027l-0.61767 0.54027v0.54027l-0.61767 0.54027v0.54027l-0.61767 0.54027v0.54027l-1.2353 1.0805v0.54027l-0.61767 0.54027v0.54027l-0.61767 0.54027v0.54027l-0.61767 0.54027v0.54027l-0.61767 0.54027v0.54027l-0.61767 0.54027v0.54027l-1.2353 1.0805v0.54027l-0.61767 0.54027v0.54027l-0.61767 0.54027v0.54027l-0.61767 0.54027v0.54027l-0.61767 0.54027v0.54027l-1.2353 1.0805v0.54027l-0.61767 0.54027v0.54027l-0.61767 0.54027v0.54027l-0.61767 0.54027v0.54027l-0.61767 0.54027v0.54027l-0.61767 0.54027v0.54027l-1.2353 1.0805v0.54027l-0.61767 0.54027v0.54027l-0.61767 0.54027v0.54027l-0.61767 0.54027v0.54027l-0.61767 0.54027v0.54027l-0.61767 0.54027v0.54027l-1.2353 1.0805v0.54027l-0.61767 0.54027v0.54027l-0.61767 0.54027v0.54027l-0.61767 0.54027v0.54027l-0.61767 0.54027v0.54027l-0.61767 0.54027v0.54027l-1.2353 1.0805v0.54027l-0.61767 0.54027v0.54027l-0.61767 0.54027v0.54027l-0.61767 0.54027v0.54027l-0.61767 0.54027v0.54027l-0.61767 0.54027v0.54027l-1.2353 1.0805v0.54027l-0.61767 0.54027v0.54027l-0.61767 0.54027v0.54027l-0.61767 0.54027v0.54027l-0.61767 0.54027v0.54027l-1.2353 1.0805v0.54027l-0.61767 0.54027v0.54027l-0.61767 0.54027v0.54027l-0.61767 0.54027v0.54027l-0.61767 0.54027v0.54027l-0.61767 0.54027v0.54027l-1.2353 1.0805v0.54027l-0.61767 0.54027v0.54027l-0.61767 0.54027v0.54027l-0.61767 0.54027v0.54027l-0.61767 0.54027v0.54027l-0.61767 0.54027v0.54027l-1.2353 1.0805v0.54027l-0.61767 0.54027v0.54027l-0.61767 0.54027v0.54027l-0.61767 0.54027v0.54027l-0.61767 0.54027v0.54027l-1.2353 1.0805h0.092651z" clip-path="url(#pe5a852d029)" fill="#00f" fill-opacity=".4"/>
   </g>
   <g id="PathCollection_4">
    <path d="m43.453 215.54 0.95739-0.83742v-0.54027l0.61767-0.54027v-0.54027l0.61767-0.54027v-0.54027l0.61767-0.54027v-0.54027l0.61767-0.54027v-0.54027l1.2353-1.0805v-0.54027l0.61767-0.54027v-0.54027l0.61767-0.54027v-0.54027l0.61767-0.54027v-0.54027l0.61767-0.54027v-0.54027l0.61767-0.54027v-0.54027l1.2353-1.0805v-0.54027l0.61767-0.54027v-0.54027l0.61767-0.54027v-0.54027l0.61767-0.54027v-0.54027l0.61767-0.54027v-0.54027l0.61767-0.54027v-0.54027l1.2353-1.0805v-0.54027l0.61767-0.54027v-0.54027l0.61767-0.54027v-0.54027l0.61767-0.54027v-0.54027l0.61767-0.54027v-0.54027l1.2353-1.0805v-0.54027l0.61767-0.54027v-0.54027l0.61767-0.54027v-0.54027l0.61767-0.54027v-0.54027l0.61767-0.54027v-0.54027l0.61767-0.54027v-0.54027l1.2353-1.0805v-0.54027l0.61767-0.54027v-0.54027l0.61767-0.54027v-0.54027l0.61767-0.54027v-0.54027l0.61767-0.54027v-0.54027l0.61767-0.54027v-0.54027l1.2353-1.0805v-0.54027l0.61767-0.54027v-0.54027l0.61767-0.54027v-0.54027l0.61767-0.54027v-0.54027l0.61767-0.54027v-0.54027l0.61767-0.54027v-0.54027l1.2353-1.0805v-0.54027l0.61767-0.54027v-0.54027l0.61767-0.54027v-0.54027l0.61767-0.54027v-0.54027l0.61767-0.54027v-0.54027l0.61767-0.54027v-0.54027l1.2353-1.0805v-0.54027l0.61767-0.54027v-0.54027l0.61767-0.54027v-0.54027l0.61767-0.54027v-0.54027l0.61767-0.54027v-0.54027l0.89563-0.78339 0.33972-0.29715v-0.54027l0.61767-0.54027v-0.54027l0.61767-0.54027v-0.54027l0.61767-0.54027v-0.54027l0.61767-0.54027v-0.54027l0.61767-0.54027v-0.54027l1.2353-1.0805v-0.54027l0.61767-0.54027v-0.54027l0.61767-0.54027v-0.54027l0.61767-0.54027v-0.54027l0.61767-0.54027v-0.54027l0.61767-0.54027v-0.54027l1.2353-1.0805v-0.54027l0.61767-0.54027v-0.54027l0.61767-0.54027v-0.54027l0.61767-0.54027v-0.54027l0.61767-0.54027v-0.54027l1.2353-1.0805v-0.54027l0.61767-0.54027v-0.54027l0.61767-0.54027v-0.54027l0.61767-0.54027v-0.54027l0.61767-0.54027v-0.54027l0.61767-0.54027v-0.54027l1.2353-1.0805v-0.54027l0.61767-0.54027v-0.54027l0.61767-0.54027v-0.54027l0.61767-0.54027v-0.54027l0.61767-0.54027v-0.54027l0.61767-0.54027v-0.54027l1.2353-1.0805v-0.54027l0.61767-0.54027v-0.54027l0.61767-0.54027v-0.54027l0.61767-0.54027v-0.54027l0.61767-0.54027v-0.54027l0.61767-0.54027v-0.54027l1.2353-1.0805v-0.54027l0.61767-0.54027v-0.54027l0.61767-0.54027v-0.54027l0.61767-0.54027v-0.54027l0.61767-0.54027v-0.54027l0.61767-0.54027v-0.54027l1.2353-1.0805v-0.54027l0.61767-0.54027v-0.54027l0.61767-0.54027v-0.54027l0.61767-0.54027v-0.54027l0.61767-0.54027v-0.54027l1.2353-1.0805v-0.54027l0.61767-0.54027v-0.54027l0.61767-0.54027v-0.54027l0.61767-0.54027v-0.54027l0.61767-0.54027v-0.54027l0.61767-0.54027v-0.54027l1.2353-1.0805v-0.54027l0.61767-0.54027v-0.54027l0.61767-0.54027v-0.54027l0.61767-0.54027v-0.54027l0.61767-0.54027v-0.54027l0.61767-0.54027v-0.54027l1.2353-1.0805v-0.54027l0.61767-0.54027v-0.54027l0.61767-0.54027v-0.54027l0.61767-0.54027v-0.54027l0.61767-0.54027v-0.54027l0.61767-0.54027v-0.54027l1.2353-1.0805v-0.54027l0.61767-0.54027v-0.54027l0.61767-0.54027v-0.54027l0.61767-0.54027v-0.54027l0.61767-0.54027v-0.54027l1.2353-1.0805v-0.54027l0.61767-0.54027v-0.54027l0.61767-0.54027v-0.54027l0.61767-0.54027v-0.54027l0.61767-0.54027v-0.54027l0.61767-0.54027v-0.54027l1.2353-1.0805v-0.54027l0.61767-0.54027v-0.54027l0.61767-0.54027v-0.54027l0.61767-0.54027v-0.54027l0.61767-0.54027v-0.54027l0.61767-0.54027v-0.54027l1.2353-1.0805v-0.54027l0.61767-0.54027v-0.54027l0.61767-0.54027v-0.54027l0.61767-0.54027v-0.54027l0.61767-0.54027v-0.54027l1.2353-1.0805v-0.54027l0.61767-0.54027v-0.54027l0.61767-0.54027v-0.54027l0.61767-0.54027v-0.54027l0.61767-0.54027v-0.54027l0.61767-0.54027v-0.54027l1.2353-1.0805v-0.54027l0.61767-0.54027v-0.54027l0.61767-0.54027v-0.54027l0.61767-0.54027v-0.54027l0.61767-0.54027v-0.54027l0.61767-0.54027v-0.54027l1.2353-1.0805v-0.54027l0.61767-0.54027v-0.54027l0.61767-0.54027v-0.54027l0.61767-0.54027v-0.54027l0.61767-0.54027v-0.54027l0.61767-0.54027v-0.54027l0.89563-0.78339 0.33972-0.29715v-0.54027l0.61767-0.54027v-0.54027l0.61767-0.54027v-0.54027l0.61767-0.54027v-0.54027l0.61767-0.54027v-0.54027l1.2353-1.0805v-0.54027l0.61767-0.54027v-0.54027l0.61767-0.54027v-0.54027l0.61767-0.54027v-0.54027l0.61767-0.54027v-0.54027l0.61767-0.54027v-0.54027l1.2353-1.0805v-0.54027l0.61767-0.54027v-0.54027l0.61767-0.54027v-0.54027l0.61767-0.54027v-0.54027l0.61767-0.54027v-0.54027l0.61767-0.54027v-0.54027l0.89563-0.78339 0.33972-0.29715v-0.54027l0.61767-0.54027v-0.54027l0.61767-0.54027v-0.54027l0.61767-0.54027v-0.54027l0.61767-0.54027v-0.54027l0.61767-0.54027v-0.54027l1.2353-1.0805v-0.54027l0.61767-0.54027v-0.54027l0.61767-0.54027v-0.54027l0.61767-0.54027v-0.54027l0.61767-0.54027v-0.54027l0.61767-0.54027h-0.092651l-0.61767 0.54027v0.54027l-0.24707 0.21611-0.3706 0.32416v0.54027l-0.61767 0.54027v0.54027l-0.61767 0.54027v0.54027l-0.24707 0.21611-0.3706 0.32416v0.54027l-1.2353 1.0805v0.54027l-0.61767 0.54027v0.54027l-0.61767 0.54027v0.54027l-0.61767 0.54027v0.54027l-0.61767 0.54027v0.54027l-0.61767 0.54027v0.54027l-1.2353 1.0805v0.54027l-0.61767 0.54027v0.54027l-0.61767 0.54027v0.54027l-0.24707 0.21611-0.3706 0.32416v0.54027l-0.61767 0.54027v0.54027l-0.61767 0.54027v0.54027l-0.24707 0.21611-0.98828 0.86443v0.54027l-0.24707 0.21611-0.3706 0.32416v0.54027l-0.61767 0.54027v0.54027l-0.61767 0.54027v0.54027l-0.24707 0.21611-0.3706 0.32416v0.54027l-0.61767 0.54027v0.54027l-1.2353 1.0805v0.54027l-0.61767 0.54027v0.54027l-0.61767 0.54027v0.54027l-0.61767 0.54027v0.54027l-0.24707 0.21611-0.3706 0.32416v0.54027l-1.2353 1.0805v0.54027l-0.61767 0.54027v0.54027l-0.61767 0.54027v0.54027l-0.24707 0.21611-0.3706 0.32416v0.54027l-0.61767 0.54027v0.54027l-0.61767 0.54027v0.54027l-0.24707 0.21611-0.98828 0.86443v0.54027l-0.24707 0.21611-0.3706 0.32416v0.54027l-0.61767 0.54027v0.54027l-0.61767 0.54027v0.54027l-0.24707 0.21611-0.3706 0.32416v0.54027l-0.61767 0.54027v0.54027l-1.2353 1.0805v0.54027l-0.61767 0.54027v0.54027l-0.61767 0.54027v0.54027l-0.61767 0.54027v0.54027l-0.61767 0.54027v0.54027l-0.61767 0.54027v0.54027l-1.2353 1.0805v0.54027l-0.61767 0.54027v0.54027l-0.24707 0.21611-0.3706 0.32416v0.54027l-0.61767 0.54027v0.54027l-0.61767 0.54027v0.54027l-0.24707 0.21611-0.98828 0.86443v0.54027l-0.24707 0.21611-0.3706 0.32416v0.54027l-0.61767 0.54027v0.54027l-0.61767 0.54027v0.54027l-0.61767 0.54027v0.54027l-0.61767 0.54027v0.54027l-1.2353 1.0805v0.54027l-0.61767 0.54027v0.54027l-0.61767 0.54027v0.54027l-0.61767 0.54027v0.54027l-0.61767 0.54027v0.54027l-0.61767 0.54027v0.54027l-1.2353 1.0805v0.54027l-0.61767 0.54027v0.54027l-0.24707 0.21611-0.3706 0.32416v0.54027l-0.61767 0.54027v0.54027l-0.61767 0.54027v0.54027l-0.24707 0.21611-0.98828 0.86443v0.54027l-0.61767 0.54027v0.54027l-0.61767 0.54027v0.54027l-0.61767 0.54027v0.54027l-0.61767 0.54027v0.54027l-0.61767 0.54027v0.54027l-0.24707 0.21611-0.98828 0.86443v0.54027l-0.61767 0.54027v0.54027l-0.61767 0.54027v0.54027l-0.61767 0.54027v0.54027l-0.61767 0.54027v0.54027l-0.61767 0.54027v0.54027l-1.2353 1.0805v0.54027l-0.61767 0.54027v0.54027l-0.24707 0.21611-0.3706 0.32416v0.54027l-0.61767 0.54027v0.54027l-0.61767 0.54027v0.54027l-0.61767 0.54027v0.54027l-1.2353 1.0805v0.54027l-0.61767 0.54027v0.54027l-0.24707 0.21611-0.3706 0.32416v0.54027l-0.61767 0.54027v0.54027l-0.61767 0.54027v0.54027l-0.24707 0.21611-0.98828 0.86443v0.54027l-0.61767 0.54027v0.54027l-0.61767 0.54027v0.54027l-0.61767 0.54027v0.54027l-0.61767 0.54027v0.54027l-0.61767 0.54027v0.54027l-1.2353 1.0805v0.54027l-0.61767 0.54027v0.54027l-0.24707 0.21611-0.3706 0.32416v0.54027l-0.61767 0.54027v0.54027l-0.61767 0.54027v0.54027l-0.61767 0.54027v0.54027l-1.2353 1.0805v0.54027l-0.61767 0.54027v0.54027l-0.24707 0.21611-0.3706 0.32416v0.54027l-0.61767 0.54027v0.54027l-0.61767 0.54027v0.54027l-0.24707 0.21611-0.3706 0.32416v0.54027l-1.2353 1.0805v0.54027l-0.61767 0.54027v0.54027l-0.61767 0.54027v0.54027l-0.61767 0.54027v0.54027l-0.61767 0.54027v0.54027l-0.61767 0.54027v0.54027l-1.2353 1.0805v0.54027l-0.61767 0.54027v0.54027l-0.61767 0.54027v0.54027l-0.24707 0.21611-0.3706 0.32416v0.54027l-0.61767 0.54027v0.54027l-1.2353 1.0805v0.54027l-0.61767 0.54027v0.54027l-0.24707 0.21611-0.3706 0.32416v0.54027l-0.61767 0.54027v0.54027l-0.61767 0.54027v0.54027l-0.24707 0.21611-0.3706 0.32416v0.54027l-1.2353 1.0805v0.54027l-0.61767 0.54027v0.54027l-0.61767 0.54027v0.54027l-0.61767 0.54027v0.54027l-0.61767 0.54027v0.54027l-0.61767 0.54027v0.54027l-1.2353 1.0805v0.54027l-0.61767 0.54027v0.54027l-0.61767 0.54027v0.54027l-0.24707 0.21611-0.3706 0.32416v0.54027l-0.61767 0.54027v0.54027l-1.2353 1.0805v0.54027l-0.61767 0.54027v0.54027l-0.24707 0.21611-0.3706 0.32416v0.54027l-0.61767 0.54027v0.54027l-0.61767 0.54027v0.54027l-0.24707 0.21611-0.3706 0.32416v0.54027l-1.2353 1.0805v0.54027l-0.61767 0.54027v0.54027l-0.61767 0.54027v0.54027l-0.61767 0.54027v0.54027l-0.61767 0.54027v0.54027l-0.61767 0.54027v0.54027l-1.2353 1.0805v0.54027l-0.61767 0.54027v0.54027l-0.61767 0.54027v0.54027l-0.24707 0.21611-0.3706 0.32416v0.54027l-0.61767 0.54027v0.54027l-0.61767 0.54027v0.54027l-0.24707 0.21611-0.98828 0.86443v0.54027l-0.24707 0.21611-0.3706 0.32416v0.54027l-0.61767 0.54027v0.54027l-0.61767 0.54027v0.54027l-0.24707 0.21611-0.3706 0.32416v0.54027l-0.61767 0.54027v0.54027l-1.2353 1.0805v0.54027l-0.61767 0.54027v0.54027l-0.61767 0.54027v0.54027l-0.61767 0.54027v0.54027l-0.61767 0.54027v0.54027l-1.2353 1.0805v0.54027l-0.61767 0.54027v0.54027l-0.61767 0.54027v0.54027l-0.24707 0.21611-0.3706 0.32416v0.54027l-0.61767 0.54027v0.54027l-0.61767 0.54027v0.54027l-0.24707 0.21611-0.98828 0.86443v0.54027l-0.24707 0.21611-0.3706 0.32416v0.54027l-0.61767 0.54027v0.54027l-0.61767 0.54027v0.54027l-0.24707 0.21611-0.3706 0.32416v0.54027l-0.61767 0.54027v0.54027l-1.2353 1.0805v0.54027l-0.61767 0.54027v0.54027l-0.61767 0.54027v0.54027l-0.61767 0.54027v0.54027l-0.61767 0.54027v0.54027l-1.2353 1.0805h0.092651z" clip-path="url(#pe5a852d029)" fill="#f00" fill-opacity=".4"/>
   </g>
   <g id="PathCollection_5">
    <path d="m43.453 215.46 0.24707-0.21611 0.61767-0.54027v-0.54027l0.61767-0.54027v-0.54027l0.61767-0.54027v-0.54027l0.61767-0.54027v-0.54027l0.61767-0.54027v-0.54027l1.2353-1.0805v-0.54027l0.3706-0.32416 0.24707-0.21611v-0.54027l0.61767-0.54027v-0.54027l0.3706-0.32416 0.24707-0.21611v-0.54027l0.61767-0.54027v-0.54027l0.61767-0.54027v-0.54027l0.3706-0.32416 0.86474-0.75638v-0.54027l0.61767-0.54027v-0.54027l0.61767-0.54027v-0.54027l0.61767-0.54027v-0.54027l0.61767-0.54027v-0.54027l0.61767-0.54027v-0.54027l1.2353-1.0805v-0.54027l0.61767-0.54027v-0.54027l0.61767-0.54027v-0.54027l0.61767-0.54027v-0.54027l0.3706-0.32416 0.24707-0.21611v-0.54027l1.2353-1.0805v-0.54027l0.61767-0.54027v-0.54027l0.61767-0.54027v-0.54027l0.3706-0.32416 0.24707-0.21611v-0.54027l0.61767-0.54027v-0.54027l0.61767-0.54027v-0.54027l0.3706-0.32416 0.86474-0.75638v-0.54027l0.61767-0.54027v-0.54027l0.61767-0.54027v-0.54027l0.61767-0.54027v-0.54027l0.61767-0.54027v-0.54027l0.61767-0.54027v-0.54027l1.2353-1.0805v-0.54027l0.3706-0.32416 0.24707-0.21611v-0.54027l0.61767-0.54027v-0.54027l0.61767-0.54027v-0.54027l0.61767-0.54027v-0.54027l0.61767-0.54027v-0.54027l1.2353-1.0805v-0.54027l0.61767-0.54027v-0.54027l0.3706-0.32416 0.24707-0.21611v-0.54027l0.61767-0.54027v-0.54027l0.61767-0.54027v-0.54027l0.3706-0.32416 0.24707-0.21611v-0.54027l1.2353-1.0805v-0.54027l0.61767-0.54027v-0.54027l0.61767-0.54027v-0.54027l0.61767-0.54027v-0.54027l0.61767-0.54027v-0.54027l1.2353-1.0805v-0.54027l0.61767-0.54027v-0.54027l0.61767-0.54027v-0.54027l0.61767-0.54027v-0.54027l0.61767-0.54027v-0.54027l0.61767-0.54027v-0.54027l1.2353-1.0805v-0.54027l0.61767-0.54027v-0.54027l0.3706-0.32416 0.24707-0.21611v-0.54027l0.61767-0.54027v-0.54027l0.61767-0.54027v-0.54027l0.3706-0.32416 0.24707-0.21611v-0.54027l1.2353-1.0805v-0.54027l0.61767-0.54027v-0.54027l0.61767-0.54027v-0.54027l0.3706-0.32416 0.24707-0.21611v-0.54027l0.61767-0.54027v-0.54027l1.2353-1.0805v-0.54027l0.61767-0.54027v-0.54027l0.61767-0.54027v-0.54027l0.61767-0.54027v-0.54027l0.61767-0.54027v-0.54027l0.61767-0.54027v-0.54027l1.2353-1.0805v-0.54027l0.61767-0.54027v-0.54027l0.3706-0.32416 0.24707-0.21611v-0.54027l0.61767-0.54027v-0.54027l0.61767-0.54027v-0.54027l0.3706-0.32416 0.24707-0.21611v-0.54027l1.2353-1.0805v-0.54027l0.61767-0.54027v-0.54027l0.61767-0.54027v-0.54027l0.3706-0.32416 0.24707-0.21611v-0.54027l0.61767-0.54027v-0.54027l0.61767-0.54027v-0.54027l1.2353-1.0805v-0.54027l0.61767-0.54027v-0.54027l0.61767-0.54027v-0.54027l0.61767-0.54027v-0.54027l0.61767-0.54027v-0.54027l0.61767-0.54027v-0.54027l1.2353-1.0805v-0.54027l0.3706-0.32416 0.24707-0.21611v-0.54027l0.61767-0.54027v-0.54027l0.61767-0.54027v-0.54027l0.3706-0.32416 0.24707-0.21611v-0.54027l1.2353-1.0805v-0.54027l0.61767-0.54027v-0.54027l0.61767-0.54027v-0.54027l0.61767-0.54027v-0.54027l0.61767-0.54027v-0.54027l0.61767-0.54027v-0.54027l1.2353-1.0805v-0.54027l0.61767-0.54027v-0.54027l0.61767-0.54027v-0.54027l0.61767-0.54027v-0.54027l0.61767-0.54027v-0.54027l0.61767-0.54027v-0.54027l1.2353-1.0805v-0.54027l0.3706-0.32416 0.24707-0.21611v-0.54027l0.61767-0.54027v-0.54027l0.3706-0.32416 0.24707-0.21611v-0.54027l0.61767-0.54027v-0.54027l0.61767-0.54027v-0.54027l0.3706-0.32416 0.86474-0.75638v-0.54027l0.61767-0.54027v-0.54027l0.61767-0.54027v-0.54027l0.61767-0.54027v-0.54027l0.61767-0.54027v-0.54027l1.2353-1.0805v-0.54027l0.61767-0.54027v-0.54027l0.61767-0.54027v-0.54027l0.61767-0.54027v-0.54027l0.61767-0.54027v-0.54027l0.61767-0.54027v-0.54027l1.2353-1.0805v-0.54027l0.61767-0.54027v-0.54027l0.61767-0.54027v-0.54027l0.3706-0.32416 0.24707-0.21611v-0.54027l0.61767-0.54027v-0.54027l0.61767-0.54027v-0.54027l0.3706-0.32416 0.86474-0.75638v-0.54027l0.61767-0.54027v-0.54027l0.61767-0.54027v-0.54027l0.61767-0.54027v-0.54027l0.61767-0.54027v-0.54027l1.2353-1.0805v-0.54027l0.61767-0.54027v-0.54027l0.61767-0.54027v-0.54027l0.61767-0.54027v-0.54027l0.61767-0.54027v-0.54027l0.61767-0.54027v-0.54027l1.2353-1.0805v-0.54027l0.61767-0.54027v-0.54027l0.61767-0.54027v-0.54027l0.3706-0.32416 0.24707-0.21611v-0.54027l0.61767-0.54027v-0.54027l0.61767-0.54027v-0.54027l0.3706-0.32416 0.86474-0.75638v-0.54027l0.61767-0.54027v-0.54027l0.61767-0.54027v-0.54027l0.61767-0.54027v-0.54027l0.61767-0.54027v-0.54027l0.61767-0.54027v-0.54027l1.2353-1.0805v-0.54027l0.61767-0.54027v-0.54027l0.61767-0.54027v-0.54027l0.61767-0.54027v-0.54027l0.61767-0.54027v-0.54027l1.2353-1.0805v-0.54027l0.61767-0.54027v-0.54027l0.61767-0.54027v-0.54027l0.3706-0.32416 0.24707-0.21611v-0.54027l0.61767-0.54027v-0.54027l0.61767-0.54027v-0.54027l0.3706-0.32416 0.86474-0.75638v-0.54027l0.61767-0.54027v-0.54027l0.61767-0.54027v-0.54027l0.61767-0.54027v-0.54027l0.61767-0.54027v-0.54027l0.61767-0.54027v-0.54027l1.2353-1.0805v-0.54027l0.61767-0.54027v-0.54027l0.61767-0.54027v-0.54027l0.61767-0.54027v-0.54027l0.61767-0.54027v-0.54027l0.61767-0.54027v-0.54027l1.2353-1.0805v-0.54027l0.61767-0.54027v-0.54027l0.3706-0.32416 0.24707-0.21611v-0.54027l0.61767-0.54027v-0.54027l0.61767-0.54027v-0.54027l0.3706-0.32416 0.24707-0.21611h-0.092651l-0.61767 0.54027v0.54027l-0.61767 0.54027v0.54027l-0.61767 0.54027v0.54027l-0.61767 0.54027v0.54027l-0.61767 0.54027v0.54027l-1.2353 1.0805v0.54027l-0.61767 0.54027v0.54027l-0.61767 0.54027v0.54027l-0.61767 0.54027v0.54027l-0.61767 0.54027v0.54027l-0.61767 0.54027v0.54027l-1.2353 1.0805v0.54027l-0.61767 0.54027v0.54027l-0.61767 0.54027v0.54027l-0.61767 0.54027v0.54027l-0.61767 0.54027v0.54027l-0.61767 0.54027v0.54027l-1.2353 1.0805v0.54027l-0.61767 0.54027v0.54027l-0.61767 0.54027v0.54027l-0.61767 0.54027v0.54027l-0.61767 0.54027v0.54027l-0.61767 0.54027v0.54027l-1.2353 1.0805v0.54027l-0.61767 0.54027v0.54027l-0.61767 0.54027v0.54027l-0.61767 0.54027v0.54027l-0.61767 0.54027v0.54027l-1.2353 1.0805v0.54027l-0.61767 0.54027v0.54027l-0.61767 0.54027v0.54027l-0.61767 0.54027v0.54027l-0.61767 0.54027v0.54027l-0.61767 0.54027v0.54027l-1.2353 1.0805v0.54027l-0.61767 0.54027v0.54027l-0.61767 0.54027v0.54027l-0.61767 0.54027v0.54027l-0.61767 0.54027v0.54027l-0.61767 0.54027v0.54027l-1.2353 1.0805v0.54027l-0.61767 0.54027v0.54027l-0.61767 0.54027v0.54027l-0.61767 0.54027v0.54027l-0.61767 0.54027v0.54027l-0.61767 0.54027v0.54027l-0.61767 0.54027-0.61767 0.54027v0.54027l-0.61767 0.54027v0.54027l-0.61767 0.54027v0.54027l-0.61767 0.54027v0.54027l-0.61767 0.54027v0.54027l-1.2353 1.0805v0.54027l-0.61767 0.54027v0.54027l-0.61767 0.54027v0.54027l-0.61767 0.54027v0.54027l-0.61767 0.54027v0.54027l-0.61767 0.54027v0.54027l-1.2353 1.0805v0.54027l-0.61767 0.54027v0.54027l-0.61767 0.54027v0.54027l-0.61767 0.54027v0.54027l-0.61767 0.54027v0.54027l-0.61767 0.54027v0.54027l-0.61767 0.54027-0.61767 0.54027v0.54027l-0.61767 0.54027v0.54027l-0.61767 0.54027v0.54027l-0.61767 0.54027v0.54027l-0.61767 0.54027v0.54027l-1.2353 1.0805v0.54027l-0.61767 0.54027v0.54027l-0.61767 0.54027v0.54027l-0.61767 0.54027v0.54027l-0.61767 0.54027v0.54027l-0.61767 0.54027v0.54027l-1.2353 1.0805v0.54027l-0.61767 0.54027v0.54027l-0.61767 0.54027v0.54027l-0.61767 0.54027v0.54027l-0.61767 0.54027v0.54027l-0.61767 0.54027v0.54027l-0.61767 0.54027-0.61767 0.54027v0.54027l-0.61767 0.54027v0.54027l-0.61767 0.54027v0.54027l-0.61767 0.54027v0.54027l-0.61767 0.54027v0.54027l-0.61767 0.54027v0.54027l-1.2353 1.0805v0.54027l-0.61767 0.54027v0.54027l-0.61767 0.54027v0.54027l-0.61767 0.54027v0.54027l-0.61767 0.54027v0.54027l-1.2353 1.0805v0.54027l-0.61767 0.54027v0.54027l-0.61767 0.54027v0.54027l-0.61767 0.54027v0.54027l-0.61767 0.54027v0.54027l-0.61767 0.54027v0.54027l-0.61767 0.54027-0.61767 0.54027v0.54027l-0.61767 0.54027v0.54027l-0.61767 0.54027v0.54027l-0.61767 0.54027v0.54027l-0.61767 0.54027v0.54027l-0.61767 0.54027v0.54027l-1.2353 1.0805v0.54027l-0.61767 0.54027v0.54027l-0.61767 0.54027v0.54027l-0.61767 0.54027v0.54027l-0.61767 0.54027v0.54027l-0.61767 0.54027v0.54027l-1.2353 1.0805v0.54027l-0.61767 0.54027v0.54027l-0.61767 0.54027v0.54027l-0.61767 0.54027v0.54027l-0.61767 0.54027v0.54027l-0.61767 0.54027v0.54027l-1.2353 1.0805v0.54027l-0.61767 0.54027v0.54027l-0.61767 0.54027v0.54027l-0.61767 0.54027v0.54027l-0.61767 0.54027v0.54027l-1.2353 1.0805v0.54027l-0.61767 0.54027v0.54027l-0.61767 0.54027v0.54027l-0.61767 0.54027v0.54027l-0.61767 0.54027v0.54027l-0.61767 0.54027v0.54027l-1.2353 1.0805v0.54027l-0.61767 0.54027v0.54027l-0.61767 0.54027v0.54027l-0.61767 0.54027v0.54027l-0.61767 0.54027v0.54027l-0.61767 0.54027v0.54027l-1.2353 1.0805v0.54027l-0.61767 0.54027v0.54027l-0.61767 0.54027v0.54027l-0.61767 0.54027v0.54027l-0.61767 0.54027v0.54027l-1.2353 1.0805v0.54027l-0.61767 0.54027v0.54027l-0.61767 0.54027v0.54027l-0.61767 0.54027v0.54027l-0.61767 0.54027v0.54027l-0.61767 0.54027v0.54027l-1.2353 1.0805v0.54027l-0.61767 0.54027v0.54027l-0.61767 0.54027v0.54027l-0.61767 0.54027v0.54027l-0.61767 0.54027v0.54027l-0.61767 0.54027v0.54027l-1.2353 1.0805v0.54027l-0.61767 0.54027v0.54027l-0.61767 0.54027v0.54027l-0.61767 0.54027v0.54027l-0.61767 0.54027v0.54027l-0.61767 0.54027v0.54027l-1.2353 1.0805v0.54027l-0.61767 0.54027v0.54027l-0.61767 0.54027v0.54027l-0.61767 0.54027v0.54027l-0.61767 0.54027v0.54027l-0.61767 0.54027v0.54027l-1.2353 1.0805v0.54027l-0.61767 0.54027v0.54027l-0.61767 0.54027v0.54027l-0.61767 0.54027v0.54027l-0.61767 0.54027v0.54027l-1.2353 1.0805v0.54027l-0.61767 0.54027v0.54027l-0.61767 0.54027v0.54027l-0.61767 0.54027v0.54027l-0.61767 0.54027v0.54027l-0.61767 0.54027v0.54027l-1.2353 1.0805v0.54027l-0.61767 0.54027v0.54027l-0.61767 0.54027v0.54027l-0.61767 0.54027v0.54027l-0.61767 0.54027v0.54027l-0.61767 0.54027v0.54027l-1.2353 1.0805v0.54027l-0.61767 0.54027v0.54027l-0.61767 0.54027v0.54027l-0.61767 0.54027v0.54027l-0.61767 0.54027v0.54027l-1.2353 1.0805h0.092651z" clip-path="url(#pe5a852d029)" fill="#f00" fill-opacity=".4"/>
   </g>
   <g id="PathCollection_6">
    <path d="m43.453 215.38 0.77209-0.67534v-0.54027l0.61767-0.54027v-0.54027l0.61767-0.54027v-0.54027l0.61767-0.54027v-0.54027l0.61767-0.54027v-0.54027l1.2353-1.0805v-0.54027l0.61767-0.54027v-0.54027l0.61767-0.54027v-0.54027l0.61767-0.54027v-0.54027l0.61767-0.54027v-0.54027l0.61767-0.54027v-0.54027l1.2353-1.0805v-0.54027l0.61767-0.54027v-0.54027l0.46326-0.4052 0.15442-0.13507v-0.54027l0.61767-0.54027v-0.54027l0.61767-0.54027v-0.54027l0.46326-0.4052 0.15442-0.13507v-0.54027l1.2353-1.0805v-0.54027l0.61767-0.54027v-0.54027l0.61767-0.54027v-0.54027l0.61767-0.54027v-0.54027l0.61767-0.54027v-0.54027l1.2353-1.0805v-0.54027l0.61767-0.54027v-0.54027l0.61767-0.54027v-0.54027l0.61767-0.54027v-0.54027l0.61767-0.54027v-0.54027l0.61767-0.54027v-0.54027l1.2353-1.0805v-0.54027l0.61767-0.54027v-0.54027l0.46326-0.4052 0.15442-0.13507v-0.54027l0.61767-0.54027v-0.54027l0.61767-0.54027v-0.54027l0.46326-0.4052 0.15442-0.13507v-0.54027l1.2353-1.0805v-0.54027l0.61767-0.54027v-0.54027l0.61767-0.54027v-0.54027l0.46326-0.4052 0.15442-0.13507v-0.54027l0.61767-0.54027v-0.54027l0.61767-0.54027v-0.54027l1.2353-1.0805v-0.54027l0.61767-0.54027v-0.54027l0.61767-0.54027v-0.54027l0.61767-0.54027v-0.54027l0.61767-0.54027v-0.54027l0.61767-0.54027v-0.54027l1.2353-1.0805v-0.54027l0.46326-0.4052 0.15442-0.13507v-0.54027l0.61767-0.54027v-0.54027l0.61767-0.54027v-0.54027l0.46326-0.4052 0.15442-0.13507v-0.54027l1.0809-0.94547 0.15442-0.13507v-0.54027l0.61767-0.54027v-0.54027l0.61767-0.54027v-0.54027l0.61767-0.54027v-0.54027l0.61767-0.54027v-0.54027l0.61767-0.54027v-0.54027l1.2353-1.0805v-0.54027l0.61767-0.54027v-0.54027l0.61767-0.54027v-0.54027l0.61767-0.54027v-0.54027l0.61767-0.54027v-0.54027l0.61767-0.54027v-0.54027l1.2353-1.0805v-0.54027l0.46326-0.4052 0.15442-0.13507v-0.54027l0.61767-0.54027v-0.54027l0.61767-0.54027v-0.54027l0.61767-0.54027v-0.54027l1.2353-1.0805v-0.54027l0.61767-0.54027v-0.54027l0.61767-0.54027v-0.54027l0.61767-0.54027v-0.54027l0.61767-0.54027v-0.54027l0.61767-0.54027v-0.54027l1.2353-1.0805v-0.54027l0.61767-0.54027v-0.54027l0.61767-0.54027v-0.54027l0.61767-0.54027v-0.54027l0.61767-0.54027v-0.54027l0.61767-0.54027v-0.54027l1.2353-1.0805v-0.54027l0.61767-0.54027v-0.54027l0.61767-0.54027v-0.54027l0.61767-0.54027v-0.54027l0.61767-0.54027v-0.54027l0.61767-0.54027v-0.54027l0.46326-0.4052 0.77209-0.67534v-0.54027l0.61767-0.54027v-0.54027l0.61767-0.54027v-0.54027l0.61767-0.54027v-0.54027l0.61767-0.54027v-0.54027l0.61767-0.54027v-0.54027l1.2353-1.0805v-0.54027l0.61767-0.54027v-0.54027l0.61767-0.54027v-0.54027l0.61767-0.54027v-0.54027l0.61767-0.54027v-0.54027l1.2353-1.0805v-0.54027l0.61767-0.54027v-0.54027l0.61767-0.54027v-0.54027l0.46326-0.4052 0.15442-0.13507v-0.54027l0.61767-0.54027v-0.54027l0.61767-0.54027v-0.54027l0.46326-0.4052 0.77209-0.67534v-0.54027l0.61767-0.54027v-0.54027l0.61767-0.54027v-0.54027l0.61767-0.54027v-0.54027l0.61767-0.54027v-0.54027l0.61767-0.54027v-0.54027l1.2353-1.0805v-0.54027l0.61767-0.54027v-0.54027l0.61767-0.54027v-0.54027l0.61767-0.54027v-0.54027l0.61767-0.54027v-0.54027l0.61767-0.54027v-0.54027l1.2353-1.0805v-0.54027l0.61767-0.54027v-0.54027l0.46326-0.4052 0.15442-0.13507v-0.54027l0.61767-0.54027v-0.54027l0.61767-0.54027v-0.54027l0.46326-0.4052 0.77209-0.67534v-0.54027l0.61767-0.54027v-0.54027l0.61767-0.54027v-0.54027l0.61767-0.54027v-0.54027l0.61767-0.54027v-0.54027l0.61767-0.54027v-0.54027l1.2353-1.0805v-0.54027l0.61767-0.54027v-0.54027l0.61767-0.54027v-0.54027l0.61767-0.54027v-0.54027l0.61767-0.54027v-0.54027l0.61767-0.54027v-0.54027l1.2353-1.0805v-0.54027l0.61767-0.54027v-0.54027l0.46326-0.4052 0.15442-0.13507v-0.54027l0.61767-0.54027v-0.54027l0.61767-0.54027v-0.54027l0.46326-0.4052 0.77209-0.67534v-0.54027l0.61767-0.54027v-0.54027l0.61767-0.54027v-0.54027l0.61767-0.54027v-0.54027l0.46326-0.4052 0.15442-0.13507v-0.54027l0.61767-0.54027v-0.54027l1.2353-1.0805v-0.54027l0.61767-0.54027v-0.54027l0.61767-0.54027v-0.54027l0.61767-0.54027v-0.54027l0.61767-0.54027v-0.54027l0.61767-0.54027v-0.54027l1.2353-1.0805v-0.54027l0.61767-0.54027v-0.54027l0.46326-0.4052 0.15442-0.13507v-0.54027l0.61767-0.54027v-0.54027l0.61767-0.54027v-0.54027l0.46326-0.4052 0.15442-0.13507v-0.54027l1.0809-0.94547 0.15442-0.13507v-0.54027l0.61767-0.54027v-0.54027l0.61767-0.54027v-0.54027l0.46326-0.4052 0.15442-0.13507v-0.54027l0.61767-0.54027v-0.54027l1.2353-1.0805v-0.54027l0.61767-0.54027v-0.54027l0.61767-0.54027v-0.54027l0.61767-0.54027v-0.54027l0.61767-0.54027v-0.54027l0.61767-0.54027v-0.54027l1.2353-1.0805v-0.54027l0.61767-0.54027v-0.54027l0.46326-0.4052 0.15442-0.13507v-0.54027l0.61767-0.54027v-0.54027l0.61767-0.54027v-0.54027l0.61767-0.54027v-0.54027l1.0809-0.94547 0.15442-0.13507v-0.54027l0.61767-0.54027v-0.54027l0.61767-0.54027v-0.54027l0.46326-0.4052 0.15442-0.13507v-0.54027l0.61767-0.54027v-0.54027l0.61767-0.54027v-0.54027l1.2353-1.0805v-0.54027l0.61767-0.54027v-0.54027l0.61767-0.54027v-0.54027l0.61767-0.54027v-0.54027l0.61767-0.54027v-0.54027l0.61767-0.54027h-0.092651l-0.61767 0.54027v0.54027l-0.61767 0.54027v0.54027l-0.61767 0.54027v0.54027l-0.61767 0.54027v0.54027l-0.61767 0.54027v0.54027l-1.2353 1.0805v0.54027l-0.61767 0.54027v0.54027l-0.61767 0.54027v0.54027l-0.61767 0.54027v0.54027l-0.61767 0.54027v0.54027l-0.61767 0.54027v0.54027l-1.2353 1.0805v0.54027l-0.061767 0.054027-0.55591 0.48624v0.54027l-0.61767 0.54027v0.54027l-0.61767 0.54027v0.54027l-0.61767 0.54027v0.54027l-0.61767 0.54027v0.54027l-0.61767 0.54027-0.61767 0.54027v0.54027l-0.61767 0.54027v0.54027l-0.61767 0.54027v0.54027l-0.61767 0.54027v0.54027l-0.061767 0.054028-0.55591 0.48624v0.54027l-0.61767 0.54027v0.54027l-1.2353 1.0805v0.54027l-0.61767 0.54027v0.54027l-0.61767 0.54027v0.54027l-0.61767 0.54027v0.54027l-0.61767 0.54027v0.54027l-1.2353 1.0805v0.54027l-0.61767 0.54027v0.54027l-0.61767 0.54027v0.54027l-0.61767 0.54027v0.54027l-0.61767 0.54027v0.54027l-0.61767 0.54027v0.54027l-0.61767 0.54027-0.61767 0.54027v0.54027l-0.61767 0.54027v0.54027l-0.61767 0.54027v0.54027l-0.61767 0.54027v0.54027l-0.061767 0.054028-0.55591 0.48624v0.54027l-0.61767 0.54027v0.54027l-1.2353 1.0805v0.54027l-0.61767 0.54027v0.54027l-0.61767 0.54027v0.54027l-0.61767 0.54027v0.54027l-0.61767 0.54027v0.54027l-0.61767 0.54027v0.54027l-0.61767 0.54027-0.61767 0.54027v0.54027l-0.61767 0.54027v0.54027l-0.61767 0.54027v0.54027l-0.61767 0.54027v0.54027l-0.61767 0.54027v0.54027l-0.061767 0.054028-0.55591 0.48624-0.61767 0.54027v0.54027l-0.061767 0.054028-0.55591 0.48624v0.54027l-0.61767 0.54027v0.54027l-0.61767 0.54027v0.54027l-0.61767 0.54027v0.54027l-0.61767 0.54027v0.54027l-1.2353 1.0805v0.54027l-0.61767 0.54027v0.54027l-0.61767 0.54027v0.54027l-0.61767 0.54027v0.54027l-0.61767 0.54027v0.54027l-0.61767 0.54027v0.54027l-0.61767 0.54027-0.61767 0.54027v0.54027l-0.61767 0.54027v0.54027l-0.61767 0.54027v0.54027l-0.61767 0.54027v0.54027l-0.61767 0.54027v0.54027l-0.061767 0.054028-0.55591 0.48624-0.61767 0.54027v0.54027l-0.61767 0.54027v0.54027l-0.61767 0.54027v0.54027l-0.61767 0.54027v0.54027l-0.61767 0.54027v0.54027l-0.61767 0.54027v0.54027l-1.2353 1.0805v0.54027l-0.61767 0.54027v0.54027l-0.61767 0.54027v0.54027l-0.61767 0.54027v0.54027l-0.61767 0.54027v0.54027l-0.61767 0.54027v0.54027l-0.61767 0.54027-0.61767 0.54027v0.54027l-0.61767 0.54027v0.54027l-0.061767 0.054028-0.55591 0.48624v0.54027l-0.61767 0.54027v0.54027l-0.61767 0.54027v0.54027l-0.61767 0.54027v0.54027l-1.2353 1.0805v0.54027l-0.61767 0.54027v0.54027l-0.61767 0.54027v0.54027l-0.61767 0.54027v0.54027l-0.61767 0.54027v0.54027l-1.2353 1.0805v0.54027l-0.61767 0.54027v0.54027l-0.61767 0.54027v0.54027l-0.61767 0.54027v0.54027l-0.61767 0.54027v0.54027l-0.61767 0.54027v0.54027l-0.61767 0.54027-0.61767 0.54027v0.54027l-0.61767 0.54027v0.54027l-0.061767 0.054028-0.55591 0.48624v0.54027l-0.61767 0.54027v0.54027l-0.61767 0.54027v0.54027l-0.061767 0.054027-0.55591 0.48624v0.54027l-1.2353 1.0805v0.54027l-0.61767 0.54027v0.54027l-0.61767 0.54027v0.54027l-0.61767 0.54027v0.54027l-0.61767 0.54027v0.54027l-0.61767 0.54027v0.54027l-0.61767 0.54027-0.61767 0.54027v0.54027l-0.61767 0.54027v0.54027l-0.61767 0.54027v0.54027l-0.061768 0.054028-0.55591 0.48624v0.54027l-0.61767 0.54027v0.54027l-0.61767 0.54027v0.54027l-0.061768 0.054028-1.1736 1.0265v0.54027l-0.061767 0.054027-0.55591 0.48624v0.54027l-0.61767 0.54027v0.54027l-0.61767 0.54027v0.54027l-0.61767 0.54027v0.54027l-1.2353 1.0805v0.54027l-0.61767 0.54027v0.54027l-0.61767 0.54027v0.54027l-0.61767 0.54027v0.54027l-0.61767 0.54027v0.54027l-0.61767 0.54027v0.54027l-0.61767 0.54027-0.61767 0.54027v0.54027l-0.61767 0.54027v0.54027l-0.61767 0.54027v0.54027l-0.061768 0.054028-0.55591 0.48624v0.54027l-0.61767 0.54027v0.54027l-0.61767 0.54027v0.54027l-1.2353 1.0805v0.54027l-0.61767 0.54027v0.54027l-0.61767 0.54027v0.54027l-0.61767 0.54027v0.54027l-0.61767 0.54027v0.54027l-1.2353 1.0805v0.54027l-0.61767 0.54027v0.54027l-0.61767 0.54027v0.54027l-0.61767 0.54027v0.54027l-0.61767 0.54027v0.54027l-0.61767 0.54027v0.54027l-1.2353 1.0805v0.54027l-0.61767 0.54027v0.54027l-0.61767 0.54027v0.54027l-0.61767 0.54027v0.54027l-0.61767 0.54027v0.54027l-0.61767 0.54027v0.54027l-1.2353 1.0805v0.54027l-0.61767 0.54027v0.54027l-0.61767 0.54027v0.54027l-0.61767 0.54027v0.54027l-0.61767 0.54027v0.54027l-0.61767 0.54027v0.54027l-0.61767 0.54027-0.61767 0.54027v0.54027l-0.61767 0.54027v0.54027l-0.61767 0.54027v0.54027l-0.61767 0.54027v0.54027l-0.061767 0.054028-0.55591 0.48624v0.54027l-0.61767 0.54027v0.54027l-1.2353 1.0805v0.54027l-0.61767 0.54027v0.54027l-0.61767 0.54027v0.54027l-0.61767 0.54027v0.54027l-0.61767 0.54027v0.54027l-1.2353 1.0805v0.54027l-0.61767 0.54027v0.54027l-0.61767 0.54027v0.54027l-0.61767 0.54027v0.54027l-0.61767 0.54027v0.54027l-0.61767 0.54027v0.54027l-0.61767 0.54027-0.61767 0.54027v0.54027l-0.061767 0.054028-0.55591 0.48624v0.54027l-0.61767 0.54027v0.54027l-0.61767 0.54027v0.54027l-0.061767 0.054028-0.55591 0.48624v0.54027l-0.61767 0.54027v0.54027l-1.2353 1.0805v0.54027l-0.61767 0.54027v0.54027l-0.61767 0.54027v0.54027l-0.61767 0.54027v0.54027l-0.61767 0.54027v0.54027l-1.2353 1.0805h0.092651z" clip-path="url(#pe5a852d029)" fill="#f00" fill-opacity=".4"/>
   </g>
   <g id="PathCollection_7">
    <path d="m0.83367 215.78h0.61767 0.61767 0.61767 0.61767 0.61767 0.61767 0.61767 0.61767 0.61767 0.61767 0.61767 0.61767 0.61767 0.61767 0.61767 0.61767 0.61767 0.61767 0.61767 0.61767 0.61767 0.61767 0.61767 0.61767 0.61767 0.61767 0.61767 0.61767 0.61767 0.61767 0.61767 0.61767 0.61767 0.61767 0.61767 0.61767 0.61767 0.61767 0.61767 0.61767 0.61767 0.61767 0.61767 0.61767 0.61767 0.61767 0.61767 0.61767 0.61767 0.61767 0.61767 0.61767 0.61767 0.61767 0.61767 0.61767 0.61767 0.61767 0.61767 0.61767 0.61767 0.61767 0.61767 0.61767 0.61767 0.61767 0.61767 0.61767 0.061768l1.2353-1.0805v-0.54027l0.55591-0.48624 0.061768-0.054027v-0.54027l0.61767-0.54027v-0.54027l0.61767-0.54027v-0.54027l0.55591-0.48624 0.061768-0.054027v-0.54027l1.2353-1.0805v-0.54027l0.55591-0.48624 0.061768-0.054027v-0.54027l0.61767-0.54027v-0.54027l0.55591-0.48624 0.061768-0.054027v-0.54027l0.61767-0.54027v-0.54027l0.61767-0.54027v-0.54027l0.55591-0.48624 0.67944-0.5943v-0.54027l0.61767-0.54027v-0.54027l0.55591-0.48624 0.061768-0.054027v-0.54027l0.61767-0.54027v-0.54027l0.61767-0.54027v-0.54027l0.55591-0.48624 0.061768-0.054027v-0.54027l1.2353-1.0805v-0.54027l0.55591-0.48624 0.061768-0.054027v-0.54027l0.61767-0.54027v-0.54027l0.61767-0.54027v-0.54027l0.55591-0.48624 0.061768-0.054027v-0.54027l1.1736-1.0265 0.061768-0.054027v-0.54027l0.61767-0.54027v-0.54027l0.61767-0.54027v-0.54027l0.55591-0.48624 0.061768-0.054027v-0.54027l0.61767-0.54027v-0.54027l0.61767-0.54027v-0.54027l0.55591-0.48624 0.67944-0.5943v-0.54027l0.61767-0.54027v-0.54027l0.55591-0.48624 0.061768-0.054027v-0.54027l0.61767-0.54027v-0.54027l0.61767-0.54027v-0.54027l0.55591-0.48624 0.061768-0.054027v-0.54027l1.2353-1.0805v-0.54027l0.55591-0.48624 0.061768-0.054027v-0.54027l0.61767-0.54027v-0.54027l0.55591-0.48624 0.061768-0.054027v-0.54027l0.61767-0.54027v-0.54027l0.61767-0.54027v-0.54027l1.2353-1.0805v-0.54027l0.61767-0.54027v-0.54027l0.55591-0.48624 0.061768-0.054027v-0.54027l0.61767-0.54027v-0.54027l0.61767-0.54027v-0.54027l0.55591-0.48624 0.061768-0.054027v-0.54027l1.2353-1.0805v-0.54027l0.55591-0.48624 0.061768-0.054027v-0.54027l0.61767-0.54027v-0.54027l0.61767-0.54027v-0.54027l0.55591-0.48624 0.061768-0.054027v-0.54027l1.1736-1.0265 0.061768-0.054027v-0.54027l0.61767-0.54027v-0.54027l0.61767-0.54027v-0.54027l0.61767-0.54027v-0.54027l0.61767-0.54027v-0.54027l0.61767-0.54027v-0.54027l0.55591-0.48624 0.67944-0.5943v-0.54027l0.61767-0.54027v-0.54027l0.55591-0.48624 0.061768-0.054027v-0.54027l0.61767-0.54027v-0.54027l0.61767-0.54027v-0.54027l0.55591-0.48624 0.061768-0.054027v-0.54027l1.2353-1.0805v-0.54027l0.55591-0.48624 0.061768-0.054027v-0.54027l0.61767-0.54027v-0.54027l0.61767-0.54027v-0.54027l0.61767-0.54027v-0.54027l1.2353-1.0805v-0.54027l0.61767-0.54027v-0.54027l0.61767-0.54027v-0.54027l0.61767-0.54027v-0.54027l0.61767-0.54027v-0.54027l0.61767-0.54027v-0.54027l0.55591-0.48624 0.67944-0.5943v-0.54027l0.61767-0.54027v-0.54027l0.55591-0.48624 0.061768-0.054027v-0.54027l0.61767-0.54027v-0.54027l0.61767-0.54027v-0.54027l0.55591-0.48624 0.061768-0.054027v-0.54027l1.2353-1.0805v-0.54027l0.61767-0.54027v-0.54027l0.61767-0.54027v-0.54027l0.55591-0.48624 0.061768-0.054027v-0.54027l0.61767-0.54027v-0.54027l0.61767-0.54027v-0.54027l0.55591-0.48624 0.67944-0.5943v-0.54027l0.61767-0.54027v-0.54027l0.55591-0.48624 0.061768-0.054027v-0.54027l0.61767-0.54027v-0.54027l0.61767-0.54027v-0.54027l0.55591-0.48624 0.061768-0.054027v-0.54027l1.2353-1.0805v-0.54027l0.55591-0.48624 0.061768-0.054027v-0.54027l0.61767-0.54027v-0.54027l0.61767-0.54027v-0.54027l0.55591-0.48624 0.061768-0.054027v-0.54027l1.1736-1.0265 0.061768-0.054027v-0.54027l0.61767-0.54027v-0.54027l0.61767-0.54027v-0.54027l0.55591-0.48624 0.061768-0.054027v-0.54027l0.61767-0.54027v-0.54027l0.61767-0.54027v-0.54027l0.55591-0.48624 0.67944-0.5943v-0.54027l0.61767-0.54027v-0.54027l0.55591-0.48624 0.061768-0.054027v-0.54027l0.61767-0.54027v-0.54027l0.61767-0.54027v-0.54027l0.55591-0.48624 0.061768-0.054027v-0.54027l1.2353-1.0805v-0.54027l0.55591-0.48624 0.061768-0.054027v-0.54027l0.61767-0.54027v-0.54027l0.55591-0.48624 0.061768-0.054027v-0.54027l0.61767-0.54027v-0.54027l0.61767-0.54027v-0.54027l0.55591-0.48624 0.67944-0.5943v-0.54027l0.61767-0.54027v-0.54027l0.55591-0.48624 0.061768-0.054027v-0.54027l0.61767-0.54027v-0.54027l0.61767-0.54027v-0.54027l0.55591-0.48624 0.67944-0.5943v-0.54027l0.61767-0.54027v-0.54027l0.55591-0.48624 0.061768-0.054027v-0.54027l0.61767-0.54027v-0.54027l0.61767-0.54027v-0.54027l0.55591-0.48624 0.061768-0.054027v-0.54027l1.1736-1.0265 0.061768-0.054027v-0.54027l0.61767-0.54027v-0.54027l0.61767-0.54027v-0.54027l0.55591-0.48624 0.061768-0.054027v-0.54027l0.61767-0.54027v-0.54027l0.61767-0.54027v-0.54027l0.55591-0.48624 0.67944-0.5943v-0.54027l0.61767-0.54027v-0.54027l0.55591-0.48624 0.061768-0.054027v-0.54027l0.61767-0.54027v-0.54027l0.61767-0.54027v-0.54027l0.55591-0.48624 0.67944-0.5943v-0.54027l0.61767-0.54027v-0.54027l0.55591-0.48624 0.061768-0.054027v-0.54027l0.61767-0.54027v-0.54027l0.55591-0.48624 0.061768-0.054027v-0.54027l0.61767-0.54027v-0.54027l1.1736-1.0265 0.061768-0.054027v-0.54027l0.61767-0.54027v-0.54027l0.61767-0.54027v-0.54027l0.55591-0.48624 0.061768-0.054027v-0.54027l0.61767-0.54027v-0.54027l0.61767-0.54027v-0.54027l0.55591-0.48624 0.67944-0.5943v-0.54027l0.61767-0.54027v-0.54027l0.55591-0.48624 0.061768-0.054027v-0.54027l0.61767-0.54027v-0.54027l0.61767-0.54027v-0.54027l0.55591-0.48624 0.061768-0.054027v-0.54027l1.1736-1.0265 0.061768-0.054027v-0.54027l0.61767-0.54027v-0.54027l0.61767-0.54027v-0.54027l0.55591-0.48624 0.061768-0.054027v-0.54027l0.61767-0.54027v-0.54027l1.1736-1.0265 0.061768-0.054027v-0.54027l0.61767-0.54027v-0.54027l0.61767-0.54027v-0.54027l0.55591-0.48624 0.061768-0.054027v-0.54027l0.61767-0.54027v-0.54027l0.61767-0.54027v-0.54027l0.55591-0.48624 0.67944-0.5943v-0.54027l0.61767-0.54027v-0.54027l0.55591-0.48624 0.061768-0.054027v-0.54027l0.61767-0.54027v-0.54027l0.61767-0.54027v-0.54027l0.61767-0.54027v-0.54027l1.1736-1.0265 0.061768-0.054027v-0.54027l0.61767-0.54027v-0.54027l0.61767-0.54027v-0.54027l0.55591-0.48624 0.061768-0.054027v-0.54027l0.61767-0.54027v-0.54027l0.61767-0.54027v-0.54027l1.2353-1.0805v-0.54027l0.61767-0.54027v-0.54027l0.55591-0.48624 0.061768-0.054027v-0.54027l0.61767-0.54027v-0.54027l0.61767-0.54027v-0.54027l0.55591-0.48624 0.061768-0.054027h-0.061768-0.61767-0.61767-0.61767-0.61767-0.61767-0.61767-0.61767-0.61767-0.61767-0.61767-0.61767-0.61767-0.61767-0.61767-0.61767-0.61767-0.61767-0.61767-0.61767-0.61767-0.61767-0.61767-0.61767-0.61767-0.61767-0.61767-0.61767-0.61767-0.61767-0.61767-0.61767-0.61767-0.61767-0.61767-0.61767-0.61767-0.61767-0.61767-0.61767-0.61767-0.61767-0.61767-0.61767-0.61767-0.61767-0.61767-0.61767-0.61767-0.61767-0.61767-0.61767-0.61767-0.61767-0.61767-0.61767-0.61767-0.61767-0.61767-0.61767-0.61767-0.61767-0.61767-0.61767-0.61767-0.61767-0.61767-0.61767-0.61767-0.61767-0.61767-0.61767-0.61767-0.61767-0.61767-0.61767-0.61767-0.61767-0.61767-0.61767-0.61767-0.61767-0.61767-0.61767-0.61767-0.61767-0.61767-0.61767-0.61767-0.61767-0.61767-0.61767-0.61767-0.61767-0.61767-0.61767-0.61767-0.61767-0.61767-0.61767-0.61767-0.61767-0.61767-0.61767-0.61767-0.61767-0.61767-0.61767-0.61767-0.61767-0.61767-0.61767-0.61767-0.61767-0.61767-0.61767-0.61767-0.61767-0.61767-0.61767-0.61767-0.61767-0.61767-0.61767-0.61767-0.61767-0.61767-0.61767-0.61767-0.61767-0.61767-0.61767-0.61767-0.61767-0.61767-0.61767-0.61767-0.61767-0.61767-0.61767-0.61767-0.61767-0.61767-0.61767-0.61767-0.61767-0.61767-0.61767-0.61767-0.61767-0.61767-0.61767-0.61767-0.61767-0.61767-0.61767-0.61767-0.61767-0.61767-0.61767-0.61767-0.61767-0.61767-0.61767-0.61767-0.61767-0.61767-0.61767-0.61767-0.61767-0.61767-0.61767-0.61767-0.61767-0.61767-0.61767-0.61767-0.61767-0.61767-0.61767-0.61767-0.61767-0.61767-0.61767-0.61767-0.61767-0.61767-0.61767-0.61767-0.61767-0.61767-0.61767-0.61767-0.61767-0.61767-0.61767-0.61767-0.61767-0.61767-0.61767-0.61767-0.61767-0.61767-0.61767-0.61767-0.61767-0.61767-0.61767-0.61767-0.61767-0.61767-0.61767-0.61767-0.61767-0.61767-0.61767-0.61767-0.61767-0.61767-0.61767-0.61767-0.61767-0.61767-0.61767-0.61767-0.61767-0.61767-0.61767-0.61767-0.61767-0.61767-0.61767-0.61767-0.61767-0.61767-0.61767-0.61767-0.61767-0.61767-0.61767-0.61767-0.61767-0.61767-0.61767-0.61767-0.61767-0.61767-0.61767-0.61767-0.61767-0.61767-0.61767-0.61767-0.61767-0.61767-0.61767-0.61767-0.61767-0.61767-0.61767-0.61767-0.61767-0.61767-0.61767-0.61767-0.61767-0.61767-0.61767-0.61767-0.61767-0.61767-0.61767-0.61767-0.61767-0.61767-0.61767-0.61767-0.61767-0.61767-0.61767-0.61767-0.61767-0.61767-0.61767-0.61767-0.61767v0.54027 0.54027 0.54027 0.54027 0.54027 0.54027 0.54027 0.54027 0.54027 0.54027 0.54027 0.54027 0.54027 0.54027 0.54027 0.54027 0.54027 0.54027 0.54027 0.54027 0.54027 0.54027 0.54027 0.54027 0.54027 0.54027 0.54027 0.54027 0.54027 0.54027 0.54027 0.54027 0.54027 0.54027 0.54027 0.54027 0.54027 0.54027 0.54027 0.54027 0.54027 0.54027 0.54027 0.54027 0.54027 0.54027 0.54027 0.54027 0.54027 0.54027 0.54027 0.54027 0.54027 0.54027 0.54027 0.54027 0.54027 0.54027 0.54027 0.54027 0.54027 0.54027 0.54027 0.54027 0.54027 0.54027 0.54027 0.54027 0.54027 0.54027 0.54027 0.54027 0.54027 0.54027 0.54027 0.54027 0.54027 0.54027 0.54027 0.54027 0.54027 0.54027 0.54027 0.54027 0.54027 0.54027 0.54027 0.54027 0.54027 0.54027 0.54027 0.54027 0.54027 0.54027 0.54027 0.54027 0.54027 0.54027 0.54027 0.54027 0.54027 0.54027 0.54027 0.54027 0.54027 0.54027 0.54027 0.54027 0.54027 0.54027 0.54027 0.54027 0.54027 0.54027 0.54027 0.54027 0.54027 0.54027 0.54027 0.54027 0.54027 0.54027 0.54027 0.54027 0.54027 0.54027 0.54027 0.54027 0.54027 0.54027 0.54027 0.54027 0.54027 0.54027 0.54027 0.54027 0.54027 0.54027 0.54027 0.54027 0.54027 0.54027 0.54027 0.54027 0.54027 0.54027 0.54027 0.54027 0.54027 0.54027 0.54027 0.54027 0.54027 0.54027 0.54027 0.54027 0.54027 0.54027 0.54027 0.54027 0.54027 0.54027 0.54027 0.54027 0.54027 0.54027 0.54027 0.54027 0.54027 0.54027 0.54027 0.54027 0.54027 0.54027 0.54027 0.54027 0.54027 0.54027 0.54027 0.54027 0.54027 0.54027 0.54027 0.54027 0.54027 0.54027 0.54027 0.54027 0.54027 0.54027 0.54027 0.54027 0.54027 0.54027 0.54027 0.54027 0.54027 0.54027 0.54027 0.54027 0.54027 0.54027 0.54027 0.54027 0.54027 0.54027 0.54027 0.54027 0.54027 0.54027 0.54027 0.54027 0.54027 0.54027 0.54027 0.54027 0.54027 0.54027 0.54027 0.54027 0.54027 0.54027 0.54027 0.54027 0.54027 0.54027 0.54027 0.54027 0.54027 0.54027 0.54027 0.54027 0.54027 0.54027 0.54027 0.54027 0.54027 0.54027 0.54027 0.54027 0.54027 0.54027 0.54027 0.54027 0.54027 0.54027 0.54027 0.54027 0.54027 0.54027 0.54027 0.54027 0.54027 0.54027 0.54027 0.54027 0.54027 0.54027 0.54027 0.54027 0.54027 0.54027 0.54027 0.54027 0.54027 0.54027 0.54027 0.54027 0.54027 0.54027 0.54027 0.54027 0.54027 0.54027 0.54027 0.54027 0.54027 0.54027 0.54027 0.54027 0.54027 0.54027 0.54027 0.54027 0.54027 0.54027 0.54027 0.54027 0.54027 0.54027 0.54027 0.54027 0.54027 0.54027 0.54027 0.54027 0.54027 0.54027 0.54027 0.54027 0.54027 0.54027 0.54027 0.54027 0.54027 0.54027 0.54027 0.54027 0.54027 0.54027 0.54027 0.54027 0.54027 0.54027 0.54027 0.54027 0.54027 0.54027 0.54027 0.54027 0.54027 0.54027 0.54027 0.54027 0.54027 0.54027 0.54027 0.54027 0.54027 0.54027 0.54027 0.54027 0.54027 0.54027 0.54027 0.54027 0.54027 0.54027 0.54027 0.54027 0.54027 0.54027 0.54027 0.54027 0.54027 0.54027 0.54027 0.54027 0.54027 0.54027 0.54027 0.54027 0.54027 0.54027 0.54027 0.54027 0.54027 0.54027 0.54027 0.54027 0.54027 0.54027 0.54027 0.54027 0.54027 0.54027 0.54027 0.54027 0.54027 0.54027 0.54027 0.54027 0.54027 0.54027 0.54027 0.54027 0.54027 0.54027 0.54027 0.54027 0.54027 0.54027 0.54027 0.54027 0.54027 0.54027 0.54027 0.54027 0.54027 0.54027 0.54027 0.54027 0.54027 0.54027 0.54027 0.54027 0.54027 0.54027 0.54027z" clip-path="url(#pe5a852d029)" fill="#f00" fill-opacity=".4"/>
   </g>
   <g id="PathCollection_8" fill="#00f" stroke="#00f" stroke-width="1.5">
    <path d="m151.63 164.76 6-6m-6 0 6 6" clip-path="url(#pe5a852d029)"/>
    <path d="m89.867 164.76 6-6m-6 0 6 6" clip-path="url(#pe5a852d029)"/>
    <path d="m182.52 191.77 6-6m-6 0 6 6" clip-path="url(#pe5a852d029)"/>
   </g>
   <g id="PathCollection_9">
    <defs>
     <path id="C0_0_a315c24e5c" d="m0 3c0.79561 0 1.5587-0.3161 2.1213-0.87868 0.56258-0.56258 0.87868-1.3257 0.87868-2.1213s-0.3161-1.5587-0.87868-2.1213c-0.56258-0.56258-1.3257-0.87868-2.1213-0.87868s-1.5587 0.3161-2.1213 0.87868c-0.56258 0.56258-0.87868 1.3257-0.87868 2.1213s0.3161 1.5587 0.87868 2.1213c0.56258 0.56258 1.3257 0.87868 2.1213 0.87868z"/>
    </defs>
    <g clip-path="url(#pe5a852d029)">
     <use x="61.983335" y="26.689263" fill="#ff0000" stroke="#000000" xlink:href="#C0_0_a315c24e5c"/>
    </g>
    <g clip-path="url(#pe5a852d029)">
     <use x="31.099668" y="107.729865" fill="#ff0000" stroke="#000000" xlink:href="#C0_0_a315c24e5c"/>
    </g>
    <g clip-path="url(#pe5a852d029)">
     <use x="123.75067" y="80.716331" fill="#ff0000" stroke="#000000" xlink:href="#C0_0_a315c24e5c"/>
    </g>
   </g>
   <g id="Quiver_1">
    <path d="m111.01 106.44-51.108-27.599-0.056904 1.8067-5.9607-5.9749 8.2653 1.7071-1.4795 1.0385 51.108 27.599-0.7682 1.4226" clip-path="url(#pe5a852d029)"/>
   </g>
   <g id="line2d_1">
    <path d="m42.702 217 134.59-218" clip-path="url(#pe5a852d029)" fill="none" stroke="#000" stroke-linecap="square" stroke-width="1.5"/>
   </g>
   <g id="patch_3">
    <path d="m0.216 215.78v-215.57" fill="none" stroke="#000" stroke-linecap="square" stroke-width=".8"/>
   </g>
   <g id="patch_4">
    <path d="m215.78 215.78v-215.57" fill="none" stroke="#000" stroke-linecap="square" stroke-width=".8"/>
   </g>
   <g id="patch_5">
    <path d="m0.216 215.78h215.57" fill="none" stroke="#000" stroke-linecap="square" stroke-width=".8"/>
   </g>
   <g id="patch_6">
    <path d="m0.216 0.216h215.57" fill="none" stroke="#000" stroke-linecap="square" stroke-width=".8"/>
   </g>
   <g id="text_1">
    <!-- $\mathbf{x_1}$ -->
    <defs>
     <path id="STIXGeneral-Bold-120" d="m48.406 0h-24.109v2.4062q4.5 0.29688 4.5 2 0 1.5938-3.2969 6.3906-2.2969 3.2031-4.2031 6.2969-0.20312-0.1875-0.75-0.89062t-0.84375-1.1094q-6.4062-7.6875-6.4062-10.297 0-2.0938 5-2.3906v-2.4062h-16.891v2.4062q2.7969 0.1875 4.9375 1.9375 2.1562 1.75 6.3594 7.3594l4.2969 5.5938q0.5 0.60938 0.75 0.95312t0.34375 0.4375q0.10938 0.10938 0.35938 0.45312 0.25 0.35938 0.75 0.95312l-12.797 19.703q-1.5 2.2969-2.4062 2.9531t-2.7969 0.95312v2.3906h25v-2.3906q-4.7031-0.10938-4.7031-1.9062 0-2.2031 5.7969-9.7969 1-1.2031 1.2969-1.7031l3.6094 4.6094q3.7969 4.8906 3.7969 6.3906 0 1.1094-0.70312 1.5469-0.70312 0.45312-2.3906 0.65625l-2 0.20312v2.3906h16.797v-2.3906q-4.4062-0.70312-7-3.9062l-10.109-12.594 14.812-22.797q0.79688-1.3125 3-2z"/>
     <path id="STIXGeneral-Bold-49" d="m44.094 0h-37.297v2.4062q7.4062 0.09375 9.5938 2.0469 2.2031 1.9531 2.2031 8.4531v37.797q0 7-3.5938 7-2.4062 0-6.5-1.6094l-2-0.79688v2.6094l25.094 10.891h1.8125v-57q0-5.7031 1.9375-7.5 1.9531-1.7969 8.75-1.8906z"/>
    </defs>
    <g transform="translate(157.72 159.06) scale(.14 -.14)">
     <use transform="translate(0 .90625)" xlink:href="#STIXGeneral-Bold-120"/>
     <use transform="translate(51.613 -12.922) scale(.7)" xlink:href="#STIXGeneral-Bold-49"/>
    </g>
   </g>
   <g id="text_2">
    <!-- $\mathbf{x_2}$ -->
    <defs>
     <path id="STIXGeneral-Bold-50" d="m47.797 21.094-4.5938-21.094h-41.5v2.2969q10.891 11.609 15.141 16.656t8.0625 10.953q5.0938 7.7969 5.0938 14.797 0 5.3906-3.1094 9.0469-3.0938 3.6562-8.7969 3.6562-7.6875 0-12.188-9h-2.8125q6.8125 20.391 22.312 20.391 8.1875 0 13.188-4.9531 5-4.9375 5-13.344 0-11-11.391-21.797l-16.203-15.406h14q8.0938 0 10.75 1.2969 2.6562 1.3125 4.5469 6.5z"/>
    </defs>
    <g transform="translate(95.955 159.06) scale(.14 -.14)">
     <use transform="translate(0 .90625)" xlink:href="#STIXGeneral-Bold-120"/>
     <use transform="translate(51.613 -12.922) scale(.7)" xlink:href="#STIXGeneral-Bold-50"/>
    </g>
   </g>
   <g id="text_3">
    <!-- $\mathbf{x_3}$ -->
    <defs>
     <path id="STIXGeneral-Bold-51" d="m5.7969 52.406-2.0938 1.1875q7.8906 15.203 22.891 15.203 7.4062 0 11.906-4.0469t4.5-9.6562q0-3.7969-2.0469-7.2969t-6.3594-5.3906q5.7031-2 8.9531-6.8594 3.25-4.8438 3.25-10.953 0-11-8.5469-18.5t-21.453-7.5q-6.8906 0-11.047 2.4531t-4.1562 6.5469q0 2.6094 1.8438 4.2969 1.8594 1.7031 4.6562 1.7031 4.5 0 9.6094-5.6875 3.8906-4.3125 7.8906-4.3125 4.5 0 7.1562 3.4062t2.6562 8.7969q0 7.5-4.9062 12.109-2.5938 2.3906-5.5938 3.8906t-9.7031 3.7969v1.7031q7 2.2031 10.047 5.4062t3.0469 7.7031q0 10.297-9.8906 10.297-4 0-6.9062-1.8594-2.9062-1.8438-5.7031-6.4375z"/>
    </defs>
    <g transform="translate(65.072 23.988) scale(.14 -.14)">
     <use transform="translate(0 .90625)" xlink:href="#STIXGeneral-Bold-120"/>
     <use transform="translate(51.613 -12.922) scale(.7)" xlink:href="#STIXGeneral-Bold-51"/>
    </g>
   </g>
   <g id="text_4">
    <!-- $\mathbf{x_4}$ -->
    <defs>
     <path id="STIXGeneral-Bold-52" d="m47.594 14.406h-6.3906v-14.406h-14.5v14.406h-24.797v11.297l31.297 43.094h8v-43.297h6.3906zm-20.797 11.094v29.406l-20.797-29.406z"/>
    </defs>
    <g transform="translate(34.188 105.03) scale(.14 -.14)">
     <use transform="translate(0 .90625)" xlink:href="#STIXGeneral-Bold-120"/>
     <use transform="translate(51.613 -12.922) scale(.7)" xlink:href="#STIXGeneral-Bold-52"/>
    </g>
   </g>
   <g id="text_5">
    <!-- $\mathbf{x_5}$ -->
    <defs>
     <path id="STIXGeneral-Bold-53" d="m47 67.594-4.5-12.688h-27.594l-2.2031-8.1094q10.391-0.59375 15.094-2 8.2031-2.2969 12.75-7.9531 4.5469-5.6406 4.5469-13.438 0-10.906-7.8438-17.562-7.8438-6.6406-20.344-6.6406-6.5 0-10.609 2.5938-4.0938 2.6094-4.0938 6.2031 0 2.5938 1.75 4.3438t4.3438 1.75q4.6094 0 10-4.5938 4.9062-4.2031 9-4.2031 4.2031 0 7.0938 2.9531 2.9062 2.9531 2.9062 7.4531 0 5.0938-3.6562 9.0469-3.6406 3.9531-10.547 6.1562-4.8906 1.5-18 2.1875l9.7031 34.5z"/>
    </defs>
    <g transform="translate(188.61 186.07) scale(.14 -.14)">
     <use transform="translate(0 .90625)" xlink:href="#STIXGeneral-Bold-120"/>
     <use transform="translate(51.613 -12.922) scale(.7)" xlink:href="#STIXGeneral-Bold-53"/>
    </g>
   </g>
   <g id="text_6">
    <!-- $\mathbf{x_6}$ -->
    <defs>
     <path id="STIXGeneral-Bold-54" d="m47 68.797v-2.5938q-10.906-2.2031-17.312-8.5-6.3906-6.2969-9.2812-17.297 3.8906 1.6875 8.3906 1.6875 8.5 0 13.594-5.4062 5.1094-5.3906 5.1094-14.484 0-10.5-5.9062-17-5.8906-6.5-15.594-6.5-10.594 0-16.906 7.75-6.2969 7.75-6.2969 20.953 0 17.5 13.906 29.688 6.0938 5.3125 11.844 7.3594t18.453 4.3438zm-14.703-52.297q0 11.703-2 16.391-2 4.7031-6.8906 4.7031-2.5 0-3.7031-1-1.2969-1.0938-1.2969-12.094 0-15 2.6875-20.203 1.5-2.8906 5.1094-2.8906 3.5 0 4.7969 3.0938t1.2969 12z"/>
    </defs>
    <g transform="translate(126.84 78.015) scale(.14 -.14)">
     <use transform="translate(0 .90625)" xlink:href="#STIXGeneral-Bold-120"/>
     <use transform="translate(51.613 -12.922) scale(.7)" xlink:href="#STIXGeneral-Bold-54"/>
    </g>
   </g>
   <g id="text_7">
    <!-- $\mathbf{w_6}$ -->
    <defs>
     <path id="STIXGeneral-Bold-119" d="m70.703 46.094v-2.3906q-1.9062-0.40625-2.9531-1.4062t-2.0469-3.5938l-15.5-40.109h-2.2969l-10.203 31-12.5-31h-2.4062l-14.797 37.406q-1.9062 4.7031-2.8594 6-0.9375 1.2969-2.8438 1.7031v2.3906h22.203v-2.3906q-3.7969-0.5-3.7969-2.7969 0-1.2031 3.8906-11.5l4.5-11.812 6.8125 17.109q-0.40625 1.2031-0.60938 1.8906-1.3906 4.9062-2.2031 5.8594-0.79688 0.95312-3.6875 1.25v2.3906h23.391v-2.3906q-2.7969-0.20312-3.7969-0.70312t-1-1.7031q0-1.3906 2.7031-10.594 2.2969-7.9062 3.3906-12.703l3.5 9.4062q4.4062 11.797 4.4062 12.797 0 1.7031-1 2.4531t-3.7969 1.0469v2.3906z"/>
    </defs>
    <g transform="translate(43.453 68.45) scale(.14 -.14)">
     <use transform="translate(0 .90625)" xlink:href="#STIXGeneral-Bold-119"/>
     <use transform="translate(73.813 -12.922) scale(.7)" xlink:href="#STIXGeneral-Bold-54"/>
    </g>
   </g>
   <g id="PathCollection_10">
    <defs>
     <path id="mefcd1303a8" d="m0 3c0.79561 0 1.5587-0.3161 2.1213-0.87868 0.56258-0.56258 0.87868-1.3257 0.87868-2.1213s-0.3161-1.5587-0.87868-2.1213c-0.56258-0.56258-1.3257-0.87868-2.1213-0.87868s-1.5587 0.3161-2.1213 0.87868c-0.56258 0.56258-0.87868 1.3257-0.87868 2.1213s0.3161 1.5587 0.87868 2.1213c0.56258 0.56258 1.3257 0.87868 2.1213 0.87868z" stroke="#000"/>
    </defs>
    <g clip-path="url(#pe5a852d029)">
     <use x="111.397203" y="105.728862" fill="#98fb98" stroke="#000000" xlink:href="#mefcd1303a8"/>
    </g>
   </g>
  </g>
 </g>
 <defs>
  <clipPath id="pe5a852d029">
   <rect x=".216" y=".216" width="215.57" height="215.57"/>
  </clipPath>
 </defs>
</svg>
