<svg version="1.1" xmlns="http://www.w3.org/2000/svg" xmlns:xlink="http://www.w3.org/1999/xlink" width="544" height="241"><defs><clipPath id="vwtynhtbbqPm"><path fill="none" stroke="none" d=" M 0 0 L 544 0 L 544 241 L 0 241 L 0 0 Z"/></clipPath></defs><g transform="scale(1,1)" clip-path="url(#vwtynhtbbqPm)"><g><path fill="none" stroke="rgb(0,0,0)" paint-order="fill stroke markers" d=" M 28.00000000000001 10.500000000000085 L 28.00000000000001 210.50000000000003" stroke-opacity="0.6980392156862745" stroke-linecap="round" stroke-linejoin="round" stroke-miterlimit="10"/><path fill="none" stroke="rgb(0,0,0)" paint-order="fill stroke markers" d=" M 28.00000000000001 210.50000000000003 L 228.00000000000009 210.50000000000003" stroke-opacity="0.6980392156862745" stroke-linecap="round" stroke-linejoin="round" stroke-miterlimit="10"/><path fill="none" stroke="rgb(0,0,0)" paint-order="fill stroke markers" d=" M 228.00000000000009 210.50000000000003 L 228.00000000000009 10.500000000000085" stroke-opacity="0.6980392156862745" stroke-linecap="round" stroke-linejoin="round" stroke-miterlimit="10"/><path fill="none" stroke="rgb(0,0,0)" paint-order="fill stroke markers" d=" M 228.00000000000009 10.500000000000085 L 28.00000000000001 10.500000000000085" stroke-opacity="0.6980392156862745" stroke-linecap="round" stroke-linejoin="round" stroke-miterlimit="10"/><path fill="none" stroke="rgb(0,0,0)" paint-order="fill stroke markers" d=" M 328.0000000000001 10.500000000000085 L 328.0000000000001 210.50000000000003" stroke-opacity="0.6980392156862745" stroke-linecap="round" stroke-linejoin="round" stroke-miterlimit="10"/><path fill="none" stroke="rgb(0,0,0)" paint-order="fill stroke markers" d=" M 328.0000000000001 210.50000000000003 L 528.0000000000002 210.50000000000003" stroke-opacity="0.6980392156862745" stroke-linecap="round" stroke-linejoin="round" stroke-miterlimit="10"/><path fill="none" stroke="rgb(0,0,0)" paint-order="fill stroke markers" d=" M 528.0000000000002 210.50000000000003 L 528.0000000000002 10.500000000000085" stroke-opacity="0.6980392156862745" stroke-linecap="round" stroke-linejoin="round" stroke-miterlimit="10"/><path fill="none" stroke="rgb(0,0,0)" paint-order="fill stroke markers" d=" M 528.0000000000002 10.500000000000085 L 328.0000000000001 10.500000000000085" stroke-opacity="0.6980392156862745" stroke-linecap="round" stroke-linejoin="round" stroke-miterlimit="10"/><path fill="rgb(102,204,0)" stroke="none" paint-order="stroke fill markers" d=" M 135.00000000000006 69.50000000000009 C 135.00000000000006 72.26142374915405 132.76142374915403 74.50000000000009 130.00000000000006 74.50000000000009 C 127.2385762508461 74.50000000000009 125.00000000000006 72.26142374915405 125.00000000000006 69.50000000000009 C 125.00000000000006 66.73857625084612 127.2385762508461 64.50000000000009 130.00000000000006 64.50000000000009 C 132.76142374915403 64.50000000000009 135.00000000000006 66.73857625084612 135.00000000000006 69.50000000000009 Z" fill-opacity="1"/><path fill="none" stroke="rgb(0,0,0)" paint-order="fill stroke markers" d=" M 135.00000000000006 69.50000000000009 C 135.00000000000006 72.26142374915405 132.76142374915403 74.50000000000009 130.00000000000006 74.50000000000009 C 127.2385762508461 74.50000000000009 125.00000000000006 72.26142374915405 125.00000000000006 69.50000000000009 C 125.00000000000006 66.73857625084612 127.2385762508461 64.50000000000009 130.00000000000006 64.50000000000009 C 132.76142374915403 64.50000000000009 135.00000000000006 66.73857625084612 135.00000000000006 69.50000000000009 Z" stroke-opacity="1" stroke-linecap="round" stroke-linejoin="round" stroke-miterlimit="10"/><path fill="none" stroke="rgb(255,0,255)" paint-order="fill stroke markers" d=" M 179.00000000000009 132.50000000000006 L 189.00000000000009 142.50000000000006" stroke-opacity="1" stroke-linecap="square" stroke-miterlimit="10" stroke-width="2.5"/><path fill="none" stroke="rgb(255,0,255)" paint-order="fill stroke markers" d=" M 179.00000000000009 142.50000000000006 L 189.00000000000009 132.50000000000006" stroke-opacity="1" stroke-linecap="square" stroke-miterlimit="10" stroke-width="2.5"/><path fill="rgb(102,204,0)" stroke="none" paint-order="stroke fill markers" d=" M 79.00000000000003 103.50000000000006 C 79.00000000000003 106.26142374915402 76.76142374915399 108.50000000000006 74.00000000000003 108.50000000000006 C 71.23857625084607 108.50000000000006 69.00000000000003 106.26142374915402 69.00000000000003 103.50000000000006 C 69.00000000000003 100.7385762508461 71.23857625084607 98.50000000000006 74.00000000000003 98.50000000000006 C 76.76142374915399 98.50000000000006 79.00000000000003 100.7385762508461 79.00000000000003 103.50000000000006 Z" fill-opacity="1"/><path fill="none" stroke="rgb(0,0,0)" paint-order="fill stroke markers" d=" M 79.00000000000003 103.50000000000006 C 79.00000000000003 106.26142374915402 76.76142374915399 108.50000000000006 74.00000000000003 108.50000000000006 C 71.23857625084607 108.50000000000006 69.00000000000003 106.26142374915402 69.00000000000003 103.50000000000006 C 69.00000000000003 100.7385762508461 71.23857625084607 98.50000000000006 74.00000000000003 98.50000000000006 C 76.76142374915399 98.50000000000006 79.00000000000003 100.7385762508461 79.00000000000003 103.50000000000006 Z" stroke-opacity="1" stroke-linecap="round" stroke-linejoin="round" stroke-miterlimit="10"/><path fill="none" stroke="rgb(255,0,255)" paint-order="fill stroke markers" d=" M 106.00000000000004 157.50000000000006 L 116.00000000000004 167.50000000000006" stroke-opacity="1" stroke-linecap="square" stroke-miterlimit="10" stroke-width="2.5"/><path fill="none" stroke="rgb(255,0,255)" paint-order="fill stroke markers" d=" M 106.00000000000004 167.50000000000006 L 116.00000000000004 157.50000000000006" stroke-opacity="1" stroke-linecap="square" stroke-miterlimit="10" stroke-width="2.5"/><path fill="rgb(102,204,0)" stroke="none" paint-order="stroke fill markers" d=" M 433.00000000000017 60.500000000000085 C 433.00000000000017 63.26142374915405 430.7614237491541 65.50000000000009 428.00000000000017 65.50000000000009 C 425.2385762508462 65.50000000000009 423.00000000000017 63.26142374915405 423.00000000000017 60.500000000000085 C 423.00000000000017 57.738576250846116 425.2385762508462 55.500000000000085 428.00000000000017 55.500000000000085 C 430.7614237491541 55.500000000000085 433.00000000000017 57.738576250846116 433.00000000000017 60.500000000000085 Z" fill-opacity="1"/><path fill="none" stroke="rgb(0,0,0)" paint-order="fill stroke markers" d=" M 433.00000000000017 60.500000000000085 C 433.00000000000017 63.26142374915405 430.7614237491541 65.50000000000009 428.00000000000017 65.50000000000009 C 425.2385762508462 65.50000000000009 423.00000000000017 63.26142374915405 423.00000000000017 60.500000000000085 C 423.00000000000017 57.738576250846116 425.2385762508462 55.500000000000085 428.00000000000017 55.500000000000085 C 430.7614237491541 55.500000000000085 433.00000000000017 57.738576250846116 433.00000000000017 60.500000000000085 Z" stroke-opacity="1" stroke-linecap="round" stroke-linejoin="round" stroke-miterlimit="10"/><path fill="none" stroke="rgb(255,0,255)" paint-order="fill stroke markers" d=" M 373.00000000000017 105.50000000000006 L 383.00000000000017 115.50000000000006" stroke-opacity="1" stroke-linecap="square" stroke-miterlimit="10" stroke-width="2.5"/><path fill="none" stroke="rgb(255,0,255)" paint-order="fill stroke markers" d=" M 373.00000000000017 115.50000000000006 L 383.00000000000017 105.50000000000006" stroke-opacity="1" stroke-linecap="square" stroke-miterlimit="10" stroke-width="2.5"/><path fill="none" stroke="rgb(255,0,255)" paint-order="fill stroke markers" d=" M 473.00000000000017 105.50000000000006 L 483.00000000000017 115.50000000000006" stroke-opacity="1" stroke-linecap="square" stroke-miterlimit="10" stroke-width="2.5"/><path fill="none" stroke="rgb(255,0,255)" paint-order="fill stroke markers" d=" M 473.00000000000017 115.50000000000006 L 483.00000000000017 105.50000000000006" stroke-opacity="1" stroke-linecap="square" stroke-miterlimit="10" stroke-width="2.5"/><path fill="rgb(102,204,0)" stroke="none" paint-order="stroke fill markers" d=" M 433.00000000000017 160.50000000000006 C 433.00000000000017 163.26142374915403 430.7614237491541 165.50000000000006 428.00000000000017 165.50000000000006 C 425.2385762508462 165.50000000000006 423.00000000000017 163.26142374915403 423.00000000000017 160.50000000000006 C 423.00000000000017 157.73857625084608 425.2385762508462 155.50000000000006 428.00000000000017 155.50000000000006 C 430.7614237491541 155.50000000000006 433.00000000000017 157.73857625084608 433.00000000000017 160.50000000000006 Z" fill-opacity="1"/><path fill="none" stroke="rgb(0,0,0)" paint-order="fill stroke markers" d=" M 433.00000000000017 160.50000000000006 C 433.00000000000017 163.26142374915403 430.7614237491541 165.50000000000006 428.00000000000017 165.50000000000006 C 425.2385762508462 165.50000000000006 423.00000000000017 163.26142374915403 423.00000000000017 160.50000000000006 C 423.00000000000017 157.73857625084608 425.2385762508462 155.50000000000006 428.00000000000017 155.50000000000006 C 430.7614237491541 155.50000000000006 433.00000000000017 157.73857625084608 433.00000000000017 160.50000000000006 Z" stroke-opacity="1" stroke-linecap="round" stroke-linejoin="round" stroke-miterlimit="10"/><g transform="scale(23,23)"><g transform="translate(5.521739130434782,10.292027652173912)"><path fill="rgb(0,0,0)" stroke="none" paint-order="stroke fill markers" d=" M 0.225 -0.605 L 0.225 -0.605 L 0.225 -0.078 Q 0.225 -0.048 0.23700000000000002 -0.04 L 0.23800000000000002 -0.04 L 0.23800000000000002 -0.04 L 0.23900000000000002 -0.04 L 0.23900000000000002 -0.039 L 0.24 -0.039 Q 0.255 -0.031 0.307 -0.031 L 0.333 -0.031 L 0.333 0 Q 0.298 -0.003 0.18 -0.003 Q 0.063 -0.003 0.028 0 L 0.028 -0.031 L 0.054 -0.031 Q 0.121 -0.031 0.131 -0.048 L 0.131 -0.048 Q 0.136 -0.056 0.136 -0.078 L 0.136 -0.605 Q 0.136 -0.635 0.124 -0.643 L 0.123 -0.643 Q 0.108 -0.652 0.054 -0.652 L 0.028 -0.652 L 0.028 -0.683 Q 0.063 -0.68 0.181 -0.68 Q 0.298 -0.68 0.333 -0.683 L 0.333 -0.652 L 0.307 -0.652 Q 0.24 -0.652 0.23 -0.635 L 0.23 -0.635 Q 0.225 -0.627 0.225 -0.605 Z"/></g></g><g transform="scale(23,23)"><g transform="translate(18.52173913043478,10.292027652173912)"><path fill="rgb(0,0,0)" stroke="none" paint-order="stroke fill markers" d=" M 0.225 -0.605 L 0.225 -0.605 L 0.225 -0.078 Q 0.225 -0.048 0.23700000000000002 -0.04 L 0.23800000000000002 -0.04 L 0.23800000000000002 -0.04 L 0.23900000000000002 -0.04 L 0.23900000000000002 -0.039 L 0.24 -0.039 Q 0.255 -0.031 0.307 -0.031 L 0.333 -0.031 L 0.333 0 Q 0.298 -0.003 0.18 -0.003 Q 0.063 -0.003 0.028 0 L 0.028 -0.031 L 0.054 -0.031 Q 0.121 -0.031 0.131 -0.048 L 0.131 -0.048 Q 0.136 -0.056 0.136 -0.078 L 0.136 -0.605 Q 0.136 -0.635 0.124 -0.643 L 0.123 -0.643 Q 0.108 -0.652 0.054 -0.652 L 0.028 -0.652 L 0.028 -0.683 Q 0.063 -0.68 0.181 -0.68 Q 0.298 -0.68 0.333 -0.683 L 0.333 -0.652 L 0.307 -0.652 Q 0.24 -0.652 0.23 -0.635 L 0.23 -0.635 Q 0.225 -0.627 0.225 -0.605 Z"/></g><g transform="translate(18.91063013043478,10.292027652173912)"><path fill="rgb(0,0,0)" stroke="none" paint-order="stroke fill markers" d=" M 0.225 -0.605 L 0.225 -0.605 L 0.225 -0.078 Q 0.225 -0.048 0.23700000000000002 -0.04 L 0.23800000000000002 -0.04 L 0.23800000000000002 -0.04 L 0.23900000000000002 -0.04 L 0.23900000000000002 -0.039 L 0.24 -0.039 Q 0.255 -0.031 0.307 -0.031 L 0.333 -0.031 L 0.333 0 Q 0.298 -0.003 0.18 -0.003 Q 0.063 -0.003 0.028 0 L 0.028 -0.031 L 0.054 -0.031 Q 0.121 -0.031 0.131 -0.048 L 0.131 -0.048 Q 0.136 -0.056 0.136 -0.078 L 0.136 -0.605 Q 0.136 -0.635 0.124 -0.643 L 0.123 -0.643 Q 0.108 -0.652 0.054 -0.652 L 0.028 -0.652 L 0.028 -0.683 Q 0.063 -0.68 0.181 -0.68 Q 0.298 -0.68 0.333 -0.683 L 0.333 -0.652 L 0.307 -0.652 Q 0.24 -0.652 0.23 -0.635 L 0.23 -0.635 Q 0.225 -0.627 0.225 -0.605 Z"/></g></g></g></g></svg>