<?xml version="1.0" encoding="UTF-8"?>
<!DOCTYPE svg PUBLIC "-//W3C//DTD SVG 1.1//EN" "http://www.w3.org/Graphics/SVG/1.1/DTD/svg11.dtd">
<svg version="1.2" xmlns="http://www.w3.org/2000/svg" xmlns:xlink="http://www.w3.org/1999/xlink" x="0" y="0" width="505" height="260" viewBox="0 0 505 260">
<style type="text/css"><![CDATA[
text { font:12px Dialog; }
]]></style>
<rect x="-485" y="-485" width="1475" height="1230" style="fill:rgb(255,255,255);stroke:none" />
<clipPath id="clip1"><path d="M15,15 L490,15 L490,245 L15,245 Z M192,102 C187.5817261,102 184,105.5817184 184,110 L184,149 C184,153.4182739 187.5817261,157 192,157 L319,157 C323.4182739,157 327,153.4182739 327,149 L327,110 C327,105.5817184 323.4182739,102 319,102 Z M192,102" /></clipPath>
<path d="M288.0613403,102 C302.269928,66 323.5828247,48 352,48" style="fill:none;stroke:rgb(85,142,213)" clip-path="url(#clip1)" />
<clipPath id="clip2"><path d="M15,15 L490,15 L490,245 L15,245 Z M192,102 C187.5817261,102 184,105.5817184 184,110 L184,149 C184,153.4182739 187.5817261,157 192,157 L319,157 C323.4182739,157 327,153.4182739 327,149 L327,110 C327,105.5817184 323.4182739,102 319,102 Z M192,102" /></clipPath>
<path d="M327,129.7619019 C341.444458,129.920639 363.1111145,130 392,130" style="fill:none;stroke:rgb(85,142,213)" clip-path="url(#clip2)" />
<clipPath id="clip3"><path d="M15,15 L490,15 L490,245 L15,245 Z M192,102 C187.5817261,102 184,105.5817184 184,110 L184,149 C184,153.4182739 187.5817261,157 192,157 L319,157 C323.4182739,157 327,153.4182739 327,149 L327,110 C327,105.5817184 323.4182739,102 319,102 Z M192,102" /></clipPath>
<path d="M287.6666565,157 C301.9629517,193.6666718 323.4074097,212 352,212" style="fill:none;stroke:rgb(85,142,213)" clip-path="url(#clip3)" />
<clipPath id="clip4"><path d="M15,15 L490,15 L490,245 L15,245 Z M192,102 C187.5817261,102 184,105.5817184 184,110 L184,149 C184,153.4182739 187.5817261,157 192,157 L319,157 C323.4182739,157 327,153.4182739 327,149 L327,110 C327,105.5817184 323.4182739,102 319,102 Z M192,102" /></clipPath>
<path d="M234.2051239,157 C222.1595459,203.6666565 204.0911713,227 180,227" style="fill:none;stroke:rgb(85,142,213)" clip-path="url(#clip4)" />
<clipPath id="clip5"><path d="M15,15 L490,15 L490,245 L15,245 Z M192,102 C187.5817261,102 184,105.5817184 184,110 L184,149 C184,153.4182739 187.5817261,157 192,157 L319,157 C323.4182739,157 327,153.4182739 327,149 L327,110 C327,105.5817184 323.4182739,102 319,102 Z M192,102" /></clipPath>
<path d="M184,147.3065186 C170.8888855,157.1021729 151.222229,162 125,162" style="fill:none;stroke:rgb(85,142,213)" clip-path="url(#clip5)" />
<clipPath id="clip6"><path d="M15,15 L490,15 L490,245 L15,245 Z M192,102 C187.5817261,102 184,105.5817184 184,110 L184,149 C184,153.4182739 187.5817261,157 192,157 L319,157 C323.4182739,157 327,153.4182739 327,149 L327,110 C327,105.5817184 323.4182739,102 319,102 Z M192,102" /></clipPath>
<path d="M184,111.6934891 C170.8888855,101.8978271 151.222229,97 125,97" style="fill:none;stroke:rgb(85,142,213)" clip-path="url(#clip6)" />
<clipPath id="clip7"><path d="M15,15 L490,15 L490,245 L15,245 Z M192,102 C187.5817261,102 184,105.5817184 184,110 L184,149 C184,153.4182739 187.5817261,157 192,157 L319,157 C323.4182739,157 327,153.4182739 327,149 L327,110 C327,105.5817184 323.4182739,102 319,102 Z M192,102" /></clipPath>
<path d="M234.7692261,102 C223.0427246,55.3333359 205.4529877,32 182,32" style="fill:none;stroke:rgb(85,142,213)" clip-path="url(#clip7)" />
<clipPath id="clip8"><path d="M180,98 L332,98 L332,162 L180,162 L180,98 Z" /></clipPath>
<path d="M192,102 C187.5817261,102 184,105.5817184 184,110 L184,149 C184,153.4182739 187.5817261,157 192,157 L319,157 C323.4182739,157 327,153.4182739 327,149 L327,110 C327,105.5817184 323.4182739,102 319,102 Z M192,102" style="fill:rgb(220,230,242);stroke:none" clip-path="url(#clip8)" />
<clipPath id="clip9"><path d="M180,98 L332,98 L332,162 L180,162 L180,98 Z" /></clipPath>
<path d="M192,102 C187.5817261,102 184,105.5817184 184,110 L184,149 C184,153.4182739 187.5817261,157 192,157 L319,157 C323.4182739,157 327,153.4182739 327,149 L327,110 C327,105.5817184 323.4182739,102 319,102 Z M192,102" style="fill:none;stroke:rgb(85,142,213);stroke-width:5" clip-path="url(#clip9)" />
<clipPath id="clip10"><path d="M216,118 L296,118 L296,142 L216,142 L216,118 Z" /></clipPath>
<path d="M229.4499969,121.7919998 L227.7220001,121.7919998 C227.7220001,122.4759979 227.70401,123.4120026 227.70401,124.6179962 C227.5599976,129.7839966 225.0579987,133.8339996 220.197998,136.7859955 L221.2420044,138.3159943 C225.0220032,135.8679962 227.5059967,132.7720032 228.6940002,129.0279999 C230.0620117,132.8800049 232.473999,135.9759979 235.9300079,138.2799988 L237.0639954,136.7859955 C232.9600067,134.2660065 230.3680115,130.6119995 229.3240051,125.8239975 C229.3959961,124.7080002 229.4499969,123.3759995 229.4499969,121.7919998 Z M246.1360016,124.6539993 L246.1360016,135.5979919 L238.9360046,135.5979919 L238.9360046,137.2539978 L255.0460052,137.2539978 L255.0460052,135.5979919 L247.8639984,135.5979919 L247.8639984,124.6539993 L253.9120026,124.6539993 L253.9120026,123.0159988 L240.1060028,123.0159988 L240.1060028,124.6539993 L246.1360016,124.6539993 Z M259.7080078,124.4380035 L261.2740173,124.4380035 C261.2380066,124.9059982 261.1839905,125.3560028 261.1119995,125.8059998 L258.519989,125.8059998 C258.9339905,125.4280014 259.3300171,124.9779968 259.7080078,124.4380035 Z M260.6440125,127.3720016 L260.6080017,127.4440002 C260.0320129,128.6320038 258.8259888,129.621994 256.95401,130.4499969 L258.1060181,131.8359985 C258.6459961,131.5839996 259.1319885,131.2960052 259.6000061,131.0079956 L259.6000061,138.4060059 L261.3099976,138.4060059 L261.3099976,137.7039948 L269.8059998,137.7039948 L269.8059998,138.4060059 L271.5339966,138.4060059 L271.5339966,130.7559967 L264.6579895,130.7559967 L265.7200012,129.6759949 C264.7839966,128.9920044 263.6679993,128.3079987 262.3359985,127.6240005 C262.3540039,127.552002 262.3720093,127.461998 262.4079895,127.3720016 L265.9899902,127.3720016 L265.9899902,125.8059998 L262.7680054,125.8059998 C262.8399963,125.3740005 262.8760071,124.923996 262.9120178,124.4380035 L265.4859924,124.4380035 L265.4859924,122.9260025 L260.5540161,122.9260025 C260.697998,122.6019974 260.8420105,122.2779999 260.9680176,121.9179993 L259.4379883,121.5940018 C258.8259888,122.961998 258.0880127,124.0059967 257.2600098,124.7440033 L258.1060181,125.8059998 L257.29599,125.8059998 L257.29599,127.3720016 L260.6440125,127.3720016 Z M261.3099976,136.1920013 L261.3099976,135.0039978 L269.8059998,135.0039978 L269.8059998,136.1920013 L261.3099976,136.1920013 Z M261.3099976,133.5279999 L261.3099976,132.2680054 L269.8059998,132.2680054 L269.8059998,133.5279999 L261.3099976,133.5279999 Z M259.9599915,130.7559967 C260.7340088,130.1799927 261.3460083,129.5500031 261.7780151,128.8659973 C262.821991,129.5139923 263.6679993,130.1439972 264.3519897,130.7559967 L259.9599915,130.7559967 Z M266.5480042,122.9440002 L266.5480042,129.7480011 L272.8479919,129.7480011 L272.8479919,122.9440002 L266.5480042,122.9440002 Z M271.1740112,128.2539978 L268.2220154,128.2539978 L268.2220154,124.4560013 L271.1740112,124.4560013 L271.1740112,128.2539978 Z M278.1220093,132.3040009 L281.8300171,132.3040009 L281.8300171,133.6179962 L278.1220093,133.6179962 L278.1220093,132.3040009 Z M281.8300171,130.8999939 L278.1220093,130.8999939 L278.1220093,129.5139923 L281.8300171,129.5139923 L281.8300171,130.8999939 Z M278.1220093,135.0399933 L281.8300171,135.0399933 L281.8300171,136.0480042 C281.8300171,136.5160065 281.6140137,136.75 281.2000122,136.75 L279.9219971,136.6779938 L280.3359985,138.2799988 L281.7399902,138.2799988 C282.8919983,138.2799988 283.4859924,137.6499939 283.4859924,136.4080048 L283.4859924,128.0200043 L276.4660034,128.0200043 L276.4660034,138.4060059 L278.1220093,138.4060059 L278.1220093,135.0399933 Z M289.6239929,129.7299957 C290.2720032,129.7299957 290.7579956,129.5859985 291.0820007,129.3159943 C291.4060059,129.0099945 291.65802,128.1100006 291.802002,126.6159973 L290.2000122,126.0940018 C290.1640015,127.1019974 290.0559998,127.7139969 289.9119873,127.9300003 C289.7860107,128.1100006 289.5880127,128.1999969 289.2999878,128.1999969 L287.1579895,128.1999969 C286.7260132,128.1999969 286.5100098,127.8939972 286.5100098,127.3180008 L286.5100098,125.5179977 C288.4360046,125.2300034 290.1279907,124.9059982 291.6040039,124.564003 L291.04599,123.052002 C289.8760071,123.3759995 288.3640137,123.6640015 286.5100098,123.9519958 L286.5100098,121.8280029 L284.8179932,121.8280029 L284.8179932,127.6780014 C284.8179932,129.0460052 285.4299927,129.7299957 286.6900024,129.7299957 L289.6239929,129.7299957 Z M286.5100098,133.8880005 C288.3099976,133.7079926 290.0200195,133.4199982 291.6040039,132.9880066 L291.04599,131.4579926 C289.7139893,131.8540039 288.2019958,132.1600037 286.5100098,132.3399963 L286.5100098,130.3600006 L284.8179932,130.3600006 L284.8179932,136.4620056 C284.8179932,137.5419922 285.4299927,138.1000061 286.6539917,138.1000061 L289.6419983,138.1000061 C290.3080139,138.1000061 290.7940063,137.9559937 291.1000061,137.6860046 C291.4240112,137.397995 291.65802,136.4980011 291.802002,134.9859924 L290.2539978,134.4819946 C290.2000122,135.4900055 290.0920105,136.102005 289.947998,136.3179932 C289.821991,136.4799957 289.6060181,136.5700073 289.3179932,136.5700073 L287.1400146,136.5700073 C286.7080078,136.5700073 286.5100098,136.4080048 286.5100098,136.0839996 L286.5100098,133.8880005 Z M282.1900024,123.0159988 L280.8760071,123.8440018 C281.2359924,124.3659973 281.5780029,124.8700027 281.9020081,125.3740005 C280.4440002,125.5540009 279.0759888,125.697998 277.8160095,125.7699966 C278.7520142,124.8700027 279.5979919,123.6999969 280.3540039,122.223999 L278.7160034,121.737999 C278.1400146,122.961998 277.2940063,124.185997 276.1960144,125.4100037 C275.980011,125.5899963 275.7279968,125.7340012 275.4219971,125.8420029 L275.8900146,127.2639999 C278.5180054,127.1200027 280.7680054,126.9039993 282.6400146,126.6159973 C282.8560181,126.9940033 283.0540161,127.3720016 283.2340088,127.7320023 L284.6380005,126.723999 C284.0620117,125.6800003 283.2520142,124.4380035 282.1900024,123.0159988 Z M292.6660156,136.5160065" style="fill:rgb(55,96,146);stroke:none" clip-path="url(#clip10)" />
<clipPath id="clip11"><path d="M350,30 L438,30 L438,67 L350,67 L350,30 Z" /></clipPath>
<path d="M357,32 C354.2385864,32 352,34.2385712 352,37 L352,59 C352,61.7614288 354.2385864,64 357,64 L430,64 C432.7614136,64 435,61.7614288 435,59 L435,37 C435,34.2385712 432.7614136,32 430,32 Z M357,32" style="fill:rgb(252,213,181);stroke:none" clip-path="url(#clip11)" />
<clipPath id="clip12"><path d="M350,30 L438,30 L438,67 L350,67 L350,30 Z" /></clipPath>
<path d="M357,32 C354.2385864,32 352,34.2385712 352,37 L352,59 C352,61.7614288 354.2385864,64 357,64 L430,64 C432.7614136,64 435,61.7614288 435,59 L435,37 C435,34.2385712 432.7614136,32 430,32 Z M357,32" style="fill:none;stroke:rgb(255,102,3);stroke-width:2" clip-path="url(#clip12)" />
<clipPath id="clip13"><path d="M364,39 L424,39 L424,58 L364,58 L364,39 Z" /></clipPath>
<path d="M368.5529785,45.126503 L368.5529785,46.0234985 L370.4509888,46.0234985 C370.0220032,47.6484985 369.3070068,49.0914993 368.3059998,50.3525009 L368.7089844,51.3665009 C369.4370117,50.300499 370.0350037,49.1305008 370.4899902,47.8304977 L370.4899902,54.4345016 L371.4259949,54.4345016 L371.4259949,47.5835037 C371.789978,48.0904999 372.2189941,48.7535019 372.7130127,49.5725021 L373.2590027,48.7665024 C372.6350098,47.9995041 372.0239868,47.3105011 371.4259949,46.6865005 L371.4259949,46.0234985 L373.0379944,46.0234985 L373.0379944,45.126503 L371.4259949,45.126503 L371.4259949,42.5914993 L370.4899902,42.5914993 L370.4899902,45.126503 L368.5529785,45.126503 Z M372.427002,53.8625031 L373.1940002,54.5514984 C373.8049927,53.6155014 374.2210083,52.6535034 374.4419861,51.6395035 C374.6759949,50.6774979 374.7929993,49.4814987 374.7929993,48.0514984 L374.7929993,44.0084991 L377.1069946,44.0084991 L377.1069946,53.0565033 C377.1069946,53.8105011 377.5230103,54.1875 378.3549805,54.1875 L378.8880005,54.1875 C379.3039856,54.1875 379.6159973,54.1095047 379.8240051,53.9664993 C380.0319824,53.7845001 380.1619873,53.4725037 380.2139893,53.0045013 C380.2659912,52.510498 380.3049927,51.8085022 380.3049927,50.8724976 L379.446991,50.5995026 C379.446991,51.8475037 379.4079895,52.588501 379.3559875,52.8485031 C379.3299866,53.0305023 379.2650146,53.1474991 379.1610107,53.225502 C379.0700073,53.277504 378.9530029,53.3034973 378.7969971,53.3034973 L378.3549805,53.3034973 C378.1470032,53.3034973 378.0559998,53.1865005 378.0559998,52.9654999 L378.0559998,43.1245041 L373.8569946,43.1245041 L373.8569946,48.0514984 C373.8569946,49.3905029 373.7659912,50.4565048 373.5969849,51.2495041 C373.3760071,52.1725006 372.9859924,53.0435028 372.427002,53.8625031 Z M382.8789978,43.0725021 L382.8789978,46.2314987 L386.8439941,46.2314987 L386.8439941,43.0725021 L382.8789978,43.0725021 Z M385.9859924,45.4384995 L383.723999,45.4384995 L383.723999,43.8785019 L385.9859924,43.8785019 L385.9859924,45.4384995 Z M388.2869873,43.0725021 L388.2869873,46.2314987 L392.3300171,46.2314987 L392.3300171,43.0725021 L388.2869873,43.0725021 Z M391.4849854,45.4384995 L389.144989,45.4384995 L389.144989,43.8785019 L391.4849854,43.8785019 L391.4849854,45.4384995 Z M381.8259888,47.5315018 L381.8259888,48.3635025 L385.4140015,48.3635025 C384.5039978,49.1435013 383.2299805,49.7805023 381.565979,50.274498 L381.9949951,51.0415039 C382.3590088,50.9244995 382.7099915,50.8075027 383.0610046,50.6774979 L383.0610046,54.5125046 L383.8800049,54.5125046 L383.8800049,53.9534988 L386.1029968,53.9534988 L386.1029968,54.5125046 L386.9349976,54.5125046 L386.9349976,50.4175034 L383.6719971,50.4175034 C384.8939819,49.8714981 385.8690186,49.1955032 386.5969849,48.3635025 L388.7940063,48.3635025 C389.4440002,49.1565018 390.4060059,49.8455048 391.6539917,50.4175034 L388.1829834,50.4175034 L388.1829834,54.5125046 L389.0150146,54.5125046 L389.0150146,53.9534988 L391.4459839,53.9534988 L391.4459839,54.5125046 L392.2780151,54.5125046 L392.2780151,50.6904984 C392.5639954,50.7945023 392.8629761,50.911499 393.1879883,51.0155029 L393.5650024,50.2225037 C391.8880005,49.7675018 390.6270142,49.1435013 389.7819824,48.3635025 L393.2919922,48.3635025 L393.2919922,47.5315018 L391.4979858,47.5315018 C391.289978,47.1285019 391.0559998,46.751503 390.7829895,46.3875046 L389.9899902,46.6474991 C390.197998,46.9075012 390.3930054,47.2065048 390.5750122,47.5315018 L387.2210083,47.5315018 C387.4030151,47.2194977 387.571991,46.9075012 387.7019958,46.5695038 L386.8049927,46.4785004 C386.6489868,46.8424988 386.4539795,47.1935043 386.2070007,47.5315018 L381.8259888,47.5315018 Z M383.8800049,53.1474991 L383.8800049,51.1975021 L386.1029968,51.1975021 L386.1029968,53.1474991 L383.8800049,53.1474991 Z M389.0150146,53.1474991 L389.0150146,51.1975021 L391.4459839,51.1975021 L391.4459839,53.1474991 L389.0150146,53.1474991 Z M406.3049927,45.2174988 L403.79599,45.2174988 C404.289978,44.5674973 404.7579956,43.7874985 405.2130127,42.8515015 L404.2639771,42.5005035 C403.8479919,43.475502 403.3540039,44.385498 402.7819824,45.2174988 L395.3330078,45.2174988 L395.3330078,48.1295013 L396.242981,48.1295013 L396.242981,46.114502 L405.3819885,46.114502 L405.3819885,48.1295013 L406.3049927,48.1295013 L406.3049927,45.2174988 Z M397.321991,47.2194977 L397.321991,48.0514984 L402.9899902,48.0514984 C402.4179993,48.3635025 401.598999,48.7535019 400.5069885,49.2345047 L400.5069885,50.3134995 L395.2420044,50.3134995 L395.2420044,51.1975021 L400.5069885,51.1975021 L400.5069885,53.0695038 C400.5069885,53.4335022 400.3380127,53.6155014 400.026001,53.6155014 C399.46698,53.6155014 398.946991,53.6025009 398.4790039,53.5895004 L398.7000122,54.4475021 L400.3510132,54.4475021 C401.0789795,54.4475021 401.4559937,54.0965042 401.4559937,53.3945007 L401.4559937,51.1975021 L406.4089966,51.1975021 L406.4089966,50.3134995 L401.4559937,50.3134995 L401.4559937,49.6504974 C402.5220032,49.1305008 403.4710083,48.5975037 404.3289795,48.0514984 L404.3289795,47.2194977 L397.321991,47.2194977 Z M397.1790161,42.6955032 L396.3339844,43.1115036 C396.8150024,43.7095032 397.269989,44.385498 397.7119751,45.1395035 L398.5180054,44.7365036 C398.1019897,43.9954987 397.6470032,43.3195038 397.1790161,42.6955032 Z M400.3250122,42.4485016 L399.4799805,42.864502 C399.9219971,43.4885025 400.3380127,44.2034988 400.7279968,45.0094986 L401.5599976,44.5934982 C401.1699829,43.8134995 400.7539978,43.0985031 400.3250122,42.4485016 Z M415.9119873,48.675499 C413.9619751,49.8714981 411.6350098,50.885498 408.9309998,51.7174988 L409.3079834,52.5755005 C412.0379944,51.6914978 414.3129883,50.6644974 416.1459961,49.5205002 L415.9119873,48.675499 Z M410.7379761,45.5685043 L410.0880127,46.1924973 C411.2449951,47.0634995 412.1549988,47.8824997 412.8309937,48.6624985 L413.4680176,48.0125046 C412.7269897,47.1935043 411.8170166,46.3745041 410.7379761,45.5685043 Z M414.5599976,54.4215012 C415.3919983,54.3955002 416.0809937,54.3824997 416.6400146,54.3824997 C417.34198,54.3824997 417.8099976,54.1484985 418.0570068,53.6805038 C418.3170166,53.2125015 418.4729919,52.3414993 418.5249939,51.0545044 C418.5769958,50.2225037 418.6289978,47.6744995 418.6940002,43.3844986 L409.2559814,43.3844986 L409.2559814,44.2815018 L417.7449951,44.2815018 C417.7189941,47.4664993 417.7059937,49.5074997 417.6799927,50.4175034 C417.6409912,51.7825012 417.5239868,52.6535034 417.3289795,53.0175018 C417.1340027,53.3684998 416.8349915,53.550499 416.4450073,53.550499 C415.7299805,53.550499 415.0150146,53.5374985 414.2999878,53.524498 L414.5599976,54.4215012 Z M420.5789795,53.199501" style="fill:rgb(23,55,94);stroke:none" clip-path="url(#clip13)" />
<clipPath id="clip14"><path d="M390,112 L491,112 L491,149 L390,149 L390,112 Z" /></clipPath>
<path d="M397,114 C394.2385864,114 392,116.2385712 392,119 L392,141 C392,143.7614288 394.2385864,146 397,146 L483,146 C485.7614136,146 488,143.7614288 488,141 L488,119 C488,116.2385712 485.7614136,114 483,114 Z M397,114" style="fill:rgb(220,230,242);stroke:none" clip-path="url(#clip14)" />
<clipPath id="clip15"><path d="M390,112 L491,112 L491,149 L390,149 L390,112 Z" /></clipPath>
<path d="M397,114 C394.2385864,114 392,116.2385712 392,119 L392,141 C392,143.7614288 394.2385864,146 397,146 L483,146 C485.7614136,146 488,143.7614288 488,141 L488,119 C488,116.2385712 485.7614136,114 483,114 Z M397,114" style="fill:none;stroke:rgb(85,142,213);stroke-width:2" clip-path="url(#clip15)" />
<clipPath id="clip16"><path d="M404,121 L477,121 L477,140 L404,140 L404,121 Z" /></clipPath>
<path d="M411.7445068,128.4459991 L411.7445068,129.3820038 L415.2675171,129.3820038 L415.2675171,136.4929962 L416.2294922,136.4929962 L416.2294922,129.3820038 L419.5704956,129.3820038 L419.5704956,128.4459991 L416.2294922,128.4459991 L416.2294922,124.5329971 L415.2675171,124.5329971 L415.2675171,128.4459991 L411.7445068,128.4459991 Z M409.1965027,124.6760025 L408.5465088,125.3130035 C409.4824829,126.0149994 410.2365112,126.6910019 410.7825012,127.3280029 L411.4194946,126.6780014 C410.8215027,126.0019989 410.0805054,125.3389969 409.1965027,124.6760025 Z M407.6755066,128.5240021 L407.6755066,129.4210052 L409.5864868,129.4210052 L409.5864868,134.6080017 C409.5864868,134.8159943 409.4824829,134.9980011 409.2875061,135.154007 L409.6514893,135.9989929 C410.5744934,135.3880005 411.4454956,134.6990051 412.2514954,133.9190063 L412.0175171,132.9570007 C411.4714966,133.477005 410.9514771,133.9190063 410.4835205,134.3090057 L410.4835205,128.5240021 L407.6755066,128.5240021 Z M422.6514893,127.4840012 L422.6514893,132.5930023 L424.3024902,132.5930023 L424.3024902,133.1000061 C424.3024902,133.2039948 424.2894897,133.3339996 424.2764893,133.4640045 L421.0914917,133.4640045 L421.0914917,134.2960052 L424.0424805,134.2960052 C423.9644775,134.4519958 423.8735046,134.5950012 423.7695007,134.7380066 C423.4055176,135.128006 422.7684937,135.4530029 421.8585205,135.7129974 L422.3394775,136.4539948 C423.3405151,136.1679993 424.0684814,135.7779999 424.510498,135.2709961 C424.7445068,134.9980011 424.9135132,134.6730042 425.0435181,134.2960052 L428.7355042,134.2960052 L428.7355042,136.4929962 L429.6585083,136.4929962 L429.6585083,134.2960052 L432.6094971,134.2960052 L432.6094971,133.4640045 L429.6585083,133.4640045 L429.6585083,132.5930023 L431.2055054,132.5930023 L431.2055054,127.4840012 L422.6514893,127.4840012 Z M425.2384949,132.5930023 L428.7355042,132.5930023 L428.7355042,133.4640045 L425.2124939,133.4640045 C425.2254944,133.3470001 425.2384949,133.2299957 425.2384949,133.1000061 L425.2384949,132.5930023 Z M430.2955017,131.8650055 L423.5614929,131.8650055 L423.5614929,131.0590057 L430.2955017,131.0590057 L430.2955017,131.8650055 Z M423.5614929,130.3829956 L423.5614929,129.6549988 L430.2955017,129.6549988 L430.2955017,130.3829956 L423.5614929,130.3829956 Z M423.5614929,128.9920044 L423.5614929,128.2120056 L430.2955017,128.2120056 L430.2955017,128.9920044 L423.5614929,128.9920044 Z M423.0415039,126.2099991 L424.0424805,126.2099991 C424.3024902,126.560997 424.536499,126.9250031 424.7445068,127.2890015 L425.5245056,127.0029984 C425.3815002,126.7559967 425.1994934,126.4960022 424.9785156,126.2099991 L426.6815186,126.2099991 L426.6815186,125.4169998 L423.4575195,125.4169998 C423.5614929,125.1699982 423.6784973,124.9100037 423.7825012,124.6500015 L422.885498,124.4550018 C422.5344849,125.4430008 421.9624939,126.3529968 421.1694946,127.1849976 L421.9494934,127.6660004 C422.3654785,127.223999 422.7294922,126.7300034 423.0415039,126.2099991 Z M428.3845215,126.1709976 L429.3724976,126.1709976 C429.6585083,126.5350037 429.9055176,126.9120026 430.1134949,127.302002 L430.8934937,127.0159988 C430.7374878,126.7559967 430.555481,126.4700012 430.3215027,126.1709976 L432.4924927,126.1709976 L432.4924927,125.3779984 L428.7875061,125.3779984 L429.0604858,124.6760025 L428.1505127,124.4810028 C427.864502,125.3649979 427.3964844,126.1839981 426.746521,126.9120026 L427.5134888,127.4059982 C427.838501,127.0289993 428.1245117,126.612999 428.3845215,126.1709976 Z M434.364502,127.0940018 L434.364502,127.9909973 L436.2625122,127.9909973 C435.8334961,129.6159973 435.1184998,131.0590057 434.1174927,132.3200073 L434.5205078,133.3339996 C435.2485046,132.2680054 435.8464966,131.0980072 436.3015137,129.7980042 L436.3015137,136.4019928 L437.2374878,136.4019928 L437.2374878,129.5509949 C437.6015015,130.0579987 438.0305176,130.720993 438.5245056,131.5399933 L439.0704956,130.7339935 C438.4465027,129.9669952 437.8355103,129.2779999 437.2374878,128.654007 L437.2374878,127.9909973 L438.8494873,127.9909973 L438.8494873,127.0940018 L437.2374878,127.0940018 L437.2374878,124.5589981 L436.3015137,124.5589981 L436.3015137,127.0940018 L434.364502,127.0940018 Z M438.2384949,135.8300018 L439.0054932,136.5189972 C439.6165161,135.5829926 440.0325012,134.6210022 440.253479,133.6069946 C440.4874878,132.6450043 440.6044922,131.4490051 440.6044922,130.0189972 L440.6044922,125.9759979 L442.9185181,125.9759979 L442.9185181,135.0240021 C442.9185181,135.7779999 443.3345032,136.1549988 444.1665039,136.1549988 L444.6994934,136.1549988 C445.1154785,136.1549988 445.4274902,136.0769958 445.635498,135.9340057 C445.8435059,135.7519989 445.9735107,135.4400024 446.0255127,134.9720001 C446.0775146,134.4779968 446.1165161,133.776001 446.1165161,132.8399963 L445.2584839,132.5670013 C445.2584839,133.8150024 445.2194824,134.5559998 445.1674805,134.8159943 C445.1414795,134.9980011 445.0764771,135.1150055 444.9725037,135.1929932 C444.8815002,135.2449951 444.7644958,135.2709961 444.6085205,135.2709961 L444.1665039,135.2709961 C443.9584961,135.2709961 443.8674927,135.154007 443.8674927,134.9329987 L443.8674927,125.0920029 L439.6685181,125.0920029 L439.6685181,130.0189972 C439.6685181,131.3580017 439.5775146,132.423996 439.4085083,133.2169952 C439.1875,134.1399994 438.7974854,135.0110016 438.2384949,135.8300018 Z M449.3535156,131.0720062 L449.3535156,136.4669952 L450.2764893,136.4669952 L450.2764893,130.9680023 C450.7445068,131.3320007 451.2254944,131.7740021 451.6934814,132.2940063 L452.2265015,131.4880066 C451.65448,130.9290009 451.0045166,130.4219971 450.2894897,129.9799957 C450.9915161,129.0570068 451.5115051,128.1210022 451.8494873,127.1719971 L451.8494873,126.3789978 L450.2244873,126.3789978 L450.6015015,126.2360001 C450.4194946,125.6900024 450.1724854,125.0790024 449.8605042,124.4290009 L448.963501,124.689003 C449.2625122,125.2350006 449.522522,125.7939987 449.7434998,126.3789978 L447.7155151,126.3789978 L447.7155151,127.276001 L450.9135132,127.276001 C450.3284912,128.7059937 449.1585083,130.1620026 447.4165039,131.6569977 L447.7025146,132.6320038 C448.3005066,132.1119995 448.8594971,131.5919952 449.3535156,131.0720062 Z M458.3364868,125.0660019 L452.8114929,125.0660019 L452.8114929,132.2550049 L453.7344971,132.2550049 L453.7344971,125.9629974 L457.3875122,125.9629974 L457.3875122,132.2550049 L458.3364868,132.2550049 L458.3364868,125.0660019 Z M458.0635071,136.2590027 C458.4664917,136.2590027 458.7655029,136.1549988 458.9605103,135.9600067 C459.1685181,135.7259979 459.3114929,135.0630035 459.3894958,133.996994 L458.5184937,133.723999 C458.4794922,134.5299988 458.4014893,135.0240021 458.2974854,135.1929932 C458.2194824,135.322998 458.0894775,135.401001 457.8945007,135.401001 L457.088501,135.401001 C456.8024902,135.401001 456.6594849,135.2449951 456.6594849,134.9329987 L456.6594849,132.2290039 L455.7495117,132.2290039 L455.7495117,135.128006 C455.7495117,135.8820038 456.1004944,136.2590027 456.8154907,136.2590027 L458.0635071,136.2590027 Z M455.0864868,126.8860016 L455.0864868,129.3690033 C455.0604858,131.0070038 454.7875061,132.345993 454.2935181,133.3600006 C453.760498,134.3480072 452.8114929,135.128006 451.4465027,135.7259979 L451.9534912,136.5449982 C453.3574829,135.9470062 454.3585205,135.102005 454.9824829,134.022995 C455.6065063,132.8659973 455.944519,131.3190002 455.996521,129.3690033 L455.996521,126.8860016 L455.0864868,126.8860016 Z M470.1405029,129.2779999 L463.1204834,129.2779999 L463.1204834,133.9060059 L464.0175171,133.9060059 L464.0175171,130.1490021 L469.2434998,130.1490021 L469.2434998,133.9060059 L470.1405029,133.9060059 L470.1405029,129.2779999 Z M472.0775146,127.0159988 L469.5944824,127.0159988 C470.0234985,126.4440002 470.4395142,125.7549973 470.8554993,124.935997 L469.9324951,124.5979996 C469.555481,125.4560013 469.1004944,126.262001 468.5675049,127.0159988 L463.588501,127.0159988 L464.121521,126.7429962 C463.7575073,126.0540009 463.3674927,125.4169998 462.9514771,124.8450012 L462.1195068,125.2480011 C462.496521,125.7679977 462.8605042,126.3529968 463.2114868,127.0159988 L461.1965027,127.0159988 L461.1965027,129.6159973 L462.1455078,129.6159973 L462.1455078,127.9260025 L471.128479,127.9260025 L471.128479,129.6289978 L472.0775146,129.6289978 L472.0775146,127.0159988 Z M466.2144775,124.5199966 L465.3825073,124.9229965 C465.746521,125.4950027 466.0975037,126.1319962 466.4354858,126.8600006 L467.2545166,126.4309998 C466.9165039,125.7419968 466.5784912,125.1050034 466.2144775,124.5199966 Z M465.9674988,131.0200043 L465.9674988,132.423996 C465.9154968,133.2819977 465.5645142,133.970993 464.9014893,134.5039978 C464.1864929,135.0240021 462.9255066,135.427002 461.1184998,135.7389984 L461.6514893,136.5709991 C463.4714966,136.2200012 464.7844849,135.7389984 465.5905151,135.1150055 C466.3964844,134.4389954 466.838501,133.5419922 466.8905029,132.423996 L466.8905029,131.0200043 L465.9674988,131.0200043 Z M470.8164978,136.2460022 C471.2844849,136.2460022 471.6224976,136.1419983 471.8305054,135.9340057 C472.0775146,135.6869965 472.246521,135.0110016 472.3244934,133.9060059 L471.4664917,133.6329956 C471.4144897,134.4649963 471.3234863,134.9720001 471.1934814,135.154007 C471.0764771,135.2839966 470.8945007,135.3619995 470.647522,135.3619995 L468.5025024,135.3619995 C468.0864868,135.3619995 467.8914795,135.154007 467.8914795,134.7640076 L467.8914795,132.5800018 L466.9945068,132.5800018 L466.9945068,134.9459991 C466.9945068,135.8040009 467.397522,136.2460022 468.2164917,136.2460022 L470.8164978,136.2460022 Z M473.1304932,135.1669922" style="fill:rgb(23,55,94);stroke:none" clip-path="url(#clip16)" />
<clipPath id="clip17"><path d="M350,194 L438,194 L438,231 L350,231 L350,194 Z" /></clipPath>
<path d="M357,196 C354.2385864,196 352,198.2385712 352,201 L352,223 C352,225.7614288 354.2385864,228 357,228 L430,228 C432.7614136,228 435,225.7614288 435,223 L435,201 C435,198.2385712 432.7614136,196 430,196 Z M357,196" style="fill:rgb(220,230,242);stroke:none" clip-path="url(#clip17)" />
<clipPath id="clip18"><path d="M350,194 L438,194 L438,231 L350,231 L350,194 Z" /></clipPath>
<path d="M357,196 C354.2385864,196 352,198.2385712 352,201 L352,223 C352,225.7614288 354.2385864,228 357,228 L430,228 C432.7614136,228 435,225.7614288 435,223 L435,201 C435,198.2385712 432.7614136,196 430,196 Z M357,196" style="fill:none;stroke:rgb(85,142,213);stroke-width:2" clip-path="url(#clip18)" />
<clipPath id="clip19"><path d="M364,203 L424,203 L424,222 L364,222 L364,203 Z" /></clipPath>
<path d="M367.7145081,210.4915009 L367.7145081,211.4014893 L371.1724854,211.4014893 C370.8995056,212.2984924 370.6004944,213.1564941 370.2885132,213.9884949 L376.7105103,213.9884949 C376.0214844,214.8464966 375.0725098,215.6784973 373.8764954,216.4584961 C372.9794922,216.1464996 372.0434875,215.8475037 371.0684814,215.5874939 L370.5744934,216.3154907 C372.6414795,216.8744965 374.6564941,217.6285095 376.6065063,218.5904999 L377.1264954,217.7714996 C376.411499,217.4335022 375.6575012,217.10849 374.8775024,216.8225098 C376.2164917,215.8605042 377.1914978,214.885498 377.8154907,213.9234924 L377.8154907,213.1174927 L371.6275024,213.1174927 C371.8095093,212.5845032 372.0045166,212.0124969 372.1864929,211.4014893 L379.3884888,211.4014893 L379.3884888,210.4915009 L372.4335022,210.4915009 C372.5635071,209.9844971 372.6934814,209.4515076 372.8234863,208.8795013 L378.6214905,208.8795013 L378.6214905,208.0084991 L373.0184937,208.0084991 C373.1224976,207.5404968 373.213501,207.0335083 373.3175049,206.5134888 L372.3554993,206.4355011 C372.2514954,206.9555054 372.1474915,207.4754944 372.0304871,208.0084991 L368.5985107,208.0084991 L368.5985107,208.8795013 L371.8355103,208.8795013 C371.7055054,209.4255066 371.5755005,209.9584961 371.4324951,210.4915009 L367.7145081,210.4915009 Z M388.852478,213.3775024 C389.4765015,215.1585083 390.503479,216.6275024 391.9335022,217.7845001 L392.5964966,217.0175018 C391.2185059,216.0424957 390.2174988,214.7424927 389.6065063,213.1044922 C390.4124756,212.7924957 391.1535034,212.4024963 391.8424988,211.9475098 L391.2055054,211.3105011 C390.1134949,212.0254974 388.9694824,212.5455017 387.760498,212.8834991 C387.4874878,212.3374939 387.1235046,211.8305054 386.6685181,211.3624878 C387.0195007,211.1545105 387.3704834,210.9205017 387.7344971,210.6734924 L390.7114868,210.6734924 L390.7114868,209.8024902 L382.9244995,209.8024902 L382.9244995,210.6734924 L386.3695068,210.6734924 C385.9534912,210.9075012 385.4985046,211.115509 385.0305176,211.3235016 C384.02948,211.7525024 382.8984985,212.1035004 381.6505127,212.3764954 L382.1315002,213.1434937 C383.5874939,212.7275085 384.7705078,212.3114929 385.6674805,211.8955078 C385.7584839,211.8435059 385.8494873,211.8045044 385.9534912,211.7525024 C386.135498,211.9605103 386.3175049,212.181488 386.4735107,212.4284973 C385.2904968,213.338501 383.6004944,214.0664978 381.4165039,214.6384888 L381.884491,215.4444885 C383.990509,214.8464966 385.65448,214.0664978 386.8764954,213.1044922 C387.0325012,213.4165039 387.1495056,213.7415009 387.253479,214.0794983 C385.8364868,215.2494965 383.8345032,216.1985016 381.260498,216.9524994 L381.7285156,217.7584991 C384.0814819,217.0435028 385.9794922,216.1204987 387.4354858,214.9765015 C387.4614868,215.1845093 387.4744873,215.3925018 387.4874878,215.6264954 C387.4874878,216.4324951 387.3704834,216.9785004 387.1365051,217.2644958 C386.9414978,217.4855042 386.4605103,217.6025085 385.6934814,217.615509 L385.069519,217.615509 L385.3815002,218.4345093 L385.8234863,218.4345093 C386.9414978,218.4345093 387.6694946,218.2005005 387.9815063,217.7584991 C388.2545166,217.3684998 388.3974915,216.6535034 388.3974915,215.6264954 C388.384491,214.911499 388.2675171,214.2355042 388.0595093,213.5984955 C388.319519,213.5335083 388.5924988,213.4555054 388.852478,213.3775024 Z M386.9674988,206.4355011 L386.0184937,206.6044922 C386.1744995,206.9165039 386.3305054,207.2805023 386.4735107,207.6705017 L381.3255005,207.6705017 L381.3255005,209.9324951 L382.2485046,209.9324951 L382.2485046,208.5415039 L391.3745117,208.5415039 L391.3745117,209.9324951 L392.2974854,209.9324951 L392.2974854,207.6705017 L387.4094849,207.6705017 C387.2664795,207.2154999 387.1235046,206.7994995 386.9674988,206.4355011 Z M399.5905151,218.4085083 C400.3184814,218.4085083 400.6954956,218.0314941 400.6954956,217.3034973 L400.6954956,213.8194885 C401.8134766,213.7285004 402.8145142,213.6374969 403.7114868,213.5335083 C404.0234985,213.9884949 404.3095093,214.4304962 404.5565186,214.8724976 L405.3104858,214.3395081 C404.7384949,213.4165039 403.9194946,212.3374939 402.8535156,211.0895081 L402.1514893,211.5184937 C402.5025024,211.9345093 402.8405151,212.3634949 403.1654968,212.7795105 C401.6575012,212.9615021 399.8374939,213.1044922 397.7185059,213.2214966 C399.3565063,212.3634949 401.2675171,210.9725037 403.4644775,209.0354919 L402.6065063,208.6065063 C401.9824829,209.1654968 401.384491,209.6855011 400.7994995,210.1535034 C399.7335205,210.2445068 398.680481,210.3225098 397.6405029,210.3744965 C398.4725037,209.8284912 399.2915039,209.1004944 400.0975037,208.1644897 C401.9434814,208.0214996 403.52948,207.7875061 404.8815002,207.4754944 L404.4265137,206.6824951 C401.9564819,207.2285004 398.8494873,207.5014954 395.1184998,207.5014954 L395.3914795,208.3204956 C396.6394958,208.3204956 397.8095093,208.2944946 398.9144897,208.2424927 C398.0305176,209.2044983 397.2634888,209.8414917 396.6134949,210.1665039 C396.4185181,210.2445068 396.2105103,210.3095093 395.9765015,210.3355103 L396.1715088,211.1674957 C397.4714966,211.0895081 398.6934814,211.0115051 399.8244934,210.9205017 C398.4985046,211.9085083 397.3024902,212.6365051 396.2365112,213.1044922 C395.989502,213.1824951 395.7164917,213.2474976 395.4174805,213.2734985 L395.6774902,214.1054993 C397.1464844,214.0404968 398.4985046,213.9624939 399.746521,213.884491 L399.746521,217.0694885 C399.746521,217.3815002 399.5775146,217.5505066 399.2655029,217.5505066 C398.8364868,217.5505066 398.3945007,217.5245056 397.9265137,217.4855042 L398.134491,218.4085083 L399.5905151,218.4085083 Z M402.4765015,214.6124878 L401.852478,215.2105103 C403.2304993,216.2504883 404.3095093,217.2254944 405.102478,218.135498 L405.7655029,217.4725037 C404.8815002,216.510498 403.7894897,215.5614929 402.4765015,214.6124878 Z M397.5234985,214.7034912 C396.6654968,215.6914978 395.5994873,216.5625 394.3255005,217.3164978 L394.9104919,218.0704956 C396.2105103,217.2774963 397.3024902,216.3544922 398.1864929,215.2884979 L397.5234985,214.7034912 Z M411.7974854,215.48349 C410.6015015,216.0814972 409.2105103,216.5494995 407.6245117,216.9004974 L407.7415161,217.8365021 C409.2495117,217.4725037 410.6015015,216.9785004 411.7974854,216.3804932 L411.7974854,215.48349 Z M409.7174988,206.5004883 C409.1975098,208.0345001 408.5994873,209.3865051 407.8974915,210.5694885 C407.7675171,210.7514954 407.6375122,210.8684998 407.4815063,210.9335022 L407.7285156,211.7915039 C408.4434814,211.6875 409.1585083,211.5574951 409.8605042,211.4274902 C409.1455078,212.6755066 408.5344849,213.5465088 408.0404968,214.0664978 C407.9234924,214.1705017 407.7805176,214.2745056 407.6115112,214.3525085 L407.871521,215.2105103 C409.1195068,215.0025024 410.4324951,214.6254883 411.7974854,214.0534973 L411.7974854,213.1824951 C410.8745117,213.5855103 409.9644775,213.8974915 409.0545044,214.1315002 C409.8085022,213.1954956 410.7575073,211.6484985 411.9014893,209.490509 L411.0565186,209.1654968 C410.8095093,209.6595001 410.5755005,210.114502 410.3414917,210.556488 C409.7695007,210.6604919 409.1975098,210.7644958 408.6254883,210.8424988 C409.3015137,209.8544922 409.9644775,208.5285034 410.614502,206.864502 L409.7174988,206.5004883 Z M412.239502,212.207489 C414.1375122,212.0644989 415.8925171,211.8695068 417.5045166,211.6094971 C417.7254944,211.9475098 417.9205017,212.2724915 418.102478,212.6105042 L418.8305054,212.1035004 C418.3494873,211.2454987 417.6604919,210.2575073 416.7764893,209.1264954 L416.0614929,209.5684967 C416.3865051,209.9844971 416.6984863,210.4134979 416.9844971,210.8294983 C415.7885132,211.0245056 414.5794983,211.1674957 413.3704834,211.2714996 C413.8125,210.7514954 414.319519,209.9324951 414.8914795,208.8014984 L418.8695068,208.8014984 L418.8695068,207.9045105 L415.944519,207.9045105 C415.7625122,207.35849 415.5675049,206.8515015 415.3724976,206.4095001 L414.4234924,206.5654907 C414.6315002,206.9685059 414.8264771,207.4104919 415.0084839,207.9045105 L411.6934814,207.9045105 L411.6934814,208.8014984 L413.9165039,208.8014984 C413.2144775,210.1535034 412.6555176,210.9855042 412.213501,211.3105011 C412.161499,211.3235016 412.1094971,211.3495026 412.0314941,211.3754883 L412.239502,212.207489 Z M413.2924805,212.740509 C413.2404785,214.2095032 413.0585022,215.2754974 412.746521,215.9515076 C412.4215088,216.614502 411.8754883,217.1864929 411.1085205,217.6804962 L411.7064819,218.4215088 C412.5905151,217.8495026 413.2144775,217.1604919 413.5914917,216.3544922 C413.9295044,215.5874939 414.1375122,214.3785095 414.2025146,212.740509 L413.2924805,212.740509 Z M417.9205017,218.213501 C418.4924927,218.1875 418.8565063,218.0314941 419.0255127,217.7714996 C419.194519,217.4855042 419.2854919,216.7185059 419.2854919,215.4964905 L418.4794922,215.2105103 C418.4794922,215.9775085 418.4404907,216.536499 418.3884888,216.9004974 C418.3364868,217.1864929 418.1674805,217.3424988 417.8815002,217.3684998 L417.036499,217.3684998 C416.8284912,217.3424988 416.7374878,217.1994934 416.7374878,216.9264984 L416.7374878,212.6235046 L415.8405151,212.6235046 L415.8405151,217.082489 C415.8405151,217.8365021 416.2304993,218.213501 417.010498,218.213501 L417.9205017,218.213501 Z M419.8314819,217.1474915" style="fill:rgb(23,55,94);stroke:none" clip-path="url(#clip19)" />
<clipPath id="clip20"><path d="M82,209 L183,209 L183,246 L82,246 L82,209 Z" /></clipPath>
<path d="M89,211 C86.2385712,211 84,213.2385712 84,216 L84,238 C84,240.7614288 86.2385712,243 89,243 L175,243 C177.7614288,243 180,240.7614288 180,238 L180,216 C180,213.2385712 177.7614288,211 175,211 Z M89,211" style="fill:rgb(220,230,242);stroke:none" clip-path="url(#clip20)" />
<clipPath id="clip21"><path d="M82,209 L183,209 L183,246 L82,246 L82,209 Z" /></clipPath>
<path d="M89,211 C86.2385712,211 84,213.2385712 84,216 L84,238 C84,240.7614288 86.2385712,243 89,243 L175,243 C177.7614288,243 180,240.7614288 180,238 L180,216 C180,213.2385712 177.7614288,211 175,211 Z M89,211" style="fill:none;stroke:rgb(85,142,213);stroke-width:2" clip-path="url(#clip21)" />
<clipPath id="clip22"><path d="M96,218 L169,218 L169,237 L96,237 L96,218 Z" /></clipPath>
<path d="M99.8834991,223.4309998 L99.8834991,224.3280029 L101.7424927,224.3280029 L101.7424927,226.4729919 L99.7014923,226.4729919 L99.7014923,227.3829956 L101.6904907,227.3829956 C101.5084991,229.8399963 100.7934875,231.6730042 99.5325012,232.894989 L100.2214966,233.5059967 C101.2874908,232.4790039 102.0025024,231.0490112 102.3795013,229.2160034 C102.8864899,229.7749939 103.510498,230.5419922 104.2384949,231.5299988 L104.7584991,230.723999 C104.0045013,229.8399963 103.2504883,229.0469971 102.5224915,228.3580017 C102.5614929,228.04599 102.6004944,227.7210083 102.6264954,227.3829956 L104.5894928,227.3829956 L104.5894928,226.4729919 L102.6784973,226.4729919 L102.6784973,224.3280029 L104.4075012,224.3280029 L104.4075012,223.4309998 L102.6784973,223.4309998 L102.6784973,221.6499939 L101.7424927,221.6499939 L101.7424927,223.4309998 L99.8834991,223.4309998 Z M110.4394989,222.0920105 L105.1744995,222.0920105 L105.1744995,229.2290039 L106.0714874,229.2290039 L106.0714874,222.9629974 L109.5424957,222.9629974 L109.5424957,229.2290039 L110.4394989,229.2290039 L110.4394989,222.0920105 Z M110.088501,233.2980042 C110.5045013,233.2980042 110.8034973,233.1940002 111.0114899,232.9989929 C111.2194977,232.7649994 111.3754883,232.1149902 111.4534912,231.0490112 L110.6474915,230.7890015 C110.5954895,231.5950012 110.5175018,232.0889893 110.4004974,232.2579956 C110.309494,232.3880005 110.1534882,232.4530029 109.9324951,232.4530029 L109.2695007,232.4530029 C108.98349,232.4530029 108.8535004,232.3099976 108.8535004,232.0240021 L108.8535004,229.2940063 L108.0084991,229.2940063 L108.0084991,232.2189941 C108.0084991,232.9339905 108.3334961,233.2980042 109.009491,233.2980042 L110.088501,233.2980042 Z M107.384491,224.0419922 L107.384491,226.3430023 C107.3454895,227.9810028 107.059494,229.3200073 106.5264893,230.3470001 C105.9544983,231.3349915 104.9534912,232.1279907 103.5234985,232.7129974 L104.0175018,233.5059967 C105.4734955,232.894989 106.5394897,232.0500031 107.1894989,230.9840088 C107.8524933,229.8269958 108.2034912,228.2799988 108.2294922,226.3430023 L108.2294922,224.0419922 L107.384491,224.0419922 Z M120.5794983,222.677002 L120.5794983,230.7890015 L121.489502,230.7890015 L121.489502,222.677002 L120.5794983,222.677002 Z M122.8934937,233.3500061 C123.6994934,233.3500061 124.1154938,232.946991 124.1154938,232.1409912 L124.1154938,221.5849915 L123.1794891,221.5849915 L123.1794891,231.9069977 C123.1794891,232.3099976 122.9714966,232.5180054 122.5684967,232.5180054 C122.0224915,232.5180054 121.4375,232.4920044 120.8134918,232.4530029 L121.0214996,233.3500061 L122.8934937,233.3500061 Z M119.2794952,224.4450073 L115.5744934,225.0169983 C115.4964905,223.9899902 115.457489,222.8460083 115.457489,221.571991 L114.4954987,221.571991 C114.4954987,222.8980103 114.5475006,224.0939941 114.6514893,225.1600037 L112.9095001,225.4329987 L113.0524902,226.3430023 L114.7424927,226.0830078 C114.8464966,226.9929962 114.9765015,227.7860107 115.158493,228.4620056 C115.3014984,229.0339966 115.457489,229.5540009 115.6394958,230.0350037 C114.7944946,230.8150024 113.8194885,231.4129944 112.7274933,231.8420105 L113.286499,232.6869965 C114.2874908,232.2709961 115.1974945,231.6990051 116.0294952,230.9970093 C116.2245026,231.4259949 116.4454956,231.803009 116.6794891,232.1409912 C117.2774963,232.9729919 117.8754883,233.3890076 118.4734955,233.3890076 C118.7984924,233.3890076 119.0974884,233.1029968 119.3574982,232.5570068 C119.5654907,232.1019897 119.760498,231.5429993 119.9424896,230.8670044 L119.1494904,230.3600006 C118.8894958,231.6860046 118.6555023,232.3619995 118.4214935,232.401001 C118.0314941,232.3880005 117.5894928,231.9980011 117.10849,231.2310028 C116.9654999,230.9710083 116.8224945,230.6849976 116.6924896,230.3600006 C117.6414948,229.3720093 118.4474945,228.1369934 119.0974884,226.6809998 L118.2784882,226.2519989 C117.7454987,227.4349976 117.0954895,228.4620056 116.3284912,229.3330078 C116.1855011,228.8909912 116.0554962,228.3970032 115.9384918,227.8379974 C115.8214874,227.2659912 115.7304993,226.6419983 115.6524963,225.9400024 L119.4225006,225.355011 L119.2794952,224.4450073 Z M117.1734924,221.519989 L116.4064941,221.8970032 C116.8874969,222.4689941 117.3424988,223.1060028 117.7714996,223.8209991 L118.5644989,223.4309998 C118.1224976,222.7420044 117.6674957,222.105011 117.1734924,221.519989 Z M128.4184875,221.4940033 L127.8074951,227.2009888 L135.2044983,227.2009888 C135.2044983,229.67099 135.0484924,231.1790009 134.7494965,231.7120056 C134.463501,232.2059937 133.5794983,232.4530029 132.1105042,232.4530029 C131.8504944,232.4530029 131.408493,232.4140015 130.7714844,232.3619995 L131.0184937,233.2200012 C131.460495,233.2460022 131.8894958,233.2720032 132.3054962,233.2720032 C133.8914948,233.2720032 134.931488,232.9989929 135.4125061,232.4660034 C135.9064941,231.9069977 136.1535034,229.8659973 136.1535034,226.3300018 L128.8475037,226.3300018 L129.0684967,224.2109985 L137.0375061,224.2109985 L137.0375061,223.3139954 L129.1594849,223.3139954 L129.3414917,221.571991 L128.4184875,221.4940033 Z M126.1304932,229.2940063 L126.1304932,230.1910095 L133.4754944,230.1910095 L133.4754944,229.2940063 L126.1304932,229.2940063 Z M145.3964844,227.3569946 L147.710495,227.3569946 L147.710495,229.1119995 L145.3964844,229.1119995 L145.3964844,227.3569946 Z M145.3964844,229.9830017 L147.710495,229.9830017 L147.710495,231.9199982 L145.3964844,231.9199982 L145.3964844,229.9830017 Z M145.3964844,232.8170013 L151.0384979,232.8170013 L151.0384979,231.9199982 L148.6334839,231.9199982 L148.6334839,229.9830017 L150.635498,229.9830017 L150.635498,229.1119995 L148.6334839,229.1119995 L148.6334839,227.3569946 L150.635498,227.3569946 L150.635498,226.4729919 L148.6334839,226.4729919 L148.6334839,224.7050018 L150.8954926,224.7050018 L150.8954926,223.7949982 L148.4125061,223.7949982 L148.7634888,223.6650085 C148.5944977,223.0149994 148.3605042,222.3130035 148.0484924,221.5329895 L147.1514893,221.7799988 C147.4505005,222.4299927 147.710495,223.1060028 147.9184875,223.7949982 L145.5654907,223.7949982 C145.8515015,223.1319885 146.0984955,222.4559937 146.2934875,221.7539978 L145.3834839,221.571991 C144.9414978,223.2619934 144.2005005,224.8089905 143.134491,226.2129974 L143.4465027,227.2009888 C143.8104858,226.7590027 144.161499,226.2910004 144.4734955,225.7969971 L144.4734955,233.4150085 L145.3964844,233.4150085 L145.3964844,232.8170013 Z M147.710495,224.7050018 L147.710495,226.4729919 L145.3964844,226.4729919 L145.3964844,224.7050018 L147.710495,224.7050018 Z M143.2774963,226.9020081 C142.8874969,227.0970001 142.4844971,227.2789917 142.0684967,227.4609985 L142.0684967,224.8349915 L143.3815002,224.8349915 L143.3815002,223.9250031 L142.0684967,223.9250031 L142.0684967,221.519989 L141.1194916,221.519989 L141.1194916,223.9250031 L139.4555054,223.9250031 L139.4555054,224.8349915 L141.1194916,224.8349915 L141.1194916,227.8249969 C140.5214844,228.0329895 139.8974915,228.2149963 139.260498,228.3580017 L139.4944916,229.2940063 C140.0404968,229.1380005 140.5864868,228.9559937 141.1194916,228.7740021 L141.1194916,231.9069977 C141.1194916,232.2449951 140.9375,232.4140015 140.5864868,232.4140015 C140.2485046,232.4140015 139.884491,232.3880005 139.5204926,232.348999 L139.7154846,233.2590027 L140.911499,233.2590027 C141.6784973,233.2590027 142.0684967,232.8819885 142.0684967,232.1539917 L142.0684967,228.3970032 C142.4844971,228.2279968 142.8874969,228.04599 143.2774963,227.8509979 L143.2774963,226.9020081 Z M157.408493,222.0660095 L157.408493,228.071991 L160.1254883,228.071991 L160.1254883,229.6060028 L157.1875,229.6060028 L157.1875,230.4899902 L160.1254883,230.4899902 L160.1254883,232.1799927 L156.6414948,232.1799927 L156.6414948,233.0769958 L164.4674988,233.0769958 L164.4674988,232.1799927 L161.0614929,232.1799927 L161.0614929,230.4899902 L163.986496,230.4899902 L163.986496,229.6060028 L161.0614929,229.6060028 L161.0614929,228.071991 L163.7655029,228.071991 L163.7655029,222.0660095 L157.408493,222.0660095 Z M162.8684998,227.2399902 L161.0614929,227.2399902 L161.0614929,225.4850006 L162.8684998,225.4850006 L162.8684998,227.2399902 Z M160.1254883,227.2399902 L158.3054962,227.2399902 L158.3054962,225.4850006 L160.1254883,225.4850006 L160.1254883,227.2399902 Z M158.3054962,224.6660004 L158.3054962,222.8980103 L160.1254883,222.8980103 L160.1254883,224.6660004 L158.3054962,224.6660004 Z M161.0614929,222.8980103 L162.8684998,222.8980103 L162.8684998,224.6660004 L161.0614929,224.6660004 L161.0614929,222.8980103 Z M152.8194885,226.3690033 L152.8194885,227.2659912 L154.236496,227.2659912 L154.236496,230.5289917 C153.6774902,230.6849976 153.1054993,230.8150024 152.533493,230.9190063 L152.7674866,231.8160095 C154.1454926,231.4779968 155.4324951,231.0619965 156.6284943,230.5679932 L156.6284943,229.6579895 C156.1604919,229.8659973 155.6925049,230.0480042 155.1984863,230.2170105 L155.1984863,227.2659912 L156.6284943,227.2659912 L156.6284943,226.3690033 L155.1984863,226.3690033 L155.1984863,223.2879944 L156.7844849,223.2879944 L156.7844849,222.4039917 L152.6374969,222.4039917 L152.6374969,223.2879944 L154.236496,223.2879944 L154.236496,226.3690033 L152.8194885,226.3690033 Z M165.0004883,232.1669922" style="fill:rgb(23,55,94);stroke:none" clip-path="url(#clip22)" />
<clipPath id="clip23"><path d="M40,144 L128,144 L128,181 L40,181 L40,144 Z" /></clipPath>
<path d="M47,146 C44.2385712,146 42,148.2385712 42,151 L42,173 C42,175.7614288 44.2385712,178 47,178 L120,178 C122.7614288,178 125,175.7614288 125,173 L125,151 C125,148.2385712 122.7614288,146 120,146 Z M47,146" style="fill:rgb(220,230,242);stroke:none" clip-path="url(#clip23)" />
<clipPath id="clip24"><path d="M40,144 L128,144 L128,181 L40,181 L40,144 Z" /></clipPath>
<path d="M47,146 C44.2385712,146 42,148.2385712 42,151 L42,173 C42,175.7614288 44.2385712,178 47,178 L120,178 C122.7614288,178 125,175.7614288 125,173 L125,151 C125,148.2385712 122.7614288,146 120,146 Z M47,146" style="fill:none;stroke:rgb(85,142,213);stroke-width:2" clip-path="url(#clip24)" />
<clipPath id="clip25"><path d="M54,153 L114,153 L114,172 L54,172 L54,153 Z" /></clipPath>
<path d="M62.3684998,157.0919952 L62.3684998,157.9499969 L64.9164886,157.9499969 L64.6044922,159.3930054 L62.6804962,159.3930054 L62.6804962,160.2380066 L64.4225006,160.2380066 L64.0585022,161.9539948 L62.0305023,161.9539948 L62.0305023,162.8249969 L69.8824921,162.8249969 L69.8824921,161.9539948 L68.6604919,161.9539948 L68.6604919,159.3930054 L65.5404968,159.3930054 L65.8524933,157.9499969 L69.4794922,157.9499969 L69.4794922,157.0919952 L62.3684998,157.0919952 Z M64.9944916,161.9539948 L65.35849,160.2380066 L67.7245026,160.2380066 L67.7245026,161.9539948 L64.9944916,161.9539948 Z M69.0244904,164.0079956 L63.0184937,164.0079956 L63.0184937,168.5059967 L63.9414978,168.5059967 L63.9414978,167.8820038 L68.1015015,167.8820038 L68.1015015,168.5059967 L69.0244904,168.5059967 L69.0244904,164.0079956 Z M63.9414978,166.9980011 L63.9414978,164.8659973 L68.1015015,164.8659973 L68.1015015,166.9980011 L63.9414978,166.9980011 Z M59.5475006,156.7409973 L58.8974915,157.378006 C59.7944946,158.0540009 60.4964905,158.6779938 61.0164948,159.276001 L61.6664886,158.6390076 C61.0944977,158.0019989 60.3795013,157.3650055 59.5475006,156.7409973 Z M57.9355011,160.5370026 L57.9355011,161.4340057 L59.8464966,161.4340057 L59.8464966,166.6210022 C59.8464966,166.8289948 59.7424927,167.0110016 59.5605011,167.1799927 L59.9244995,168.0119934 C60.7825012,167.427002 61.5755005,166.7640076 62.3294983,166.0100098 L62.082489,165.0220032 C61.6015015,165.503006 61.1595001,165.9320068 60.7434998,166.2960052 L60.7434998,160.5370026 L57.9355011,160.5370026 Z M81.2054901,162.6820068 L73.1454926,162.6820068 L73.1454926,168.4799957 L74.0944977,168.4799957 L74.0944977,167.8820038 L80.2565002,167.8820038 L80.2565002,168.4799957 L81.2054901,168.4799957 L81.2054901,162.6820068 Z M74.0944977,167.0500031 L74.0944977,165.697998 L80.2565002,165.697998 L80.2565002,167.0500031 L74.0944977,167.0500031 Z M74.0944977,164.8919983 L74.0944977,163.5140076 L80.2565002,163.5140076 L80.2565002,164.8919983 L74.0944977,164.8919983 Z M72.0274963,157.8330078 L72.0274963,158.6909943 L74.0554962,158.6909943 C74.3154907,159.3280029 74.5625,160.0169983 74.7704926,160.7709961 L71.4164886,160.7709961 L71.4164886,161.6419983 L82.8824921,161.6419983 L82.8824921,160.7709961 L79.4244995,160.7709961 C79.7624969,160.1080017 80.0224915,159.4190063 80.2174988,158.6909943 L82.2845001,158.6909943 L82.2845001,157.8330078 L77.6954956,157.8330078 C77.5134888,157.3130035 77.3184967,156.8580017 77.1104889,156.4550018 L76.1224976,156.6109924 C76.3434906,156.9750061 76.5514984,157.3910065 76.7464905,157.8330078 L72.0274963,157.8330078 Z M75.0435028,158.6909943 L79.2814941,158.6909943 C79.1254883,159.4190063 78.8654938,160.1080017 78.5144958,160.7709961 L75.7064972,160.7709961 C75.4984894,160.0169983 75.2774963,159.3150024 75.0435028,158.6909943 Z M89.5774994,157.3390045 L89.5774994,163.4100037 L95.5574951,163.4100037 L95.5574951,157.3390045 L89.5774994,157.3390045 Z M94.6214905,162.5 L90.5134888,162.5 L90.5134888,158.2359924 L94.6214905,158.2359924 L94.6214905,162.5 Z M86.0414886,156.6889954 L85.3914948,157.326004 C86.3144989,158.0279999 87.0424957,158.6909943 87.5755005,159.3150024 L88.2124939,158.6650085 C87.614502,158.0019989 86.8994904,157.3390045 86.0414886,156.6889954 Z M84.4814911,160.5370026 L84.4814911,161.4340057 L86.3665009,161.4340057 L86.3665009,166.6080017 C86.3665009,166.8160095 86.2754974,166.9980011 86.0934906,167.1539917 L86.457489,167.9859924 C87.3024902,167.401001 88.0954895,166.7380066 88.8495026,165.9840088 L88.6024933,164.9960022 C88.1214905,165.477005 87.6794891,165.9060059 87.2634888,166.2700043 L87.2634888,160.5370026 L84.4814911,160.5370026 Z M90.9684906,164.1900024 C90.3444977,165.6459961 89.5774994,166.9069977 88.6804962,167.946991 L89.4994965,168.5449982 C90.3834991,167.427002 91.1504974,166.1139984 91.8004913,164.5930023 L90.9684906,164.1900024 Z M94.088501,164.151001 L93.3345032,164.6320038 C94.309494,166.0359955 95.0764923,167.322998 95.6484985,168.4929962 L96.4544983,167.9340057 C95.908493,166.8549957 95.1154938,165.5939941 94.088501,164.151001 Z M100.4974976,161.2129974 C100.4714966,161.7850037 100.4194946,162.3049927 100.3674927,162.798996 L97.9364929,162.798996 L97.9364929,163.6699982 L100.2504883,163.6699982 C100.1334991,164.2940063 99.9904938,164.8269958 99.8085022,165.2429962 C99.3925018,166.2050018 98.6774902,167.0240021 97.6764984,167.7129974 L98.2744904,168.4539948 C99.3795013,167.6609955 100.1725006,166.7120056 100.6535034,165.6199951 C100.861496,165.1260071 101.0305023,164.4759979 101.1734924,163.6699982 L103.1624908,163.6699982 C103.1364899,165.3209991 103.0974884,166.3090057 103.0195007,166.6340027 C102.9154968,167.1929932 102.5254974,167.4790039 101.8754883,167.4790039 C101.6024933,167.4790039 101.2774963,167.4530029 100.9004974,167.427002 L101.1214905,168.2590027 C101.5374908,168.2850037 101.8235016,168.2980042 102.0054932,168.2980042 C103.1364899,168.2980042 103.760498,167.8560028 103.8905029,166.9980011 C104.0204926,166.4519958 104.085495,165.0610046 104.085495,162.798996 L101.2904968,162.798996 C101.3424988,162.3049927 101.3815002,161.7850037 101.4075012,161.2129974 L103.9554901,161.2129974 L103.9554901,157.0789948 L98.4304962,157.0789948 L98.4304962,161.2129974 L100.4974976,161.2129974 Z M105.4244995,157.7030029 L105.4244995,165.802002 L106.3345032,165.802002 L106.3345032,157.7030029 L105.4244995,157.7030029 Z M107.8424988,168.3630066 C108.6484985,168.3630066 109.0644989,167.9210052 109.0644989,167.0630035 L109.0644989,156.5979919 L108.1284943,156.5979919 L108.1284943,166.8289948 C108.1284943,167.2969971 107.9205017,167.5310059 107.5175018,167.5310059 C106.9714966,167.5310059 106.3994904,167.5050049 105.7884979,167.4660034 L105.9964905,168.3630066 L107.8424988,168.3630066 Z M103.0585022,160.3549957 L99.3274994,160.3549957 L99.3274994,157.923996 L103.0585022,157.923996 L103.0585022,160.3549957 Z M110.1694946,167.1799927" style="fill:rgb(23,55,94);stroke:none" clip-path="url(#clip25)" />
<clipPath id="clip26"><path d="M14,79 L128,79 L128,116 L14,116 L14,79 Z" /></clipPath>
<path d="M21,81 C18.2385712,81 16,83.2385712 16,86 L16,108 C16,110.7614288 18.2385712,113 21,113 L120,113 C122.7614288,113 125,110.7614288 125,108 L125,86 C125,83.2385712 122.7614288,81 120,81 Z M21,81" style="fill:rgb(220,230,242);stroke:none" clip-path="url(#clip26)" />
<clipPath id="clip27"><path d="M14,79 L128,79 L128,116 L14,116 L14,79 Z" /></clipPath>
<path d="M21,81 C18.2385712,81 16,83.2385712 16,86 L16,108 C16,110.7614288 18.2385712,113 21,113 L120,113 C122.7614288,113 125,110.7614288 125,108 L125,86 C125,83.2385712 122.7614288,81 120,81 Z M21,81" style="fill:none;stroke:rgb(85,142,213);stroke-width:2" clip-path="url(#clip27)" />
<clipPath id="clip28"><path d="M28,88 L114,88 L114,107 L28,107 L28,88 Z" /></clipPath>
<path d="M40.9185028,93.0930023 L35.9395142,93.0930023 C36.1995087,92.651001 36.4075012,92.1569977 36.5505066,91.637001 L35.6015015,91.5070038 C35.4715118,92.0530014 35.2505035,92.572998 34.9645081,93.0930023 L32.1825104,93.0930023 L32.1825104,103.4540024 L33.1315002,103.4540024 L33.1315002,102.6480026 L39.9695129,102.6480026 L39.9695129,103.4540024 L40.9185028,103.4540024 L40.9185028,93.0930023 Z M33.1315002,101.7509995 L33.1315002,99.6320038 L39.9695129,99.6320038 L39.9695129,101.7509995 L33.1315002,101.7509995 Z M33.1315002,98.7740021 L33.1315002,96.7850037 L39.9695129,96.7850037 L39.9695129,98.7740021 L33.1315002,98.7740021 Z M33.1315002,95.927002 L33.1315002,93.9900055 L39.9695129,93.9900055 L39.9695129,95.927002 L33.1315002,95.927002 Z M53.9185028,91.6759949 L53.2555084,92.0789948 C53.8404999,92.7420044 54.2955017,93.3529968 54.6334991,93.8990021 L55.3355103,93.4179993 C54.9975128,92.923996 54.51651,92.3390045 53.9185028,91.6759949 Z M51.7735138,91.5979996 L51.7735138,93.2879944 C51.7735138,93.6389999 51.7475128,93.977005 51.7215118,94.3150024 L49.888504,94.3150024 L49.888504,95.2249985 L51.591507,95.2249985 C51.4615021,95.848999 51.292511,96.3950043 51.0585022,96.8889999 C50.5904999,97.772995 49.7455139,98.487999 48.5494995,99.0339966 L49.0305023,99.7750015 C50.2915039,99.2290039 51.2015076,98.461998 51.7475128,97.5 C51.9685059,97.0709991 52.1505127,96.5769958 52.3065033,96.0309982 C52.8135071,97.5910034 53.8145142,98.8649979 55.3095093,99.8269958 L55.8165131,99.0209961 C54.2565002,98.0979996 53.2685089,96.836998 52.8785095,95.2249985 L55.4005127,95.2249985 L55.4005127,94.3150024 L52.592514,94.3150024 C52.6184998,93.9900055 52.6315002,93.6520004 52.6445007,93.2879944 L52.6445007,91.5979996 L51.7735138,91.5979996 Z M45.7545013,100.0999985 C45.4035034,101.3610001 44.9875031,102.401001 44.4934998,103.2330017 L45.4035034,103.5579987 C45.8845062,102.6220016 46.2745056,101.5559998 46.5865021,100.3339996 L45.7545013,100.0999985 Z M48.7315063,100.2819977 L47.8605042,100.4640045 C48.042511,101.3349991 48.1855011,102.3359985 48.3025055,103.4669952 L49.2255096,103.2590027 C49.0695038,102.1930008 48.9135132,101.1920013 48.7315063,100.2819977 Z M51.4485016,100.1259995 L50.5645142,100.3209991 C50.9025116,101.2180023 51.1755066,102.2579956 51.4095001,103.4540024 L52.3455048,103.2330017 C52.0855103,102.1149979 51.786499,101.0879974 51.4485016,100.1259995 Z M53.9185028,99.8789978 L53.1255035,100.2559967 C53.6975098,101.1920013 54.2304993,102.2449951 54.7245026,103.4150009 L55.5695038,102.9990005 C55.0494995,101.8679962 54.490509,100.8280029 53.9185028,99.8789978 Z M46.2875061,94.7570038 C46.9375,94.9649963 47.5875092,95.2509995 48.2245026,95.5890045 C48.0035095,95.9790039 47.7434998,96.3690033 47.4575043,96.7330017 C46.8595123,96.3690033 46.2225037,96.0439987 45.5335083,95.7709961 C45.7935028,95.4589996 46.0535126,95.1210022 46.2875061,94.7570038 Z M48.5755005,94.8610001 C47.9775085,94.548996 47.3404999,94.302002 46.690506,94.0939941 C46.8465118,93.8079987 46.989502,93.5090027 47.1195068,93.2099991 L49.1475067,93.2099991 C48.9915009,93.7819977 48.8095093,94.3410034 48.5755005,94.8610001 Z M47.4315033,92.3779984 C47.5095062,92.1309967 47.5875092,91.8840027 47.6655121,91.6240005 L46.7555084,91.5070038 C46.2485046,93.3659973 45.2735138,94.9389954 43.8175049,96.2259979 L44.3895111,96.9669952 C44.5975037,96.7850037 44.8055115,96.5769958 45.013504,96.3560028 C45.6505127,96.6159973 46.2745056,96.9539948 46.8985138,97.3569946 C46.1575012,98.1110001 45.2475128,98.7220001 44.1685028,99.177002 L44.6105042,99.9960022 C47.4965057,98.6309967 49.3295135,96.3430023 50.0965118,93.1450043 L50.0965118,92.3779984 L47.4315033,92.3779984 Z M61.5494995,92.0789948 L61.5494995,92.9369965 L64.0975037,92.9369965 L63.7855072,94.3800049 L61.8615112,94.3800049 L61.8615112,95.2249985 L63.6035004,95.2249985 L63.239502,96.9409943 L61.2115021,96.9409943 L61.2115021,97.8119965 L69.0635071,97.8119965 L69.0635071,96.9409943 L67.841507,96.9409943 L67.841507,94.3800049 L64.7215118,94.3800049 L65.0335083,92.9369965 L68.6605072,92.9369965 L68.6605072,92.0789948 L61.5494995,92.0789948 Z M64.1755066,96.9409943 L64.539505,95.2249985 L66.9055023,95.2249985 L66.9055023,96.9409943 L64.1755066,96.9409943 Z M68.2055054,98.9949951 L62.1995087,98.9949951 L62.1995087,103.4929962 L63.1225128,103.4929962 L63.1225128,102.8690033 L67.2825012,102.8690033 L67.2825012,103.4929962 L68.2055054,103.4929962 L68.2055054,98.9949951 Z M63.1225128,101.9850006 L63.1225128,99.8529968 L67.2825012,99.8529968 L67.2825012,101.9850006 L63.1225128,101.9850006 Z M58.7285004,91.7279968 L58.0785065,92.3650055 C58.9755096,93.0410004 59.6775055,93.6650009 60.1975098,94.2630005 L60.8475037,93.6259995 C60.2755127,92.9889984 59.5605011,92.352005 58.7285004,91.7279968 Z M57.1165009,95.5240021 L57.1165009,96.4210052 L59.0275116,96.4210052 L59.0275116,101.6080017 C59.0275116,101.8160019 58.9235077,101.9980011 58.7415009,102.1669998 L59.1054993,102.9990005 C59.963501,102.4140015 60.7565002,101.7509995 61.5105133,100.9970016 L61.263504,100.0090027 C60.7825012,100.4899979 60.3404999,100.9189987 59.9244995,101.2829971 L59.9244995,95.5240021 L57.1165009,95.5240021 Z M70.5065002,93.1969986 L70.5065002,94.0810013 L82.167511,94.0810013 L82.167511,93.1969986 L76.4865112,93.1969986 L77.0065002,93.0019989 C76.8505096,92.5339966 76.6295013,92.0139999 76.3435059,91.4420013 L75.3684998,91.7149963 C75.64151,92.1829987 75.8755035,92.677002 76.0835114,93.1969986 L70.5065002,93.1969986 Z M72.1835022,95.211998 L72.1835022,96.0569992 L80.490509,96.0569992 L80.490509,95.211998 L72.1835022,95.211998 Z M72.1835022,97.201004 L72.1835022,98.0459976 L80.490509,98.0459976 L80.490509,97.201004 L72.1835022,97.201004 Z M80.6985016,99.2939987 L71.9625092,99.2939987 L71.9625092,103.4929962 L72.8725128,103.4929962 L72.8725128,102.8690033 L79.7885132,102.8690033 L79.7885132,103.4929962 L80.6985016,103.4929962 L80.6985016,99.2939987 Z M72.8725128,101.9850006 L72.8725128,100.1780014 L79.7885132,100.1780014 L79.7885132,101.9850006 L72.8725128,101.9850006 Z M86.2235107,91.5330048 C85.7815094,94.1459961 84.9495087,96.2259979 83.7015076,97.772995 L84.338501,98.5660019 C84.7285004,98.0849991 85.1054993,97.5390015 85.443512,96.9280014 C85.7685089,98.1110001 86.1455078,99.1119995 86.5745087,99.9309998 C85.8335114,100.9580002 84.8975067,101.8030014 83.7795105,102.4530029 L84.286499,103.336998 C85.3785095,102.6869965 86.3145142,101.8549957 87.1205139,100.8410034 C87.4195099,101.2570038 87.7445068,101.6080017 88.1085052,101.8809967 C89.3045044,102.7649994 91.2415009,103.2200012 93.9195099,103.2200012 L95.3495026,103.2200012 L95.5315094,102.2449951 C94.8295135,102.2839966 94.1535034,102.3099976 93.4775085,102.3099976 C91.2805023,102.2839966 89.6685028,101.9199982 88.6545105,101.2050018 C88.2905121,100.9449997 87.9654999,100.5810013 87.6535034,100.0999985 C88.64151,98.5660019 89.3045044,96.6549988 89.6555023,94.3800049 L89.6555023,93.5480042 L86.7434998,93.5480042 C86.8995056,92.9499969 87.0295105,92.3390045 87.1464996,91.6889954 L86.2235107,91.5330048 Z M85.989502,95.7969971 C86.1585083,95.3809967 86.3274994,94.9259949 86.4835052,94.4449997 L88.7325134,94.4449997 C88.4205017,96.2389984 87.8745117,97.798996 87.1075134,99.1119995 C86.6915131,98.2409973 86.3274994,97.1360016 85.989502,95.7969971 Z M91.3975067,91.6110001 L91.3975067,101.2959976 L92.3465118,101.2959976 L92.3465118,95.8880005 C93.0875092,96.4860001 93.9845123,97.3310013 95.0375061,98.3970032 L95.5965118,97.5650024 C94.4915009,96.5639954 93.4125061,95.6800003 92.3465118,94.9129944 L92.3465118,91.6110001 L91.3975067,91.6110001 Z M101.7584991,92.0659943 L101.7584991,98.0719986 L104.4755096,98.0719986 L104.4755096,99.6060028 L101.5375061,99.6060028 L101.5375061,100.4899979 L104.4755096,100.4899979 L104.4755096,102.1800003 L100.9915009,102.1800003 L100.9915009,103.0769958 L108.8175049,103.0769958 L108.8175049,102.1800003 L105.411499,102.1800003 L105.411499,100.4899979 L108.3365021,100.4899979 L108.3365021,99.6060028 L105.411499,99.6060028 L105.411499,98.0719986 L108.115509,98.0719986 L108.115509,92.0659943 L101.7584991,92.0659943 Z M107.2185059,97.2400055 L105.411499,97.2400055 L105.411499,95.4850006 L107.2185059,95.4850006 L107.2185059,97.2400055 Z M104.4755096,97.2400055 L102.6555023,97.2400055 L102.6555023,95.4850006 L104.4755096,95.4850006 L104.4755096,97.2400055 Z M102.6555023,94.6660004 L102.6555023,92.897995 L104.4755096,92.897995 L104.4755096,94.6660004 L102.6555023,94.6660004 Z M105.411499,92.897995 L107.2185059,92.897995 L107.2185059,94.6660004 L105.411499,94.6660004 L105.411499,92.897995 Z M97.1695099,96.3690033 L97.1695099,97.2659988 L98.5865021,97.2659988 L98.5865021,100.5289993 C98.0275116,100.6849976 97.4555054,100.8150024 96.8834991,100.9189987 L97.1175079,101.8160019 C98.4955139,101.4779968 99.7825012,101.0619965 100.9785004,100.5680008 L100.9785004,99.6579971 C100.5105133,99.8659973 100.042511,100.0480042 99.5485077,100.2169952 L99.5485077,97.2659988 L100.9785004,97.2659988 L100.9785004,96.3690033 L99.5485077,96.3690033 L99.5485077,93.2879944 L101.1345062,93.2879944 L101.1345062,92.4039993 L96.9875031,92.4039993 L96.9875031,93.2879944 L98.5865021,93.2879944 L98.5865021,96.3690033 L97.1695099,96.3690033 Z M109.3505096,102.1669998" style="fill:rgb(23,55,94);stroke:none" clip-path="url(#clip28)" />
<clipPath id="clip29"><path d="M84,14 L185,14 L185,51 L84,51 L84,14 Z" /></clipPath>
<path d="M91,16 C88.2385712,16 86,18.2385712 86,21 L86,43 C86,45.7614288 88.2385712,48 91,48 L177,48 C179.7614288,48 182,45.7614288 182,43 L182,21 C182,18.2385712 179.7614288,16 177,16 Z M91,16" style="fill:rgb(220,230,242);stroke:none" clip-path="url(#clip29)" />
<clipPath id="clip30"><path d="M84,14 L185,14 L185,51 L84,51 L84,14 Z" /></clipPath>
<path d="M91,16 C88.2385712,16 86,18.2385712 86,21 L86,43 C86,45.7614288 88.2385712,48 91,48 L177,48 C179.7614288,48 182,45.7614288 182,43 L182,21 C182,18.2385712 179.7614288,16 177,16 Z M91,16" style="fill:none;stroke:rgb(85,142,213);stroke-width:2" clip-path="url(#clip30)" />
<clipPath id="clip31"><path d="M98,23 L171,23 L171,42 L98,42 L98,23 Z" /></clipPath>
<path d="M111.3150024,28.1450043 L106.3360138,28.1450043 C106.5960083,27.7030029 106.8040009,27.2089996 106.9470062,26.689003 L105.9980011,26.5589981 C105.8680115,27.1050034 105.6470032,27.625 105.3610077,28.1450043 L102.57901,28.1450043 L102.57901,38.5060043 L103.5279999,38.5060043 L103.5279999,37.7000046 L110.3660126,37.7000046 L110.3660126,38.5060043 L111.3150024,38.5060043 L111.3150024,28.1450043 Z M103.5279999,36.8030014 L103.5279999,34.6839981 L110.3660126,34.6839981 L110.3660126,36.8030014 L103.5279999,36.8030014 Z M103.5279999,33.826004 L103.5279999,31.836998 L110.3660126,31.836998 L110.3660126,33.826004 L103.5279999,33.826004 Z M103.5279999,30.9790039 L103.5279999,29.0419998 L110.3660126,29.0419998 L110.3660126,30.9790039 L103.5279999,30.9790039 Z M114.8769989,27.5080032 L114.8769989,28.4049988 L119.5830078,28.4049988 L119.5830078,27.5080032 L114.8769989,27.5080032 Z M114.3700104,31.0180054 L114.3700104,31.9280014 L116.177002,31.9280014 C115.5270081,34.2939987 115.0070038,35.7369995 114.6170044,36.2700043 C114.5650024,36.2960052 114.5,36.3219986 114.4090118,36.3479996 L114.6300049,37.2320023 C116.2420044,36.9459991 117.75,36.5559998 119.128006,36.0620041 C119.2580109,36.3610001 119.3880005,36.6730042 119.5180054,37.0110016 L120.3240051,36.5950012 C119.7779999,35.2820053 119.1930084,34.072998 118.5690002,32.9550018 L117.776001,33.3450012 C118.1140137,33.9430008 118.4390106,34.5800018 118.7770081,35.2820053 C117.7630005,35.6590042 116.7360077,35.9580002 115.7089996,36.1660004 C116.098999,35.3079987 116.5540009,33.9039993 117.0740051,31.9280014 L120.0770111,31.9280014 L120.0770111,31.0180054 L114.3700104,31.0180054 Z M122.0270081,26.637001 L122.0270081,29.2630005 L120.2720032,29.2630005 L120.2720032,30.1730042 L122.0270081,30.1730042 L122.0270081,30.3290024 C122.0010071,33.826004 121.1690063,36.3610001 119.5440063,37.9339981 L120.2460022,38.5449982 C122.0140076,36.8160019 122.9240112,34.072998 122.9630127,30.3290024 L122.9630127,30.1730042 L124.8870087,30.1730042 C124.8610077,33.6699982 124.8090057,35.7630005 124.7310028,36.4520035 C124.6269989,37.1930008 124.25,37.5699997 123.6130066,37.5699997 C123.2620087,37.5699997 122.8460083,37.5439987 122.378006,37.5180054 L122.5860138,38.3499985 C123.1320038,38.3759995 123.5090027,38.3889999 123.730011,38.3889999 C124.8480072,38.3889999 125.4850006,37.8560028 125.6150055,36.8030014 C125.7320099,35.8410034 125.7970123,33.3320007 125.7970123,29.2630005 L122.9630127,29.2630005 L122.9630127,26.637001 L122.0270081,26.637001 Z M131.4779968,26.5070038 C130.6459961,28.5610046 129.3070068,30.3810043 127.4610138,31.9670029 L127.7600098,32.9420013 C128.4490051,32.3700027 129.0859985,31.7590027 129.6710052,31.1220016 L129.6710052,38.5449982 L130.6070099,38.5449982 L130.6070099,29.9780045 C131.3090057,29.0159988 131.8940125,28.0019989 132.348999,26.9100037 L131.4779968,26.5070038 Z M137.4710083,38.3110046 C138.0950012,38.3110046 138.5240173,38.1549988 138.7579956,37.8430023 C138.9790039,37.5309982 139.1350098,36.6210022 139.2260132,35.1259995 L138.355011,34.840004 C138.303009,36.1269989 138.2120056,36.8810043 138.0690002,37.0890045 C137.9130096,37.2970047 137.6530151,37.4140015 137.3150024,37.4140015 L135.2090149,37.4140015 C134.7669983,37.4140015 134.5590057,37.2060013 134.5590057,36.8030014 L134.5590057,32.4090042 C136.1710052,31.3950043 137.5880127,30.237999 138.7969971,28.9380035 L138.1470032,28.1969986 C137.1199951,29.3540039 135.9240112,30.3940048 134.5590057,31.3040009 L134.5590057,26.663002 L133.6230164,26.663002 L133.6230164,31.8759995 C132.9600067,32.2659988 132.2579956,32.6170044 131.5299988,32.9550018 L131.9460144,33.8390045 C132.5180054,33.5660019 133.0769958,33.2799988 133.6230164,32.9680023 L133.6230164,36.9329987 C133.6230164,37.8430023 134.0780029,38.3110046 134.9880066,38.3110046 L137.4710083,38.3110046 Z M148.2740173,34.3460007 L148.2740173,37.1930008 L144.7250061,37.1930008 L144.7250061,38.1030045 L152.6679993,38.1030045 L152.6679993,37.1930008 L149.2100067,37.1930008 L149.2100067,34.3460007 L152.1870117,34.3460007 L152.1870117,33.4749985 L145.2449951,33.4749985 L145.2449951,34.3460007 L148.2740173,34.3460007 Z M142.3460083,38.4020004 C143.1000061,38.4020004 143.4900055,38.0250015 143.4900055,37.2710037 L143.4900055,33.4360046 C143.8670044,33.2669983 144.2440033,33.0849991 144.6210022,32.9029999 L144.6210022,31.9540024 C144.2570038,32.1490021 143.8800049,32.3310013 143.4900055,32.5130005 L143.4900055,29.9910049 L144.5690002,29.9910049 L144.5690002,29.0940018 L143.4900055,29.0940018 L143.4900055,26.6110001 L142.5280151,26.6110001 L142.5280151,29.0940018 L140.9420166,29.0940018 L140.9420166,29.9910049 L142.5280151,29.9910049 L142.5280151,32.9029999 C141.9430084,33.1110001 141.3450012,33.2929993 140.7340088,33.4490051 L140.9680176,34.3850021 C141.4880066,34.2160034 142.0079956,34.0340042 142.5280151,33.8390045 L142.5280151,37.0370026 C142.5280151,37.375 142.3590088,37.5439987 142.0209961,37.5439987 C141.6960144,37.5439987 141.3580017,37.5180054 141.0070038,37.4920044 L141.2019958,38.4020004 L142.3460083,38.4020004 Z M148.625,26.4550018 L147.6759949,26.6110001 C147.9100037,27.0270004 148.131012,27.5080032 148.3390045,28.0279999 L145.1150055,28.0279999 L145.1150055,30.4850006 L145.9990082,30.4850006 L145.9990082,28.8730011 L151.4590149,28.8730011 L151.4590149,30.4850006 L152.3300171,30.4850006 L152.3300171,28.0279999 L149.2750092,28.0279999 C149.0670166,27.4430008 148.8460083,26.9230042 148.625,26.4550018 Z M147.4160156,29.6790009 C146.9219971,30.7970047 146.1809998,31.6940002 145.2060089,32.3700027 L145.8820038,32.9550018 C146.8570099,32.2789993 147.6370087,31.2910004 148.2350159,30.0040054 L147.4160156,29.6790009 Z M149.9250031,29.6529999 L149.1320038,29.9910049 C149.9120026,30.822998 150.6140137,31.7850037 151.2510071,32.8510056 L152.0700073,32.4350052 C151.4460144,31.4210052 150.7310028,30.4850006 149.9250031,29.6529999 Z M155.5150146,29.1200027 L157.3350067,29.1200027 L157.3350067,30.7970047 L154.1889954,30.7970047 L154.1889954,31.6679993 L157.3350067,31.6679993 L157.3350067,33.0330048 L154.7740173,33.0330048 L154.7740173,37.7130051 L155.6840057,37.7130051 L155.6840057,33.9039993 L157.3350067,33.9039993 L157.3350067,38.5320053 L158.2709961,38.5320053 L158.2709961,33.9039993 L159.9089966,33.9039993 L159.9089966,36.2700043 C159.9089966,36.6080017 159.7140045,36.7770004 159.3500061,36.7770004 L158.7130127,36.737999 L158.9470062,37.6220016 L159.6360168,37.6220016 C160.4160156,37.6220016 160.8059998,37.2320023 160.8059998,36.465004 L160.8059998,33.0330048 L158.2709961,33.0330048 L158.2709961,31.6679993 L161.07901,31.6679993 L161.07901,30.7970047 L158.2709961,30.7970047 L158.2709961,29.1200027 L160.7019958,29.1200027 L160.7019958,28.2490005 L158.2709961,28.2490005 L158.2709961,26.637001 L157.3350067,26.637001 L157.3350067,28.2490005 L155.8269958,28.2490005 C155.9309998,27.8980026 156.0090027,27.5210037 156.0740051,27.1050034 L155.1900024,26.961998 C155.0079956,28.1969986 154.5920105,29.1590042 153.9420166,29.8610001 L154.6960144,30.4070053 C155.0079956,30.0690002 155.2810059,29.6399994 155.5150146,29.1200027 Z M161.8460083,27.8069992 L161.8460083,35.8410034 L162.756012,35.8410034 L162.756012,27.8069992 L161.8460083,27.8069992 Z M164.2250061,38.4020004 C165.0180054,38.4020004 165.4210052,37.9860001 165.4210052,37.1800003 L165.4210052,26.637001 L164.4980164,26.637001 L164.4980164,36.9459991 C164.4980164,37.3619995 164.2900085,37.5699997 163.9000092,37.5699997 C163.3280029,37.5699997 162.730011,37.5439987 162.1060028,37.5050049 L162.3139954,38.4020004 L164.2250061,38.4020004 Z M166.4869995,37.2190018" style="fill:rgb(23,55,94);stroke:none" clip-path="url(#clip31)" />
</svg>
