<?xml version="1.0" encoding="UTF-8"?>
<!DOCTYPE svg  PUBLIC '-//W3C//DTD SVG 1.1//EN'  'http://www.w3.org/Graphics/SVG/1.1/DTD/svg11.dtd'>
<!-- Created with matplotlib (https://matplotlib.org/) -->
<svg width="432pt" height="216pt" version="1.1" viewBox="0 0 432 216" xmlns="http://www.w3.org/2000/svg" xmlns:xlink="http://www.w3.org/1999/xlink">
 <defs>
  <style type="text/css">*{stroke-linecap:butt;stroke-linejoin:round;}</style>
 </defs>
 <g id="figure_1">
  <g id="patch_1">
   <path d="m0 216h432v-216h-432z" fill="#fff"/>
  </g>
  <g id="axes_1">
   <g id="patch_2">
    <path d="m0.432 194.4h207.28v-194.18h-207.28z" fill="#fff"/>
   </g>
   <g id="PathCollection_1">
    <defs>
     <path id="m60aab21978" d="m-3 3 6-6m-6 0 6 6" stroke="#00f" stroke-opacity=".8" stroke-width="1.5"/>
    </defs>
    <g clip-path="url(#p12f0dffbe9)" fill="#0000ff" fill-opacity=".8" stroke="#0000ff" stroke-opacity=".8" stroke-width="1.5">
     <use x="28.237441" y="175.189283" xlink:href="#m60aab21978"/>
     <use x="28.237441" y="175.189283" xlink:href="#m60aab21978"/>
     <use x="23.6415" y="175.189283" xlink:href="#m60aab21978"/>
     <use x="32.833382" y="175.189283" xlink:href="#m60aab21978"/>
     <use x="28.237441" y="175.189283" xlink:href="#m60aab21978"/>
     <use x="42.025263" y="154.420941" xlink:href="#m60aab21978"/>
     <use x="28.237441" y="164.805112" xlink:href="#m60aab21978"/>
     <use x="32.833382" y="175.189283" xlink:href="#m60aab21978"/>
     <use x="28.237441" y="175.189283" xlink:href="#m60aab21978"/>
     <use x="32.833382" y="185.573455" xlink:href="#m60aab21978"/>
     <use x="32.833382" y="175.189283" xlink:href="#m60aab21978"/>
     <use x="37.429322" y="175.189283" xlink:href="#m60aab21978"/>
     <use x="28.237441" y="185.573455" xlink:href="#m60aab21978"/>
     <use x="14.449619" y="185.573455" xlink:href="#m60aab21978"/>
     <use x="19.04556" y="175.189283" xlink:href="#m60aab21978"/>
     <use x="32.833382" y="154.420941" xlink:href="#m60aab21978"/>
     <use x="23.6415" y="154.420941" xlink:href="#m60aab21978"/>
     <use x="28.237441" y="164.805112" xlink:href="#m60aab21978"/>
     <use x="42.025263" y="164.805112" xlink:href="#m60aab21978"/>
     <use x="32.833382" y="164.805112" xlink:href="#m60aab21978"/>
     <use x="42.025263" y="175.189283" xlink:href="#m60aab21978"/>
     <use x="32.833382" y="154.420941" xlink:href="#m60aab21978"/>
     <use x="9.853678" y="175.189283" xlink:href="#m60aab21978"/>
     <use x="42.025263" y="144.03677" xlink:href="#m60aab21978"/>
     <use x="51.217144" y="175.189283" xlink:href="#m60aab21978"/>
     <use x="37.429322" y="175.189283" xlink:href="#m60aab21978"/>
     <use x="37.429322" y="154.420941" xlink:href="#m60aab21978"/>
     <use x="32.833382" y="175.189283" xlink:href="#m60aab21978"/>
     <use x="28.237441" y="175.189283" xlink:href="#m60aab21978"/>
     <use x="37.429322" y="175.189283" xlink:href="#m60aab21978"/>
     <use x="37.429322" y="175.189283" xlink:href="#m60aab21978"/>
     <use x="32.833382" y="154.420941" xlink:href="#m60aab21978"/>
     <use x="32.833382" y="185.573455" xlink:href="#m60aab21978"/>
     <use x="28.237441" y="175.189283" xlink:href="#m60aab21978"/>
     <use x="32.833382" y="175.189283" xlink:href="#m60aab21978"/>
     <use x="19.04556" y="175.189283" xlink:href="#m60aab21978"/>
     <use x="23.6415" y="175.189283" xlink:href="#m60aab21978"/>
     <use x="28.237441" y="185.573455" xlink:href="#m60aab21978"/>
     <use x="23.6415" y="175.189283" xlink:href="#m60aab21978"/>
     <use x="32.833382" y="175.189283" xlink:href="#m60aab21978"/>
     <use x="23.6415" y="164.805112" xlink:href="#m60aab21978"/>
     <use x="23.6415" y="164.805112" xlink:href="#m60aab21978"/>
     <use x="23.6415" y="175.189283" xlink:href="#m60aab21978"/>
     <use x="37.429322" y="133.652599" xlink:href="#m60aab21978"/>
     <use x="51.217144" y="154.420941" xlink:href="#m60aab21978"/>
     <use x="28.237441" y="164.805112" xlink:href="#m60aab21978"/>
     <use x="37.429322" y="175.189283" xlink:href="#m60aab21978"/>
     <use x="28.237441" y="175.189283" xlink:href="#m60aab21978"/>
     <use x="32.833382" y="175.189283" xlink:href="#m60aab21978"/>
     <use x="28.237441" y="175.189283" xlink:href="#m60aab21978"/>
    </g>
   </g>
   <g id="PathCollection_2">
    <defs>
     <path id="m99cfd08ad5" d="m0 3c0.79561 0 1.5587-0.3161 2.1213-0.87868 0.56258-0.56258 0.87868-1.3257 0.87868-2.1213s-0.3161-1.5587-0.87868-2.1213c-0.56258-0.56258-1.3257-0.87868-2.1213-0.87868s-1.5587 0.3161-2.1213 0.87868c-0.56258 0.56258-0.87868 1.3257-0.87868 2.1213s0.3161 1.5587 0.87868 2.1213c0.56258 0.56258 1.3257 0.87868 2.1213 0.87868z" stroke="#000" stroke-opacity=".8"/>
    </defs>
    <g clip-path="url(#p12f0dffbe9)" fill="#ff0000" fill-opacity=".8" stroke="#000000" stroke-opacity=".8">
     <use x="179.903482" y="50.57923" xlink:href="#m99cfd08ad5"/>
     <use x="170.711601" y="40.195059" xlink:href="#m99cfd08ad5"/>
     <use x="189.095363" y="40.195059" xlink:href="#m99cfd08ad5"/>
     <use x="147.731898" y="60.963401" xlink:href="#m99cfd08ad5"/>
     <use x="175.307542" y="40.195059" xlink:href="#m99cfd08ad5"/>
     <use x="170.711601" y="60.963401" xlink:href="#m99cfd08ad5"/>
     <use x="179.903482" y="29.810888" xlink:href="#m99cfd08ad5"/>
     <use x="115.560313" y="92.115914" xlink:href="#m99cfd08ad5"/>
     <use x="175.307542" y="60.963401" xlink:href="#m99cfd08ad5"/>
     <use x="143.135957" y="50.57923" xlink:href="#m99cfd08ad5"/>
     <use x="124.752194" y="92.115914" xlink:href="#m99cfd08ad5"/>
     <use x="156.923779" y="40.195059" xlink:href="#m99cfd08ad5"/>
     <use x="147.731898" y="92.115914" xlink:href="#m99cfd08ad5"/>
     <use x="179.903482" y="50.57923" xlink:href="#m99cfd08ad5"/>
     <use x="129.348135" y="60.963401" xlink:href="#m99cfd08ad5"/>
     <use x="166.11566" y="50.57923" xlink:href="#m99cfd08ad5"/>
     <use x="170.711601" y="40.195059" xlink:href="#m99cfd08ad5"/>
     <use x="152.327838" y="92.115914" xlink:href="#m99cfd08ad5"/>
     <use x="170.711601" y="40.195059" xlink:href="#m99cfd08ad5"/>
     <use x="143.135957" y="81.731743" xlink:href="#m99cfd08ad5"/>
     <use x="184.499423" y="9.042545" xlink:href="#m99cfd08ad5"/>
     <use x="147.731898" y="60.963401" xlink:href="#m99cfd08ad5"/>
     <use x="189.095363" y="40.195059" xlink:href="#m99cfd08ad5"/>
     <use x="179.903482" y="71.347572" xlink:href="#m99cfd08ad5"/>
     <use x="161.51972" y="60.963401" xlink:href="#m99cfd08ad5"/>
     <use x="166.11566" y="50.57923" xlink:href="#m99cfd08ad5"/>
     <use x="184.499423" y="50.57923" xlink:href="#m99cfd08ad5"/>
     <use x="193.691304" y="19.426717" xlink:href="#m99cfd08ad5"/>
     <use x="170.711601" y="40.195059" xlink:href="#m99cfd08ad5"/>
     <use x="124.752194" y="92.115914" xlink:href="#m99cfd08ad5"/>
     <use x="138.540016" y="81.731743" xlink:href="#m99cfd08ad5"/>
     <use x="133.944076" y="92.115914" xlink:href="#m99cfd08ad5"/>
     <use x="143.135957" y="71.347572" xlink:href="#m99cfd08ad5"/>
     <use x="198.287245" y="29.810888" xlink:href="#m99cfd08ad5"/>
     <use x="170.711601" y="40.195059" xlink:href="#m99cfd08ad5"/>
     <use x="170.711601" y="29.810888" xlink:href="#m99cfd08ad5"/>
     <use x="179.903482" y="40.195059" xlink:href="#m99cfd08ad5"/>
     <use x="166.11566" y="60.963401" xlink:href="#m99cfd08ad5"/>
     <use x="152.327838" y="60.963401" xlink:href="#m99cfd08ad5"/>
     <use x="147.731898" y="60.963401" xlink:href="#m99cfd08ad5"/>
     <use x="166.11566" y="71.347572" xlink:href="#m99cfd08ad5"/>
     <use x="175.307542" y="50.57923" xlink:href="#m99cfd08ad5"/>
     <use x="147.731898" y="71.347572" xlink:href="#m99cfd08ad5"/>
     <use x="115.560313" y="92.115914" xlink:href="#m99cfd08ad5"/>
     <use x="156.923779" y="60.963401" xlink:href="#m99cfd08ad5"/>
     <use x="156.923779" y="71.347572" xlink:href="#m99cfd08ad5"/>
     <use x="156.923779" y="60.963401" xlink:href="#m99cfd08ad5"/>
     <use x="161.51972" y="60.963401" xlink:href="#m99cfd08ad5"/>
     <use x="101.772491" y="81.731743" xlink:href="#m99cfd08ad5"/>
     <use x="152.327838" y="60.963401" xlink:href="#m99cfd08ad5"/>
    </g>
   </g>
   <g id="matplotlib.axis_1">
    <g id="text_1">
     <!-- 线性可分数据集 -->
     <defs>
      <path id="SimHei-32447" d="m22.266 80.078q3.9062-2.7344 8.9844-4.2969-3.9062-3.5156-7.625-9.9688-3.7031-6.4375-9.5625-15.812 8.9844 0.39062 12.5 0.39062 3.5156 5.8594 5.8594 12.891 3.9062-2.7344 8.5938-4.2969-3.9062-3.9062-7.8125-10.547t-14.062-22.656q10.547 0.78125 18.359 1.5625-1.1719-3.9062-1.1719-6.6406-2.7344 0-11.719-0.98438-8.9844-0.96875-14.844-2.5312-0.39062 3.9062-2.3438 8.2031 4.6875 1.1719 8.3906 6.25 3.7188 5.0781 8.0156 12.891-12.5-0.78125-16.016-3.125-1.1719 4.2969-3.125 8.5938 4.6875 3.5156 9.375 11.516 4.6875 8.0156 8.2031 18.562zm-16.797-73.047q10.547 1.1719 16.203 2.1406 5.6719 0.98438 18.953 4.1094-0.39062-4.2969 0-6.6406-9.375-1.9531-17-3.9062-7.6094-1.9531-14.25-4.2969-1.1719 4.2969-3.9062 8.5938zm75.781 59.375q-3.5156-1.5625-6.25-3.9062-2.7344 4.2969-7.0312 10.156 2.7344 1.5625 5.8594 3.125 1.5625-1.9531 7.4219-9.375zm-42.188-14.453q3.9062 0 14.844 2.3438 0 7.0312 0 12.688 0 5.6719-1.1719 12.703 4.6875-0.39062 10.156-1.1719-1.1719-2.3438-1.5625-7.625-0.39062-5.2656 0-15.031l12.891 2.3438q6.6406 1.5625 12.891 3.5156l1.5625-7.4219q-6.6406-0.78125-13.281-1.9531l-13.672-2.7344q0-6.25 0.78125-10.938l14.844 2.7344q7.4219 1.5625 14.453 3.9062l1.1719-7.4219q-7.0312-1.1719-14.453-2.7344l-14.844-2.7344q0.78125-7.8125 3.9062-14.453 3.125 2.7344 6.4375 6.25 3.3281 3.5156 6.0625 7.8125 5.4688-4.6875 8.5938-6.25-5.0781-2.3438-7.8125-5.2812-2.7344-2.9219-9.375-9.1719 4.6875-7.8125 8.2031-9.9688 3.5156-2.1406 5.0781-0.1875t2.7344 8.2031q3.5156-2.7344 7.8125-4.2969-6.25-17.188-13.875-13.859-7.6094 3.3125-15.812 15.422-5.4688-4.2969-10.547-8-5.0781-3.7188-12.5-7.625-1.9531 3.9062-5.8594 7.0312 7.4219 2.7344 12.891 5.8594t12.109 8.9844q-3.5156 7.8125-5.0781 18.359-11.328-1.9531-15.625-3.5156l-1.1719 7.4219q4.2969 0 15.625 2.3438-0.78125 6.25-0.78125 10.547-10.547-2.3438-14.062-3.5156z"/>
      <path id="SimHei-24615" d="m47.266 71.875q4.2969-1.1719 8.2031-1.9531-1.9531-6.6406-2.7344-11.719h12.109v8.2031q0 6.25-0.39062 12.5h8.2031q-0.39062-6.25-0.39062-12.5v-8.2031h7.8125q5.4688 0 12.5 0.39062v-7.0312q-7.0312 0.39062-12.5 0.39062h-7.8125v-20.312h7.0312q6.25 0 12.109 0.39062v-7.0312q-5.8594 0.39062-12.109 0.39062h-7.0312v-23.438h10.547q7.0312 0 13.281 0.39062v-7.0312q-6.25 0.39062-13.281 0.39062h-30.078q-7.4219 0-14.062-0.39062v7.0312q6.6406-0.39062 13.672-0.39062h12.5v23.438h-6.6406q-6.6406 0-13.672-0.39062v7.0312q7.0312-0.39062 13.672-0.39062h6.6406v20.312h-13.672q-1.5625-5.8594-3.5156-12.5-5.0781 1.9531-7.8125 2.3438 3.125 7.0312 4.6875 15.031 1.5625 8.0156 2.7344 15.047zm-39.453-13.281q3.125-0.39062 6.6406-0.78125-1.1719-15.625-1.9531-23.828-3.9062 0.39062-7.4219 0.78125 1.9531 9.7656 2.7344 23.828zm21.094 1.1719q3.125 1.5625 5.8594 2.7344 3.125-6.25 5.8594-12.891-4.2969-1.5625-7.0312-3.125-1.5625 6.25-4.6875 13.281zm-9.7656 18.75h8.2031q-0.39062-6.6406-0.39062-13.672v-57.031q0-7.8125 0.39062-15.625h-8.2031q0.39062 7.8125 0.39062 15.625v57.031q0 6.6406-0.39062 13.672z"/>
      <path id="SimHei-21487" d="m18.75 52.344h37.109q-0.78125-4.6875-0.78125-10.938v-18.75q0-6.6406 0.78125-11.328h-8.2031v7.0312h-21.094v-12.5h-7.8125q0.39062 4.6875 0.39062 10.938v24.609q0 6.25-0.39062 10.938zm7.8125-6.25v-21.484h21.094v21.484zm-18.75 26.562q7.4219-0.78125 16.406-0.78125h55.859q5.4688 0 12.109 0.78125v-7.4219q-5.8594 0.39062-11.719 0.39062h-2.7344v-63.672q0-7.8125-3.5156-9.1719-3.5156-1.375-12.109-3.3281-1.1719 4.6875-3.9062 9.375 5.4688 0 8.7812 0.39062 3.3281 0.39062 3.3281 4.2969v62.109h-45.703q-9.375 0-16.797-0.39062z"/>
      <path id="SimHei-20998" d="m45.312 33.594q-0.78125-8.9844-2.9375-15.625-2.1406-6.6406-6.0469-11.328t-8.9844-8.2031-10.547-6.6406q-2.7344 4.2969-7.0312 7.0312 6.25 2.3438 10.938 5.0781t8.3906 6.6406q3.7188 3.9062 5.6719 9.1719 1.9531 5.2812 2.7344 13.875-8.5938 0-12.891-0.39062v7.4219q5.4688-0.39062 14.062-0.39062h37.891q-0.78125-5.0781-1.1719-8.9844l-3.125-26.953q-0.78125-7.8125-5.8594-9.375t-11.328-2.7344q-1.1719 5.0781-3.9062 9.7656 7.4219 0 10.156 0.39062t3.5156 5.4688l2.7344 25.781zm-8.2031 43.359q4.2969-2.3438 8.9844-4.2969-2.3438-2.3438-5.4688-7.2344-3.125-4.875-7.2344-10.547-4.0938-5.6562-8.9844-11.516-4.875-5.8594-10.344-10.938-3.9062 3.9062-8.5938 6.25 6.6406 4.2969 11.516 8.9844 4.8906 4.6875 10.156 11.906 5.2812 7.2344 9.9688 17.391zm19.141-0.39062q4.2969 0.78125 8.2031 1.9531 1.1719-5.0781 4.0938-10.75 2.9375-5.6562 7.2344-10.938 4.2969-5.2656 9.375-9.1719t10.156-5.4688q-4.2969-2.7344-7.4219-8.5938-6.6406 5.0781-11.328 9.7656t-7.625 8.5938q-2.9219 3.9062-6.6406 10.734-3.7031 6.8438-6.0469 13.875z"/>
      <path id="SimHei-25968" d="m10.938 75.781q3.9062 1.1719 6.25 2.7344 3.125-5.0781 5.8594-10.156-3.5156-1.5625-6.25-3.125-2.3438 5.8594-5.8594 10.547zm33.984 2.7344q4.2969-1.9531 8.2031-3.5156-2.3438-1.5625-3.9062-4.2969t-3.5156-6.25q-3.125 1.5625-6.25 2.3438 3.125 5.0781 5.4688 11.719zm-6.6406-28.906q3.5156 1.5625 5.8594 3.9062 4.6875-6.6406 7.8125-12.109-3.5156-1.5625-6.6406-3.9062-3.125 7.4219-7.0312 12.109zm-30.078 12.109q6.25-0.39062 19.922-0.39062 0 11.328-0.39062 19.531h7.8125q-0.39062-8.2031-0.39062-19.531 12.891 0 18.75 0.39062v-7.0312q-5.8594 0.39062-18.75 0.39062 0-8.9844 0.39062-15.625h-7.8125q0.39062 5.8594 0.39062 12.5-1.9531-3.9062-6.4531-8.4062-4.4844-4.4844-9.9531-7.6094-1.5625 3.5156-5.0781 5.8594 3.5156 1.1719 8.7812 5.0781 5.2812 3.9062 7.625 8.2031-8.2031 0-14.844-0.39062zm18.75-37.5q-1.9531-3.9062-4.2969-7.8125 4.6875-1.1719 12.5-3.125 2.7344 3.5156 5.0781 10.938zm-2.7344 14.062q4.2969-1.5625 8.5938-2.7344-1.5625-1.5625-3.5156-5.0781h15.234 4.2969q-2.3438-10.156-6.6406-19.141 6.6406-1.9531 10.547-3.125-3.125-4.2969-4.6875-7.8125-3.5156 2.3438-10.547 5.0781-9.375-9.375-28.125-15.625-1.5625 3.9062-4.6875 6.25 16.797 3.9062 26.562 12.109-10.938 2.7344-17.969 4.6875 2.3438 3.125 6.25 11.328-6.25 0-14.844-0.39062v7.0312q7.4219-0.39062 17.188-0.39062 1.1719 3.125 2.3438 7.8125zm39.453 42.188q4.6875-1.9531 9.7656-2.7344-1.9531-2.3438-2.9375-5.4688-0.96875-3.125-2.5312-8.9844h17.578q3.5156 0 8.9844 0.39062v-7.0312q-4.2969 0.39062-7.0312 0.39062-0.39062-8.2031-1.9531-21.688-1.5625-13.469-7.4219-23.625 3.9062-5.4688 8.9844-8.9844t8.9844-5.0781q-5.4688-3.5156-7.0312-7.0312-6.6406 4.6875-9.7656 8.0156-3.125 3.3125-5.8594 7.2188-4.6875-4.6875-8.7969-7.8125-4.0938-3.125-13.078-8.2031-1.9531 3.5156-6.25 6.25 7.4219 2.7344 13.672 7.0312t10.547 8.9844q-4.2969 8.5938-6.6406 16.984-2.3438 8.4062-2.7344 11.922-0.78125-2.7344-1.9531-6.25-3.5156 1.5625-7.8125 3.125 4.6875 8.5938 8.5938 20.703t4.6875 21.875zm2.7344-23.438q-1.5625-3.9062-2.3438-6.4531-0.78125-2.5312 2.9219-13.859 3.7188-11.328 7.2344-17.578 3.5156 9.375 4.875 19.531 1.375 10.156 1.375 18.359z"/>
      <path id="SimHei-25454" d="m5.8594 59.375q5.4688-0.39062 12.891-0.39062v8.9844q0 5.4688-0.39062 10.156h7.4219q-0.39062-4.2969-0.39062-10.156v-8.9844q3.9062 0 10.156 0.39062v-6.6406q-6.25 0.39062-10.156 0.39062v-15.625q3.5156 1.1719 8.9844 3.125 0-3.125 0.39062-6.25-5.0781-1.5625-9.375-3.125v-26.953q0-7.4219-3.7188-8.9844-3.7031-1.5625-10.344-2.7344-0.78125 4.2969-3.125 8.5938 6.6406 0 8.5938 0.57812 1.9531 0.59375 1.9531 5.2812v21.875q-6.25-1.9531-10.938-4.6875-1.1719 3.125-3.125 7.8125 6.25 1.1719 14.062 3.5156v17.578q-7.4219 0-12.891-0.39062zm50.781-41.406v-14.062h23.438v14.062zm-17.188 58.594h49.219q-0.39062-3.5156-0.39062-8.9844v-5.0781q0-6.25 0.39062-9.375h-42.188v-11.328h18.359q0 3.125-0.39062 10.156h7.4219q-0.39062-6.6406-0.39062-10.156h10.547q7.4219 0 12.109 0.39062v-6.6406q-4.6875 0.39062-11.719 0.39062h-10.938v-12.109h15.625q-0.39062-7.8125-0.39062-10.156v-8.9844q0-6.6406 0.39062-11.719h-7.0312v5.0781h-23.438v-6.25h-6.6406q0.39062 4.6875 0.39062 11.328v10.938q0 3.9062-0.39062 9.7656h14.844v12.109h-18.359q-0.78125-8.9844-1.7656-14.844-0.96875-5.8594-2.3438-10.359-1.3594-4.4844-3.125-8.2031-1.75-3.7031-3.7031-8.3906-3.5156 1.9531-8.5938 3.125 5.0781 6.25 7.8125 13.281t3.7031 15.031q0.98438 8.0156 1.1719 17 0.20312 8.9844 0.20312 15.031 0 6.0625-0.39062 18.953zm7.0312-5.8594v-11.719h35.156v11.719z"/>
      <path id="SimHei-38598" d="m26.562 50.391v-6.6406h21.875v6.6406zm0-12.109v-5.8594h21.875v5.8594zm0 23.828v-6.25h21.875v6.25zm22.266 15.234q2.3438 1.9531 6.25 4.2969 0.78125-1.1719 3.125-3.9062t4.2969-5.0781q-3.125-1.5625-6.6406-3.9062-2.3438 2.3438-3.7188 4.4844-1.3594 2.1562-3.3125 4.1094zm-21.094 4.2969q3.5156-1.9531 9.375-4.6875-2.3438-1.9531-3.9062-4.1094-1.5625-2.1406-3.5156-5.2656h46.875q5.4688 0 12.5 0.39062v-6.25q-7.4219 0.39062-12.5 0.39062h-20.703v-6.25h15.625q5.0781 0 10.938 0.39062v-6.25q-5.8594 0.39062-10.938 0.39062h-15.625v-6.6406h16.406q5.4688 0 11.719 0.39062v-6.25q-6.25 0.39062-11.719 0.39062h-16.406v-5.8594h19.922q5.8594 0 12.109 0.39062v-6.25q-5.8594 0.39062-11.719 0.39062h-49.609v-3.9062h-7.8125q0.39062 7.0312 0.39062 12.891v17.578q-1.9531-2.7344-3.7188-4.6875-1.75-1.9531-3.7031-4.2969-2.7344 2.3438-6.6406 4.6875 3.125 2.7344 6.25 6.25t6.0469 7.6094q2.9375 4.1094 5.4688 8.7969 2.5469 4.6875 4.8906 9.7656zm-19.141-65.234q4.6875-0.39062 13.672-0.39062h24.219q0 3.5156-0.39062 8.5938h8.2031q-0.39062-5.4688-0.39062-8.5938h24.609q6.6406 0 13.281 0.39062v-6.25q-6.6406 0.39062-13.281 0.39062h-14.062q4.6875-4.6875 11.516-7.2344 6.8438-2.5312 17.391-4.875-3.125-3.9062-4.6875-7.8125-7.0312 2.7344-12.109 4.8906-5.0781 2.1406-8.7969 4.4844-3.7031 2.3438-6.4375 4.875-2.7344 2.5469-5.4688 5.6719h-1.9531v-8.9844q0-5.8594 0.78125-11.719h-8.5938q0.39062 5.4688 0.39062 11.719v8.9844h-1.5625q-3.125-3.9062-6.4531-7.0312-3.3125-3.125-7.2188-5.4688t-8.5938-4.0938q-4.6875-1.7656-9.7656-4.1094-1.5625 3.5156-5.4688 7.4219 7.8125 1.1719 16.203 4.4844 8.4062 3.3281 12.703 8.7969h-14.062q-6.6406 0-13.672-0.39062z"/>
     </defs>
     <g transform="translate(55.07 209.72) scale(.14 -.14)">
      <use xlink:href="#SimHei-32447"/>
      <use x="100" xlink:href="#SimHei-24615"/>
      <use x="200" xlink:href="#SimHei-21487"/>
      <use x="300" xlink:href="#SimHei-20998"/>
      <use x="400" xlink:href="#SimHei-25968"/>
      <use x="500" xlink:href="#SimHei-25454"/>
      <use x="600" xlink:href="#SimHei-38598"/>
     </g>
    </g>
   </g>
   <g id="line2d_1">
    <path d="m37.429 133.65-27.576 41.537" clip-path="url(#p12f0dffbe9)" fill="none" stroke="#00f" stroke-linecap="square" stroke-width="1.5"/>
   </g>
   <g id="line2d_2">
    <path d="m51.217 154.42v20.768" clip-path="url(#p12f0dffbe9)" fill="none" stroke="#00f" stroke-linecap="square" stroke-width="1.5"/>
   </g>
   <g id="line2d_3">
    <path d="m51.217 154.42-13.788-20.768" clip-path="url(#p12f0dffbe9)" fill="none" stroke="#00f" stroke-linecap="square" stroke-width="1.5"/>
   </g>
   <g id="line2d_4">
    <path d="m32.833 185.57 18.384-10.384" clip-path="url(#p12f0dffbe9)" fill="none" stroke="#00f" stroke-linecap="square" stroke-width="1.5"/>
   </g>
   <g id="line2d_5">
    <path d="m14.45 185.57-4.5959-10.384" clip-path="url(#p12f0dffbe9)" fill="none" stroke="#00f" stroke-linecap="square" stroke-width="1.5"/>
   </g>
   <g id="line2d_6">
    <path d="m14.45 185.57h18.384" clip-path="url(#p12f0dffbe9)" fill="none" stroke="#00f" stroke-linecap="square" stroke-width="1.5"/>
   </g>
   <g id="line2d_7">
    <path d="m184.5 9.0425-82.727 72.689" clip-path="url(#p12f0dffbe9)" fill="none" stroke="#f00" stroke-linecap="square" stroke-width="1.5"/>
   </g>
   <g id="line2d_8">
    <path d="m193.69 19.427 4.5959 10.384" clip-path="url(#p12f0dffbe9)" fill="none" stroke="#f00" stroke-linecap="square" stroke-width="1.5"/>
   </g>
   <g id="line2d_9">
    <path d="m193.69 19.427-9.1919-10.384" clip-path="url(#p12f0dffbe9)" fill="none" stroke="#f00" stroke-linecap="square" stroke-width="1.5"/>
   </g>
   <g id="line2d_10">
    <path d="m115.56 92.116-13.788-10.384" clip-path="url(#p12f0dffbe9)" fill="none" stroke="#f00" stroke-linecap="square" stroke-width="1.5"/>
   </g>
   <g id="line2d_11">
    <path d="m115.56 92.116h36.768" clip-path="url(#p12f0dffbe9)" fill="none" stroke="#f00" stroke-linecap="square" stroke-width="1.5"/>
   </g>
   <g id="line2d_12">
    <path d="m179.9 71.348 18.384-41.537" clip-path="url(#p12f0dffbe9)" fill="none" stroke="#f00" stroke-linecap="square" stroke-width="1.5"/>
   </g>
   <g id="line2d_13">
    <path d="m179.9 71.348-27.576 20.768" clip-path="url(#p12f0dffbe9)" fill="none" stroke="#f00" stroke-linecap="square" stroke-width="1.5"/>
   </g>
   <g id="patch_3">
    <path d="m0.432 194.4v-194.18" fill="none" stroke="#000" stroke-linecap="square" stroke-width=".8"/>
   </g>
   <g id="patch_4">
    <path d="m207.71 194.4v-194.18" fill="none" stroke="#000" stroke-linecap="square" stroke-width=".8"/>
   </g>
   <g id="patch_5">
    <path d="m0.432 194.4h207.28" fill="none" stroke="#000" stroke-linecap="square" stroke-width=".8"/>
   </g>
   <g id="patch_6">
    <path d="m0.432 0.216h207.28" fill="none" stroke="#000" stroke-linecap="square" stroke-width=".8"/>
   </g>
  </g>
  <g id="axes_2">
   <g id="patch_7">
    <path d="m224.29 194.4h207.28v-194.18h-207.28z" fill="#fff"/>
   </g>
   <g id="PathCollection_3">
    <g clip-path="url(#pdfabd16304)" fill="#0000ff" fill-opacity=".8" stroke="#0000ff" stroke-opacity=".8" stroke-width="1.5">
     <use x="315.850464" y="138.498545" xlink:href="#m60aab21978"/>
     <use x="306.187204" y="126.729818" xlink:href="#m60aab21978"/>
     <use x="325.513724" y="126.729818" xlink:href="#m60aab21978"/>
     <use x="282.029054" y="150.267273" xlink:href="#m60aab21978"/>
     <use x="311.018834" y="126.729818" xlink:href="#m60aab21978"/>
     <use x="306.187204" y="150.267273" xlink:href="#m60aab21978"/>
     <use x="315.850464" y="114.961091" xlink:href="#m60aab21978"/>
     <use x="248.207645" y="185.573455" xlink:href="#m60aab21978"/>
     <use x="311.018834" y="150.267273" xlink:href="#m60aab21978"/>
     <use x="277.197424" y="138.498545" xlink:href="#m60aab21978"/>
     <use x="257.870905" y="185.573455" xlink:href="#m60aab21978"/>
     <use x="291.692314" y="126.729818" xlink:href="#m60aab21978"/>
     <use x="282.029054" y="185.573455" xlink:href="#m60aab21978"/>
     <use x="315.850464" y="138.498545" xlink:href="#m60aab21978"/>
     <use x="262.702535" y="150.267273" xlink:href="#m60aab21978"/>
     <use x="301.355574" y="138.498545" xlink:href="#m60aab21978"/>
     <use x="306.187204" y="126.729818" xlink:href="#m60aab21978"/>
     <use x="286.860684" y="185.573455" xlink:href="#m60aab21978"/>
     <use x="306.187204" y="126.729818" xlink:href="#m60aab21978"/>
     <use x="277.197424" y="173.804727" xlink:href="#m60aab21978"/>
     <use x="320.682094" y="91.423636" xlink:href="#m60aab21978"/>
     <use x="282.029054" y="150.267273" xlink:href="#m60aab21978"/>
     <use x="325.513724" y="126.729818" xlink:href="#m60aab21978"/>
     <use x="315.850464" y="162.036" xlink:href="#m60aab21978"/>
     <use x="296.523944" y="150.267273" xlink:href="#m60aab21978"/>
     <use x="301.355574" y="138.498545" xlink:href="#m60aab21978"/>
     <use x="320.682094" y="138.498545" xlink:href="#m60aab21978"/>
     <use x="330.345353" y="103.192364" xlink:href="#m60aab21978"/>
     <use x="306.187204" y="126.729818" xlink:href="#m60aab21978"/>
     <use x="257.870905" y="185.573455" xlink:href="#m60aab21978"/>
     <use x="272.365795" y="173.804727" xlink:href="#m60aab21978"/>
     <use x="267.534165" y="185.573455" xlink:href="#m60aab21978"/>
     <use x="277.197424" y="162.036" xlink:href="#m60aab21978"/>
     <use x="335.176983" y="114.961091" xlink:href="#m60aab21978"/>
     <use x="306.187204" y="126.729818" xlink:href="#m60aab21978"/>
     <use x="306.187204" y="114.961091" xlink:href="#m60aab21978"/>
     <use x="315.850464" y="126.729818" xlink:href="#m60aab21978"/>
     <use x="301.355574" y="150.267273" xlink:href="#m60aab21978"/>
     <use x="286.860684" y="150.267273" xlink:href="#m60aab21978"/>
     <use x="282.029054" y="150.267273" xlink:href="#m60aab21978"/>
     <use x="301.355574" y="162.036" xlink:href="#m60aab21978"/>
     <use x="311.018834" y="138.498545" xlink:href="#m60aab21978"/>
     <use x="282.029054" y="162.036" xlink:href="#m60aab21978"/>
     <use x="248.207645" y="185.573455" xlink:href="#m60aab21978"/>
     <use x="291.692314" y="150.267273" xlink:href="#m60aab21978"/>
     <use x="291.692314" y="162.036" xlink:href="#m60aab21978"/>
     <use x="291.692314" y="150.267273" xlink:href="#m60aab21978"/>
     <use x="296.523944" y="150.267273" xlink:href="#m60aab21978"/>
     <use x="233.712755" y="173.804727" xlink:href="#m60aab21978"/>
     <use x="286.860684" y="150.267273" xlink:href="#m60aab21978"/>
    </g>
   </g>
   <g id="PathCollection_4">
    <g clip-path="url(#pdfabd16304)" fill="#ff0000" fill-opacity=".8" stroke="#000000" stroke-opacity=".8">
     <use x="378.661653" y="9.042545" xlink:href="#m99cfd08ad5"/>
     <use x="335.176983" y="79.654909" xlink:href="#m99cfd08ad5"/>
     <use x="373.830023" y="56.117455" xlink:href="#m99cfd08ad5"/>
     <use x="359.335133" y="91.423636" xlink:href="#m99cfd08ad5"/>
     <use x="368.998393" y="44.348727" xlink:href="#m99cfd08ad5"/>
     <use x="407.651432" y="56.117455" xlink:href="#m99cfd08ad5"/>
     <use x="306.187204" y="103.192364" xlink:href="#m99cfd08ad5"/>
     <use x="393.156542" y="91.423636" xlink:href="#m99cfd08ad5"/>
     <use x="368.998393" y="91.423636" xlink:href="#m99cfd08ad5"/>
     <use x="383.493282" y="9.042545" xlink:href="#m99cfd08ad5"/>
     <use x="335.176983" y="67.886182" xlink:href="#m99cfd08ad5"/>
     <use x="344.840243" y="79.654909" xlink:href="#m99cfd08ad5"/>
     <use x="354.503503" y="56.117455" xlink:href="#m99cfd08ad5"/>
     <use x="330.345353" y="67.886182" xlink:href="#m99cfd08ad5"/>
     <use x="335.176983" y="20.811273" xlink:href="#m99cfd08ad5"/>
     <use x="344.840243" y="32.58" xlink:href="#m99cfd08ad5"/>
     <use x="354.503503" y="91.423636" xlink:href="#m99cfd08ad5"/>
     <use x="412.483062" y="44.348727" xlink:href="#m99cfd08ad5"/>
     <use x="422.146322" y="32.58" xlink:href="#m99cfd08ad5"/>
     <use x="330.345353" y="126.729818" xlink:href="#m99cfd08ad5"/>
     <use x="364.166763" y="32.58" xlink:href="#m99cfd08ad5"/>
     <use x="325.513724" y="67.886182" xlink:href="#m99cfd08ad5"/>
     <use x="412.483062" y="67.886182" xlink:href="#m99cfd08ad5"/>
     <use x="325.513724" y="91.423636" xlink:href="#m99cfd08ad5"/>
     <use x="364.166763" y="56.117455" xlink:href="#m99cfd08ad5"/>
     <use x="378.661653" y="91.423636" xlink:href="#m99cfd08ad5"/>
     <use x="320.682094" y="91.423636" xlink:href="#m99cfd08ad5"/>
     <use x="325.513724" y="91.423636" xlink:href="#m99cfd08ad5"/>
     <use x="359.335133" y="56.117455" xlink:href="#m99cfd08ad5"/>
     <use x="368.998393" y="114.961091" xlink:href="#m99cfd08ad5"/>
     <use x="383.493282" y="79.654909" xlink:href="#m99cfd08ad5"/>
     <use x="397.988172" y="67.886182" xlink:href="#m99cfd08ad5"/>
     <use x="359.335133" y="44.348727" xlink:href="#m99cfd08ad5"/>
     <use x="335.176983" y="126.729818" xlink:href="#m99cfd08ad5"/>
     <use x="359.335133" y="138.498545" xlink:href="#m99cfd08ad5"/>
     <use x="383.493282" y="32.58" xlink:href="#m99cfd08ad5"/>
     <use x="359.335133" y="20.811273" xlink:href="#m99cfd08ad5"/>
     <use x="354.503503" y="91.423636" xlink:href="#m99cfd08ad5"/>
     <use x="320.682094" y="91.423636" xlink:href="#m99cfd08ad5"/>
     <use x="349.671873" y="56.117455" xlink:href="#m99cfd08ad5"/>
     <use x="359.335133" y="20.811273" xlink:href="#m99cfd08ad5"/>
     <use x="335.176983" y="32.58" xlink:href="#m99cfd08ad5"/>
     <use x="335.176983" y="79.654909" xlink:href="#m99cfd08ad5"/>
     <use x="373.830023" y="32.58" xlink:href="#m99cfd08ad5"/>
     <use x="364.166763" y="9.042545" xlink:href="#m99cfd08ad5"/>
     <use x="340.008613" y="32.58" xlink:href="#m99cfd08ad5"/>
     <use x="330.345353" y="79.654909" xlink:href="#m99cfd08ad5"/>
     <use x="340.008613" y="67.886182" xlink:href="#m99cfd08ad5"/>
     <use x="349.671873" y="32.58" xlink:href="#m99cfd08ad5"/>
     <use x="335.176983" y="91.423636" xlink:href="#m99cfd08ad5"/>
    </g>
   </g>
   <g id="matplotlib.axis_3">
    <g id="text_2">
     <!-- 线性不可分数据集 -->
     <defs>
      <path id="SimHei-19981" d="m81.641 74.219q5.0781 0 10.938 0.78125v-8.5938q-5.4688 0.78125-10.547 0.78125h-20.312q-3.9062-9.7656-8.5938-17.578v-44.922q0-6.25 0.78125-12.109h-9.375q0.78125 5.4688 0.78125 12.109v36.328q-16.016-16.797-32.031-26.562-3.5156 5.4688-7.0312 7.4219 9.7656 3.125 23.438 14.453t22.656 30.859h-30.078q-7.4219 0-14.062-0.39062v8.2031q10.156-0.78125 16.406-0.78125zm12.109-52.344q-5.4688-3.5156-7.8125-6.6406-6.25 7.8125-26.172 26.953 3.9062 2.3438 6.6406 5.8594 10.547-9.375 15.031-14.062 4.5-4.6875 12.312-12.109z"/>
     </defs>
     <g transform="translate(271.93 209.72) scale(.14 -.14)">
      <use xlink:href="#SimHei-32447"/>
      <use x="100" xlink:href="#SimHei-24615"/>
      <use x="200" xlink:href="#SimHei-19981"/>
      <use x="300" xlink:href="#SimHei-21487"/>
      <use x="400" xlink:href="#SimHei-20998"/>
      <use x="500" xlink:href="#SimHei-25968"/>
      <use x="600" xlink:href="#SimHei-25454"/>
      <use x="700" xlink:href="#SimHei-38598"/>
     </g>
    </g>
   </g>
   <g id="line2d_14">
    <path d="m320.68 91.424-86.969 82.381" clip-path="url(#pdfabd16304)" fill="none" stroke="#00f" stroke-linecap="square" stroke-width="1.5"/>
   </g>
   <g id="line2d_15">
    <path d="m330.35 103.19 4.8316 11.769" clip-path="url(#pdfabd16304)" fill="none" stroke="#00f" stroke-linecap="square" stroke-width="1.5"/>
   </g>
   <g id="line2d_16">
    <path d="m330.35 103.19-9.6633-11.769" clip-path="url(#pdfabd16304)" fill="none" stroke="#00f" stroke-linecap="square" stroke-width="1.5"/>
   </g>
   <g id="line2d_17">
    <path d="m248.21 185.57-14.495-11.769" clip-path="url(#pdfabd16304)" fill="none" stroke="#00f" stroke-linecap="square" stroke-width="1.5"/>
   </g>
   <g id="line2d_18">
    <path d="m248.21 185.57h38.653" clip-path="url(#pdfabd16304)" fill="none" stroke="#00f" stroke-linecap="square" stroke-width="1.5"/>
   </g>
   <g id="line2d_19">
    <path d="m315.85 162.04 19.327-47.075" clip-path="url(#pdfabd16304)" fill="none" stroke="#00f" stroke-linecap="square" stroke-width="1.5"/>
   </g>
   <g id="line2d_20">
    <path d="m315.85 162.04-28.99 23.537" clip-path="url(#pdfabd16304)" fill="none" stroke="#00f" stroke-linecap="square" stroke-width="1.5"/>
   </g>
   <g id="line2d_21">
    <path d="m335.18 20.811-28.99 82.381" clip-path="url(#pdfabd16304)" fill="none" stroke="#f00" stroke-linecap="square" stroke-width="1.5"/>
   </g>
   <g id="line2d_22">
    <path d="m330.35 126.73-24.158-23.537" clip-path="url(#pdfabd16304)" fill="none" stroke="#f00" stroke-linecap="square" stroke-width="1.5"/>
   </g>
   <g id="line2d_23">
    <path d="m330.35 126.73 28.99 11.769" clip-path="url(#pdfabd16304)" fill="none" stroke="#f00" stroke-linecap="square" stroke-width="1.5"/>
   </g>
   <g id="line2d_24">
    <path d="m412.48 67.886 9.6633-35.306" clip-path="url(#pdfabd16304)" fill="none" stroke="#f00" stroke-linecap="square" stroke-width="1.5"/>
   </g>
   <g id="line2d_25">
    <path d="m412.48 67.886-53.148 70.612" clip-path="url(#pdfabd16304)" fill="none" stroke="#f00" stroke-linecap="square" stroke-width="1.5"/>
   </g>
   <g id="line2d_26">
    <path d="m383.49 9.0425 38.653 23.537" clip-path="url(#pdfabd16304)" fill="none" stroke="#f00" stroke-linecap="square" stroke-width="1.5"/>
   </g>
   <g id="line2d_27">
    <path d="m364.17 9.0425-28.99 11.769" clip-path="url(#pdfabd16304)" fill="none" stroke="#f00" stroke-linecap="square" stroke-width="1.5"/>
   </g>
   <g id="line2d_28">
    <path d="m364.17 9.0425h19.327" clip-path="url(#pdfabd16304)" fill="none" stroke="#f00" stroke-linecap="square" stroke-width="1.5"/>
   </g>
   <g id="patch_8">
    <path d="m224.29 194.4v-194.18" fill="none" stroke="#000" stroke-linecap="square" stroke-width=".8"/>
   </g>
   <g id="patch_9">
    <path d="m431.57 194.4v-194.18" fill="none" stroke="#000" stroke-linecap="square" stroke-width=".8"/>
   </g>
   <g id="patch_10">
    <path d="m224.29 194.4h207.28" fill="none" stroke="#000" stroke-linecap="square" stroke-width=".8"/>
   </g>
   <g id="patch_11">
    <path d="m224.29 0.216h207.28" fill="none" stroke="#000" stroke-linecap="square" stroke-width=".8"/>
   </g>
  </g>
 </g>
 <defs>
  <clipPath id="p12f0dffbe9">
   <rect x=".432" y=".216" width="207.28" height="194.18"/>
  </clipPath>
  <clipPath id="pdfabd16304">
   <rect x="224.29" y=".216" width="207.28" height="194.18"/>
  </clipPath>
 </defs>
</svg>
