<?xml version="1.0" encoding="UTF-8"?>
<!DOCTYPE svg  PUBLIC '-//W3C//DTD SVG 1.1//EN'  'http://www.w3.org/Graphics/SVG/1.1/DTD/svg11.dtd'>
<!-- Created with matplotlib (https://matplotlib.org/) -->
<svg width="432pt" height="216pt" version="1.1" viewBox="0 0 432 216" xmlns="http://www.w3.org/2000/svg" xmlns:xlink="http://www.w3.org/1999/xlink">
 <defs>
  <style type="text/css">*{stroke-linecap:butt;stroke-linejoin:round;}</style>
 </defs>
 <g id="figure_1">
  <g id="patch_1">
   <path d="m0 216h432v-216h-432z" fill="#fff"/>
  </g>
  <g id="axes_1">
   <g id="patch_2">
    <path d="m0.432 194.4h207.28v-194.18h-207.28z" fill="#fff"/>
   </g>
   <g id="PathCollection_1">
    <defs>
     <path id="mceb6438d81" d="m-3 3 6-6m-6 0 6 6" stroke="#00f" stroke-opacity=".8" stroke-width="1.5"/>
    </defs>
    <g clip-path="url(#p38df10bfd4)" fill="#0000ff" fill-opacity=".8" stroke="#0000ff" stroke-opacity=".8" stroke-width="1.5">
     <use x="9.853678" y="175.189283" xlink:href="#mceb6438d81"/>
     <use x="14.449619" y="185.573455" xlink:href="#mceb6438d81"/>
     <use x="19.04556" y="175.189283" xlink:href="#mceb6438d81"/>
     <use x="23.6415" y="175.189283" xlink:href="#mceb6438d81"/>
     <use x="23.6415" y="164.805112" xlink:href="#mceb6438d81"/>
     <use x="23.6415" y="154.420941" xlink:href="#mceb6438d81"/>
     <use x="28.237441" y="185.573455" xlink:href="#mceb6438d81"/>
     <use x="28.237441" y="175.189283" xlink:href="#mceb6438d81"/>
     <use x="28.237441" y="164.805112" xlink:href="#mceb6438d81"/>
     <use x="32.833382" y="185.573455" xlink:href="#mceb6438d81"/>
     <use x="32.833382" y="175.189283" xlink:href="#mceb6438d81"/>
     <use x="32.833382" y="164.805112" xlink:href="#mceb6438d81"/>
     <use x="32.833382" y="154.420941" xlink:href="#mceb6438d81"/>
     <use x="37.429322" y="175.189283" xlink:href="#mceb6438d81"/>
     <use x="37.429322" y="154.420941" xlink:href="#mceb6438d81"/>
     <use x="37.429322" y="133.652599" xlink:href="#mceb6438d81"/>
     <use x="42.025263" y="175.189283" xlink:href="#mceb6438d81"/>
     <use x="42.025263" y="164.805112" xlink:href="#mceb6438d81"/>
     <use x="42.025263" y="154.420941" xlink:href="#mceb6438d81"/>
     <use x="42.025263" y="144.03677" xlink:href="#mceb6438d81"/>
     <use x="51.217144" y="175.189283" xlink:href="#mceb6438d81"/>
     <use x="51.217144" y="154.420941" xlink:href="#mceb6438d81"/>
    </g>
   </g>
   <g id="PathCollection_2">
    <defs>
     <path id="mc5ea9a4374" d="m0 3c0.79561 0 1.5587-0.3161 2.1213-0.87868 0.56258-0.56258 0.87868-1.3257 0.87868-2.1213s-0.3161-1.5587-0.87868-2.1213c-0.56258-0.56258-1.3257-0.87868-2.1213-0.87868s-1.5587 0.3161-2.1213 0.87868c-0.56258 0.56258-0.87868 1.3257-0.87868 2.1213s0.3161 1.5587 0.87868 2.1213c0.56258 0.56258 1.3257 0.87868 2.1213 0.87868z" stroke="#000" stroke-opacity=".8"/>
    </defs>
    <g clip-path="url(#p38df10bfd4)" fill="#ff0000" fill-opacity=".8" stroke="#000000" stroke-opacity=".8">
     <use x="115.560313" y="92.115914" xlink:href="#mc5ea9a4374"/>
     <use x="101.772491" y="81.731743" xlink:href="#mc5ea9a4374"/>
     <use x="133.944076" y="92.115914" xlink:href="#mc5ea9a4374"/>
     <use x="129.348135" y="60.963401" xlink:href="#mc5ea9a4374"/>
     <use x="124.752194" y="92.115914" xlink:href="#mc5ea9a4374"/>
     <use x="138.540016" y="81.731743" xlink:href="#mc5ea9a4374"/>
     <use x="143.135957" y="81.731743" xlink:href="#mc5ea9a4374"/>
     <use x="143.135957" y="71.347572" xlink:href="#mc5ea9a4374"/>
     <use x="143.135957" y="50.57923" xlink:href="#mc5ea9a4374"/>
     <use x="147.731898" y="92.115914" xlink:href="#mc5ea9a4374"/>
     <use x="147.731898" y="71.347572" xlink:href="#mc5ea9a4374"/>
     <use x="147.731898" y="60.963401" xlink:href="#mc5ea9a4374"/>
     <use x="152.327838" y="92.115914" xlink:href="#mc5ea9a4374"/>
     <use x="152.327838" y="60.963401" xlink:href="#mc5ea9a4374"/>
     <use x="156.923779" y="71.347572" xlink:href="#mc5ea9a4374"/>
     <use x="156.923779" y="60.963401" xlink:href="#mc5ea9a4374"/>
     <use x="156.923779" y="40.195059" xlink:href="#mc5ea9a4374"/>
     <use x="161.51972" y="60.963401" xlink:href="#mc5ea9a4374"/>
     <use x="161.51972" y="60.963401" xlink:href="#mc5ea9a4374"/>
     <use x="166.11566" y="60.963401" xlink:href="#mc5ea9a4374"/>
     <use x="166.11566" y="71.347572" xlink:href="#mc5ea9a4374"/>
     <use x="166.11566" y="50.57923" xlink:href="#mc5ea9a4374"/>
     <use x="170.711601" y="60.963401" xlink:href="#mc5ea9a4374"/>
     <use x="170.711601" y="40.195059" xlink:href="#mc5ea9a4374"/>
     <use x="170.711601" y="29.810888" xlink:href="#mc5ea9a4374"/>
     <use x="175.307542" y="60.963401" xlink:href="#mc5ea9a4374"/>
     <use x="175.307542" y="50.57923" xlink:href="#mc5ea9a4374"/>
     <use x="175.307542" y="40.195059" xlink:href="#mc5ea9a4374"/>
     <use x="179.903482" y="71.347572" xlink:href="#mc5ea9a4374"/>
     <use x="179.903482" y="50.57923" xlink:href="#mc5ea9a4374"/>
     <use x="179.903482" y="40.195059" xlink:href="#mc5ea9a4374"/>
     <use x="179.903482" y="29.810888" xlink:href="#mc5ea9a4374"/>
     <use x="184.499423" y="9.042545" xlink:href="#mc5ea9a4374"/>
     <use x="189.095363" y="40.195059" xlink:href="#mc5ea9a4374"/>
     <use x="184.499423" y="50.57923" xlink:href="#mc5ea9a4374"/>
     <use x="193.691304" y="19.426717" xlink:href="#mc5ea9a4374"/>
     <use x="198.287245" y="29.810888" xlink:href="#mc5ea9a4374"/>
    </g>
   </g>
   <g id="matplotlib.axis_1">
    <g id="text_1">
     <!-- 两个多边形相交为 False  -->
     <defs>
      <path id="SimHei-20004" d="m39.453 30.469q-3.9062-11.328-10.156-19.531-2.3438 3.5156-6.6406 6.6406 10.547 10.938 13.281 30.469h-14.844v-54.688h-7.8125q0.39062 8.9844 0.39062 16.797v31.25q0 5.0781-0.39062 12.891h23.438q0.39062 7.0312 0.78125 15.625h-17.578q-6.6406 0-10.938-0.39062v7.0312q4.2969-0.39062 10.547-0.39062h59.766q5.0781 0 12.109 0.39062v-7.0312q-5.0781 0.39062-11.719 0.39062h-14.062q0-6.6406-0.39062-15.625h21.484q-0.39062-6.6406-0.39062-12.109v-38.672q0-7.0312-3.9062-8.9844t-11.719-2.7344q-1.5625 7.0312-3.9062 9.375 8.2031-0.39062 10.156 0.39062t1.9531 5.8594v40.625h-14.062q-0.39062-3.9062-1.5625-12.5 9.375-8.5938 13.672-13.672-4.2969-3.125-5.8594-5.8594-2.3438 4.2969-9.7656 12.5-4.6875-14.062-9.375-21.875-5.0781 3.5156-8.2031 4.2969 4.6875 4.6875 8.7812 14.25 4.1094 9.5781 4.8906 22.859h-13.672q-0.78125-4.6875-1.9531-10.938 7.0312-5.8594 10.547-10.156-3.125-1.9531-6.25-5.0781-3.9062 6.25-6.6406 8.5938zm5.4688 39.453q0-7.4219-0.78125-15.625h13.672q0.39062 8.5938 0.39062 15.625z"/>
      <path id="SimHei-20010" d="m56.25 77.734q-1.5625-1.5625-3.125-3.5156 14.844-23.828 42.188-30.469-5.4688-5.8594-6.25-9.7656-24.609 10.156-40.625 33.984-12.109-21.484-36.328-35.156-1.9531 3.9062-7.0312 7.8125 17.578 7.8125 27.531 19.531 9.9688 11.719 12.703 21.094 5.4688-2.3438 10.938-3.5156zm-11.328-87.891q0.78125 9.375 0.78125 17.578v27.734q0 6.25-0.78125 14.844h9.375q-0.78125-5.8594-0.78125-15.234v-26.953q0-8.9844 0.78125-17.969z"/>
      <path id="SimHei-22810" d="m17.188 48.828q-3.125 3.125-7.0312 5.0781 9.7656 6.25 15.812 13.281 6.0625 7.0312 9.5781 14.453 3.9062-2.3438 8.9844-4.2969-3.9062-3.5156-6.6406-7.4219h44.141q-7.8125-10.156-15.047-16.797-7.2188-6.6406-19.328-13.281 3.125-1.5625 8.2031-3.125-2.3438-1.5625-5.0781-4.2969h34.766q-3.9062-11.719-10.547-20.125-6.6406-8.3906-15.828-12.875-9.1719-4.5-20.891-6.6406-11.719-2.1562-26.172-2.9375-1.5625 4.6875-3.5156 8.5938 6.25-0.39062 12.297-0.1875 6.0625 0.1875 14.656 1.3594t17.188 4.6875q-5.0781 6.6406-10.156 10.938 3.125 2.7344 5.8594 5.4688 5.0781-5.4688 10.938-12.5 5.4688 3.5156 9.375 8 3.9062 4.5 6.25 10.359h-30.078q-5.0781-5.0781-9.5781-8.5938-4.4844-3.5156-13.469-9.375-2.7344 3.9062-6.6406 6.25 10.547 4.6875 18.156 10.734 7.625 6.0625 13.094 13.875-8.2031-4.2969-16.406-6.8438-8.2031-2.5312-14.844-4.4844-1.9531 3.9062-5.0781 8.2031 8.9844 1.1719 16.594 3.125 7.625 1.9531 13.875 4.6875-3.9062 5.4688-8.2031 8.9844 3.5156 2.7344 6.25 5.4688 4.6875-5.4688 9.375-10.938 5.8594 3.5156 10.547 7.6094 4.6875 4.1094 9.375 8.7969h-34.766q-6.6406-7.4219-16.016-15.234z"/>
      <path id="SimHei-36793" d="m35.938 60.938q6.6406-0.39062 17.969-0.39062 0 12.109-0.39062 19.531 5.4688-1.1719 9.375-1.1719-1.1719-5.0781-1.5625-18.359h26.953q-1.1719-6.6406-1.5625-12.891l-1.9531-29.688q-0.39062-6.6406-5.6719-8.4062-5.2656-1.75-10.734-3.3125-0.39062 5.0781-3.9062 10.156 9.375 0.39062 11.328 1.3594 1.9531 0.98438 2.3438 4.5l1.9531 31.25h-19.141q-1.5625-15.625-6.4531-26.172-4.875-10.547-13.469-21.094-3.5156 3.5156-8.5938 5.8594 8.2031 5.8594 14.062 16.594 5.8594 10.75 7.0312 24.812-9.375 0-17.578-0.78125zm-23.047 12.5q3.9062 1.5625 7.8125 2.7344 5.4688-13.672 7.8125-17.578-3.9062-1.1719-8.2031-3.5156-1.1719 3.9062-7.4219 18.359zm-8.2031-28.125q7.4219-0.39062 14.062-0.39062h7.0312q-0.39062-6.6406-0.39062-11.719v-22.656q9.375-8.9844 33.203-9.375t37.109 1.5625q-3.5156-4.6875-3.5156-10.547-12.5 0-24.422 0.39062-11.906 0.39062-21.875 2.1562-9.9531 1.75-16.984 7.2188t-9.9688 0.78125q-2.9219-4.6875-6.4375-10.547-3.5156 3.5156-7.4219 6.25 9.375 7.8125 12.891 11.719v27.734q-7.0312 0-13.281-0.78125z"/>
      <path id="SimHei-24418" d="m80.078 77.734q1.5625-1.1719 8.9844-5.0781-4.6875-3.125-10.156-10.547t-14.844-16.406q-3.9062 2.3438-7.8125 4.2969 8.9844 7.0312 13.672 12.688 4.6875 5.6719 10.156 15.047zm3.5156-26.953q6.25-4.2969 8.5938-5.8594-5.0781-2.7344-10.75-9.375-5.6562-6.6406-19.719-17.188-3.5156 3.125-7.4219 5.4688 10.938 6.25 17.375 12.891 6.4531 6.6406 11.922 14.062zm3.5156-25.391q3.5156-3.125 8.2031-6.25-3.9062-2.7344-15.047-11.719-11.125-8.9844-20.891-15.234-2.7344 3.5156-7.0312 6.6406 11.328 4.6875 21.094 13.078 9.7656 8.4062 13.672 13.484zm-77.734 49.219q3.5156-0.39062 12.109-0.39062h21.875q8.9844 0 13.672 0.39062v-7.4219q-3.9062 0.39062-10.938 0.39062v-26.172q8.2031 0 12.109 0.39062v-7.4219q-3.5156 0.39062-12.109 0.39062v-26.953q0-8.2031 0.39062-12.891h-8.2031q0.39062 5.4688 0.39062 12.5v27.344h-12.5q-1.1719-19.531-5.2812-28.328-4.0938-8.7812-7.6094-13.859-4.6875 3.125-8.5938 3.9062 6.25 5.4688 9.9531 14.844 3.7188 9.375 4.1094 23.438-6.25 0-12.109-0.39062v7.4219q5.8594-0.39062 12.5-0.39062v26.172q-6.25 0-9.7656-0.39062zm17.188-7.0312v-26.172h12.109v26.172z"/>
      <path id="SimHei-30456" d="m7.0312 58.594q6.6406-0.39062 13.281-0.39062 0 15.234-0.39062 20.312h8.2031q-0.39062-5.4688-0.39062-20.312 8.2031 0 13.281 0.39062v-6.6406q-4.6875 0.39062-13.281 0.39062v-14.844q3.125 1.9531 5.4688 4.6875 5.0781-6.6406 8.9844-13.281-2.7344-1.1719-6.25-4.2969-2.7344 5.4688-8.2031 13.281v-29.297q0-6.25 0.39062-16.406h-8.2031q0.39062 10.156 0.39062 16.016v25.391q-1.5625-4.6875-4.2969-10.359-2.7344-5.6562-6.25-12.297-2.7344 5.4688-5.4688 7.8125 2.3438 3.125 5.4688 8.2031t5.4688 12.109 4.2969 13.281q-7.4219 0-12.5-0.39062zm47.266-35.156v-17.578h28.125v17.578zm0 21.094v-15.234h28.125v15.234zm0 22.266v-16.406h28.125v16.406zm-7.8125 5.8594h43.75q-0.39062-8.5938-0.39062-17.969v-42.578q0-9.375 0.39062-19.141h-7.8125v7.0312h-28.125v-7.8125h-7.8125q0.39062 11.328 0.39062 19.141v43.75q0 9.375-0.39062 17.578z"/>
      <path id="SimHei-20132" d="m34.766 57.422q3.5156-2.7344 7.4219-5.8594-5.8594-5.4688-22.656-20.703-2.7344 3.9062-6.6406 6.25 6.6406 3.9062 12.297 9.5625 5.6719 5.6719 9.5781 10.75zm24.219-7.0312q3.125 3.125 6.25 5.8594 1.9531-1.5625 8.5938-6.6406t12.5-9.7656q-3.9062-3.125-6.6406-6.6406-3.5156 4.6875-20.703 17.188zm-28.516-15.625q3.9062 1.1719 7.4219 3.125 5.8594-16.406 11.719-23.047 10.156 10.547 13.672 23.047 3.9062-3.125 8.5938-5.4688-7.4219-11.328-16.797-22.266 16.797-8.5938 35.547-8.2031-3.5156-5.8594-4.2969-9.375-19.531 2.7344-37.109 12.891-16.406-9.375-37.5-13.672-1.9531 5.0781-5.0781 8.5938 17.578 0.78125 36.719 9.7656-8.2031 10.547-12.891 24.609zm13.672 43.359q4.2969 1.5625 8.9844 2.7344 1.1719-3.125 1.75-5.0781 0.59375-1.9531 1.7656-4.6875-5.0781-1.1719-9.375-2.3438-0.78125 3.5156-3.125 9.375zm45.312-17.969q-6.25 0.39062-12.109 0.78125h-56.641q-5.4688 0-10.547-0.39062v7.8125q5.0781-0.39062 10.156-0.78125h57.031q5.8594 0.39062 12.109 0.78125z"/>
      <path id="SimHei-20026" d="m48.438 80.078q5.8594-1.1719 11.328-1.5625-1.9531-1.5625-2.9375-8.7969-0.96875-7.2188-1.75-16.594h32.422q-0.78125-7.0312-1.5625-12.891l-3.9062-38.281q-1.1719-7.8125-7.2344-9.5625-6.0469-1.7656-15.031-2.1562-0.78125 6.6406-3.9062 9.7656 12.891-0.78125 15.625 0.78125t3.5156 7.0312l3.5156 39.062h-24.609q-4.6875-19.922-14.062-32.422t-25.781-23.438q-4.6875 5.4688-7.8125 7.0312 12.891 5.8594 23.625 17.188 10.75 11.328 15.828 31.641h-16.406q-7.8125 0-17.578-0.39062v7.0312q9.7656-0.39062 17.188-0.39062h17.578q1.5625 12.891 1.9531 26.953zm-16.016-21.875q-1.9531 5.4688-7.0312 15.234 4.6875 1.5625 7.4219 3.5156 5.0781-9.7656 7.0312-15.234-3.9062-1.1719-7.4219-3.5156zm17.969-31.25q3.9062 1.5625 7.0312 3.9062 5.4688-8.5938 8.5938-15.234-3.125-1.1719-7.4219-3.9062-1.9531 6.25-8.2031 15.234z"/>
      <path id="SimHei-70" d="m46.094 60.938h-32.031v-21.875h24.219v-7.4219h-24.219v-30.078h-8.9844v66.797h41.016z"/>
      <path id="SimHei-97" d="m45.312 1.5625h-9.375q-0.78125 0.78125-1.1719 2.1406-0.39062 1.375-0.39062 3.3281-2.7344-3.125-6.6406-4.6875t-8.2031-1.5625q-6.25 0-10.547 3.125t-4.2969 8.9844 3.9062 9.375 12.109 4.6875q5.4688 0.78125 9.5625 1.9531 4.1094 1.1719 4.1094 3.125 0 2.3438-1.7656 4.6875-1.75 2.3438-7.6094 2.3438-4.6875 0-6.8438-1.7656-2.1406-1.75-2.9219-4.875h-8.5938q0.78125 6.25 5.6562 9.9531 4.8906 3.7188 12.703 3.7188 8.5938 0 12.891-3.9062t4.2969-10.938v-21.484q0-2.3438 0.78125-4.2969t2.3438-3.9062zm-10.938 14.453v7.8125q-2.3438-0.78125-4.5-1.375-2.1406-0.57812-7.2188-1.3594-5.8594-0.78125-7.625-2.7344-1.75-1.9531-1.75-4.6875 0-2.3438 1.75-4.1094 1.7656-1.75 5.2812-1.75t7.6094 1.9531q4.1094 1.9531 6.4531 6.25z"/>
      <path id="SimHei-108" d="m28.906 1.5625h-7.8125v66.797h7.8125z"/>
      <path id="SimHei-115" d="m43.359 13.672q0-6.25-4.8906-9.5781-4.875-3.3125-12.297-3.3125-9.375 0-14.453 3.7031-5.0781 3.7188-5.0781 10.75h7.8125q0-4.6875 3.3125-6.25 3.3281-1.5625 8.0156-1.5625t7.0312 1.75q2.3438 1.7656 2.3438 4.5 0 1.9531-1.9531 3.9062t-9.7656 3.125q-8.9844 1.1719-12.312 4.4844-3.3125 3.3281-3.3125 8.7969 0 4.6875 4.4844 8.3906 4.5 3.7188 13.094 3.7188 7.8125 0 12.297-3.5156 4.5-3.5156 4.5-9.375h-7.8125q0 3.5156-2.5469 4.875-2.5312 1.375-6.4375 1.375-5.0781 0-7.2344-1.7656-2.1406-1.75-2.1406-4.0938 0-2.7344 1.9531-4.2969t8.2031-2.3438q10.156-1.5625 13.672-4.8906 3.5156-3.3125 3.5156-8.3906z"/>
      <path id="SimHei-101" d="m44.922 16.406q-0.78125-7.0312-6.25-11.328t-12.891-4.2969q-9.375 0-15.438 6.0469-6.0469 6.0625-6.0469 16.609t6.0469 16.594q6.0625 6.0625 15.438 6.0625 8.2031 0 13.469-5.2812 5.2812-5.2656 5.2812-17.375h-31.641q0-8.5938 3.7031-12.109 3.7188-3.5156 9.1875-3.5156 4.2969 0 7.0312 2.1406 2.7344 2.1562 3.5156 6.4531zm-9.375 13.281q-0.78125 5.4688-3.5156 7.6094-2.7344 2.1562-7.0312 2.1562-3.9062 0-7.0312-2.1562-3.125-2.1406-4.6875-7.6094z"/>
     </defs>
     <g transform="translate(23.57 209.45) scale(.14 -.14)">
      <use xlink:href="#SimHei-20004"/>
      <use x="100" xlink:href="#SimHei-20010"/>
      <use x="200" xlink:href="#SimHei-22810"/>
      <use x="300" xlink:href="#SimHei-36793"/>
      <use x="400" xlink:href="#SimHei-24418"/>
      <use x="500" xlink:href="#SimHei-30456"/>
      <use x="600" xlink:href="#SimHei-20132"/>
      <use x="700" xlink:href="#SimHei-20026"/>
      <use x="800" xlink:href="#SimHei-32"/>
      <use x="850" xlink:href="#SimHei-70"/>
      <use x="900" xlink:href="#SimHei-97"/>
      <use x="950" xlink:href="#SimHei-108"/>
      <use x="1000" xlink:href="#SimHei-115"/>
      <use x="1050" xlink:href="#SimHei-101"/>
      <use x="1100" xlink:href="#SimHei-32"/>
     </g>
    </g>
   </g>
   <g id="line2d_1">
    <path d="m37.429 133.65-27.576 41.537 4.5959 10.384h18.384l18.384-10.384v-20.768l-13.788-20.768" clip-path="url(#p38df10bfd4)" fill="none" stroke="#00f" stroke-linecap="square" stroke-width="1.5"/>
   </g>
   <g id="line2d_2">
    <path d="m184.5 9.0425-82.727 72.689 13.788 10.384h36.768l27.576-20.768 18.384-41.537-4.5959-10.384-9.1919-10.384" clip-path="url(#p38df10bfd4)" fill="none" stroke="#f00" stroke-linecap="square" stroke-width="1.5"/>
   </g>
   <g id="patch_3">
    <path d="m0.432 194.4v-194.18" fill="none" stroke="#000" stroke-linecap="square" stroke-width=".8"/>
   </g>
   <g id="patch_4">
    <path d="m207.71 194.4v-194.18" fill="none" stroke="#000" stroke-linecap="square" stroke-width=".8"/>
   </g>
   <g id="patch_5">
    <path d="m0.432 194.4h207.28" fill="none" stroke="#000" stroke-linecap="square" stroke-width=".8"/>
   </g>
   <g id="patch_6">
    <path d="m0.432 0.216h207.28" fill="none" stroke="#000" stroke-linecap="square" stroke-width=".8"/>
   </g>
  </g>
  <g id="axes_2">
   <g id="patch_7">
    <path d="m224.29 194.4h207.28v-194.18h-207.28z" fill="#fff"/>
   </g>
   <g id="PathCollection_3">
    <g clip-path="url(#pb2558c86ef)" fill="#0000ff" fill-opacity=".8" stroke="#0000ff" stroke-opacity=".8" stroke-width="1.5">
     <use x="233.712755" y="173.804727" xlink:href="#mceb6438d81"/>
     <use x="248.207645" y="185.573455" xlink:href="#mceb6438d81"/>
     <use x="257.870905" y="185.573455" xlink:href="#mceb6438d81"/>
     <use x="262.702535" y="150.267273" xlink:href="#mceb6438d81"/>
     <use x="267.534165" y="185.573455" xlink:href="#mceb6438d81"/>
     <use x="272.365795" y="173.804727" xlink:href="#mceb6438d81"/>
     <use x="277.197424" y="173.804727" xlink:href="#mceb6438d81"/>
     <use x="277.197424" y="162.036" xlink:href="#mceb6438d81"/>
     <use x="277.197424" y="138.498545" xlink:href="#mceb6438d81"/>
     <use x="282.029054" y="185.573455" xlink:href="#mceb6438d81"/>
     <use x="282.029054" y="162.036" xlink:href="#mceb6438d81"/>
     <use x="282.029054" y="150.267273" xlink:href="#mceb6438d81"/>
     <use x="286.860684" y="185.573455" xlink:href="#mceb6438d81"/>
     <use x="286.860684" y="150.267273" xlink:href="#mceb6438d81"/>
     <use x="291.692314" y="162.036" xlink:href="#mceb6438d81"/>
     <use x="291.692314" y="150.267273" xlink:href="#mceb6438d81"/>
     <use x="291.692314" y="126.729818" xlink:href="#mceb6438d81"/>
     <use x="296.523944" y="150.267273" xlink:href="#mceb6438d81"/>
     <use x="301.355574" y="162.036" xlink:href="#mceb6438d81"/>
     <use x="301.355574" y="150.267273" xlink:href="#mceb6438d81"/>
     <use x="301.355574" y="138.498545" xlink:href="#mceb6438d81"/>
     <use x="306.187204" y="150.267273" xlink:href="#mceb6438d81"/>
     <use x="306.187204" y="126.729818" xlink:href="#mceb6438d81"/>
     <use x="306.187204" y="114.961091" xlink:href="#mceb6438d81"/>
     <use x="306.187204" y="103.192364" xlink:href="#mceb6438d81"/>
     <use x="311.018834" y="150.267273" xlink:href="#mceb6438d81"/>
     <use x="311.018834" y="138.498545" xlink:href="#mceb6438d81"/>
     <use x="311.018834" y="126.729818" xlink:href="#mceb6438d81"/>
     <use x="315.850464" y="162.036" xlink:href="#mceb6438d81"/>
     <use x="315.850464" y="138.498545" xlink:href="#mceb6438d81"/>
     <use x="315.850464" y="126.729818" xlink:href="#mceb6438d81"/>
     <use x="315.850464" y="114.961091" xlink:href="#mceb6438d81"/>
     <use x="325.513724" y="91.423636" xlink:href="#mceb6438d81"/>
     <use x="325.513724" y="67.886182" xlink:href="#mceb6438d81"/>
     <use x="330.345353" y="126.729818" xlink:href="#mceb6438d81"/>
     <use x="330.345353" y="103.192364" xlink:href="#mceb6438d81"/>
     <use x="330.345353" y="67.886182" xlink:href="#mceb6438d81"/>
     <use x="335.176983" y="126.729818" xlink:href="#mceb6438d81"/>
     <use x="335.176983" y="114.961091" xlink:href="#mceb6438d81"/>
    </g>
   </g>
   <g id="PathCollection_4">
    <g clip-path="url(#pb2558c86ef)" fill="#ff0000" fill-opacity=".8" stroke="#000000" stroke-opacity=".8">
     <use x="320.682094" y="138.498545" xlink:href="#mc5ea9a4374"/>
     <use x="320.682094" y="91.423636" xlink:href="#mc5ea9a4374"/>
     <use x="325.513724" y="126.729818" xlink:href="#mc5ea9a4374"/>
     <use x="330.345353" y="79.654909" xlink:href="#mc5ea9a4374"/>
     <use x="335.176983" y="91.423636" xlink:href="#mc5ea9a4374"/>
     <use x="335.176983" y="79.654909" xlink:href="#mc5ea9a4374"/>
     <use x="335.176983" y="67.886182" xlink:href="#mc5ea9a4374"/>
     <use x="335.176983" y="32.58" xlink:href="#mc5ea9a4374"/>
     <use x="335.176983" y="20.811273" xlink:href="#mc5ea9a4374"/>
     <use x="340.008613" y="67.886182" xlink:href="#mc5ea9a4374"/>
     <use x="340.008613" y="32.58" xlink:href="#mc5ea9a4374"/>
     <use x="344.840243" y="79.654909" xlink:href="#mc5ea9a4374"/>
     <use x="344.840243" y="32.58" xlink:href="#mc5ea9a4374"/>
     <use x="349.671873" y="56.117455" xlink:href="#mc5ea9a4374"/>
     <use x="349.671873" y="32.58" xlink:href="#mc5ea9a4374"/>
     <use x="354.503503" y="91.423636" xlink:href="#mc5ea9a4374"/>
     <use x="354.503503" y="56.117455" xlink:href="#mc5ea9a4374"/>
     <use x="359.335133" y="138.498545" xlink:href="#mc5ea9a4374"/>
     <use x="359.335133" y="91.423636" xlink:href="#mc5ea9a4374"/>
     <use x="359.335133" y="56.117455" xlink:href="#mc5ea9a4374"/>
     <use x="359.335133" y="44.348727" xlink:href="#mc5ea9a4374"/>
     <use x="359.335133" y="20.811273" xlink:href="#mc5ea9a4374"/>
     <use x="364.166763" y="56.117455" xlink:href="#mc5ea9a4374"/>
     <use x="364.166763" y="32.58" xlink:href="#mc5ea9a4374"/>
     <use x="364.166763" y="9.042545" xlink:href="#mc5ea9a4374"/>
     <use x="368.998393" y="114.961091" xlink:href="#mc5ea9a4374"/>
     <use x="368.998393" y="91.423636" xlink:href="#mc5ea9a4374"/>
     <use x="368.998393" y="44.348727" xlink:href="#mc5ea9a4374"/>
     <use x="373.830023" y="56.117455" xlink:href="#mc5ea9a4374"/>
     <use x="373.830023" y="32.58" xlink:href="#mc5ea9a4374"/>
     <use x="378.661653" y="91.423636" xlink:href="#mc5ea9a4374"/>
     <use x="378.661653" y="9.042545" xlink:href="#mc5ea9a4374"/>
     <use x="383.493282" y="79.654909" xlink:href="#mc5ea9a4374"/>
     <use x="383.493282" y="32.58" xlink:href="#mc5ea9a4374"/>
     <use x="383.493282" y="9.042545" xlink:href="#mc5ea9a4374"/>
     <use x="393.156542" y="91.423636" xlink:href="#mc5ea9a4374"/>
     <use x="397.988172" y="67.886182" xlink:href="#mc5ea9a4374"/>
     <use x="407.651432" y="56.117455" xlink:href="#mc5ea9a4374"/>
     <use x="412.483062" y="67.886182" xlink:href="#mc5ea9a4374"/>
     <use x="412.483062" y="44.348727" xlink:href="#mc5ea9a4374"/>
     <use x="422.146322" y="32.58" xlink:href="#mc5ea9a4374"/>
    </g>
   </g>
   <g id="matplotlib.axis_3">
    <g id="text_2">
     <!-- 两个多边形相交为 True  -->
     <defs>
      <path id="SimHei-84" d="m44.922 60.938h-15.625v-59.375h-8.9844v59.375h-15.625v7.4219h40.234z"/>
      <path id="SimHei-114" d="m39.453 37.5q-7.4219 1.1719-12.5-2.1562-5.0781-3.3125-8.5938-11.516v-22.266h-7.8125v43.75h7.8125v-11.328q3.5156 6.25 8.7812 9.1719 5.2812 2.9375 12.312 2.9375z"/>
      <path id="SimHei-117" d="m44.141 1.5625h-7.8125v8.2031q-3.125-4.2969-6.8438-6.6406-3.7031-2.3438-9.5625-2.3438-7.0312 0-10.547 3.9062t-3.5156 9.7656v30.859h7.8125v-28.125q0-4.6875 2.3438-7.4219t6.25-2.7344q5.0781 0 9.5625 5.2656 4.5 5.2812 4.5 13.094v19.922h7.8125z"/>
     </defs>
     <g transform="translate(250.93 209.45) scale(.14 -.14)">
      <use xlink:href="#SimHei-20004"/>
      <use x="100" xlink:href="#SimHei-20010"/>
      <use x="200" xlink:href="#SimHei-22810"/>
      <use x="300" xlink:href="#SimHei-36793"/>
      <use x="400" xlink:href="#SimHei-24418"/>
      <use x="500" xlink:href="#SimHei-30456"/>
      <use x="600" xlink:href="#SimHei-20132"/>
      <use x="700" xlink:href="#SimHei-20026"/>
      <use x="800" xlink:href="#SimHei-32"/>
      <use x="850" xlink:href="#SimHei-84"/>
      <use x="900" xlink:href="#SimHei-114"/>
      <use x="950" xlink:href="#SimHei-117"/>
      <use x="1000" xlink:href="#SimHei-101"/>
      <use x="1050" xlink:href="#SimHei-32"/>
     </g>
    </g>
   </g>
   <g id="line2d_3">
    <path d="m325.51 67.886-91.801 105.92 14.495 11.769h38.653l28.99-23.537 19.327-35.306v-11.769l-4.8316-47.075h-4.8316" clip-path="url(#pb2558c86ef)" fill="none" stroke="#00f" stroke-linecap="square" stroke-width="1.5"/>
   </g>
   <g id="line2d_4">
    <path d="m364.17 9.0425-28.99 11.769-14.495 70.612v47.075h38.653l53.148-70.612 9.6633-35.306-38.653-23.537h-19.327" clip-path="url(#pb2558c86ef)" fill="none" stroke="#f00" stroke-linecap="square" stroke-width="1.5"/>
   </g>
   <g id="patch_8">
    <path d="m224.29 194.4v-194.18" fill="none" stroke="#000" stroke-linecap="square" stroke-width=".8"/>
   </g>
   <g id="patch_9">
    <path d="m431.57 194.4v-194.18" fill="none" stroke="#000" stroke-linecap="square" stroke-width=".8"/>
   </g>
   <g id="patch_10">
    <path d="m224.29 194.4h207.28" fill="none" stroke="#000" stroke-linecap="square" stroke-width=".8"/>
   </g>
   <g id="patch_11">
    <path d="m224.29 0.216h207.28" fill="none" stroke="#000" stroke-linecap="square" stroke-width=".8"/>
   </g>
  </g>
 </g>
 <defs>
  <clipPath id="p38df10bfd4">
   <rect x=".432" y=".216" width="207.28" height="194.18"/>
  </clipPath>
  <clipPath id="pb2558c86ef">
   <rect x="224.29" y=".216" width="207.28" height="194.18"/>
  </clipPath>
 </defs>
</svg>
